<?xml version="1.0"?>
<!-- Generated by SVGo -->
<svg width="373.664mm" height="149.827mm"
     viewBox="0.000 0.000 373.664 149.827"
     xmlns="http://www.w3.org/2000/svg" 
     xmlns:xlink="http://www.w3.org/1999/xlink">
<polygon points="364.664,5.001 364.978,5.013 365.290,5.050 365.598,5.111 365.900,5.196 366.195,5.305 366.480,5.436 366.754,5.590 367.015,5.764 367.262,5.959 367.492,6.172 367.706,6.403 367.900,6.649 368.075,6.911 368.228,7.185 368.360,7.470 368.468,7.764 368.553,8.067 368.615,8.375 368.652,8.687 368.664,9.001 368.664,140.827 368.652,141.140 368.615,141.452 368.553,141.760 368.468,142.063 368.360,142.357 368.228,142.642 368.075,142.916 367.900,143.178 367.706,143.424 367.492,143.655 367.262,143.868 367.015,144.063 366.754,144.237 366.480,144.391 366.195,144.522 365.900,144.631 365.598,144.716 365.290,144.777 364.978,144.814 364.664,144.826 9.001,144.827 8.687,144.814 8.375,144.777 8.067,144.716 7.764,144.631 7.470,144.522 7.185,144.391 6.911,144.237 6.649,144.063 6.403,143.868 6.172,143.655 5.959,143.424 5.764,143.178 5.590,142.916 5.436,142.642 5.305,142.357 5.196,142.063 5.111,141.760 5.050,141.452 5.013,141.140 5.000,140.827 5.001,9.001 5.013,8.687 5.050,8.375 5.111,8.067 5.196,7.764 5.305,7.470 5.436,7.185 5.590,6.911 5.764,6.649 5.959,6.403 6.172,6.172 6.403,5.959 6.649,5.764 6.911,5.590 7.185,5.436 7.470,5.305 7.764,5.196 8.067,5.111 8.375,5.050 8.687,5.013 9.001,5.000" style="fill:none;stroke-width:0.050000mm;stroke:black"/>
<polygon points="8.382,138.924 7.825,139.208 7.382,139.651 7.098,140.208 7.000,140.827 7.098,141.445 7.382,142.002 7.825,142.445 8.382,142.729 9.001,142.827 9.619,142.729 10.176,142.445 10.619,142.002 10.903,141.445 11.001,140.827 10.903,140.208 10.619,139.651 10.176,139.208 9.619,138.924 9.001,138.827" style="fill:none;stroke-width:0.050000mm;stroke:black"/>
<polygon points="97.298,138.924 96.741,139.208 96.298,139.651 96.014,140.208 95.916,140.827 96.014,141.445 96.298,142.002 96.741,142.445 97.298,142.729 97.916,142.827 98.534,142.729 99.092,142.445 99.534,142.002 99.818,141.445 99.916,140.827 99.818,140.208 99.534,139.651 99.092,139.208 98.534,138.924 97.916,138.827" style="fill:none;stroke-width:0.050000mm;stroke:black"/>
<polygon points="186.214,138.924 185.657,139.208 185.214,139.651 184.930,140.208 184.832,140.827 184.930,141.445 185.214,142.002 185.657,142.445 186.214,142.729 186.832,142.827 187.450,142.729 188.008,142.445 188.450,142.002 188.734,141.445 188.832,140.827 188.734,140.208 188.450,139.651 188.008,139.208 187.450,138.924 186.832,138.827" style="fill:none;stroke-width:0.050000mm;stroke:black"/>
<polygon points="275.130,138.924 274.573,139.208 274.130,139.651 273.846,140.208 273.748,140.827 273.846,141.445 274.130,142.002 274.573,142.445 275.130,142.729 275.748,142.827 276.366,142.729 276.924,142.445 277.366,142.002 277.650,141.445 277.748,140.827 277.650,140.208 277.366,139.651 276.924,139.208 276.366,138.924 275.748,138.827" style="fill:none;stroke-width:0.050000mm;stroke:black"/>
<polygon points="364.046,138.924 363.488,139.208 363.046,139.651 362.762,140.208 362.664,140.827 362.762,141.445 363.046,142.002 363.488,142.445 364.046,142.729 364.664,142.827 365.282,142.729 365.840,142.445 366.282,142.002 366.566,141.445 366.664,140.827 366.566,140.208 366.282,139.651 365.840,139.208 365.282,138.924 364.664,138.827" style="fill:none;stroke-width:0.050000mm;stroke:black"/>
<polygon points="13.001,13.001 13.001,136.827 360.664,136.827 360.664,13.001" style="fill:none;stroke-width:0.050000mm;stroke:black"/>
<polygon points="8.382,73.011 7.825,73.295 7.382,73.738 7.098,74.295 7.000,74.914 7.098,75.532 7.382,76.089 7.825,76.532 8.382,76.816 9.001,76.914 9.619,76.816 10.176,76.532 10.619,76.089 10.903,75.532 11.001,74.914 10.903,74.295 10.619,73.738 10.176,73.295 9.619,73.011 9.001,72.914" style="fill:none;stroke-width:0.050000mm;stroke:black"/>
<polygon points="364.046,73.011 363.488,73.295 363.046,73.738 362.762,74.295 362.664,74.914 362.762,75.532 363.046,76.089 363.488,76.532 364.046,76.816 364.664,76.914 365.282,76.816 365.840,76.532 366.282,76.089 366.566,75.532 366.664,74.914 366.566,74.295 366.282,73.738 365.840,73.295 365.282,73.011 364.664,72.914" style="fill:none;stroke-width:0.050000mm;stroke:black"/>
<polygon points="8.382,7.098 7.825,7.382 7.382,7.825 7.098,8.382 7.000,9.001 7.098,9.619 7.382,10.176 7.825,10.619 8.382,10.903 9.001,11.001 9.619,10.903 10.176,10.619 10.619,10.176 10.903,9.619 11.001,9.001 10.903,8.382 10.619,7.825 10.176,7.382 9.619,7.098 9.001,7.001" style="fill:none;stroke-width:0.050000mm;stroke:black"/>
<polygon points="364.046,7.098 363.488,7.382 363.046,7.825 362.762,8.382 362.664,9.001 362.762,9.619 363.046,10.176 363.488,10.619 364.046,10.903 364.664,11.001 365.282,10.903 365.840,10.619 366.282,10.176 366.566,9.619 366.664,9.001 366.566,8.382 366.282,7.825 365.840,7.382 365.282,7.098 364.664,7.001" style="fill:none;stroke-width:0.050000mm;stroke:black"/>
<polygon points="275.130,7.098 274.573,7.382 274.130,7.825 273.846,8.382 273.748,9.001 273.846,9.619 274.130,10.176 274.573,10.619 275.130,10.903 275.748,11.001 276.366,10.903 276.924,10.619 277.366,10.176 277.650,9.619 277.748,9.001 277.650,8.382 277.366,7.825 276.924,7.382 276.366,7.098 275.748,7.001" style="fill:none;stroke-width:0.050000mm;stroke:black"/>
<polygon points="186.214,7.098 185.657,7.382 185.214,7.825 184.930,8.382 184.832,9.001 184.930,9.619 185.214,10.176 185.657,10.619 186.214,10.903 186.832,11.001 187.450,10.903 188.008,10.619 188.450,10.176 188.734,9.619 188.832,9.001 188.734,8.382 188.450,7.825 188.008,7.382 187.450,7.098 186.832,7.001" style="fill:none;stroke-width:0.050000mm;stroke:black"/>
<polygon points="97.298,7.098 96.741,7.382 96.298,7.825 96.014,8.382 95.916,9.001 96.014,9.619 96.298,10.176 96.741,10.619 97.298,10.903 97.916,11.001 98.534,10.903 99.092,10.619 99.534,10.176 99.818,9.619 99.916,9.001 99.818,8.382 99.534,7.825 99.092,7.382 98.534,7.098 97.916,7.001" style="fill:none;stroke-width:0.050000mm;stroke:black"/>
</svg>
