<?xml version="1.0"?>
<!-- Generated by SVGo -->
<svg width="373.664mm" height="149.827mm"
     viewBox="0.000 0.000 373.664 149.827"
     xmlns="http://www.w3.org/2000/svg" 
     xmlns:xlink="http://www.w3.org/1999/xlink">
<polygon points="364.664,5.001 364.978,5.013 365.290,5.050 365.598,5.111 365.900,5.196 366.195,5.305 366.480,5.436 366.754,5.590 367.015,5.764 367.262,5.959 367.492,6.172 367.706,6.403 367.900,6.649 368.075,6.911 368.228,7.185 368.360,7.470 368.468,7.764 368.553,8.067 368.615,8.375 368.652,8.687 368.664,9.001 368.664,140.827 368.652,141.140 368.615,141.452 368.553,141.760 368.468,142.063 368.360,142.357 368.228,142.642 368.075,142.916 367.900,143.178 367.706,143.424 367.492,143.655 367.262,143.868 367.015,144.063 366.754,144.237 366.480,144.391 366.195,144.522 365.900,144.631 365.598,144.716 365.290,144.777 364.978,144.814 364.664,144.826 9.001,144.827 8.687,144.814 8.375,144.777 8.067,144.716 7.764,144.631 7.470,144.522 7.185,144.391 6.911,144.237 6.649,144.063 6.403,143.868 6.172,143.655 5.959,143.424 5.764,143.178 5.590,142.916 5.436,142.642 5.305,142.357 5.196,142.063 5.111,141.760 5.050,141.452 5.013,141.140 5.000,140.827 5.001,9.001 5.013,8.687 5.050,8.375 5.111,8.067 5.196,7.764 5.305,7.470 5.436,7.185 5.590,6.911 5.764,6.649 5.959,6.403 6.172,6.172 6.403,5.959 6.649,5.764 6.911,5.590 7.185,5.436 7.470,5.305 7.764,5.196 8.067,5.111 8.375,5.050 8.687,5.013 9.001,5.000" style="fill:none;stroke-width:0.050000mm;stroke:black"/>
<polygon points="8.382,138.924 7.825,139.208 7.382,139.651 7.098,140.208 7.000,140.827 7.098,141.445 7.382,142.002 7.825,142.445 8.382,142.729 9.001,142.827 9.619,142.729 10.176,142.445 10.619,142.002 10.903,141.445 11.001,140.827 10.903,140.208 10.619,139.651 10.176,139.208 9.619,138.924 9.001,138.827" style="fill:none;stroke-width:0.050000mm;stroke:black"/>
<polygon points="97.298,138.924 96.741,139.208 96.298,139.651 96.014,140.208 95.916,140.827 96.014,141.445 96.298,142.002 96.741,142.445 97.298,142.729 97.916,142.827 98.534,142.729 99.092,142.445 99.534,142.002 99.818,141.445 99.916,140.827 99.818,140.208 99.534,139.651 99.092,139.208 98.534,138.924 97.916,138.827" style="fill:none;stroke-width:0.050000mm;stroke:black"/>
<polygon points="186.214,138.924 185.657,139.208 185.214,139.651 184.930,140.208 184.832,140.827 184.930,141.445 185.214,142.002 185.657,142.445 186.214,142.729 186.832,142.827 187.450,142.729 188.008,142.445 188.450,142.002 188.734,141.445 188.832,140.827 188.734,140.208 188.450,139.651 188.008,139.208 187.450,138.924 186.832,138.827" style="fill:none;stroke-width:0.050000mm;stroke:black"/>
<polygon points="275.130,138.924 274.573,139.208 274.130,139.651 273.846,140.208 273.748,140.827 273.846,141.445 274.130,142.002 274.573,142.445 275.130,142.729 275.748,142.827 276.366,142.729 276.924,142.445 277.366,142.002 277.650,141.445 277.748,140.827 277.650,140.208 277.366,139.651 276.924,139.208 276.366,138.924 275.748,138.827" style="fill:none;stroke-width:0.050000mm;stroke:black"/>
<polygon points="364.046,138.924 363.488,139.208 363.046,139.651 362.762,140.208 362.664,140.827 362.762,141.445 363.046,142.002 363.488,142.445 364.046,142.729 364.664,142.827 365.282,142.729 365.840,142.445 366.282,142.002 366.566,141.445 366.664,140.827 366.566,140.208 366.282,139.651 365.840,139.208 365.282,138.924 364.664,138.827" style="fill:none;stroke-width:0.050000mm;stroke:black"/>
<polygon points="136.969,120.301 136.969,121.301 136.169,121.301 136.169,124.400 136.969,124.400 136.969,125.001 97.344,125.001 97.344,121.771 95.619,121.771 95.619,120.851 92.319,120.851 92.319,121.771 90.594,121.771 90.594,125.001 89.769,125.001 89.769,127.801 90.594,127.801 90.594,134.071 92.319,134.071 92.319,135.051 95.619,135.051 95.619,134.071 97.344,134.071 97.344,129.601 136.969,129.601 136.969,130.200 136.169,130.200 136.169,133.301 136.969,133.301 136.969,134.301 150.969,134.301 150.969,133.301 151.769,133.301 151.769,130.200 150.969,130.200 150.969,129.601 190.594,129.601 190.594,134.071 192.319,134.071 192.319,135.051 195.619,135.051 195.619,134.071 197.344,134.071 197.344,127.801 198.169,127.801 198.169,125.001 197.344,125.001 197.344,121.771 195.619,121.771 195.619,120.851 192.319,120.851 192.319,121.771 190.594,121.771 190.594,125.001 150.969,125.001 150.969,124.400 151.769,124.400 151.769,121.301 150.969,121.301 150.969,120.301" style="fill:none;stroke-width:0.050000mm;stroke:black"/>
<polygon points="344.138,120.301 344.138,121.301 343.338,121.301 343.338,124.400 344.138,124.400 344.138,130.200 343.338,130.200 343.338,133.301 344.138,133.301 344.138,134.301 358.138,134.301 358.138,133.301 358.938,133.301 358.938,130.200 358.138,130.200 358.138,124.400 358.938,124.400 358.938,121.301 358.138,121.301 358.138,120.301" style="fill:none;stroke-width:0.050000mm;stroke:black"/>
<polygon points="325.088,120.301 325.088,121.301 324.288,121.301 324.288,124.400 325.088,124.400 325.088,130.200 324.288,130.200 324.288,133.301 325.088,133.301 325.088,134.301 339.088,134.301 339.088,133.301 339.888,133.301 339.888,130.200 339.088,130.200 339.088,124.400 339.888,124.400 339.888,121.301 339.088,121.301 339.088,120.301" style="fill:none;stroke-width:0.050000mm;stroke:black"/>
<polygon points="306.038,120.301 306.038,121.301 305.238,121.301 305.238,124.400 306.038,124.400 306.038,130.200 305.238,130.200 305.238,133.301 306.038,133.301 306.038,134.301 320.038,134.301 320.038,133.301 320.838,133.301 320.838,130.200 320.038,130.200 320.038,124.400 320.838,124.400 320.838,121.301 320.038,121.301 320.038,120.301" style="fill:none;stroke-width:0.050000mm;stroke:black"/>
<polygon points="279.844,120.301 279.844,121.301 279.044,121.301 279.044,124.400 279.844,124.400 279.844,130.200 279.044,130.200 279.044,133.301 279.844,133.301 279.844,134.301 293.844,134.301 293.844,133.301 294.644,133.301 294.644,130.200 293.844,130.200 293.844,124.400 294.644,124.400 294.644,121.301 293.844,121.301 293.844,120.301" style="fill:none;stroke-width:0.050000mm;stroke:black"/>
<polygon points="256.032,120.301 256.032,121.301 255.232,121.301 255.232,124.400 256.032,124.400 256.032,130.200 255.232,130.200 255.232,133.301 256.032,133.301 256.032,134.301 270.032,134.301 270.032,133.301 270.832,133.301 270.832,130.200 270.032,130.200 270.032,124.400 270.832,124.400 270.832,121.301 270.032,121.301 270.032,120.301" style="fill:none;stroke-width:0.050000mm;stroke:black"/>
<polygon points="232.219,120.301 232.219,121.301 231.419,121.301 231.419,124.400 232.219,124.400 232.219,130.200 231.419,130.200 231.419,133.301 232.219,133.301 232.219,134.301 246.219,134.301 246.219,133.301 247.019,133.301 247.019,130.200 246.219,130.200 246.219,124.400 247.019,124.400 247.019,121.301 246.219,121.301 246.219,120.301" style="fill:none;stroke-width:0.050000mm;stroke:black"/>
<polygon points="208.407,120.301 208.407,121.301 207.607,121.301 207.607,124.400 208.407,124.400 208.407,130.200 207.607,130.200 207.607,133.301 208.407,133.301 208.407,134.301 222.407,134.301 222.407,133.301 223.207,133.301 223.207,130.200 222.407,130.200 222.407,124.400 223.207,124.400 223.207,121.301 222.407,121.301 222.407,120.301" style="fill:none;stroke-width:0.050000mm;stroke:black"/>
<polygon points="65.532,120.301 65.532,121.301 64.731,121.301 64.731,124.400 65.532,124.400 65.532,130.200 64.731,130.200 64.731,133.301 65.532,133.301 65.532,134.301 79.532,134.301 79.532,133.301 80.332,133.301 80.332,130.200 79.532,130.200 79.532,124.400 80.332,124.400 80.332,121.301 79.532,121.301 79.532,120.301" style="fill:none;stroke-width:0.050000mm;stroke:black"/>
<polygon points="41.719,120.301 41.719,121.301 40.919,121.301 40.919,124.400 41.719,124.400 41.719,130.200 40.919,130.200 40.919,133.301 41.719,133.301 41.719,134.301 55.719,134.301 55.719,133.301 56.519,133.301 56.519,130.200 55.719,130.200 55.719,124.400 56.519,124.400 56.519,121.301 55.719,121.301 55.719,120.301" style="fill:none;stroke-width:0.050000mm;stroke:black"/>
<polygon points="17.907,120.301 17.907,121.301 17.107,121.301 17.107,124.400 17.907,124.400 17.907,130.200 17.107,130.200 17.107,133.301 17.907,133.301 17.907,134.301 31.907,134.301 31.907,133.301 32.707,133.301 32.707,130.200 31.907,130.200 31.907,124.400 32.707,124.400 32.707,121.301 31.907,121.301 31.907,120.301" style="fill:none;stroke-width:0.050000mm;stroke:black"/>
<polygon points="265.557,101.251 265.557,102.251 264.757,102.251 264.757,105.351 265.557,105.351 265.557,105.951 264.032,105.951 264.032,102.721 262.307,102.721 262.307,101.801 259.006,101.801 259.006,102.721 257.282,102.721 257.282,105.951 256.457,105.951 256.457,108.751 257.282,108.751 257.282,115.021 259.006,115.021 259.006,116.001 262.307,116.001 262.307,115.021 264.032,115.021 264.032,110.551 265.557,110.551 265.557,111.151 264.757,111.151 264.757,114.251 265.557,114.251 265.557,115.251 279.557,115.251 279.557,114.251 280.357,114.251 280.357,111.151 279.557,111.151 279.557,110.551 281.082,110.551 281.082,115.021 282.807,115.021 282.807,116.001 286.107,116.001 286.107,115.021 287.832,115.021 287.832,108.751 288.657,108.751 288.657,105.951 287.832,105.951 287.832,102.721 286.107,102.721 286.107,101.801 282.807,101.801 282.807,102.721 281.082,102.721 281.082,105.951 279.557,105.951 279.557,105.351 280.357,105.351 280.357,102.251 279.557,102.251 279.557,101.251" style="fill:none;stroke-width:0.050000mm;stroke:black"/>
<polygon points="27.432,101.251 27.432,102.251 26.632,102.251 26.632,105.351 27.432,105.351 27.432,105.951 25.907,105.951 25.907,102.721 24.182,102.721 24.182,101.801 20.882,101.801 20.882,102.721 19.157,102.721 19.157,105.951 18.332,105.951 18.332,108.751 19.157,108.751 19.157,115.021 20.882,115.021 20.882,116.001 24.182,116.001 24.182,115.021 25.907,115.021 25.907,110.551 27.432,110.551 27.432,111.151 26.632,111.151 26.632,114.251 27.432,114.251 27.432,115.251 41.432,115.251 41.432,114.251 42.232,114.251 42.232,111.151 41.432,111.151 41.432,110.551 42.957,110.551 42.957,115.021 44.682,115.021 44.682,116.001 47.982,116.001 47.982,115.021 49.707,115.021 49.707,108.751 50.532,108.751 50.532,105.951 49.707,105.951 49.707,102.721 47.982,102.721 47.982,101.801 44.682,101.801 44.682,102.721 42.957,102.721 42.957,105.951 41.432,105.951 41.432,105.351 42.232,105.351 42.232,102.251 41.432,102.251 41.432,101.251" style="fill:none;stroke-width:0.050000mm;stroke:black"/>
<polygon points="325.088,101.251 325.088,102.251 324.288,102.251 324.288,105.351 325.088,105.351 325.088,111.151 324.288,111.151 324.288,114.251 325.088,114.251 325.088,115.251 339.088,115.251 339.088,114.251 339.888,114.251 339.888,111.151 339.088,111.151 339.088,105.351 339.888,105.351 339.888,102.251 339.088,102.251 339.088,101.251" style="fill:none;stroke-width:0.050000mm;stroke:black"/>
<polygon points="229.838,101.251 229.838,102.251 229.038,102.251 229.038,105.351 229.838,105.351 229.838,111.151 229.038,111.151 229.038,114.251 229.838,114.251 229.838,115.251 243.838,115.251 243.838,114.251 244.638,114.251 244.638,111.151 243.838,111.151 243.838,105.351 244.638,105.351 244.638,102.251 243.838,102.251 243.838,101.251" style="fill:none;stroke-width:0.050000mm;stroke:black"/>
<polygon points="210.788,101.251 210.788,102.251 209.988,102.251 209.988,105.351 210.788,105.351 210.788,111.151 209.988,111.151 209.988,114.251 210.788,114.251 210.788,115.251 224.788,115.251 224.788,114.251 225.588,114.251 225.588,111.151 224.788,111.151 224.788,105.351 225.588,105.351 225.588,102.251 224.788,102.251 224.788,101.251" style="fill:none;stroke-width:0.050000mm;stroke:black"/>
<polygon points="191.738,101.251 191.738,102.251 190.938,102.251 190.938,105.351 191.738,105.351 191.738,111.151 190.938,111.151 190.938,114.251 191.738,114.251 191.738,115.251 205.738,115.251 205.738,114.251 206.538,114.251 206.538,111.151 205.738,111.151 205.738,105.351 206.538,105.351 206.538,102.251 205.738,102.251 205.738,101.251" style="fill:none;stroke-width:0.050000mm;stroke:black"/>
<polygon points="172.688,101.251 172.688,102.251 171.888,102.251 171.888,105.351 172.688,105.351 172.688,111.151 171.888,111.151 171.888,114.251 172.688,114.251 172.688,115.251 186.688,115.251 186.688,114.251 187.488,114.251 187.488,111.151 186.688,111.151 186.688,105.351 187.488,105.351 187.488,102.251 186.688,102.251 186.688,101.251" style="fill:none;stroke-width:0.050000mm;stroke:black"/>
<polygon points="153.638,101.251 153.638,102.251 152.838,102.251 152.838,105.351 153.638,105.351 153.638,111.151 152.838,111.151 152.838,114.251 153.638,114.251 153.638,115.251 167.638,115.251 167.638,114.251 168.438,114.251 168.438,111.151 167.638,111.151 167.638,105.351 168.438,105.351 168.438,102.251 167.638,102.251 167.638,101.251" style="fill:none;stroke-width:0.050000mm;stroke:black"/>
<polygon points="134.588,101.251 134.588,102.251 133.788,102.251 133.788,105.351 134.588,105.351 134.588,111.151 133.788,111.151 133.788,114.251 134.588,114.251 134.588,115.251 148.588,115.251 148.588,114.251 149.388,114.251 149.388,111.151 148.588,111.151 148.588,105.351 149.388,105.351 149.388,102.251 148.588,102.251 148.588,101.251" style="fill:none;stroke-width:0.050000mm;stroke:black"/>
<polygon points="115.538,101.251 115.538,102.251 114.738,102.251 114.738,105.351 115.538,105.351 115.538,111.151 114.738,111.151 114.738,114.251 115.538,114.251 115.538,115.251 129.538,115.251 129.538,114.251 130.337,114.251 130.337,111.151 129.538,111.151 129.538,105.351 130.337,105.351 130.337,102.251 129.538,102.251 129.538,101.251" style="fill:none;stroke-width:0.050000mm;stroke:black"/>
<polygon points="96.488,101.251 96.488,102.251 95.688,102.251 95.688,105.351 96.488,105.351 96.488,111.151 95.688,111.151 95.688,114.251 96.488,114.251 96.488,115.251 110.488,115.251 110.488,114.251 111.288,114.251 111.288,111.151 110.488,111.151 110.488,105.351 111.288,105.351 111.288,102.251 110.488,102.251 110.488,101.251" style="fill:none;stroke-width:0.050000mm;stroke:black"/>
<polygon points="77.438,101.251 77.438,102.251 76.638,102.251 76.638,105.351 77.438,105.351 77.438,111.151 76.638,111.151 76.638,114.251 77.438,114.251 77.438,115.251 91.438,115.251 91.438,114.251 92.238,114.251 92.238,111.151 91.438,111.151 91.438,105.351 92.238,105.351 92.238,102.251 91.438,102.251 91.438,101.251" style="fill:none;stroke-width:0.050000mm;stroke:black"/>
<polygon points="58.388,101.251 58.388,102.251 57.588,102.251 57.588,105.351 58.388,105.351 58.388,111.151 57.588,111.151 57.588,114.251 58.388,114.251 58.388,115.251 72.388,115.251 72.388,114.251 73.188,114.251 73.188,111.151 72.388,111.151 72.388,105.351 73.188,105.351 73.188,102.251 72.388,102.251 72.388,101.251" style="fill:none;stroke-width:0.050000mm;stroke:black"/>
<polygon points="270.319,82.201 270.319,83.201 269.519,83.201 269.519,86.301 270.319,86.301 270.319,86.901 268.794,86.901 268.794,83.671 267.069,83.671 267.069,82.751 263.769,82.751 263.769,83.671 262.044,83.671 262.044,86.901 261.219,86.901 261.219,89.701 262.044,89.701 262.044,95.971 263.769,95.971 263.769,96.951 267.069,96.951 267.069,95.971 268.794,95.971 268.794,91.501 270.319,91.501 270.319,92.101 269.519,92.101 269.519,95.201 270.319,95.201 270.319,96.201 284.319,96.201 284.319,95.201 285.119,95.201 285.119,92.101 284.319,92.101 284.319,91.501 285.844,91.501 285.844,95.971 287.569,95.971 287.569,96.951 290.869,96.951 290.869,95.971 292.594,95.971 292.594,89.701 293.419,89.701 293.419,86.901 292.594,86.901 292.594,83.671 290.869,83.671 290.869,82.751 287.569,82.751 287.569,83.671 285.844,83.671 285.844,86.901 284.319,86.901 284.319,86.301 285.119,86.301 285.119,83.201 284.319,83.201 284.319,82.201" style="fill:none;stroke-width:0.050000mm;stroke:black"/>
<polygon points="239.363,82.201 239.363,83.201 238.563,83.201 238.563,86.301 239.363,86.301 239.363,92.101 238.563,92.101 238.563,95.201 239.363,95.201 239.363,96.201 253.363,96.201 253.363,95.201 254.163,95.201 254.163,92.101 253.363,92.101 253.363,86.301 254.163,86.301 254.163,83.201 253.363,83.201 253.363,82.201" style="fill:none;stroke-width:0.050000mm;stroke:black"/>
<polygon points="220.313,82.201 220.313,83.201 219.513,83.201 219.513,86.301 220.313,86.301 220.313,92.101 219.513,92.101 219.513,95.201 220.313,95.201 220.313,96.201 234.313,96.201 234.313,95.201 235.113,95.201 235.113,92.101 234.313,92.101 234.313,86.301 235.113,86.301 235.113,83.201 234.313,83.201 234.313,82.201" style="fill:none;stroke-width:0.050000mm;stroke:black"/>
<polygon points="201.263,82.201 201.263,83.201 200.463,83.201 200.463,86.301 201.263,86.301 201.263,92.101 200.463,92.101 200.463,95.201 201.263,95.201 201.263,96.201 215.263,96.201 215.263,95.201 216.063,95.201 216.063,92.101 215.263,92.101 215.263,86.301 216.063,86.301 216.063,83.201 215.263,83.201 215.263,82.201" style="fill:none;stroke-width:0.050000mm;stroke:black"/>
<polygon points="182.213,82.201 182.213,83.201 181.413,83.201 181.413,86.301 182.213,86.301 182.213,92.101 181.413,92.101 181.413,95.201 182.213,95.201 182.213,96.201 196.213,96.201 196.213,95.201 197.013,95.201 197.013,92.101 196.213,92.101 196.213,86.301 197.013,86.301 197.013,83.201 196.213,83.201 196.213,82.201" style="fill:none;stroke-width:0.050000mm;stroke:black"/>
<polygon points="163.163,82.201 163.163,83.201 162.363,83.201 162.363,86.301 163.163,86.301 163.163,92.101 162.363,92.101 162.363,95.201 163.163,95.201 163.163,96.201 177.163,96.201 177.163,95.201 177.963,95.201 177.963,92.101 177.163,92.101 177.163,86.301 177.963,86.301 177.963,83.201 177.163,83.201 177.163,82.201" style="fill:none;stroke-width:0.050000mm;stroke:black"/>
<polygon points="144.113,82.201 144.113,83.201 143.313,83.201 143.313,86.301 144.113,86.301 144.113,92.101 143.313,92.101 143.313,95.201 144.113,95.201 144.113,96.201 158.113,96.201 158.113,95.201 158.913,95.201 158.913,92.101 158.113,92.101 158.113,86.301 158.913,86.301 158.913,83.201 158.113,83.201 158.113,82.201" style="fill:none;stroke-width:0.050000mm;stroke:black"/>
<polygon points="125.063,82.201 125.063,83.201 124.263,83.201 124.263,86.301 125.063,86.301 125.063,92.101 124.263,92.101 124.263,95.201 125.063,95.201 125.063,96.201 139.063,96.201 139.063,95.201 139.863,95.201 139.863,92.101 139.063,92.101 139.063,86.301 139.863,86.301 139.863,83.201 139.063,83.201 139.063,82.201" style="fill:none;stroke-width:0.050000mm;stroke:black"/>
<polygon points="106.013,82.201 106.013,83.201 105.213,83.201 105.213,86.301 106.013,86.301 106.013,92.101 105.213,92.101 105.213,95.201 106.013,95.201 106.013,96.201 120.013,96.201 120.013,95.201 120.813,95.201 120.813,92.101 120.013,92.101 120.013,86.301 120.813,86.301 120.813,83.201 120.013,83.201 120.013,82.201" style="fill:none;stroke-width:0.050000mm;stroke:black"/>
<polygon points="86.963,82.201 86.963,83.201 86.163,83.201 86.163,86.301 86.963,86.301 86.963,92.101 86.163,92.101 86.163,95.201 86.963,95.201 86.963,96.201 100.963,96.201 100.963,95.201 101.763,95.201 101.763,92.101 100.963,92.101 100.963,86.301 101.763,86.301 101.763,83.201 100.963,83.201 100.963,82.201" style="fill:none;stroke-width:0.050000mm;stroke:black"/>
<polygon points="67.913,82.201 67.913,83.201 67.113,83.201 67.113,86.301 67.913,86.301 67.913,92.101 67.113,92.101 67.113,95.201 67.913,95.201 67.913,96.201 81.913,96.201 81.913,95.201 82.713,95.201 82.713,92.101 81.913,92.101 81.913,86.301 82.713,86.301 82.713,83.201 81.913,83.201 81.913,82.201" style="fill:none;stroke-width:0.050000mm;stroke:black"/>
<polygon points="48.863,82.201 48.863,83.201 48.063,83.201 48.063,86.301 48.863,86.301 48.863,92.101 48.063,92.101 48.063,95.201 48.863,95.201 48.863,96.201 62.863,96.201 62.863,95.201 63.663,95.201 63.663,92.101 62.863,92.101 62.863,86.301 63.663,86.301 63.663,83.201 62.863,83.201 62.863,82.201" style="fill:none;stroke-width:0.050000mm;stroke:black"/>
<polygon points="22.669,82.201 22.669,83.201 21.869,83.201 21.869,86.301 22.669,86.301 22.669,92.101 21.869,92.101 21.869,95.201 22.669,95.201 22.669,96.201 36.669,96.201 36.669,95.201 37.469,95.201 37.469,92.101 36.669,92.101 36.669,86.301 37.469,86.301 37.469,83.201 36.669,83.201 36.669,82.201" style="fill:none;stroke-width:0.050000mm;stroke:black"/>
<polygon points="344.138,63.151 344.138,64.151 343.338,64.151 343.338,67.251 344.138,67.251 344.138,73.051 343.338,73.051 343.338,76.151 344.138,76.151 344.138,77.151 358.138,77.151 358.138,76.151 358.938,76.151 358.938,73.051 358.138,73.051 358.138,67.251 358.938,67.251 358.938,64.151 358.138,64.151 358.138,63.151" style="fill:none;stroke-width:0.050000mm;stroke:black"/>
<polygon points="325.088,63.151 325.088,64.151 324.288,64.151 324.288,67.251 325.088,67.251 325.088,73.051 324.288,73.051 324.288,76.151 325.088,76.151 325.088,77.151 339.088,77.151 339.088,76.151 339.888,76.151 339.888,73.051 339.088,73.051 339.088,67.251 339.888,67.251 339.888,64.151 339.088,64.151 339.088,63.151" style="fill:none;stroke-width:0.050000mm;stroke:black"/>
<polygon points="306.038,63.151 306.038,64.151 305.238,64.151 305.238,67.251 306.038,67.251 306.038,73.051 305.238,73.051 305.238,76.151 306.038,76.151 306.038,77.151 320.038,77.151 320.038,76.151 320.838,76.151 320.838,73.051 320.038,73.051 320.038,67.251 320.838,67.251 320.838,64.151 320.038,64.151 320.038,63.151" style="fill:none;stroke-width:0.050000mm;stroke:black"/>
<polygon points="277.463,63.151 277.463,64.151 276.663,64.151 276.663,67.251 277.463,67.251 277.463,73.051 276.663,73.051 276.663,76.151 277.463,76.151 277.463,77.151 291.463,77.151 291.463,76.151 292.263,76.151 292.263,73.051 291.463,73.051 291.463,67.251 292.263,67.251 292.263,64.151 291.463,64.151 291.463,63.151" style="fill:none;stroke-width:0.050000mm;stroke:black"/>
<polygon points="253.651,63.151 253.651,64.151 252.851,64.151 252.851,67.251 253.651,67.251 253.651,73.051 252.851,73.051 252.851,76.151 253.651,76.151 253.651,77.151 267.651,77.151 267.651,76.151 268.451,76.151 268.451,73.051 267.651,73.051 267.651,67.251 268.451,67.251 268.451,64.151 267.651,64.151 267.651,63.151" style="fill:none;stroke-width:0.050000mm;stroke:black"/>
<polygon points="234.601,63.151 234.601,64.151 233.801,64.151 233.801,67.251 234.601,67.251 234.601,73.051 233.801,73.051 233.801,76.151 234.601,76.151 234.601,77.151 248.601,77.151 248.601,76.151 249.401,76.151 249.401,73.051 248.601,73.051 248.601,67.251 249.401,67.251 249.401,64.151 248.601,64.151 248.601,63.151" style="fill:none;stroke-width:0.050000mm;stroke:black"/>
<polygon points="215.551,63.151 215.551,64.151 214.751,64.151 214.751,67.251 215.551,67.251 215.551,73.051 214.751,73.051 214.751,76.151 215.551,76.151 215.551,77.151 229.551,77.151 229.551,76.151 230.351,76.151 230.351,73.051 229.551,73.051 229.551,67.251 230.351,67.251 230.351,64.151 229.551,64.151 229.551,63.151" style="fill:none;stroke-width:0.050000mm;stroke:black"/>
<polygon points="196.501,63.151 196.501,64.151 195.701,64.151 195.701,67.251 196.501,67.251 196.501,73.051 195.701,73.051 195.701,76.151 196.501,76.151 196.501,77.151 210.501,77.151 210.501,76.151 211.301,76.151 211.301,73.051 210.501,73.051 210.501,67.251 211.301,67.251 211.301,64.151 210.501,64.151 210.501,63.151" style="fill:none;stroke-width:0.050000mm;stroke:black"/>
<polygon points="177.451,63.151 177.451,64.151 176.651,64.151 176.651,67.251 177.451,67.251 177.451,73.051 176.651,73.051 176.651,76.151 177.451,76.151 177.451,77.151 191.451,77.151 191.451,76.151 192.251,76.151 192.251,73.051 191.451,73.051 191.451,67.251 192.251,67.251 192.251,64.151 191.451,64.151 191.451,63.151" style="fill:none;stroke-width:0.050000mm;stroke:black"/>
<polygon points="158.401,63.151 158.401,64.151 157.601,64.151 157.601,67.251 158.401,67.251 158.401,73.051 157.601,73.051 157.601,76.151 158.401,76.151 158.401,77.151 172.401,77.151 172.401,76.151 173.201,76.151 173.201,73.051 172.401,73.051 172.401,67.251 173.201,67.251 173.201,64.151 172.401,64.151 172.401,63.151" style="fill:none;stroke-width:0.050000mm;stroke:black"/>
<polygon points="139.351,63.151 139.351,64.151 138.550,64.151 138.550,67.251 139.351,67.251 139.351,73.051 138.550,73.051 138.550,76.151 139.351,76.151 139.351,77.151 153.351,77.151 153.351,76.151 154.151,76.151 154.151,73.051 153.351,73.051 153.351,67.251 154.151,67.251 154.151,64.151 153.351,64.151 153.351,63.151" style="fill:none;stroke-width:0.050000mm;stroke:black"/>
<polygon points="120.301,63.151 120.301,64.151 119.501,64.151 119.501,67.251 120.301,67.251 120.301,73.051 119.501,73.051 119.501,76.151 120.301,76.151 120.301,77.151 134.301,77.151 134.301,76.151 135.101,76.151 135.101,73.051 134.301,73.051 134.301,67.251 135.101,67.251 135.101,64.151 134.301,64.151 134.301,63.151" style="fill:none;stroke-width:0.050000mm;stroke:black"/>
<polygon points="101.251,63.151 101.251,64.151 100.451,64.151 100.451,67.251 101.251,67.251 101.251,73.051 100.451,73.051 100.451,76.151 101.251,76.151 101.251,77.151 115.251,77.151 115.251,76.151 116.051,76.151 116.051,73.051 115.251,73.051 115.251,67.251 116.051,67.251 116.051,64.151 115.251,64.151 115.251,63.151" style="fill:none;stroke-width:0.050000mm;stroke:black"/>
<polygon points="82.201,63.151 82.201,64.151 81.401,64.151 81.401,67.251 82.201,67.251 82.201,73.051 81.401,73.051 81.401,76.151 82.201,76.151 82.201,77.151 96.201,77.151 96.201,76.151 97.001,76.151 97.001,73.051 96.201,73.051 96.201,67.251 97.001,67.251 97.001,64.151 96.201,64.151 96.201,63.151" style="fill:none;stroke-width:0.050000mm;stroke:black"/>
<polygon points="63.151,63.151 63.151,64.151 62.351,64.151 62.351,67.251 63.151,67.251 63.151,73.051 62.351,73.051 62.351,76.151 63.151,76.151 63.151,77.151 77.151,77.151 77.151,76.151 77.951,76.151 77.951,73.051 77.151,73.051 77.151,67.251 77.951,67.251 77.951,64.151 77.151,64.151 77.151,63.151" style="fill:none;stroke-width:0.050000mm;stroke:black"/>
<polygon points="44.101,63.151 44.101,64.151 43.301,64.151 43.301,67.251 44.101,67.251 44.101,73.051 43.301,73.051 43.301,76.151 44.101,76.151 44.101,77.151 58.101,77.151 58.101,76.151 58.901,76.151 58.901,73.051 58.101,73.051 58.101,67.251 58.901,67.251 58.901,64.151 58.101,64.151 58.101,63.151" style="fill:none;stroke-width:0.050000mm;stroke:black"/>
<polygon points="20.288,63.151 20.288,64.151 19.488,64.151 19.488,67.251 20.288,67.251 20.288,73.051 19.488,73.051 19.488,76.151 20.288,76.151 20.288,77.151 34.288,77.151 34.288,76.151 35.088,76.151 35.088,73.051 34.288,73.051 34.288,67.251 35.088,67.251 35.088,64.151 34.288,64.151 34.288,63.151" style="fill:none;stroke-width:0.050000mm;stroke:black"/>
<polygon points="8.382,73.011 7.825,73.295 7.382,73.738 7.098,74.295 7.000,74.914 7.098,75.532 7.382,76.089 7.825,76.532 8.382,76.816 9.001,76.914 9.619,76.816 10.176,76.532 10.619,76.089 10.903,75.532 11.001,74.914 10.903,74.295 10.619,73.738 10.176,73.295 9.619,73.011 9.001,72.914" style="fill:none;stroke-width:0.050000mm;stroke:black"/>
<polygon points="364.046,73.011 363.488,73.295 363.046,73.738 362.762,74.295 362.664,74.914 362.762,75.532 363.046,76.089 363.488,76.532 364.046,76.816 364.664,76.914 365.282,76.816 365.840,76.532 366.282,76.089 366.566,75.532 366.664,74.914 366.566,74.295 366.282,73.738 365.840,73.295 365.282,73.011 364.664,72.914" style="fill:none;stroke-width:0.050000mm;stroke:black"/>
<polygon points="272.701,44.101 272.701,45.101 271.901,45.101 271.901,48.201 272.701,48.201 272.701,48.801 271.176,48.801 271.176,45.571 269.451,45.571 269.451,44.651 266.151,44.651 266.151,45.571 264.426,45.571 264.426,48.801 263.601,48.801 263.601,51.601 264.426,51.601 264.426,57.871 266.151,57.871 266.151,58.851 269.451,58.851 269.451,57.871 271.176,57.871 271.176,53.401 272.701,53.401 272.701,54.001 271.901,54.001 271.901,57.101 272.701,57.101 272.701,58.101 286.701,58.101 286.701,57.101 287.501,57.101 287.501,54.001 286.701,54.001 286.701,53.401 288.226,53.401 288.226,57.871 289.951,57.871 289.951,58.851 293.251,58.851 293.251,57.871 294.976,57.871 294.976,51.601 295.801,51.601 295.801,48.801 294.976,48.801 294.976,45.571 293.251,45.571 293.251,44.651 289.951,44.651 289.951,45.571 288.226,45.571 288.226,48.801 286.701,48.801 286.701,48.201 287.501,48.201 287.501,45.101 286.701,45.101 286.701,44.101" style="fill:none;stroke-width:0.050000mm;stroke:black"/>
<polygon points="344.138,44.101 344.138,45.101 343.338,45.101 343.338,48.201 344.138,48.201 344.138,54.001 343.338,54.001 343.338,57.101 344.138,57.101 344.138,58.101 358.138,58.101 358.138,57.101 358.938,57.101 358.938,54.001 358.138,54.001 358.138,48.201 358.938,48.201 358.938,45.101 358.138,45.101 358.138,44.101" style="fill:none;stroke-width:0.050000mm;stroke:black"/>
<polygon points="325.088,44.101 325.088,45.101 324.288,45.101 324.288,48.201 325.088,48.201 325.088,54.001 324.288,54.001 324.288,57.101 325.088,57.101 325.088,58.101 339.088,58.101 339.088,57.101 339.888,57.101 339.888,54.001 339.088,54.001 339.088,48.201 339.888,48.201 339.888,45.101 339.088,45.101 339.088,44.101" style="fill:none;stroke-width:0.050000mm;stroke:black"/>
<polygon points="306.038,44.101 306.038,45.101 305.238,45.101 305.238,48.201 306.038,48.201 306.038,54.001 305.238,54.001 305.238,57.101 306.038,57.101 306.038,58.101 320.038,58.101 320.038,57.101 320.838,57.101 320.838,54.001 320.038,54.001 320.038,48.201 320.838,48.201 320.838,45.101 320.038,45.101 320.038,44.101" style="fill:none;stroke-width:0.050000mm;stroke:black"/>
<polygon points="244.126,44.101 244.126,45.101 243.326,45.101 243.326,48.201 244.126,48.201 244.126,54.001 243.326,54.001 243.326,57.101 244.126,57.101 244.126,58.101 258.126,58.101 258.126,57.101 258.926,57.101 258.926,54.001 258.126,54.001 258.126,48.201 258.926,48.201 258.926,45.101 258.126,45.101 258.126,44.101" style="fill:none;stroke-width:0.050000mm;stroke:black"/>
<polygon points="225.076,44.101 225.076,45.101 224.276,45.101 224.276,48.201 225.076,48.201 225.076,54.001 224.276,54.001 224.276,57.101 225.076,57.101 225.076,58.101 239.076,58.101 239.076,57.101 239.876,57.101 239.876,54.001 239.076,54.001 239.076,48.201 239.876,48.201 239.876,45.101 239.076,45.101 239.076,44.101" style="fill:none;stroke-width:0.050000mm;stroke:black"/>
<polygon points="206.026,44.101 206.026,45.101 205.226,45.101 205.226,48.201 206.026,48.201 206.026,54.001 205.226,54.001 205.226,57.101 206.026,57.101 206.026,58.101 220.026,58.101 220.026,57.101 220.826,57.101 220.826,54.001 220.026,54.001 220.026,48.201 220.826,48.201 220.826,45.101 220.026,45.101 220.026,44.101" style="fill:none;stroke-width:0.050000mm;stroke:black"/>
<polygon points="186.976,44.101 186.976,45.101 186.176,45.101 186.176,48.201 186.976,48.201 186.976,54.001 186.176,54.001 186.176,57.101 186.976,57.101 186.976,58.101 200.976,58.101 200.976,57.101 201.776,57.101 201.776,54.001 200.976,54.001 200.976,48.201 201.776,48.201 201.776,45.101 200.976,45.101 200.976,44.101" style="fill:none;stroke-width:0.050000mm;stroke:black"/>
<polygon points="167.926,44.101 167.926,45.101 167.126,45.101 167.126,48.201 167.926,48.201 167.926,54.001 167.126,54.001 167.126,57.101 167.926,57.101 167.926,58.101 181.926,58.101 181.926,57.101 182.726,57.101 182.726,54.001 181.926,54.001 181.926,48.201 182.726,48.201 182.726,45.101 181.926,45.101 181.926,44.101" style="fill:none;stroke-width:0.050000mm;stroke:black"/>
<polygon points="148.876,44.101 148.876,45.101 148.076,45.101 148.076,48.201 148.876,48.201 148.876,54.001 148.076,54.001 148.076,57.101 148.876,57.101 148.876,58.101 162.876,58.101 162.876,57.101 163.676,57.101 163.676,54.001 162.876,54.001 162.876,48.201 163.676,48.201 163.676,45.101 162.876,45.101 162.876,44.101" style="fill:none;stroke-width:0.050000mm;stroke:black"/>
<polygon points="129.825,44.101 129.825,45.101 129.025,45.101 129.025,48.201 129.825,48.201 129.825,54.001 129.025,54.001 129.025,57.101 129.825,57.101 129.825,58.101 143.826,58.101 143.826,57.101 144.626,57.101 144.626,54.001 143.826,54.001 143.826,48.201 144.626,48.201 144.626,45.101 143.826,45.101 143.826,44.101" style="fill:none;stroke-width:0.050000mm;stroke:black"/>
<polygon points="110.775,44.101 110.775,45.101 109.976,45.101 109.976,48.201 110.775,48.201 110.775,54.001 109.976,54.001 109.976,57.101 110.775,57.101 110.775,58.101 124.775,58.101 124.775,57.101 125.575,57.101 125.575,54.001 124.775,54.001 124.775,48.201 125.575,48.201 125.575,45.101 124.775,45.101 124.775,44.101" style="fill:none;stroke-width:0.050000mm;stroke:black"/>
<polygon points="91.726,44.101 91.726,45.101 90.926,45.101 90.926,48.201 91.726,48.201 91.726,54.001 90.926,54.001 90.926,57.101 91.726,57.101 91.726,58.101 105.726,58.101 105.726,57.101 106.525,57.101 106.525,54.001 105.726,54.001 105.726,48.201 106.525,48.201 106.525,45.101 105.726,45.101 105.726,44.101" style="fill:none;stroke-width:0.050000mm;stroke:black"/>
<polygon points="72.676,44.101 72.676,45.101 71.876,45.101 71.876,48.201 72.676,48.201 72.676,54.001 71.876,54.001 71.876,57.101 72.676,57.101 72.676,58.101 86.676,58.101 86.676,57.101 87.476,57.101 87.476,54.001 86.676,54.001 86.676,48.201 87.476,48.201 87.476,45.101 86.676,45.101 86.676,44.101" style="fill:none;stroke-width:0.050000mm;stroke:black"/>
<polygon points="53.626,44.101 53.626,45.101 52.826,45.101 52.826,48.201 53.626,48.201 53.626,54.001 52.826,54.001 52.826,57.101 53.626,57.101 53.626,58.101 67.626,58.101 67.626,57.101 68.426,57.101 68.426,54.001 67.626,54.001 67.626,48.201 68.426,48.201 68.426,45.101 67.626,45.101 67.626,44.101" style="fill:none;stroke-width:0.050000mm;stroke:black"/>
<polygon points="34.576,44.101 34.576,45.101 33.776,45.101 33.776,48.201 34.576,48.201 34.576,54.001 33.776,54.001 33.776,57.101 34.576,57.101 34.576,58.101 48.576,58.101 48.576,57.101 49.376,57.101 49.376,54.001 48.576,54.001 48.576,48.201 49.376,48.201 49.376,45.101 48.576,45.101 48.576,44.101" style="fill:none;stroke-width:0.050000mm;stroke:black"/>
<polygon points="15.525,44.101 15.525,45.101 14.725,45.101 14.725,48.201 15.525,48.201 15.525,54.001 14.725,54.001 14.725,57.101 15.525,57.101 15.525,58.101 29.526,58.101 29.526,57.101 30.326,57.101 30.326,54.001 29.526,54.001 29.526,48.201 30.326,48.201 30.326,45.101 29.526,45.101 29.526,44.101" style="fill:none;stroke-width:0.050000mm;stroke:black"/>
<polygon points="344.138,15.525 344.138,16.526 343.338,16.526 343.338,19.626 344.138,19.626 344.138,25.425 343.338,25.425 343.338,28.526 344.138,28.526 344.138,29.526 358.138,29.526 358.138,28.526 358.938,28.526 358.938,25.425 358.138,25.425 358.138,19.626 358.938,19.626 358.938,16.526 358.138,16.526 358.138,15.525" style="fill:none;stroke-width:0.050000mm;stroke:black"/>
<polygon points="325.088,15.525 325.088,16.526 324.288,16.526 324.288,19.626 325.088,19.626 325.088,25.425 324.288,25.425 324.288,28.526 325.088,28.526 325.088,29.526 339.088,29.526 339.088,28.526 339.888,28.526 339.888,25.425 339.088,25.425 339.088,19.626 339.888,19.626 339.888,16.526 339.088,16.526 339.088,15.525" style="fill:none;stroke-width:0.050000mm;stroke:black"/>
<polygon points="306.038,15.525 306.038,16.526 305.238,16.526 305.238,19.626 306.038,19.626 306.038,25.425 305.238,25.425 305.238,28.526 306.038,28.526 306.038,29.526 320.038,29.526 320.038,28.526 320.838,28.526 320.838,25.425 320.038,25.425 320.038,19.626 320.838,19.626 320.838,16.526 320.038,16.526 320.038,15.525" style="fill:none;stroke-width:0.050000mm;stroke:black"/>
<polygon points="282.226,15.525 282.226,16.526 281.426,16.526 281.426,19.626 282.226,19.626 282.226,25.425 281.426,25.425 281.426,28.526 282.226,28.526 282.226,29.526 296.226,29.526 296.226,28.526 297.026,28.526 297.026,25.425 296.226,25.425 296.226,19.626 297.026,19.626 297.026,16.526 296.226,16.526 296.226,15.525" style="fill:none;stroke-width:0.050000mm;stroke:black"/>
<polygon points="263.176,15.525 263.176,16.526 262.376,16.526 262.376,19.626 263.176,19.626 263.176,25.425 262.376,25.425 262.376,28.526 263.176,28.526 263.176,29.526 277.176,29.526 277.176,28.526 277.976,28.526 277.976,25.425 277.176,25.425 277.176,19.626 277.976,19.626 277.976,16.526 277.176,16.526 277.176,15.525" style="fill:none;stroke-width:0.050000mm;stroke:black"/>
<polygon points="244.126,15.525 244.126,16.526 243.326,16.526 243.326,19.626 244.126,19.626 244.126,25.425 243.326,25.425 243.326,28.526 244.126,28.526 244.126,29.526 258.126,29.526 258.126,28.526 258.926,28.526 258.926,25.425 258.126,25.425 258.126,19.626 258.926,19.626 258.926,16.526 258.126,16.526 258.126,15.525" style="fill:none;stroke-width:0.050000mm;stroke:black"/>
<polygon points="225.076,15.525 225.076,16.526 224.276,16.526 224.276,19.626 225.076,19.626 225.076,25.425 224.276,25.425 224.276,28.526 225.076,28.526 225.076,29.526 239.076,29.526 239.076,28.526 239.876,28.526 239.876,25.425 239.076,25.425 239.076,19.626 239.876,19.626 239.876,16.526 239.076,16.526 239.076,15.525" style="fill:none;stroke-width:0.050000mm;stroke:black"/>
<polygon points="196.501,15.525 196.501,16.526 195.701,16.526 195.701,19.626 196.501,19.626 196.501,25.425 195.701,25.425 195.701,28.526 196.501,28.526 196.501,29.526 210.501,29.526 210.501,28.526 211.301,28.526 211.301,25.425 210.501,25.425 210.501,19.626 211.301,19.626 211.301,16.526 210.501,16.526 210.501,15.525" style="fill:none;stroke-width:0.050000mm;stroke:black"/>
<polygon points="177.451,15.525 177.451,16.526 176.651,16.526 176.651,19.626 177.451,19.626 177.451,25.425 176.651,25.425 176.651,28.526 177.451,28.526 177.451,29.526 191.451,29.526 191.451,28.526 192.251,28.526 192.251,25.425 191.451,25.425 191.451,19.626 192.251,19.626 192.251,16.526 191.451,16.526 191.451,15.525" style="fill:none;stroke-width:0.050000mm;stroke:black"/>
<polygon points="158.401,15.525 158.401,16.526 157.601,16.526 157.601,19.626 158.401,19.626 158.401,25.425 157.601,25.425 157.601,28.526 158.401,28.526 158.401,29.526 172.401,29.526 172.401,28.526 173.201,28.526 173.201,25.425 172.401,25.425 172.401,19.626 173.201,19.626 173.201,16.526 172.401,16.526 172.401,15.525" style="fill:none;stroke-width:0.050000mm;stroke:black"/>
<polygon points="139.351,15.525 139.351,16.526 138.550,16.526 138.550,19.626 139.351,19.626 139.351,25.425 138.550,25.425 138.550,28.526 139.351,28.526 139.351,29.526 153.351,29.526 153.351,28.526 154.151,28.526 154.151,25.425 153.351,25.425 153.351,19.626 154.151,19.626 154.151,16.526 153.351,16.526 153.351,15.525" style="fill:none;stroke-width:0.050000mm;stroke:black"/>
<polygon points="110.775,15.525 110.775,16.526 109.976,16.526 109.976,19.626 110.775,19.626 110.775,25.425 109.976,25.425 109.976,28.526 110.775,28.526 110.775,29.526 124.775,29.526 124.775,28.526 125.575,28.526 125.575,25.425 124.775,25.425 124.775,19.626 125.575,19.626 125.575,16.526 124.775,16.526 124.775,15.525" style="fill:none;stroke-width:0.050000mm;stroke:black"/>
<polygon points="91.726,15.525 91.726,16.526 90.926,16.526 90.926,19.626 91.726,19.626 91.726,25.425 90.926,25.425 90.926,28.526 91.726,28.526 91.726,29.526 105.726,29.526 105.726,28.526 106.525,28.526 106.525,25.425 105.726,25.425 105.726,19.626 106.525,19.626 106.525,16.526 105.726,16.526 105.726,15.525" style="fill:none;stroke-width:0.050000mm;stroke:black"/>
<polygon points="72.676,15.525 72.676,16.526 71.876,16.526 71.876,19.626 72.676,19.626 72.676,25.425 71.876,25.425 71.876,28.526 72.676,28.526 72.676,29.526 86.676,29.526 86.676,28.526 87.476,28.526 87.476,25.425 86.676,25.425 86.676,19.626 87.476,19.626 87.476,16.526 86.676,16.526 86.676,15.525" style="fill:none;stroke-width:0.050000mm;stroke:black"/>
<polygon points="53.626,15.525 53.626,16.526 52.826,16.526 52.826,19.626 53.626,19.626 53.626,25.425 52.826,25.425 52.826,28.526 53.626,28.526 53.626,29.526 67.626,29.526 67.626,28.526 68.426,28.526 68.426,25.425 67.626,25.425 67.626,19.626 68.426,19.626 68.426,16.526 67.626,16.526 67.626,15.525" style="fill:none;stroke-width:0.050000mm;stroke:black"/>
<polygon points="15.525,15.525 15.525,16.526 14.725,16.526 14.725,19.626 15.525,19.626 15.525,25.425 14.725,25.425 14.725,28.526 15.525,28.526 15.525,29.526 29.526,29.526 29.526,28.526 30.326,28.526 30.326,25.425 29.526,25.425 29.526,19.626 30.326,19.626 30.326,16.526 29.526,16.526 29.526,15.525" style="fill:none;stroke-width:0.050000mm;stroke:black"/>
<polygon points="8.382,7.098 7.825,7.382 7.382,7.825 7.098,8.382 7.000,9.001 7.098,9.619 7.382,10.176 7.825,10.619 8.382,10.903 9.001,11.001 9.619,10.903 10.176,10.619 10.619,10.176 10.903,9.619 11.001,9.001 10.903,8.382 10.619,7.825 10.176,7.382 9.619,7.098 9.001,7.001" style="fill:none;stroke-width:0.050000mm;stroke:black"/>
<polygon points="364.046,7.098 363.488,7.382 363.046,7.825 362.762,8.382 362.664,9.001 362.762,9.619 363.046,10.176 363.488,10.619 364.046,10.903 364.664,11.001 365.282,10.903 365.840,10.619 366.282,10.176 366.566,9.619 366.664,9.001 366.566,8.382 366.282,7.825 365.840,7.382 365.282,7.098 364.664,7.001" style="fill:none;stroke-width:0.050000mm;stroke:black"/>
<polygon points="275.130,7.098 274.573,7.382 274.130,7.825 273.846,8.382 273.748,9.001 273.846,9.619 274.130,10.176 274.573,10.619 275.130,10.903 275.748,11.001 276.366,10.903 276.924,10.619 277.366,10.176 277.650,9.619 277.748,9.001 277.650,8.382 277.366,7.825 276.924,7.382 276.366,7.098 275.748,7.001" style="fill:none;stroke-width:0.050000mm;stroke:black"/>
<polygon points="186.214,7.098 185.657,7.382 185.214,7.825 184.930,8.382 184.832,9.001 184.930,9.619 185.214,10.176 185.657,10.619 186.214,10.903 186.832,11.001 187.450,10.903 188.008,10.619 188.450,10.176 188.734,9.619 188.832,9.001 188.734,8.382 188.450,7.825 188.008,7.382 187.450,7.098 186.832,7.001" style="fill:none;stroke-width:0.050000mm;stroke:black"/>
<polygon points="97.298,7.098 96.741,7.382 96.298,7.825 96.014,8.382 95.916,9.001 96.014,9.619 96.298,10.176 96.741,10.619 97.298,10.903 97.916,11.001 98.534,10.903 99.092,10.619 99.534,10.176 99.818,9.619 99.916,9.001 99.818,8.382 99.534,7.825 99.092,7.382 98.534,7.098 97.916,7.001" style="fill:none;stroke-width:0.050000mm;stroke:black"/>
</svg>
