G04 #@! TF.GenerationSoftware,KiCad,Pcbnew,(6.0.0)*
G04 #@! TF.CreationDate,2022-04-02T17:53:52-07:00*
G04 #@! TF.ProjectId,keyboard_exposed_diodes_standard_tkl,6b657962-6f61-4726-945f-6578706f7365,rev?*
G04 #@! TF.SameCoordinates,Original*
G04 #@! TF.FileFunction,Profile,NP*
%FSLAX46Y46*%
G04 Gerber Fmt 4.6, Leading zero omitted, Abs format (unit mm)*
G04 Created by KiCad (PCBNEW (6.0.0)) date 2022-04-02 17:53:52*
%MOMM*%
%LPD*%
G01*
G04 APERTURE LIST*
G04 #@! TA.AperFunction,Profile*
%ADD10C,0.100000*%
G04 #@! TD*
G04 #@! TA.AperFunction,Profile*
%ADD11C,0.010000*%
G04 #@! TD*
G04 APERTURE END LIST*
D10*
X472000000Y-209000000D02*
X472000000Y-339000000D01*
X468000000Y-343000000D02*
X114000000Y-343000000D01*
X110000000Y-339000000D02*
X110000000Y-209000000D01*
X110000000Y-170000000D02*
X110000000Y-205000000D01*
X468000000Y-343000000D02*
G75*
G03*
X472000000Y-339000000I0J4000000D01*
G01*
X114000000Y-166000000D02*
G75*
G03*
X110000000Y-170000000I0J-4000000D01*
G01*
X281750000Y-166000000D02*
X114000000Y-166000000D01*
X110000000Y-339000000D02*
G75*
G03*
X114000000Y-343000000I4000000J0D01*
G01*
X472000000Y-205000000D02*
X472000000Y-170000000D01*
X472000000Y-209000000D02*
X472000000Y-205000000D01*
X298250000Y-166000000D02*
X281750000Y-166000000D01*
X472000000Y-170000000D02*
G75*
G03*
X468000000Y-166000000I-4000000J0D01*
G01*
X298250000Y-166000000D02*
X468000000Y-166000000D01*
X110000000Y-209000000D02*
X110000000Y-205000000D01*
D11*
X383188750Y-294225000D02*
X379788750Y-294225000D01*
X379788750Y-294225000D02*
X379788750Y-291225000D01*
X379788750Y-291225000D02*
X383188750Y-291225000D01*
X383188750Y-291225000D02*
X383188750Y-294225000D01*
X378426250Y-313275000D02*
X375026250Y-313275000D01*
X375026250Y-313275000D02*
X375026250Y-310275000D01*
X375026250Y-310275000D02*
X378426250Y-310275000D01*
X378426250Y-310275000D02*
X378426250Y-313275000D01*
X147445000Y-256125000D02*
X144045000Y-256125000D01*
X144045000Y-256125000D02*
X144045000Y-253125000D01*
X144045000Y-253125000D02*
X147445000Y-253125000D01*
X147445000Y-253125000D02*
X147445000Y-256125000D01*
X166495000Y-256125000D02*
X163095000Y-256125000D01*
X163095000Y-256125000D02*
X163095000Y-253125000D01*
X163095000Y-253125000D02*
X166495000Y-253125000D01*
X166495000Y-253125000D02*
X166495000Y-256125000D01*
X185545000Y-256125000D02*
X182145000Y-256125000D01*
X182145000Y-256125000D02*
X182145000Y-253125000D01*
X182145000Y-253125000D02*
X185545000Y-253125000D01*
X185545000Y-253125000D02*
X185545000Y-256125000D01*
X204595000Y-256125000D02*
X201195000Y-256125000D01*
X201195000Y-256125000D02*
X201195000Y-253125000D01*
X201195000Y-253125000D02*
X204595000Y-253125000D01*
X204595000Y-253125000D02*
X204595000Y-256125000D01*
X223645000Y-256125000D02*
X220245000Y-256125000D01*
X220245000Y-256125000D02*
X220245000Y-253125000D01*
X220245000Y-253125000D02*
X223645000Y-253125000D01*
X223645000Y-253125000D02*
X223645000Y-256125000D01*
X242695000Y-256125000D02*
X239295000Y-256125000D01*
X239295000Y-256125000D02*
X239295000Y-253125000D01*
X239295000Y-253125000D02*
X242695000Y-253125000D01*
X242695000Y-253125000D02*
X242695000Y-256125000D01*
X261745000Y-256125000D02*
X258345000Y-256125000D01*
X258345000Y-256125000D02*
X258345000Y-253125000D01*
X258345000Y-253125000D02*
X261745000Y-253125000D01*
X261745000Y-253125000D02*
X261745000Y-256125000D01*
X280795000Y-256125000D02*
X277395000Y-256125000D01*
X277395000Y-256125000D02*
X277395000Y-253125000D01*
X277395000Y-253125000D02*
X280795000Y-253125000D01*
X280795000Y-253125000D02*
X280795000Y-256125000D01*
X299845000Y-256125000D02*
X296445000Y-256125000D01*
X296445000Y-256125000D02*
X296445000Y-253125000D01*
X296445000Y-253125000D02*
X299845000Y-253125000D01*
X299845000Y-253125000D02*
X299845000Y-256125000D01*
X161732500Y-294225000D02*
X158332500Y-294225000D01*
X158332500Y-294225000D02*
X158332500Y-291225000D01*
X158332500Y-291225000D02*
X161732500Y-291225000D01*
X161732500Y-291225000D02*
X161732500Y-294225000D01*
X247457500Y-313275000D02*
X244057500Y-313275000D01*
X244057500Y-313275000D02*
X244057500Y-310275000D01*
X244057500Y-310275000D02*
X247457500Y-310275000D01*
X247457500Y-310275000D02*
X247457500Y-313275000D01*
X385570000Y-256125000D02*
X382170000Y-256125000D01*
X382170000Y-256125000D02*
X382170000Y-253125000D01*
X382170000Y-253125000D02*
X385570000Y-253125000D01*
X385570000Y-253125000D02*
X385570000Y-256125000D01*
X390332500Y-275175000D02*
X386932500Y-275175000D01*
X386932500Y-275175000D02*
X386932500Y-272175000D01*
X386932500Y-272175000D02*
X390332500Y-272175000D01*
X390332500Y-272175000D02*
X390332500Y-275175000D01*
X209357500Y-313275000D02*
X205957500Y-313275000D01*
X205957500Y-313275000D02*
X205957500Y-310275000D01*
X205957500Y-310275000D02*
X209357500Y-310275000D01*
X209357500Y-310275000D02*
X209357500Y-313275000D01*
X199832500Y-294225000D02*
X196432500Y-294225000D01*
X196432500Y-294225000D02*
X196432500Y-291225000D01*
X196432500Y-291225000D02*
X199832500Y-291225000D01*
X199832500Y-291225000D02*
X199832500Y-294225000D01*
X337945000Y-256125000D02*
X334545000Y-256125000D01*
X334545000Y-256125000D02*
X334545000Y-253125000D01*
X334545000Y-253125000D02*
X337945000Y-253125000D01*
X337945000Y-253125000D02*
X337945000Y-256125000D01*
X418907500Y-275175000D02*
X415507500Y-275175000D01*
X415507500Y-275175000D02*
X415507500Y-272175000D01*
X415507500Y-272175000D02*
X418907500Y-272175000D01*
X418907500Y-272175000D02*
X418907500Y-275175000D01*
X437957500Y-332325000D02*
X434557500Y-332325000D01*
X434557500Y-332325000D02*
X434557500Y-329325000D01*
X434557500Y-329325000D02*
X437957500Y-329325000D01*
X437957500Y-329325000D02*
X437957500Y-332325000D01*
X195070000Y-275175000D02*
X191670000Y-275175000D01*
X191670000Y-275175000D02*
X191670000Y-272175000D01*
X191670000Y-272175000D02*
X195070000Y-272175000D01*
X195070000Y-272175000D02*
X195070000Y-275175000D01*
X437957500Y-275175000D02*
X434557500Y-275175000D01*
X434557500Y-275175000D02*
X434557500Y-272175000D01*
X434557500Y-272175000D02*
X437957500Y-272175000D01*
X437957500Y-272175000D02*
X437957500Y-275175000D01*
X356995000Y-256125000D02*
X353595000Y-256125000D01*
X353595000Y-256125000D02*
X353595000Y-253125000D01*
X353595000Y-253125000D02*
X356995000Y-253125000D01*
X356995000Y-253125000D02*
X356995000Y-256125000D01*
X147445000Y-227550000D02*
X144045000Y-227550000D01*
X144045000Y-227550000D02*
X144045000Y-224550000D01*
X144045000Y-224550000D02*
X147445000Y-224550000D01*
X147445000Y-224550000D02*
X147445000Y-227550000D01*
X211738750Y-332325000D02*
X208338750Y-332325000D01*
X208338750Y-332325000D02*
X208338750Y-329325000D01*
X208338750Y-329325000D02*
X211738750Y-329325000D01*
X211738750Y-329325000D02*
X211738750Y-332325000D01*
X287938750Y-332325000D02*
X284538750Y-332325000D01*
X284538750Y-332325000D02*
X284538750Y-329325000D01*
X284538750Y-329325000D02*
X287938750Y-329325000D01*
X287938750Y-329325000D02*
X287938750Y-332325000D01*
X418907500Y-294225000D02*
X415507500Y-294225000D01*
X415507500Y-294225000D02*
X415507500Y-291225000D01*
X415507500Y-291225000D02*
X418907500Y-291225000D01*
X418907500Y-291225000D02*
X418907500Y-294225000D01*
X418907500Y-313275000D02*
X415507500Y-313275000D01*
X415507500Y-313275000D02*
X415507500Y-310275000D01*
X415507500Y-310275000D02*
X418907500Y-310275000D01*
X418907500Y-310275000D02*
X418907500Y-313275000D01*
X437957500Y-294225000D02*
X434557500Y-294225000D01*
X434557500Y-294225000D02*
X434557500Y-291225000D01*
X434557500Y-291225000D02*
X437957500Y-291225000D01*
X437957500Y-291225000D02*
X437957500Y-294225000D01*
X457007500Y-294225000D02*
X453607500Y-294225000D01*
X453607500Y-294225000D02*
X453607500Y-291225000D01*
X453607500Y-291225000D02*
X457007500Y-291225000D01*
X457007500Y-291225000D02*
X457007500Y-294225000D01*
X457007500Y-313275000D02*
X453607500Y-313275000D01*
X453607500Y-313275000D02*
X453607500Y-310275000D01*
X453607500Y-310275000D02*
X457007500Y-310275000D01*
X457007500Y-310275000D02*
X457007500Y-313275000D01*
X166495000Y-227550000D02*
X163095000Y-227550000D01*
X163095000Y-227550000D02*
X163095000Y-224550000D01*
X163095000Y-224550000D02*
X166495000Y-224550000D01*
X166495000Y-224550000D02*
X166495000Y-227550000D01*
X185545000Y-227550000D02*
X182145000Y-227550000D01*
X182145000Y-227550000D02*
X182145000Y-224550000D01*
X182145000Y-224550000D02*
X185545000Y-224550000D01*
X185545000Y-224550000D02*
X185545000Y-227550000D01*
X204595000Y-227550000D02*
X201195000Y-227550000D01*
X201195000Y-227550000D02*
X201195000Y-224550000D01*
X201195000Y-224550000D02*
X204595000Y-224550000D01*
X204595000Y-224550000D02*
X204595000Y-227550000D01*
X252220000Y-227550000D02*
X248820000Y-227550000D01*
X248820000Y-227550000D02*
X248820000Y-224550000D01*
X248820000Y-224550000D02*
X252220000Y-224550000D01*
X252220000Y-224550000D02*
X252220000Y-227550000D01*
X290320000Y-227550000D02*
X286920000Y-227550000D01*
X286920000Y-227550000D02*
X286920000Y-224550000D01*
X286920000Y-224550000D02*
X290320000Y-224550000D01*
X290320000Y-224550000D02*
X290320000Y-227550000D01*
X309370000Y-227550000D02*
X305970000Y-227550000D01*
X305970000Y-227550000D02*
X305970000Y-224550000D01*
X305970000Y-224550000D02*
X309370000Y-224550000D01*
X309370000Y-224550000D02*
X309370000Y-227550000D01*
X376045000Y-227550000D02*
X372645000Y-227550000D01*
X372645000Y-227550000D02*
X372645000Y-224550000D01*
X372645000Y-224550000D02*
X376045000Y-224550000D01*
X376045000Y-224550000D02*
X376045000Y-227550000D01*
X218882500Y-294225000D02*
X215482500Y-294225000D01*
X215482500Y-294225000D02*
X215482500Y-291225000D01*
X215482500Y-291225000D02*
X218882500Y-291225000D01*
X218882500Y-291225000D02*
X218882500Y-294225000D01*
X342707500Y-313275000D02*
X339307500Y-313275000D01*
X339307500Y-313275000D02*
X339307500Y-310275000D01*
X339307500Y-310275000D02*
X342707500Y-310275000D01*
X342707500Y-310275000D02*
X342707500Y-313275000D01*
X237932500Y-294225000D02*
X234532500Y-294225000D01*
X234532500Y-294225000D02*
X234532500Y-291225000D01*
X234532500Y-291225000D02*
X237932500Y-291225000D01*
X237932500Y-291225000D02*
X237932500Y-294225000D01*
X256982500Y-294225000D02*
X253582500Y-294225000D01*
X253582500Y-294225000D02*
X253582500Y-291225000D01*
X253582500Y-291225000D02*
X256982500Y-291225000D01*
X256982500Y-291225000D02*
X256982500Y-294225000D01*
X437957500Y-256125000D02*
X434557500Y-256125000D01*
X434557500Y-256125000D02*
X434557500Y-253125000D01*
X434557500Y-253125000D02*
X437957500Y-253125000D01*
X437957500Y-253125000D02*
X437957500Y-256125000D01*
X290320000Y-275175000D02*
X286920000Y-275175000D01*
X286920000Y-275175000D02*
X286920000Y-272175000D01*
X286920000Y-272175000D02*
X290320000Y-272175000D01*
X290320000Y-272175000D02*
X290320000Y-275175000D01*
X418907500Y-256125000D02*
X415507500Y-256125000D01*
X415507500Y-256125000D02*
X415507500Y-253125000D01*
X415507500Y-253125000D02*
X418907500Y-253125000D01*
X418907500Y-253125000D02*
X418907500Y-256125000D01*
X295082500Y-294225000D02*
X291682500Y-294225000D01*
X291682500Y-294225000D02*
X291682500Y-291225000D01*
X291682500Y-291225000D02*
X295082500Y-291225000D01*
X295082500Y-291225000D02*
X295082500Y-294225000D01*
X314132500Y-294225000D02*
X310732500Y-294225000D01*
X310732500Y-294225000D02*
X310732500Y-291225000D01*
X310732500Y-291225000D02*
X314132500Y-291225000D01*
X314132500Y-291225000D02*
X314132500Y-294225000D01*
X178401250Y-332325000D02*
X175001250Y-332325000D01*
X175001250Y-332325000D02*
X175001250Y-329325000D01*
X175001250Y-329325000D02*
X178401250Y-329325000D01*
X178401250Y-329325000D02*
X178401250Y-332325000D01*
X418907500Y-332325000D02*
X415507500Y-332325000D01*
X415507500Y-332325000D02*
X415507500Y-329325000D01*
X415507500Y-329325000D02*
X418907500Y-329325000D01*
X418907500Y-329325000D02*
X418907500Y-332325000D01*
X154588750Y-332325000D02*
X151188750Y-332325000D01*
X151188750Y-332325000D02*
X151188750Y-329325000D01*
X151188750Y-329325000D02*
X154588750Y-329325000D01*
X154588750Y-329325000D02*
X154588750Y-332325000D01*
X285557500Y-313275000D02*
X282157500Y-313275000D01*
X282157500Y-313275000D02*
X282157500Y-310275000D01*
X282157500Y-310275000D02*
X285557500Y-310275000D01*
X285557500Y-310275000D02*
X285557500Y-313275000D01*
X368901250Y-332325000D02*
X365501250Y-332325000D01*
X365501250Y-332325000D02*
X365501250Y-329325000D01*
X365501250Y-329325000D02*
X368901250Y-329325000D01*
X368901250Y-329325000D02*
X368901250Y-332325000D01*
X266507500Y-313275000D02*
X263107500Y-313275000D01*
X263107500Y-313275000D02*
X263107500Y-310275000D01*
X263107500Y-310275000D02*
X266507500Y-310275000D01*
X266507500Y-310275000D02*
X266507500Y-313275000D01*
X309370000Y-275175000D02*
X305970000Y-275175000D01*
X305970000Y-275175000D02*
X305970000Y-272175000D01*
X305970000Y-272175000D02*
X309370000Y-272175000D01*
X309370000Y-272175000D02*
X309370000Y-275175000D01*
X457007500Y-227550000D02*
X453607500Y-227550000D01*
X453607500Y-227550000D02*
X453607500Y-224550000D01*
X453607500Y-224550000D02*
X457007500Y-224550000D01*
X457007500Y-224550000D02*
X457007500Y-227550000D01*
X457007500Y-275175000D02*
X453607500Y-275175000D01*
X453607500Y-275175000D02*
X453607500Y-272175000D01*
X453607500Y-272175000D02*
X457007500Y-272175000D01*
X457007500Y-272175000D02*
X457007500Y-275175000D01*
X457007500Y-256125000D02*
X453607500Y-256125000D01*
X453607500Y-256125000D02*
X453607500Y-253125000D01*
X453607500Y-253125000D02*
X457007500Y-253125000D01*
X457007500Y-253125000D02*
X457007500Y-256125000D01*
X418907500Y-227550000D02*
X415507500Y-227550000D01*
X415507500Y-227550000D02*
X415507500Y-224550000D01*
X415507500Y-224550000D02*
X418907500Y-224550000D01*
X418907500Y-224550000D02*
X418907500Y-227550000D01*
X156970000Y-275175000D02*
X153570000Y-275175000D01*
X153570000Y-275175000D02*
X153570000Y-272175000D01*
X153570000Y-272175000D02*
X156970000Y-272175000D01*
X156970000Y-272175000D02*
X156970000Y-275175000D01*
X352232500Y-294225000D02*
X348832500Y-294225000D01*
X348832500Y-294225000D02*
X348832500Y-291225000D01*
X348832500Y-291225000D02*
X352232500Y-291225000D01*
X352232500Y-291225000D02*
X352232500Y-294225000D01*
X214120000Y-275175000D02*
X210720000Y-275175000D01*
X210720000Y-275175000D02*
X210720000Y-272175000D01*
X210720000Y-272175000D02*
X214120000Y-272175000D01*
X214120000Y-272175000D02*
X214120000Y-275175000D01*
X366520000Y-275175000D02*
X363120000Y-275175000D01*
X363120000Y-275175000D02*
X363120000Y-272175000D01*
X363120000Y-272175000D02*
X366520000Y-272175000D01*
X366520000Y-272175000D02*
X366520000Y-275175000D01*
X457007500Y-332325000D02*
X453607500Y-332325000D01*
X453607500Y-332325000D02*
X453607500Y-329325000D01*
X453607500Y-329325000D02*
X457007500Y-329325000D01*
X457007500Y-329325000D02*
X457007500Y-332325000D01*
X180782500Y-294225000D02*
X177382500Y-294225000D01*
X177382500Y-294225000D02*
X177382500Y-291225000D01*
X177382500Y-291225000D02*
X180782500Y-291225000D01*
X180782500Y-291225000D02*
X180782500Y-294225000D01*
X437957500Y-227550000D02*
X434557500Y-227550000D01*
X434557500Y-227550000D02*
X434557500Y-224550000D01*
X434557500Y-224550000D02*
X437957500Y-224550000D01*
X437957500Y-224550000D02*
X437957500Y-227550000D01*
X249838750Y-332325000D02*
X246438750Y-332325000D01*
X246438750Y-332325000D02*
X246438750Y-329325000D01*
X246438750Y-329325000D02*
X249838750Y-329325000D01*
X249838750Y-329325000D02*
X249838750Y-332325000D01*
X233170000Y-275175000D02*
X229770000Y-275175000D01*
X229770000Y-275175000D02*
X229770000Y-272175000D01*
X229770000Y-272175000D02*
X233170000Y-272175000D01*
X233170000Y-272175000D02*
X233170000Y-275175000D01*
X271270000Y-275175000D02*
X267870000Y-275175000D01*
X267870000Y-275175000D02*
X267870000Y-272175000D01*
X267870000Y-272175000D02*
X271270000Y-272175000D01*
X271270000Y-272175000D02*
X271270000Y-275175000D01*
X437957500Y-313275000D02*
X434557500Y-313275000D01*
X434557500Y-313275000D02*
X434557500Y-310275000D01*
X434557500Y-310275000D02*
X437957500Y-310275000D01*
X437957500Y-310275000D02*
X437957500Y-313275000D01*
X176020000Y-275175000D02*
X172620000Y-275175000D01*
X172620000Y-275175000D02*
X172620000Y-272175000D01*
X172620000Y-272175000D02*
X176020000Y-272175000D01*
X176020000Y-272175000D02*
X176020000Y-275175000D01*
X190307500Y-313275000D02*
X186907500Y-313275000D01*
X186907500Y-313275000D02*
X186907500Y-310275000D01*
X186907500Y-310275000D02*
X190307500Y-310275000D01*
X190307500Y-310275000D02*
X190307500Y-313275000D01*
X252220000Y-275175000D02*
X248820000Y-275175000D01*
X248820000Y-275175000D02*
X248820000Y-272175000D01*
X248820000Y-272175000D02*
X252220000Y-272175000D01*
X252220000Y-272175000D02*
X252220000Y-275175000D01*
X276032500Y-294225000D02*
X272632500Y-294225000D01*
X272632500Y-294225000D02*
X272632500Y-291225000D01*
X272632500Y-291225000D02*
X276032500Y-291225000D01*
X276032500Y-291225000D02*
X276032500Y-294225000D01*
X347470000Y-275175000D02*
X344070000Y-275175000D01*
X344070000Y-275175000D02*
X344070000Y-272175000D01*
X344070000Y-272175000D02*
X347470000Y-272175000D01*
X347470000Y-272175000D02*
X347470000Y-275175000D01*
X356995000Y-227550000D02*
X353595000Y-227550000D01*
X353595000Y-227550000D02*
X353595000Y-224550000D01*
X353595000Y-224550000D02*
X356995000Y-224550000D01*
X356995000Y-224550000D02*
X356995000Y-227550000D01*
X223645000Y-227550000D02*
X220245000Y-227550000D01*
X220245000Y-227550000D02*
X220245000Y-224550000D01*
X220245000Y-224550000D02*
X223645000Y-224550000D01*
X223645000Y-224550000D02*
X223645000Y-227550000D01*
X271270000Y-227550000D02*
X267870000Y-227550000D01*
X267870000Y-227550000D02*
X267870000Y-224550000D01*
X267870000Y-224550000D02*
X271270000Y-224550000D01*
X271270000Y-224550000D02*
X271270000Y-227550000D01*
X321276250Y-332325000D02*
X317876250Y-332325000D01*
X317876250Y-332325000D02*
X317876250Y-329325000D01*
X317876250Y-329325000D02*
X321276250Y-329325000D01*
X321276250Y-329325000D02*
X321276250Y-332325000D01*
X304607500Y-313275000D02*
X301207500Y-313275000D01*
X301207500Y-313275000D02*
X301207500Y-310275000D01*
X301207500Y-310275000D02*
X304607500Y-310275000D01*
X304607500Y-310275000D02*
X304607500Y-313275000D01*
X133157500Y-275175000D02*
X129757500Y-275175000D01*
X129757500Y-275175000D02*
X129757500Y-272175000D01*
X129757500Y-272175000D02*
X133157500Y-272175000D01*
X133157500Y-272175000D02*
X133157500Y-275175000D01*
X140301250Y-313275000D02*
X136901250Y-313275000D01*
X136901250Y-313275000D02*
X136901250Y-310275000D01*
X136901250Y-310275000D02*
X140301250Y-310275000D01*
X140301250Y-310275000D02*
X140301250Y-313275000D01*
X130776250Y-332325000D02*
X127376250Y-332325000D01*
X127376250Y-332325000D02*
X127376250Y-329325000D01*
X127376250Y-329325000D02*
X130776250Y-329325000D01*
X130776250Y-329325000D02*
X130776250Y-332325000D01*
X128395000Y-227550000D02*
X124995000Y-227550000D01*
X124995000Y-227550000D02*
X124995000Y-224550000D01*
X124995000Y-224550000D02*
X128395000Y-224550000D01*
X128395000Y-224550000D02*
X128395000Y-227550000D01*
X135538750Y-294225000D02*
X132138750Y-294225000D01*
X132138750Y-294225000D02*
X132138750Y-291225000D01*
X132138750Y-291225000D02*
X135538750Y-291225000D01*
X135538750Y-291225000D02*
X135538750Y-294225000D01*
X128395000Y-256125000D02*
X124995000Y-256125000D01*
X124995000Y-256125000D02*
X124995000Y-253125000D01*
X124995000Y-253125000D02*
X128395000Y-253125000D01*
X128395000Y-253125000D02*
X128395000Y-256125000D01*
X228407500Y-313275000D02*
X225007500Y-313275000D01*
X225007500Y-313275000D02*
X225007500Y-310275000D01*
X225007500Y-310275000D02*
X228407500Y-310275000D01*
X228407500Y-310275000D02*
X228407500Y-313275000D01*
X333182500Y-294225000D02*
X329782500Y-294225000D01*
X329782500Y-294225000D02*
X329782500Y-291225000D01*
X329782500Y-291225000D02*
X333182500Y-291225000D01*
X333182500Y-291225000D02*
X333182500Y-294225000D01*
X345088750Y-332325000D02*
X341688750Y-332325000D01*
X341688750Y-332325000D02*
X341688750Y-329325000D01*
X341688750Y-329325000D02*
X345088750Y-329325000D01*
X345088750Y-329325000D02*
X345088750Y-332325000D01*
X328420000Y-275175000D02*
X325020000Y-275175000D01*
X325020000Y-275175000D02*
X325020000Y-272175000D01*
X325020000Y-272175000D02*
X328420000Y-272175000D01*
X328420000Y-272175000D02*
X328420000Y-275175000D01*
X337945000Y-227550000D02*
X334545000Y-227550000D01*
X334545000Y-227550000D02*
X334545000Y-224550000D01*
X334545000Y-224550000D02*
X337945000Y-224550000D01*
X337945000Y-224550000D02*
X337945000Y-227550000D01*
X392713750Y-332325000D02*
X389313750Y-332325000D01*
X389313750Y-332325000D02*
X389313750Y-329325000D01*
X389313750Y-329325000D02*
X392713750Y-329325000D01*
X392713750Y-329325000D02*
X392713750Y-332325000D01*
X323657500Y-313275000D02*
X320257500Y-313275000D01*
X320257500Y-313275000D02*
X320257500Y-310275000D01*
X320257500Y-310275000D02*
X323657500Y-310275000D01*
X323657500Y-310275000D02*
X323657500Y-313275000D01*
X318895000Y-256125000D02*
X315495000Y-256125000D01*
X315495000Y-256125000D02*
X315495000Y-253125000D01*
X315495000Y-253125000D02*
X318895000Y-253125000D01*
X318895000Y-253125000D02*
X318895000Y-256125000D01*
X395095000Y-227550000D02*
X391695000Y-227550000D01*
X391695000Y-227550000D02*
X391695000Y-224550000D01*
X391695000Y-224550000D02*
X395095000Y-224550000D01*
X395095000Y-224550000D02*
X395095000Y-227550000D01*
X171257500Y-313275000D02*
X167857500Y-313275000D01*
X167857500Y-313275000D02*
X167857500Y-310275000D01*
X167857500Y-310275000D02*
X171257500Y-310275000D01*
X171257500Y-310275000D02*
X171257500Y-313275000D01*
M02*
