%FSLAX45Y45*%
G04 Gerber Fmt 4.5, Leading zero omitted, Abs format (unit mm)*
G04 Created by KiCad (PCBNEW (6.0.0)) date 2022-04-02 17:54:43*
%MOMM*%
%LPD*%
G01*
G04 APERTURE LIST*
%TA.AperFunction,Profile*%
%ADD10C,0.100000*%
%TD*%
%ADD11C,0.200000*%
%ADD12C,0.040000*%
%ADD13C,0.060000*%
%ADD14C,0.080000*%
%ADD15C,0.100000*%
%ADD16C,0.102000*%
%ADD17C,0.120000*%
%ADD18C,0.150000*%
%ADD19C,0.180000*%
G04 APERTURE END LIST*
D10*
X47200000Y-20900000D02*
X47200000Y-33900000D01*
X46800000Y-34300000D02*
X11400000Y-34300000D01*
X11000000Y-33900000D02*
X11000000Y-20900000D01*
X11000000Y-17000000D02*
X11000000Y-20500000D01*
X46800000Y-34300000D02*
G75*
G03*
X47200000Y-33900000I0J400000D01*
G01*
X11400000Y-16600000D02*
G75*
G03*
X11000000Y-17000000I0J-400000D01*
G01*
X28175000Y-16600000D02*
X11400000Y-16600000D01*
X11000000Y-33900000D02*
G75*
G03*
X11400000Y-34300000I400000J0D01*
G01*
X47200000Y-20500000D02*
X47200000Y-17000000D01*
X47200000Y-20900000D02*
X47200000Y-20500000D01*
X29825000Y-16600000D02*
X28175000Y-16600000D01*
X47200000Y-17000000D02*
G75*
G03*
X46800000Y-16600000I-400000J0D01*
G01*
X29825000Y-16600000D02*
X46800000Y-16600000D01*
X11000000Y-20900000D02*
X11000000Y-20500000D01*
D11*
D12*
X12455000Y-33147502D02*
X12495000Y-33187502D01*
X12495000Y-33147502D02*
X12455000Y-33187502D01*
X14130000Y-31880000D02*
X14170000Y-31920000D01*
X14170000Y-31880000D02*
X14130000Y-31920000D01*
X14130000Y-32030000D02*
X14170000Y-32070000D01*
X14170000Y-32030000D02*
X14130000Y-32070000D01*
X14131265Y-31778735D02*
X14171265Y-31818735D01*
X14171265Y-31778735D02*
X14131265Y-31818735D01*
X14131894Y-31676833D02*
X14171894Y-31716833D01*
X14171894Y-31676833D02*
X14131894Y-31716833D01*
X14180000Y-17980000D02*
X14220000Y-18020000D01*
X14220000Y-17980000D02*
X14180000Y-18020000D01*
X14480000Y-31080000D02*
X14520000Y-31120000D01*
X14520000Y-31080000D02*
X14480000Y-31120000D01*
X35080000Y-31455000D02*
X35120000Y-31495000D01*
X35120000Y-31455000D02*
X35080000Y-31495000D01*
X35080000Y-31580000D02*
X35120000Y-31620000D01*
X35120000Y-31580000D02*
X35080000Y-31620000D01*
X35080000Y-31705000D02*
X35120000Y-31745000D01*
X35120000Y-31705000D02*
X35080000Y-31745000D01*
X40880000Y-31730000D02*
X40920000Y-31770000D01*
X40920000Y-31730000D02*
X40880000Y-31770000D01*
X40880000Y-31855000D02*
X40920000Y-31895000D01*
X40920000Y-31855000D02*
X40880000Y-31895000D01*
X40880000Y-32055000D02*
X40920000Y-32095000D01*
X40920000Y-32055000D02*
X40880000Y-32095000D01*
X28725000Y-17067500D02*
G75*
G03*
X28725000Y-17067500I-20000J0D01*
G01*
X28725000Y-17202500D02*
G75*
G03*
X28725000Y-17202500I-20000J0D01*
G01*
X28810000Y-17067500D02*
G75*
G03*
X28810000Y-17067500I-20000J0D01*
G01*
X28810000Y-17202500D02*
G75*
G03*
X28810000Y-17202500I-20000J0D01*
G01*
X28895000Y-17067500D02*
G75*
G03*
X28895000Y-17067500I-20000J0D01*
G01*
X28895000Y-17202500D02*
G75*
G03*
X28895000Y-17202500I-20000J0D01*
G01*
X28980000Y-17067500D02*
G75*
G03*
X28980000Y-17067500I-20000J0D01*
G01*
X28980000Y-17202500D02*
G75*
G03*
X28980000Y-17202500I-20000J0D01*
G01*
X29065000Y-17067500D02*
G75*
G03*
X29065000Y-17067500I-20000J0D01*
G01*
X29065000Y-17202500D02*
G75*
G03*
X29065000Y-17202500I-20000J0D01*
G01*
X29150000Y-17067500D02*
G75*
G03*
X29150000Y-17067500I-20000J0D01*
G01*
X29150000Y-17202500D02*
G75*
G03*
X29150000Y-17202500I-20000J0D01*
G01*
X29235000Y-17067500D02*
G75*
G03*
X29235000Y-17067500I-20000J0D01*
G01*
X29235000Y-17202500D02*
G75*
G03*
X29235000Y-17202500I-20000J0D01*
G01*
X29320000Y-17067500D02*
G75*
G03*
X29320000Y-17067500I-20000J0D01*
G01*
X29320000Y-17202500D02*
G75*
G03*
X29320000Y-17202500I-20000J0D01*
G01*
D13*
X28570000Y-16736500D02*
X28570000Y-16796500D01*
X28540000Y-16766500D02*
X28600000Y-16766500D01*
D11*
X28590000Y-16806500D02*
X28590000Y-16726500D01*
X28550000Y-16806500D02*
X28550000Y-16726500D01*
X28590000Y-16726500D02*
G75*
G03*
X28550000Y-16726500I-20000J0D01*
G01*
X28550000Y-16806500D02*
G75*
G03*
X28590000Y-16806500I20000J0D01*
G01*
D13*
X28570000Y-17074500D02*
X28570000Y-17134500D01*
X28540000Y-17104500D02*
X28600000Y-17104500D01*
D11*
X28590000Y-17179500D02*
X28590000Y-17029500D01*
X28550000Y-17179500D02*
X28550000Y-17029500D01*
X28590000Y-17029500D02*
G75*
G03*
X28550000Y-17029500I-20000J0D01*
G01*
X28550000Y-17179500D02*
G75*
G03*
X28590000Y-17179500I20000J0D01*
G01*
D13*
X29435000Y-16736500D02*
X29435000Y-16796500D01*
X29405000Y-16766500D02*
X29465000Y-16766500D01*
D11*
X29455000Y-16806500D02*
X29455000Y-16726500D01*
X29415000Y-16806500D02*
X29415000Y-16726500D01*
X29455000Y-16726500D02*
G75*
G03*
X29415000Y-16726500I-20000J0D01*
G01*
X29415000Y-16806500D02*
G75*
G03*
X29455000Y-16806500I20000J0D01*
G01*
D13*
X29435000Y-17074500D02*
X29435000Y-17134500D01*
X29405000Y-17104500D02*
X29465000Y-17104500D01*
D11*
X29455000Y-17179500D02*
X29455000Y-17029500D01*
X29415000Y-17179500D02*
X29415000Y-17029500D01*
X29455000Y-17029500D02*
G75*
G03*
X29415000Y-17029500I-20000J0D01*
G01*
X29415000Y-17179500D02*
G75*
G03*
X29455000Y-17179500I20000J0D01*
G01*
D14*
X11666284Y-18128285D02*
X11666284Y-18071716D01*
X11609715Y-18071716D01*
X11609715Y-18128285D01*
X11666284Y-18128285D01*
X11866284Y-18528285D02*
X11866284Y-18471716D01*
X11809715Y-18471716D01*
X11809715Y-18528285D01*
X11866284Y-18528285D01*
X12066284Y-18928285D02*
X12066284Y-18871716D01*
X12009715Y-18871716D01*
X12009715Y-18928285D01*
X12066284Y-18928285D01*
X12266284Y-19328285D02*
X12266284Y-19271716D01*
X12209715Y-19271716D01*
X12209715Y-19328285D01*
X12266284Y-19328285D01*
X12428284Y-18128285D02*
X12428284Y-18071716D01*
X12371715Y-18071716D01*
X12371715Y-18128285D01*
X12428284Y-18128285D01*
X12466284Y-19728285D02*
X12466284Y-19671716D01*
X12409715Y-19671716D01*
X12409715Y-19728285D01*
X12466284Y-19728285D01*
X12628284Y-18528285D02*
X12628284Y-18471716D01*
X12571715Y-18471716D01*
X12571715Y-18528285D01*
X12628284Y-18528285D01*
X12828284Y-18928285D02*
X12828284Y-18871716D01*
X12771715Y-18871716D01*
X12771715Y-18928285D01*
X12828284Y-18928285D01*
X13028284Y-19328285D02*
X13028284Y-19271716D01*
X12971715Y-19271716D01*
X12971715Y-19328285D01*
X13028284Y-19328285D01*
X13066284Y-18128285D02*
X13066284Y-18071716D01*
X13009715Y-18071716D01*
X13009715Y-18128285D01*
X13066284Y-18128285D01*
X13228284Y-19728285D02*
X13228284Y-19671716D01*
X13171715Y-19671716D01*
X13171715Y-19728285D01*
X13228284Y-19728285D01*
X13266284Y-18528285D02*
X13266284Y-18471716D01*
X13209715Y-18471716D01*
X13209715Y-18528285D01*
X13266284Y-18528285D01*
X13466284Y-18928285D02*
X13466284Y-18871716D01*
X13409715Y-18871716D01*
X13409715Y-18928285D01*
X13466284Y-18928285D01*
X13666284Y-19328285D02*
X13666284Y-19271716D01*
X13609715Y-19271716D01*
X13609715Y-19328285D01*
X13666284Y-19328285D01*
X13828284Y-18128285D02*
X13828284Y-18071716D01*
X13771715Y-18071716D01*
X13771715Y-18128285D01*
X13828284Y-18128285D01*
X13866284Y-19728285D02*
X13866284Y-19671716D01*
X13809715Y-19671716D01*
X13809715Y-19728285D01*
X13866284Y-19728285D01*
X14028284Y-18528285D02*
X14028284Y-18471716D01*
X13971715Y-18471716D01*
X13971715Y-18528285D01*
X14028284Y-18528285D01*
X14228284Y-18928285D02*
X14228284Y-18871716D01*
X14171715Y-18871716D01*
X14171715Y-18928285D01*
X14228284Y-18928285D01*
X14428284Y-19328285D02*
X14428284Y-19271716D01*
X14371715Y-19271716D01*
X14371715Y-19328285D01*
X14428284Y-19328285D01*
X14466284Y-18128285D02*
X14466284Y-18071716D01*
X14409715Y-18071716D01*
X14409715Y-18128285D01*
X14466284Y-18128285D01*
X14628284Y-19728285D02*
X14628284Y-19671716D01*
X14571715Y-19671716D01*
X14571715Y-19728285D01*
X14628284Y-19728285D01*
X14666284Y-18528285D02*
X14666284Y-18471716D01*
X14609715Y-18471716D01*
X14609715Y-18528285D01*
X14666284Y-18528285D01*
X14866284Y-18928285D02*
X14866284Y-18871716D01*
X14809715Y-18871716D01*
X14809715Y-18928285D01*
X14866284Y-18928285D01*
X15066284Y-19328285D02*
X15066284Y-19271716D01*
X15009715Y-19271716D01*
X15009715Y-19328285D01*
X15066284Y-19328285D01*
X15228284Y-18128285D02*
X15228284Y-18071716D01*
X15171715Y-18071716D01*
X15171715Y-18128285D01*
X15228284Y-18128285D01*
X15266284Y-19728285D02*
X15266284Y-19671716D01*
X15209715Y-19671716D01*
X15209715Y-19728285D01*
X15266284Y-19728285D01*
X15428284Y-18528285D02*
X15428284Y-18471716D01*
X15371715Y-18471716D01*
X15371715Y-18528285D01*
X15428284Y-18528285D01*
X15628284Y-18928285D02*
X15628284Y-18871716D01*
X15571715Y-18871716D01*
X15571715Y-18928285D01*
X15628284Y-18928285D01*
X15828284Y-19328285D02*
X15828284Y-19271716D01*
X15771715Y-19271716D01*
X15771715Y-19328285D01*
X15828284Y-19328285D01*
X15866284Y-18128285D02*
X15866284Y-18071716D01*
X15809715Y-18071716D01*
X15809715Y-18128285D01*
X15866284Y-18128285D01*
X16028284Y-19728285D02*
X16028284Y-19671716D01*
X15971715Y-19671716D01*
X15971715Y-19728285D01*
X16028284Y-19728285D01*
X16066284Y-18528285D02*
X16066284Y-18471716D01*
X16009715Y-18471716D01*
X16009715Y-18528285D01*
X16066284Y-18528285D01*
X16266284Y-18928285D02*
X16266284Y-18871716D01*
X16209715Y-18871716D01*
X16209715Y-18928285D01*
X16266284Y-18928285D01*
X16466284Y-19328285D02*
X16466284Y-19271716D01*
X16409715Y-19271716D01*
X16409715Y-19328285D01*
X16466284Y-19328285D01*
X16628284Y-18128285D02*
X16628284Y-18071716D01*
X16571715Y-18071716D01*
X16571715Y-18128285D01*
X16628284Y-18128285D01*
X16666284Y-19728285D02*
X16666284Y-19671716D01*
X16609715Y-19671716D01*
X16609715Y-19728285D01*
X16666284Y-19728285D01*
X16828285Y-18528285D02*
X16828285Y-18471716D01*
X16771715Y-18471716D01*
X16771715Y-18528285D01*
X16828285Y-18528285D01*
X17028285Y-18928285D02*
X17028285Y-18871716D01*
X16971716Y-18871716D01*
X16971716Y-18928285D01*
X17028285Y-18928285D01*
X17228285Y-19328285D02*
X17228285Y-19271716D01*
X17171716Y-19271716D01*
X17171716Y-19328285D01*
X17228285Y-19328285D01*
X17266285Y-18128285D02*
X17266285Y-18071716D01*
X17209716Y-18071716D01*
X17209716Y-18128285D01*
X17266285Y-18128285D01*
X17428285Y-19728285D02*
X17428285Y-19671716D01*
X17371716Y-19671716D01*
X17371716Y-19728285D01*
X17428285Y-19728285D01*
X17466285Y-18528285D02*
X17466285Y-18471716D01*
X17409716Y-18471716D01*
X17409716Y-18528285D01*
X17466285Y-18528285D01*
X17666285Y-18928285D02*
X17666285Y-18871716D01*
X17609716Y-18871716D01*
X17609716Y-18928285D01*
X17666285Y-18928285D01*
X17866285Y-19328285D02*
X17866285Y-19271716D01*
X17809716Y-19271716D01*
X17809716Y-19328285D01*
X17866285Y-19328285D01*
X18028285Y-18128285D02*
X18028285Y-18071716D01*
X17971716Y-18071716D01*
X17971716Y-18128285D01*
X18028285Y-18128285D01*
X18066285Y-19728285D02*
X18066285Y-19671716D01*
X18009716Y-19671716D01*
X18009716Y-19728285D01*
X18066285Y-19728285D01*
X18228285Y-18528285D02*
X18228285Y-18471716D01*
X18171716Y-18471716D01*
X18171716Y-18528285D01*
X18228285Y-18528285D01*
X18428285Y-18928285D02*
X18428285Y-18871716D01*
X18371716Y-18871716D01*
X18371716Y-18928285D01*
X18428285Y-18928285D01*
X18628285Y-19328285D02*
X18628285Y-19271716D01*
X18571716Y-19271716D01*
X18571716Y-19328285D01*
X18628285Y-19328285D01*
X18666285Y-18128285D02*
X18666285Y-18071716D01*
X18609716Y-18071716D01*
X18609716Y-18128285D01*
X18666285Y-18128285D01*
X18828285Y-19728285D02*
X18828285Y-19671716D01*
X18771716Y-19671716D01*
X18771716Y-19728285D01*
X18828285Y-19728285D01*
X18866285Y-18528285D02*
X18866285Y-18471716D01*
X18809716Y-18471716D01*
X18809716Y-18528285D01*
X18866285Y-18528285D01*
X19066285Y-18928285D02*
X19066285Y-18871716D01*
X19009716Y-18871716D01*
X19009716Y-18928285D01*
X19066285Y-18928285D01*
X19266285Y-19328285D02*
X19266285Y-19271716D01*
X19209716Y-19271716D01*
X19209716Y-19328285D01*
X19266285Y-19328285D01*
X19428285Y-18128285D02*
X19428285Y-18071716D01*
X19371716Y-18071716D01*
X19371716Y-18128285D01*
X19428285Y-18128285D01*
X19466285Y-19728285D02*
X19466285Y-19671716D01*
X19409716Y-19671716D01*
X19409716Y-19728285D01*
X19466285Y-19728285D01*
X19628285Y-18528285D02*
X19628285Y-18471716D01*
X19571716Y-18471716D01*
X19571716Y-18528285D01*
X19628285Y-18528285D01*
X19828285Y-18928285D02*
X19828285Y-18871716D01*
X19771716Y-18871716D01*
X19771716Y-18928285D01*
X19828285Y-18928285D01*
X20028285Y-19328285D02*
X20028285Y-19271716D01*
X19971716Y-19271716D01*
X19971716Y-19328285D01*
X20028285Y-19328285D01*
X20066285Y-18128285D02*
X20066285Y-18071716D01*
X20009716Y-18071716D01*
X20009716Y-18128285D01*
X20066285Y-18128285D01*
X20228285Y-19728285D02*
X20228285Y-19671716D01*
X20171716Y-19671716D01*
X20171716Y-19728285D01*
X20228285Y-19728285D01*
X20266285Y-18528285D02*
X20266285Y-18471716D01*
X20209716Y-18471716D01*
X20209716Y-18528285D01*
X20266285Y-18528285D01*
X20466285Y-18928285D02*
X20466285Y-18871716D01*
X20409716Y-18871716D01*
X20409716Y-18928285D01*
X20466285Y-18928285D01*
X20666285Y-19328285D02*
X20666285Y-19271716D01*
X20609716Y-19271716D01*
X20609716Y-19328285D01*
X20666285Y-19328285D01*
X20828285Y-18128285D02*
X20828285Y-18071716D01*
X20771716Y-18071716D01*
X20771716Y-18128285D01*
X20828285Y-18128285D01*
X20866285Y-19728285D02*
X20866285Y-19671716D01*
X20809716Y-19671716D01*
X20809716Y-19728285D01*
X20866285Y-19728285D01*
X21028285Y-18528285D02*
X21028285Y-18471716D01*
X20971716Y-18471716D01*
X20971716Y-18528285D01*
X21028285Y-18528285D01*
X21228285Y-18928285D02*
X21228285Y-18871716D01*
X21171716Y-18871716D01*
X21171716Y-18928285D01*
X21228285Y-18928285D01*
X21428285Y-19328285D02*
X21428285Y-19271716D01*
X21371716Y-19271716D01*
X21371716Y-19328285D01*
X21428285Y-19328285D01*
X21466285Y-18128285D02*
X21466285Y-18071716D01*
X21409716Y-18071716D01*
X21409716Y-18128285D01*
X21466285Y-18128285D01*
X21628285Y-19728285D02*
X21628285Y-19671716D01*
X21571716Y-19671716D01*
X21571716Y-19728285D01*
X21628285Y-19728285D01*
X21666285Y-18528285D02*
X21666285Y-18471716D01*
X21609716Y-18471716D01*
X21609716Y-18528285D01*
X21666285Y-18528285D01*
X21866285Y-18928285D02*
X21866285Y-18871716D01*
X21809716Y-18871716D01*
X21809716Y-18928285D01*
X21866285Y-18928285D01*
X22066285Y-19328285D02*
X22066285Y-19271716D01*
X22009716Y-19271716D01*
X22009716Y-19328285D01*
X22066285Y-19328285D01*
X22228285Y-18128285D02*
X22228285Y-18071716D01*
X22171716Y-18071716D01*
X22171716Y-18128285D01*
X22228285Y-18128285D01*
X22266285Y-19728285D02*
X22266285Y-19671716D01*
X22209716Y-19671716D01*
X22209716Y-19728285D01*
X22266285Y-19728285D01*
X22428284Y-18528285D02*
X22428284Y-18471716D01*
X22371715Y-18471716D01*
X22371715Y-18528285D01*
X22428284Y-18528285D01*
X22628284Y-18928285D02*
X22628284Y-18871716D01*
X22571715Y-18871716D01*
X22571715Y-18928285D01*
X22628284Y-18928285D01*
X22828284Y-19328285D02*
X22828284Y-19271716D01*
X22771715Y-19271716D01*
X22771715Y-19328285D01*
X22828284Y-19328285D01*
X22866284Y-18128285D02*
X22866284Y-18071716D01*
X22809715Y-18071716D01*
X22809715Y-18128285D01*
X22866284Y-18128285D01*
X23028284Y-19728285D02*
X23028284Y-19671716D01*
X22971715Y-19671716D01*
X22971715Y-19728285D01*
X23028284Y-19728285D01*
X23066284Y-18528285D02*
X23066284Y-18471716D01*
X23009715Y-18471716D01*
X23009715Y-18528285D01*
X23066284Y-18528285D01*
X23266284Y-18928285D02*
X23266284Y-18871716D01*
X23209715Y-18871716D01*
X23209715Y-18928285D01*
X23266284Y-18928285D01*
X23466284Y-19328285D02*
X23466284Y-19271716D01*
X23409715Y-19271716D01*
X23409715Y-19328285D01*
X23466284Y-19328285D01*
X23628284Y-18128285D02*
X23628284Y-18071716D01*
X23571715Y-18071716D01*
X23571715Y-18128285D01*
X23628284Y-18128285D01*
X23666284Y-19728285D02*
X23666284Y-19671716D01*
X23609715Y-19671716D01*
X23609715Y-19728285D01*
X23666284Y-19728285D01*
X23828284Y-18528285D02*
X23828284Y-18471716D01*
X23771715Y-18471716D01*
X23771715Y-18528285D01*
X23828284Y-18528285D01*
X24028284Y-18928285D02*
X24028284Y-18871716D01*
X23971715Y-18871716D01*
X23971715Y-18928285D01*
X24028284Y-18928285D01*
X24228284Y-19328285D02*
X24228284Y-19271716D01*
X24171715Y-19271716D01*
X24171715Y-19328285D01*
X24228284Y-19328285D01*
X24266284Y-18128285D02*
X24266284Y-18071716D01*
X24209715Y-18071716D01*
X24209715Y-18128285D01*
X24266284Y-18128285D01*
X24428284Y-19728285D02*
X24428284Y-19671716D01*
X24371715Y-19671716D01*
X24371715Y-19728285D01*
X24428284Y-19728285D01*
X24466284Y-18528285D02*
X24466284Y-18471716D01*
X24409715Y-18471716D01*
X24409715Y-18528285D01*
X24466284Y-18528285D01*
X24666284Y-18928285D02*
X24666284Y-18871716D01*
X24609715Y-18871716D01*
X24609715Y-18928285D01*
X24666284Y-18928285D01*
X24866284Y-19328285D02*
X24866284Y-19271716D01*
X24809715Y-19271716D01*
X24809715Y-19328285D01*
X24866284Y-19328285D01*
X25028284Y-18128285D02*
X25028284Y-18071716D01*
X24971715Y-18071716D01*
X24971715Y-18128285D01*
X25028284Y-18128285D01*
X25066284Y-19728285D02*
X25066284Y-19671716D01*
X25009715Y-19671716D01*
X25009715Y-19728285D01*
X25066284Y-19728285D01*
X25228284Y-18528285D02*
X25228284Y-18471716D01*
X25171715Y-18471716D01*
X25171715Y-18528285D01*
X25228284Y-18528285D01*
X25428284Y-18928285D02*
X25428284Y-18871716D01*
X25371715Y-18871716D01*
X25371715Y-18928285D01*
X25428284Y-18928285D01*
X25628284Y-19328285D02*
X25628284Y-19271716D01*
X25571715Y-19271716D01*
X25571715Y-19328285D01*
X25628284Y-19328285D01*
X25666284Y-18128285D02*
X25666284Y-18071716D01*
X25609715Y-18071716D01*
X25609715Y-18128285D01*
X25666284Y-18128285D01*
X25828284Y-19728285D02*
X25828284Y-19671716D01*
X25771715Y-19671716D01*
X25771715Y-19728285D01*
X25828284Y-19728285D01*
X25866284Y-18528285D02*
X25866284Y-18471716D01*
X25809715Y-18471716D01*
X25809715Y-18528285D01*
X25866284Y-18528285D01*
X26066284Y-18928285D02*
X26066284Y-18871716D01*
X26009715Y-18871716D01*
X26009715Y-18928285D01*
X26066284Y-18928285D01*
X26266284Y-19328285D02*
X26266284Y-19271716D01*
X26209715Y-19271716D01*
X26209715Y-19328285D01*
X26266284Y-19328285D01*
X26428284Y-18128285D02*
X26428284Y-18071716D01*
X26371715Y-18071716D01*
X26371715Y-18128285D01*
X26428284Y-18128285D01*
X26466284Y-19728285D02*
X26466284Y-19671716D01*
X26409715Y-19671716D01*
X26409715Y-19728285D01*
X26466284Y-19728285D01*
X26628284Y-18528285D02*
X26628284Y-18471716D01*
X26571715Y-18471716D01*
X26571715Y-18528285D01*
X26628284Y-18528285D01*
X26828284Y-18928285D02*
X26828284Y-18871716D01*
X26771715Y-18871716D01*
X26771715Y-18928285D01*
X26828284Y-18928285D01*
X27028284Y-19328285D02*
X27028284Y-19271716D01*
X26971715Y-19271716D01*
X26971715Y-19328285D01*
X27028284Y-19328285D01*
X27066284Y-18128285D02*
X27066284Y-18071716D01*
X27009715Y-18071716D01*
X27009715Y-18128285D01*
X27066284Y-18128285D01*
X27228284Y-19728285D02*
X27228284Y-19671716D01*
X27171715Y-19671716D01*
X27171715Y-19728285D01*
X27228284Y-19728285D01*
X27266284Y-18528285D02*
X27266284Y-18471716D01*
X27209715Y-18471716D01*
X27209715Y-18528285D01*
X27266284Y-18528285D01*
X27466284Y-18928285D02*
X27466284Y-18871716D01*
X27409715Y-18871716D01*
X27409715Y-18928285D01*
X27466284Y-18928285D01*
X27666284Y-19328285D02*
X27666284Y-19271716D01*
X27609715Y-19271716D01*
X27609715Y-19328285D01*
X27666284Y-19328285D01*
X27828284Y-18128285D02*
X27828284Y-18071716D01*
X27771715Y-18071716D01*
X27771715Y-18128285D01*
X27828284Y-18128285D01*
X27866284Y-19728285D02*
X27866284Y-19671716D01*
X27809715Y-19671716D01*
X27809715Y-19728285D01*
X27866284Y-19728285D01*
X28028284Y-18528285D02*
X28028284Y-18471716D01*
X27971715Y-18471716D01*
X27971715Y-18528285D01*
X28028284Y-18528285D01*
X28228284Y-18928285D02*
X28228284Y-18871716D01*
X28171715Y-18871716D01*
X28171715Y-18928285D01*
X28228284Y-18928285D01*
X28428284Y-19328285D02*
X28428284Y-19271716D01*
X28371715Y-19271716D01*
X28371715Y-19328285D01*
X28428284Y-19328285D01*
X28466284Y-18128285D02*
X28466284Y-18071716D01*
X28409715Y-18071716D01*
X28409715Y-18128285D01*
X28466284Y-18128285D01*
X28628284Y-19728285D02*
X28628284Y-19671716D01*
X28571715Y-19671716D01*
X28571715Y-19728285D01*
X28628284Y-19728285D01*
X28666284Y-18528285D02*
X28666284Y-18471716D01*
X28609715Y-18471716D01*
X28609715Y-18528285D01*
X28666284Y-18528285D01*
X28866284Y-18928285D02*
X28866284Y-18871716D01*
X28809715Y-18871716D01*
X28809715Y-18928285D01*
X28866284Y-18928285D01*
X29066284Y-19328285D02*
X29066284Y-19271716D01*
X29009715Y-19271716D01*
X29009715Y-19328285D01*
X29066284Y-19328285D01*
X29228284Y-18128285D02*
X29228284Y-18071716D01*
X29171715Y-18071716D01*
X29171715Y-18128285D01*
X29228284Y-18128285D01*
X29266284Y-19728285D02*
X29266284Y-19671716D01*
X29209715Y-19671716D01*
X29209715Y-19728285D01*
X29266284Y-19728285D01*
X29428284Y-18528285D02*
X29428284Y-18471716D01*
X29371715Y-18471716D01*
X29371715Y-18528285D01*
X29428284Y-18528285D01*
X29628284Y-18928285D02*
X29628284Y-18871716D01*
X29571715Y-18871716D01*
X29571715Y-18928285D01*
X29628284Y-18928285D01*
X29828284Y-19328285D02*
X29828284Y-19271716D01*
X29771715Y-19271716D01*
X29771715Y-19328285D01*
X29828284Y-19328285D01*
X29866284Y-18128285D02*
X29866284Y-18071716D01*
X29809715Y-18071716D01*
X29809715Y-18128285D01*
X29866284Y-18128285D01*
X30028284Y-19728285D02*
X30028284Y-19671716D01*
X29971715Y-19671716D01*
X29971715Y-19728285D01*
X30028284Y-19728285D01*
X30066284Y-18528285D02*
X30066284Y-18471716D01*
X30009715Y-18471716D01*
X30009715Y-18528285D01*
X30066284Y-18528285D01*
X30266284Y-18928285D02*
X30266284Y-18871716D01*
X30209715Y-18871716D01*
X30209715Y-18928285D01*
X30266284Y-18928285D01*
X30466284Y-19328285D02*
X30466284Y-19271716D01*
X30409715Y-19271716D01*
X30409715Y-19328285D01*
X30466284Y-19328285D01*
X30628284Y-18128285D02*
X30628284Y-18071716D01*
X30571715Y-18071716D01*
X30571715Y-18128285D01*
X30628284Y-18128285D01*
X30666284Y-19728285D02*
X30666284Y-19671716D01*
X30609715Y-19671716D01*
X30609715Y-19728285D01*
X30666284Y-19728285D01*
X30828284Y-18528285D02*
X30828284Y-18471716D01*
X30771715Y-18471716D01*
X30771715Y-18528285D01*
X30828284Y-18528285D01*
X31028284Y-18928285D02*
X31028284Y-18871716D01*
X30971715Y-18871716D01*
X30971715Y-18928285D01*
X31028284Y-18928285D01*
X31228284Y-19328285D02*
X31228284Y-19271716D01*
X31171715Y-19271716D01*
X31171715Y-19328285D01*
X31228284Y-19328285D01*
X31266284Y-18128285D02*
X31266284Y-18071716D01*
X31209715Y-18071716D01*
X31209715Y-18128285D01*
X31266284Y-18128285D01*
X31428284Y-19728285D02*
X31428284Y-19671716D01*
X31371715Y-19671716D01*
X31371715Y-19728285D01*
X31428284Y-19728285D01*
X31466284Y-18528285D02*
X31466284Y-18471716D01*
X31409715Y-18471716D01*
X31409715Y-18528285D01*
X31466284Y-18528285D01*
X31666284Y-18928285D02*
X31666284Y-18871716D01*
X31609715Y-18871716D01*
X31609715Y-18928285D01*
X31666284Y-18928285D01*
X31866284Y-19328285D02*
X31866284Y-19271716D01*
X31809715Y-19271716D01*
X31809715Y-19328285D01*
X31866284Y-19328285D01*
X32028284Y-18128285D02*
X32028284Y-18071716D01*
X31971715Y-18071716D01*
X31971715Y-18128285D01*
X32028284Y-18128285D01*
X32066284Y-19728285D02*
X32066284Y-19671716D01*
X32009715Y-19671716D01*
X32009715Y-19728285D01*
X32066284Y-19728285D01*
X32228284Y-18528285D02*
X32228284Y-18471716D01*
X32171715Y-18471716D01*
X32171715Y-18528285D01*
X32228284Y-18528285D01*
X32428284Y-18928285D02*
X32428284Y-18871716D01*
X32371715Y-18871716D01*
X32371715Y-18928285D01*
X32428284Y-18928285D01*
X32628284Y-19328285D02*
X32628284Y-19271716D01*
X32571715Y-19271716D01*
X32571715Y-19328285D01*
X32628284Y-19328285D01*
X32666284Y-18128285D02*
X32666284Y-18071716D01*
X32609715Y-18071716D01*
X32609715Y-18128285D01*
X32666284Y-18128285D01*
X32828284Y-19728285D02*
X32828284Y-19671716D01*
X32771715Y-19671716D01*
X32771715Y-19728285D01*
X32828284Y-19728285D01*
X32866284Y-18528285D02*
X32866284Y-18471716D01*
X32809715Y-18471716D01*
X32809715Y-18528285D01*
X32866284Y-18528285D01*
X33066284Y-18928285D02*
X33066284Y-18871716D01*
X33009715Y-18871716D01*
X33009715Y-18928285D01*
X33066284Y-18928285D01*
X33266284Y-19328285D02*
X33266284Y-19271716D01*
X33209715Y-19271716D01*
X33209715Y-19328285D01*
X33266284Y-19328285D01*
X33428284Y-18128285D02*
X33428284Y-18071716D01*
X33371715Y-18071716D01*
X33371715Y-18128285D01*
X33428284Y-18128285D01*
X33466284Y-19728285D02*
X33466284Y-19671716D01*
X33409715Y-19671716D01*
X33409715Y-19728285D01*
X33466284Y-19728285D01*
X33628285Y-18528285D02*
X33628285Y-18471716D01*
X33571716Y-18471716D01*
X33571716Y-18528285D01*
X33628285Y-18528285D01*
X33828285Y-18928285D02*
X33828285Y-18871716D01*
X33771716Y-18871716D01*
X33771716Y-18928285D01*
X33828285Y-18928285D01*
X34028285Y-19328285D02*
X34028285Y-19271716D01*
X33971716Y-19271716D01*
X33971716Y-19328285D01*
X34028285Y-19328285D01*
X34066285Y-18128285D02*
X34066285Y-18071716D01*
X34009716Y-18071716D01*
X34009716Y-18128285D01*
X34066285Y-18128285D01*
X34228285Y-19728285D02*
X34228285Y-19671716D01*
X34171716Y-19671716D01*
X34171716Y-19728285D01*
X34228285Y-19728285D01*
X34266285Y-18528285D02*
X34266285Y-18471716D01*
X34209716Y-18471716D01*
X34209716Y-18528285D01*
X34266285Y-18528285D01*
X34466285Y-18928285D02*
X34466285Y-18871716D01*
X34409716Y-18871716D01*
X34409716Y-18928285D01*
X34466285Y-18928285D01*
X34666285Y-19328285D02*
X34666285Y-19271716D01*
X34609716Y-19271716D01*
X34609716Y-19328285D01*
X34666285Y-19328285D01*
X34828285Y-18128285D02*
X34828285Y-18071716D01*
X34771716Y-18071716D01*
X34771716Y-18128285D01*
X34828285Y-18128285D01*
X34866285Y-19728285D02*
X34866285Y-19671716D01*
X34809716Y-19671716D01*
X34809716Y-19728285D01*
X34866285Y-19728285D01*
X35028285Y-18528285D02*
X35028285Y-18471716D01*
X34971716Y-18471716D01*
X34971716Y-18528285D01*
X35028285Y-18528285D01*
X35228285Y-18928285D02*
X35228285Y-18871716D01*
X35171716Y-18871716D01*
X35171716Y-18928285D01*
X35228285Y-18928285D01*
X35428285Y-19328285D02*
X35428285Y-19271716D01*
X35371716Y-19271716D01*
X35371716Y-19328285D01*
X35428285Y-19328285D01*
X35466285Y-18128285D02*
X35466285Y-18071716D01*
X35409716Y-18071716D01*
X35409716Y-18128285D01*
X35466285Y-18128285D01*
X35628285Y-19728285D02*
X35628285Y-19671716D01*
X35571716Y-19671716D01*
X35571716Y-19728285D01*
X35628285Y-19728285D01*
X35666285Y-18528285D02*
X35666285Y-18471716D01*
X35609716Y-18471716D01*
X35609716Y-18528285D01*
X35666285Y-18528285D01*
X35866285Y-18928285D02*
X35866285Y-18871716D01*
X35809716Y-18871716D01*
X35809716Y-18928285D01*
X35866285Y-18928285D01*
X36066285Y-19328285D02*
X36066285Y-19271716D01*
X36009716Y-19271716D01*
X36009716Y-19328285D01*
X36066285Y-19328285D01*
X36228285Y-18128285D02*
X36228285Y-18071716D01*
X36171716Y-18071716D01*
X36171716Y-18128285D01*
X36228285Y-18128285D01*
X36266285Y-19728285D02*
X36266285Y-19671716D01*
X36209716Y-19671716D01*
X36209716Y-19728285D01*
X36266285Y-19728285D01*
X36428285Y-18528285D02*
X36428285Y-18471716D01*
X36371716Y-18471716D01*
X36371716Y-18528285D01*
X36428285Y-18528285D01*
X36628285Y-18928285D02*
X36628285Y-18871716D01*
X36571716Y-18871716D01*
X36571716Y-18928285D01*
X36628285Y-18928285D01*
X36828285Y-19328285D02*
X36828285Y-19271716D01*
X36771716Y-19271716D01*
X36771716Y-19328285D01*
X36828285Y-19328285D01*
X36866285Y-18128285D02*
X36866285Y-18071716D01*
X36809716Y-18071716D01*
X36809716Y-18128285D01*
X36866285Y-18128285D01*
X37028285Y-19728285D02*
X37028285Y-19671716D01*
X36971716Y-19671716D01*
X36971716Y-19728285D01*
X37028285Y-19728285D01*
X37066285Y-18528285D02*
X37066285Y-18471716D01*
X37009716Y-18471716D01*
X37009716Y-18528285D01*
X37066285Y-18528285D01*
X37266285Y-18928285D02*
X37266285Y-18871716D01*
X37209716Y-18871716D01*
X37209716Y-18928285D01*
X37266285Y-18928285D01*
X37466285Y-19328285D02*
X37466285Y-19271716D01*
X37409716Y-19271716D01*
X37409716Y-19328285D01*
X37466285Y-19328285D01*
X37628285Y-18128285D02*
X37628285Y-18071716D01*
X37571716Y-18071716D01*
X37571716Y-18128285D01*
X37628285Y-18128285D01*
X37666285Y-19728285D02*
X37666285Y-19671716D01*
X37609716Y-19671716D01*
X37609716Y-19728285D01*
X37666285Y-19728285D01*
X37828285Y-18528285D02*
X37828285Y-18471716D01*
X37771716Y-18471716D01*
X37771716Y-18528285D01*
X37828285Y-18528285D01*
X38028285Y-18928285D02*
X38028285Y-18871716D01*
X37971716Y-18871716D01*
X37971716Y-18928285D01*
X38028285Y-18928285D01*
X38228285Y-19328285D02*
X38228285Y-19271716D01*
X38171716Y-19271716D01*
X38171716Y-19328285D01*
X38228285Y-19328285D01*
X38428285Y-19728285D02*
X38428285Y-19671716D01*
X38371716Y-19671716D01*
X38371716Y-19728285D01*
X38428285Y-19728285D01*
D15*
X38600000Y-18850000D02*
X38650000Y-18800000D01*
X38600000Y-18750000D01*
X38550000Y-18800000D01*
X38600000Y-18850000D01*
X38600000Y-19104000D02*
X38650000Y-19054000D01*
X38600000Y-19004000D01*
X38550000Y-19054000D01*
X38600000Y-19104000D01*
X45320000Y-18250000D02*
X45370000Y-18200000D01*
X45320000Y-18150000D01*
X45270000Y-18200000D01*
X45320000Y-18250000D01*
X45320000Y-19700000D02*
X45370000Y-19650000D01*
X45320000Y-19600000D01*
X45270000Y-19650000D01*
X45320000Y-19700000D01*
X45570000Y-19700000D02*
X45620000Y-19650000D01*
X45570000Y-19600000D01*
X45520000Y-19650000D01*
X45570000Y-19700000D01*
X45820000Y-18250000D02*
X45870000Y-18200000D01*
X45820000Y-18150000D01*
X45770000Y-18200000D01*
X45820000Y-18250000D01*
X45820000Y-19700000D02*
X45870000Y-19650000D01*
X45820000Y-19600000D01*
X45770000Y-19650000D01*
X45820000Y-19700000D01*
D16*
X38936000Y-17960000D02*
X39038000Y-18062000D01*
X39038000Y-17960000D02*
X38936000Y-18062000D01*
X39038000Y-18011000D02*
G75*
G03*
X39038000Y-18011000I-51000J0D01*
G01*
X38936000Y-19738000D02*
X39038000Y-19840000D01*
X39038000Y-19738000D02*
X38936000Y-19840000D01*
X39038000Y-19789000D02*
G75*
G03*
X39038000Y-19789000I-51000J0D01*
G01*
X39190000Y-17960000D02*
X39292000Y-18062000D01*
X39292000Y-17960000D02*
X39190000Y-18062000D01*
X39292000Y-18011000D02*
G75*
G03*
X39292000Y-18011000I-51000J0D01*
G01*
X39190000Y-19738000D02*
X39292000Y-19840000D01*
X39292000Y-19738000D02*
X39190000Y-19840000D01*
X39292000Y-19789000D02*
G75*
G03*
X39292000Y-19789000I-51000J0D01*
G01*
X39444000Y-17960000D02*
X39546000Y-18062000D01*
X39546000Y-17960000D02*
X39444000Y-18062000D01*
X39546000Y-18011000D02*
G75*
G03*
X39546000Y-18011000I-51000J0D01*
G01*
X39444000Y-19738000D02*
X39546000Y-19840000D01*
X39546000Y-19738000D02*
X39444000Y-19840000D01*
X39546000Y-19789000D02*
G75*
G03*
X39546000Y-19789000I-51000J0D01*
G01*
X39698000Y-17960000D02*
X39800000Y-18062000D01*
X39800000Y-17960000D02*
X39698000Y-18062000D01*
X39800000Y-18011000D02*
G75*
G03*
X39800000Y-18011000I-51000J0D01*
G01*
X39698000Y-19738000D02*
X39800000Y-19840000D01*
X39800000Y-19738000D02*
X39698000Y-19840000D01*
X39800000Y-19789000D02*
G75*
G03*
X39800000Y-19789000I-51000J0D01*
G01*
X39952000Y-17960000D02*
X40054000Y-18062000D01*
X40054000Y-17960000D02*
X39952000Y-18062000D01*
X40054000Y-18011000D02*
G75*
G03*
X40054000Y-18011000I-51000J0D01*
G01*
X39952000Y-19738000D02*
X40054000Y-19840000D01*
X40054000Y-19738000D02*
X39952000Y-19840000D01*
X40054000Y-19789000D02*
G75*
G03*
X40054000Y-19789000I-51000J0D01*
G01*
X40206000Y-17960000D02*
X40308000Y-18062000D01*
X40308000Y-17960000D02*
X40206000Y-18062000D01*
X40308000Y-18011000D02*
G75*
G03*
X40308000Y-18011000I-51000J0D01*
G01*
X40206000Y-19738000D02*
X40308000Y-19840000D01*
X40308000Y-19738000D02*
X40206000Y-19840000D01*
X40308000Y-19789000D02*
G75*
G03*
X40308000Y-19789000I-51000J0D01*
G01*
X40460000Y-17960000D02*
X40562000Y-18062000D01*
X40562000Y-17960000D02*
X40460000Y-18062000D01*
X40562000Y-18011000D02*
G75*
G03*
X40562000Y-18011000I-51000J0D01*
G01*
X40460000Y-19738000D02*
X40562000Y-19840000D01*
X40562000Y-19738000D02*
X40460000Y-19840000D01*
X40562000Y-19789000D02*
G75*
G03*
X40562000Y-19789000I-51000J0D01*
G01*
X40714000Y-17960000D02*
X40816000Y-18062000D01*
X40816000Y-17960000D02*
X40714000Y-18062000D01*
X40816000Y-18011000D02*
G75*
G03*
X40816000Y-18011000I-51000J0D01*
G01*
X40714000Y-19738000D02*
X40816000Y-19840000D01*
X40816000Y-19738000D02*
X40714000Y-19840000D01*
X40816000Y-19789000D02*
G75*
G03*
X40816000Y-19789000I-51000J0D01*
G01*
X40968000Y-17960000D02*
X41070000Y-18062000D01*
X41070000Y-17960000D02*
X40968000Y-18062000D01*
X41070000Y-18011000D02*
G75*
G03*
X41070000Y-18011000I-51000J0D01*
G01*
X40968000Y-19738000D02*
X41070000Y-19840000D01*
X41070000Y-19738000D02*
X40968000Y-19840000D01*
X41070000Y-19789000D02*
G75*
G03*
X41070000Y-19789000I-51000J0D01*
G01*
X41222000Y-17960000D02*
X41324000Y-18062000D01*
X41324000Y-17960000D02*
X41222000Y-18062000D01*
X41324000Y-18011000D02*
G75*
G03*
X41324000Y-18011000I-51000J0D01*
G01*
X41222000Y-19738000D02*
X41324000Y-19840000D01*
X41324000Y-19738000D02*
X41222000Y-19840000D01*
X41324000Y-19789000D02*
G75*
G03*
X41324000Y-19789000I-51000J0D01*
G01*
X41476000Y-17960000D02*
X41578000Y-18062000D01*
X41578000Y-17960000D02*
X41476000Y-18062000D01*
X41578000Y-18011000D02*
G75*
G03*
X41578000Y-18011000I-51000J0D01*
G01*
X41476000Y-19738000D02*
X41578000Y-19840000D01*
X41578000Y-19738000D02*
X41476000Y-19840000D01*
X41578000Y-19789000D02*
G75*
G03*
X41578000Y-19789000I-51000J0D01*
G01*
X41730000Y-17960000D02*
X41832000Y-18062000D01*
X41832000Y-17960000D02*
X41730000Y-18062000D01*
X41832000Y-18011000D02*
G75*
G03*
X41832000Y-18011000I-51000J0D01*
G01*
X41730000Y-19738000D02*
X41832000Y-19840000D01*
X41832000Y-19738000D02*
X41730000Y-19840000D01*
X41832000Y-19789000D02*
G75*
G03*
X41832000Y-19789000I-51000J0D01*
G01*
X41984000Y-17960000D02*
X42086000Y-18062000D01*
X42086000Y-17960000D02*
X41984000Y-18062000D01*
X42086000Y-18011000D02*
G75*
G03*
X42086000Y-18011000I-51000J0D01*
G01*
X41984000Y-19738000D02*
X42086000Y-19840000D01*
X42086000Y-19738000D02*
X41984000Y-19840000D01*
X42086000Y-19789000D02*
G75*
G03*
X42086000Y-19789000I-51000J0D01*
G01*
X42238000Y-17960000D02*
X42340000Y-18062000D01*
X42340000Y-17960000D02*
X42238000Y-18062000D01*
X42340000Y-18011000D02*
G75*
G03*
X42340000Y-18011000I-51000J0D01*
G01*
X42238000Y-19738000D02*
X42340000Y-19840000D01*
X42340000Y-19738000D02*
X42238000Y-19840000D01*
X42340000Y-19789000D02*
G75*
G03*
X42340000Y-19789000I-51000J0D01*
G01*
X42492000Y-17960000D02*
X42594000Y-18062000D01*
X42594000Y-17960000D02*
X42492000Y-18062000D01*
X42594000Y-18011000D02*
G75*
G03*
X42594000Y-18011000I-51000J0D01*
G01*
X42492000Y-19738000D02*
X42594000Y-19840000D01*
X42594000Y-19738000D02*
X42492000Y-19840000D01*
X42594000Y-19789000D02*
G75*
G03*
X42594000Y-19789000I-51000J0D01*
G01*
X42746000Y-17960000D02*
X42848000Y-18062000D01*
X42848000Y-17960000D02*
X42746000Y-18062000D01*
X42848000Y-18011000D02*
G75*
G03*
X42848000Y-18011000I-51000J0D01*
G01*
X42746000Y-19738000D02*
X42848000Y-19840000D01*
X42848000Y-19738000D02*
X42746000Y-19840000D01*
X42848000Y-19789000D02*
G75*
G03*
X42848000Y-19789000I-51000J0D01*
G01*
X43000000Y-17960000D02*
X43102000Y-18062000D01*
X43102000Y-17960000D02*
X43000000Y-18062000D01*
X43102000Y-18011000D02*
G75*
G03*
X43102000Y-18011000I-51000J0D01*
G01*
X43000000Y-19738000D02*
X43102000Y-19840000D01*
X43102000Y-19738000D02*
X43000000Y-19840000D01*
X43102000Y-19789000D02*
G75*
G03*
X43102000Y-19789000I-51000J0D01*
G01*
X43254000Y-17960000D02*
X43356000Y-18062000D01*
X43356000Y-17960000D02*
X43254000Y-18062000D01*
X43356000Y-18011000D02*
G75*
G03*
X43356000Y-18011000I-51000J0D01*
G01*
X43254000Y-19738000D02*
X43356000Y-19840000D01*
X43356000Y-19738000D02*
X43254000Y-19840000D01*
X43356000Y-19789000D02*
G75*
G03*
X43356000Y-19789000I-51000J0D01*
G01*
X43508000Y-17960000D02*
X43610000Y-18062000D01*
X43610000Y-17960000D02*
X43508000Y-18062000D01*
X43610000Y-18011000D02*
G75*
G03*
X43610000Y-18011000I-51000J0D01*
G01*
X43508000Y-19738000D02*
X43610000Y-19840000D01*
X43610000Y-19738000D02*
X43508000Y-19840000D01*
X43610000Y-19789000D02*
G75*
G03*
X43610000Y-19789000I-51000J0D01*
G01*
X43739000Y-18595000D02*
X43841000Y-18697000D01*
X43841000Y-18595000D02*
X43739000Y-18697000D01*
X43841000Y-18646000D02*
G75*
G03*
X43841000Y-18646000I-51000J0D01*
G01*
X43739000Y-18849000D02*
X43841000Y-18951000D01*
X43841000Y-18849000D02*
X43739000Y-18951000D01*
X43841000Y-18900000D02*
G75*
G03*
X43841000Y-18900000I-51000J0D01*
G01*
X43739000Y-19103000D02*
X43841000Y-19205000D01*
X43841000Y-19103000D02*
X43739000Y-19205000D01*
X43841000Y-19154000D02*
G75*
G03*
X43841000Y-19154000I-51000J0D01*
G01*
X43762000Y-17960000D02*
X43864000Y-18062000D01*
X43864000Y-17960000D02*
X43762000Y-18062000D01*
X43864000Y-18011000D02*
G75*
G03*
X43864000Y-18011000I-51000J0D01*
G01*
X43762000Y-19738000D02*
X43864000Y-19840000D01*
X43864000Y-19738000D02*
X43762000Y-19840000D01*
X43864000Y-19789000D02*
G75*
G03*
X43864000Y-19789000I-51000J0D01*
G01*
D17*
X38873000Y-18940000D02*
X38993000Y-19060000D01*
X38993000Y-18940000D02*
X38873000Y-19060000D01*
X38933000Y-18940000D02*
X38933000Y-19060000D01*
X38873000Y-19000000D02*
X38993000Y-19000000D01*
D11*
X38883000Y-19050000D02*
X38983000Y-19050000D01*
X38883000Y-18950000D02*
X38983000Y-18950000D01*
X38983000Y-19050000D02*
G75*
G03*
X38983000Y-18950000I0J50000D01*
G01*
X38883000Y-18950000D02*
G75*
G03*
X38883000Y-19050000I0J-50000D01*
G01*
D17*
X38875000Y-18740000D02*
X38995000Y-18860000D01*
X38995000Y-18740000D02*
X38875000Y-18860000D01*
X38935000Y-18740000D02*
X38935000Y-18860000D01*
X38875000Y-18800000D02*
X38995000Y-18800000D01*
D11*
X38885000Y-18850000D02*
X38985000Y-18850000D01*
X38885000Y-18750000D02*
X38985000Y-18750000D01*
X38985000Y-18850000D02*
G75*
G03*
X38985000Y-18750000I0J50000D01*
G01*
X38885000Y-18750000D02*
G75*
G03*
X38885000Y-18850000I0J-50000D01*
G01*
D17*
X39203000Y-18840000D02*
X39323000Y-18960000D01*
X39323000Y-18840000D02*
X39203000Y-18960000D01*
X39263000Y-18840000D02*
X39263000Y-18960000D01*
X39203000Y-18900000D02*
X39323000Y-18900000D01*
D11*
X39213000Y-18950000D02*
X39313000Y-18950000D01*
X39213000Y-18850000D02*
X39313000Y-18850000D01*
X39313000Y-18950000D02*
G75*
G03*
X39313000Y-18850000I0J50000D01*
G01*
X39213000Y-18850000D02*
G75*
G03*
X39213000Y-18950000I0J-50000D01*
G01*
D18*
X12213500Y-21771000D02*
X12363500Y-21921000D01*
X12363500Y-21771000D02*
X12213500Y-21921000D01*
X12341533Y-21899034D02*
X12341533Y-21792967D01*
X12235466Y-21792967D01*
X12235466Y-21899034D01*
X12341533Y-21899034D01*
X12213500Y-24628500D02*
X12363500Y-24778500D01*
X12363500Y-24628500D02*
X12213500Y-24778500D01*
X12341533Y-24756533D02*
X12341533Y-24650466D01*
X12235466Y-24650466D01*
X12235466Y-24756533D01*
X12341533Y-24756533D01*
X12451625Y-32248500D02*
X12601625Y-32398500D01*
X12601625Y-32248500D02*
X12451625Y-32398500D01*
X12579658Y-32376533D02*
X12579658Y-32270466D01*
X12473591Y-32270466D01*
X12473591Y-32376533D01*
X12579658Y-32376533D01*
X12689750Y-26533500D02*
X12839750Y-26683500D01*
X12839750Y-26533500D02*
X12689750Y-26683500D01*
X12817783Y-26661533D02*
X12817783Y-26555466D01*
X12711716Y-26555466D01*
X12711716Y-26661533D01*
X12817783Y-26661533D01*
X12848500Y-21517000D02*
X12998500Y-21667000D01*
X12998500Y-21517000D02*
X12848500Y-21667000D01*
X12976533Y-21645034D02*
X12976533Y-21538967D01*
X12870466Y-21538967D01*
X12870466Y-21645034D01*
X12976533Y-21645034D01*
X12848500Y-24374500D02*
X12998500Y-24524500D01*
X12998500Y-24374500D02*
X12848500Y-24524500D01*
X12976533Y-24502533D02*
X12976533Y-24396466D01*
X12870466Y-24396466D01*
X12870466Y-24502533D01*
X12976533Y-24502533D01*
X12927875Y-28438500D02*
X13077875Y-28588500D01*
X13077875Y-28438500D02*
X12927875Y-28588500D01*
X13055908Y-28566533D02*
X13055908Y-28460466D01*
X12949841Y-28460466D01*
X12949841Y-28566533D01*
X13055908Y-28566533D01*
X13086625Y-31994500D02*
X13236625Y-32144500D01*
X13236625Y-31994500D02*
X13086625Y-32144500D01*
X13214658Y-32122533D02*
X13214658Y-32016466D01*
X13108591Y-32016466D01*
X13108591Y-32122533D01*
X13214658Y-32122533D01*
X13324750Y-26279500D02*
X13474750Y-26429500D01*
X13474750Y-26279500D02*
X13324750Y-26429500D01*
X13452783Y-26407533D02*
X13452783Y-26301466D01*
X13346716Y-26301466D01*
X13346716Y-26407533D01*
X13452783Y-26407533D01*
X13404125Y-30343500D02*
X13554125Y-30493500D01*
X13554125Y-30343500D02*
X13404125Y-30493500D01*
X13532158Y-30471533D02*
X13532158Y-30365466D01*
X13426091Y-30365466D01*
X13426091Y-30471533D01*
X13532158Y-30471533D01*
X13562875Y-28184500D02*
X13712875Y-28334500D01*
X13712875Y-28184500D02*
X13562875Y-28334500D01*
X13690908Y-28312533D02*
X13690908Y-28206466D01*
X13584841Y-28206466D01*
X13584841Y-28312533D01*
X13690908Y-28312533D01*
X14039125Y-30089500D02*
X14189125Y-30239500D01*
X14189125Y-30089500D02*
X14039125Y-30239500D01*
X14167158Y-30217533D02*
X14167158Y-30111466D01*
X14061091Y-30111466D01*
X14061091Y-30217533D01*
X14167158Y-30217533D01*
X14118500Y-21771000D02*
X14268500Y-21921000D01*
X14268500Y-21771000D02*
X14118500Y-21921000D01*
X14246533Y-21899034D02*
X14246533Y-21792967D01*
X14140466Y-21792967D01*
X14140466Y-21899034D01*
X14246533Y-21899034D01*
X14118500Y-24628500D02*
X14268500Y-24778500D01*
X14268500Y-24628500D02*
X14118500Y-24778500D01*
X14246533Y-24756533D02*
X14246533Y-24650466D01*
X14140466Y-24650466D01*
X14140466Y-24756533D01*
X14246533Y-24756533D01*
X14753500Y-21517000D02*
X14903500Y-21667000D01*
X14903500Y-21517000D02*
X14753500Y-21667000D01*
X14881533Y-21645034D02*
X14881533Y-21538967D01*
X14775466Y-21538967D01*
X14775466Y-21645034D01*
X14881533Y-21645034D01*
X14753500Y-24374500D02*
X14903500Y-24524500D01*
X14903500Y-24374500D02*
X14753500Y-24524500D01*
X14881533Y-24502533D02*
X14881533Y-24396466D01*
X14775466Y-24396466D01*
X14775466Y-24502533D01*
X14881533Y-24502533D01*
X14832875Y-32248500D02*
X14982875Y-32398500D01*
X14982875Y-32248500D02*
X14832875Y-32398500D01*
X14960908Y-32376533D02*
X14960908Y-32270466D01*
X14854841Y-32270466D01*
X14854841Y-32376533D01*
X14960908Y-32376533D01*
X15071000Y-26533500D02*
X15221000Y-26683500D01*
X15221000Y-26533500D02*
X15071000Y-26683500D01*
X15199033Y-26661533D02*
X15199033Y-26555466D01*
X15092966Y-26555466D01*
X15092966Y-26661533D01*
X15199033Y-26661533D01*
X15467875Y-31994500D02*
X15617875Y-32144500D01*
X15617875Y-31994500D02*
X15467875Y-32144500D01*
X15595908Y-32122533D02*
X15595908Y-32016466D01*
X15489841Y-32016466D01*
X15489841Y-32122533D01*
X15595908Y-32122533D01*
X15547250Y-28438500D02*
X15697250Y-28588500D01*
X15697250Y-28438500D02*
X15547250Y-28588500D01*
X15675283Y-28566533D02*
X15675283Y-28460466D01*
X15569216Y-28460466D01*
X15569216Y-28566533D01*
X15675283Y-28566533D01*
X15706000Y-26279500D02*
X15856000Y-26429500D01*
X15856000Y-26279500D02*
X15706000Y-26429500D01*
X15834033Y-26407533D02*
X15834033Y-26301466D01*
X15727966Y-26301466D01*
X15727966Y-26407533D01*
X15834033Y-26407533D01*
X16023500Y-21771000D02*
X16173500Y-21921000D01*
X16173500Y-21771000D02*
X16023500Y-21921000D01*
X16151533Y-21899034D02*
X16151533Y-21792967D01*
X16045466Y-21792967D01*
X16045466Y-21899034D01*
X16151533Y-21899034D01*
X16023500Y-24628500D02*
X16173500Y-24778500D01*
X16173500Y-24628500D02*
X16023500Y-24778500D01*
X16151533Y-24756533D02*
X16151533Y-24650466D01*
X16045466Y-24650466D01*
X16045466Y-24756533D01*
X16151533Y-24756533D01*
X16182250Y-28184500D02*
X16332250Y-28334500D01*
X16332250Y-28184500D02*
X16182250Y-28334500D01*
X16310283Y-28312533D02*
X16310283Y-28206466D01*
X16204216Y-28206466D01*
X16204216Y-28312533D01*
X16310283Y-28312533D01*
X16499750Y-30343500D02*
X16649750Y-30493500D01*
X16649750Y-30343500D02*
X16499750Y-30493500D01*
X16627783Y-30471533D02*
X16627783Y-30365466D01*
X16521716Y-30365466D01*
X16521716Y-30471533D01*
X16627783Y-30471533D01*
X16658500Y-21517000D02*
X16808500Y-21667000D01*
X16808500Y-21517000D02*
X16658500Y-21667000D01*
X16786534Y-21645034D02*
X16786534Y-21538967D01*
X16680466Y-21538967D01*
X16680466Y-21645034D01*
X16786534Y-21645034D01*
X16658500Y-24374500D02*
X16808500Y-24524500D01*
X16808500Y-24374500D02*
X16658500Y-24524500D01*
X16786534Y-24502533D02*
X16786534Y-24396466D01*
X16680466Y-24396466D01*
X16680466Y-24502533D01*
X16786534Y-24502533D01*
X16976000Y-26533500D02*
X17126000Y-26683500D01*
X17126000Y-26533500D02*
X16976000Y-26683500D01*
X17104034Y-26661533D02*
X17104034Y-26555466D01*
X16997967Y-26555466D01*
X16997967Y-26661533D01*
X17104034Y-26661533D01*
X17134750Y-30089500D02*
X17284750Y-30239500D01*
X17284750Y-30089500D02*
X17134750Y-30239500D01*
X17262784Y-30217533D02*
X17262784Y-30111466D01*
X17156717Y-30111466D01*
X17156717Y-30217533D01*
X17262784Y-30217533D01*
X17214125Y-32248500D02*
X17364125Y-32398500D01*
X17364125Y-32248500D02*
X17214125Y-32398500D01*
X17342159Y-32376533D02*
X17342159Y-32270466D01*
X17236092Y-32270466D01*
X17236092Y-32376533D01*
X17342159Y-32376533D01*
X17452250Y-28438500D02*
X17602250Y-28588500D01*
X17602250Y-28438500D02*
X17452250Y-28588500D01*
X17580284Y-28566533D02*
X17580284Y-28460466D01*
X17474217Y-28460466D01*
X17474217Y-28566533D01*
X17580284Y-28566533D01*
X17611000Y-26279500D02*
X17761000Y-26429500D01*
X17761000Y-26279500D02*
X17611000Y-26429500D01*
X17739034Y-26407533D02*
X17739034Y-26301466D01*
X17632967Y-26301466D01*
X17632967Y-26407533D01*
X17739034Y-26407533D01*
X17849125Y-31994500D02*
X17999125Y-32144500D01*
X17999125Y-31994500D02*
X17849125Y-32144500D01*
X17977159Y-32122533D02*
X17977159Y-32016466D01*
X17871092Y-32016466D01*
X17871092Y-32122533D01*
X17977159Y-32122533D01*
X17928500Y-21771000D02*
X18078500Y-21921000D01*
X18078500Y-21771000D02*
X17928500Y-21921000D01*
X18056534Y-21899034D02*
X18056534Y-21792967D01*
X17950467Y-21792967D01*
X17950467Y-21899034D01*
X18056534Y-21899034D01*
X17928500Y-24628500D02*
X18078500Y-24778500D01*
X18078500Y-24628500D02*
X17928500Y-24778500D01*
X18056534Y-24756533D02*
X18056534Y-24650466D01*
X17950467Y-24650466D01*
X17950467Y-24756533D01*
X18056534Y-24756533D01*
X18087250Y-28184500D02*
X18237250Y-28334500D01*
X18237250Y-28184500D02*
X18087250Y-28334500D01*
X18215284Y-28312533D02*
X18215284Y-28206466D01*
X18109217Y-28206466D01*
X18109217Y-28312533D01*
X18215284Y-28312533D01*
X18404750Y-30343500D02*
X18554750Y-30493500D01*
X18554750Y-30343500D02*
X18404750Y-30493500D01*
X18532784Y-30471533D02*
X18532784Y-30365466D01*
X18426717Y-30365466D01*
X18426717Y-30471533D01*
X18532784Y-30471533D01*
X18563500Y-21517000D02*
X18713500Y-21667000D01*
X18713500Y-21517000D02*
X18563500Y-21667000D01*
X18691534Y-21645034D02*
X18691534Y-21538967D01*
X18585467Y-21538967D01*
X18585467Y-21645034D01*
X18691534Y-21645034D01*
X18563500Y-24374500D02*
X18713500Y-24524500D01*
X18713500Y-24374500D02*
X18563500Y-24524500D01*
X18691534Y-24502533D02*
X18691534Y-24396466D01*
X18585467Y-24396466D01*
X18585467Y-24502533D01*
X18691534Y-24502533D01*
X18881000Y-26533500D02*
X19031000Y-26683500D01*
X19031000Y-26533500D02*
X18881000Y-26683500D01*
X19009034Y-26661533D02*
X19009034Y-26555466D01*
X18902967Y-26555466D01*
X18902967Y-26661533D01*
X19009034Y-26661533D01*
X19039750Y-30089500D02*
X19189750Y-30239500D01*
X19189750Y-30089500D02*
X19039750Y-30239500D01*
X19167784Y-30217533D02*
X19167784Y-30111466D01*
X19061717Y-30111466D01*
X19061717Y-30217533D01*
X19167784Y-30217533D01*
X19357250Y-28438500D02*
X19507250Y-28588500D01*
X19507250Y-28438500D02*
X19357250Y-28588500D01*
X19485284Y-28566533D02*
X19485284Y-28460466D01*
X19379217Y-28460466D01*
X19379217Y-28566533D01*
X19485284Y-28566533D01*
X19516000Y-26279500D02*
X19666000Y-26429500D01*
X19666000Y-26279500D02*
X19516000Y-26429500D01*
X19644034Y-26407533D02*
X19644034Y-26301466D01*
X19537967Y-26301466D01*
X19537967Y-26407533D01*
X19644034Y-26407533D01*
X19833500Y-21771000D02*
X19983500Y-21921000D01*
X19983500Y-21771000D02*
X19833500Y-21921000D01*
X19961534Y-21899034D02*
X19961534Y-21792967D01*
X19855467Y-21792967D01*
X19855467Y-21899034D01*
X19961534Y-21899034D01*
X19833500Y-24628500D02*
X19983500Y-24778500D01*
X19983500Y-24628500D02*
X19833500Y-24778500D01*
X19961534Y-24756533D02*
X19961534Y-24650466D01*
X19855467Y-24650466D01*
X19855467Y-24756533D01*
X19961534Y-24756533D01*
X19992250Y-28184500D02*
X20142250Y-28334500D01*
X20142250Y-28184500D02*
X19992250Y-28334500D01*
X20120284Y-28312533D02*
X20120284Y-28206466D01*
X20014217Y-28206466D01*
X20014217Y-28312533D01*
X20120284Y-28312533D01*
X20309750Y-30343500D02*
X20459750Y-30493500D01*
X20459750Y-30343500D02*
X20309750Y-30493500D01*
X20437784Y-30471533D02*
X20437784Y-30365466D01*
X20331717Y-30365466D01*
X20331717Y-30471533D01*
X20437784Y-30471533D01*
X20468500Y-21517000D02*
X20618500Y-21667000D01*
X20618500Y-21517000D02*
X20468500Y-21667000D01*
X20596534Y-21645034D02*
X20596534Y-21538967D01*
X20490467Y-21538967D01*
X20490467Y-21645034D01*
X20596534Y-21645034D01*
X20468500Y-24374500D02*
X20618500Y-24524500D01*
X20618500Y-24374500D02*
X20468500Y-24524500D01*
X20596534Y-24502533D02*
X20596534Y-24396466D01*
X20490467Y-24396466D01*
X20490467Y-24502533D01*
X20596534Y-24502533D01*
X20547875Y-32248500D02*
X20697875Y-32398500D01*
X20697875Y-32248500D02*
X20547875Y-32398500D01*
X20675909Y-32376533D02*
X20675909Y-32270466D01*
X20569842Y-32270466D01*
X20569842Y-32376533D01*
X20675909Y-32376533D01*
X20786000Y-26533500D02*
X20936000Y-26683500D01*
X20936000Y-26533500D02*
X20786000Y-26683500D01*
X20914034Y-26661533D02*
X20914034Y-26555466D01*
X20807967Y-26555466D01*
X20807967Y-26661533D01*
X20914034Y-26661533D01*
X20944750Y-30089500D02*
X21094750Y-30239500D01*
X21094750Y-30089500D02*
X20944750Y-30239500D01*
X21072784Y-30217533D02*
X21072784Y-30111466D01*
X20966717Y-30111466D01*
X20966717Y-30217533D01*
X21072784Y-30217533D01*
X21182875Y-31994500D02*
X21332875Y-32144500D01*
X21332875Y-31994500D02*
X21182875Y-32144500D01*
X21310909Y-32122533D02*
X21310909Y-32016466D01*
X21204842Y-32016466D01*
X21204842Y-32122533D01*
X21310909Y-32122533D01*
X21262250Y-28438500D02*
X21412250Y-28588500D01*
X21412250Y-28438500D02*
X21262250Y-28588500D01*
X21390284Y-28566533D02*
X21390284Y-28460466D01*
X21284217Y-28460466D01*
X21284217Y-28566533D01*
X21390284Y-28566533D01*
X21421000Y-26279500D02*
X21571000Y-26429500D01*
X21571000Y-26279500D02*
X21421000Y-26429500D01*
X21549034Y-26407533D02*
X21549034Y-26301466D01*
X21442967Y-26301466D01*
X21442967Y-26407533D01*
X21549034Y-26407533D01*
X21738500Y-21771000D02*
X21888500Y-21921000D01*
X21888500Y-21771000D02*
X21738500Y-21921000D01*
X21866534Y-21899034D02*
X21866534Y-21792967D01*
X21760467Y-21792967D01*
X21760467Y-21899034D01*
X21866534Y-21899034D01*
X21738500Y-24628500D02*
X21888500Y-24778500D01*
X21888500Y-24628500D02*
X21738500Y-24778500D01*
X21866534Y-24756533D02*
X21866534Y-24650466D01*
X21760467Y-24650466D01*
X21760467Y-24756533D01*
X21866534Y-24756533D01*
X21897250Y-28184500D02*
X22047250Y-28334500D01*
X22047250Y-28184500D02*
X21897250Y-28334500D01*
X22025284Y-28312533D02*
X22025284Y-28206466D01*
X21919217Y-28206466D01*
X21919217Y-28312533D01*
X22025284Y-28312533D01*
X22214750Y-30343500D02*
X22364750Y-30493500D01*
X22364750Y-30343500D02*
X22214750Y-30493500D01*
X22342784Y-30471533D02*
X22342784Y-30365466D01*
X22236717Y-30365466D01*
X22236717Y-30471533D01*
X22342784Y-30471533D01*
X22373500Y-21517000D02*
X22523500Y-21667000D01*
X22523500Y-21517000D02*
X22373500Y-21667000D01*
X22501533Y-21645034D02*
X22501533Y-21538967D01*
X22395466Y-21538967D01*
X22395466Y-21645034D01*
X22501533Y-21645034D01*
X22373500Y-24374500D02*
X22523500Y-24524500D01*
X22523500Y-24374500D02*
X22373500Y-24524500D01*
X22501533Y-24502533D02*
X22501533Y-24396466D01*
X22395466Y-24396466D01*
X22395466Y-24502533D01*
X22501533Y-24502533D01*
X22691000Y-26533500D02*
X22841000Y-26683500D01*
X22841000Y-26533500D02*
X22691000Y-26683500D01*
X22819033Y-26661533D02*
X22819033Y-26555466D01*
X22712966Y-26555466D01*
X22712966Y-26661533D01*
X22819033Y-26661533D01*
X22849750Y-30089500D02*
X22999750Y-30239500D01*
X22999750Y-30089500D02*
X22849750Y-30239500D01*
X22977783Y-30217533D02*
X22977783Y-30111466D01*
X22871716Y-30111466D01*
X22871716Y-30217533D01*
X22977783Y-30217533D01*
X23167250Y-28438500D02*
X23317250Y-28588500D01*
X23317250Y-28438500D02*
X23167250Y-28588500D01*
X23295283Y-28566533D02*
X23295283Y-28460466D01*
X23189216Y-28460466D01*
X23189216Y-28566533D01*
X23295283Y-28566533D01*
X23326000Y-26279500D02*
X23476000Y-26429500D01*
X23476000Y-26279500D02*
X23326000Y-26429500D01*
X23454033Y-26407533D02*
X23454033Y-26301466D01*
X23347966Y-26301466D01*
X23347966Y-26407533D01*
X23454033Y-26407533D01*
X23643500Y-24628500D02*
X23793500Y-24778500D01*
X23793500Y-24628500D02*
X23643500Y-24778500D01*
X23771533Y-24756533D02*
X23771533Y-24650466D01*
X23665466Y-24650466D01*
X23665466Y-24756533D01*
X23771533Y-24756533D01*
X23802250Y-28184500D02*
X23952250Y-28334500D01*
X23952250Y-28184500D02*
X23802250Y-28334500D01*
X23930283Y-28312533D02*
X23930283Y-28206466D01*
X23824216Y-28206466D01*
X23824216Y-28312533D01*
X23930283Y-28312533D01*
X24119750Y-30343500D02*
X24269750Y-30493500D01*
X24269750Y-30343500D02*
X24119750Y-30493500D01*
X24247783Y-30471533D02*
X24247783Y-30365466D01*
X24141716Y-30365466D01*
X24141716Y-30471533D01*
X24247783Y-30471533D01*
X24278500Y-24374500D02*
X24428500Y-24524500D01*
X24428500Y-24374500D02*
X24278500Y-24524500D01*
X24406533Y-24502533D02*
X24406533Y-24396466D01*
X24300466Y-24396466D01*
X24300466Y-24502533D01*
X24406533Y-24502533D01*
X24357875Y-32248500D02*
X24507875Y-32398500D01*
X24507875Y-32248500D02*
X24357875Y-32398500D01*
X24485908Y-32376533D02*
X24485908Y-32270466D01*
X24379841Y-32270466D01*
X24379841Y-32376533D01*
X24485908Y-32376533D01*
X24596000Y-21771000D02*
X24746000Y-21921000D01*
X24746000Y-21771000D02*
X24596000Y-21921000D01*
X24724033Y-21899034D02*
X24724033Y-21792967D01*
X24617966Y-21792967D01*
X24617966Y-21899034D01*
X24724033Y-21899034D01*
X24596000Y-26533500D02*
X24746000Y-26683500D01*
X24746000Y-26533500D02*
X24596000Y-26683500D01*
X24724033Y-26661533D02*
X24724033Y-26555466D01*
X24617966Y-26555466D01*
X24617966Y-26661533D01*
X24724033Y-26661533D01*
X24754750Y-30089500D02*
X24904750Y-30239500D01*
X24904750Y-30089500D02*
X24754750Y-30239500D01*
X24882783Y-30217533D02*
X24882783Y-30111466D01*
X24776716Y-30111466D01*
X24776716Y-30217533D01*
X24882783Y-30217533D01*
X24992875Y-31994500D02*
X25142875Y-32144500D01*
X25142875Y-31994500D02*
X24992875Y-32144500D01*
X25120908Y-32122533D02*
X25120908Y-32016466D01*
X25014841Y-32016466D01*
X25014841Y-32122533D01*
X25120908Y-32122533D01*
X25072250Y-28438500D02*
X25222250Y-28588500D01*
X25222250Y-28438500D02*
X25072250Y-28588500D01*
X25200283Y-28566533D02*
X25200283Y-28460466D01*
X25094216Y-28460466D01*
X25094216Y-28566533D01*
X25200283Y-28566533D01*
X25231000Y-21517000D02*
X25381000Y-21667000D01*
X25381000Y-21517000D02*
X25231000Y-21667000D01*
X25359033Y-21645034D02*
X25359033Y-21538967D01*
X25252966Y-21538967D01*
X25252966Y-21645034D01*
X25359033Y-21645034D01*
X25231000Y-26279500D02*
X25381000Y-26429500D01*
X25381000Y-26279500D02*
X25231000Y-26429500D01*
X25359033Y-26407533D02*
X25359033Y-26301466D01*
X25252966Y-26301466D01*
X25252966Y-26407533D01*
X25359033Y-26407533D01*
X25548500Y-24628500D02*
X25698500Y-24778500D01*
X25698500Y-24628500D02*
X25548500Y-24778500D01*
X25676533Y-24756533D02*
X25676533Y-24650466D01*
X25570466Y-24650466D01*
X25570466Y-24756533D01*
X25676533Y-24756533D01*
X25707250Y-28184500D02*
X25857250Y-28334500D01*
X25857250Y-28184500D02*
X25707250Y-28334500D01*
X25835283Y-28312533D02*
X25835283Y-28206466D01*
X25729216Y-28206466D01*
X25729216Y-28312533D01*
X25835283Y-28312533D01*
X26024750Y-30343500D02*
X26174750Y-30493500D01*
X26174750Y-30343500D02*
X26024750Y-30493500D01*
X26152783Y-30471533D02*
X26152783Y-30365466D01*
X26046716Y-30365466D01*
X26046716Y-30471533D01*
X26152783Y-30471533D01*
X26183500Y-24374500D02*
X26333500Y-24524500D01*
X26333500Y-24374500D02*
X26183500Y-24524500D01*
X26311533Y-24502533D02*
X26311533Y-24396466D01*
X26205466Y-24396466D01*
X26205466Y-24502533D01*
X26311533Y-24502533D01*
X26501000Y-21771000D02*
X26651000Y-21921000D01*
X26651000Y-21771000D02*
X26501000Y-21921000D01*
X26629033Y-21899034D02*
X26629033Y-21792967D01*
X26522966Y-21792967D01*
X26522966Y-21899034D01*
X26629033Y-21899034D01*
X26501000Y-26533500D02*
X26651000Y-26683500D01*
X26651000Y-26533500D02*
X26501000Y-26683500D01*
X26629033Y-26661533D02*
X26629033Y-26555466D01*
X26522966Y-26555466D01*
X26522966Y-26661533D01*
X26629033Y-26661533D01*
X26659750Y-30089500D02*
X26809750Y-30239500D01*
X26809750Y-30089500D02*
X26659750Y-30239500D01*
X26787783Y-30217533D02*
X26787783Y-30111466D01*
X26681716Y-30111466D01*
X26681716Y-30217533D01*
X26787783Y-30217533D01*
X26977250Y-28438500D02*
X27127250Y-28588500D01*
X27127250Y-28438500D02*
X26977250Y-28588500D01*
X27105283Y-28566533D02*
X27105283Y-28460466D01*
X26999216Y-28460466D01*
X26999216Y-28566533D01*
X27105283Y-28566533D01*
X27136000Y-21517000D02*
X27286000Y-21667000D01*
X27286000Y-21517000D02*
X27136000Y-21667000D01*
X27264033Y-21645034D02*
X27264033Y-21538967D01*
X27157966Y-21538967D01*
X27157966Y-21645034D01*
X27264033Y-21645034D01*
X27136000Y-26279500D02*
X27286000Y-26429500D01*
X27286000Y-26279500D02*
X27136000Y-26429500D01*
X27264033Y-26407533D02*
X27264033Y-26301466D01*
X27157966Y-26301466D01*
X27157966Y-26407533D01*
X27264033Y-26407533D01*
X27453500Y-24628500D02*
X27603500Y-24778500D01*
X27603500Y-24628500D02*
X27453500Y-24778500D01*
X27581533Y-24756533D02*
X27581533Y-24650466D01*
X27475466Y-24650466D01*
X27475466Y-24756533D01*
X27581533Y-24756533D01*
X27612250Y-28184500D02*
X27762250Y-28334500D01*
X27762250Y-28184500D02*
X27612250Y-28334500D01*
X27740283Y-28312533D02*
X27740283Y-28206466D01*
X27634216Y-28206466D01*
X27634216Y-28312533D01*
X27740283Y-28312533D01*
X27929750Y-30343500D02*
X28079750Y-30493500D01*
X28079750Y-30343500D02*
X27929750Y-30493500D01*
X28057783Y-30471533D02*
X28057783Y-30365466D01*
X27951716Y-30365466D01*
X27951716Y-30471533D01*
X28057783Y-30471533D01*
X28088500Y-24374500D02*
X28238500Y-24524500D01*
X28238500Y-24374500D02*
X28088500Y-24524500D01*
X28216533Y-24502533D02*
X28216533Y-24396466D01*
X28110466Y-24396466D01*
X28110466Y-24502533D01*
X28216533Y-24502533D01*
X28167875Y-32248500D02*
X28317875Y-32398500D01*
X28317875Y-32248500D02*
X28167875Y-32398500D01*
X28295908Y-32376533D02*
X28295908Y-32270466D01*
X28189841Y-32270466D01*
X28189841Y-32376533D01*
X28295908Y-32376533D01*
X28406000Y-21771000D02*
X28556000Y-21921000D01*
X28556000Y-21771000D02*
X28406000Y-21921000D01*
X28534033Y-21899034D02*
X28534033Y-21792967D01*
X28427966Y-21792967D01*
X28427966Y-21899034D01*
X28534033Y-21899034D01*
X28406000Y-26533500D02*
X28556000Y-26683500D01*
X28556000Y-26533500D02*
X28406000Y-26683500D01*
X28534033Y-26661533D02*
X28534033Y-26555466D01*
X28427966Y-26555466D01*
X28427966Y-26661533D01*
X28534033Y-26661533D01*
X28564750Y-30089500D02*
X28714750Y-30239500D01*
X28714750Y-30089500D02*
X28564750Y-30239500D01*
X28692783Y-30217533D02*
X28692783Y-30111466D01*
X28586716Y-30111466D01*
X28586716Y-30217533D01*
X28692783Y-30217533D01*
X28802875Y-31994500D02*
X28952875Y-32144500D01*
X28952875Y-31994500D02*
X28802875Y-32144500D01*
X28930908Y-32122533D02*
X28930908Y-32016466D01*
X28824841Y-32016466D01*
X28824841Y-32122533D01*
X28930908Y-32122533D01*
X28882250Y-28438500D02*
X29032250Y-28588500D01*
X29032250Y-28438500D02*
X28882250Y-28588500D01*
X29010283Y-28566533D02*
X29010283Y-28460466D01*
X28904216Y-28460466D01*
X28904216Y-28566533D01*
X29010283Y-28566533D01*
X29041000Y-21517000D02*
X29191000Y-21667000D01*
X29191000Y-21517000D02*
X29041000Y-21667000D01*
X29169033Y-21645034D02*
X29169033Y-21538967D01*
X29062966Y-21538967D01*
X29062966Y-21645034D01*
X29169033Y-21645034D01*
X29041000Y-26279500D02*
X29191000Y-26429500D01*
X29191000Y-26279500D02*
X29041000Y-26429500D01*
X29169033Y-26407533D02*
X29169033Y-26301466D01*
X29062966Y-26301466D01*
X29062966Y-26407533D01*
X29169033Y-26407533D01*
X29358500Y-24628500D02*
X29508500Y-24778500D01*
X29508500Y-24628500D02*
X29358500Y-24778500D01*
X29486533Y-24756533D02*
X29486533Y-24650466D01*
X29380466Y-24650466D01*
X29380466Y-24756533D01*
X29486533Y-24756533D01*
X29517250Y-28184500D02*
X29667250Y-28334500D01*
X29667250Y-28184500D02*
X29517250Y-28334500D01*
X29645283Y-28312533D02*
X29645283Y-28206466D01*
X29539216Y-28206466D01*
X29539216Y-28312533D01*
X29645283Y-28312533D01*
X29834750Y-30343500D02*
X29984750Y-30493500D01*
X29984750Y-30343500D02*
X29834750Y-30493500D01*
X29962783Y-30471533D02*
X29962783Y-30365466D01*
X29856716Y-30365466D01*
X29856716Y-30471533D01*
X29962783Y-30471533D01*
X29993500Y-24374500D02*
X30143500Y-24524500D01*
X30143500Y-24374500D02*
X29993500Y-24524500D01*
X30121533Y-24502533D02*
X30121533Y-24396466D01*
X30015466Y-24396466D01*
X30015466Y-24502533D01*
X30121533Y-24502533D01*
X30311000Y-21771000D02*
X30461000Y-21921000D01*
X30461000Y-21771000D02*
X30311000Y-21921000D01*
X30439033Y-21899034D02*
X30439033Y-21792967D01*
X30332966Y-21792967D01*
X30332966Y-21899034D01*
X30439033Y-21899034D01*
X30311000Y-26533500D02*
X30461000Y-26683500D01*
X30461000Y-26533500D02*
X30311000Y-26683500D01*
X30439033Y-26661533D02*
X30439033Y-26555466D01*
X30332966Y-26555466D01*
X30332966Y-26661533D01*
X30439033Y-26661533D01*
X30469750Y-30089500D02*
X30619750Y-30239500D01*
X30619750Y-30089500D02*
X30469750Y-30239500D01*
X30597783Y-30217533D02*
X30597783Y-30111466D01*
X30491716Y-30111466D01*
X30491716Y-30217533D01*
X30597783Y-30217533D01*
X30787250Y-28438500D02*
X30937250Y-28588500D01*
X30937250Y-28438500D02*
X30787250Y-28588500D01*
X30915283Y-28566533D02*
X30915283Y-28460466D01*
X30809216Y-28460466D01*
X30809216Y-28566533D01*
X30915283Y-28566533D01*
X30946000Y-21517000D02*
X31096000Y-21667000D01*
X31096000Y-21517000D02*
X30946000Y-21667000D01*
X31074033Y-21645034D02*
X31074033Y-21538967D01*
X30967966Y-21538967D01*
X30967966Y-21645034D01*
X31074033Y-21645034D01*
X30946000Y-26279500D02*
X31096000Y-26429500D01*
X31096000Y-26279500D02*
X30946000Y-26429500D01*
X31074033Y-26407533D02*
X31074033Y-26301466D01*
X30967966Y-26301466D01*
X30967966Y-26407533D01*
X31074033Y-26407533D01*
X31263500Y-24628500D02*
X31413500Y-24778500D01*
X31413500Y-24628500D02*
X31263500Y-24778500D01*
X31391533Y-24756533D02*
X31391533Y-24650466D01*
X31285466Y-24650466D01*
X31285466Y-24756533D01*
X31391533Y-24756533D01*
X31422250Y-28184500D02*
X31572250Y-28334500D01*
X31572250Y-28184500D02*
X31422250Y-28334500D01*
X31550283Y-28312533D02*
X31550283Y-28206466D01*
X31444216Y-28206466D01*
X31444216Y-28312533D01*
X31550283Y-28312533D01*
X31501625Y-32248500D02*
X31651625Y-32398500D01*
X31651625Y-32248500D02*
X31501625Y-32398500D01*
X31629658Y-32376533D02*
X31629658Y-32270466D01*
X31523591Y-32270466D01*
X31523591Y-32376533D01*
X31629658Y-32376533D01*
X31739750Y-30343500D02*
X31889750Y-30493500D01*
X31889750Y-30343500D02*
X31739750Y-30493500D01*
X31867783Y-30471533D02*
X31867783Y-30365466D01*
X31761716Y-30365466D01*
X31761716Y-30471533D01*
X31867783Y-30471533D01*
X31898500Y-24374500D02*
X32048500Y-24524500D01*
X32048500Y-24374500D02*
X31898500Y-24524500D01*
X32026533Y-24502533D02*
X32026533Y-24396466D01*
X31920466Y-24396466D01*
X31920466Y-24502533D01*
X32026533Y-24502533D01*
X32136625Y-31994500D02*
X32286625Y-32144500D01*
X32286625Y-31994500D02*
X32136625Y-32144500D01*
X32264658Y-32122533D02*
X32264658Y-32016466D01*
X32158591Y-32016466D01*
X32158591Y-32122533D01*
X32264658Y-32122533D01*
X32216000Y-26533500D02*
X32366000Y-26683500D01*
X32366000Y-26533500D02*
X32216000Y-26683500D01*
X32344033Y-26661533D02*
X32344033Y-26555466D01*
X32237966Y-26555466D01*
X32237966Y-26661533D01*
X32344033Y-26661533D01*
X32374750Y-30089500D02*
X32524750Y-30239500D01*
X32524750Y-30089500D02*
X32374750Y-30239500D01*
X32502783Y-30217533D02*
X32502783Y-30111466D01*
X32396716Y-30111466D01*
X32396716Y-30217533D01*
X32502783Y-30217533D01*
X32692250Y-28438500D02*
X32842250Y-28588500D01*
X32842250Y-28438500D02*
X32692250Y-28588500D01*
X32820283Y-28566533D02*
X32820283Y-28460466D01*
X32714216Y-28460466D01*
X32714216Y-28566533D01*
X32820283Y-28566533D01*
X32851000Y-26279500D02*
X33001000Y-26429500D01*
X33001000Y-26279500D02*
X32851000Y-26429500D01*
X32979033Y-26407533D02*
X32979033Y-26301466D01*
X32872966Y-26301466D01*
X32872966Y-26407533D01*
X32979033Y-26407533D01*
X33168500Y-21771000D02*
X33318500Y-21921000D01*
X33318500Y-21771000D02*
X33168500Y-21921000D01*
X33296533Y-21899034D02*
X33296533Y-21792967D01*
X33190466Y-21792967D01*
X33190466Y-21899034D01*
X33296533Y-21899034D01*
X33168500Y-24628500D02*
X33318500Y-24778500D01*
X33318500Y-24628500D02*
X33168500Y-24778500D01*
X33296533Y-24756533D02*
X33296533Y-24650466D01*
X33190466Y-24650466D01*
X33190466Y-24756533D01*
X33296533Y-24756533D01*
X33327250Y-28184500D02*
X33477250Y-28334500D01*
X33477250Y-28184500D02*
X33327250Y-28334500D01*
X33455283Y-28312533D02*
X33455283Y-28206466D01*
X33349216Y-28206466D01*
X33349216Y-28312533D01*
X33455283Y-28312533D01*
X33644750Y-30343500D02*
X33794750Y-30493500D01*
X33794750Y-30343500D02*
X33644750Y-30493500D01*
X33772784Y-30471533D02*
X33772784Y-30365466D01*
X33666717Y-30365466D01*
X33666717Y-30471533D01*
X33772784Y-30471533D01*
X33803500Y-21517000D02*
X33953500Y-21667000D01*
X33953500Y-21517000D02*
X33803500Y-21667000D01*
X33931534Y-21645034D02*
X33931534Y-21538967D01*
X33825467Y-21538967D01*
X33825467Y-21645034D01*
X33931534Y-21645034D01*
X33803500Y-24374500D02*
X33953500Y-24524500D01*
X33953500Y-24374500D02*
X33803500Y-24524500D01*
X33931534Y-24502533D02*
X33931534Y-24396466D01*
X33825467Y-24396466D01*
X33825467Y-24502533D01*
X33931534Y-24502533D01*
X33882875Y-32248500D02*
X34032875Y-32398500D01*
X34032875Y-32248500D02*
X33882875Y-32398500D01*
X34010909Y-32376533D02*
X34010909Y-32270466D01*
X33904842Y-32270466D01*
X33904842Y-32376533D01*
X34010909Y-32376533D01*
X34121000Y-26533500D02*
X34271000Y-26683500D01*
X34271000Y-26533500D02*
X34121000Y-26683500D01*
X34249034Y-26661533D02*
X34249034Y-26555466D01*
X34142967Y-26555466D01*
X34142967Y-26661533D01*
X34249034Y-26661533D01*
X34279750Y-30089500D02*
X34429750Y-30239500D01*
X34429750Y-30089500D02*
X34279750Y-30239500D01*
X34407784Y-30217533D02*
X34407784Y-30111466D01*
X34301717Y-30111466D01*
X34301717Y-30217533D01*
X34407784Y-30217533D01*
X34517875Y-31994500D02*
X34667875Y-32144500D01*
X34667875Y-31994500D02*
X34517875Y-32144500D01*
X34645909Y-32122533D02*
X34645909Y-32016466D01*
X34539842Y-32016466D01*
X34539842Y-32122533D01*
X34645909Y-32122533D01*
X34597250Y-28438500D02*
X34747250Y-28588500D01*
X34747250Y-28438500D02*
X34597250Y-28588500D01*
X34725284Y-28566533D02*
X34725284Y-28460466D01*
X34619217Y-28460466D01*
X34619217Y-28566533D01*
X34725284Y-28566533D01*
X34756000Y-26279500D02*
X34906000Y-26429500D01*
X34906000Y-26279500D02*
X34756000Y-26429500D01*
X34884034Y-26407533D02*
X34884034Y-26301466D01*
X34777967Y-26301466D01*
X34777967Y-26407533D01*
X34884034Y-26407533D01*
X35073500Y-21771000D02*
X35223500Y-21921000D01*
X35223500Y-21771000D02*
X35073500Y-21921000D01*
X35201534Y-21899034D02*
X35201534Y-21792967D01*
X35095467Y-21792967D01*
X35095467Y-21899034D01*
X35201534Y-21899034D01*
X35073500Y-24628500D02*
X35223500Y-24778500D01*
X35223500Y-24628500D02*
X35073500Y-24778500D01*
X35201534Y-24756533D02*
X35201534Y-24650466D01*
X35095467Y-24650466D01*
X35095467Y-24756533D01*
X35201534Y-24756533D01*
X35232250Y-28184500D02*
X35382250Y-28334500D01*
X35382250Y-28184500D02*
X35232250Y-28334500D01*
X35360284Y-28312533D02*
X35360284Y-28206466D01*
X35254217Y-28206466D01*
X35254217Y-28312533D01*
X35360284Y-28312533D01*
X35708500Y-21517000D02*
X35858500Y-21667000D01*
X35858500Y-21517000D02*
X35708500Y-21667000D01*
X35836534Y-21645034D02*
X35836534Y-21538967D01*
X35730467Y-21538967D01*
X35730467Y-21645034D01*
X35836534Y-21645034D01*
X35708500Y-24374500D02*
X35858500Y-24524500D01*
X35858500Y-24374500D02*
X35708500Y-24524500D01*
X35836534Y-24502533D02*
X35836534Y-24396466D01*
X35730467Y-24396466D01*
X35730467Y-24502533D01*
X35836534Y-24502533D01*
X36026000Y-26533500D02*
X36176000Y-26683500D01*
X36176000Y-26533500D02*
X36026000Y-26683500D01*
X36154034Y-26661533D02*
X36154034Y-26555466D01*
X36047967Y-26555466D01*
X36047967Y-26661533D01*
X36154034Y-26661533D01*
X36264125Y-32248500D02*
X36414125Y-32398500D01*
X36414125Y-32248500D02*
X36264125Y-32398500D01*
X36392159Y-32376533D02*
X36392159Y-32270466D01*
X36286092Y-32270466D01*
X36286092Y-32376533D01*
X36392159Y-32376533D01*
X36661000Y-26279500D02*
X36811000Y-26429500D01*
X36811000Y-26279500D02*
X36661000Y-26429500D01*
X36789034Y-26407533D02*
X36789034Y-26301466D01*
X36682967Y-26301466D01*
X36682967Y-26407533D01*
X36789034Y-26407533D01*
X36899125Y-31994500D02*
X37049125Y-32144500D01*
X37049125Y-31994500D02*
X36899125Y-32144500D01*
X37027159Y-32122533D02*
X37027159Y-32016466D01*
X36921092Y-32016466D01*
X36921092Y-32122533D01*
X37027159Y-32122533D01*
X36978500Y-21771000D02*
X37128500Y-21921000D01*
X37128500Y-21771000D02*
X36978500Y-21921000D01*
X37106534Y-21899034D02*
X37106534Y-21792967D01*
X37000467Y-21792967D01*
X37000467Y-21899034D01*
X37106534Y-21899034D01*
X37216625Y-30343500D02*
X37366625Y-30493500D01*
X37366625Y-30343500D02*
X37216625Y-30493500D01*
X37344659Y-30471533D02*
X37344659Y-30365466D01*
X37238592Y-30365466D01*
X37238592Y-30471533D01*
X37344659Y-30471533D01*
X37613500Y-21517000D02*
X37763500Y-21667000D01*
X37763500Y-21517000D02*
X37613500Y-21667000D01*
X37741534Y-21645034D02*
X37741534Y-21538967D01*
X37635467Y-21538967D01*
X37635467Y-21645034D01*
X37741534Y-21645034D01*
X37692875Y-28438500D02*
X37842875Y-28588500D01*
X37842875Y-28438500D02*
X37692875Y-28588500D01*
X37820909Y-28566533D02*
X37820909Y-28460466D01*
X37714842Y-28460466D01*
X37714842Y-28566533D01*
X37820909Y-28566533D01*
X37851625Y-30089500D02*
X38001625Y-30239500D01*
X38001625Y-30089500D02*
X37851625Y-30239500D01*
X37979659Y-30217533D02*
X37979659Y-30111466D01*
X37873592Y-30111466D01*
X37873592Y-30217533D01*
X37979659Y-30217533D01*
X37931000Y-24628500D02*
X38081000Y-24778500D01*
X38081000Y-24628500D02*
X37931000Y-24778500D01*
X38059034Y-24756533D02*
X38059034Y-24650466D01*
X37952967Y-24650466D01*
X37952967Y-24756533D01*
X38059034Y-24756533D01*
X38327875Y-28184500D02*
X38477875Y-28334500D01*
X38477875Y-28184500D02*
X38327875Y-28334500D01*
X38455909Y-28312533D02*
X38455909Y-28206466D01*
X38349842Y-28206466D01*
X38349842Y-28312533D01*
X38455909Y-28312533D01*
X38407250Y-26533500D02*
X38557250Y-26683500D01*
X38557250Y-26533500D02*
X38407250Y-26683500D01*
X38535284Y-26661533D02*
X38535284Y-26555466D01*
X38429217Y-26555466D01*
X38429217Y-26661533D01*
X38535284Y-26661533D01*
X38566000Y-24374500D02*
X38716000Y-24524500D01*
X38716000Y-24374500D02*
X38566000Y-24524500D01*
X38694034Y-24502533D02*
X38694034Y-24396466D01*
X38587967Y-24396466D01*
X38587967Y-24502533D01*
X38694034Y-24502533D01*
X38645375Y-32248500D02*
X38795375Y-32398500D01*
X38795375Y-32248500D02*
X38645375Y-32398500D01*
X38773409Y-32376533D02*
X38773409Y-32270466D01*
X38667342Y-32270466D01*
X38667342Y-32376533D01*
X38773409Y-32376533D01*
X38883500Y-21771000D02*
X39033500Y-21921000D01*
X39033500Y-21771000D02*
X38883500Y-21921000D01*
X39011534Y-21899034D02*
X39011534Y-21792967D01*
X38905467Y-21792967D01*
X38905467Y-21899034D01*
X39011534Y-21899034D01*
X39042250Y-26279500D02*
X39192250Y-26429500D01*
X39192250Y-26279500D02*
X39042250Y-26429500D01*
X39170284Y-26407533D02*
X39170284Y-26301466D01*
X39064217Y-26301466D01*
X39064217Y-26407533D01*
X39170284Y-26407533D01*
X39280375Y-31994500D02*
X39430375Y-32144500D01*
X39430375Y-31994500D02*
X39280375Y-32144500D01*
X39408409Y-32122533D02*
X39408409Y-32016466D01*
X39302342Y-32016466D01*
X39302342Y-32122533D01*
X39408409Y-32122533D01*
X39518500Y-21517000D02*
X39668500Y-21667000D01*
X39668500Y-21517000D02*
X39518500Y-21667000D01*
X39646534Y-21645034D02*
X39646534Y-21538967D01*
X39540467Y-21538967D01*
X39540467Y-21645034D01*
X39646534Y-21645034D01*
X41264750Y-21771000D02*
X41414750Y-21921000D01*
X41414750Y-21771000D02*
X41264750Y-21921000D01*
X41392784Y-21899034D02*
X41392784Y-21792967D01*
X41286717Y-21792967D01*
X41286717Y-21899034D01*
X41392784Y-21899034D01*
X41264750Y-24628500D02*
X41414750Y-24778500D01*
X41414750Y-24628500D02*
X41264750Y-24778500D01*
X41392784Y-24756533D02*
X41392784Y-24650466D01*
X41286717Y-24650466D01*
X41286717Y-24756533D01*
X41392784Y-24756533D01*
X41264750Y-26533500D02*
X41414750Y-26683500D01*
X41414750Y-26533500D02*
X41264750Y-26683500D01*
X41392784Y-26661533D02*
X41392784Y-26555466D01*
X41286717Y-26555466D01*
X41286717Y-26661533D01*
X41392784Y-26661533D01*
X41264750Y-28438500D02*
X41414750Y-28588500D01*
X41414750Y-28438500D02*
X41264750Y-28588500D01*
X41392784Y-28566533D02*
X41392784Y-28460466D01*
X41286717Y-28460466D01*
X41286717Y-28566533D01*
X41392784Y-28566533D01*
X41264750Y-30343500D02*
X41414750Y-30493500D01*
X41414750Y-30343500D02*
X41264750Y-30493500D01*
X41392784Y-30471533D02*
X41392784Y-30365466D01*
X41286717Y-30365466D01*
X41286717Y-30471533D01*
X41392784Y-30471533D01*
X41264750Y-32248500D02*
X41414750Y-32398500D01*
X41414750Y-32248500D02*
X41264750Y-32398500D01*
X41392784Y-32376533D02*
X41392784Y-32270466D01*
X41286717Y-32270466D01*
X41286717Y-32376533D01*
X41392784Y-32376533D01*
X41899750Y-21517000D02*
X42049750Y-21667000D01*
X42049750Y-21517000D02*
X41899750Y-21667000D01*
X42027784Y-21645034D02*
X42027784Y-21538967D01*
X41921717Y-21538967D01*
X41921717Y-21645034D01*
X42027784Y-21645034D01*
X41899750Y-24374500D02*
X42049750Y-24524500D01*
X42049750Y-24374500D02*
X41899750Y-24524500D01*
X42027784Y-24502533D02*
X42027784Y-24396466D01*
X41921717Y-24396466D01*
X41921717Y-24502533D01*
X42027784Y-24502533D01*
X41899750Y-26279500D02*
X42049750Y-26429500D01*
X42049750Y-26279500D02*
X41899750Y-26429500D01*
X42027784Y-26407533D02*
X42027784Y-26301466D01*
X41921717Y-26301466D01*
X41921717Y-26407533D01*
X42027784Y-26407533D01*
X41899750Y-28184500D02*
X42049750Y-28334500D01*
X42049750Y-28184500D02*
X41899750Y-28334500D01*
X42027784Y-28312533D02*
X42027784Y-28206466D01*
X41921717Y-28206466D01*
X41921717Y-28312533D01*
X42027784Y-28312533D01*
X41899750Y-30089500D02*
X42049750Y-30239500D01*
X42049750Y-30089500D02*
X41899750Y-30239500D01*
X42027784Y-30217533D02*
X42027784Y-30111466D01*
X41921717Y-30111466D01*
X41921717Y-30217533D01*
X42027784Y-30217533D01*
X41899750Y-31994500D02*
X42049750Y-32144500D01*
X42049750Y-31994500D02*
X41899750Y-32144500D01*
X42027784Y-32122533D02*
X42027784Y-32016466D01*
X41921717Y-32016466D01*
X41921717Y-32122533D01*
X42027784Y-32122533D01*
X43169750Y-21771000D02*
X43319750Y-21921000D01*
X43319750Y-21771000D02*
X43169750Y-21921000D01*
X43297784Y-21899034D02*
X43297784Y-21792967D01*
X43191717Y-21792967D01*
X43191717Y-21899034D01*
X43297784Y-21899034D01*
X43169750Y-24628500D02*
X43319750Y-24778500D01*
X43319750Y-24628500D02*
X43169750Y-24778500D01*
X43297784Y-24756533D02*
X43297784Y-24650466D01*
X43191717Y-24650466D01*
X43191717Y-24756533D01*
X43297784Y-24756533D01*
X43169750Y-26533500D02*
X43319750Y-26683500D01*
X43319750Y-26533500D02*
X43169750Y-26683500D01*
X43297784Y-26661533D02*
X43297784Y-26555466D01*
X43191717Y-26555466D01*
X43191717Y-26661533D01*
X43297784Y-26661533D01*
X43169750Y-28438500D02*
X43319750Y-28588500D01*
X43319750Y-28438500D02*
X43169750Y-28588500D01*
X43297784Y-28566533D02*
X43297784Y-28460466D01*
X43191717Y-28460466D01*
X43191717Y-28566533D01*
X43297784Y-28566533D01*
X43169750Y-30343500D02*
X43319750Y-30493500D01*
X43319750Y-30343500D02*
X43169750Y-30493500D01*
X43297784Y-30471533D02*
X43297784Y-30365466D01*
X43191717Y-30365466D01*
X43191717Y-30471533D01*
X43297784Y-30471533D01*
X43169750Y-32248500D02*
X43319750Y-32398500D01*
X43319750Y-32248500D02*
X43169750Y-32398500D01*
X43297784Y-32376533D02*
X43297784Y-32270466D01*
X43191717Y-32270466D01*
X43191717Y-32376533D01*
X43297784Y-32376533D01*
X43804750Y-21517000D02*
X43954750Y-21667000D01*
X43954750Y-21517000D02*
X43804750Y-21667000D01*
X43932784Y-21645034D02*
X43932784Y-21538967D01*
X43826717Y-21538967D01*
X43826717Y-21645034D01*
X43932784Y-21645034D01*
X43804750Y-24374500D02*
X43954750Y-24524500D01*
X43954750Y-24374500D02*
X43804750Y-24524500D01*
X43932784Y-24502533D02*
X43932784Y-24396466D01*
X43826717Y-24396466D01*
X43826717Y-24502533D01*
X43932784Y-24502533D01*
X43804750Y-26279500D02*
X43954750Y-26429500D01*
X43954750Y-26279500D02*
X43804750Y-26429500D01*
X43932784Y-26407533D02*
X43932784Y-26301466D01*
X43826717Y-26301466D01*
X43826717Y-26407533D01*
X43932784Y-26407533D01*
X43804750Y-28184500D02*
X43954750Y-28334500D01*
X43954750Y-28184500D02*
X43804750Y-28334500D01*
X43932784Y-28312533D02*
X43932784Y-28206466D01*
X43826717Y-28206466D01*
X43826717Y-28312533D01*
X43932784Y-28312533D01*
X43804750Y-30089500D02*
X43954750Y-30239500D01*
X43954750Y-30089500D02*
X43804750Y-30239500D01*
X43932784Y-30217533D02*
X43932784Y-30111466D01*
X43826717Y-30111466D01*
X43826717Y-30217533D01*
X43932784Y-30217533D01*
X43804750Y-31994500D02*
X43954750Y-32144500D01*
X43954750Y-31994500D02*
X43804750Y-32144500D01*
X43932784Y-32122533D02*
X43932784Y-32016466D01*
X43826717Y-32016466D01*
X43826717Y-32122533D01*
X43932784Y-32122533D01*
X45074750Y-21771000D02*
X45224750Y-21921000D01*
X45224750Y-21771000D02*
X45074750Y-21921000D01*
X45202783Y-21899034D02*
X45202783Y-21792967D01*
X45096716Y-21792967D01*
X45096716Y-21899034D01*
X45202783Y-21899034D01*
X45074750Y-24628500D02*
X45224750Y-24778500D01*
X45224750Y-24628500D02*
X45074750Y-24778500D01*
X45202783Y-24756533D02*
X45202783Y-24650466D01*
X45096716Y-24650466D01*
X45096716Y-24756533D01*
X45202783Y-24756533D01*
X45074750Y-26533500D02*
X45224750Y-26683500D01*
X45224750Y-26533500D02*
X45074750Y-26683500D01*
X45202783Y-26661533D02*
X45202783Y-26555466D01*
X45096716Y-26555466D01*
X45096716Y-26661533D01*
X45202783Y-26661533D01*
X45074750Y-28438500D02*
X45224750Y-28588500D01*
X45224750Y-28438500D02*
X45074750Y-28588500D01*
X45202783Y-28566533D02*
X45202783Y-28460466D01*
X45096716Y-28460466D01*
X45096716Y-28566533D01*
X45202783Y-28566533D01*
X45074750Y-30343500D02*
X45224750Y-30493500D01*
X45224750Y-30343500D02*
X45074750Y-30493500D01*
X45202783Y-30471533D02*
X45202783Y-30365466D01*
X45096716Y-30365466D01*
X45096716Y-30471533D01*
X45202783Y-30471533D01*
X45074750Y-32248500D02*
X45224750Y-32398500D01*
X45224750Y-32248500D02*
X45074750Y-32398500D01*
X45202783Y-32376533D02*
X45202783Y-32270466D01*
X45096716Y-32270466D01*
X45096716Y-32376533D01*
X45202783Y-32376533D01*
X45709750Y-21517000D02*
X45859750Y-21667000D01*
X45859750Y-21517000D02*
X45709750Y-21667000D01*
X45837783Y-21645034D02*
X45837783Y-21538967D01*
X45731716Y-21538967D01*
X45731716Y-21645034D01*
X45837783Y-21645034D01*
X45709750Y-24374500D02*
X45859750Y-24524500D01*
X45859750Y-24374500D02*
X45709750Y-24524500D01*
X45837783Y-24502533D02*
X45837783Y-24396466D01*
X45731716Y-24396466D01*
X45731716Y-24502533D01*
X45837783Y-24502533D01*
X45709750Y-26279500D02*
X45859750Y-26429500D01*
X45859750Y-26279500D02*
X45709750Y-26429500D01*
X45837783Y-26407533D02*
X45837783Y-26301466D01*
X45731716Y-26301466D01*
X45731716Y-26407533D01*
X45837783Y-26407533D01*
X45709750Y-28184500D02*
X45859750Y-28334500D01*
X45859750Y-28184500D02*
X45709750Y-28334500D01*
X45837783Y-28312533D02*
X45837783Y-28206466D01*
X45731716Y-28206466D01*
X45731716Y-28312533D01*
X45837783Y-28312533D01*
X45709750Y-30089500D02*
X45859750Y-30239500D01*
X45859750Y-30089500D02*
X45709750Y-30239500D01*
X45837783Y-30217533D02*
X45837783Y-30111466D01*
X45731716Y-30111466D01*
X45731716Y-30217533D01*
X45837783Y-30217533D01*
X45709750Y-31994500D02*
X45859750Y-32144500D01*
X45859750Y-31994500D02*
X45709750Y-32144500D01*
X45837783Y-32122533D02*
X45837783Y-32016466D01*
X45731716Y-32016466D01*
X45731716Y-32122533D01*
X45837783Y-32122533D01*
D19*
X44910000Y-18810000D02*
X45090000Y-18990000D01*
X45090000Y-18810000D02*
X44910000Y-18990000D01*
X45000000Y-18990000D02*
X45090000Y-18900000D01*
X45000000Y-18810000D01*
X44910000Y-18900000D01*
X45000000Y-18990000D01*
D11*
X44920000Y-18860000D02*
X44920000Y-18940000D01*
X45080000Y-18860000D02*
X45080000Y-18940000D01*
X44920000Y-18940000D02*
G75*
G03*
X45080000Y-18940000I80000J0D01*
G01*
X45080000Y-18860000D02*
G75*
G03*
X44920000Y-18860000I-80000J0D01*
G01*
D19*
X46050000Y-18810000D02*
X46230000Y-18990000D01*
X46230000Y-18810000D02*
X46050000Y-18990000D01*
X46140000Y-18990000D02*
X46230000Y-18900000D01*
X46140000Y-18810000D01*
X46050000Y-18900000D01*
X46140000Y-18990000D01*
D11*
X46060000Y-18860000D02*
X46060000Y-18940000D01*
X46220000Y-18860000D02*
X46220000Y-18940000D01*
X46060000Y-18940000D02*
G75*
G03*
X46220000Y-18940000I80000J0D01*
G01*
X46220000Y-18860000D02*
G75*
G03*
X46060000Y-18860000I-80000J0D01*
G01*
X11252619Y-34615476D02*
X11252619Y-34415476D01*
X11300238Y-34415476D01*
X11328809Y-34425000D01*
X11347857Y-34444048D01*
X11357381Y-34463095D01*
X11366905Y-34501190D01*
X11366905Y-34529762D01*
X11357381Y-34567857D01*
X11347857Y-34586905D01*
X11328809Y-34605952D01*
X11300238Y-34615476D01*
X11252619Y-34615476D01*
X11452619Y-34615476D02*
X11452619Y-34482143D01*
X11452619Y-34520238D02*
X11462143Y-34501190D01*
X11471667Y-34491667D01*
X11490714Y-34482143D01*
X11509762Y-34482143D01*
X11576428Y-34615476D02*
X11576428Y-34482143D01*
X11576428Y-34415476D02*
X11566905Y-34425000D01*
X11576428Y-34434524D01*
X11585952Y-34425000D01*
X11576428Y-34415476D01*
X11576428Y-34434524D01*
X11700238Y-34615476D02*
X11681190Y-34605952D01*
X11671667Y-34586905D01*
X11671667Y-34415476D01*
X11805000Y-34615476D02*
X11785952Y-34605952D01*
X11776428Y-34586905D01*
X11776428Y-34415476D01*
X12033571Y-34615476D02*
X12033571Y-34415476D01*
X12100238Y-34558333D01*
X12166905Y-34415476D01*
X12166905Y-34615476D01*
X12347857Y-34615476D02*
X12347857Y-34510714D01*
X12338333Y-34491667D01*
X12319286Y-34482143D01*
X12281190Y-34482143D01*
X12262143Y-34491667D01*
X12347857Y-34605952D02*
X12328809Y-34615476D01*
X12281190Y-34615476D01*
X12262143Y-34605952D01*
X12252619Y-34586905D01*
X12252619Y-34567857D01*
X12262143Y-34548810D01*
X12281190Y-34539286D01*
X12328809Y-34539286D01*
X12347857Y-34529762D01*
X12443095Y-34482143D02*
X12443095Y-34682143D01*
X12443095Y-34491667D02*
X12462143Y-34482143D01*
X12500238Y-34482143D01*
X12519286Y-34491667D01*
X12528809Y-34501190D01*
X12538333Y-34520238D01*
X12538333Y-34577381D01*
X12528809Y-34596429D01*
X12519286Y-34605952D01*
X12500238Y-34615476D01*
X12462143Y-34615476D01*
X12443095Y-34605952D01*
X12624048Y-34596429D02*
X12633571Y-34605952D01*
X12624048Y-34615476D01*
X12614524Y-34605952D01*
X12624048Y-34596429D01*
X12624048Y-34615476D01*
X12624048Y-34491667D02*
X12633571Y-34501190D01*
X12624048Y-34510714D01*
X12614524Y-34501190D01*
X12624048Y-34491667D01*
X12624048Y-34510714D01*
D12*
X10955000Y-34925000D02*
X10995000Y-34965000D01*
X10995000Y-34925000D02*
X10955000Y-34965000D01*
D11*
X11290714Y-34835476D02*
X11309762Y-34835476D01*
X11328809Y-34845000D01*
X11338333Y-34854524D01*
X11347857Y-34873571D01*
X11357381Y-34911667D01*
X11357381Y-34959286D01*
X11347857Y-34997381D01*
X11338333Y-35016429D01*
X11328809Y-35025952D01*
X11309762Y-35035476D01*
X11290714Y-35035476D01*
X11271667Y-35025952D01*
X11262143Y-35016429D01*
X11252619Y-34997381D01*
X11243095Y-34959286D01*
X11243095Y-34911667D01*
X11252619Y-34873571D01*
X11262143Y-34854524D01*
X11271667Y-34845000D01*
X11290714Y-34835476D01*
X11443095Y-35016429D02*
X11452619Y-35025952D01*
X11443095Y-35035476D01*
X11433571Y-35025952D01*
X11443095Y-35016429D01*
X11443095Y-35035476D01*
X11624048Y-34902143D02*
X11624048Y-35035476D01*
X11576428Y-34825952D02*
X11528809Y-34968810D01*
X11652619Y-34968810D01*
X11766905Y-34835476D02*
X11785952Y-34835476D01*
X11805000Y-34845000D01*
X11814524Y-34854524D01*
X11824048Y-34873571D01*
X11833571Y-34911667D01*
X11833571Y-34959286D01*
X11824048Y-34997381D01*
X11814524Y-35016429D01*
X11805000Y-35025952D01*
X11785952Y-35035476D01*
X11766905Y-35035476D01*
X11747857Y-35025952D01*
X11738333Y-35016429D01*
X11728809Y-34997381D01*
X11719286Y-34959286D01*
X11719286Y-34911667D01*
X11728809Y-34873571D01*
X11738333Y-34854524D01*
X11747857Y-34845000D01*
X11766905Y-34835476D01*
X11957381Y-34835476D02*
X11976428Y-34835476D01*
X11995476Y-34845000D01*
X12005000Y-34854524D01*
X12014524Y-34873571D01*
X12024048Y-34911667D01*
X12024048Y-34959286D01*
X12014524Y-34997381D01*
X12005000Y-35016429D01*
X11995476Y-35025952D01*
X11976428Y-35035476D01*
X11957381Y-35035476D01*
X11938333Y-35025952D01*
X11928809Y-35016429D01*
X11919286Y-34997381D01*
X11909762Y-34959286D01*
X11909762Y-34911667D01*
X11919286Y-34873571D01*
X11928809Y-34854524D01*
X11938333Y-34845000D01*
X11957381Y-34835476D01*
X12109762Y-35035476D02*
X12109762Y-34902143D01*
X12109762Y-34921190D02*
X12119286Y-34911667D01*
X12138333Y-34902143D01*
X12166905Y-34902143D01*
X12185952Y-34911667D01*
X12195476Y-34930714D01*
X12195476Y-35035476D01*
X12195476Y-34930714D02*
X12205000Y-34911667D01*
X12224048Y-34902143D01*
X12252619Y-34902143D01*
X12271667Y-34911667D01*
X12281190Y-34930714D01*
X12281190Y-35035476D01*
X12376428Y-35035476D02*
X12376428Y-34902143D01*
X12376428Y-34921190D02*
X12385952Y-34911667D01*
X12405000Y-34902143D01*
X12433571Y-34902143D01*
X12452619Y-34911667D01*
X12462143Y-34930714D01*
X12462143Y-35035476D01*
X12462143Y-34930714D02*
X12471667Y-34911667D01*
X12490714Y-34902143D01*
X12519286Y-34902143D01*
X12538333Y-34911667D01*
X12547857Y-34930714D01*
X12547857Y-35035476D01*
X12938333Y-34825952D02*
X12766905Y-35083095D01*
X13195476Y-34835476D02*
X13214524Y-34835476D01*
X13233571Y-34845000D01*
X13243095Y-34854524D01*
X13252619Y-34873571D01*
X13262143Y-34911667D01*
X13262143Y-34959286D01*
X13252619Y-34997381D01*
X13243095Y-35016429D01*
X13233571Y-35025952D01*
X13214524Y-35035476D01*
X13195476Y-35035476D01*
X13176428Y-35025952D01*
X13166905Y-35016429D01*
X13157381Y-34997381D01*
X13147857Y-34959286D01*
X13147857Y-34911667D01*
X13157381Y-34873571D01*
X13166905Y-34854524D01*
X13176428Y-34845000D01*
X13195476Y-34835476D01*
X13347857Y-35016429D02*
X13357381Y-35025952D01*
X13347857Y-35035476D01*
X13338333Y-35025952D01*
X13347857Y-35016429D01*
X13347857Y-35035476D01*
X13481190Y-34835476D02*
X13500238Y-34835476D01*
X13519286Y-34845000D01*
X13528809Y-34854524D01*
X13538333Y-34873571D01*
X13547857Y-34911667D01*
X13547857Y-34959286D01*
X13538333Y-34997381D01*
X13528809Y-35016429D01*
X13519286Y-35025952D01*
X13500238Y-35035476D01*
X13481190Y-35035476D01*
X13462143Y-35025952D01*
X13452619Y-35016429D01*
X13443095Y-34997381D01*
X13433571Y-34959286D01*
X13433571Y-34911667D01*
X13443095Y-34873571D01*
X13452619Y-34854524D01*
X13462143Y-34845000D01*
X13481190Y-34835476D01*
X13738333Y-35035476D02*
X13624048Y-35035476D01*
X13681190Y-35035476D02*
X13681190Y-34835476D01*
X13662143Y-34864048D01*
X13643095Y-34883095D01*
X13624048Y-34892619D01*
X13919286Y-34835476D02*
X13824048Y-34835476D01*
X13814524Y-34930714D01*
X13824048Y-34921190D01*
X13843095Y-34911667D01*
X13890714Y-34911667D01*
X13909762Y-34921190D01*
X13919286Y-34930714D01*
X13928809Y-34949762D01*
X13928809Y-34997381D01*
X13919286Y-35016429D01*
X13909762Y-35025952D01*
X13890714Y-35035476D01*
X13843095Y-35035476D01*
X13824048Y-35025952D01*
X13814524Y-35016429D01*
X13995476Y-34835476D02*
X14128809Y-34835476D01*
X14043095Y-35035476D01*
X14195476Y-34835476D02*
X14195476Y-34873571D01*
X14271667Y-34835476D02*
X14271667Y-34873571D01*
X14566905Y-35111667D02*
X14557381Y-35102143D01*
X14538333Y-35073571D01*
X14528809Y-35054524D01*
X14519286Y-35025952D01*
X14509762Y-34978333D01*
X14509762Y-34940238D01*
X14519286Y-34892619D01*
X14528809Y-34864048D01*
X14538333Y-34845000D01*
X14557381Y-34816429D01*
X14566905Y-34806905D01*
X14747857Y-35035476D02*
X14633571Y-35035476D01*
X14690714Y-35035476D02*
X14690714Y-34835476D01*
X14671667Y-34864048D01*
X14652619Y-34883095D01*
X14633571Y-34892619D01*
X14814524Y-34835476D02*
X14938333Y-34835476D01*
X14871667Y-34911667D01*
X14900238Y-34911667D01*
X14919286Y-34921190D01*
X14928809Y-34930714D01*
X14938333Y-34949762D01*
X14938333Y-34997381D01*
X14928809Y-35016429D01*
X14919286Y-35025952D01*
X14900238Y-35035476D01*
X14843095Y-35035476D01*
X14824048Y-35025952D01*
X14814524Y-35016429D01*
X15176428Y-35035476D02*
X15176428Y-34835476D01*
X15262143Y-35035476D02*
X15262143Y-34930714D01*
X15252619Y-34911667D01*
X15233571Y-34902143D01*
X15205000Y-34902143D01*
X15185952Y-34911667D01*
X15176428Y-34921190D01*
X15385952Y-35035476D02*
X15366905Y-35025952D01*
X15357381Y-35016429D01*
X15347857Y-34997381D01*
X15347857Y-34940238D01*
X15357381Y-34921190D01*
X15366905Y-34911667D01*
X15385952Y-34902143D01*
X15414524Y-34902143D01*
X15433571Y-34911667D01*
X15443095Y-34921190D01*
X15452619Y-34940238D01*
X15452619Y-34997381D01*
X15443095Y-35016429D01*
X15433571Y-35025952D01*
X15414524Y-35035476D01*
X15385952Y-35035476D01*
X15566905Y-35035476D02*
X15547857Y-35025952D01*
X15538333Y-35006905D01*
X15538333Y-34835476D01*
X15719286Y-35025952D02*
X15700238Y-35035476D01*
X15662143Y-35035476D01*
X15643095Y-35025952D01*
X15633571Y-35006905D01*
X15633571Y-34930714D01*
X15643095Y-34911667D01*
X15662143Y-34902143D01*
X15700238Y-34902143D01*
X15719286Y-34911667D01*
X15728809Y-34930714D01*
X15728809Y-34949762D01*
X15633571Y-34968810D01*
X15805000Y-35025952D02*
X15824048Y-35035476D01*
X15862143Y-35035476D01*
X15881190Y-35025952D01*
X15890714Y-35006905D01*
X15890714Y-34997381D01*
X15881190Y-34978333D01*
X15862143Y-34968810D01*
X15833571Y-34968810D01*
X15814524Y-34959286D01*
X15805000Y-34940238D01*
X15805000Y-34930714D01*
X15814524Y-34911667D01*
X15833571Y-34902143D01*
X15862143Y-34902143D01*
X15881190Y-34911667D01*
X15957381Y-35111667D02*
X15966905Y-35102143D01*
X15985952Y-35073571D01*
X15995476Y-35054524D01*
X16005000Y-35025952D01*
X16014524Y-34978333D01*
X16014524Y-34940238D01*
X16005000Y-34892619D01*
X15995476Y-34864048D01*
X15985952Y-34845000D01*
X15966905Y-34816429D01*
X15957381Y-34806905D01*
D12*
X10995000Y-35209000D02*
G75*
G03*
X10995000Y-35209000I-20000J0D01*
G01*
D11*
X11290714Y-35099476D02*
X11309762Y-35099476D01*
X11328809Y-35109000D01*
X11338333Y-35118524D01*
X11347857Y-35137571D01*
X11357381Y-35175667D01*
X11357381Y-35223286D01*
X11347857Y-35261381D01*
X11338333Y-35280429D01*
X11328809Y-35289952D01*
X11309762Y-35299476D01*
X11290714Y-35299476D01*
X11271667Y-35289952D01*
X11262143Y-35280429D01*
X11252619Y-35261381D01*
X11243095Y-35223286D01*
X11243095Y-35175667D01*
X11252619Y-35137571D01*
X11262143Y-35118524D01*
X11271667Y-35109000D01*
X11290714Y-35099476D01*
X11443095Y-35280429D02*
X11452619Y-35289952D01*
X11443095Y-35299476D01*
X11433571Y-35289952D01*
X11443095Y-35280429D01*
X11443095Y-35299476D01*
X11624048Y-35166143D02*
X11624048Y-35299476D01*
X11576428Y-35089952D02*
X11528809Y-35232810D01*
X11652619Y-35232810D01*
X11766905Y-35099476D02*
X11785952Y-35099476D01*
X11805000Y-35109000D01*
X11814524Y-35118524D01*
X11824048Y-35137571D01*
X11833571Y-35175667D01*
X11833571Y-35223286D01*
X11824048Y-35261381D01*
X11814524Y-35280429D01*
X11805000Y-35289952D01*
X11785952Y-35299476D01*
X11766905Y-35299476D01*
X11747857Y-35289952D01*
X11738333Y-35280429D01*
X11728809Y-35261381D01*
X11719286Y-35223286D01*
X11719286Y-35175667D01*
X11728809Y-35137571D01*
X11738333Y-35118524D01*
X11747857Y-35109000D01*
X11766905Y-35099476D01*
X11957381Y-35099476D02*
X11976428Y-35099476D01*
X11995476Y-35109000D01*
X12005000Y-35118524D01*
X12014524Y-35137571D01*
X12024048Y-35175667D01*
X12024048Y-35223286D01*
X12014524Y-35261381D01*
X12005000Y-35280429D01*
X11995476Y-35289952D01*
X11976428Y-35299476D01*
X11957381Y-35299476D01*
X11938333Y-35289952D01*
X11928809Y-35280429D01*
X11919286Y-35261381D01*
X11909762Y-35223286D01*
X11909762Y-35175667D01*
X11919286Y-35137571D01*
X11928809Y-35118524D01*
X11938333Y-35109000D01*
X11957381Y-35099476D01*
X12109762Y-35299476D02*
X12109762Y-35166143D01*
X12109762Y-35185190D02*
X12119286Y-35175667D01*
X12138333Y-35166143D01*
X12166905Y-35166143D01*
X12185952Y-35175667D01*
X12195476Y-35194714D01*
X12195476Y-35299476D01*
X12195476Y-35194714D02*
X12205000Y-35175667D01*
X12224048Y-35166143D01*
X12252619Y-35166143D01*
X12271667Y-35175667D01*
X12281190Y-35194714D01*
X12281190Y-35299476D01*
X12376428Y-35299476D02*
X12376428Y-35166143D01*
X12376428Y-35185190D02*
X12385952Y-35175667D01*
X12405000Y-35166143D01*
X12433571Y-35166143D01*
X12452619Y-35175667D01*
X12462143Y-35194714D01*
X12462143Y-35299476D01*
X12462143Y-35194714D02*
X12471667Y-35175667D01*
X12490714Y-35166143D01*
X12519286Y-35166143D01*
X12538333Y-35175667D01*
X12547857Y-35194714D01*
X12547857Y-35299476D01*
X12938333Y-35089952D02*
X12766905Y-35347095D01*
X13195476Y-35099476D02*
X13214524Y-35099476D01*
X13233571Y-35109000D01*
X13243095Y-35118524D01*
X13252619Y-35137571D01*
X13262143Y-35175667D01*
X13262143Y-35223286D01*
X13252619Y-35261381D01*
X13243095Y-35280429D01*
X13233571Y-35289952D01*
X13214524Y-35299476D01*
X13195476Y-35299476D01*
X13176428Y-35289952D01*
X13166905Y-35280429D01*
X13157381Y-35261381D01*
X13147857Y-35223286D01*
X13147857Y-35175667D01*
X13157381Y-35137571D01*
X13166905Y-35118524D01*
X13176428Y-35109000D01*
X13195476Y-35099476D01*
X13347857Y-35280429D02*
X13357381Y-35289952D01*
X13347857Y-35299476D01*
X13338333Y-35289952D01*
X13347857Y-35280429D01*
X13347857Y-35299476D01*
X13481190Y-35099476D02*
X13500238Y-35099476D01*
X13519286Y-35109000D01*
X13528809Y-35118524D01*
X13538333Y-35137571D01*
X13547857Y-35175667D01*
X13547857Y-35223286D01*
X13538333Y-35261381D01*
X13528809Y-35280429D01*
X13519286Y-35289952D01*
X13500238Y-35299476D01*
X13481190Y-35299476D01*
X13462143Y-35289952D01*
X13452619Y-35280429D01*
X13443095Y-35261381D01*
X13433571Y-35223286D01*
X13433571Y-35175667D01*
X13443095Y-35137571D01*
X13452619Y-35118524D01*
X13462143Y-35109000D01*
X13481190Y-35099476D01*
X13738333Y-35299476D02*
X13624048Y-35299476D01*
X13681190Y-35299476D02*
X13681190Y-35099476D01*
X13662143Y-35128048D01*
X13643095Y-35147095D01*
X13624048Y-35156619D01*
X13919286Y-35099476D02*
X13824048Y-35099476D01*
X13814524Y-35194714D01*
X13824048Y-35185190D01*
X13843095Y-35175667D01*
X13890714Y-35175667D01*
X13909762Y-35185190D01*
X13919286Y-35194714D01*
X13928809Y-35213762D01*
X13928809Y-35261381D01*
X13919286Y-35280429D01*
X13909762Y-35289952D01*
X13890714Y-35299476D01*
X13843095Y-35299476D01*
X13824048Y-35289952D01*
X13814524Y-35280429D01*
X13995476Y-35099476D02*
X14128809Y-35099476D01*
X14043095Y-35299476D01*
X14195476Y-35099476D02*
X14195476Y-35137571D01*
X14271667Y-35099476D02*
X14271667Y-35137571D01*
X14566905Y-35375667D02*
X14557381Y-35366143D01*
X14538333Y-35337571D01*
X14528809Y-35318524D01*
X14519286Y-35289952D01*
X14509762Y-35242333D01*
X14509762Y-35204238D01*
X14519286Y-35156619D01*
X14528809Y-35128048D01*
X14538333Y-35109000D01*
X14557381Y-35080429D01*
X14566905Y-35070905D01*
X14747857Y-35299476D02*
X14633571Y-35299476D01*
X14690714Y-35299476D02*
X14690714Y-35099476D01*
X14671667Y-35128048D01*
X14652619Y-35147095D01*
X14633571Y-35156619D01*
X14919286Y-35099476D02*
X14881190Y-35099476D01*
X14862143Y-35109000D01*
X14852619Y-35118524D01*
X14833571Y-35147095D01*
X14824048Y-35185190D01*
X14824048Y-35261381D01*
X14833571Y-35280429D01*
X14843095Y-35289952D01*
X14862143Y-35299476D01*
X14900238Y-35299476D01*
X14919286Y-35289952D01*
X14928809Y-35280429D01*
X14938333Y-35261381D01*
X14938333Y-35213762D01*
X14928809Y-35194714D01*
X14919286Y-35185190D01*
X14900238Y-35175667D01*
X14862143Y-35175667D01*
X14843095Y-35185190D01*
X14833571Y-35194714D01*
X14824048Y-35213762D01*
X15176428Y-35299476D02*
X15176428Y-35099476D01*
X15262143Y-35299476D02*
X15262143Y-35194714D01*
X15252619Y-35175667D01*
X15233571Y-35166143D01*
X15205000Y-35166143D01*
X15185952Y-35175667D01*
X15176428Y-35185190D01*
X15385952Y-35299476D02*
X15366905Y-35289952D01*
X15357381Y-35280429D01*
X15347857Y-35261381D01*
X15347857Y-35204238D01*
X15357381Y-35185190D01*
X15366905Y-35175667D01*
X15385952Y-35166143D01*
X15414524Y-35166143D01*
X15433571Y-35175667D01*
X15443095Y-35185190D01*
X15452619Y-35204238D01*
X15452619Y-35261381D01*
X15443095Y-35280429D01*
X15433571Y-35289952D01*
X15414524Y-35299476D01*
X15385952Y-35299476D01*
X15566905Y-35299476D02*
X15547857Y-35289952D01*
X15538333Y-35270905D01*
X15538333Y-35099476D01*
X15719286Y-35289952D02*
X15700238Y-35299476D01*
X15662143Y-35299476D01*
X15643095Y-35289952D01*
X15633571Y-35270905D01*
X15633571Y-35194714D01*
X15643095Y-35175667D01*
X15662143Y-35166143D01*
X15700238Y-35166143D01*
X15719286Y-35175667D01*
X15728809Y-35194714D01*
X15728809Y-35213762D01*
X15633571Y-35232810D01*
X15805000Y-35289952D02*
X15824048Y-35299476D01*
X15862143Y-35299476D01*
X15881190Y-35289952D01*
X15890714Y-35270905D01*
X15890714Y-35261381D01*
X15881190Y-35242333D01*
X15862143Y-35232810D01*
X15833571Y-35232810D01*
X15814524Y-35223286D01*
X15805000Y-35204238D01*
X15805000Y-35194714D01*
X15814524Y-35175667D01*
X15833571Y-35166143D01*
X15862143Y-35166143D01*
X15881190Y-35175667D01*
X15957381Y-35375667D02*
X15966905Y-35366143D01*
X15985952Y-35337571D01*
X15995476Y-35318524D01*
X16005000Y-35289952D01*
X16014524Y-35242333D01*
X16014524Y-35204238D01*
X16005000Y-35156619D01*
X15995476Y-35128048D01*
X15985952Y-35109000D01*
X15966905Y-35080429D01*
X15957381Y-35070905D01*
D13*
X10965000Y-35443000D02*
X10965000Y-35503000D01*
X10935000Y-35473000D02*
X10995000Y-35473000D01*
D11*
X11290714Y-35363476D02*
X11309762Y-35363476D01*
X11328809Y-35373000D01*
X11338333Y-35382524D01*
X11347857Y-35401571D01*
X11357381Y-35439667D01*
X11357381Y-35487286D01*
X11347857Y-35525381D01*
X11338333Y-35544429D01*
X11328809Y-35553952D01*
X11309762Y-35563476D01*
X11290714Y-35563476D01*
X11271667Y-35553952D01*
X11262143Y-35544429D01*
X11252619Y-35525381D01*
X11243095Y-35487286D01*
X11243095Y-35439667D01*
X11252619Y-35401571D01*
X11262143Y-35382524D01*
X11271667Y-35373000D01*
X11290714Y-35363476D01*
X11443095Y-35544429D02*
X11452619Y-35553952D01*
X11443095Y-35563476D01*
X11433571Y-35553952D01*
X11443095Y-35544429D01*
X11443095Y-35563476D01*
X11624048Y-35363476D02*
X11585952Y-35363476D01*
X11566905Y-35373000D01*
X11557381Y-35382524D01*
X11538333Y-35411095D01*
X11528809Y-35449190D01*
X11528809Y-35525381D01*
X11538333Y-35544429D01*
X11547857Y-35553952D01*
X11566905Y-35563476D01*
X11605000Y-35563476D01*
X11624048Y-35553952D01*
X11633571Y-35544429D01*
X11643095Y-35525381D01*
X11643095Y-35477762D01*
X11633571Y-35458714D01*
X11624048Y-35449190D01*
X11605000Y-35439667D01*
X11566905Y-35439667D01*
X11547857Y-35449190D01*
X11538333Y-35458714D01*
X11528809Y-35477762D01*
X11766905Y-35363476D02*
X11785952Y-35363476D01*
X11805000Y-35373000D01*
X11814524Y-35382524D01*
X11824048Y-35401571D01*
X11833571Y-35439667D01*
X11833571Y-35487286D01*
X11824048Y-35525381D01*
X11814524Y-35544429D01*
X11805000Y-35553952D01*
X11785952Y-35563476D01*
X11766905Y-35563476D01*
X11747857Y-35553952D01*
X11738333Y-35544429D01*
X11728809Y-35525381D01*
X11719286Y-35487286D01*
X11719286Y-35439667D01*
X11728809Y-35401571D01*
X11738333Y-35382524D01*
X11747857Y-35373000D01*
X11766905Y-35363476D01*
X11957381Y-35363476D02*
X11976428Y-35363476D01*
X11995476Y-35373000D01*
X12005000Y-35382524D01*
X12014524Y-35401571D01*
X12024048Y-35439667D01*
X12024048Y-35487286D01*
X12014524Y-35525381D01*
X12005000Y-35544429D01*
X11995476Y-35553952D01*
X11976428Y-35563476D01*
X11957381Y-35563476D01*
X11938333Y-35553952D01*
X11928809Y-35544429D01*
X11919286Y-35525381D01*
X11909762Y-35487286D01*
X11909762Y-35439667D01*
X11919286Y-35401571D01*
X11928809Y-35382524D01*
X11938333Y-35373000D01*
X11957381Y-35363476D01*
X12109762Y-35563476D02*
X12109762Y-35430143D01*
X12109762Y-35449190D02*
X12119286Y-35439667D01*
X12138333Y-35430143D01*
X12166905Y-35430143D01*
X12185952Y-35439667D01*
X12195476Y-35458714D01*
X12195476Y-35563476D01*
X12195476Y-35458714D02*
X12205000Y-35439667D01*
X12224048Y-35430143D01*
X12252619Y-35430143D01*
X12271667Y-35439667D01*
X12281190Y-35458714D01*
X12281190Y-35563476D01*
X12376428Y-35563476D02*
X12376428Y-35430143D01*
X12376428Y-35449190D02*
X12385952Y-35439667D01*
X12405000Y-35430143D01*
X12433571Y-35430143D01*
X12452619Y-35439667D01*
X12462143Y-35458714D01*
X12462143Y-35563476D01*
X12462143Y-35458714D02*
X12471667Y-35439667D01*
X12490714Y-35430143D01*
X12519286Y-35430143D01*
X12538333Y-35439667D01*
X12547857Y-35458714D01*
X12547857Y-35563476D01*
X12938333Y-35353952D02*
X12766905Y-35611095D01*
X13195476Y-35363476D02*
X13214524Y-35363476D01*
X13233571Y-35373000D01*
X13243095Y-35382524D01*
X13252619Y-35401571D01*
X13262143Y-35439667D01*
X13262143Y-35487286D01*
X13252619Y-35525381D01*
X13243095Y-35544429D01*
X13233571Y-35553952D01*
X13214524Y-35563476D01*
X13195476Y-35563476D01*
X13176428Y-35553952D01*
X13166905Y-35544429D01*
X13157381Y-35525381D01*
X13147857Y-35487286D01*
X13147857Y-35439667D01*
X13157381Y-35401571D01*
X13166905Y-35382524D01*
X13176428Y-35373000D01*
X13195476Y-35363476D01*
X13347857Y-35544429D02*
X13357381Y-35553952D01*
X13347857Y-35563476D01*
X13338333Y-35553952D01*
X13347857Y-35544429D01*
X13347857Y-35563476D01*
X13481190Y-35363476D02*
X13500238Y-35363476D01*
X13519286Y-35373000D01*
X13528809Y-35382524D01*
X13538333Y-35401571D01*
X13547857Y-35439667D01*
X13547857Y-35487286D01*
X13538333Y-35525381D01*
X13528809Y-35544429D01*
X13519286Y-35553952D01*
X13500238Y-35563476D01*
X13481190Y-35563476D01*
X13462143Y-35553952D01*
X13452619Y-35544429D01*
X13443095Y-35525381D01*
X13433571Y-35487286D01*
X13433571Y-35439667D01*
X13443095Y-35401571D01*
X13452619Y-35382524D01*
X13462143Y-35373000D01*
X13481190Y-35363476D01*
X13624048Y-35382524D02*
X13633571Y-35373000D01*
X13652619Y-35363476D01*
X13700238Y-35363476D01*
X13719286Y-35373000D01*
X13728809Y-35382524D01*
X13738333Y-35401571D01*
X13738333Y-35420619D01*
X13728809Y-35449190D01*
X13614524Y-35563476D01*
X13738333Y-35563476D01*
X13805000Y-35363476D02*
X13928809Y-35363476D01*
X13862143Y-35439667D01*
X13890714Y-35439667D01*
X13909762Y-35449190D01*
X13919286Y-35458714D01*
X13928809Y-35477762D01*
X13928809Y-35525381D01*
X13919286Y-35544429D01*
X13909762Y-35553952D01*
X13890714Y-35563476D01*
X13833571Y-35563476D01*
X13814524Y-35553952D01*
X13805000Y-35544429D01*
X14100238Y-35363476D02*
X14062143Y-35363476D01*
X14043095Y-35373000D01*
X14033571Y-35382524D01*
X14014524Y-35411095D01*
X14005000Y-35449190D01*
X14005000Y-35525381D01*
X14014524Y-35544429D01*
X14024048Y-35553952D01*
X14043095Y-35563476D01*
X14081190Y-35563476D01*
X14100238Y-35553952D01*
X14109762Y-35544429D01*
X14119286Y-35525381D01*
X14119286Y-35477762D01*
X14109762Y-35458714D01*
X14100238Y-35449190D01*
X14081190Y-35439667D01*
X14043095Y-35439667D01*
X14024048Y-35449190D01*
X14014524Y-35458714D01*
X14005000Y-35477762D01*
X14195476Y-35363476D02*
X14195476Y-35401571D01*
X14271667Y-35363476D02*
X14271667Y-35401571D01*
X14566905Y-35639667D02*
X14557381Y-35630143D01*
X14538333Y-35601571D01*
X14528809Y-35582524D01*
X14519286Y-35553952D01*
X14509762Y-35506333D01*
X14509762Y-35468238D01*
X14519286Y-35420619D01*
X14528809Y-35392048D01*
X14538333Y-35373000D01*
X14557381Y-35344429D01*
X14566905Y-35334905D01*
X14681190Y-35363476D02*
X14700238Y-35363476D01*
X14719286Y-35373000D01*
X14728809Y-35382524D01*
X14738333Y-35401571D01*
X14747857Y-35439667D01*
X14747857Y-35487286D01*
X14738333Y-35525381D01*
X14728809Y-35544429D01*
X14719286Y-35553952D01*
X14700238Y-35563476D01*
X14681190Y-35563476D01*
X14662143Y-35553952D01*
X14652619Y-35544429D01*
X14643095Y-35525381D01*
X14633571Y-35487286D01*
X14633571Y-35439667D01*
X14643095Y-35401571D01*
X14652619Y-35382524D01*
X14662143Y-35373000D01*
X14681190Y-35363476D01*
X14985952Y-35563476D02*
X14985952Y-35363476D01*
X15071667Y-35563476D02*
X15071667Y-35458714D01*
X15062143Y-35439667D01*
X15043095Y-35430143D01*
X15014524Y-35430143D01*
X14995476Y-35439667D01*
X14985952Y-35449190D01*
X15195476Y-35563476D02*
X15176428Y-35553952D01*
X15166905Y-35544429D01*
X15157381Y-35525381D01*
X15157381Y-35468238D01*
X15166905Y-35449190D01*
X15176428Y-35439667D01*
X15195476Y-35430143D01*
X15224048Y-35430143D01*
X15243095Y-35439667D01*
X15252619Y-35449190D01*
X15262143Y-35468238D01*
X15262143Y-35525381D01*
X15252619Y-35544429D01*
X15243095Y-35553952D01*
X15224048Y-35563476D01*
X15195476Y-35563476D01*
X15376428Y-35563476D02*
X15357381Y-35553952D01*
X15347857Y-35534905D01*
X15347857Y-35363476D01*
X15528809Y-35553952D02*
X15509762Y-35563476D01*
X15471667Y-35563476D01*
X15452619Y-35553952D01*
X15443095Y-35534905D01*
X15443095Y-35458714D01*
X15452619Y-35439667D01*
X15471667Y-35430143D01*
X15509762Y-35430143D01*
X15528809Y-35439667D01*
X15538333Y-35458714D01*
X15538333Y-35477762D01*
X15443095Y-35496810D01*
X15614524Y-35553952D02*
X15633571Y-35563476D01*
X15671667Y-35563476D01*
X15690714Y-35553952D01*
X15700238Y-35534905D01*
X15700238Y-35525381D01*
X15690714Y-35506333D01*
X15671667Y-35496810D01*
X15643095Y-35496810D01*
X15624048Y-35487286D01*
X15614524Y-35468238D01*
X15614524Y-35458714D01*
X15624048Y-35439667D01*
X15643095Y-35430143D01*
X15671667Y-35430143D01*
X15690714Y-35439667D01*
X15938333Y-35487286D02*
X16090714Y-35487286D01*
X16014524Y-35563476D02*
X16014524Y-35411095D01*
X16424048Y-35430143D02*
X16424048Y-35563476D01*
X16376428Y-35353952D02*
X16328809Y-35496810D01*
X16452619Y-35496810D01*
X16671667Y-35553952D02*
X16690714Y-35563476D01*
X16728809Y-35563476D01*
X16747857Y-35553952D01*
X16757381Y-35534905D01*
X16757381Y-35525381D01*
X16747857Y-35506333D01*
X16728809Y-35496810D01*
X16700238Y-35496810D01*
X16681190Y-35487286D01*
X16671667Y-35468238D01*
X16671667Y-35458714D01*
X16681190Y-35439667D01*
X16700238Y-35430143D01*
X16728809Y-35430143D01*
X16747857Y-35439667D01*
X16871667Y-35563476D02*
X16852619Y-35553952D01*
X16843095Y-35534905D01*
X16843095Y-35363476D01*
X16976429Y-35563476D02*
X16957381Y-35553952D01*
X16947857Y-35544429D01*
X16938333Y-35525381D01*
X16938333Y-35468238D01*
X16947857Y-35449190D01*
X16957381Y-35439667D01*
X16976429Y-35430143D01*
X17005000Y-35430143D01*
X17024048Y-35439667D01*
X17033571Y-35449190D01*
X17043095Y-35468238D01*
X17043095Y-35525381D01*
X17033571Y-35544429D01*
X17024048Y-35553952D01*
X17005000Y-35563476D01*
X16976429Y-35563476D01*
X17100238Y-35430143D02*
X17176429Y-35430143D01*
X17128810Y-35363476D02*
X17128810Y-35534905D01*
X17138333Y-35553952D01*
X17157381Y-35563476D01*
X17176429Y-35563476D01*
X17233571Y-35553952D02*
X17252619Y-35563476D01*
X17290714Y-35563476D01*
X17309762Y-35553952D01*
X17319286Y-35534905D01*
X17319286Y-35525381D01*
X17309762Y-35506333D01*
X17290714Y-35496810D01*
X17262143Y-35496810D01*
X17243095Y-35487286D01*
X17233571Y-35468238D01*
X17233571Y-35458714D01*
X17243095Y-35439667D01*
X17262143Y-35430143D01*
X17290714Y-35430143D01*
X17309762Y-35439667D01*
X17385952Y-35639667D02*
X17395476Y-35630143D01*
X17414524Y-35601571D01*
X17424048Y-35582524D01*
X17433571Y-35553952D01*
X17443095Y-35506333D01*
X17443095Y-35468238D01*
X17433571Y-35420619D01*
X17424048Y-35392048D01*
X17414524Y-35373000D01*
X17395476Y-35344429D01*
X17385952Y-35334905D01*
D14*
X10983285Y-35765285D02*
X10983285Y-35708716D01*
X10926716Y-35708716D01*
X10926716Y-35765285D01*
X10983285Y-35765285D01*
D11*
X11290714Y-35627476D02*
X11309762Y-35627476D01*
X11328809Y-35637000D01*
X11338333Y-35646524D01*
X11347857Y-35665571D01*
X11357381Y-35703667D01*
X11357381Y-35751286D01*
X11347857Y-35789381D01*
X11338333Y-35808429D01*
X11328809Y-35817952D01*
X11309762Y-35827476D01*
X11290714Y-35827476D01*
X11271667Y-35817952D01*
X11262143Y-35808429D01*
X11252619Y-35789381D01*
X11243095Y-35751286D01*
X11243095Y-35703667D01*
X11252619Y-35665571D01*
X11262143Y-35646524D01*
X11271667Y-35637000D01*
X11290714Y-35627476D01*
X11443095Y-35808429D02*
X11452619Y-35817952D01*
X11443095Y-35827476D01*
X11433571Y-35817952D01*
X11443095Y-35808429D01*
X11443095Y-35827476D01*
X11566905Y-35713190D02*
X11547857Y-35703667D01*
X11538333Y-35694143D01*
X11528809Y-35675095D01*
X11528809Y-35665571D01*
X11538333Y-35646524D01*
X11547857Y-35637000D01*
X11566905Y-35627476D01*
X11605000Y-35627476D01*
X11624048Y-35637000D01*
X11633571Y-35646524D01*
X11643095Y-35665571D01*
X11643095Y-35675095D01*
X11633571Y-35694143D01*
X11624048Y-35703667D01*
X11605000Y-35713190D01*
X11566905Y-35713190D01*
X11547857Y-35722714D01*
X11538333Y-35732238D01*
X11528809Y-35751286D01*
X11528809Y-35789381D01*
X11538333Y-35808429D01*
X11547857Y-35817952D01*
X11566905Y-35827476D01*
X11605000Y-35827476D01*
X11624048Y-35817952D01*
X11633571Y-35808429D01*
X11643095Y-35789381D01*
X11643095Y-35751286D01*
X11633571Y-35732238D01*
X11624048Y-35722714D01*
X11605000Y-35713190D01*
X11766905Y-35627476D02*
X11785952Y-35627476D01*
X11805000Y-35637000D01*
X11814524Y-35646524D01*
X11824048Y-35665571D01*
X11833571Y-35703667D01*
X11833571Y-35751286D01*
X11824048Y-35789381D01*
X11814524Y-35808429D01*
X11805000Y-35817952D01*
X11785952Y-35827476D01*
X11766905Y-35827476D01*
X11747857Y-35817952D01*
X11738333Y-35808429D01*
X11728809Y-35789381D01*
X11719286Y-35751286D01*
X11719286Y-35703667D01*
X11728809Y-35665571D01*
X11738333Y-35646524D01*
X11747857Y-35637000D01*
X11766905Y-35627476D01*
X11957381Y-35627476D02*
X11976428Y-35627476D01*
X11995476Y-35637000D01*
X12005000Y-35646524D01*
X12014524Y-35665571D01*
X12024048Y-35703667D01*
X12024048Y-35751286D01*
X12014524Y-35789381D01*
X12005000Y-35808429D01*
X11995476Y-35817952D01*
X11976428Y-35827476D01*
X11957381Y-35827476D01*
X11938333Y-35817952D01*
X11928809Y-35808429D01*
X11919286Y-35789381D01*
X11909762Y-35751286D01*
X11909762Y-35703667D01*
X11919286Y-35665571D01*
X11928809Y-35646524D01*
X11938333Y-35637000D01*
X11957381Y-35627476D01*
X12109762Y-35827476D02*
X12109762Y-35694143D01*
X12109762Y-35713190D02*
X12119286Y-35703667D01*
X12138333Y-35694143D01*
X12166905Y-35694143D01*
X12185952Y-35703667D01*
X12195476Y-35722714D01*
X12195476Y-35827476D01*
X12195476Y-35722714D02*
X12205000Y-35703667D01*
X12224048Y-35694143D01*
X12252619Y-35694143D01*
X12271667Y-35703667D01*
X12281190Y-35722714D01*
X12281190Y-35827476D01*
X12376428Y-35827476D02*
X12376428Y-35694143D01*
X12376428Y-35713190D02*
X12385952Y-35703667D01*
X12405000Y-35694143D01*
X12433571Y-35694143D01*
X12452619Y-35703667D01*
X12462143Y-35722714D01*
X12462143Y-35827476D01*
X12462143Y-35722714D02*
X12471667Y-35703667D01*
X12490714Y-35694143D01*
X12519286Y-35694143D01*
X12538333Y-35703667D01*
X12547857Y-35722714D01*
X12547857Y-35827476D01*
X12938333Y-35617952D02*
X12766905Y-35875095D01*
X13195476Y-35627476D02*
X13214524Y-35627476D01*
X13233571Y-35637000D01*
X13243095Y-35646524D01*
X13252619Y-35665571D01*
X13262143Y-35703667D01*
X13262143Y-35751286D01*
X13252619Y-35789381D01*
X13243095Y-35808429D01*
X13233571Y-35817952D01*
X13214524Y-35827476D01*
X13195476Y-35827476D01*
X13176428Y-35817952D01*
X13166905Y-35808429D01*
X13157381Y-35789381D01*
X13147857Y-35751286D01*
X13147857Y-35703667D01*
X13157381Y-35665571D01*
X13166905Y-35646524D01*
X13176428Y-35637000D01*
X13195476Y-35627476D01*
X13347857Y-35808429D02*
X13357381Y-35817952D01*
X13347857Y-35827476D01*
X13338333Y-35817952D01*
X13347857Y-35808429D01*
X13347857Y-35827476D01*
X13481190Y-35627476D02*
X13500238Y-35627476D01*
X13519286Y-35637000D01*
X13528809Y-35646524D01*
X13538333Y-35665571D01*
X13547857Y-35703667D01*
X13547857Y-35751286D01*
X13538333Y-35789381D01*
X13528809Y-35808429D01*
X13519286Y-35817952D01*
X13500238Y-35827476D01*
X13481190Y-35827476D01*
X13462143Y-35817952D01*
X13452619Y-35808429D01*
X13443095Y-35789381D01*
X13433571Y-35751286D01*
X13433571Y-35703667D01*
X13443095Y-35665571D01*
X13452619Y-35646524D01*
X13462143Y-35637000D01*
X13481190Y-35627476D01*
X13614524Y-35627476D02*
X13738333Y-35627476D01*
X13671667Y-35703667D01*
X13700238Y-35703667D01*
X13719286Y-35713190D01*
X13728809Y-35722714D01*
X13738333Y-35741762D01*
X13738333Y-35789381D01*
X13728809Y-35808429D01*
X13719286Y-35817952D01*
X13700238Y-35827476D01*
X13643095Y-35827476D01*
X13624048Y-35817952D01*
X13614524Y-35808429D01*
X13928809Y-35827476D02*
X13814524Y-35827476D01*
X13871667Y-35827476D02*
X13871667Y-35627476D01*
X13852619Y-35656048D01*
X13833571Y-35675095D01*
X13814524Y-35684619D01*
X14109762Y-35627476D02*
X14014524Y-35627476D01*
X14005000Y-35722714D01*
X14014524Y-35713190D01*
X14033571Y-35703667D01*
X14081190Y-35703667D01*
X14100238Y-35713190D01*
X14109762Y-35722714D01*
X14119286Y-35741762D01*
X14119286Y-35789381D01*
X14109762Y-35808429D01*
X14100238Y-35817952D01*
X14081190Y-35827476D01*
X14033571Y-35827476D01*
X14014524Y-35817952D01*
X14005000Y-35808429D01*
X14195476Y-35627476D02*
X14195476Y-35665571D01*
X14271667Y-35627476D02*
X14271667Y-35665571D01*
X14566905Y-35903667D02*
X14557381Y-35894143D01*
X14538333Y-35865571D01*
X14528809Y-35846524D01*
X14519286Y-35817952D01*
X14509762Y-35770333D01*
X14509762Y-35732238D01*
X14519286Y-35684619D01*
X14528809Y-35656048D01*
X14538333Y-35637000D01*
X14557381Y-35608429D01*
X14566905Y-35598905D01*
X14747857Y-35827476D02*
X14633571Y-35827476D01*
X14690714Y-35827476D02*
X14690714Y-35627476D01*
X14671667Y-35656048D01*
X14652619Y-35675095D01*
X14633571Y-35684619D01*
X14843095Y-35827476D02*
X14881190Y-35827476D01*
X14900238Y-35817952D01*
X14909762Y-35808429D01*
X14928809Y-35779857D01*
X14938333Y-35741762D01*
X14938333Y-35665571D01*
X14928809Y-35646524D01*
X14919286Y-35637000D01*
X14900238Y-35627476D01*
X14862143Y-35627476D01*
X14843095Y-35637000D01*
X14833571Y-35646524D01*
X14824048Y-35665571D01*
X14824048Y-35713190D01*
X14833571Y-35732238D01*
X14843095Y-35741762D01*
X14862143Y-35751286D01*
X14900238Y-35751286D01*
X14919286Y-35741762D01*
X14928809Y-35732238D01*
X14938333Y-35713190D01*
X15062143Y-35627476D02*
X15081190Y-35627476D01*
X15100238Y-35637000D01*
X15109762Y-35646524D01*
X15119286Y-35665571D01*
X15128809Y-35703667D01*
X15128809Y-35751286D01*
X15119286Y-35789381D01*
X15109762Y-35808429D01*
X15100238Y-35817952D01*
X15081190Y-35827476D01*
X15062143Y-35827476D01*
X15043095Y-35817952D01*
X15033571Y-35808429D01*
X15024048Y-35789381D01*
X15014524Y-35751286D01*
X15014524Y-35703667D01*
X15024048Y-35665571D01*
X15033571Y-35646524D01*
X15043095Y-35637000D01*
X15062143Y-35627476D01*
X15366905Y-35827476D02*
X15366905Y-35627476D01*
X15452619Y-35827476D02*
X15452619Y-35722714D01*
X15443095Y-35703667D01*
X15424048Y-35694143D01*
X15395476Y-35694143D01*
X15376428Y-35703667D01*
X15366905Y-35713190D01*
X15576428Y-35827476D02*
X15557381Y-35817952D01*
X15547857Y-35808429D01*
X15538333Y-35789381D01*
X15538333Y-35732238D01*
X15547857Y-35713190D01*
X15557381Y-35703667D01*
X15576428Y-35694143D01*
X15605000Y-35694143D01*
X15624048Y-35703667D01*
X15633571Y-35713190D01*
X15643095Y-35732238D01*
X15643095Y-35789381D01*
X15633571Y-35808429D01*
X15624048Y-35817952D01*
X15605000Y-35827476D01*
X15576428Y-35827476D01*
X15757381Y-35827476D02*
X15738333Y-35817952D01*
X15728809Y-35798905D01*
X15728809Y-35627476D01*
X15909762Y-35817952D02*
X15890714Y-35827476D01*
X15852619Y-35827476D01*
X15833571Y-35817952D01*
X15824048Y-35798905D01*
X15824048Y-35722714D01*
X15833571Y-35703667D01*
X15852619Y-35694143D01*
X15890714Y-35694143D01*
X15909762Y-35703667D01*
X15919286Y-35722714D01*
X15919286Y-35741762D01*
X15824048Y-35760810D01*
X15995476Y-35817952D02*
X16014524Y-35827476D01*
X16052619Y-35827476D01*
X16071667Y-35817952D01*
X16081190Y-35798905D01*
X16081190Y-35789381D01*
X16071667Y-35770333D01*
X16052619Y-35760810D01*
X16024048Y-35760810D01*
X16005000Y-35751286D01*
X15995476Y-35732238D01*
X15995476Y-35722714D01*
X16005000Y-35703667D01*
X16024048Y-35694143D01*
X16052619Y-35694143D01*
X16071667Y-35703667D01*
X16147857Y-35903667D02*
X16157381Y-35894143D01*
X16176428Y-35865571D01*
X16185952Y-35846524D01*
X16195476Y-35817952D01*
X16205000Y-35770333D01*
X16205000Y-35732238D01*
X16195476Y-35684619D01*
X16185952Y-35656048D01*
X16176428Y-35637000D01*
X16157381Y-35608429D01*
X16147857Y-35598905D01*
D15*
X10945000Y-36051000D02*
X10995000Y-36001000D01*
X10945000Y-35951000D01*
X10895000Y-36001000D01*
X10945000Y-36051000D01*
D11*
X11357381Y-36091476D02*
X11243095Y-36091476D01*
X11300238Y-36091476D02*
X11300238Y-35891476D01*
X11281190Y-35920048D01*
X11262143Y-35939095D01*
X11243095Y-35948619D01*
X11443095Y-36072429D02*
X11452619Y-36081952D01*
X11443095Y-36091476D01*
X11433571Y-36081952D01*
X11443095Y-36072429D01*
X11443095Y-36091476D01*
X11576428Y-35891476D02*
X11595476Y-35891476D01*
X11614524Y-35901000D01*
X11624048Y-35910524D01*
X11633571Y-35929571D01*
X11643095Y-35967667D01*
X11643095Y-36015286D01*
X11633571Y-36053381D01*
X11624048Y-36072429D01*
X11614524Y-36081952D01*
X11595476Y-36091476D01*
X11576428Y-36091476D01*
X11557381Y-36081952D01*
X11547857Y-36072429D01*
X11538333Y-36053381D01*
X11528809Y-36015286D01*
X11528809Y-35967667D01*
X11538333Y-35929571D01*
X11547857Y-35910524D01*
X11557381Y-35901000D01*
X11576428Y-35891476D01*
X11766905Y-35891476D02*
X11785952Y-35891476D01*
X11805000Y-35901000D01*
X11814524Y-35910524D01*
X11824048Y-35929571D01*
X11833571Y-35967667D01*
X11833571Y-36015286D01*
X11824048Y-36053381D01*
X11814524Y-36072429D01*
X11805000Y-36081952D01*
X11785952Y-36091476D01*
X11766905Y-36091476D01*
X11747857Y-36081952D01*
X11738333Y-36072429D01*
X11728809Y-36053381D01*
X11719286Y-36015286D01*
X11719286Y-35967667D01*
X11728809Y-35929571D01*
X11738333Y-35910524D01*
X11747857Y-35901000D01*
X11766905Y-35891476D01*
X11957381Y-35891476D02*
X11976428Y-35891476D01*
X11995476Y-35901000D01*
X12005000Y-35910524D01*
X12014524Y-35929571D01*
X12024048Y-35967667D01*
X12024048Y-36015286D01*
X12014524Y-36053381D01*
X12005000Y-36072429D01*
X11995476Y-36081952D01*
X11976428Y-36091476D01*
X11957381Y-36091476D01*
X11938333Y-36081952D01*
X11928809Y-36072429D01*
X11919286Y-36053381D01*
X11909762Y-36015286D01*
X11909762Y-35967667D01*
X11919286Y-35929571D01*
X11928809Y-35910524D01*
X11938333Y-35901000D01*
X11957381Y-35891476D01*
X12109762Y-36091476D02*
X12109762Y-35958143D01*
X12109762Y-35977190D02*
X12119286Y-35967667D01*
X12138333Y-35958143D01*
X12166905Y-35958143D01*
X12185952Y-35967667D01*
X12195476Y-35986714D01*
X12195476Y-36091476D01*
X12195476Y-35986714D02*
X12205000Y-35967667D01*
X12224048Y-35958143D01*
X12252619Y-35958143D01*
X12271667Y-35967667D01*
X12281190Y-35986714D01*
X12281190Y-36091476D01*
X12376428Y-36091476D02*
X12376428Y-35958143D01*
X12376428Y-35977190D02*
X12385952Y-35967667D01*
X12405000Y-35958143D01*
X12433571Y-35958143D01*
X12452619Y-35967667D01*
X12462143Y-35986714D01*
X12462143Y-36091476D01*
X12462143Y-35986714D02*
X12471667Y-35967667D01*
X12490714Y-35958143D01*
X12519286Y-35958143D01*
X12538333Y-35967667D01*
X12547857Y-35986714D01*
X12547857Y-36091476D01*
X12938333Y-35881952D02*
X12766905Y-36139095D01*
X13195476Y-35891476D02*
X13214524Y-35891476D01*
X13233571Y-35901000D01*
X13243095Y-35910524D01*
X13252619Y-35929571D01*
X13262143Y-35967667D01*
X13262143Y-36015286D01*
X13252619Y-36053381D01*
X13243095Y-36072429D01*
X13233571Y-36081952D01*
X13214524Y-36091476D01*
X13195476Y-36091476D01*
X13176428Y-36081952D01*
X13166905Y-36072429D01*
X13157381Y-36053381D01*
X13147857Y-36015286D01*
X13147857Y-35967667D01*
X13157381Y-35929571D01*
X13166905Y-35910524D01*
X13176428Y-35901000D01*
X13195476Y-35891476D01*
X13347857Y-36072429D02*
X13357381Y-36081952D01*
X13347857Y-36091476D01*
X13338333Y-36081952D01*
X13347857Y-36072429D01*
X13347857Y-36091476D01*
X13481190Y-35891476D02*
X13500238Y-35891476D01*
X13519286Y-35901000D01*
X13528809Y-35910524D01*
X13538333Y-35929571D01*
X13547857Y-35967667D01*
X13547857Y-36015286D01*
X13538333Y-36053381D01*
X13528809Y-36072429D01*
X13519286Y-36081952D01*
X13500238Y-36091476D01*
X13481190Y-36091476D01*
X13462143Y-36081952D01*
X13452619Y-36072429D01*
X13443095Y-36053381D01*
X13433571Y-36015286D01*
X13433571Y-35967667D01*
X13443095Y-35929571D01*
X13452619Y-35910524D01*
X13462143Y-35901000D01*
X13481190Y-35891476D01*
X13614524Y-35891476D02*
X13738333Y-35891476D01*
X13671667Y-35967667D01*
X13700238Y-35967667D01*
X13719286Y-35977190D01*
X13728809Y-35986714D01*
X13738333Y-36005762D01*
X13738333Y-36053381D01*
X13728809Y-36072429D01*
X13719286Y-36081952D01*
X13700238Y-36091476D01*
X13643095Y-36091476D01*
X13624048Y-36081952D01*
X13614524Y-36072429D01*
X13833571Y-36091476D02*
X13871667Y-36091476D01*
X13890714Y-36081952D01*
X13900238Y-36072429D01*
X13919286Y-36043857D01*
X13928809Y-36005762D01*
X13928809Y-35929571D01*
X13919286Y-35910524D01*
X13909762Y-35901000D01*
X13890714Y-35891476D01*
X13852619Y-35891476D01*
X13833571Y-35901000D01*
X13824048Y-35910524D01*
X13814524Y-35929571D01*
X13814524Y-35977190D01*
X13824048Y-35996238D01*
X13833571Y-36005762D01*
X13852619Y-36015286D01*
X13890714Y-36015286D01*
X13909762Y-36005762D01*
X13919286Y-35996238D01*
X13928809Y-35977190D01*
X14100238Y-35958143D02*
X14100238Y-36091476D01*
X14052619Y-35881952D02*
X14005000Y-36024810D01*
X14128809Y-36024810D01*
X14195476Y-35891476D02*
X14195476Y-35929571D01*
X14271667Y-35891476D02*
X14271667Y-35929571D01*
X14566905Y-36167667D02*
X14557381Y-36158143D01*
X14538333Y-36129571D01*
X14528809Y-36110524D01*
X14519286Y-36081952D01*
X14509762Y-36034333D01*
X14509762Y-35996238D01*
X14519286Y-35948619D01*
X14528809Y-35920048D01*
X14538333Y-35901000D01*
X14557381Y-35872429D01*
X14566905Y-35862905D01*
X14624048Y-35891476D02*
X14757381Y-35891476D01*
X14671667Y-36091476D01*
X14985952Y-36091476D02*
X14985952Y-35891476D01*
X15071667Y-36091476D02*
X15071667Y-35986714D01*
X15062143Y-35967667D01*
X15043095Y-35958143D01*
X15014524Y-35958143D01*
X14995476Y-35967667D01*
X14985952Y-35977190D01*
X15195476Y-36091476D02*
X15176428Y-36081952D01*
X15166905Y-36072429D01*
X15157381Y-36053381D01*
X15157381Y-35996238D01*
X15166905Y-35977190D01*
X15176428Y-35967667D01*
X15195476Y-35958143D01*
X15224048Y-35958143D01*
X15243095Y-35967667D01*
X15252619Y-35977190D01*
X15262143Y-35996238D01*
X15262143Y-36053381D01*
X15252619Y-36072429D01*
X15243095Y-36081952D01*
X15224048Y-36091476D01*
X15195476Y-36091476D01*
X15376428Y-36091476D02*
X15357381Y-36081952D01*
X15347857Y-36062905D01*
X15347857Y-35891476D01*
X15528809Y-36081952D02*
X15509762Y-36091476D01*
X15471667Y-36091476D01*
X15452619Y-36081952D01*
X15443095Y-36062905D01*
X15443095Y-35986714D01*
X15452619Y-35967667D01*
X15471667Y-35958143D01*
X15509762Y-35958143D01*
X15528809Y-35967667D01*
X15538333Y-35986714D01*
X15538333Y-36005762D01*
X15443095Y-36024810D01*
X15614524Y-36081952D02*
X15633571Y-36091476D01*
X15671667Y-36091476D01*
X15690714Y-36081952D01*
X15700238Y-36062905D01*
X15700238Y-36053381D01*
X15690714Y-36034333D01*
X15671667Y-36024810D01*
X15643095Y-36024810D01*
X15624048Y-36015286D01*
X15614524Y-35996238D01*
X15614524Y-35986714D01*
X15624048Y-35967667D01*
X15643095Y-35958143D01*
X15671667Y-35958143D01*
X15690714Y-35967667D01*
X15766905Y-36167667D02*
X15776428Y-36158143D01*
X15795476Y-36129571D01*
X15805000Y-36110524D01*
X15814524Y-36081952D01*
X15824048Y-36034333D01*
X15824048Y-35996238D01*
X15814524Y-35948619D01*
X15805000Y-35920048D01*
X15795476Y-35901000D01*
X15776428Y-35872429D01*
X15766905Y-35862905D01*
D16*
X10893000Y-36214000D02*
X10995000Y-36316000D01*
X10995000Y-36214000D02*
X10893000Y-36316000D01*
X10995000Y-36265000D02*
G75*
G03*
X10995000Y-36265000I-51000J0D01*
G01*
D11*
X11357381Y-36355476D02*
X11243095Y-36355476D01*
X11300238Y-36355476D02*
X11300238Y-36155476D01*
X11281190Y-36184048D01*
X11262143Y-36203095D01*
X11243095Y-36212619D01*
X11443095Y-36336429D02*
X11452619Y-36345952D01*
X11443095Y-36355476D01*
X11433571Y-36345952D01*
X11443095Y-36336429D01*
X11443095Y-36355476D01*
X11576428Y-36155476D02*
X11595476Y-36155476D01*
X11614524Y-36165000D01*
X11624048Y-36174524D01*
X11633571Y-36193571D01*
X11643095Y-36231667D01*
X11643095Y-36279286D01*
X11633571Y-36317381D01*
X11624048Y-36336429D01*
X11614524Y-36345952D01*
X11595476Y-36355476D01*
X11576428Y-36355476D01*
X11557381Y-36345952D01*
X11547857Y-36336429D01*
X11538333Y-36317381D01*
X11528809Y-36279286D01*
X11528809Y-36231667D01*
X11538333Y-36193571D01*
X11547857Y-36174524D01*
X11557381Y-36165000D01*
X11576428Y-36155476D01*
X11719286Y-36174524D02*
X11728809Y-36165000D01*
X11747857Y-36155476D01*
X11795476Y-36155476D01*
X11814524Y-36165000D01*
X11824048Y-36174524D01*
X11833571Y-36193571D01*
X11833571Y-36212619D01*
X11824048Y-36241190D01*
X11709762Y-36355476D01*
X11833571Y-36355476D01*
X11957381Y-36155476D02*
X11976428Y-36155476D01*
X11995476Y-36165000D01*
X12005000Y-36174524D01*
X12014524Y-36193571D01*
X12024048Y-36231667D01*
X12024048Y-36279286D01*
X12014524Y-36317381D01*
X12005000Y-36336429D01*
X11995476Y-36345952D01*
X11976428Y-36355476D01*
X11957381Y-36355476D01*
X11938333Y-36345952D01*
X11928809Y-36336429D01*
X11919286Y-36317381D01*
X11909762Y-36279286D01*
X11909762Y-36231667D01*
X11919286Y-36193571D01*
X11928809Y-36174524D01*
X11938333Y-36165000D01*
X11957381Y-36155476D01*
X12109762Y-36355476D02*
X12109762Y-36222143D01*
X12109762Y-36241190D02*
X12119286Y-36231667D01*
X12138333Y-36222143D01*
X12166905Y-36222143D01*
X12185952Y-36231667D01*
X12195476Y-36250714D01*
X12195476Y-36355476D01*
X12195476Y-36250714D02*
X12205000Y-36231667D01*
X12224048Y-36222143D01*
X12252619Y-36222143D01*
X12271667Y-36231667D01*
X12281190Y-36250714D01*
X12281190Y-36355476D01*
X12376428Y-36355476D02*
X12376428Y-36222143D01*
X12376428Y-36241190D02*
X12385952Y-36231667D01*
X12405000Y-36222143D01*
X12433571Y-36222143D01*
X12452619Y-36231667D01*
X12462143Y-36250714D01*
X12462143Y-36355476D01*
X12462143Y-36250714D02*
X12471667Y-36231667D01*
X12490714Y-36222143D01*
X12519286Y-36222143D01*
X12538333Y-36231667D01*
X12547857Y-36250714D01*
X12547857Y-36355476D01*
X12938333Y-36145952D02*
X12766905Y-36403095D01*
X13195476Y-36155476D02*
X13214524Y-36155476D01*
X13233571Y-36165000D01*
X13243095Y-36174524D01*
X13252619Y-36193571D01*
X13262143Y-36231667D01*
X13262143Y-36279286D01*
X13252619Y-36317381D01*
X13243095Y-36336429D01*
X13233571Y-36345952D01*
X13214524Y-36355476D01*
X13195476Y-36355476D01*
X13176428Y-36345952D01*
X13166905Y-36336429D01*
X13157381Y-36317381D01*
X13147857Y-36279286D01*
X13147857Y-36231667D01*
X13157381Y-36193571D01*
X13166905Y-36174524D01*
X13176428Y-36165000D01*
X13195476Y-36155476D01*
X13347857Y-36336429D02*
X13357381Y-36345952D01*
X13347857Y-36355476D01*
X13338333Y-36345952D01*
X13347857Y-36336429D01*
X13347857Y-36355476D01*
X13481190Y-36155476D02*
X13500238Y-36155476D01*
X13519286Y-36165000D01*
X13528809Y-36174524D01*
X13538333Y-36193571D01*
X13547857Y-36231667D01*
X13547857Y-36279286D01*
X13538333Y-36317381D01*
X13528809Y-36336429D01*
X13519286Y-36345952D01*
X13500238Y-36355476D01*
X13481190Y-36355476D01*
X13462143Y-36345952D01*
X13452619Y-36336429D01*
X13443095Y-36317381D01*
X13433571Y-36279286D01*
X13433571Y-36231667D01*
X13443095Y-36193571D01*
X13452619Y-36174524D01*
X13462143Y-36165000D01*
X13481190Y-36155476D01*
X13719286Y-36222143D02*
X13719286Y-36355476D01*
X13671667Y-36145952D02*
X13624048Y-36288810D01*
X13747857Y-36288810D01*
X13862143Y-36155476D02*
X13881190Y-36155476D01*
X13900238Y-36165000D01*
X13909762Y-36174524D01*
X13919286Y-36193571D01*
X13928809Y-36231667D01*
X13928809Y-36279286D01*
X13919286Y-36317381D01*
X13909762Y-36336429D01*
X13900238Y-36345952D01*
X13881190Y-36355476D01*
X13862143Y-36355476D01*
X13843095Y-36345952D01*
X13833571Y-36336429D01*
X13824048Y-36317381D01*
X13814524Y-36279286D01*
X13814524Y-36231667D01*
X13824048Y-36193571D01*
X13833571Y-36174524D01*
X13843095Y-36165000D01*
X13862143Y-36155476D01*
X14005000Y-36174524D02*
X14014524Y-36165000D01*
X14033571Y-36155476D01*
X14081190Y-36155476D01*
X14100238Y-36165000D01*
X14109762Y-36174524D01*
X14119286Y-36193571D01*
X14119286Y-36212619D01*
X14109762Y-36241190D01*
X13995476Y-36355476D01*
X14119286Y-36355476D01*
X14195476Y-36155476D02*
X14195476Y-36193571D01*
X14271667Y-36155476D02*
X14271667Y-36193571D01*
X14566905Y-36431667D02*
X14557381Y-36422143D01*
X14538333Y-36393571D01*
X14528809Y-36374524D01*
X14519286Y-36345952D01*
X14509762Y-36298333D01*
X14509762Y-36260238D01*
X14519286Y-36212619D01*
X14528809Y-36184048D01*
X14538333Y-36165000D01*
X14557381Y-36136429D01*
X14566905Y-36126905D01*
X14728809Y-36222143D02*
X14728809Y-36355476D01*
X14681190Y-36145952D02*
X14633571Y-36288810D01*
X14757381Y-36288810D01*
X14814524Y-36155476D02*
X14938333Y-36155476D01*
X14871667Y-36231667D01*
X14900238Y-36231667D01*
X14919286Y-36241190D01*
X14928809Y-36250714D01*
X14938333Y-36269762D01*
X14938333Y-36317381D01*
X14928809Y-36336429D01*
X14919286Y-36345952D01*
X14900238Y-36355476D01*
X14843095Y-36355476D01*
X14824048Y-36345952D01*
X14814524Y-36336429D01*
X15176428Y-36355476D02*
X15176428Y-36155476D01*
X15262143Y-36355476D02*
X15262143Y-36250714D01*
X15252619Y-36231667D01*
X15233571Y-36222143D01*
X15205000Y-36222143D01*
X15185952Y-36231667D01*
X15176428Y-36241190D01*
X15385952Y-36355476D02*
X15366905Y-36345952D01*
X15357381Y-36336429D01*
X15347857Y-36317381D01*
X15347857Y-36260238D01*
X15357381Y-36241190D01*
X15366905Y-36231667D01*
X15385952Y-36222143D01*
X15414524Y-36222143D01*
X15433571Y-36231667D01*
X15443095Y-36241190D01*
X15452619Y-36260238D01*
X15452619Y-36317381D01*
X15443095Y-36336429D01*
X15433571Y-36345952D01*
X15414524Y-36355476D01*
X15385952Y-36355476D01*
X15566905Y-36355476D02*
X15547857Y-36345952D01*
X15538333Y-36326905D01*
X15538333Y-36155476D01*
X15719286Y-36345952D02*
X15700238Y-36355476D01*
X15662143Y-36355476D01*
X15643095Y-36345952D01*
X15633571Y-36326905D01*
X15633571Y-36250714D01*
X15643095Y-36231667D01*
X15662143Y-36222143D01*
X15700238Y-36222143D01*
X15719286Y-36231667D01*
X15728809Y-36250714D01*
X15728809Y-36269762D01*
X15633571Y-36288810D01*
X15805000Y-36345952D02*
X15824048Y-36355476D01*
X15862143Y-36355476D01*
X15881190Y-36345952D01*
X15890714Y-36326905D01*
X15890714Y-36317381D01*
X15881190Y-36298333D01*
X15862143Y-36288810D01*
X15833571Y-36288810D01*
X15814524Y-36279286D01*
X15805000Y-36260238D01*
X15805000Y-36250714D01*
X15814524Y-36231667D01*
X15833571Y-36222143D01*
X15862143Y-36222143D01*
X15881190Y-36231667D01*
X15957381Y-36431667D02*
X15966905Y-36422143D01*
X15985952Y-36393571D01*
X15995476Y-36374524D01*
X16005000Y-36345952D01*
X16014524Y-36298333D01*
X16014524Y-36260238D01*
X16005000Y-36212619D01*
X15995476Y-36184048D01*
X15985952Y-36165000D01*
X15966905Y-36136429D01*
X15957381Y-36126905D01*
D17*
X10875000Y-36469000D02*
X10995000Y-36589000D01*
X10995000Y-36469000D02*
X10875000Y-36589000D01*
X10935000Y-36469000D02*
X10935000Y-36589000D01*
X10875000Y-36529000D02*
X10995000Y-36529000D01*
D11*
X11357381Y-36619476D02*
X11243095Y-36619476D01*
X11300238Y-36619476D02*
X11300238Y-36419476D01*
X11281190Y-36448048D01*
X11262143Y-36467095D01*
X11243095Y-36476619D01*
X11443095Y-36600429D02*
X11452619Y-36609952D01*
X11443095Y-36619476D01*
X11433571Y-36609952D01*
X11443095Y-36600429D01*
X11443095Y-36619476D01*
X11528809Y-36438524D02*
X11538333Y-36429000D01*
X11557381Y-36419476D01*
X11605000Y-36419476D01*
X11624048Y-36429000D01*
X11633571Y-36438524D01*
X11643095Y-36457571D01*
X11643095Y-36476619D01*
X11633571Y-36505190D01*
X11519286Y-36619476D01*
X11643095Y-36619476D01*
X11766905Y-36419476D02*
X11785952Y-36419476D01*
X11805000Y-36429000D01*
X11814524Y-36438524D01*
X11824048Y-36457571D01*
X11833571Y-36495667D01*
X11833571Y-36543286D01*
X11824048Y-36581381D01*
X11814524Y-36600429D01*
X11805000Y-36609952D01*
X11785952Y-36619476D01*
X11766905Y-36619476D01*
X11747857Y-36609952D01*
X11738333Y-36600429D01*
X11728809Y-36581381D01*
X11719286Y-36543286D01*
X11719286Y-36495667D01*
X11728809Y-36457571D01*
X11738333Y-36438524D01*
X11747857Y-36429000D01*
X11766905Y-36419476D01*
X11957381Y-36419476D02*
X11976428Y-36419476D01*
X11995476Y-36429000D01*
X12005000Y-36438524D01*
X12014524Y-36457571D01*
X12024048Y-36495667D01*
X12024048Y-36543286D01*
X12014524Y-36581381D01*
X12005000Y-36600429D01*
X11995476Y-36609952D01*
X11976428Y-36619476D01*
X11957381Y-36619476D01*
X11938333Y-36609952D01*
X11928809Y-36600429D01*
X11919286Y-36581381D01*
X11909762Y-36543286D01*
X11909762Y-36495667D01*
X11919286Y-36457571D01*
X11928809Y-36438524D01*
X11938333Y-36429000D01*
X11957381Y-36419476D01*
X12109762Y-36619476D02*
X12109762Y-36486143D01*
X12109762Y-36505190D02*
X12119286Y-36495667D01*
X12138333Y-36486143D01*
X12166905Y-36486143D01*
X12185952Y-36495667D01*
X12195476Y-36514714D01*
X12195476Y-36619476D01*
X12195476Y-36514714D02*
X12205000Y-36495667D01*
X12224048Y-36486143D01*
X12252619Y-36486143D01*
X12271667Y-36495667D01*
X12281190Y-36514714D01*
X12281190Y-36619476D01*
X12376428Y-36619476D02*
X12376428Y-36486143D01*
X12376428Y-36505190D02*
X12385952Y-36495667D01*
X12405000Y-36486143D01*
X12433571Y-36486143D01*
X12452619Y-36495667D01*
X12462143Y-36514714D01*
X12462143Y-36619476D01*
X12462143Y-36514714D02*
X12471667Y-36495667D01*
X12490714Y-36486143D01*
X12519286Y-36486143D01*
X12538333Y-36495667D01*
X12547857Y-36514714D01*
X12547857Y-36619476D01*
X12938333Y-36409952D02*
X12766905Y-36667095D01*
X13195476Y-36419476D02*
X13214524Y-36419476D01*
X13233571Y-36429000D01*
X13243095Y-36438524D01*
X13252619Y-36457571D01*
X13262143Y-36495667D01*
X13262143Y-36543286D01*
X13252619Y-36581381D01*
X13243095Y-36600429D01*
X13233571Y-36609952D01*
X13214524Y-36619476D01*
X13195476Y-36619476D01*
X13176428Y-36609952D01*
X13166905Y-36600429D01*
X13157381Y-36581381D01*
X13147857Y-36543286D01*
X13147857Y-36495667D01*
X13157381Y-36457571D01*
X13166905Y-36438524D01*
X13176428Y-36429000D01*
X13195476Y-36419476D01*
X13347857Y-36600429D02*
X13357381Y-36609952D01*
X13347857Y-36619476D01*
X13338333Y-36609952D01*
X13347857Y-36600429D01*
X13347857Y-36619476D01*
X13481190Y-36419476D02*
X13500238Y-36419476D01*
X13519286Y-36429000D01*
X13528809Y-36438524D01*
X13538333Y-36457571D01*
X13547857Y-36495667D01*
X13547857Y-36543286D01*
X13538333Y-36581381D01*
X13528809Y-36600429D01*
X13519286Y-36609952D01*
X13500238Y-36619476D01*
X13481190Y-36619476D01*
X13462143Y-36609952D01*
X13452619Y-36600429D01*
X13443095Y-36581381D01*
X13433571Y-36543286D01*
X13433571Y-36495667D01*
X13443095Y-36457571D01*
X13452619Y-36438524D01*
X13462143Y-36429000D01*
X13481190Y-36419476D01*
X13719286Y-36486143D02*
X13719286Y-36619476D01*
X13671667Y-36409952D02*
X13624048Y-36552810D01*
X13747857Y-36552810D01*
X13805000Y-36419476D02*
X13938333Y-36419476D01*
X13852619Y-36619476D01*
X14005000Y-36438524D02*
X14014524Y-36429000D01*
X14033571Y-36419476D01*
X14081190Y-36419476D01*
X14100238Y-36429000D01*
X14109762Y-36438524D01*
X14119286Y-36457571D01*
X14119286Y-36476619D01*
X14109762Y-36505190D01*
X13995476Y-36619476D01*
X14119286Y-36619476D01*
X14195476Y-36419476D02*
X14195476Y-36457571D01*
X14271667Y-36419476D02*
X14271667Y-36457571D01*
X14566905Y-36695667D02*
X14557381Y-36686143D01*
X14538333Y-36657571D01*
X14528809Y-36638524D01*
X14519286Y-36609952D01*
X14509762Y-36562333D01*
X14509762Y-36524238D01*
X14519286Y-36476619D01*
X14528809Y-36448048D01*
X14538333Y-36429000D01*
X14557381Y-36400429D01*
X14566905Y-36390905D01*
X14681190Y-36419476D02*
X14700238Y-36419476D01*
X14719286Y-36429000D01*
X14728809Y-36438524D01*
X14738333Y-36457571D01*
X14747857Y-36495667D01*
X14747857Y-36543286D01*
X14738333Y-36581381D01*
X14728809Y-36600429D01*
X14719286Y-36609952D01*
X14700238Y-36619476D01*
X14681190Y-36619476D01*
X14662143Y-36609952D01*
X14652619Y-36600429D01*
X14643095Y-36581381D01*
X14633571Y-36543286D01*
X14633571Y-36495667D01*
X14643095Y-36457571D01*
X14652619Y-36438524D01*
X14662143Y-36429000D01*
X14681190Y-36419476D01*
X14985952Y-36619476D02*
X14985952Y-36419476D01*
X15071667Y-36619476D02*
X15071667Y-36514714D01*
X15062143Y-36495667D01*
X15043095Y-36486143D01*
X15014524Y-36486143D01*
X14995476Y-36495667D01*
X14985952Y-36505190D01*
X15195476Y-36619476D02*
X15176428Y-36609952D01*
X15166905Y-36600429D01*
X15157381Y-36581381D01*
X15157381Y-36524238D01*
X15166905Y-36505190D01*
X15176428Y-36495667D01*
X15195476Y-36486143D01*
X15224048Y-36486143D01*
X15243095Y-36495667D01*
X15252619Y-36505190D01*
X15262143Y-36524238D01*
X15262143Y-36581381D01*
X15252619Y-36600429D01*
X15243095Y-36609952D01*
X15224048Y-36619476D01*
X15195476Y-36619476D01*
X15376428Y-36619476D02*
X15357381Y-36609952D01*
X15347857Y-36590905D01*
X15347857Y-36419476D01*
X15528809Y-36609952D02*
X15509762Y-36619476D01*
X15471667Y-36619476D01*
X15452619Y-36609952D01*
X15443095Y-36590905D01*
X15443095Y-36514714D01*
X15452619Y-36495667D01*
X15471667Y-36486143D01*
X15509762Y-36486143D01*
X15528809Y-36495667D01*
X15538333Y-36514714D01*
X15538333Y-36533762D01*
X15443095Y-36552810D01*
X15614524Y-36609952D02*
X15633571Y-36619476D01*
X15671667Y-36619476D01*
X15690714Y-36609952D01*
X15700238Y-36590905D01*
X15700238Y-36581381D01*
X15690714Y-36562333D01*
X15671667Y-36552810D01*
X15643095Y-36552810D01*
X15624048Y-36543286D01*
X15614524Y-36524238D01*
X15614524Y-36514714D01*
X15624048Y-36495667D01*
X15643095Y-36486143D01*
X15671667Y-36486143D01*
X15690714Y-36495667D01*
X15938333Y-36543286D02*
X16090714Y-36543286D01*
X16014524Y-36619476D02*
X16014524Y-36467095D01*
X16319286Y-36419476D02*
X16443095Y-36419476D01*
X16376428Y-36495667D01*
X16405000Y-36495667D01*
X16424048Y-36505190D01*
X16433571Y-36514714D01*
X16443095Y-36533762D01*
X16443095Y-36581381D01*
X16433571Y-36600429D01*
X16424048Y-36609952D01*
X16405000Y-36619476D01*
X16347857Y-36619476D01*
X16328809Y-36609952D01*
X16319286Y-36600429D01*
X16671667Y-36609952D02*
X16690714Y-36619476D01*
X16728809Y-36619476D01*
X16747857Y-36609952D01*
X16757381Y-36590905D01*
X16757381Y-36581381D01*
X16747857Y-36562333D01*
X16728809Y-36552810D01*
X16700238Y-36552810D01*
X16681190Y-36543286D01*
X16671667Y-36524238D01*
X16671667Y-36514714D01*
X16681190Y-36495667D01*
X16700238Y-36486143D01*
X16728809Y-36486143D01*
X16747857Y-36495667D01*
X16871667Y-36619476D02*
X16852619Y-36609952D01*
X16843095Y-36590905D01*
X16843095Y-36419476D01*
X16976429Y-36619476D02*
X16957381Y-36609952D01*
X16947857Y-36600429D01*
X16938333Y-36581381D01*
X16938333Y-36524238D01*
X16947857Y-36505190D01*
X16957381Y-36495667D01*
X16976429Y-36486143D01*
X17005000Y-36486143D01*
X17024048Y-36495667D01*
X17033571Y-36505190D01*
X17043095Y-36524238D01*
X17043095Y-36581381D01*
X17033571Y-36600429D01*
X17024048Y-36609952D01*
X17005000Y-36619476D01*
X16976429Y-36619476D01*
X17100238Y-36486143D02*
X17176429Y-36486143D01*
X17128810Y-36419476D02*
X17128810Y-36590905D01*
X17138333Y-36609952D01*
X17157381Y-36619476D01*
X17176429Y-36619476D01*
X17233571Y-36609952D02*
X17252619Y-36619476D01*
X17290714Y-36619476D01*
X17309762Y-36609952D01*
X17319286Y-36590905D01*
X17319286Y-36581381D01*
X17309762Y-36562333D01*
X17290714Y-36552810D01*
X17262143Y-36552810D01*
X17243095Y-36543286D01*
X17233571Y-36524238D01*
X17233571Y-36514714D01*
X17243095Y-36495667D01*
X17262143Y-36486143D01*
X17290714Y-36486143D01*
X17309762Y-36495667D01*
X17385952Y-36695667D02*
X17395476Y-36686143D01*
X17414524Y-36657571D01*
X17424048Y-36638524D01*
X17433571Y-36609952D01*
X17443095Y-36562333D01*
X17443095Y-36524238D01*
X17433571Y-36476619D01*
X17424048Y-36448048D01*
X17414524Y-36429000D01*
X17395476Y-36400429D01*
X17385952Y-36390905D01*
D18*
X10845000Y-36718000D02*
X10995000Y-36868000D01*
X10995000Y-36718000D02*
X10845000Y-36868000D01*
X10973034Y-36846034D02*
X10973034Y-36739967D01*
X10866967Y-36739967D01*
X10866967Y-36846034D01*
X10973034Y-36846034D01*
D11*
X11357381Y-36883476D02*
X11243095Y-36883476D01*
X11300238Y-36883476D02*
X11300238Y-36683476D01*
X11281190Y-36712048D01*
X11262143Y-36731095D01*
X11243095Y-36740619D01*
X11443095Y-36864429D02*
X11452619Y-36873952D01*
X11443095Y-36883476D01*
X11433571Y-36873952D01*
X11443095Y-36864429D01*
X11443095Y-36883476D01*
X11633571Y-36683476D02*
X11538333Y-36683476D01*
X11528809Y-36778714D01*
X11538333Y-36769190D01*
X11557381Y-36759667D01*
X11605000Y-36759667D01*
X11624048Y-36769190D01*
X11633571Y-36778714D01*
X11643095Y-36797762D01*
X11643095Y-36845381D01*
X11633571Y-36864429D01*
X11624048Y-36873952D01*
X11605000Y-36883476D01*
X11557381Y-36883476D01*
X11538333Y-36873952D01*
X11528809Y-36864429D01*
X11766905Y-36683476D02*
X11785952Y-36683476D01*
X11805000Y-36693000D01*
X11814524Y-36702524D01*
X11824048Y-36721571D01*
X11833571Y-36759667D01*
X11833571Y-36807286D01*
X11824048Y-36845381D01*
X11814524Y-36864429D01*
X11805000Y-36873952D01*
X11785952Y-36883476D01*
X11766905Y-36883476D01*
X11747857Y-36873952D01*
X11738333Y-36864429D01*
X11728809Y-36845381D01*
X11719286Y-36807286D01*
X11719286Y-36759667D01*
X11728809Y-36721571D01*
X11738333Y-36702524D01*
X11747857Y-36693000D01*
X11766905Y-36683476D01*
X11957381Y-36683476D02*
X11976428Y-36683476D01*
X11995476Y-36693000D01*
X12005000Y-36702524D01*
X12014524Y-36721571D01*
X12024048Y-36759667D01*
X12024048Y-36807286D01*
X12014524Y-36845381D01*
X12005000Y-36864429D01*
X11995476Y-36873952D01*
X11976428Y-36883476D01*
X11957381Y-36883476D01*
X11938333Y-36873952D01*
X11928809Y-36864429D01*
X11919286Y-36845381D01*
X11909762Y-36807286D01*
X11909762Y-36759667D01*
X11919286Y-36721571D01*
X11928809Y-36702524D01*
X11938333Y-36693000D01*
X11957381Y-36683476D01*
X12109762Y-36883476D02*
X12109762Y-36750143D01*
X12109762Y-36769190D02*
X12119286Y-36759667D01*
X12138333Y-36750143D01*
X12166905Y-36750143D01*
X12185952Y-36759667D01*
X12195476Y-36778714D01*
X12195476Y-36883476D01*
X12195476Y-36778714D02*
X12205000Y-36759667D01*
X12224048Y-36750143D01*
X12252619Y-36750143D01*
X12271667Y-36759667D01*
X12281190Y-36778714D01*
X12281190Y-36883476D01*
X12376428Y-36883476D02*
X12376428Y-36750143D01*
X12376428Y-36769190D02*
X12385952Y-36759667D01*
X12405000Y-36750143D01*
X12433571Y-36750143D01*
X12452619Y-36759667D01*
X12462143Y-36778714D01*
X12462143Y-36883476D01*
X12462143Y-36778714D02*
X12471667Y-36759667D01*
X12490714Y-36750143D01*
X12519286Y-36750143D01*
X12538333Y-36759667D01*
X12547857Y-36778714D01*
X12547857Y-36883476D01*
X12938333Y-36673952D02*
X12766905Y-36931095D01*
X13195476Y-36683476D02*
X13214524Y-36683476D01*
X13233571Y-36693000D01*
X13243095Y-36702524D01*
X13252619Y-36721571D01*
X13262143Y-36759667D01*
X13262143Y-36807286D01*
X13252619Y-36845381D01*
X13243095Y-36864429D01*
X13233571Y-36873952D01*
X13214524Y-36883476D01*
X13195476Y-36883476D01*
X13176428Y-36873952D01*
X13166905Y-36864429D01*
X13157381Y-36845381D01*
X13147857Y-36807286D01*
X13147857Y-36759667D01*
X13157381Y-36721571D01*
X13166905Y-36702524D01*
X13176428Y-36693000D01*
X13195476Y-36683476D01*
X13347857Y-36864429D02*
X13357381Y-36873952D01*
X13347857Y-36883476D01*
X13338333Y-36873952D01*
X13347857Y-36864429D01*
X13347857Y-36883476D01*
X13481190Y-36683476D02*
X13500238Y-36683476D01*
X13519286Y-36693000D01*
X13528809Y-36702524D01*
X13538333Y-36721571D01*
X13547857Y-36759667D01*
X13547857Y-36807286D01*
X13538333Y-36845381D01*
X13528809Y-36864429D01*
X13519286Y-36873952D01*
X13500238Y-36883476D01*
X13481190Y-36883476D01*
X13462143Y-36873952D01*
X13452619Y-36864429D01*
X13443095Y-36845381D01*
X13433571Y-36807286D01*
X13433571Y-36759667D01*
X13443095Y-36721571D01*
X13452619Y-36702524D01*
X13462143Y-36693000D01*
X13481190Y-36683476D01*
X13728809Y-36683476D02*
X13633571Y-36683476D01*
X13624048Y-36778714D01*
X13633571Y-36769190D01*
X13652619Y-36759667D01*
X13700238Y-36759667D01*
X13719286Y-36769190D01*
X13728809Y-36778714D01*
X13738333Y-36797762D01*
X13738333Y-36845381D01*
X13728809Y-36864429D01*
X13719286Y-36873952D01*
X13700238Y-36883476D01*
X13652619Y-36883476D01*
X13633571Y-36873952D01*
X13624048Y-36864429D01*
X13833571Y-36883476D02*
X13871667Y-36883476D01*
X13890714Y-36873952D01*
X13900238Y-36864429D01*
X13919286Y-36835857D01*
X13928809Y-36797762D01*
X13928809Y-36721571D01*
X13919286Y-36702524D01*
X13909762Y-36693000D01*
X13890714Y-36683476D01*
X13852619Y-36683476D01*
X13833571Y-36693000D01*
X13824048Y-36702524D01*
X13814524Y-36721571D01*
X13814524Y-36769190D01*
X13824048Y-36788238D01*
X13833571Y-36797762D01*
X13852619Y-36807286D01*
X13890714Y-36807286D01*
X13909762Y-36797762D01*
X13919286Y-36788238D01*
X13928809Y-36769190D01*
X14119286Y-36883476D02*
X14005000Y-36883476D01*
X14062143Y-36883476D02*
X14062143Y-36683476D01*
X14043095Y-36712048D01*
X14024048Y-36731095D01*
X14005000Y-36740619D01*
X14195476Y-36683476D02*
X14195476Y-36721571D01*
X14271667Y-36683476D02*
X14271667Y-36721571D01*
X14566905Y-36959667D02*
X14557381Y-36950143D01*
X14538333Y-36921571D01*
X14528809Y-36902524D01*
X14519286Y-36873952D01*
X14509762Y-36826333D01*
X14509762Y-36788238D01*
X14519286Y-36740619D01*
X14528809Y-36712048D01*
X14538333Y-36693000D01*
X14557381Y-36664429D01*
X14566905Y-36654905D01*
X14747857Y-36883476D02*
X14633571Y-36883476D01*
X14690714Y-36883476D02*
X14690714Y-36683476D01*
X14671667Y-36712048D01*
X14652619Y-36731095D01*
X14633571Y-36740619D01*
X14843095Y-36883476D02*
X14881190Y-36883476D01*
X14900238Y-36873952D01*
X14909762Y-36864429D01*
X14928809Y-36835857D01*
X14938333Y-36797762D01*
X14938333Y-36721571D01*
X14928809Y-36702524D01*
X14919286Y-36693000D01*
X14900238Y-36683476D01*
X14862143Y-36683476D01*
X14843095Y-36693000D01*
X14833571Y-36702524D01*
X14824048Y-36721571D01*
X14824048Y-36769190D01*
X14833571Y-36788238D01*
X14843095Y-36797762D01*
X14862143Y-36807286D01*
X14900238Y-36807286D01*
X14919286Y-36797762D01*
X14928809Y-36788238D01*
X14938333Y-36769190D01*
X15062143Y-36683476D02*
X15081190Y-36683476D01*
X15100238Y-36693000D01*
X15109762Y-36702524D01*
X15119286Y-36721571D01*
X15128809Y-36759667D01*
X15128809Y-36807286D01*
X15119286Y-36845381D01*
X15109762Y-36864429D01*
X15100238Y-36873952D01*
X15081190Y-36883476D01*
X15062143Y-36883476D01*
X15043095Y-36873952D01*
X15033571Y-36864429D01*
X15024048Y-36845381D01*
X15014524Y-36807286D01*
X15014524Y-36759667D01*
X15024048Y-36721571D01*
X15033571Y-36702524D01*
X15043095Y-36693000D01*
X15062143Y-36683476D01*
X15366905Y-36883476D02*
X15366905Y-36683476D01*
X15452619Y-36883476D02*
X15452619Y-36778714D01*
X15443095Y-36759667D01*
X15424048Y-36750143D01*
X15395476Y-36750143D01*
X15376428Y-36759667D01*
X15366905Y-36769190D01*
X15576428Y-36883476D02*
X15557381Y-36873952D01*
X15547857Y-36864429D01*
X15538333Y-36845381D01*
X15538333Y-36788238D01*
X15547857Y-36769190D01*
X15557381Y-36759667D01*
X15576428Y-36750143D01*
X15605000Y-36750143D01*
X15624048Y-36759667D01*
X15633571Y-36769190D01*
X15643095Y-36788238D01*
X15643095Y-36845381D01*
X15633571Y-36864429D01*
X15624048Y-36873952D01*
X15605000Y-36883476D01*
X15576428Y-36883476D01*
X15757381Y-36883476D02*
X15738333Y-36873952D01*
X15728809Y-36854905D01*
X15728809Y-36683476D01*
X15909762Y-36873952D02*
X15890714Y-36883476D01*
X15852619Y-36883476D01*
X15833571Y-36873952D01*
X15824048Y-36854905D01*
X15824048Y-36778714D01*
X15833571Y-36759667D01*
X15852619Y-36750143D01*
X15890714Y-36750143D01*
X15909762Y-36759667D01*
X15919286Y-36778714D01*
X15919286Y-36797762D01*
X15824048Y-36816810D01*
X15995476Y-36873952D02*
X16014524Y-36883476D01*
X16052619Y-36883476D01*
X16071667Y-36873952D01*
X16081190Y-36854905D01*
X16081190Y-36845381D01*
X16071667Y-36826333D01*
X16052619Y-36816810D01*
X16024048Y-36816810D01*
X16005000Y-36807286D01*
X15995476Y-36788238D01*
X15995476Y-36778714D01*
X16005000Y-36759667D01*
X16024048Y-36750143D01*
X16052619Y-36750143D01*
X16071667Y-36759667D01*
X16147857Y-36959667D02*
X16157381Y-36950143D01*
X16176428Y-36921571D01*
X16185952Y-36902524D01*
X16195476Y-36873952D01*
X16205000Y-36826333D01*
X16205000Y-36788238D01*
X16195476Y-36740619D01*
X16185952Y-36712048D01*
X16176428Y-36693000D01*
X16157381Y-36664429D01*
X16147857Y-36654905D01*
D19*
X10815000Y-36973000D02*
X10995000Y-37153000D01*
X10995000Y-36973000D02*
X10815000Y-37153000D01*
X10905000Y-37153000D02*
X10995000Y-37063000D01*
X10905000Y-36973000D01*
X10815000Y-37063000D01*
X10905000Y-37153000D01*
D11*
X11357381Y-37153476D02*
X11243095Y-37153476D01*
X11300238Y-37153476D02*
X11300238Y-36953476D01*
X11281190Y-36982048D01*
X11262143Y-37001095D01*
X11243095Y-37010619D01*
X11443095Y-37134429D02*
X11452619Y-37143952D01*
X11443095Y-37153476D01*
X11433571Y-37143952D01*
X11443095Y-37134429D01*
X11443095Y-37153476D01*
X11566905Y-37039190D02*
X11547857Y-37029667D01*
X11538333Y-37020143D01*
X11528809Y-37001095D01*
X11528809Y-36991571D01*
X11538333Y-36972524D01*
X11547857Y-36963000D01*
X11566905Y-36953476D01*
X11605000Y-36953476D01*
X11624048Y-36963000D01*
X11633571Y-36972524D01*
X11643095Y-36991571D01*
X11643095Y-37001095D01*
X11633571Y-37020143D01*
X11624048Y-37029667D01*
X11605000Y-37039190D01*
X11566905Y-37039190D01*
X11547857Y-37048714D01*
X11538333Y-37058238D01*
X11528809Y-37077286D01*
X11528809Y-37115381D01*
X11538333Y-37134429D01*
X11547857Y-37143952D01*
X11566905Y-37153476D01*
X11605000Y-37153476D01*
X11624048Y-37143952D01*
X11633571Y-37134429D01*
X11643095Y-37115381D01*
X11643095Y-37077286D01*
X11633571Y-37058238D01*
X11624048Y-37048714D01*
X11605000Y-37039190D01*
X11766905Y-36953476D02*
X11785952Y-36953476D01*
X11805000Y-36963000D01*
X11814524Y-36972524D01*
X11824048Y-36991571D01*
X11833571Y-37029667D01*
X11833571Y-37077286D01*
X11824048Y-37115381D01*
X11814524Y-37134429D01*
X11805000Y-37143952D01*
X11785952Y-37153476D01*
X11766905Y-37153476D01*
X11747857Y-37143952D01*
X11738333Y-37134429D01*
X11728809Y-37115381D01*
X11719286Y-37077286D01*
X11719286Y-37029667D01*
X11728809Y-36991571D01*
X11738333Y-36972524D01*
X11747857Y-36963000D01*
X11766905Y-36953476D01*
X11957381Y-36953476D02*
X11976428Y-36953476D01*
X11995476Y-36963000D01*
X12005000Y-36972524D01*
X12014524Y-36991571D01*
X12024048Y-37029667D01*
X12024048Y-37077286D01*
X12014524Y-37115381D01*
X12005000Y-37134429D01*
X11995476Y-37143952D01*
X11976428Y-37153476D01*
X11957381Y-37153476D01*
X11938333Y-37143952D01*
X11928809Y-37134429D01*
X11919286Y-37115381D01*
X11909762Y-37077286D01*
X11909762Y-37029667D01*
X11919286Y-36991571D01*
X11928809Y-36972524D01*
X11938333Y-36963000D01*
X11957381Y-36953476D01*
X12109762Y-37153476D02*
X12109762Y-37020143D01*
X12109762Y-37039190D02*
X12119286Y-37029667D01*
X12138333Y-37020143D01*
X12166905Y-37020143D01*
X12185952Y-37029667D01*
X12195476Y-37048714D01*
X12195476Y-37153476D01*
X12195476Y-37048714D02*
X12205000Y-37029667D01*
X12224048Y-37020143D01*
X12252619Y-37020143D01*
X12271667Y-37029667D01*
X12281190Y-37048714D01*
X12281190Y-37153476D01*
X12376428Y-37153476D02*
X12376428Y-37020143D01*
X12376428Y-37039190D02*
X12385952Y-37029667D01*
X12405000Y-37020143D01*
X12433571Y-37020143D01*
X12452619Y-37029667D01*
X12462143Y-37048714D01*
X12462143Y-37153476D01*
X12462143Y-37048714D02*
X12471667Y-37029667D01*
X12490714Y-37020143D01*
X12519286Y-37020143D01*
X12538333Y-37029667D01*
X12547857Y-37048714D01*
X12547857Y-37153476D01*
X12938333Y-36943952D02*
X12766905Y-37201095D01*
X13195476Y-36953476D02*
X13214524Y-36953476D01*
X13233571Y-36963000D01*
X13243095Y-36972524D01*
X13252619Y-36991571D01*
X13262143Y-37029667D01*
X13262143Y-37077286D01*
X13252619Y-37115381D01*
X13243095Y-37134429D01*
X13233571Y-37143952D01*
X13214524Y-37153476D01*
X13195476Y-37153476D01*
X13176428Y-37143952D01*
X13166905Y-37134429D01*
X13157381Y-37115381D01*
X13147857Y-37077286D01*
X13147857Y-37029667D01*
X13157381Y-36991571D01*
X13166905Y-36972524D01*
X13176428Y-36963000D01*
X13195476Y-36953476D01*
X13347857Y-37134429D02*
X13357381Y-37143952D01*
X13347857Y-37153476D01*
X13338333Y-37143952D01*
X13347857Y-37134429D01*
X13347857Y-37153476D01*
X13481190Y-36953476D02*
X13500238Y-36953476D01*
X13519286Y-36963000D01*
X13528809Y-36972524D01*
X13538333Y-36991571D01*
X13547857Y-37029667D01*
X13547857Y-37077286D01*
X13538333Y-37115381D01*
X13528809Y-37134429D01*
X13519286Y-37143952D01*
X13500238Y-37153476D01*
X13481190Y-37153476D01*
X13462143Y-37143952D01*
X13452619Y-37134429D01*
X13443095Y-37115381D01*
X13433571Y-37077286D01*
X13433571Y-37029667D01*
X13443095Y-36991571D01*
X13452619Y-36972524D01*
X13462143Y-36963000D01*
X13481190Y-36953476D01*
X13614524Y-36953476D02*
X13747857Y-36953476D01*
X13662143Y-37153476D01*
X13862143Y-36953476D02*
X13881190Y-36953476D01*
X13900238Y-36963000D01*
X13909762Y-36972524D01*
X13919286Y-36991571D01*
X13928809Y-37029667D01*
X13928809Y-37077286D01*
X13919286Y-37115381D01*
X13909762Y-37134429D01*
X13900238Y-37143952D01*
X13881190Y-37153476D01*
X13862143Y-37153476D01*
X13843095Y-37143952D01*
X13833571Y-37134429D01*
X13824048Y-37115381D01*
X13814524Y-37077286D01*
X13814524Y-37029667D01*
X13824048Y-36991571D01*
X13833571Y-36972524D01*
X13843095Y-36963000D01*
X13862143Y-36953476D01*
X14024048Y-37153476D02*
X14062143Y-37153476D01*
X14081190Y-37143952D01*
X14090714Y-37134429D01*
X14109762Y-37105857D01*
X14119286Y-37067762D01*
X14119286Y-36991571D01*
X14109762Y-36972524D01*
X14100238Y-36963000D01*
X14081190Y-36953476D01*
X14043095Y-36953476D01*
X14024048Y-36963000D01*
X14014524Y-36972524D01*
X14005000Y-36991571D01*
X14005000Y-37039190D01*
X14014524Y-37058238D01*
X14024048Y-37067762D01*
X14043095Y-37077286D01*
X14081190Y-37077286D01*
X14100238Y-37067762D01*
X14109762Y-37058238D01*
X14119286Y-37039190D01*
X14195476Y-36953476D02*
X14195476Y-36991571D01*
X14271667Y-36953476D02*
X14271667Y-36991571D01*
X14566905Y-37229667D02*
X14557381Y-37220143D01*
X14538333Y-37191571D01*
X14528809Y-37172524D01*
X14519286Y-37143952D01*
X14509762Y-37096333D01*
X14509762Y-37058238D01*
X14519286Y-37010619D01*
X14528809Y-36982048D01*
X14538333Y-36963000D01*
X14557381Y-36934429D01*
X14566905Y-36924905D01*
X14681190Y-36953476D02*
X14700238Y-36953476D01*
X14719286Y-36963000D01*
X14728809Y-36972524D01*
X14738333Y-36991571D01*
X14747857Y-37029667D01*
X14747857Y-37077286D01*
X14738333Y-37115381D01*
X14728809Y-37134429D01*
X14719286Y-37143952D01*
X14700238Y-37153476D01*
X14681190Y-37153476D01*
X14662143Y-37143952D01*
X14652619Y-37134429D01*
X14643095Y-37115381D01*
X14633571Y-37077286D01*
X14633571Y-37029667D01*
X14643095Y-36991571D01*
X14652619Y-36972524D01*
X14662143Y-36963000D01*
X14681190Y-36953476D01*
X14985952Y-37153476D02*
X14985952Y-36953476D01*
X15071667Y-37153476D02*
X15071667Y-37048714D01*
X15062143Y-37029667D01*
X15043095Y-37020143D01*
X15014524Y-37020143D01*
X14995476Y-37029667D01*
X14985952Y-37039190D01*
X15195476Y-37153476D02*
X15176428Y-37143952D01*
X15166905Y-37134429D01*
X15157381Y-37115381D01*
X15157381Y-37058238D01*
X15166905Y-37039190D01*
X15176428Y-37029667D01*
X15195476Y-37020143D01*
X15224048Y-37020143D01*
X15243095Y-37029667D01*
X15252619Y-37039190D01*
X15262143Y-37058238D01*
X15262143Y-37115381D01*
X15252619Y-37134429D01*
X15243095Y-37143952D01*
X15224048Y-37153476D01*
X15195476Y-37153476D01*
X15376428Y-37153476D02*
X15357381Y-37143952D01*
X15347857Y-37124905D01*
X15347857Y-36953476D01*
X15528809Y-37143952D02*
X15509762Y-37153476D01*
X15471667Y-37153476D01*
X15452619Y-37143952D01*
X15443095Y-37124905D01*
X15443095Y-37048714D01*
X15452619Y-37029667D01*
X15471667Y-37020143D01*
X15509762Y-37020143D01*
X15528809Y-37029667D01*
X15538333Y-37048714D01*
X15538333Y-37067762D01*
X15443095Y-37086810D01*
X15614524Y-37143952D02*
X15633571Y-37153476D01*
X15671667Y-37153476D01*
X15690714Y-37143952D01*
X15700238Y-37124905D01*
X15700238Y-37115381D01*
X15690714Y-37096333D01*
X15671667Y-37086810D01*
X15643095Y-37086810D01*
X15624048Y-37077286D01*
X15614524Y-37058238D01*
X15614524Y-37048714D01*
X15624048Y-37029667D01*
X15643095Y-37020143D01*
X15671667Y-37020143D01*
X15690714Y-37029667D01*
X15938333Y-37077286D02*
X16090714Y-37077286D01*
X16014524Y-37153476D02*
X16014524Y-37001095D01*
X16328809Y-36972524D02*
X16338333Y-36963000D01*
X16357381Y-36953476D01*
X16405000Y-36953476D01*
X16424048Y-36963000D01*
X16433571Y-36972524D01*
X16443095Y-36991571D01*
X16443095Y-37010619D01*
X16433571Y-37039190D01*
X16319286Y-37153476D01*
X16443095Y-37153476D01*
X16671667Y-37143952D02*
X16690714Y-37153476D01*
X16728809Y-37153476D01*
X16747857Y-37143952D01*
X16757381Y-37124905D01*
X16757381Y-37115381D01*
X16747857Y-37096333D01*
X16728809Y-37086810D01*
X16700238Y-37086810D01*
X16681190Y-37077286D01*
X16671667Y-37058238D01*
X16671667Y-37048714D01*
X16681190Y-37029667D01*
X16700238Y-37020143D01*
X16728809Y-37020143D01*
X16747857Y-37029667D01*
X16871667Y-37153476D02*
X16852619Y-37143952D01*
X16843095Y-37124905D01*
X16843095Y-36953476D01*
X16976429Y-37153476D02*
X16957381Y-37143952D01*
X16947857Y-37134429D01*
X16938333Y-37115381D01*
X16938333Y-37058238D01*
X16947857Y-37039190D01*
X16957381Y-37029667D01*
X16976429Y-37020143D01*
X17005000Y-37020143D01*
X17024048Y-37029667D01*
X17033571Y-37039190D01*
X17043095Y-37058238D01*
X17043095Y-37115381D01*
X17033571Y-37134429D01*
X17024048Y-37143952D01*
X17005000Y-37153476D01*
X16976429Y-37153476D01*
X17100238Y-37020143D02*
X17176429Y-37020143D01*
X17128810Y-36953476D02*
X17128810Y-37124905D01*
X17138333Y-37143952D01*
X17157381Y-37153476D01*
X17176429Y-37153476D01*
X17233571Y-37143952D02*
X17252619Y-37153476D01*
X17290714Y-37153476D01*
X17309762Y-37143952D01*
X17319286Y-37124905D01*
X17319286Y-37115381D01*
X17309762Y-37096333D01*
X17290714Y-37086810D01*
X17262143Y-37086810D01*
X17243095Y-37077286D01*
X17233571Y-37058238D01*
X17233571Y-37048714D01*
X17243095Y-37029667D01*
X17262143Y-37020143D01*
X17290714Y-37020143D01*
X17309762Y-37029667D01*
X17385952Y-37229667D02*
X17395476Y-37220143D01*
X17414524Y-37191571D01*
X17424048Y-37172524D01*
X17433571Y-37143952D01*
X17443095Y-37096333D01*
X17443095Y-37058238D01*
X17433571Y-37010619D01*
X17424048Y-36982048D01*
X17414524Y-36963000D01*
X17395476Y-36934429D01*
X17385952Y-36924905D01*
M02*
