%FSLAX45Y45*%
G04 Gerber Fmt 4.5, Leading zero omitted, Abs format (unit mm)*
G04 Created by KiCad (PCBNEW (6.0.0)) date 2022-04-02 17:54:43*
%MOMM*%
%LPD*%
G01*
G04 APERTURE LIST*
%TA.AperFunction,Profile*%
%ADD10C,0.100000*%
%TD*%
%ADD11C,0.200000*%
%ADD12C,0.170000*%
%ADD13C,0.210000*%
%ADD14C,0.304800*%
%ADD15C,0.398780*%
%ADD16C,0.400000*%
%ADD17C,0.430000*%
G04 APERTURE END LIST*
D10*
X47200000Y-20900000D02*
X47200000Y-33900000D01*
X46800000Y-34300000D02*
X11400000Y-34300000D01*
X11000000Y-33900000D02*
X11000000Y-20900000D01*
X11000000Y-17000000D02*
X11000000Y-20500000D01*
X46800000Y-34300000D02*
G75*
G03*
X47200000Y-33900000I0J400000D01*
G01*
X11400000Y-16600000D02*
G75*
G03*
X11000000Y-17000000I0J-400000D01*
G01*
X28175000Y-16600000D02*
X11400000Y-16600000D01*
X11000000Y-33900000D02*
G75*
G03*
X11400000Y-34300000I400000J0D01*
G01*
X47200000Y-20500000D02*
X47200000Y-17000000D01*
X47200000Y-20900000D02*
X47200000Y-20500000D01*
X29825000Y-16600000D02*
X28175000Y-16600000D01*
X47200000Y-17000000D02*
G75*
G03*
X46800000Y-16600000I-400000J0D01*
G01*
X29825000Y-16600000D02*
X46800000Y-16600000D01*
X11000000Y-20900000D02*
X11000000Y-20500000D01*
D11*
D12*
X12076500Y-22015000D02*
X12246500Y-22185000D01*
X12246500Y-22015000D02*
X12076500Y-22185000D01*
X12076500Y-24872500D02*
X12246500Y-25042500D01*
X12246500Y-24872500D02*
X12076500Y-25042500D01*
X12314625Y-32492500D02*
X12484625Y-32662500D01*
X12484625Y-32492500D02*
X12314625Y-32662500D01*
X12552750Y-26777500D02*
X12722750Y-26947500D01*
X12722750Y-26777500D02*
X12552750Y-26947500D01*
X12790875Y-28682500D02*
X12960875Y-28852500D01*
X12960875Y-28682500D02*
X12790875Y-28852500D01*
X13092500Y-22015000D02*
X13262500Y-22185000D01*
X13262500Y-22015000D02*
X13092500Y-22185000D01*
X13092500Y-24872500D02*
X13262500Y-25042500D01*
X13262500Y-24872500D02*
X13092500Y-25042500D01*
X13267125Y-30587500D02*
X13437125Y-30757500D01*
X13437125Y-30587500D02*
X13267125Y-30757500D01*
X13330625Y-32492500D02*
X13500625Y-32662500D01*
X13500625Y-32492500D02*
X13330625Y-32662500D01*
X13568750Y-26777500D02*
X13738750Y-26947500D01*
X13738750Y-26777500D02*
X13568750Y-26947500D01*
X13806875Y-28682500D02*
X13976875Y-28852500D01*
X13976875Y-28682500D02*
X13806875Y-28852500D01*
X13981500Y-22015000D02*
X14151500Y-22185000D01*
X14151500Y-22015000D02*
X13981500Y-22185000D01*
X13981500Y-24872500D02*
X14151500Y-25042500D01*
X14151500Y-24872500D02*
X13981500Y-25042500D01*
X14283125Y-30587500D02*
X14453125Y-30757500D01*
X14453125Y-30587500D02*
X14283125Y-30757500D01*
X14695875Y-32492500D02*
X14865875Y-32662500D01*
X14865875Y-32492500D02*
X14695875Y-32662500D01*
X14934000Y-26777500D02*
X15104000Y-26947500D01*
X15104000Y-26777500D02*
X14934000Y-26947500D01*
X14997500Y-22015000D02*
X15167500Y-22185000D01*
X15167500Y-22015000D02*
X14997500Y-22185000D01*
X14997500Y-24872500D02*
X15167500Y-25042500D01*
X15167500Y-24872500D02*
X14997500Y-25042500D01*
X15410250Y-28682500D02*
X15580250Y-28852500D01*
X15580250Y-28682500D02*
X15410250Y-28852500D01*
X15711875Y-32492500D02*
X15881875Y-32662500D01*
X15881875Y-32492500D02*
X15711875Y-32662500D01*
X15886500Y-22015000D02*
X16056500Y-22185000D01*
X16056500Y-22015000D02*
X15886500Y-22185000D01*
X15886500Y-24872500D02*
X16056500Y-25042500D01*
X16056500Y-24872500D02*
X15886500Y-25042500D01*
X15950000Y-26777500D02*
X16120000Y-26947500D01*
X16120000Y-26777500D02*
X15950000Y-26947500D01*
X16362750Y-30587500D02*
X16532750Y-30757500D01*
X16532750Y-30587500D02*
X16362750Y-30757500D01*
X16426250Y-28682500D02*
X16596250Y-28852500D01*
X16596250Y-28682500D02*
X16426250Y-28852500D01*
X16839000Y-26777500D02*
X17009000Y-26947500D01*
X17009000Y-26777500D02*
X16839000Y-26947500D01*
X16902500Y-22015000D02*
X17072500Y-22185000D01*
X17072500Y-22015000D02*
X16902500Y-22185000D01*
X16902500Y-24872500D02*
X17072500Y-25042500D01*
X17072500Y-24872500D02*
X16902500Y-25042500D01*
X17077125Y-32492500D02*
X17247125Y-32662500D01*
X17247125Y-32492500D02*
X17077125Y-32662500D01*
X17315250Y-28682500D02*
X17485250Y-28852500D01*
X17485250Y-28682500D02*
X17315250Y-28852500D01*
X17378750Y-30587500D02*
X17548750Y-30757500D01*
X17548750Y-30587500D02*
X17378750Y-30757500D01*
X17791500Y-22015000D02*
X17961500Y-22185000D01*
X17961500Y-22015000D02*
X17791500Y-22185000D01*
X17791500Y-24872500D02*
X17961500Y-25042500D01*
X17961500Y-24872500D02*
X17791500Y-25042500D01*
X17855000Y-26777500D02*
X18025000Y-26947500D01*
X18025000Y-26777500D02*
X17855000Y-26947500D01*
X18093125Y-32492500D02*
X18263125Y-32662500D01*
X18263125Y-32492500D02*
X18093125Y-32662500D01*
X18267750Y-30587500D02*
X18437750Y-30757500D01*
X18437750Y-30587500D02*
X18267750Y-30757500D01*
X18331250Y-28682500D02*
X18501250Y-28852500D01*
X18501250Y-28682500D02*
X18331250Y-28852500D01*
X18744000Y-26777500D02*
X18914000Y-26947500D01*
X18914000Y-26777500D02*
X18744000Y-26947500D01*
X18807500Y-22015000D02*
X18977500Y-22185000D01*
X18977500Y-22015000D02*
X18807500Y-22185000D01*
X18807500Y-24872500D02*
X18977500Y-25042500D01*
X18977500Y-24872500D02*
X18807500Y-25042500D01*
X19220250Y-28682500D02*
X19390250Y-28852500D01*
X19390250Y-28682500D02*
X19220250Y-28852500D01*
X19283750Y-30587500D02*
X19453750Y-30757500D01*
X19453750Y-30587500D02*
X19283750Y-30757500D01*
X19696500Y-22015000D02*
X19866500Y-22185000D01*
X19866500Y-22015000D02*
X19696500Y-22185000D01*
X19696500Y-24872500D02*
X19866500Y-25042500D01*
X19866500Y-24872500D02*
X19696500Y-25042500D01*
X19760000Y-26777500D02*
X19930000Y-26947500D01*
X19930000Y-26777500D02*
X19760000Y-26947500D01*
X20172750Y-30587500D02*
X20342750Y-30757500D01*
X20342750Y-30587500D02*
X20172750Y-30757500D01*
X20236250Y-28682500D02*
X20406250Y-28852500D01*
X20406250Y-28682500D02*
X20236250Y-28852500D01*
X20410875Y-32492500D02*
X20580875Y-32662500D01*
X20580875Y-32492500D02*
X20410875Y-32662500D01*
X20649000Y-26777500D02*
X20819000Y-26947500D01*
X20819000Y-26777500D02*
X20649000Y-26947500D01*
X20712500Y-22015000D02*
X20882500Y-22185000D01*
X20882500Y-22015000D02*
X20712500Y-22185000D01*
X20712500Y-24872500D02*
X20882500Y-25042500D01*
X20882500Y-24872500D02*
X20712500Y-25042500D01*
X21125250Y-28682500D02*
X21295250Y-28852500D01*
X21295250Y-28682500D02*
X21125250Y-28852500D01*
X21188750Y-30587500D02*
X21358750Y-30757500D01*
X21358750Y-30587500D02*
X21188750Y-30757500D01*
X21426875Y-32492500D02*
X21596875Y-32662500D01*
X21596875Y-32492500D02*
X21426875Y-32662500D01*
X21601500Y-22015000D02*
X21771500Y-22185000D01*
X21771500Y-22015000D02*
X21601500Y-22185000D01*
X21601500Y-24872500D02*
X21771500Y-25042500D01*
X21771500Y-24872500D02*
X21601500Y-25042500D01*
X21665000Y-26777500D02*
X21835000Y-26947500D01*
X21835000Y-26777500D02*
X21665000Y-26947500D01*
X22077750Y-30587500D02*
X22247750Y-30757500D01*
X22247750Y-30587500D02*
X22077750Y-30757500D01*
X22141250Y-28682500D02*
X22311250Y-28852500D01*
X22311250Y-28682500D02*
X22141250Y-28852500D01*
X22554000Y-26777500D02*
X22724000Y-26947500D01*
X22724000Y-26777500D02*
X22554000Y-26947500D01*
X22617500Y-22015000D02*
X22787500Y-22185000D01*
X22787500Y-22015000D02*
X22617500Y-22185000D01*
X22617500Y-24872500D02*
X22787500Y-25042500D01*
X22787500Y-24872500D02*
X22617500Y-25042500D01*
X23030250Y-28682500D02*
X23200250Y-28852500D01*
X23200250Y-28682500D02*
X23030250Y-28852500D01*
X23093750Y-30587500D02*
X23263750Y-30757500D01*
X23263750Y-30587500D02*
X23093750Y-30757500D01*
X23506500Y-24872500D02*
X23676500Y-25042500D01*
X23676500Y-24872500D02*
X23506500Y-25042500D01*
X23570000Y-26777500D02*
X23740000Y-26947500D01*
X23740000Y-26777500D02*
X23570000Y-26947500D01*
X23982750Y-30587500D02*
X24152750Y-30757500D01*
X24152750Y-30587500D02*
X23982750Y-30757500D01*
X24046250Y-28682500D02*
X24216250Y-28852500D01*
X24216250Y-28682500D02*
X24046250Y-28852500D01*
X24220875Y-32492500D02*
X24390875Y-32662500D01*
X24390875Y-32492500D02*
X24220875Y-32662500D01*
X24459000Y-22015000D02*
X24629000Y-22185000D01*
X24629000Y-22015000D02*
X24459000Y-22185000D01*
X24459000Y-26777500D02*
X24629000Y-26947500D01*
X24629000Y-26777500D02*
X24459000Y-26947500D01*
X24522500Y-24872500D02*
X24692500Y-25042500D01*
X24692500Y-24872500D02*
X24522500Y-25042500D01*
X24935250Y-28682500D02*
X25105250Y-28852500D01*
X25105250Y-28682500D02*
X24935250Y-28852500D01*
X24998750Y-30587500D02*
X25168750Y-30757500D01*
X25168750Y-30587500D02*
X24998750Y-30757500D01*
X25236875Y-32492500D02*
X25406875Y-32662500D01*
X25406875Y-32492500D02*
X25236875Y-32662500D01*
X25411500Y-24872500D02*
X25581500Y-25042500D01*
X25581500Y-24872500D02*
X25411500Y-25042500D01*
X25475000Y-22015000D02*
X25645000Y-22185000D01*
X25645000Y-22015000D02*
X25475000Y-22185000D01*
X25475000Y-26777500D02*
X25645000Y-26947500D01*
X25645000Y-26777500D02*
X25475000Y-26947500D01*
X25887750Y-30587500D02*
X26057750Y-30757500D01*
X26057750Y-30587500D02*
X25887750Y-30757500D01*
X25951250Y-28682500D02*
X26121250Y-28852500D01*
X26121250Y-28682500D02*
X25951250Y-28852500D01*
X26364000Y-22015000D02*
X26534000Y-22185000D01*
X26534000Y-22015000D02*
X26364000Y-22185000D01*
X26364000Y-26777500D02*
X26534000Y-26947500D01*
X26534000Y-26777500D02*
X26364000Y-26947500D01*
X26427500Y-24872500D02*
X26597500Y-25042500D01*
X26597500Y-24872500D02*
X26427500Y-25042500D01*
X26840250Y-28682500D02*
X27010250Y-28852500D01*
X27010250Y-28682500D02*
X26840250Y-28852500D01*
X26903750Y-30587500D02*
X27073750Y-30757500D01*
X27073750Y-30587500D02*
X26903750Y-30757500D01*
X27316500Y-24872500D02*
X27486500Y-25042500D01*
X27486500Y-24872500D02*
X27316500Y-25042500D01*
X27380000Y-22015000D02*
X27550000Y-22185000D01*
X27550000Y-22015000D02*
X27380000Y-22185000D01*
X27380000Y-26777500D02*
X27550000Y-26947500D01*
X27550000Y-26777500D02*
X27380000Y-26947500D01*
X27792750Y-30587500D02*
X27962750Y-30757500D01*
X27962750Y-30587500D02*
X27792750Y-30757500D01*
X27856250Y-28682500D02*
X28026250Y-28852500D01*
X28026250Y-28682500D02*
X27856250Y-28852500D01*
X28030875Y-32492500D02*
X28200875Y-32662500D01*
X28200875Y-32492500D02*
X28030875Y-32662500D01*
X28269000Y-22015000D02*
X28439000Y-22185000D01*
X28439000Y-22015000D02*
X28269000Y-22185000D01*
X28269000Y-26777500D02*
X28439000Y-26947500D01*
X28439000Y-26777500D02*
X28269000Y-26947500D01*
X28332500Y-24872500D02*
X28502500Y-25042500D01*
X28502500Y-24872500D02*
X28332500Y-25042500D01*
X28745250Y-28682500D02*
X28915250Y-28852500D01*
X28915250Y-28682500D02*
X28745250Y-28852500D01*
X28808750Y-30587500D02*
X28978750Y-30757500D01*
X28978750Y-30587500D02*
X28808750Y-30757500D01*
X29046875Y-32492500D02*
X29216875Y-32662500D01*
X29216875Y-32492500D02*
X29046875Y-32662500D01*
X29221500Y-24872500D02*
X29391500Y-25042500D01*
X29391500Y-24872500D02*
X29221500Y-25042500D01*
X29285000Y-22015000D02*
X29455000Y-22185000D01*
X29455000Y-22015000D02*
X29285000Y-22185000D01*
X29285000Y-26777500D02*
X29455000Y-26947500D01*
X29455000Y-26777500D02*
X29285000Y-26947500D01*
X29697750Y-30587500D02*
X29867750Y-30757500D01*
X29867750Y-30587500D02*
X29697750Y-30757500D01*
X29761250Y-28682500D02*
X29931250Y-28852500D01*
X29931250Y-28682500D02*
X29761250Y-28852500D01*
X30174000Y-22015000D02*
X30344000Y-22185000D01*
X30344000Y-22015000D02*
X30174000Y-22185000D01*
X30174000Y-26777500D02*
X30344000Y-26947500D01*
X30344000Y-26777500D02*
X30174000Y-26947500D01*
X30237500Y-24872500D02*
X30407500Y-25042500D01*
X30407500Y-24872500D02*
X30237500Y-25042500D01*
X30650250Y-28682500D02*
X30820250Y-28852500D01*
X30820250Y-28682500D02*
X30650250Y-28852500D01*
X30713750Y-30587500D02*
X30883750Y-30757500D01*
X30883750Y-30587500D02*
X30713750Y-30757500D01*
X31126500Y-24872500D02*
X31296500Y-25042500D01*
X31296500Y-24872500D02*
X31126500Y-25042500D01*
X31190000Y-22015000D02*
X31360000Y-22185000D01*
X31360000Y-22015000D02*
X31190000Y-22185000D01*
X31190000Y-26777500D02*
X31360000Y-26947500D01*
X31360000Y-26777500D02*
X31190000Y-26947500D01*
X31364625Y-32492500D02*
X31534625Y-32662500D01*
X31534625Y-32492500D02*
X31364625Y-32662500D01*
X31602750Y-30587500D02*
X31772750Y-30757500D01*
X31772750Y-30587500D02*
X31602750Y-30757500D01*
X31666250Y-28682500D02*
X31836250Y-28852500D01*
X31836250Y-28682500D02*
X31666250Y-28852500D01*
X32079000Y-26777500D02*
X32249000Y-26947500D01*
X32249000Y-26777500D02*
X32079000Y-26947500D01*
X32142500Y-24872500D02*
X32312500Y-25042500D01*
X32312500Y-24872500D02*
X32142500Y-25042500D01*
X32380625Y-32492500D02*
X32550625Y-32662500D01*
X32550625Y-32492500D02*
X32380625Y-32662500D01*
X32555250Y-28682500D02*
X32725250Y-28852500D01*
X32725250Y-28682500D02*
X32555250Y-28852500D01*
X32618750Y-30587500D02*
X32788750Y-30757500D01*
X32788750Y-30587500D02*
X32618750Y-30757500D01*
X33031500Y-22015000D02*
X33201500Y-22185000D01*
X33201500Y-22015000D02*
X33031500Y-22185000D01*
X33031500Y-24872500D02*
X33201500Y-25042500D01*
X33201500Y-24872500D02*
X33031500Y-25042500D01*
X33095000Y-26777500D02*
X33265000Y-26947500D01*
X33265000Y-26777500D02*
X33095000Y-26947500D01*
X33507750Y-30587500D02*
X33677750Y-30757500D01*
X33677750Y-30587500D02*
X33507750Y-30757500D01*
X33571250Y-28682500D02*
X33741250Y-28852500D01*
X33741250Y-28682500D02*
X33571250Y-28852500D01*
X33745875Y-32492500D02*
X33915875Y-32662500D01*
X33915875Y-32492500D02*
X33745875Y-32662500D01*
X33984000Y-26777500D02*
X34154000Y-26947500D01*
X34154000Y-26777500D02*
X33984000Y-26947500D01*
X34047500Y-22015000D02*
X34217500Y-22185000D01*
X34217500Y-22015000D02*
X34047500Y-22185000D01*
X34047500Y-24872500D02*
X34217500Y-25042500D01*
X34217500Y-24872500D02*
X34047500Y-25042500D01*
X34460250Y-28682500D02*
X34630250Y-28852500D01*
X34630250Y-28682500D02*
X34460250Y-28852500D01*
X34523750Y-30587500D02*
X34693750Y-30757500D01*
X34693750Y-30587500D02*
X34523750Y-30757500D01*
X34761875Y-32492500D02*
X34931875Y-32662500D01*
X34931875Y-32492500D02*
X34761875Y-32662500D01*
X34936500Y-22015000D02*
X35106500Y-22185000D01*
X35106500Y-22015000D02*
X34936500Y-22185000D01*
X34936500Y-24872500D02*
X35106500Y-25042500D01*
X35106500Y-24872500D02*
X34936500Y-25042500D01*
X35000000Y-26777500D02*
X35170000Y-26947500D01*
X35170000Y-26777500D02*
X35000000Y-26947500D01*
X35476250Y-28682500D02*
X35646250Y-28852500D01*
X35646250Y-28682500D02*
X35476250Y-28852500D01*
X35889000Y-26777500D02*
X36059000Y-26947500D01*
X36059000Y-26777500D02*
X35889000Y-26947500D01*
X35952500Y-22015000D02*
X36122500Y-22185000D01*
X36122500Y-22015000D02*
X35952500Y-22185000D01*
X35952500Y-24872500D02*
X36122500Y-25042500D01*
X36122500Y-24872500D02*
X35952500Y-25042500D01*
X36127125Y-32492500D02*
X36297125Y-32662500D01*
X36297125Y-32492500D02*
X36127125Y-32662500D01*
X36841500Y-22015000D02*
X37011500Y-22185000D01*
X37011500Y-22015000D02*
X36841500Y-22185000D01*
X36905000Y-26777500D02*
X37075000Y-26947500D01*
X37075000Y-26777500D02*
X36905000Y-26947500D01*
X37079625Y-30587500D02*
X37249625Y-30757500D01*
X37249625Y-30587500D02*
X37079625Y-30757500D01*
X37143125Y-32492500D02*
X37313125Y-32662500D01*
X37313125Y-32492500D02*
X37143125Y-32662500D01*
X37555875Y-28682500D02*
X37725875Y-28852500D01*
X37725875Y-28682500D02*
X37555875Y-28852500D01*
X37794000Y-24872500D02*
X37964000Y-25042500D01*
X37964000Y-24872500D02*
X37794000Y-25042500D01*
X37857500Y-22015000D02*
X38027500Y-22185000D01*
X38027500Y-22015000D02*
X37857500Y-22185000D01*
X38095625Y-30587500D02*
X38265625Y-30757500D01*
X38265625Y-30587500D02*
X38095625Y-30757500D01*
X38270250Y-26777500D02*
X38440250Y-26947500D01*
X38440250Y-26777500D02*
X38270250Y-26947500D01*
X38508375Y-32492500D02*
X38678375Y-32662500D01*
X38678375Y-32492500D02*
X38508375Y-32662500D01*
X38571875Y-28682500D02*
X38741875Y-28852500D01*
X38741875Y-28682500D02*
X38571875Y-28852500D01*
X38746500Y-22015000D02*
X38916500Y-22185000D01*
X38916500Y-22015000D02*
X38746500Y-22185000D01*
X38810000Y-24872500D02*
X38980000Y-25042500D01*
X38980000Y-24872500D02*
X38810000Y-25042500D01*
X39286250Y-26777500D02*
X39456250Y-26947500D01*
X39456250Y-26777500D02*
X39286250Y-26947500D01*
X39524375Y-32492500D02*
X39694375Y-32662500D01*
X39694375Y-32492500D02*
X39524375Y-32662500D01*
X39762500Y-22015000D02*
X39932500Y-22185000D01*
X39932500Y-22015000D02*
X39762500Y-22185000D01*
X41127750Y-22015000D02*
X41297750Y-22185000D01*
X41297750Y-22015000D02*
X41127750Y-22185000D01*
X41127750Y-24872500D02*
X41297750Y-25042500D01*
X41297750Y-24872500D02*
X41127750Y-25042500D01*
X41127750Y-26777500D02*
X41297750Y-26947500D01*
X41297750Y-26777500D02*
X41127750Y-26947500D01*
X41127750Y-28682500D02*
X41297750Y-28852500D01*
X41297750Y-28682500D02*
X41127750Y-28852500D01*
X41127750Y-30587500D02*
X41297750Y-30757500D01*
X41297750Y-30587500D02*
X41127750Y-30757500D01*
X41127750Y-32492500D02*
X41297750Y-32662500D01*
X41297750Y-32492500D02*
X41127750Y-32662500D01*
X42143750Y-22015000D02*
X42313750Y-22185000D01*
X42313750Y-22015000D02*
X42143750Y-22185000D01*
X42143750Y-24872500D02*
X42313750Y-25042500D01*
X42313750Y-24872500D02*
X42143750Y-25042500D01*
X42143750Y-26777500D02*
X42313750Y-26947500D01*
X42313750Y-26777500D02*
X42143750Y-26947500D01*
X42143750Y-28682500D02*
X42313750Y-28852500D01*
X42313750Y-28682500D02*
X42143750Y-28852500D01*
X42143750Y-30587500D02*
X42313750Y-30757500D01*
X42313750Y-30587500D02*
X42143750Y-30757500D01*
X42143750Y-32492500D02*
X42313750Y-32662500D01*
X42313750Y-32492500D02*
X42143750Y-32662500D01*
X43032750Y-22015000D02*
X43202750Y-22185000D01*
X43202750Y-22015000D02*
X43032750Y-22185000D01*
X43032750Y-24872500D02*
X43202750Y-25042500D01*
X43202750Y-24872500D02*
X43032750Y-25042500D01*
X43032750Y-26777500D02*
X43202750Y-26947500D01*
X43202750Y-26777500D02*
X43032750Y-26947500D01*
X43032750Y-28682500D02*
X43202750Y-28852500D01*
X43202750Y-28682500D02*
X43032750Y-28852500D01*
X43032750Y-30587500D02*
X43202750Y-30757500D01*
X43202750Y-30587500D02*
X43032750Y-30757500D01*
X43032750Y-32492500D02*
X43202750Y-32662500D01*
X43202750Y-32492500D02*
X43032750Y-32662500D01*
X44048750Y-22015000D02*
X44218750Y-22185000D01*
X44218750Y-22015000D02*
X44048750Y-22185000D01*
X44048750Y-24872500D02*
X44218750Y-25042500D01*
X44218750Y-24872500D02*
X44048750Y-25042500D01*
X44048750Y-26777500D02*
X44218750Y-26947500D01*
X44218750Y-26777500D02*
X44048750Y-26947500D01*
X44048750Y-28682500D02*
X44218750Y-28852500D01*
X44218750Y-28682500D02*
X44048750Y-28852500D01*
X44048750Y-30587500D02*
X44218750Y-30757500D01*
X44218750Y-30587500D02*
X44048750Y-30757500D01*
X44048750Y-32492500D02*
X44218750Y-32662500D01*
X44218750Y-32492500D02*
X44048750Y-32662500D01*
X44937750Y-22015000D02*
X45107750Y-22185000D01*
X45107750Y-22015000D02*
X44937750Y-22185000D01*
X44937750Y-24872500D02*
X45107750Y-25042500D01*
X45107750Y-24872500D02*
X44937750Y-25042500D01*
X44937750Y-26777500D02*
X45107750Y-26947500D01*
X45107750Y-26777500D02*
X44937750Y-26947500D01*
X44937750Y-28682500D02*
X45107750Y-28852500D01*
X45107750Y-28682500D02*
X44937750Y-28852500D01*
X44937750Y-30587500D02*
X45107750Y-30757500D01*
X45107750Y-30587500D02*
X44937750Y-30757500D01*
X44937750Y-32492500D02*
X45107750Y-32662500D01*
X45107750Y-32492500D02*
X44937750Y-32662500D01*
X45953750Y-22015000D02*
X46123750Y-22185000D01*
X46123750Y-22015000D02*
X45953750Y-22185000D01*
X45953750Y-24872500D02*
X46123750Y-25042500D01*
X46123750Y-24872500D02*
X45953750Y-25042500D01*
X45953750Y-26777500D02*
X46123750Y-26947500D01*
X46123750Y-26777500D02*
X45953750Y-26947500D01*
X45953750Y-28682500D02*
X46123750Y-28852500D01*
X46123750Y-28682500D02*
X45953750Y-28852500D01*
X45953750Y-30587500D02*
X46123750Y-30757500D01*
X46123750Y-30587500D02*
X45953750Y-30757500D01*
X45953750Y-32492500D02*
X46123750Y-32662500D01*
X46123750Y-32492500D02*
X45953750Y-32662500D01*
D13*
X39155000Y-18330000D02*
G75*
G03*
X39155000Y-18330000I-105000J0D01*
G01*
X39155000Y-19470000D02*
G75*
G03*
X39155000Y-19470000I-105000J0D01*
G01*
X43855000Y-18330000D02*
G75*
G03*
X43855000Y-18330000I-105000J0D01*
G01*
X43855000Y-19470000D02*
G75*
G03*
X43855000Y-19470000I-105000J0D01*
G01*
D14*
X12666325Y-29821600D02*
X12666325Y-30126400D01*
X12513925Y-29974000D02*
X12818725Y-29974000D01*
X15053925Y-29821600D02*
X15053925Y-30126400D01*
X14901525Y-29974000D02*
X15206325Y-29974000D01*
X19810075Y-31726600D02*
X19810075Y-32031400D01*
X19657675Y-31879000D02*
X19962475Y-31879000D01*
X22197675Y-31726600D02*
X22197675Y-32031400D01*
X22045275Y-31879000D02*
X22350075Y-31879000D01*
X23620075Y-31726600D02*
X23620075Y-32031400D01*
X23467675Y-31879000D02*
X23772475Y-31879000D01*
X26007675Y-31726600D02*
X26007675Y-32031400D01*
X25855275Y-31879000D02*
X26160075Y-31879000D01*
X27430075Y-31726600D02*
X27430075Y-32031400D01*
X27277675Y-31879000D02*
X27582475Y-31879000D01*
X29817675Y-31726600D02*
X29817675Y-32031400D01*
X29665275Y-31879000D02*
X29970075Y-31879000D01*
X36478825Y-29821600D02*
X36478825Y-30126400D01*
X36326425Y-29974000D02*
X36631225Y-29974000D01*
X36955075Y-27916600D02*
X36955075Y-28221400D01*
X36802675Y-28069000D02*
X37107475Y-28069000D01*
X37193200Y-24106600D02*
X37193200Y-24411400D01*
X37040800Y-24259000D02*
X37345600Y-24259000D01*
X38866425Y-29821600D02*
X38866425Y-30126400D01*
X38714025Y-29974000D02*
X39018825Y-29974000D01*
X39342675Y-27916600D02*
X39342675Y-28221400D01*
X39190275Y-28069000D02*
X39495075Y-28069000D01*
X39580800Y-24106600D02*
X39580800Y-24411400D01*
X39428400Y-24259000D02*
X39733200Y-24259000D01*
D15*
X12807316Y-31638991D02*
X12807316Y-31357009D01*
X12525334Y-31357009D01*
X12525334Y-31638991D01*
X12807316Y-31638991D01*
X15194916Y-31638991D02*
X15194916Y-31357009D01*
X14912934Y-31357009D01*
X14912934Y-31638991D01*
X15194916Y-31638991D01*
X19951066Y-33543991D02*
X19951066Y-33262009D01*
X19669084Y-33262009D01*
X19669084Y-33543991D01*
X19951066Y-33543991D01*
X22338666Y-33543991D02*
X22338666Y-33262009D01*
X22056684Y-33262009D01*
X22056684Y-33543991D01*
X22338666Y-33543991D01*
X23761066Y-33543991D02*
X23761066Y-33262009D01*
X23479084Y-33262009D01*
X23479084Y-33543991D01*
X23761066Y-33543991D01*
X26148666Y-33543991D02*
X26148666Y-33262009D01*
X25866684Y-33262009D01*
X25866684Y-33543991D01*
X26148666Y-33543991D01*
X27571066Y-33543991D02*
X27571066Y-33262009D01*
X27289084Y-33262009D01*
X27289084Y-33543991D01*
X27571066Y-33543991D01*
X29958666Y-33543991D02*
X29958666Y-33262009D01*
X29676684Y-33262009D01*
X29676684Y-33543991D01*
X29958666Y-33543991D01*
X36619816Y-31638991D02*
X36619816Y-31357009D01*
X36337834Y-31357009D01*
X36337834Y-31638991D01*
X36619816Y-31638991D01*
X37096066Y-29733991D02*
X37096066Y-29452009D01*
X36814084Y-29452009D01*
X36814084Y-29733991D01*
X37096066Y-29733991D01*
X37334191Y-25923991D02*
X37334191Y-25642009D01*
X37052209Y-25642009D01*
X37052209Y-25923991D01*
X37334191Y-25923991D01*
X39007416Y-31638991D02*
X39007416Y-31357009D01*
X38725434Y-31357009D01*
X38725434Y-31638991D01*
X39007416Y-31638991D01*
X39483666Y-29733991D02*
X39483666Y-29452009D01*
X39201684Y-29452009D01*
X39201684Y-29733991D01*
X39483666Y-29733991D01*
X39721791Y-25923991D02*
X39721791Y-25642009D01*
X39439809Y-25642009D01*
X39439809Y-25923991D01*
X39721791Y-25923991D01*
D16*
X12669500Y-22300000D02*
X12869500Y-22100000D01*
X12669500Y-21900000D01*
X12469500Y-22100000D01*
X12669500Y-22300000D01*
X12669500Y-25157500D02*
X12869500Y-24957500D01*
X12669500Y-24757500D01*
X12469500Y-24957500D01*
X12669500Y-25157500D01*
X12907625Y-32777500D02*
X13107625Y-32577500D01*
X12907625Y-32377500D01*
X12707625Y-32577500D01*
X12907625Y-32777500D01*
X13145750Y-27062500D02*
X13345750Y-26862500D01*
X13145750Y-26662500D01*
X12945750Y-26862500D01*
X13145750Y-27062500D01*
X13383875Y-28967500D02*
X13583875Y-28767500D01*
X13383875Y-28567500D01*
X13183875Y-28767500D01*
X13383875Y-28967500D01*
X13860125Y-30872500D02*
X14060125Y-30672500D01*
X13860125Y-30472500D01*
X13660125Y-30672500D01*
X13860125Y-30872500D01*
X14574500Y-22300000D02*
X14774500Y-22100000D01*
X14574500Y-21900000D01*
X14374500Y-22100000D01*
X14574500Y-22300000D01*
X14574500Y-25157500D02*
X14774500Y-24957500D01*
X14574500Y-24757500D01*
X14374500Y-24957500D01*
X14574500Y-25157500D01*
X15288875Y-32777500D02*
X15488875Y-32577500D01*
X15288875Y-32377500D01*
X15088875Y-32577500D01*
X15288875Y-32777500D01*
X15527000Y-27062500D02*
X15727000Y-26862500D01*
X15527000Y-26662500D01*
X15327000Y-26862500D01*
X15527000Y-27062500D01*
X16003250Y-28967500D02*
X16203250Y-28767500D01*
X16003250Y-28567500D01*
X15803250Y-28767500D01*
X16003250Y-28967500D01*
X16479500Y-22300000D02*
X16679500Y-22100000D01*
X16479500Y-21900000D01*
X16279500Y-22100000D01*
X16479500Y-22300000D01*
X16479500Y-25157500D02*
X16679500Y-24957500D01*
X16479500Y-24757500D01*
X16279500Y-24957500D01*
X16479500Y-25157500D01*
X16955750Y-30872500D02*
X17155750Y-30672500D01*
X16955750Y-30472500D01*
X16755750Y-30672500D01*
X16955750Y-30872500D01*
X17432000Y-27062500D02*
X17632000Y-26862500D01*
X17432000Y-26662500D01*
X17232000Y-26862500D01*
X17432000Y-27062500D01*
X17670125Y-32777500D02*
X17870125Y-32577500D01*
X17670125Y-32377500D01*
X17470125Y-32577500D01*
X17670125Y-32777500D01*
X17908250Y-28967500D02*
X18108250Y-28767500D01*
X17908250Y-28567500D01*
X17708250Y-28767500D01*
X17908250Y-28967500D01*
X18384500Y-22300000D02*
X18584500Y-22100000D01*
X18384500Y-21900000D01*
X18184500Y-22100000D01*
X18384500Y-22300000D01*
X18384500Y-25157500D02*
X18584500Y-24957500D01*
X18384500Y-24757500D01*
X18184500Y-24957500D01*
X18384500Y-25157500D01*
X18860750Y-30872500D02*
X19060750Y-30672500D01*
X18860750Y-30472500D01*
X18660750Y-30672500D01*
X18860750Y-30872500D01*
X19337000Y-27062500D02*
X19537000Y-26862500D01*
X19337000Y-26662500D01*
X19137000Y-26862500D01*
X19337000Y-27062500D01*
X19813250Y-28967500D02*
X20013250Y-28767500D01*
X19813250Y-28567500D01*
X19613250Y-28767500D01*
X19813250Y-28967500D01*
X20289500Y-22300000D02*
X20489500Y-22100000D01*
X20289500Y-21900000D01*
X20089500Y-22100000D01*
X20289500Y-22300000D01*
X20289500Y-25157500D02*
X20489500Y-24957500D01*
X20289500Y-24757500D01*
X20089500Y-24957500D01*
X20289500Y-25157500D01*
X20765750Y-30872500D02*
X20965750Y-30672500D01*
X20765750Y-30472500D01*
X20565750Y-30672500D01*
X20765750Y-30872500D01*
X21003875Y-32777500D02*
X21203875Y-32577500D01*
X21003875Y-32377500D01*
X20803875Y-32577500D01*
X21003875Y-32777500D01*
X21242000Y-27062500D02*
X21442000Y-26862500D01*
X21242000Y-26662500D01*
X21042000Y-26862500D01*
X21242000Y-27062500D01*
X21718250Y-28967500D02*
X21918250Y-28767500D01*
X21718250Y-28567500D01*
X21518250Y-28767500D01*
X21718250Y-28967500D01*
X22194500Y-22300000D02*
X22394500Y-22100000D01*
X22194500Y-21900000D01*
X21994500Y-22100000D01*
X22194500Y-22300000D01*
X22194500Y-25157500D02*
X22394500Y-24957500D01*
X22194500Y-24757500D01*
X21994500Y-24957500D01*
X22194500Y-25157500D01*
X22670750Y-30872500D02*
X22870750Y-30672500D01*
X22670750Y-30472500D01*
X22470750Y-30672500D01*
X22670750Y-30872500D01*
X23147000Y-27062500D02*
X23347000Y-26862500D01*
X23147000Y-26662500D01*
X22947000Y-26862500D01*
X23147000Y-27062500D01*
X23623250Y-28967500D02*
X23823250Y-28767500D01*
X23623250Y-28567500D01*
X23423250Y-28767500D01*
X23623250Y-28967500D01*
X24099500Y-25157500D02*
X24299500Y-24957500D01*
X24099500Y-24757500D01*
X23899500Y-24957500D01*
X24099500Y-25157500D01*
X24575750Y-30872500D02*
X24775750Y-30672500D01*
X24575750Y-30472500D01*
X24375750Y-30672500D01*
X24575750Y-30872500D01*
X24813875Y-32777500D02*
X25013875Y-32577500D01*
X24813875Y-32377500D01*
X24613875Y-32577500D01*
X24813875Y-32777500D01*
X25052000Y-22300000D02*
X25252000Y-22100000D01*
X25052000Y-21900000D01*
X24852000Y-22100000D01*
X25052000Y-22300000D01*
X25052000Y-27062500D02*
X25252000Y-26862500D01*
X25052000Y-26662500D01*
X24852000Y-26862500D01*
X25052000Y-27062500D01*
X25528250Y-28967500D02*
X25728250Y-28767500D01*
X25528250Y-28567500D01*
X25328250Y-28767500D01*
X25528250Y-28967500D01*
X26004500Y-25157500D02*
X26204500Y-24957500D01*
X26004500Y-24757500D01*
X25804500Y-24957500D01*
X26004500Y-25157500D01*
X26480750Y-30872500D02*
X26680750Y-30672500D01*
X26480750Y-30472500D01*
X26280750Y-30672500D01*
X26480750Y-30872500D01*
X26957000Y-22300000D02*
X27157000Y-22100000D01*
X26957000Y-21900000D01*
X26757000Y-22100000D01*
X26957000Y-22300000D01*
X26957000Y-27062500D02*
X27157000Y-26862500D01*
X26957000Y-26662500D01*
X26757000Y-26862500D01*
X26957000Y-27062500D01*
X27433250Y-28967500D02*
X27633250Y-28767500D01*
X27433250Y-28567500D01*
X27233250Y-28767500D01*
X27433250Y-28967500D01*
X27909500Y-25157500D02*
X28109500Y-24957500D01*
X27909500Y-24757500D01*
X27709500Y-24957500D01*
X27909500Y-25157500D01*
X28385750Y-30872500D02*
X28585750Y-30672500D01*
X28385750Y-30472500D01*
X28185750Y-30672500D01*
X28385750Y-30872500D01*
X28623875Y-32777500D02*
X28823875Y-32577500D01*
X28623875Y-32377500D01*
X28423875Y-32577500D01*
X28623875Y-32777500D01*
X28862000Y-22300000D02*
X29062000Y-22100000D01*
X28862000Y-21900000D01*
X28662000Y-22100000D01*
X28862000Y-22300000D01*
X28862000Y-27062500D02*
X29062000Y-26862500D01*
X28862000Y-26662500D01*
X28662000Y-26862500D01*
X28862000Y-27062500D01*
X29338250Y-28967500D02*
X29538250Y-28767500D01*
X29338250Y-28567500D01*
X29138250Y-28767500D01*
X29338250Y-28967500D01*
X29814500Y-25157500D02*
X30014500Y-24957500D01*
X29814500Y-24757500D01*
X29614500Y-24957500D01*
X29814500Y-25157500D01*
X30290750Y-30872500D02*
X30490750Y-30672500D01*
X30290750Y-30472500D01*
X30090750Y-30672500D01*
X30290750Y-30872500D01*
X30767000Y-22300000D02*
X30967000Y-22100000D01*
X30767000Y-21900000D01*
X30567000Y-22100000D01*
X30767000Y-22300000D01*
X30767000Y-27062500D02*
X30967000Y-26862500D01*
X30767000Y-26662500D01*
X30567000Y-26862500D01*
X30767000Y-27062500D01*
X31243250Y-28967500D02*
X31443250Y-28767500D01*
X31243250Y-28567500D01*
X31043250Y-28767500D01*
X31243250Y-28967500D01*
X31719500Y-25157500D02*
X31919500Y-24957500D01*
X31719500Y-24757500D01*
X31519500Y-24957500D01*
X31719500Y-25157500D01*
X31957625Y-32777500D02*
X32157625Y-32577500D01*
X31957625Y-32377500D01*
X31757625Y-32577500D01*
X31957625Y-32777500D01*
X32195750Y-30872500D02*
X32395750Y-30672500D01*
X32195750Y-30472500D01*
X31995750Y-30672500D01*
X32195750Y-30872500D01*
X32672000Y-27062500D02*
X32872000Y-26862500D01*
X32672000Y-26662500D01*
X32472000Y-26862500D01*
X32672000Y-27062500D01*
X33148250Y-28967500D02*
X33348250Y-28767500D01*
X33148250Y-28567500D01*
X32948250Y-28767500D01*
X33148250Y-28967500D01*
X33624500Y-22300000D02*
X33824500Y-22100000D01*
X33624500Y-21900000D01*
X33424500Y-22100000D01*
X33624500Y-22300000D01*
X33624500Y-25157500D02*
X33824500Y-24957500D01*
X33624500Y-24757500D01*
X33424500Y-24957500D01*
X33624500Y-25157500D01*
X34100750Y-30872500D02*
X34300750Y-30672500D01*
X34100750Y-30472500D01*
X33900750Y-30672500D01*
X34100750Y-30872500D01*
X34338875Y-32777500D02*
X34538875Y-32577500D01*
X34338875Y-32377500D01*
X34138875Y-32577500D01*
X34338875Y-32777500D01*
X34577000Y-27062500D02*
X34777000Y-26862500D01*
X34577000Y-26662500D01*
X34377000Y-26862500D01*
X34577000Y-27062500D01*
X35053250Y-28967500D02*
X35253250Y-28767500D01*
X35053250Y-28567500D01*
X34853250Y-28767500D01*
X35053250Y-28967500D01*
X35529500Y-22300000D02*
X35729500Y-22100000D01*
X35529500Y-21900000D01*
X35329500Y-22100000D01*
X35529500Y-22300000D01*
X35529500Y-25157500D02*
X35729500Y-24957500D01*
X35529500Y-24757500D01*
X35329500Y-24957500D01*
X35529500Y-25157500D01*
X36482000Y-27062500D02*
X36682000Y-26862500D01*
X36482000Y-26662500D01*
X36282000Y-26862500D01*
X36482000Y-27062500D01*
X36720125Y-32777500D02*
X36920125Y-32577500D01*
X36720125Y-32377500D01*
X36520125Y-32577500D01*
X36720125Y-32777500D01*
X37434500Y-22300000D02*
X37634500Y-22100000D01*
X37434500Y-21900000D01*
X37234500Y-22100000D01*
X37434500Y-22300000D01*
X37672625Y-30872500D02*
X37872625Y-30672500D01*
X37672625Y-30472500D01*
X37472625Y-30672500D01*
X37672625Y-30872500D01*
X38148875Y-28967500D02*
X38348875Y-28767500D01*
X38148875Y-28567500D01*
X37948875Y-28767500D01*
X38148875Y-28967500D01*
X38387000Y-25157500D02*
X38587000Y-24957500D01*
X38387000Y-24757500D01*
X38187000Y-24957500D01*
X38387000Y-25157500D01*
X38863250Y-27062500D02*
X39063250Y-26862500D01*
X38863250Y-26662500D01*
X38663250Y-26862500D01*
X38863250Y-27062500D01*
X39101375Y-32777500D02*
X39301375Y-32577500D01*
X39101375Y-32377500D01*
X38901375Y-32577500D01*
X39101375Y-32777500D01*
X39339500Y-22300000D02*
X39539500Y-22100000D01*
X39339500Y-21900000D01*
X39139500Y-22100000D01*
X39339500Y-22300000D01*
X41720750Y-22300000D02*
X41920750Y-22100000D01*
X41720750Y-21900000D01*
X41520750Y-22100000D01*
X41720750Y-22300000D01*
X41720750Y-25157500D02*
X41920750Y-24957500D01*
X41720750Y-24757500D01*
X41520750Y-24957500D01*
X41720750Y-25157500D01*
X41720750Y-27062500D02*
X41920750Y-26862500D01*
X41720750Y-26662500D01*
X41520750Y-26862500D01*
X41720750Y-27062500D01*
X41720750Y-28967500D02*
X41920750Y-28767500D01*
X41720750Y-28567500D01*
X41520750Y-28767500D01*
X41720750Y-28967500D01*
X41720750Y-30872500D02*
X41920750Y-30672500D01*
X41720750Y-30472500D01*
X41520750Y-30672500D01*
X41720750Y-30872500D01*
X41720750Y-32777500D02*
X41920750Y-32577500D01*
X41720750Y-32377500D01*
X41520750Y-32577500D01*
X41720750Y-32777500D01*
X43625750Y-22300000D02*
X43825750Y-22100000D01*
X43625750Y-21900000D01*
X43425750Y-22100000D01*
X43625750Y-22300000D01*
X43625750Y-25157500D02*
X43825750Y-24957500D01*
X43625750Y-24757500D01*
X43425750Y-24957500D01*
X43625750Y-25157500D01*
X43625750Y-27062500D02*
X43825750Y-26862500D01*
X43625750Y-26662500D01*
X43425750Y-26862500D01*
X43625750Y-27062500D01*
X43625750Y-28967500D02*
X43825750Y-28767500D01*
X43625750Y-28567500D01*
X43425750Y-28767500D01*
X43625750Y-28967500D01*
X43625750Y-30872500D02*
X43825750Y-30672500D01*
X43625750Y-30472500D01*
X43425750Y-30672500D01*
X43625750Y-30872500D01*
X43625750Y-32777500D02*
X43825750Y-32577500D01*
X43625750Y-32377500D01*
X43425750Y-32577500D01*
X43625750Y-32777500D01*
X45530750Y-22300000D02*
X45730750Y-22100000D01*
X45530750Y-21900000D01*
X45330750Y-22100000D01*
X45530750Y-22300000D01*
X45530750Y-25157500D02*
X45730750Y-24957500D01*
X45530750Y-24757500D01*
X45330750Y-24957500D01*
X45530750Y-25157500D01*
X45530750Y-27062500D02*
X45730750Y-26862500D01*
X45530750Y-26662500D01*
X45330750Y-26862500D01*
X45530750Y-27062500D01*
X45530750Y-28967500D02*
X45730750Y-28767500D01*
X45530750Y-28567500D01*
X45330750Y-28767500D01*
X45530750Y-28967500D01*
X45530750Y-30872500D02*
X45730750Y-30672500D01*
X45530750Y-30472500D01*
X45330750Y-30672500D01*
X45530750Y-30872500D01*
X45530750Y-32777500D02*
X45730750Y-32577500D01*
X45530750Y-32377500D01*
X45330750Y-32577500D01*
X45530750Y-32777500D01*
D17*
X11185000Y-16785000D02*
X11615000Y-17215000D01*
X11615000Y-16785000D02*
X11185000Y-17215000D01*
X11615000Y-17000000D02*
G75*
G03*
X11615000Y-17000000I-215000J0D01*
G01*
X11185000Y-20285000D02*
X11615000Y-20715000D01*
X11615000Y-20285000D02*
X11185000Y-20715000D01*
X11615000Y-20500000D02*
G75*
G03*
X11615000Y-20500000I-215000J0D01*
G01*
X11185000Y-21285000D02*
X11615000Y-21715000D01*
X11615000Y-21285000D02*
X11185000Y-21715000D01*
X11615000Y-21500000D02*
G75*
G03*
X11615000Y-21500000I-215000J0D01*
G01*
X11185000Y-25234956D02*
X11615000Y-25664956D01*
X11615000Y-25234956D02*
X11185000Y-25664956D01*
X11615000Y-25449956D02*
G75*
G03*
X11615000Y-25449956I-215000J0D01*
G01*
X11185000Y-33685000D02*
X11615000Y-34115000D01*
X11615000Y-33685000D02*
X11185000Y-34115000D01*
X11615000Y-33900000D02*
G75*
G03*
X11615000Y-33900000I-215000J0D01*
G01*
X14485000Y-28552500D02*
X14915000Y-28982500D01*
X14915000Y-28552500D02*
X14485000Y-28982500D01*
X14915000Y-28767500D02*
G75*
G03*
X14915000Y-28767500I-215000J0D01*
G01*
X20035000Y-16785000D02*
X20465000Y-17215000D01*
X20465000Y-16785000D02*
X20035000Y-17215000D01*
X20465000Y-17000000D02*
G75*
G03*
X20465000Y-17000000I-215000J0D01*
G01*
X20035000Y-23285000D02*
X20465000Y-23715000D01*
X20465000Y-23285000D02*
X20035000Y-23715000D01*
X20465000Y-23500000D02*
G75*
G03*
X20465000Y-23500000I-215000J0D01*
G01*
X20035000Y-33685000D02*
X20465000Y-34115000D01*
X20465000Y-33685000D02*
X20035000Y-34115000D01*
X20465000Y-33900000D02*
G75*
G03*
X20465000Y-33900000I-215000J0D01*
G01*
X23410000Y-21885000D02*
X23840000Y-22315000D01*
X23840000Y-21885000D02*
X23410000Y-22315000D01*
X23840000Y-22100000D02*
G75*
G03*
X23840000Y-22100000I-215000J0D01*
G01*
X27285000Y-16785000D02*
X27715000Y-17215000D01*
X27715000Y-16785000D02*
X27285000Y-17215000D01*
X27715000Y-17000000D02*
G75*
G03*
X27715000Y-17000000I-215000J0D01*
G01*
X28885000Y-23285000D02*
X29315000Y-23715000D01*
X29315000Y-23285000D02*
X28885000Y-23715000D01*
X29315000Y-23500000D02*
G75*
G03*
X29315000Y-23500000I-215000J0D01*
G01*
X28885000Y-33685000D02*
X29315000Y-34115000D01*
X29315000Y-33685000D02*
X28885000Y-34115000D01*
X29315000Y-33900000D02*
G75*
G03*
X29315000Y-33900000I-215000J0D01*
G01*
X30285000Y-16785000D02*
X30715000Y-17215000D01*
X30715000Y-16785000D02*
X30285000Y-17215000D01*
X30715000Y-17000000D02*
G75*
G03*
X30715000Y-17000000I-215000J0D01*
G01*
X31985000Y-21885000D02*
X32415000Y-22315000D01*
X32415000Y-21885000D02*
X31985000Y-22315000D01*
X32415000Y-22100000D02*
G75*
G03*
X32415000Y-22100000I-215000J0D01*
G01*
X36085000Y-28552500D02*
X36515000Y-28982500D01*
X36515000Y-28552500D02*
X36085000Y-28982500D01*
X36515000Y-28767500D02*
G75*
G03*
X36515000Y-28767500I-215000J0D01*
G01*
X37735000Y-16785000D02*
X38165000Y-17215000D01*
X38165000Y-16785000D02*
X37735000Y-17215000D01*
X38165000Y-17000000D02*
G75*
G03*
X38165000Y-17000000I-215000J0D01*
G01*
X37735000Y-23285000D02*
X38165000Y-23715000D01*
X38165000Y-23285000D02*
X37735000Y-23715000D01*
X38165000Y-23500000D02*
G75*
G03*
X38165000Y-23500000I-215000J0D01*
G01*
X37735000Y-33685000D02*
X38165000Y-34115000D01*
X38165000Y-33685000D02*
X37735000Y-34115000D01*
X38165000Y-33900000D02*
G75*
G03*
X38165000Y-33900000I-215000J0D01*
G01*
X46584956Y-20285000D02*
X47014956Y-20715000D01*
X47014956Y-20285000D02*
X46584956Y-20715000D01*
X47014956Y-20500000D02*
G75*
G03*
X47014956Y-20500000I-215000J0D01*
G01*
X46584956Y-21285000D02*
X47014956Y-21715000D01*
X47014956Y-21285000D02*
X46584956Y-21715000D01*
X47014956Y-21500000D02*
G75*
G03*
X47014956Y-21500000I-215000J0D01*
G01*
X46584956Y-25234956D02*
X47014956Y-25664956D01*
X47014956Y-25234956D02*
X46584956Y-25664956D01*
X47014956Y-25449956D02*
G75*
G03*
X47014956Y-25449956I-215000J0D01*
G01*
X46585000Y-16785000D02*
X47015000Y-17215000D01*
X47015000Y-16785000D02*
X46585000Y-17215000D01*
X47015000Y-17000000D02*
G75*
G03*
X47015000Y-17000000I-215000J0D01*
G01*
X46585000Y-33685000D02*
X47015000Y-34115000D01*
X47015000Y-33685000D02*
X46585000Y-34115000D01*
X47015000Y-33900000D02*
G75*
G03*
X47015000Y-33900000I-215000J0D01*
G01*
D11*
X11252619Y-34615476D02*
X11252619Y-34415476D01*
X11300238Y-34415476D01*
X11328809Y-34425000D01*
X11347857Y-34444048D01*
X11357381Y-34463095D01*
X11366905Y-34501190D01*
X11366905Y-34529762D01*
X11357381Y-34567857D01*
X11347857Y-34586905D01*
X11328809Y-34605952D01*
X11300238Y-34615476D01*
X11252619Y-34615476D01*
X11452619Y-34615476D02*
X11452619Y-34482143D01*
X11452619Y-34520238D02*
X11462143Y-34501190D01*
X11471667Y-34491667D01*
X11490714Y-34482143D01*
X11509762Y-34482143D01*
X11576428Y-34615476D02*
X11576428Y-34482143D01*
X11576428Y-34415476D02*
X11566905Y-34425000D01*
X11576428Y-34434524D01*
X11585952Y-34425000D01*
X11576428Y-34415476D01*
X11576428Y-34434524D01*
X11700238Y-34615476D02*
X11681190Y-34605952D01*
X11671667Y-34586905D01*
X11671667Y-34415476D01*
X11805000Y-34615476D02*
X11785952Y-34605952D01*
X11776428Y-34586905D01*
X11776428Y-34415476D01*
X12033571Y-34615476D02*
X12033571Y-34415476D01*
X12100238Y-34558333D01*
X12166905Y-34415476D01*
X12166905Y-34615476D01*
X12347857Y-34615476D02*
X12347857Y-34510714D01*
X12338333Y-34491667D01*
X12319286Y-34482143D01*
X12281190Y-34482143D01*
X12262143Y-34491667D01*
X12347857Y-34605952D02*
X12328809Y-34615476D01*
X12281190Y-34615476D01*
X12262143Y-34605952D01*
X12252619Y-34586905D01*
X12252619Y-34567857D01*
X12262143Y-34548810D01*
X12281190Y-34539286D01*
X12328809Y-34539286D01*
X12347857Y-34529762D01*
X12443095Y-34482143D02*
X12443095Y-34682143D01*
X12443095Y-34491667D02*
X12462143Y-34482143D01*
X12500238Y-34482143D01*
X12519286Y-34491667D01*
X12528809Y-34501190D01*
X12538333Y-34520238D01*
X12538333Y-34577381D01*
X12528809Y-34596429D01*
X12519286Y-34605952D01*
X12500238Y-34615476D01*
X12462143Y-34615476D01*
X12443095Y-34605952D01*
X12624048Y-34596429D02*
X12633571Y-34605952D01*
X12624048Y-34615476D01*
X12614524Y-34605952D01*
X12624048Y-34596429D01*
X12624048Y-34615476D01*
X12624048Y-34491667D02*
X12633571Y-34501190D01*
X12624048Y-34510714D01*
X12614524Y-34501190D01*
X12624048Y-34491667D01*
X12624048Y-34510714D01*
D12*
X10825000Y-34860000D02*
X10995000Y-35030000D01*
X10995000Y-34860000D02*
X10825000Y-35030000D01*
D11*
X11357381Y-35035476D02*
X11243095Y-35035476D01*
X11300238Y-35035476D02*
X11300238Y-34835476D01*
X11281190Y-34864048D01*
X11262143Y-34883095D01*
X11243095Y-34892619D01*
X11443095Y-35016429D02*
X11452619Y-35025952D01*
X11443095Y-35035476D01*
X11433571Y-35025952D01*
X11443095Y-35016429D01*
X11443095Y-35035476D01*
X11519286Y-34835476D02*
X11652619Y-34835476D01*
X11566905Y-35035476D01*
X11766905Y-34835476D02*
X11785952Y-34835476D01*
X11805000Y-34845000D01*
X11814524Y-34854524D01*
X11824048Y-34873571D01*
X11833571Y-34911667D01*
X11833571Y-34959286D01*
X11824048Y-34997381D01*
X11814524Y-35016429D01*
X11805000Y-35025952D01*
X11785952Y-35035476D01*
X11766905Y-35035476D01*
X11747857Y-35025952D01*
X11738333Y-35016429D01*
X11728809Y-34997381D01*
X11719286Y-34959286D01*
X11719286Y-34911667D01*
X11728809Y-34873571D01*
X11738333Y-34854524D01*
X11747857Y-34845000D01*
X11766905Y-34835476D01*
X11957381Y-34835476D02*
X11976428Y-34835476D01*
X11995476Y-34845000D01*
X12005000Y-34854524D01*
X12014524Y-34873571D01*
X12024048Y-34911667D01*
X12024048Y-34959286D01*
X12014524Y-34997381D01*
X12005000Y-35016429D01*
X11995476Y-35025952D01*
X11976428Y-35035476D01*
X11957381Y-35035476D01*
X11938333Y-35025952D01*
X11928809Y-35016429D01*
X11919286Y-34997381D01*
X11909762Y-34959286D01*
X11909762Y-34911667D01*
X11919286Y-34873571D01*
X11928809Y-34854524D01*
X11938333Y-34845000D01*
X11957381Y-34835476D01*
X12109762Y-35035476D02*
X12109762Y-34902143D01*
X12109762Y-34921190D02*
X12119286Y-34911667D01*
X12138333Y-34902143D01*
X12166905Y-34902143D01*
X12185952Y-34911667D01*
X12195476Y-34930714D01*
X12195476Y-35035476D01*
X12195476Y-34930714D02*
X12205000Y-34911667D01*
X12224048Y-34902143D01*
X12252619Y-34902143D01*
X12271667Y-34911667D01*
X12281190Y-34930714D01*
X12281190Y-35035476D01*
X12376428Y-35035476D02*
X12376428Y-34902143D01*
X12376428Y-34921190D02*
X12385952Y-34911667D01*
X12405000Y-34902143D01*
X12433571Y-34902143D01*
X12452619Y-34911667D01*
X12462143Y-34930714D01*
X12462143Y-35035476D01*
X12462143Y-34930714D02*
X12471667Y-34911667D01*
X12490714Y-34902143D01*
X12519286Y-34902143D01*
X12538333Y-34911667D01*
X12547857Y-34930714D01*
X12547857Y-35035476D01*
X12938333Y-34825952D02*
X12766905Y-35083095D01*
X13195476Y-34835476D02*
X13214524Y-34835476D01*
X13233571Y-34845000D01*
X13243095Y-34854524D01*
X13252619Y-34873571D01*
X13262143Y-34911667D01*
X13262143Y-34959286D01*
X13252619Y-34997381D01*
X13243095Y-35016429D01*
X13233571Y-35025952D01*
X13214524Y-35035476D01*
X13195476Y-35035476D01*
X13176428Y-35025952D01*
X13166905Y-35016429D01*
X13157381Y-34997381D01*
X13147857Y-34959286D01*
X13147857Y-34911667D01*
X13157381Y-34873571D01*
X13166905Y-34854524D01*
X13176428Y-34845000D01*
X13195476Y-34835476D01*
X13347857Y-35016429D02*
X13357381Y-35025952D01*
X13347857Y-35035476D01*
X13338333Y-35025952D01*
X13347857Y-35016429D01*
X13347857Y-35035476D01*
X13481190Y-34835476D02*
X13500238Y-34835476D01*
X13519286Y-34845000D01*
X13528809Y-34854524D01*
X13538333Y-34873571D01*
X13547857Y-34911667D01*
X13547857Y-34959286D01*
X13538333Y-34997381D01*
X13528809Y-35016429D01*
X13519286Y-35025952D01*
X13500238Y-35035476D01*
X13481190Y-35035476D01*
X13462143Y-35025952D01*
X13452619Y-35016429D01*
X13443095Y-34997381D01*
X13433571Y-34959286D01*
X13433571Y-34911667D01*
X13443095Y-34873571D01*
X13452619Y-34854524D01*
X13462143Y-34845000D01*
X13481190Y-34835476D01*
X13719286Y-34835476D02*
X13681190Y-34835476D01*
X13662143Y-34845000D01*
X13652619Y-34854524D01*
X13633571Y-34883095D01*
X13624048Y-34921190D01*
X13624048Y-34997381D01*
X13633571Y-35016429D01*
X13643095Y-35025952D01*
X13662143Y-35035476D01*
X13700238Y-35035476D01*
X13719286Y-35025952D01*
X13728809Y-35016429D01*
X13738333Y-34997381D01*
X13738333Y-34949762D01*
X13728809Y-34930714D01*
X13719286Y-34921190D01*
X13700238Y-34911667D01*
X13662143Y-34911667D01*
X13643095Y-34921190D01*
X13633571Y-34930714D01*
X13624048Y-34949762D01*
X13909762Y-34835476D02*
X13871667Y-34835476D01*
X13852619Y-34845000D01*
X13843095Y-34854524D01*
X13824048Y-34883095D01*
X13814524Y-34921190D01*
X13814524Y-34997381D01*
X13824048Y-35016429D01*
X13833571Y-35025952D01*
X13852619Y-35035476D01*
X13890714Y-35035476D01*
X13909762Y-35025952D01*
X13919286Y-35016429D01*
X13928809Y-34997381D01*
X13928809Y-34949762D01*
X13919286Y-34930714D01*
X13909762Y-34921190D01*
X13890714Y-34911667D01*
X13852619Y-34911667D01*
X13833571Y-34921190D01*
X13824048Y-34930714D01*
X13814524Y-34949762D01*
X14024048Y-35035476D02*
X14062143Y-35035476D01*
X14081190Y-35025952D01*
X14090714Y-35016429D01*
X14109762Y-34987857D01*
X14119286Y-34949762D01*
X14119286Y-34873571D01*
X14109762Y-34854524D01*
X14100238Y-34845000D01*
X14081190Y-34835476D01*
X14043095Y-34835476D01*
X14024048Y-34845000D01*
X14014524Y-34854524D01*
X14005000Y-34873571D01*
X14005000Y-34921190D01*
X14014524Y-34940238D01*
X14024048Y-34949762D01*
X14043095Y-34959286D01*
X14081190Y-34959286D01*
X14100238Y-34949762D01*
X14109762Y-34940238D01*
X14119286Y-34921190D01*
X14195476Y-34835476D02*
X14195476Y-34873571D01*
X14271667Y-34835476D02*
X14271667Y-34873571D01*
X14566905Y-35111667D02*
X14557381Y-35102143D01*
X14538333Y-35073571D01*
X14528809Y-35054524D01*
X14519286Y-35025952D01*
X14509762Y-34978333D01*
X14509762Y-34940238D01*
X14519286Y-34892619D01*
X14528809Y-34864048D01*
X14538333Y-34845000D01*
X14557381Y-34816429D01*
X14566905Y-34806905D01*
X14747857Y-35035476D02*
X14633571Y-35035476D01*
X14690714Y-35035476D02*
X14690714Y-34835476D01*
X14671667Y-34864048D01*
X14652619Y-34883095D01*
X14633571Y-34892619D01*
X14843095Y-35035476D02*
X14881190Y-35035476D01*
X14900238Y-35025952D01*
X14909762Y-35016429D01*
X14928809Y-34987857D01*
X14938333Y-34949762D01*
X14938333Y-34873571D01*
X14928809Y-34854524D01*
X14919286Y-34845000D01*
X14900238Y-34835476D01*
X14862143Y-34835476D01*
X14843095Y-34845000D01*
X14833571Y-34854524D01*
X14824048Y-34873571D01*
X14824048Y-34921190D01*
X14833571Y-34940238D01*
X14843095Y-34949762D01*
X14862143Y-34959286D01*
X14900238Y-34959286D01*
X14919286Y-34949762D01*
X14928809Y-34940238D01*
X14938333Y-34921190D01*
X15062143Y-34835476D02*
X15081190Y-34835476D01*
X15100238Y-34845000D01*
X15109762Y-34854524D01*
X15119286Y-34873571D01*
X15128809Y-34911667D01*
X15128809Y-34959286D01*
X15119286Y-34997381D01*
X15109762Y-35016429D01*
X15100238Y-35025952D01*
X15081190Y-35035476D01*
X15062143Y-35035476D01*
X15043095Y-35025952D01*
X15033571Y-35016429D01*
X15024048Y-34997381D01*
X15014524Y-34959286D01*
X15014524Y-34911667D01*
X15024048Y-34873571D01*
X15033571Y-34854524D01*
X15043095Y-34845000D01*
X15062143Y-34835476D01*
X15366905Y-35035476D02*
X15366905Y-34835476D01*
X15452619Y-35035476D02*
X15452619Y-34930714D01*
X15443095Y-34911667D01*
X15424048Y-34902143D01*
X15395476Y-34902143D01*
X15376428Y-34911667D01*
X15366905Y-34921190D01*
X15576428Y-35035476D02*
X15557381Y-35025952D01*
X15547857Y-35016429D01*
X15538333Y-34997381D01*
X15538333Y-34940238D01*
X15547857Y-34921190D01*
X15557381Y-34911667D01*
X15576428Y-34902143D01*
X15605000Y-34902143D01*
X15624048Y-34911667D01*
X15633571Y-34921190D01*
X15643095Y-34940238D01*
X15643095Y-34997381D01*
X15633571Y-35016429D01*
X15624048Y-35025952D01*
X15605000Y-35035476D01*
X15576428Y-35035476D01*
X15757381Y-35035476D02*
X15738333Y-35025952D01*
X15728809Y-35006905D01*
X15728809Y-34835476D01*
X15909762Y-35025952D02*
X15890714Y-35035476D01*
X15852619Y-35035476D01*
X15833571Y-35025952D01*
X15824048Y-35006905D01*
X15824048Y-34930714D01*
X15833571Y-34911667D01*
X15852619Y-34902143D01*
X15890714Y-34902143D01*
X15909762Y-34911667D01*
X15919286Y-34930714D01*
X15919286Y-34949762D01*
X15824048Y-34968810D01*
X15995476Y-35025952D02*
X16014524Y-35035476D01*
X16052619Y-35035476D01*
X16071667Y-35025952D01*
X16081190Y-35006905D01*
X16081190Y-34997381D01*
X16071667Y-34978333D01*
X16052619Y-34968810D01*
X16024048Y-34968810D01*
X16005000Y-34959286D01*
X15995476Y-34940238D01*
X15995476Y-34930714D01*
X16005000Y-34911667D01*
X16024048Y-34902143D01*
X16052619Y-34902143D01*
X16071667Y-34911667D01*
X16147857Y-35111667D02*
X16157381Y-35102143D01*
X16176428Y-35073571D01*
X16185952Y-35054524D01*
X16195476Y-35025952D01*
X16205000Y-34978333D01*
X16205000Y-34940238D01*
X16195476Y-34892619D01*
X16185952Y-34864048D01*
X16176428Y-34845000D01*
X16157381Y-34816429D01*
X16147857Y-34806905D01*
X16509762Y-35111667D02*
X16500238Y-35102143D01*
X16481190Y-35073571D01*
X16471667Y-35054524D01*
X16462143Y-35025952D01*
X16452619Y-34978333D01*
X16452619Y-34940238D01*
X16462143Y-34892619D01*
X16471667Y-34864048D01*
X16481190Y-34845000D01*
X16500238Y-34816429D01*
X16509762Y-34806905D01*
X16585952Y-34902143D02*
X16585952Y-35035476D01*
X16585952Y-34921190D02*
X16595476Y-34911667D01*
X16614524Y-34902143D01*
X16643095Y-34902143D01*
X16662143Y-34911667D01*
X16671667Y-34930714D01*
X16671667Y-35035476D01*
X16795476Y-35035476D02*
X16776428Y-35025952D01*
X16766905Y-35016429D01*
X16757381Y-34997381D01*
X16757381Y-34940238D01*
X16766905Y-34921190D01*
X16776428Y-34911667D01*
X16795476Y-34902143D01*
X16824048Y-34902143D01*
X16843095Y-34911667D01*
X16852619Y-34921190D01*
X16862143Y-34940238D01*
X16862143Y-34997381D01*
X16852619Y-35016429D01*
X16843095Y-35025952D01*
X16824048Y-35035476D01*
X16795476Y-35035476D01*
X16919286Y-34902143D02*
X16995476Y-34902143D01*
X16947857Y-34835476D02*
X16947857Y-35006905D01*
X16957381Y-35025952D01*
X16976429Y-35035476D01*
X16995476Y-35035476D01*
X17214524Y-34902143D02*
X17214524Y-35102143D01*
X17214524Y-34911667D02*
X17233571Y-34902143D01*
X17271667Y-34902143D01*
X17290714Y-34911667D01*
X17300238Y-34921190D01*
X17309762Y-34940238D01*
X17309762Y-34997381D01*
X17300238Y-35016429D01*
X17290714Y-35025952D01*
X17271667Y-35035476D01*
X17233571Y-35035476D01*
X17214524Y-35025952D01*
X17424048Y-35035476D02*
X17405000Y-35025952D01*
X17395476Y-35006905D01*
X17395476Y-34835476D01*
X17585952Y-35035476D02*
X17585952Y-34930714D01*
X17576429Y-34911667D01*
X17557381Y-34902143D01*
X17519286Y-34902143D01*
X17500238Y-34911667D01*
X17585952Y-35025952D02*
X17566905Y-35035476D01*
X17519286Y-35035476D01*
X17500238Y-35025952D01*
X17490714Y-35006905D01*
X17490714Y-34987857D01*
X17500238Y-34968810D01*
X17519286Y-34959286D01*
X17566905Y-34959286D01*
X17585952Y-34949762D01*
X17652619Y-34902143D02*
X17728810Y-34902143D01*
X17681190Y-34835476D02*
X17681190Y-35006905D01*
X17690714Y-35025952D01*
X17709762Y-35035476D01*
X17728810Y-35035476D01*
X17871667Y-35025952D02*
X17852619Y-35035476D01*
X17814524Y-35035476D01*
X17795476Y-35025952D01*
X17785952Y-35006905D01*
X17785952Y-34930714D01*
X17795476Y-34911667D01*
X17814524Y-34902143D01*
X17852619Y-34902143D01*
X17871667Y-34911667D01*
X17881190Y-34930714D01*
X17881190Y-34949762D01*
X17785952Y-34968810D01*
X18052619Y-35035476D02*
X18052619Y-34835476D01*
X18052619Y-35025952D02*
X18033571Y-35035476D01*
X17995476Y-35035476D01*
X17976429Y-35025952D01*
X17966905Y-35016429D01*
X17957381Y-34997381D01*
X17957381Y-34940238D01*
X17966905Y-34921190D01*
X17976429Y-34911667D01*
X17995476Y-34902143D01*
X18033571Y-34902143D01*
X18052619Y-34911667D01*
X18128810Y-35111667D02*
X18138333Y-35102143D01*
X18157381Y-35073571D01*
X18166905Y-35054524D01*
X18176429Y-35025952D01*
X18185952Y-34978333D01*
X18185952Y-34940238D01*
X18176429Y-34892619D01*
X18166905Y-34864048D01*
X18157381Y-34845000D01*
X18138333Y-34816429D01*
X18128810Y-34806905D01*
X10995000Y-35235000D02*
G75*
G03*
X10995000Y-35235000I-100000J0D01*
G01*
X11243095Y-35144524D02*
X11252619Y-35135000D01*
X11271667Y-35125476D01*
X11319286Y-35125476D01*
X11338333Y-35135000D01*
X11347857Y-35144524D01*
X11357381Y-35163571D01*
X11357381Y-35182619D01*
X11347857Y-35211190D01*
X11233571Y-35325476D01*
X11357381Y-35325476D01*
X11443095Y-35306429D02*
X11452619Y-35315952D01*
X11443095Y-35325476D01*
X11433571Y-35315952D01*
X11443095Y-35306429D01*
X11443095Y-35325476D01*
X11643095Y-35325476D02*
X11528809Y-35325476D01*
X11585952Y-35325476D02*
X11585952Y-35125476D01*
X11566905Y-35154048D01*
X11547857Y-35173095D01*
X11528809Y-35182619D01*
X11766905Y-35125476D02*
X11785952Y-35125476D01*
X11805000Y-35135000D01*
X11814524Y-35144524D01*
X11824048Y-35163571D01*
X11833571Y-35201667D01*
X11833571Y-35249286D01*
X11824048Y-35287381D01*
X11814524Y-35306429D01*
X11805000Y-35315952D01*
X11785952Y-35325476D01*
X11766905Y-35325476D01*
X11747857Y-35315952D01*
X11738333Y-35306429D01*
X11728809Y-35287381D01*
X11719286Y-35249286D01*
X11719286Y-35201667D01*
X11728809Y-35163571D01*
X11738333Y-35144524D01*
X11747857Y-35135000D01*
X11766905Y-35125476D01*
X11957381Y-35125476D02*
X11976428Y-35125476D01*
X11995476Y-35135000D01*
X12005000Y-35144524D01*
X12014524Y-35163571D01*
X12024048Y-35201667D01*
X12024048Y-35249286D01*
X12014524Y-35287381D01*
X12005000Y-35306429D01*
X11995476Y-35315952D01*
X11976428Y-35325476D01*
X11957381Y-35325476D01*
X11938333Y-35315952D01*
X11928809Y-35306429D01*
X11919286Y-35287381D01*
X11909762Y-35249286D01*
X11909762Y-35201667D01*
X11919286Y-35163571D01*
X11928809Y-35144524D01*
X11938333Y-35135000D01*
X11957381Y-35125476D01*
X12109762Y-35325476D02*
X12109762Y-35192143D01*
X12109762Y-35211190D02*
X12119286Y-35201667D01*
X12138333Y-35192143D01*
X12166905Y-35192143D01*
X12185952Y-35201667D01*
X12195476Y-35220714D01*
X12195476Y-35325476D01*
X12195476Y-35220714D02*
X12205000Y-35201667D01*
X12224048Y-35192143D01*
X12252619Y-35192143D01*
X12271667Y-35201667D01*
X12281190Y-35220714D01*
X12281190Y-35325476D01*
X12376428Y-35325476D02*
X12376428Y-35192143D01*
X12376428Y-35211190D02*
X12385952Y-35201667D01*
X12405000Y-35192143D01*
X12433571Y-35192143D01*
X12452619Y-35201667D01*
X12462143Y-35220714D01*
X12462143Y-35325476D01*
X12462143Y-35220714D02*
X12471667Y-35201667D01*
X12490714Y-35192143D01*
X12519286Y-35192143D01*
X12538333Y-35201667D01*
X12547857Y-35220714D01*
X12547857Y-35325476D01*
X12938333Y-35115952D02*
X12766905Y-35373095D01*
X13195476Y-35125476D02*
X13214524Y-35125476D01*
X13233571Y-35135000D01*
X13243095Y-35144524D01*
X13252619Y-35163571D01*
X13262143Y-35201667D01*
X13262143Y-35249286D01*
X13252619Y-35287381D01*
X13243095Y-35306429D01*
X13233571Y-35315952D01*
X13214524Y-35325476D01*
X13195476Y-35325476D01*
X13176428Y-35315952D01*
X13166905Y-35306429D01*
X13157381Y-35287381D01*
X13147857Y-35249286D01*
X13147857Y-35201667D01*
X13157381Y-35163571D01*
X13166905Y-35144524D01*
X13176428Y-35135000D01*
X13195476Y-35125476D01*
X13347857Y-35306429D02*
X13357381Y-35315952D01*
X13347857Y-35325476D01*
X13338333Y-35315952D01*
X13347857Y-35306429D01*
X13347857Y-35325476D01*
X13481190Y-35125476D02*
X13500238Y-35125476D01*
X13519286Y-35135000D01*
X13528809Y-35144524D01*
X13538333Y-35163571D01*
X13547857Y-35201667D01*
X13547857Y-35249286D01*
X13538333Y-35287381D01*
X13528809Y-35306429D01*
X13519286Y-35315952D01*
X13500238Y-35325476D01*
X13481190Y-35325476D01*
X13462143Y-35315952D01*
X13452619Y-35306429D01*
X13443095Y-35287381D01*
X13433571Y-35249286D01*
X13433571Y-35201667D01*
X13443095Y-35163571D01*
X13452619Y-35144524D01*
X13462143Y-35135000D01*
X13481190Y-35125476D01*
X13662143Y-35211190D02*
X13643095Y-35201667D01*
X13633571Y-35192143D01*
X13624048Y-35173095D01*
X13624048Y-35163571D01*
X13633571Y-35144524D01*
X13643095Y-35135000D01*
X13662143Y-35125476D01*
X13700238Y-35125476D01*
X13719286Y-35135000D01*
X13728809Y-35144524D01*
X13738333Y-35163571D01*
X13738333Y-35173095D01*
X13728809Y-35192143D01*
X13719286Y-35201667D01*
X13700238Y-35211190D01*
X13662143Y-35211190D01*
X13643095Y-35220714D01*
X13633571Y-35230238D01*
X13624048Y-35249286D01*
X13624048Y-35287381D01*
X13633571Y-35306429D01*
X13643095Y-35315952D01*
X13662143Y-35325476D01*
X13700238Y-35325476D01*
X13719286Y-35315952D01*
X13728809Y-35306429D01*
X13738333Y-35287381D01*
X13738333Y-35249286D01*
X13728809Y-35230238D01*
X13719286Y-35220714D01*
X13700238Y-35211190D01*
X13814524Y-35144524D02*
X13824048Y-35135000D01*
X13843095Y-35125476D01*
X13890714Y-35125476D01*
X13909762Y-35135000D01*
X13919286Y-35144524D01*
X13928809Y-35163571D01*
X13928809Y-35182619D01*
X13919286Y-35211190D01*
X13805000Y-35325476D01*
X13928809Y-35325476D01*
X13995476Y-35125476D02*
X14128809Y-35125476D01*
X14043095Y-35325476D01*
X14195476Y-35125476D02*
X14195476Y-35163571D01*
X14271667Y-35125476D02*
X14271667Y-35163571D01*
X14566905Y-35401667D02*
X14557381Y-35392143D01*
X14538333Y-35363571D01*
X14528809Y-35344524D01*
X14519286Y-35315952D01*
X14509762Y-35268333D01*
X14509762Y-35230238D01*
X14519286Y-35182619D01*
X14528809Y-35154048D01*
X14538333Y-35135000D01*
X14557381Y-35106429D01*
X14566905Y-35096905D01*
X14728809Y-35192143D02*
X14728809Y-35325476D01*
X14681190Y-35115952D02*
X14633571Y-35258810D01*
X14757381Y-35258810D01*
X14985952Y-35325476D02*
X14985952Y-35125476D01*
X15071667Y-35325476D02*
X15071667Y-35220714D01*
X15062143Y-35201667D01*
X15043095Y-35192143D01*
X15014524Y-35192143D01*
X14995476Y-35201667D01*
X14985952Y-35211190D01*
X15195476Y-35325476D02*
X15176428Y-35315952D01*
X15166905Y-35306429D01*
X15157381Y-35287381D01*
X15157381Y-35230238D01*
X15166905Y-35211190D01*
X15176428Y-35201667D01*
X15195476Y-35192143D01*
X15224048Y-35192143D01*
X15243095Y-35201667D01*
X15252619Y-35211190D01*
X15262143Y-35230238D01*
X15262143Y-35287381D01*
X15252619Y-35306429D01*
X15243095Y-35315952D01*
X15224048Y-35325476D01*
X15195476Y-35325476D01*
X15376428Y-35325476D02*
X15357381Y-35315952D01*
X15347857Y-35296905D01*
X15347857Y-35125476D01*
X15528809Y-35315952D02*
X15509762Y-35325476D01*
X15471667Y-35325476D01*
X15452619Y-35315952D01*
X15443095Y-35296905D01*
X15443095Y-35220714D01*
X15452619Y-35201667D01*
X15471667Y-35192143D01*
X15509762Y-35192143D01*
X15528809Y-35201667D01*
X15538333Y-35220714D01*
X15538333Y-35239762D01*
X15443095Y-35258810D01*
X15614524Y-35315952D02*
X15633571Y-35325476D01*
X15671667Y-35325476D01*
X15690714Y-35315952D01*
X15700238Y-35296905D01*
X15700238Y-35287381D01*
X15690714Y-35268333D01*
X15671667Y-35258810D01*
X15643095Y-35258810D01*
X15624048Y-35249286D01*
X15614524Y-35230238D01*
X15614524Y-35220714D01*
X15624048Y-35201667D01*
X15643095Y-35192143D01*
X15671667Y-35192143D01*
X15690714Y-35201667D01*
X15766905Y-35401667D02*
X15776428Y-35392143D01*
X15795476Y-35363571D01*
X15805000Y-35344524D01*
X15814524Y-35315952D01*
X15824048Y-35268333D01*
X15824048Y-35230238D01*
X15814524Y-35182619D01*
X15805000Y-35154048D01*
X15795476Y-35135000D01*
X15776428Y-35106429D01*
X15766905Y-35096905D01*
X16128809Y-35401667D02*
X16119286Y-35392143D01*
X16100238Y-35363571D01*
X16090714Y-35344524D01*
X16081190Y-35315952D01*
X16071667Y-35268333D01*
X16071667Y-35230238D01*
X16081190Y-35182619D01*
X16090714Y-35154048D01*
X16100238Y-35135000D01*
X16119286Y-35106429D01*
X16128809Y-35096905D01*
X16205000Y-35192143D02*
X16205000Y-35325476D01*
X16205000Y-35211190D02*
X16214524Y-35201667D01*
X16233571Y-35192143D01*
X16262143Y-35192143D01*
X16281190Y-35201667D01*
X16290714Y-35220714D01*
X16290714Y-35325476D01*
X16414524Y-35325476D02*
X16395476Y-35315952D01*
X16385952Y-35306429D01*
X16376428Y-35287381D01*
X16376428Y-35230238D01*
X16385952Y-35211190D01*
X16395476Y-35201667D01*
X16414524Y-35192143D01*
X16443095Y-35192143D01*
X16462143Y-35201667D01*
X16471667Y-35211190D01*
X16481190Y-35230238D01*
X16481190Y-35287381D01*
X16471667Y-35306429D01*
X16462143Y-35315952D01*
X16443095Y-35325476D01*
X16414524Y-35325476D01*
X16538333Y-35192143D02*
X16614524Y-35192143D01*
X16566905Y-35125476D02*
X16566905Y-35296905D01*
X16576428Y-35315952D01*
X16595476Y-35325476D01*
X16614524Y-35325476D01*
X16833571Y-35192143D02*
X16833571Y-35392143D01*
X16833571Y-35201667D02*
X16852619Y-35192143D01*
X16890714Y-35192143D01*
X16909762Y-35201667D01*
X16919286Y-35211190D01*
X16928810Y-35230238D01*
X16928810Y-35287381D01*
X16919286Y-35306429D01*
X16909762Y-35315952D01*
X16890714Y-35325476D01*
X16852619Y-35325476D01*
X16833571Y-35315952D01*
X17043095Y-35325476D02*
X17024048Y-35315952D01*
X17014524Y-35296905D01*
X17014524Y-35125476D01*
X17205000Y-35325476D02*
X17205000Y-35220714D01*
X17195476Y-35201667D01*
X17176429Y-35192143D01*
X17138333Y-35192143D01*
X17119286Y-35201667D01*
X17205000Y-35315952D02*
X17185952Y-35325476D01*
X17138333Y-35325476D01*
X17119286Y-35315952D01*
X17109762Y-35296905D01*
X17109762Y-35277857D01*
X17119286Y-35258810D01*
X17138333Y-35249286D01*
X17185952Y-35249286D01*
X17205000Y-35239762D01*
X17271667Y-35192143D02*
X17347857Y-35192143D01*
X17300238Y-35125476D02*
X17300238Y-35296905D01*
X17309762Y-35315952D01*
X17328810Y-35325476D01*
X17347857Y-35325476D01*
X17490714Y-35315952D02*
X17471667Y-35325476D01*
X17433571Y-35325476D01*
X17414524Y-35315952D01*
X17405000Y-35296905D01*
X17405000Y-35220714D01*
X17414524Y-35201667D01*
X17433571Y-35192143D01*
X17471667Y-35192143D01*
X17490714Y-35201667D01*
X17500238Y-35220714D01*
X17500238Y-35239762D01*
X17405000Y-35258810D01*
X17671667Y-35325476D02*
X17671667Y-35125476D01*
X17671667Y-35315952D02*
X17652619Y-35325476D01*
X17614524Y-35325476D01*
X17595476Y-35315952D01*
X17585952Y-35306429D01*
X17576429Y-35287381D01*
X17576429Y-35230238D01*
X17585952Y-35211190D01*
X17595476Y-35201667D01*
X17614524Y-35192143D01*
X17652619Y-35192143D01*
X17671667Y-35201667D01*
X17747857Y-35401667D02*
X17757381Y-35392143D01*
X17776429Y-35363571D01*
X17785952Y-35344524D01*
X17795476Y-35315952D01*
X17805000Y-35268333D01*
X17805000Y-35230238D01*
X17795476Y-35182619D01*
X17785952Y-35154048D01*
X17776429Y-35135000D01*
X17757381Y-35106429D01*
X17747857Y-35096905D01*
X10895000Y-35455000D02*
X10895000Y-35655000D01*
X10795000Y-35555000D02*
X10995000Y-35555000D01*
X11233571Y-35445476D02*
X11357381Y-35445476D01*
X11290714Y-35521667D01*
X11319286Y-35521667D01*
X11338333Y-35531190D01*
X11347857Y-35540714D01*
X11357381Y-35559762D01*
X11357381Y-35607381D01*
X11347857Y-35626429D01*
X11338333Y-35635952D01*
X11319286Y-35645476D01*
X11262143Y-35645476D01*
X11243095Y-35635952D01*
X11233571Y-35626429D01*
X11443095Y-35626429D02*
X11452619Y-35635952D01*
X11443095Y-35645476D01*
X11433571Y-35635952D01*
X11443095Y-35626429D01*
X11443095Y-35645476D01*
X11576428Y-35445476D02*
X11595476Y-35445476D01*
X11614524Y-35455000D01*
X11624048Y-35464524D01*
X11633571Y-35483571D01*
X11643095Y-35521667D01*
X11643095Y-35569286D01*
X11633571Y-35607381D01*
X11624048Y-35626429D01*
X11614524Y-35635952D01*
X11595476Y-35645476D01*
X11576428Y-35645476D01*
X11557381Y-35635952D01*
X11547857Y-35626429D01*
X11538333Y-35607381D01*
X11528809Y-35569286D01*
X11528809Y-35521667D01*
X11538333Y-35483571D01*
X11547857Y-35464524D01*
X11557381Y-35455000D01*
X11576428Y-35445476D01*
X11814524Y-35512143D02*
X11814524Y-35645476D01*
X11766905Y-35435952D02*
X11719286Y-35578810D01*
X11843095Y-35578810D01*
X11947857Y-35531190D02*
X11928809Y-35521667D01*
X11919286Y-35512143D01*
X11909762Y-35493095D01*
X11909762Y-35483571D01*
X11919286Y-35464524D01*
X11928809Y-35455000D01*
X11947857Y-35445476D01*
X11985952Y-35445476D01*
X12005000Y-35455000D01*
X12014524Y-35464524D01*
X12024048Y-35483571D01*
X12024048Y-35493095D01*
X12014524Y-35512143D01*
X12005000Y-35521667D01*
X11985952Y-35531190D01*
X11947857Y-35531190D01*
X11928809Y-35540714D01*
X11919286Y-35550238D01*
X11909762Y-35569286D01*
X11909762Y-35607381D01*
X11919286Y-35626429D01*
X11928809Y-35635952D01*
X11947857Y-35645476D01*
X11985952Y-35645476D01*
X12005000Y-35635952D01*
X12014524Y-35626429D01*
X12024048Y-35607381D01*
X12024048Y-35569286D01*
X12014524Y-35550238D01*
X12005000Y-35540714D01*
X11985952Y-35531190D01*
X12109762Y-35645476D02*
X12109762Y-35512143D01*
X12109762Y-35531190D02*
X12119286Y-35521667D01*
X12138333Y-35512143D01*
X12166905Y-35512143D01*
X12185952Y-35521667D01*
X12195476Y-35540714D01*
X12195476Y-35645476D01*
X12195476Y-35540714D02*
X12205000Y-35521667D01*
X12224048Y-35512143D01*
X12252619Y-35512143D01*
X12271667Y-35521667D01*
X12281190Y-35540714D01*
X12281190Y-35645476D01*
X12376428Y-35645476D02*
X12376428Y-35512143D01*
X12376428Y-35531190D02*
X12385952Y-35521667D01*
X12405000Y-35512143D01*
X12433571Y-35512143D01*
X12452619Y-35521667D01*
X12462143Y-35540714D01*
X12462143Y-35645476D01*
X12462143Y-35540714D02*
X12471667Y-35521667D01*
X12490714Y-35512143D01*
X12519286Y-35512143D01*
X12538333Y-35521667D01*
X12547857Y-35540714D01*
X12547857Y-35645476D01*
X12938333Y-35435952D02*
X12766905Y-35693095D01*
X13195476Y-35445476D02*
X13214524Y-35445476D01*
X13233571Y-35455000D01*
X13243095Y-35464524D01*
X13252619Y-35483571D01*
X13262143Y-35521667D01*
X13262143Y-35569286D01*
X13252619Y-35607381D01*
X13243095Y-35626429D01*
X13233571Y-35635952D01*
X13214524Y-35645476D01*
X13195476Y-35645476D01*
X13176428Y-35635952D01*
X13166905Y-35626429D01*
X13157381Y-35607381D01*
X13147857Y-35569286D01*
X13147857Y-35521667D01*
X13157381Y-35483571D01*
X13166905Y-35464524D01*
X13176428Y-35455000D01*
X13195476Y-35445476D01*
X13347857Y-35626429D02*
X13357381Y-35635952D01*
X13347857Y-35645476D01*
X13338333Y-35635952D01*
X13347857Y-35626429D01*
X13347857Y-35645476D01*
X13547857Y-35645476D02*
X13433571Y-35645476D01*
X13490714Y-35645476D02*
X13490714Y-35445476D01*
X13471667Y-35474048D01*
X13452619Y-35493095D01*
X13433571Y-35502619D01*
X13624048Y-35464524D02*
X13633571Y-35455000D01*
X13652619Y-35445476D01*
X13700238Y-35445476D01*
X13719286Y-35455000D01*
X13728809Y-35464524D01*
X13738333Y-35483571D01*
X13738333Y-35502619D01*
X13728809Y-35531190D01*
X13614524Y-35645476D01*
X13738333Y-35645476D01*
X13862143Y-35445476D02*
X13881190Y-35445476D01*
X13900238Y-35455000D01*
X13909762Y-35464524D01*
X13919286Y-35483571D01*
X13928809Y-35521667D01*
X13928809Y-35569286D01*
X13919286Y-35607381D01*
X13909762Y-35626429D01*
X13900238Y-35635952D01*
X13881190Y-35645476D01*
X13862143Y-35645476D01*
X13843095Y-35635952D01*
X13833571Y-35626429D01*
X13824048Y-35607381D01*
X13814524Y-35569286D01*
X13814524Y-35521667D01*
X13824048Y-35483571D01*
X13833571Y-35464524D01*
X13843095Y-35455000D01*
X13862143Y-35445476D01*
X14052619Y-35445476D02*
X14071667Y-35445476D01*
X14090714Y-35455000D01*
X14100238Y-35464524D01*
X14109762Y-35483571D01*
X14119286Y-35521667D01*
X14119286Y-35569286D01*
X14109762Y-35607381D01*
X14100238Y-35626429D01*
X14090714Y-35635952D01*
X14071667Y-35645476D01*
X14052619Y-35645476D01*
X14033571Y-35635952D01*
X14024048Y-35626429D01*
X14014524Y-35607381D01*
X14005000Y-35569286D01*
X14005000Y-35521667D01*
X14014524Y-35483571D01*
X14024048Y-35464524D01*
X14033571Y-35455000D01*
X14052619Y-35445476D01*
X14195476Y-35445476D02*
X14195476Y-35483571D01*
X14271667Y-35445476D02*
X14271667Y-35483571D01*
X14566905Y-35721667D02*
X14557381Y-35712143D01*
X14538333Y-35683571D01*
X14528809Y-35664524D01*
X14519286Y-35635952D01*
X14509762Y-35588333D01*
X14509762Y-35550238D01*
X14519286Y-35502619D01*
X14528809Y-35474048D01*
X14538333Y-35455000D01*
X14557381Y-35426429D01*
X14566905Y-35416905D01*
X14747857Y-35645476D02*
X14633571Y-35645476D01*
X14690714Y-35645476D02*
X14690714Y-35445476D01*
X14671667Y-35474048D01*
X14652619Y-35493095D01*
X14633571Y-35502619D01*
X14919286Y-35512143D02*
X14919286Y-35645476D01*
X14871667Y-35435952D02*
X14824048Y-35578810D01*
X14947857Y-35578810D01*
X15176428Y-35645476D02*
X15176428Y-35445476D01*
X15262143Y-35645476D02*
X15262143Y-35540714D01*
X15252619Y-35521667D01*
X15233571Y-35512143D01*
X15205000Y-35512143D01*
X15185952Y-35521667D01*
X15176428Y-35531190D01*
X15385952Y-35645476D02*
X15366905Y-35635952D01*
X15357381Y-35626429D01*
X15347857Y-35607381D01*
X15347857Y-35550238D01*
X15357381Y-35531190D01*
X15366905Y-35521667D01*
X15385952Y-35512143D01*
X15414524Y-35512143D01*
X15433571Y-35521667D01*
X15443095Y-35531190D01*
X15452619Y-35550238D01*
X15452619Y-35607381D01*
X15443095Y-35626429D01*
X15433571Y-35635952D01*
X15414524Y-35645476D01*
X15385952Y-35645476D01*
X15566905Y-35645476D02*
X15547857Y-35635952D01*
X15538333Y-35616905D01*
X15538333Y-35445476D01*
X15719286Y-35635952D02*
X15700238Y-35645476D01*
X15662143Y-35645476D01*
X15643095Y-35635952D01*
X15633571Y-35616905D01*
X15633571Y-35540714D01*
X15643095Y-35521667D01*
X15662143Y-35512143D01*
X15700238Y-35512143D01*
X15719286Y-35521667D01*
X15728809Y-35540714D01*
X15728809Y-35559762D01*
X15633571Y-35578810D01*
X15805000Y-35635952D02*
X15824048Y-35645476D01*
X15862143Y-35645476D01*
X15881190Y-35635952D01*
X15890714Y-35616905D01*
X15890714Y-35607381D01*
X15881190Y-35588333D01*
X15862143Y-35578810D01*
X15833571Y-35578810D01*
X15814524Y-35569286D01*
X15805000Y-35550238D01*
X15805000Y-35540714D01*
X15814524Y-35521667D01*
X15833571Y-35512143D01*
X15862143Y-35512143D01*
X15881190Y-35521667D01*
X15957381Y-35721667D02*
X15966905Y-35712143D01*
X15985952Y-35683571D01*
X15995476Y-35664524D01*
X16005000Y-35635952D01*
X16014524Y-35588333D01*
X16014524Y-35550238D01*
X16005000Y-35502619D01*
X15995476Y-35474048D01*
X15985952Y-35455000D01*
X15966905Y-35426429D01*
X15957381Y-35416905D01*
X16319286Y-35721667D02*
X16309762Y-35712143D01*
X16290714Y-35683571D01*
X16281190Y-35664524D01*
X16271667Y-35635952D01*
X16262143Y-35588333D01*
X16262143Y-35550238D01*
X16271667Y-35502619D01*
X16281190Y-35474048D01*
X16290714Y-35455000D01*
X16309762Y-35426429D01*
X16319286Y-35416905D01*
X16395476Y-35512143D02*
X16395476Y-35645476D01*
X16395476Y-35531190D02*
X16405000Y-35521667D01*
X16424048Y-35512143D01*
X16452619Y-35512143D01*
X16471667Y-35521667D01*
X16481190Y-35540714D01*
X16481190Y-35645476D01*
X16605000Y-35645476D02*
X16585952Y-35635952D01*
X16576428Y-35626429D01*
X16566905Y-35607381D01*
X16566905Y-35550238D01*
X16576428Y-35531190D01*
X16585952Y-35521667D01*
X16605000Y-35512143D01*
X16633571Y-35512143D01*
X16652619Y-35521667D01*
X16662143Y-35531190D01*
X16671667Y-35550238D01*
X16671667Y-35607381D01*
X16662143Y-35626429D01*
X16652619Y-35635952D01*
X16633571Y-35645476D01*
X16605000Y-35645476D01*
X16728809Y-35512143D02*
X16805000Y-35512143D01*
X16757381Y-35445476D02*
X16757381Y-35616905D01*
X16766905Y-35635952D01*
X16785952Y-35645476D01*
X16805000Y-35645476D01*
X17024048Y-35512143D02*
X17024048Y-35712143D01*
X17024048Y-35521667D02*
X17043095Y-35512143D01*
X17081190Y-35512143D01*
X17100238Y-35521667D01*
X17109762Y-35531190D01*
X17119286Y-35550238D01*
X17119286Y-35607381D01*
X17109762Y-35626429D01*
X17100238Y-35635952D01*
X17081190Y-35645476D01*
X17043095Y-35645476D01*
X17024048Y-35635952D01*
X17233571Y-35645476D02*
X17214524Y-35635952D01*
X17205000Y-35616905D01*
X17205000Y-35445476D01*
X17395476Y-35645476D02*
X17395476Y-35540714D01*
X17385952Y-35521667D01*
X17366905Y-35512143D01*
X17328810Y-35512143D01*
X17309762Y-35521667D01*
X17395476Y-35635952D02*
X17376429Y-35645476D01*
X17328810Y-35645476D01*
X17309762Y-35635952D01*
X17300238Y-35616905D01*
X17300238Y-35597857D01*
X17309762Y-35578810D01*
X17328810Y-35569286D01*
X17376429Y-35569286D01*
X17395476Y-35559762D01*
X17462143Y-35512143D02*
X17538333Y-35512143D01*
X17490714Y-35445476D02*
X17490714Y-35616905D01*
X17500238Y-35635952D01*
X17519286Y-35645476D01*
X17538333Y-35645476D01*
X17681190Y-35635952D02*
X17662143Y-35645476D01*
X17624048Y-35645476D01*
X17605000Y-35635952D01*
X17595476Y-35616905D01*
X17595476Y-35540714D01*
X17605000Y-35521667D01*
X17624048Y-35512143D01*
X17662143Y-35512143D01*
X17681190Y-35521667D01*
X17690714Y-35540714D01*
X17690714Y-35559762D01*
X17595476Y-35578810D01*
X17862143Y-35645476D02*
X17862143Y-35445476D01*
X17862143Y-35635952D02*
X17843095Y-35645476D01*
X17805000Y-35645476D01*
X17785952Y-35635952D01*
X17776429Y-35626429D01*
X17766905Y-35607381D01*
X17766905Y-35550238D01*
X17776429Y-35531190D01*
X17785952Y-35521667D01*
X17805000Y-35512143D01*
X17843095Y-35512143D01*
X17862143Y-35521667D01*
X17938333Y-35721667D02*
X17947857Y-35712143D01*
X17966905Y-35683571D01*
X17976429Y-35664524D01*
X17985952Y-35635952D01*
X17995476Y-35588333D01*
X17995476Y-35550238D01*
X17985952Y-35502619D01*
X17976429Y-35474048D01*
X17966905Y-35455000D01*
X17947857Y-35426429D01*
X17938333Y-35416905D01*
X10965711Y-35945711D02*
X10965711Y-35804289D01*
X10824289Y-35804289D01*
X10824289Y-35945711D01*
X10965711Y-35945711D01*
X11233571Y-35765476D02*
X11357381Y-35765476D01*
X11290714Y-35841667D01*
X11319286Y-35841667D01*
X11338333Y-35851190D01*
X11347857Y-35860714D01*
X11357381Y-35879762D01*
X11357381Y-35927381D01*
X11347857Y-35946429D01*
X11338333Y-35955952D01*
X11319286Y-35965476D01*
X11262143Y-35965476D01*
X11243095Y-35955952D01*
X11233571Y-35946429D01*
X11443095Y-35946429D02*
X11452619Y-35955952D01*
X11443095Y-35965476D01*
X11433571Y-35955952D01*
X11443095Y-35946429D01*
X11443095Y-35965476D01*
X11547857Y-35965476D02*
X11585952Y-35965476D01*
X11605000Y-35955952D01*
X11614524Y-35946429D01*
X11633571Y-35917857D01*
X11643095Y-35879762D01*
X11643095Y-35803571D01*
X11633571Y-35784524D01*
X11624048Y-35775000D01*
X11605000Y-35765476D01*
X11566905Y-35765476D01*
X11547857Y-35775000D01*
X11538333Y-35784524D01*
X11528809Y-35803571D01*
X11528809Y-35851190D01*
X11538333Y-35870238D01*
X11547857Y-35879762D01*
X11566905Y-35889286D01*
X11605000Y-35889286D01*
X11624048Y-35879762D01*
X11633571Y-35870238D01*
X11643095Y-35851190D01*
X11757381Y-35851190D02*
X11738333Y-35841667D01*
X11728809Y-35832143D01*
X11719286Y-35813095D01*
X11719286Y-35803571D01*
X11728809Y-35784524D01*
X11738333Y-35775000D01*
X11757381Y-35765476D01*
X11795476Y-35765476D01*
X11814524Y-35775000D01*
X11824048Y-35784524D01*
X11833571Y-35803571D01*
X11833571Y-35813095D01*
X11824048Y-35832143D01*
X11814524Y-35841667D01*
X11795476Y-35851190D01*
X11757381Y-35851190D01*
X11738333Y-35860714D01*
X11728809Y-35870238D01*
X11719286Y-35889286D01*
X11719286Y-35927381D01*
X11728809Y-35946429D01*
X11738333Y-35955952D01*
X11757381Y-35965476D01*
X11795476Y-35965476D01*
X11814524Y-35955952D01*
X11824048Y-35946429D01*
X11833571Y-35927381D01*
X11833571Y-35889286D01*
X11824048Y-35870238D01*
X11814524Y-35860714D01*
X11795476Y-35851190D01*
X11947857Y-35851190D02*
X11928809Y-35841667D01*
X11919286Y-35832143D01*
X11909762Y-35813095D01*
X11909762Y-35803571D01*
X11919286Y-35784524D01*
X11928809Y-35775000D01*
X11947857Y-35765476D01*
X11985952Y-35765476D01*
X12005000Y-35775000D01*
X12014524Y-35784524D01*
X12024048Y-35803571D01*
X12024048Y-35813095D01*
X12014524Y-35832143D01*
X12005000Y-35841667D01*
X11985952Y-35851190D01*
X11947857Y-35851190D01*
X11928809Y-35860714D01*
X11919286Y-35870238D01*
X11909762Y-35889286D01*
X11909762Y-35927381D01*
X11919286Y-35946429D01*
X11928809Y-35955952D01*
X11947857Y-35965476D01*
X11985952Y-35965476D01*
X12005000Y-35955952D01*
X12014524Y-35946429D01*
X12024048Y-35927381D01*
X12024048Y-35889286D01*
X12014524Y-35870238D01*
X12005000Y-35860714D01*
X11985952Y-35851190D01*
X12109762Y-35965476D02*
X12109762Y-35832143D01*
X12109762Y-35851190D02*
X12119286Y-35841667D01*
X12138333Y-35832143D01*
X12166905Y-35832143D01*
X12185952Y-35841667D01*
X12195476Y-35860714D01*
X12195476Y-35965476D01*
X12195476Y-35860714D02*
X12205000Y-35841667D01*
X12224048Y-35832143D01*
X12252619Y-35832143D01*
X12271667Y-35841667D01*
X12281190Y-35860714D01*
X12281190Y-35965476D01*
X12376428Y-35965476D02*
X12376428Y-35832143D01*
X12376428Y-35851190D02*
X12385952Y-35841667D01*
X12405000Y-35832143D01*
X12433571Y-35832143D01*
X12452619Y-35841667D01*
X12462143Y-35860714D01*
X12462143Y-35965476D01*
X12462143Y-35860714D02*
X12471667Y-35841667D01*
X12490714Y-35832143D01*
X12519286Y-35832143D01*
X12538333Y-35841667D01*
X12547857Y-35860714D01*
X12547857Y-35965476D01*
X12938333Y-35755952D02*
X12766905Y-36013095D01*
X13195476Y-35765476D02*
X13214524Y-35765476D01*
X13233571Y-35775000D01*
X13243095Y-35784524D01*
X13252619Y-35803571D01*
X13262143Y-35841667D01*
X13262143Y-35889286D01*
X13252619Y-35927381D01*
X13243095Y-35946429D01*
X13233571Y-35955952D01*
X13214524Y-35965476D01*
X13195476Y-35965476D01*
X13176428Y-35955952D01*
X13166905Y-35946429D01*
X13157381Y-35927381D01*
X13147857Y-35889286D01*
X13147857Y-35841667D01*
X13157381Y-35803571D01*
X13166905Y-35784524D01*
X13176428Y-35775000D01*
X13195476Y-35765476D01*
X13347857Y-35946429D02*
X13357381Y-35955952D01*
X13347857Y-35965476D01*
X13338333Y-35955952D01*
X13347857Y-35946429D01*
X13347857Y-35965476D01*
X13547857Y-35965476D02*
X13433571Y-35965476D01*
X13490714Y-35965476D02*
X13490714Y-35765476D01*
X13471667Y-35794048D01*
X13452619Y-35813095D01*
X13433571Y-35822619D01*
X13728809Y-35765476D02*
X13633571Y-35765476D01*
X13624048Y-35860714D01*
X13633571Y-35851190D01*
X13652619Y-35841667D01*
X13700238Y-35841667D01*
X13719286Y-35851190D01*
X13728809Y-35860714D01*
X13738333Y-35879762D01*
X13738333Y-35927381D01*
X13728809Y-35946429D01*
X13719286Y-35955952D01*
X13700238Y-35965476D01*
X13652619Y-35965476D01*
X13633571Y-35955952D01*
X13624048Y-35946429D01*
X13805000Y-35765476D02*
X13938333Y-35765476D01*
X13852619Y-35965476D01*
X14052619Y-35765476D02*
X14071667Y-35765476D01*
X14090714Y-35775000D01*
X14100238Y-35784524D01*
X14109762Y-35803571D01*
X14119286Y-35841667D01*
X14119286Y-35889286D01*
X14109762Y-35927381D01*
X14100238Y-35946429D01*
X14090714Y-35955952D01*
X14071667Y-35965476D01*
X14052619Y-35965476D01*
X14033571Y-35955952D01*
X14024048Y-35946429D01*
X14014524Y-35927381D01*
X14005000Y-35889286D01*
X14005000Y-35841667D01*
X14014524Y-35803571D01*
X14024048Y-35784524D01*
X14033571Y-35775000D01*
X14052619Y-35765476D01*
X14195476Y-35765476D02*
X14195476Y-35803571D01*
X14271667Y-35765476D02*
X14271667Y-35803571D01*
X14566905Y-36041667D02*
X14557381Y-36032143D01*
X14538333Y-36003571D01*
X14528809Y-35984524D01*
X14519286Y-35955952D01*
X14509762Y-35908333D01*
X14509762Y-35870238D01*
X14519286Y-35822619D01*
X14528809Y-35794048D01*
X14538333Y-35775000D01*
X14557381Y-35746429D01*
X14566905Y-35736905D01*
X14747857Y-35965476D02*
X14633571Y-35965476D01*
X14690714Y-35965476D02*
X14690714Y-35765476D01*
X14671667Y-35794048D01*
X14652619Y-35813095D01*
X14633571Y-35822619D01*
X14919286Y-35832143D02*
X14919286Y-35965476D01*
X14871667Y-35755952D02*
X14824048Y-35898810D01*
X14947857Y-35898810D01*
X15176428Y-35965476D02*
X15176428Y-35765476D01*
X15262143Y-35965476D02*
X15262143Y-35860714D01*
X15252619Y-35841667D01*
X15233571Y-35832143D01*
X15205000Y-35832143D01*
X15185952Y-35841667D01*
X15176428Y-35851190D01*
X15385952Y-35965476D02*
X15366905Y-35955952D01*
X15357381Y-35946429D01*
X15347857Y-35927381D01*
X15347857Y-35870238D01*
X15357381Y-35851190D01*
X15366905Y-35841667D01*
X15385952Y-35832143D01*
X15414524Y-35832143D01*
X15433571Y-35841667D01*
X15443095Y-35851190D01*
X15452619Y-35870238D01*
X15452619Y-35927381D01*
X15443095Y-35946429D01*
X15433571Y-35955952D01*
X15414524Y-35965476D01*
X15385952Y-35965476D01*
X15566905Y-35965476D02*
X15547857Y-35955952D01*
X15538333Y-35936905D01*
X15538333Y-35765476D01*
X15719286Y-35955952D02*
X15700238Y-35965476D01*
X15662143Y-35965476D01*
X15643095Y-35955952D01*
X15633571Y-35936905D01*
X15633571Y-35860714D01*
X15643095Y-35841667D01*
X15662143Y-35832143D01*
X15700238Y-35832143D01*
X15719286Y-35841667D01*
X15728809Y-35860714D01*
X15728809Y-35879762D01*
X15633571Y-35898810D01*
X15805000Y-35955952D02*
X15824048Y-35965476D01*
X15862143Y-35965476D01*
X15881190Y-35955952D01*
X15890714Y-35936905D01*
X15890714Y-35927381D01*
X15881190Y-35908333D01*
X15862143Y-35898810D01*
X15833571Y-35898810D01*
X15814524Y-35889286D01*
X15805000Y-35870238D01*
X15805000Y-35860714D01*
X15814524Y-35841667D01*
X15833571Y-35832143D01*
X15862143Y-35832143D01*
X15881190Y-35841667D01*
X15957381Y-36041667D02*
X15966905Y-36032143D01*
X15985952Y-36003571D01*
X15995476Y-35984524D01*
X16005000Y-35955952D01*
X16014524Y-35908333D01*
X16014524Y-35870238D01*
X16005000Y-35822619D01*
X15995476Y-35794048D01*
X15985952Y-35775000D01*
X15966905Y-35746429D01*
X15957381Y-35736905D01*
X16319286Y-36041667D02*
X16309762Y-36032143D01*
X16290714Y-36003571D01*
X16281190Y-35984524D01*
X16271667Y-35955952D01*
X16262143Y-35908333D01*
X16262143Y-35870238D01*
X16271667Y-35822619D01*
X16281190Y-35794048D01*
X16290714Y-35775000D01*
X16309762Y-35746429D01*
X16319286Y-35736905D01*
X16395476Y-35832143D02*
X16395476Y-35965476D01*
X16395476Y-35851190D02*
X16405000Y-35841667D01*
X16424048Y-35832143D01*
X16452619Y-35832143D01*
X16471667Y-35841667D01*
X16481190Y-35860714D01*
X16481190Y-35965476D01*
X16605000Y-35965476D02*
X16585952Y-35955952D01*
X16576428Y-35946429D01*
X16566905Y-35927381D01*
X16566905Y-35870238D01*
X16576428Y-35851190D01*
X16585952Y-35841667D01*
X16605000Y-35832143D01*
X16633571Y-35832143D01*
X16652619Y-35841667D01*
X16662143Y-35851190D01*
X16671667Y-35870238D01*
X16671667Y-35927381D01*
X16662143Y-35946429D01*
X16652619Y-35955952D01*
X16633571Y-35965476D01*
X16605000Y-35965476D01*
X16728809Y-35832143D02*
X16805000Y-35832143D01*
X16757381Y-35765476D02*
X16757381Y-35936905D01*
X16766905Y-35955952D01*
X16785952Y-35965476D01*
X16805000Y-35965476D01*
X17024048Y-35832143D02*
X17024048Y-36032143D01*
X17024048Y-35841667D02*
X17043095Y-35832143D01*
X17081190Y-35832143D01*
X17100238Y-35841667D01*
X17109762Y-35851190D01*
X17119286Y-35870238D01*
X17119286Y-35927381D01*
X17109762Y-35946429D01*
X17100238Y-35955952D01*
X17081190Y-35965476D01*
X17043095Y-35965476D01*
X17024048Y-35955952D01*
X17233571Y-35965476D02*
X17214524Y-35955952D01*
X17205000Y-35936905D01*
X17205000Y-35765476D01*
X17395476Y-35965476D02*
X17395476Y-35860714D01*
X17385952Y-35841667D01*
X17366905Y-35832143D01*
X17328810Y-35832143D01*
X17309762Y-35841667D01*
X17395476Y-35955952D02*
X17376429Y-35965476D01*
X17328810Y-35965476D01*
X17309762Y-35955952D01*
X17300238Y-35936905D01*
X17300238Y-35917857D01*
X17309762Y-35898810D01*
X17328810Y-35889286D01*
X17376429Y-35889286D01*
X17395476Y-35879762D01*
X17462143Y-35832143D02*
X17538333Y-35832143D01*
X17490714Y-35765476D02*
X17490714Y-35936905D01*
X17500238Y-35955952D01*
X17519286Y-35965476D01*
X17538333Y-35965476D01*
X17681190Y-35955952D02*
X17662143Y-35965476D01*
X17624048Y-35965476D01*
X17605000Y-35955952D01*
X17595476Y-35936905D01*
X17595476Y-35860714D01*
X17605000Y-35841667D01*
X17624048Y-35832143D01*
X17662143Y-35832143D01*
X17681190Y-35841667D01*
X17690714Y-35860714D01*
X17690714Y-35879762D01*
X17595476Y-35898810D01*
X17862143Y-35965476D02*
X17862143Y-35765476D01*
X17862143Y-35955952D02*
X17843095Y-35965476D01*
X17805000Y-35965476D01*
X17785952Y-35955952D01*
X17776429Y-35946429D01*
X17766905Y-35927381D01*
X17766905Y-35870238D01*
X17776429Y-35851190D01*
X17785952Y-35841667D01*
X17805000Y-35832143D01*
X17843095Y-35832143D01*
X17862143Y-35841667D01*
X17938333Y-36041667D02*
X17947857Y-36032143D01*
X17966905Y-36003571D01*
X17976429Y-35984524D01*
X17985952Y-35955952D01*
X17995476Y-35908333D01*
X17995476Y-35870238D01*
X17985952Y-35822619D01*
X17976429Y-35794048D01*
X17966905Y-35775000D01*
X17947857Y-35746429D01*
X17938333Y-35736905D01*
X10895000Y-36295000D02*
X10995000Y-36195000D01*
X10895000Y-36095000D01*
X10795000Y-36195000D01*
X10895000Y-36295000D01*
X11338333Y-36152143D02*
X11338333Y-36285476D01*
X11290714Y-36075952D02*
X11243095Y-36218810D01*
X11366905Y-36218810D01*
X11443095Y-36266429D02*
X11452619Y-36275952D01*
X11443095Y-36285476D01*
X11433571Y-36275952D01*
X11443095Y-36266429D01*
X11443095Y-36285476D01*
X11576428Y-36085476D02*
X11595476Y-36085476D01*
X11614524Y-36095000D01*
X11624048Y-36104524D01*
X11633571Y-36123571D01*
X11643095Y-36161667D01*
X11643095Y-36209286D01*
X11633571Y-36247381D01*
X11624048Y-36266429D01*
X11614524Y-36275952D01*
X11595476Y-36285476D01*
X11576428Y-36285476D01*
X11557381Y-36275952D01*
X11547857Y-36266429D01*
X11538333Y-36247381D01*
X11528809Y-36209286D01*
X11528809Y-36161667D01*
X11538333Y-36123571D01*
X11547857Y-36104524D01*
X11557381Y-36095000D01*
X11576428Y-36085476D01*
X11766905Y-36085476D02*
X11785952Y-36085476D01*
X11805000Y-36095000D01*
X11814524Y-36104524D01*
X11824048Y-36123571D01*
X11833571Y-36161667D01*
X11833571Y-36209286D01*
X11824048Y-36247381D01*
X11814524Y-36266429D01*
X11805000Y-36275952D01*
X11785952Y-36285476D01*
X11766905Y-36285476D01*
X11747857Y-36275952D01*
X11738333Y-36266429D01*
X11728809Y-36247381D01*
X11719286Y-36209286D01*
X11719286Y-36161667D01*
X11728809Y-36123571D01*
X11738333Y-36104524D01*
X11747857Y-36095000D01*
X11766905Y-36085476D01*
X11957381Y-36085476D02*
X11976428Y-36085476D01*
X11995476Y-36095000D01*
X12005000Y-36104524D01*
X12014524Y-36123571D01*
X12024048Y-36161667D01*
X12024048Y-36209286D01*
X12014524Y-36247381D01*
X12005000Y-36266429D01*
X11995476Y-36275952D01*
X11976428Y-36285476D01*
X11957381Y-36285476D01*
X11938333Y-36275952D01*
X11928809Y-36266429D01*
X11919286Y-36247381D01*
X11909762Y-36209286D01*
X11909762Y-36161667D01*
X11919286Y-36123571D01*
X11928809Y-36104524D01*
X11938333Y-36095000D01*
X11957381Y-36085476D01*
X12109762Y-36285476D02*
X12109762Y-36152143D01*
X12109762Y-36171190D02*
X12119286Y-36161667D01*
X12138333Y-36152143D01*
X12166905Y-36152143D01*
X12185952Y-36161667D01*
X12195476Y-36180714D01*
X12195476Y-36285476D01*
X12195476Y-36180714D02*
X12205000Y-36161667D01*
X12224048Y-36152143D01*
X12252619Y-36152143D01*
X12271667Y-36161667D01*
X12281190Y-36180714D01*
X12281190Y-36285476D01*
X12376428Y-36285476D02*
X12376428Y-36152143D01*
X12376428Y-36171190D02*
X12385952Y-36161667D01*
X12405000Y-36152143D01*
X12433571Y-36152143D01*
X12452619Y-36161667D01*
X12462143Y-36180714D01*
X12462143Y-36285476D01*
X12462143Y-36180714D02*
X12471667Y-36161667D01*
X12490714Y-36152143D01*
X12519286Y-36152143D01*
X12538333Y-36161667D01*
X12547857Y-36180714D01*
X12547857Y-36285476D01*
X12938333Y-36075952D02*
X12766905Y-36333095D01*
X13195476Y-36085476D02*
X13214524Y-36085476D01*
X13233571Y-36095000D01*
X13243095Y-36104524D01*
X13252619Y-36123571D01*
X13262143Y-36161667D01*
X13262143Y-36209286D01*
X13252619Y-36247381D01*
X13243095Y-36266429D01*
X13233571Y-36275952D01*
X13214524Y-36285476D01*
X13195476Y-36285476D01*
X13176428Y-36275952D01*
X13166905Y-36266429D01*
X13157381Y-36247381D01*
X13147857Y-36209286D01*
X13147857Y-36161667D01*
X13157381Y-36123571D01*
X13166905Y-36104524D01*
X13176428Y-36095000D01*
X13195476Y-36085476D01*
X13347857Y-36266429D02*
X13357381Y-36275952D01*
X13347857Y-36285476D01*
X13338333Y-36275952D01*
X13347857Y-36266429D01*
X13347857Y-36285476D01*
X13547857Y-36285476D02*
X13433571Y-36285476D01*
X13490714Y-36285476D02*
X13490714Y-36085476D01*
X13471667Y-36114048D01*
X13452619Y-36133095D01*
X13433571Y-36142619D01*
X13728809Y-36085476D02*
X13633571Y-36085476D01*
X13624048Y-36180714D01*
X13633571Y-36171190D01*
X13652619Y-36161667D01*
X13700238Y-36161667D01*
X13719286Y-36171190D01*
X13728809Y-36180714D01*
X13738333Y-36199762D01*
X13738333Y-36247381D01*
X13728809Y-36266429D01*
X13719286Y-36275952D01*
X13700238Y-36285476D01*
X13652619Y-36285476D01*
X13633571Y-36275952D01*
X13624048Y-36266429D01*
X13805000Y-36085476D02*
X13938333Y-36085476D01*
X13852619Y-36285476D01*
X14109762Y-36085476D02*
X14014524Y-36085476D01*
X14005000Y-36180714D01*
X14014524Y-36171190D01*
X14033571Y-36161667D01*
X14081190Y-36161667D01*
X14100238Y-36171190D01*
X14109762Y-36180714D01*
X14119286Y-36199762D01*
X14119286Y-36247381D01*
X14109762Y-36266429D01*
X14100238Y-36275952D01*
X14081190Y-36285476D01*
X14033571Y-36285476D01*
X14014524Y-36275952D01*
X14005000Y-36266429D01*
X14195476Y-36085476D02*
X14195476Y-36123571D01*
X14271667Y-36085476D02*
X14271667Y-36123571D01*
X14566905Y-36361667D02*
X14557381Y-36352143D01*
X14538333Y-36323571D01*
X14528809Y-36304524D01*
X14519286Y-36275952D01*
X14509762Y-36228333D01*
X14509762Y-36190238D01*
X14519286Y-36142619D01*
X14528809Y-36114048D01*
X14538333Y-36095000D01*
X14557381Y-36066429D01*
X14566905Y-36056905D01*
X14652619Y-36285476D02*
X14690714Y-36285476D01*
X14709762Y-36275952D01*
X14719286Y-36266429D01*
X14738333Y-36237857D01*
X14747857Y-36199762D01*
X14747857Y-36123571D01*
X14738333Y-36104524D01*
X14728809Y-36095000D01*
X14709762Y-36085476D01*
X14671667Y-36085476D01*
X14652619Y-36095000D01*
X14643095Y-36104524D01*
X14633571Y-36123571D01*
X14633571Y-36171190D01*
X14643095Y-36190238D01*
X14652619Y-36199762D01*
X14671667Y-36209286D01*
X14709762Y-36209286D01*
X14728809Y-36199762D01*
X14738333Y-36190238D01*
X14747857Y-36171190D01*
X14928809Y-36085476D02*
X14833571Y-36085476D01*
X14824048Y-36180714D01*
X14833571Y-36171190D01*
X14852619Y-36161667D01*
X14900238Y-36161667D01*
X14919286Y-36171190D01*
X14928809Y-36180714D01*
X14938333Y-36199762D01*
X14938333Y-36247381D01*
X14928809Y-36266429D01*
X14919286Y-36275952D01*
X14900238Y-36285476D01*
X14852619Y-36285476D01*
X14833571Y-36275952D01*
X14824048Y-36266429D01*
X15176428Y-36285476D02*
X15176428Y-36085476D01*
X15262143Y-36285476D02*
X15262143Y-36180714D01*
X15252619Y-36161667D01*
X15233571Y-36152143D01*
X15205000Y-36152143D01*
X15185952Y-36161667D01*
X15176428Y-36171190D01*
X15385952Y-36285476D02*
X15366905Y-36275952D01*
X15357381Y-36266429D01*
X15347857Y-36247381D01*
X15347857Y-36190238D01*
X15357381Y-36171190D01*
X15366905Y-36161667D01*
X15385952Y-36152143D01*
X15414524Y-36152143D01*
X15433571Y-36161667D01*
X15443095Y-36171190D01*
X15452619Y-36190238D01*
X15452619Y-36247381D01*
X15443095Y-36266429D01*
X15433571Y-36275952D01*
X15414524Y-36285476D01*
X15385952Y-36285476D01*
X15566905Y-36285476D02*
X15547857Y-36275952D01*
X15538333Y-36256905D01*
X15538333Y-36085476D01*
X15719286Y-36275952D02*
X15700238Y-36285476D01*
X15662143Y-36285476D01*
X15643095Y-36275952D01*
X15633571Y-36256905D01*
X15633571Y-36180714D01*
X15643095Y-36161667D01*
X15662143Y-36152143D01*
X15700238Y-36152143D01*
X15719286Y-36161667D01*
X15728809Y-36180714D01*
X15728809Y-36199762D01*
X15633571Y-36218810D01*
X15805000Y-36275952D02*
X15824048Y-36285476D01*
X15862143Y-36285476D01*
X15881190Y-36275952D01*
X15890714Y-36256905D01*
X15890714Y-36247381D01*
X15881190Y-36228333D01*
X15862143Y-36218810D01*
X15833571Y-36218810D01*
X15814524Y-36209286D01*
X15805000Y-36190238D01*
X15805000Y-36180714D01*
X15814524Y-36161667D01*
X15833571Y-36152143D01*
X15862143Y-36152143D01*
X15881190Y-36161667D01*
X15957381Y-36361667D02*
X15966905Y-36352143D01*
X15985952Y-36323571D01*
X15995476Y-36304524D01*
X16005000Y-36275952D01*
X16014524Y-36228333D01*
X16014524Y-36190238D01*
X16005000Y-36142619D01*
X15995476Y-36114048D01*
X15985952Y-36095000D01*
X15966905Y-36066429D01*
X15957381Y-36056905D01*
X16319286Y-36361667D02*
X16309762Y-36352143D01*
X16290714Y-36323571D01*
X16281190Y-36304524D01*
X16271667Y-36275952D01*
X16262143Y-36228333D01*
X16262143Y-36190238D01*
X16271667Y-36142619D01*
X16281190Y-36114048D01*
X16290714Y-36095000D01*
X16309762Y-36066429D01*
X16319286Y-36056905D01*
X16395476Y-36152143D02*
X16395476Y-36285476D01*
X16395476Y-36171190D02*
X16405000Y-36161667D01*
X16424048Y-36152143D01*
X16452619Y-36152143D01*
X16471667Y-36161667D01*
X16481190Y-36180714D01*
X16481190Y-36285476D01*
X16605000Y-36285476D02*
X16585952Y-36275952D01*
X16576428Y-36266429D01*
X16566905Y-36247381D01*
X16566905Y-36190238D01*
X16576428Y-36171190D01*
X16585952Y-36161667D01*
X16605000Y-36152143D01*
X16633571Y-36152143D01*
X16652619Y-36161667D01*
X16662143Y-36171190D01*
X16671667Y-36190238D01*
X16671667Y-36247381D01*
X16662143Y-36266429D01*
X16652619Y-36275952D01*
X16633571Y-36285476D01*
X16605000Y-36285476D01*
X16728809Y-36152143D02*
X16805000Y-36152143D01*
X16757381Y-36085476D02*
X16757381Y-36256905D01*
X16766905Y-36275952D01*
X16785952Y-36285476D01*
X16805000Y-36285476D01*
X17024048Y-36152143D02*
X17024048Y-36352143D01*
X17024048Y-36161667D02*
X17043095Y-36152143D01*
X17081190Y-36152143D01*
X17100238Y-36161667D01*
X17109762Y-36171190D01*
X17119286Y-36190238D01*
X17119286Y-36247381D01*
X17109762Y-36266429D01*
X17100238Y-36275952D01*
X17081190Y-36285476D01*
X17043095Y-36285476D01*
X17024048Y-36275952D01*
X17233571Y-36285476D02*
X17214524Y-36275952D01*
X17205000Y-36256905D01*
X17205000Y-36085476D01*
X17395476Y-36285476D02*
X17395476Y-36180714D01*
X17385952Y-36161667D01*
X17366905Y-36152143D01*
X17328810Y-36152143D01*
X17309762Y-36161667D01*
X17395476Y-36275952D02*
X17376429Y-36285476D01*
X17328810Y-36285476D01*
X17309762Y-36275952D01*
X17300238Y-36256905D01*
X17300238Y-36237857D01*
X17309762Y-36218810D01*
X17328810Y-36209286D01*
X17376429Y-36209286D01*
X17395476Y-36199762D01*
X17462143Y-36152143D02*
X17538333Y-36152143D01*
X17490714Y-36085476D02*
X17490714Y-36256905D01*
X17500238Y-36275952D01*
X17519286Y-36285476D01*
X17538333Y-36285476D01*
X17681190Y-36275952D02*
X17662143Y-36285476D01*
X17624048Y-36285476D01*
X17605000Y-36275952D01*
X17595476Y-36256905D01*
X17595476Y-36180714D01*
X17605000Y-36161667D01*
X17624048Y-36152143D01*
X17662143Y-36152143D01*
X17681190Y-36161667D01*
X17690714Y-36180714D01*
X17690714Y-36199762D01*
X17595476Y-36218810D01*
X17862143Y-36285476D02*
X17862143Y-36085476D01*
X17862143Y-36275952D02*
X17843095Y-36285476D01*
X17805000Y-36285476D01*
X17785952Y-36275952D01*
X17776429Y-36266429D01*
X17766905Y-36247381D01*
X17766905Y-36190238D01*
X17776429Y-36171190D01*
X17785952Y-36161667D01*
X17805000Y-36152143D01*
X17843095Y-36152143D01*
X17862143Y-36161667D01*
X17938333Y-36361667D02*
X17947857Y-36352143D01*
X17966905Y-36323571D01*
X17976429Y-36304524D01*
X17985952Y-36275952D01*
X17995476Y-36228333D01*
X17995476Y-36190238D01*
X17985952Y-36142619D01*
X17976429Y-36114048D01*
X17966905Y-36095000D01*
X17947857Y-36066429D01*
X17938333Y-36056905D01*
X10795000Y-36415000D02*
X10995000Y-36615000D01*
X10995000Y-36415000D02*
X10795000Y-36615000D01*
X10995000Y-36515000D02*
G75*
G03*
X10995000Y-36515000I-100000J0D01*
G01*
X11338333Y-36472143D02*
X11338333Y-36605476D01*
X11290714Y-36395952D02*
X11243095Y-36538810D01*
X11366905Y-36538810D01*
X11443095Y-36586429D02*
X11452619Y-36595952D01*
X11443095Y-36605476D01*
X11433571Y-36595952D01*
X11443095Y-36586429D01*
X11443095Y-36605476D01*
X11519286Y-36405476D02*
X11643095Y-36405476D01*
X11576428Y-36481667D01*
X11605000Y-36481667D01*
X11624048Y-36491190D01*
X11633571Y-36500714D01*
X11643095Y-36519762D01*
X11643095Y-36567381D01*
X11633571Y-36586429D01*
X11624048Y-36595952D01*
X11605000Y-36605476D01*
X11547857Y-36605476D01*
X11528809Y-36595952D01*
X11519286Y-36586429D01*
X11766905Y-36405476D02*
X11785952Y-36405476D01*
X11805000Y-36415000D01*
X11814524Y-36424524D01*
X11824048Y-36443571D01*
X11833571Y-36481667D01*
X11833571Y-36529286D01*
X11824048Y-36567381D01*
X11814524Y-36586429D01*
X11805000Y-36595952D01*
X11785952Y-36605476D01*
X11766905Y-36605476D01*
X11747857Y-36595952D01*
X11738333Y-36586429D01*
X11728809Y-36567381D01*
X11719286Y-36529286D01*
X11719286Y-36481667D01*
X11728809Y-36443571D01*
X11738333Y-36424524D01*
X11747857Y-36415000D01*
X11766905Y-36405476D01*
X11957381Y-36405476D02*
X11976428Y-36405476D01*
X11995476Y-36415000D01*
X12005000Y-36424524D01*
X12014524Y-36443571D01*
X12024048Y-36481667D01*
X12024048Y-36529286D01*
X12014524Y-36567381D01*
X12005000Y-36586429D01*
X11995476Y-36595952D01*
X11976428Y-36605476D01*
X11957381Y-36605476D01*
X11938333Y-36595952D01*
X11928809Y-36586429D01*
X11919286Y-36567381D01*
X11909762Y-36529286D01*
X11909762Y-36481667D01*
X11919286Y-36443571D01*
X11928809Y-36424524D01*
X11938333Y-36415000D01*
X11957381Y-36405476D01*
X12109762Y-36605476D02*
X12109762Y-36472143D01*
X12109762Y-36491190D02*
X12119286Y-36481667D01*
X12138333Y-36472143D01*
X12166905Y-36472143D01*
X12185952Y-36481667D01*
X12195476Y-36500714D01*
X12195476Y-36605476D01*
X12195476Y-36500714D02*
X12205000Y-36481667D01*
X12224048Y-36472143D01*
X12252619Y-36472143D01*
X12271667Y-36481667D01*
X12281190Y-36500714D01*
X12281190Y-36605476D01*
X12376428Y-36605476D02*
X12376428Y-36472143D01*
X12376428Y-36491190D02*
X12385952Y-36481667D01*
X12405000Y-36472143D01*
X12433571Y-36472143D01*
X12452619Y-36481667D01*
X12462143Y-36500714D01*
X12462143Y-36605476D01*
X12462143Y-36500714D02*
X12471667Y-36481667D01*
X12490714Y-36472143D01*
X12519286Y-36472143D01*
X12538333Y-36481667D01*
X12547857Y-36500714D01*
X12547857Y-36605476D01*
X12938333Y-36395952D02*
X12766905Y-36653095D01*
X13195476Y-36405476D02*
X13214524Y-36405476D01*
X13233571Y-36415000D01*
X13243095Y-36424524D01*
X13252619Y-36443571D01*
X13262143Y-36481667D01*
X13262143Y-36529286D01*
X13252619Y-36567381D01*
X13243095Y-36586429D01*
X13233571Y-36595952D01*
X13214524Y-36605476D01*
X13195476Y-36605476D01*
X13176428Y-36595952D01*
X13166905Y-36586429D01*
X13157381Y-36567381D01*
X13147857Y-36529286D01*
X13147857Y-36481667D01*
X13157381Y-36443571D01*
X13166905Y-36424524D01*
X13176428Y-36415000D01*
X13195476Y-36405476D01*
X13347857Y-36586429D02*
X13357381Y-36595952D01*
X13347857Y-36605476D01*
X13338333Y-36595952D01*
X13347857Y-36586429D01*
X13347857Y-36605476D01*
X13547857Y-36605476D02*
X13433571Y-36605476D01*
X13490714Y-36605476D02*
X13490714Y-36405476D01*
X13471667Y-36434048D01*
X13452619Y-36453095D01*
X13433571Y-36462619D01*
X13719286Y-36405476D02*
X13681190Y-36405476D01*
X13662143Y-36415000D01*
X13652619Y-36424524D01*
X13633571Y-36453095D01*
X13624048Y-36491190D01*
X13624048Y-36567381D01*
X13633571Y-36586429D01*
X13643095Y-36595952D01*
X13662143Y-36605476D01*
X13700238Y-36605476D01*
X13719286Y-36595952D01*
X13728809Y-36586429D01*
X13738333Y-36567381D01*
X13738333Y-36519762D01*
X13728809Y-36500714D01*
X13719286Y-36491190D01*
X13700238Y-36481667D01*
X13662143Y-36481667D01*
X13643095Y-36491190D01*
X13633571Y-36500714D01*
X13624048Y-36519762D01*
X13833571Y-36605476D02*
X13871667Y-36605476D01*
X13890714Y-36595952D01*
X13900238Y-36586429D01*
X13919286Y-36557857D01*
X13928809Y-36519762D01*
X13928809Y-36443571D01*
X13919286Y-36424524D01*
X13909762Y-36415000D01*
X13890714Y-36405476D01*
X13852619Y-36405476D01*
X13833571Y-36415000D01*
X13824048Y-36424524D01*
X13814524Y-36443571D01*
X13814524Y-36491190D01*
X13824048Y-36510238D01*
X13833571Y-36519762D01*
X13852619Y-36529286D01*
X13890714Y-36529286D01*
X13909762Y-36519762D01*
X13919286Y-36510238D01*
X13928809Y-36491190D01*
X13995476Y-36405476D02*
X14119286Y-36405476D01*
X14052619Y-36481667D01*
X14081190Y-36481667D01*
X14100238Y-36491190D01*
X14109762Y-36500714D01*
X14119286Y-36519762D01*
X14119286Y-36567381D01*
X14109762Y-36586429D01*
X14100238Y-36595952D01*
X14081190Y-36605476D01*
X14024048Y-36605476D01*
X14005000Y-36595952D01*
X13995476Y-36586429D01*
X14195476Y-36405476D02*
X14195476Y-36443571D01*
X14271667Y-36405476D02*
X14271667Y-36443571D01*
X14566905Y-36681667D02*
X14557381Y-36672143D01*
X14538333Y-36643571D01*
X14528809Y-36624524D01*
X14519286Y-36595952D01*
X14509762Y-36548333D01*
X14509762Y-36510238D01*
X14519286Y-36462619D01*
X14528809Y-36434048D01*
X14538333Y-36415000D01*
X14557381Y-36386429D01*
X14566905Y-36376905D01*
X14633571Y-36424524D02*
X14643095Y-36415000D01*
X14662143Y-36405476D01*
X14709762Y-36405476D01*
X14728809Y-36415000D01*
X14738333Y-36424524D01*
X14747857Y-36443571D01*
X14747857Y-36462619D01*
X14738333Y-36491190D01*
X14624048Y-36605476D01*
X14747857Y-36605476D01*
X14919286Y-36472143D02*
X14919286Y-36605476D01*
X14871667Y-36395952D02*
X14824048Y-36538810D01*
X14947857Y-36538810D01*
X15176428Y-36605476D02*
X15176428Y-36405476D01*
X15262143Y-36605476D02*
X15262143Y-36500714D01*
X15252619Y-36481667D01*
X15233571Y-36472143D01*
X15205000Y-36472143D01*
X15185952Y-36481667D01*
X15176428Y-36491190D01*
X15385952Y-36605476D02*
X15366905Y-36595952D01*
X15357381Y-36586429D01*
X15347857Y-36567381D01*
X15347857Y-36510238D01*
X15357381Y-36491190D01*
X15366905Y-36481667D01*
X15385952Y-36472143D01*
X15414524Y-36472143D01*
X15433571Y-36481667D01*
X15443095Y-36491190D01*
X15452619Y-36510238D01*
X15452619Y-36567381D01*
X15443095Y-36586429D01*
X15433571Y-36595952D01*
X15414524Y-36605476D01*
X15385952Y-36605476D01*
X15566905Y-36605476D02*
X15547857Y-36595952D01*
X15538333Y-36576905D01*
X15538333Y-36405476D01*
X15719286Y-36595952D02*
X15700238Y-36605476D01*
X15662143Y-36605476D01*
X15643095Y-36595952D01*
X15633571Y-36576905D01*
X15633571Y-36500714D01*
X15643095Y-36481667D01*
X15662143Y-36472143D01*
X15700238Y-36472143D01*
X15719286Y-36481667D01*
X15728809Y-36500714D01*
X15728809Y-36519762D01*
X15633571Y-36538810D01*
X15805000Y-36595952D02*
X15824048Y-36605476D01*
X15862143Y-36605476D01*
X15881190Y-36595952D01*
X15890714Y-36576905D01*
X15890714Y-36567381D01*
X15881190Y-36548333D01*
X15862143Y-36538810D01*
X15833571Y-36538810D01*
X15814524Y-36529286D01*
X15805000Y-36510238D01*
X15805000Y-36500714D01*
X15814524Y-36481667D01*
X15833571Y-36472143D01*
X15862143Y-36472143D01*
X15881190Y-36481667D01*
X15957381Y-36681667D02*
X15966905Y-36672143D01*
X15985952Y-36643571D01*
X15995476Y-36624524D01*
X16005000Y-36595952D01*
X16014524Y-36548333D01*
X16014524Y-36510238D01*
X16005000Y-36462619D01*
X15995476Y-36434048D01*
X15985952Y-36415000D01*
X15966905Y-36386429D01*
X15957381Y-36376905D01*
X16319286Y-36681667D02*
X16309762Y-36672143D01*
X16290714Y-36643571D01*
X16281190Y-36624524D01*
X16271667Y-36595952D01*
X16262143Y-36548333D01*
X16262143Y-36510238D01*
X16271667Y-36462619D01*
X16281190Y-36434048D01*
X16290714Y-36415000D01*
X16309762Y-36386429D01*
X16319286Y-36376905D01*
X16395476Y-36472143D02*
X16395476Y-36605476D01*
X16395476Y-36491190D02*
X16405000Y-36481667D01*
X16424048Y-36472143D01*
X16452619Y-36472143D01*
X16471667Y-36481667D01*
X16481190Y-36500714D01*
X16481190Y-36605476D01*
X16605000Y-36605476D02*
X16585952Y-36595952D01*
X16576428Y-36586429D01*
X16566905Y-36567381D01*
X16566905Y-36510238D01*
X16576428Y-36491190D01*
X16585952Y-36481667D01*
X16605000Y-36472143D01*
X16633571Y-36472143D01*
X16652619Y-36481667D01*
X16662143Y-36491190D01*
X16671667Y-36510238D01*
X16671667Y-36567381D01*
X16662143Y-36586429D01*
X16652619Y-36595952D01*
X16633571Y-36605476D01*
X16605000Y-36605476D01*
X16728809Y-36472143D02*
X16805000Y-36472143D01*
X16757381Y-36405476D02*
X16757381Y-36576905D01*
X16766905Y-36595952D01*
X16785952Y-36605476D01*
X16805000Y-36605476D01*
X17024048Y-36472143D02*
X17024048Y-36672143D01*
X17024048Y-36481667D02*
X17043095Y-36472143D01*
X17081190Y-36472143D01*
X17100238Y-36481667D01*
X17109762Y-36491190D01*
X17119286Y-36510238D01*
X17119286Y-36567381D01*
X17109762Y-36586429D01*
X17100238Y-36595952D01*
X17081190Y-36605476D01*
X17043095Y-36605476D01*
X17024048Y-36595952D01*
X17233571Y-36605476D02*
X17214524Y-36595952D01*
X17205000Y-36576905D01*
X17205000Y-36405476D01*
X17395476Y-36605476D02*
X17395476Y-36500714D01*
X17385952Y-36481667D01*
X17366905Y-36472143D01*
X17328810Y-36472143D01*
X17309762Y-36481667D01*
X17395476Y-36595952D02*
X17376429Y-36605476D01*
X17328810Y-36605476D01*
X17309762Y-36595952D01*
X17300238Y-36576905D01*
X17300238Y-36557857D01*
X17309762Y-36538810D01*
X17328810Y-36529286D01*
X17376429Y-36529286D01*
X17395476Y-36519762D01*
X17462143Y-36472143D02*
X17538333Y-36472143D01*
X17490714Y-36405476D02*
X17490714Y-36576905D01*
X17500238Y-36595952D01*
X17519286Y-36605476D01*
X17538333Y-36605476D01*
X17681190Y-36595952D02*
X17662143Y-36605476D01*
X17624048Y-36605476D01*
X17605000Y-36595952D01*
X17595476Y-36576905D01*
X17595476Y-36500714D01*
X17605000Y-36481667D01*
X17624048Y-36472143D01*
X17662143Y-36472143D01*
X17681190Y-36481667D01*
X17690714Y-36500714D01*
X17690714Y-36519762D01*
X17595476Y-36538810D01*
X17862143Y-36605476D02*
X17862143Y-36405476D01*
X17862143Y-36595952D02*
X17843095Y-36605476D01*
X17805000Y-36605476D01*
X17785952Y-36595952D01*
X17776429Y-36586429D01*
X17766905Y-36567381D01*
X17766905Y-36510238D01*
X17776429Y-36491190D01*
X17785952Y-36481667D01*
X17805000Y-36472143D01*
X17843095Y-36472143D01*
X17862143Y-36481667D01*
X17938333Y-36681667D02*
X17947857Y-36672143D01*
X17966905Y-36643571D01*
X17976429Y-36624524D01*
X17985952Y-36595952D01*
X17995476Y-36548333D01*
X17995476Y-36510238D01*
X17985952Y-36462619D01*
X17976429Y-36434048D01*
X17966905Y-36415000D01*
X17947857Y-36386429D01*
X17938333Y-36376905D01*
M02*
