G04 #@! TF.GenerationSoftware,KiCad,Pcbnew,(6.0.0)*
G04 #@! TF.CreationDate,2022-04-02T17:53:52-07:00*
G04 #@! TF.ProjectId,keyboard_exposed_diodes_standard_tkl,6b657962-6f61-4726-945f-6578706f7365,rev?*
G04 #@! TF.SameCoordinates,Original*
G04 #@! TF.FileFunction,Soldermask,Bot*
G04 #@! TF.FilePolarity,Negative*
%FSLAX46Y46*%
G04 Gerber Fmt 4.6, Leading zero omitted, Abs format (unit mm)*
G04 Created by KiCad (PCBNEW (6.0.0)) date 2022-04-02 17:53:52*
%MOMM*%
%LPD*%
G01*
G04 APERTURE LIST*
G04 Aperture macros list*
%AMRoundRect*
0 Rectangle with rounded corners*
0 $1 Rounding radius*
0 $2 $3 $4 $5 $6 $7 $8 $9 X,Y pos of 4 corners*
0 Add a 4 corners polygon primitive as box body*
4,1,4,$2,$3,$4,$5,$6,$7,$8,$9,$2,$3,0*
0 Add four circle primitives for the rounded corners*
1,1,$1+$1,$2,$3*
1,1,$1+$1,$4,$5*
1,1,$1+$1,$6,$7*
1,1,$1+$1,$8,$9*
0 Add four rect primitives between the rounded corners*
20,1,$1+$1,$2,$3,$4,$5,0*
20,1,$1+$1,$4,$5,$6,$7,0*
20,1,$1+$1,$6,$7,$8,$9,0*
20,1,$1+$1,$8,$9,$2,$3,0*%
%AMFreePoly0*
4,1,22,0.500000,-0.750000,0.000000,-0.750000,0.000000,-0.745033,-0.079941,-0.743568,-0.215256,-0.701293,-0.333266,-0.622738,-0.424486,-0.514219,-0.481581,-0.384460,-0.499164,-0.250000,-0.500000,-0.250000,-0.500000,0.250000,-0.499164,0.250000,-0.499963,0.256109,-0.478152,0.396186,-0.417904,0.524511,-0.324060,0.630769,-0.204165,0.706417,-0.067858,0.745374,0.000000,0.744959,0.000000,0.750000,
0.500000,0.750000,0.500000,-0.750000,0.500000,-0.750000,$1*%
%AMFreePoly1*
4,1,20,0.000000,0.744959,0.073905,0.744508,0.209726,0.703889,0.328688,0.626782,0.421226,0.519385,0.479903,0.390333,0.500000,0.250000,0.500000,-0.250000,0.499851,-0.262216,0.476331,-0.402017,0.414519,-0.529596,0.319384,-0.634700,0.198574,-0.708877,0.061801,-0.746166,0.000000,-0.745033,0.000000,-0.750000,-0.500000,-0.750000,-0.500000,0.750000,0.000000,0.750000,0.000000,0.744959,
0.000000,0.744959,$1*%
G04 Aperture macros list end*
%ADD10C,2.200000*%
%ADD11R,1.800000X0.900000*%
%ADD12C,1.700000*%
%ADD13C,4.000000*%
%ADD14R,1.600000X1.600000*%
%ADD15O,1.600000X1.600000*%
%ADD16R,1.700000X1.700000*%
%ADD17O,1.700000X1.700000*%
%ADD18C,0.700000*%
%ADD19O,0.900000X2.400000*%
%ADD20O,0.900000X1.700000*%
%ADD21C,2.100000*%
%ADD22RoundRect,0.300000X0.950000X-0.450000X0.950000X0.450000X-0.950000X0.450000X-0.950000X-0.450000X0*%
%ADD23R,2.800000X3.600000*%
%ADD24C,2.000000*%
%ADD25C,3.987800*%
%ADD26C,3.048000*%
%ADD27C,4.300000*%
%ADD28RoundRect,0.250000X0.475000X-0.250000X0.475000X0.250000X-0.475000X0.250000X-0.475000X-0.250000X0*%
%ADD29R,0.400000X0.650000*%
%ADD30FreePoly0,270.000000*%
%ADD31FreePoly1,270.000000*%
G04 APERTURE END LIST*
D10*
X384028750Y-282595000D03*
X377678750Y-285135000D03*
D11*
X384138750Y-293475000D03*
X384138750Y-291975000D03*
X378838750Y-293475000D03*
X378838750Y-291975000D03*
D12*
X376408750Y-287675000D03*
X386568750Y-287675000D03*
D13*
X381488750Y-287675000D03*
D12*
X381806250Y-306725000D03*
D13*
X376726250Y-306725000D03*
D12*
X371646250Y-306725000D03*
D11*
X374076250Y-311025000D03*
X374076250Y-312525000D03*
X379376250Y-311025000D03*
X379376250Y-312525000D03*
D10*
X372916250Y-304185000D03*
X379266250Y-301645000D03*
D12*
X140665000Y-249575000D03*
X150825000Y-249575000D03*
D13*
X145745000Y-249575000D03*
D11*
X143095000Y-253875000D03*
X143095000Y-255375000D03*
X148395000Y-253875000D03*
X148395000Y-255375000D03*
D10*
X141935000Y-247035000D03*
X148285000Y-244495000D03*
D12*
X169875000Y-249575000D03*
X159715000Y-249575000D03*
D13*
X164795000Y-249575000D03*
D11*
X162145000Y-253875000D03*
X162145000Y-255375000D03*
X167445000Y-253875000D03*
X167445000Y-255375000D03*
D10*
X160985000Y-247035000D03*
X167335000Y-244495000D03*
D12*
X178765000Y-249575000D03*
X188925000Y-249575000D03*
D13*
X183845000Y-249575000D03*
D11*
X181195000Y-253875000D03*
X181195000Y-255375000D03*
X186495000Y-253875000D03*
X186495000Y-255375000D03*
D10*
X180035000Y-247035000D03*
X186385000Y-244495000D03*
D13*
X202895000Y-249575000D03*
D12*
X197815000Y-249575000D03*
X207975000Y-249575000D03*
D11*
X200245000Y-253875000D03*
X200245000Y-255375000D03*
X205545000Y-253875000D03*
X205545000Y-255375000D03*
D10*
X199085000Y-247035000D03*
X205435000Y-244495000D03*
D12*
X216865000Y-249575000D03*
X227025000Y-249575000D03*
D13*
X221945000Y-249575000D03*
D11*
X219295000Y-253875000D03*
X219295000Y-255375000D03*
X224595000Y-253875000D03*
X224595000Y-255375000D03*
D10*
X218135000Y-247035000D03*
X224485000Y-244495000D03*
D13*
X240995000Y-249575000D03*
D12*
X246075000Y-249575000D03*
X235915000Y-249575000D03*
D11*
X238345000Y-253875000D03*
X238345000Y-255375000D03*
X243645000Y-253875000D03*
X243645000Y-255375000D03*
D10*
X237185000Y-247035000D03*
X243535000Y-244495000D03*
D12*
X254965000Y-249575000D03*
D13*
X260045000Y-249575000D03*
D12*
X265125000Y-249575000D03*
D11*
X257395000Y-253875000D03*
X257395000Y-255375000D03*
X262695000Y-253875000D03*
X262695000Y-255375000D03*
D10*
X256235000Y-247035000D03*
X262585000Y-244495000D03*
D13*
X279095000Y-249575000D03*
D12*
X274015000Y-249575000D03*
X284175000Y-249575000D03*
D11*
X276445000Y-253875000D03*
X276445000Y-255375000D03*
X281745000Y-253875000D03*
X281745000Y-255375000D03*
D10*
X275285000Y-247035000D03*
X281635000Y-244495000D03*
D12*
X293065000Y-249575000D03*
D13*
X298145000Y-249575000D03*
D12*
X303225000Y-249575000D03*
D11*
X295495000Y-253875000D03*
X295495000Y-255375000D03*
X300795000Y-253875000D03*
X300795000Y-255375000D03*
D10*
X294335000Y-247035000D03*
X300685000Y-244495000D03*
D12*
X165112500Y-287675000D03*
X154952500Y-287675000D03*
D13*
X160032500Y-287675000D03*
D11*
X157382500Y-291975000D03*
X157382500Y-293475000D03*
X162682500Y-291975000D03*
X162682500Y-293475000D03*
D10*
X156222500Y-285135000D03*
X162572500Y-282595000D03*
D12*
X250837500Y-306725000D03*
X240677500Y-306725000D03*
D13*
X245757500Y-306725000D03*
D11*
X243107500Y-311025000D03*
X243107500Y-312525000D03*
X248407500Y-311025000D03*
X248407500Y-312525000D03*
D10*
X241947500Y-304185000D03*
X248297500Y-301645000D03*
D12*
X378790000Y-249575000D03*
D13*
X383870000Y-249575000D03*
D12*
X388950000Y-249575000D03*
D11*
X381220000Y-253875000D03*
X381220000Y-255375000D03*
X386520000Y-253875000D03*
X386520000Y-255375000D03*
D10*
X380060000Y-247035000D03*
X386410000Y-244495000D03*
D13*
X388632500Y-268625000D03*
D12*
X393712500Y-268625000D03*
X383552500Y-268625000D03*
D11*
X385982500Y-272925000D03*
X385982500Y-274425000D03*
X391282500Y-272925000D03*
X391282500Y-274425000D03*
D10*
X384822500Y-266085000D03*
X391172500Y-263545000D03*
D13*
X207657500Y-306725000D03*
D12*
X212737500Y-306725000D03*
X202577500Y-306725000D03*
D11*
X205007500Y-311025000D03*
X205007500Y-312525000D03*
X210307500Y-311025000D03*
X210307500Y-312525000D03*
D10*
X203847500Y-304185000D03*
X210197500Y-301645000D03*
D12*
X193052500Y-287675000D03*
D13*
X198132500Y-287675000D03*
D12*
X203212500Y-287675000D03*
D11*
X195482500Y-291975000D03*
X195482500Y-293475000D03*
X200782500Y-291975000D03*
X200782500Y-293475000D03*
D10*
X194322500Y-285135000D03*
X200672500Y-282595000D03*
D13*
X336245000Y-249575000D03*
D12*
X341325000Y-249575000D03*
X331165000Y-249575000D03*
D11*
X333595000Y-253875000D03*
X333595000Y-255375000D03*
X338895000Y-253875000D03*
X338895000Y-255375000D03*
D10*
X332435000Y-247035000D03*
X338785000Y-244495000D03*
D13*
X417207500Y-268625000D03*
D12*
X422287500Y-268625000D03*
X412127500Y-268625000D03*
D11*
X414557500Y-272925000D03*
X414557500Y-274425000D03*
X419857500Y-272925000D03*
X419857500Y-274425000D03*
D10*
X413397500Y-266085000D03*
X419747500Y-263545000D03*
D12*
X431177500Y-325775000D03*
D13*
X436257500Y-325775000D03*
D12*
X441337500Y-325775000D03*
D11*
X433607500Y-330075000D03*
X433607500Y-331575000D03*
X438907500Y-330075000D03*
X438907500Y-331575000D03*
D10*
X432447500Y-323235000D03*
X438797500Y-320695000D03*
D12*
X188290000Y-268625000D03*
X198450000Y-268625000D03*
D13*
X193370000Y-268625000D03*
D11*
X190720000Y-272925000D03*
X190720000Y-274425000D03*
X196020000Y-272925000D03*
X196020000Y-274425000D03*
D10*
X189560000Y-266085000D03*
X195910000Y-263545000D03*
D12*
X441337500Y-268625000D03*
X431177500Y-268625000D03*
D13*
X436257500Y-268625000D03*
D11*
X433607500Y-272925000D03*
X433607500Y-274425000D03*
X438907500Y-272925000D03*
X438907500Y-274425000D03*
D10*
X432447500Y-266085000D03*
X438797500Y-263545000D03*
D12*
X360375000Y-249575000D03*
X350215000Y-249575000D03*
D13*
X355295000Y-249575000D03*
D11*
X352645000Y-253875000D03*
X352645000Y-255375000D03*
X357945000Y-253875000D03*
X357945000Y-255375000D03*
D10*
X351485000Y-247035000D03*
X357835000Y-244495000D03*
D12*
X150825000Y-221000000D03*
X140665000Y-221000000D03*
D13*
X145745000Y-221000000D03*
D11*
X143095000Y-225300000D03*
X143095000Y-226800000D03*
X148395000Y-225300000D03*
X148395000Y-226800000D03*
D10*
X141935000Y-218460000D03*
X148285000Y-215920000D03*
D12*
X215118750Y-325775000D03*
D13*
X210038750Y-325775000D03*
D12*
X204958750Y-325775000D03*
D11*
X207388750Y-330075000D03*
X207388750Y-331575000D03*
X212688750Y-330075000D03*
X212688750Y-331575000D03*
D10*
X206228750Y-323235000D03*
X212578750Y-320695000D03*
D12*
X281158750Y-325775000D03*
D13*
X286238750Y-325775000D03*
D12*
X291318750Y-325775000D03*
D11*
X283588750Y-330075000D03*
X283588750Y-331575000D03*
X288888750Y-330075000D03*
X288888750Y-331575000D03*
D10*
X282428750Y-323235000D03*
X288778750Y-320695000D03*
D12*
X422287500Y-287675000D03*
D13*
X417207500Y-287675000D03*
D12*
X412127500Y-287675000D03*
D11*
X414557500Y-291975000D03*
X414557500Y-293475000D03*
X419857500Y-291975000D03*
X419857500Y-293475000D03*
D10*
X413397500Y-285135000D03*
X419747500Y-282595000D03*
D13*
X417207500Y-306725000D03*
D12*
X422287500Y-306725000D03*
X412127500Y-306725000D03*
D11*
X414557500Y-311025000D03*
X414557500Y-312525000D03*
X419857500Y-311025000D03*
X419857500Y-312525000D03*
D10*
X413397500Y-304185000D03*
X419747500Y-301645000D03*
D12*
X441337500Y-287675000D03*
D13*
X436257500Y-287675000D03*
D12*
X431177500Y-287675000D03*
D11*
X433607500Y-291975000D03*
X433607500Y-293475000D03*
X438907500Y-291975000D03*
X438907500Y-293475000D03*
D10*
X432447500Y-285135000D03*
X438797500Y-282595000D03*
D13*
X455307500Y-287675000D03*
D12*
X450227500Y-287675000D03*
X460387500Y-287675000D03*
D11*
X452657500Y-291975000D03*
X452657500Y-293475000D03*
X457957500Y-291975000D03*
X457957500Y-293475000D03*
D10*
X451497500Y-285135000D03*
X457847500Y-282595000D03*
D12*
X450227500Y-306725000D03*
X460387500Y-306725000D03*
D13*
X455307500Y-306725000D03*
D11*
X452657500Y-311025000D03*
X452657500Y-312525000D03*
X457957500Y-311025000D03*
X457957500Y-312525000D03*
D10*
X451497500Y-304185000D03*
X457847500Y-301645000D03*
D12*
X169875000Y-221000000D03*
X159715000Y-221000000D03*
D13*
X164795000Y-221000000D03*
D11*
X162145000Y-225300000D03*
X162145000Y-226800000D03*
X167445000Y-225300000D03*
X167445000Y-226800000D03*
D10*
X160985000Y-218460000D03*
X167335000Y-215920000D03*
D12*
X178765000Y-221000000D03*
D13*
X183845000Y-221000000D03*
D12*
X188925000Y-221000000D03*
D11*
X181195000Y-225300000D03*
X181195000Y-226800000D03*
X186495000Y-225300000D03*
X186495000Y-226800000D03*
D10*
X180035000Y-218460000D03*
X186385000Y-215920000D03*
D12*
X207975000Y-221000000D03*
D13*
X202895000Y-221000000D03*
D12*
X197815000Y-221000000D03*
D11*
X200245000Y-225300000D03*
X200245000Y-226800000D03*
X205545000Y-225300000D03*
X205545000Y-226800000D03*
D10*
X199085000Y-218460000D03*
X205435000Y-215920000D03*
D12*
X245440000Y-221000000D03*
X255600000Y-221000000D03*
D13*
X250520000Y-221000000D03*
D11*
X247870000Y-225300000D03*
X247870000Y-226800000D03*
X253170000Y-225300000D03*
X253170000Y-226800000D03*
D10*
X246710000Y-218460000D03*
X253060000Y-215920000D03*
D12*
X283540000Y-221000000D03*
X293700000Y-221000000D03*
D13*
X288620000Y-221000000D03*
D11*
X285970000Y-225300000D03*
X285970000Y-226800000D03*
X291270000Y-225300000D03*
X291270000Y-226800000D03*
D10*
X284810000Y-218460000D03*
X291160000Y-215920000D03*
D12*
X302590000Y-221000000D03*
D13*
X307670000Y-221000000D03*
D12*
X312750000Y-221000000D03*
D11*
X305020000Y-225300000D03*
X305020000Y-226800000D03*
X310320000Y-225300000D03*
X310320000Y-226800000D03*
D10*
X303860000Y-218460000D03*
X310210000Y-215920000D03*
D13*
X374345000Y-221000000D03*
D12*
X379425000Y-221000000D03*
X369265000Y-221000000D03*
D11*
X371695000Y-225300000D03*
X371695000Y-226800000D03*
X376995000Y-225300000D03*
X376995000Y-226800000D03*
D10*
X370535000Y-218460000D03*
X376885000Y-215920000D03*
D12*
X222262500Y-287675000D03*
D13*
X217182500Y-287675000D03*
D12*
X212102500Y-287675000D03*
D11*
X214532500Y-291975000D03*
X214532500Y-293475000D03*
X219832500Y-291975000D03*
X219832500Y-293475000D03*
D10*
X213372500Y-285135000D03*
X219722500Y-282595000D03*
D12*
X335927500Y-306725000D03*
D13*
X341007500Y-306725000D03*
D12*
X346087500Y-306725000D03*
D11*
X338357500Y-311025000D03*
X338357500Y-312525000D03*
X343657500Y-311025000D03*
X343657500Y-312525000D03*
D10*
X337197500Y-304185000D03*
X343547500Y-301645000D03*
D12*
X231152500Y-287675000D03*
D13*
X236232500Y-287675000D03*
D12*
X241312500Y-287675000D03*
D11*
X233582500Y-291975000D03*
X233582500Y-293475000D03*
X238882500Y-291975000D03*
X238882500Y-293475000D03*
D10*
X232422500Y-285135000D03*
X238772500Y-282595000D03*
D13*
X255282500Y-287675000D03*
D12*
X260362500Y-287675000D03*
X250202500Y-287675000D03*
D11*
X252632500Y-291975000D03*
X252632500Y-293475000D03*
X257932500Y-291975000D03*
X257932500Y-293475000D03*
D10*
X251472500Y-285135000D03*
X257822500Y-282595000D03*
D12*
X431177500Y-249575000D03*
X441337500Y-249575000D03*
D13*
X436257500Y-249575000D03*
D11*
X433607500Y-253875000D03*
X433607500Y-255375000D03*
X438907500Y-253875000D03*
X438907500Y-255375000D03*
D10*
X432447500Y-247035000D03*
X438797500Y-244495000D03*
D13*
X288620000Y-268625000D03*
D12*
X283540000Y-268625000D03*
X293700000Y-268625000D03*
D11*
X285970000Y-272925000D03*
X285970000Y-274425000D03*
X291270000Y-272925000D03*
X291270000Y-274425000D03*
D10*
X284810000Y-266085000D03*
X291160000Y-263545000D03*
D13*
X417207500Y-249575000D03*
D12*
X422287500Y-249575000D03*
X412127500Y-249575000D03*
D11*
X414557500Y-253875000D03*
X414557500Y-255375000D03*
X419857500Y-253875000D03*
X419857500Y-255375000D03*
D10*
X413397500Y-247035000D03*
X419747500Y-244495000D03*
D13*
X293382500Y-287675000D03*
D12*
X288302500Y-287675000D03*
X298462500Y-287675000D03*
D11*
X290732500Y-291975000D03*
X290732500Y-293475000D03*
X296032500Y-291975000D03*
X296032500Y-293475000D03*
D10*
X289572500Y-285135000D03*
X295922500Y-282595000D03*
D12*
X307352500Y-287675000D03*
X317512500Y-287675000D03*
D13*
X312432500Y-287675000D03*
D11*
X309782500Y-291975000D03*
X309782500Y-293475000D03*
X315082500Y-291975000D03*
X315082500Y-293475000D03*
D10*
X308622500Y-285135000D03*
X314972500Y-282595000D03*
D12*
X181781250Y-325775000D03*
X171621250Y-325775000D03*
D13*
X176701250Y-325775000D03*
D11*
X174051250Y-330075000D03*
X174051250Y-331575000D03*
X179351250Y-330075000D03*
X179351250Y-331575000D03*
D10*
X172891250Y-323235000D03*
X179241250Y-320695000D03*
D13*
X417207500Y-325775000D03*
D12*
X422287500Y-325775000D03*
X412127500Y-325775000D03*
D11*
X414557500Y-330075000D03*
X414557500Y-331575000D03*
X419857500Y-330075000D03*
X419857500Y-331575000D03*
D10*
X413397500Y-323235000D03*
X419747500Y-320695000D03*
D12*
X147808750Y-325775000D03*
X157968750Y-325775000D03*
D13*
X152888750Y-325775000D03*
D11*
X150238750Y-330075000D03*
X150238750Y-331575000D03*
X155538750Y-330075000D03*
X155538750Y-331575000D03*
D10*
X149078750Y-323235000D03*
X155428750Y-320695000D03*
D12*
X278777500Y-306725000D03*
X288937500Y-306725000D03*
D13*
X283857500Y-306725000D03*
D11*
X281207500Y-311025000D03*
X281207500Y-312525000D03*
X286507500Y-311025000D03*
X286507500Y-312525000D03*
D10*
X280047500Y-304185000D03*
X286397500Y-301645000D03*
D13*
X367201250Y-325775000D03*
D12*
X372281250Y-325775000D03*
X362121250Y-325775000D03*
D11*
X364551250Y-330075000D03*
X364551250Y-331575000D03*
X369851250Y-330075000D03*
X369851250Y-331575000D03*
D10*
X363391250Y-323235000D03*
X369741250Y-320695000D03*
D12*
X269887500Y-306725000D03*
X259727500Y-306725000D03*
D13*
X264807500Y-306725000D03*
D11*
X262157500Y-311025000D03*
X262157500Y-312525000D03*
X267457500Y-311025000D03*
X267457500Y-312525000D03*
D10*
X260997500Y-304185000D03*
X267347500Y-301645000D03*
D13*
X307670000Y-268625000D03*
D12*
X312750000Y-268625000D03*
X302590000Y-268625000D03*
D11*
X305020000Y-272925000D03*
X305020000Y-274425000D03*
X310320000Y-272925000D03*
X310320000Y-274425000D03*
D10*
X303860000Y-266085000D03*
X310210000Y-263545000D03*
D12*
X450227500Y-221000000D03*
D13*
X455307500Y-221000000D03*
D12*
X460387500Y-221000000D03*
D11*
X452657500Y-225300000D03*
X452657500Y-226800000D03*
X457957500Y-225300000D03*
X457957500Y-226800000D03*
D10*
X451497500Y-218460000D03*
X457847500Y-215920000D03*
D12*
X460387500Y-268625000D03*
X450227500Y-268625000D03*
D13*
X455307500Y-268625000D03*
D11*
X452657500Y-272925000D03*
X452657500Y-274425000D03*
X457957500Y-272925000D03*
X457957500Y-274425000D03*
D10*
X451497500Y-266085000D03*
X457847500Y-263545000D03*
D13*
X455307500Y-249575000D03*
D12*
X460387500Y-249575000D03*
X450227500Y-249575000D03*
D11*
X452657500Y-253875000D03*
X452657500Y-255375000D03*
X457957500Y-253875000D03*
X457957500Y-255375000D03*
D10*
X451497500Y-247035000D03*
X457847500Y-244495000D03*
D13*
X417207500Y-221000000D03*
D12*
X422287500Y-221000000D03*
X412127500Y-221000000D03*
D11*
X414557500Y-225300000D03*
X414557500Y-226800000D03*
X419857500Y-225300000D03*
X419857500Y-226800000D03*
D10*
X413397500Y-218460000D03*
X419747500Y-215920000D03*
D12*
X150190000Y-268625000D03*
D13*
X155270000Y-268625000D03*
D12*
X160350000Y-268625000D03*
D11*
X152620000Y-272925000D03*
X152620000Y-274425000D03*
X157920000Y-272925000D03*
X157920000Y-274425000D03*
D10*
X151460000Y-266085000D03*
X157810000Y-263545000D03*
D12*
X345452500Y-287675000D03*
X355612500Y-287675000D03*
D13*
X350532500Y-287675000D03*
D11*
X347882500Y-291975000D03*
X347882500Y-293475000D03*
X353182500Y-291975000D03*
X353182500Y-293475000D03*
D10*
X346722500Y-285135000D03*
X353072500Y-282595000D03*
D12*
X217500000Y-268625000D03*
D13*
X212420000Y-268625000D03*
D12*
X207340000Y-268625000D03*
D11*
X209770000Y-272925000D03*
X209770000Y-274425000D03*
X215070000Y-272925000D03*
X215070000Y-274425000D03*
D10*
X208610000Y-266085000D03*
X214960000Y-263545000D03*
D12*
X369900000Y-268625000D03*
D13*
X364820000Y-268625000D03*
D12*
X359740000Y-268625000D03*
D11*
X362170000Y-272925000D03*
X362170000Y-274425000D03*
X367470000Y-272925000D03*
X367470000Y-274425000D03*
D10*
X361010000Y-266085000D03*
X367360000Y-263545000D03*
D12*
X450227500Y-325775000D03*
X460387500Y-325775000D03*
D13*
X455307500Y-325775000D03*
D11*
X452657500Y-330075000D03*
X452657500Y-331575000D03*
X457957500Y-330075000D03*
X457957500Y-331575000D03*
D10*
X451497500Y-323235000D03*
X457847500Y-320695000D03*
D13*
X179082500Y-287675000D03*
D12*
X184162500Y-287675000D03*
X174002500Y-287675000D03*
D11*
X176432500Y-291975000D03*
X176432500Y-293475000D03*
X181732500Y-291975000D03*
X181732500Y-293475000D03*
D10*
X175272500Y-285135000D03*
X181622500Y-282595000D03*
D13*
X436257500Y-221000000D03*
D12*
X431177500Y-221000000D03*
X441337500Y-221000000D03*
D11*
X433607500Y-225300000D03*
X433607500Y-226800000D03*
X438907500Y-225300000D03*
X438907500Y-226800000D03*
D10*
X432447500Y-218460000D03*
X438797500Y-215920000D03*
D13*
X248138750Y-325775000D03*
D12*
X243058750Y-325775000D03*
X253218750Y-325775000D03*
D11*
X245488750Y-330075000D03*
X245488750Y-331575000D03*
X250788750Y-330075000D03*
X250788750Y-331575000D03*
D10*
X244328750Y-323235000D03*
X250678750Y-320695000D03*
D13*
X231470000Y-268625000D03*
D12*
X226390000Y-268625000D03*
X236550000Y-268625000D03*
D11*
X228820000Y-272925000D03*
X228820000Y-274425000D03*
X234120000Y-272925000D03*
X234120000Y-274425000D03*
D10*
X227660000Y-266085000D03*
X234010000Y-263545000D03*
D12*
X264490000Y-268625000D03*
D13*
X269570000Y-268625000D03*
D12*
X274650000Y-268625000D03*
D11*
X266920000Y-272925000D03*
X266920000Y-274425000D03*
X272220000Y-272925000D03*
X272220000Y-274425000D03*
D10*
X265760000Y-266085000D03*
X272110000Y-263545000D03*
D12*
X431177500Y-306725000D03*
X441337500Y-306725000D03*
D13*
X436257500Y-306725000D03*
D11*
X433607500Y-311025000D03*
X433607500Y-312525000D03*
X438907500Y-311025000D03*
X438907500Y-312525000D03*
D10*
X432447500Y-304185000D03*
X438797500Y-301645000D03*
D12*
X169240000Y-268625000D03*
D13*
X174320000Y-268625000D03*
D12*
X179400000Y-268625000D03*
D11*
X171670000Y-272925000D03*
X171670000Y-274425000D03*
X176970000Y-272925000D03*
X176970000Y-274425000D03*
D10*
X170510000Y-266085000D03*
X176860000Y-263545000D03*
D12*
X193687500Y-306725000D03*
D13*
X188607500Y-306725000D03*
D12*
X183527500Y-306725000D03*
D11*
X185957500Y-311025000D03*
X185957500Y-312525000D03*
X191257500Y-311025000D03*
X191257500Y-312525000D03*
D10*
X184797500Y-304185000D03*
X191147500Y-301645000D03*
D12*
X255600000Y-268625000D03*
D13*
X250520000Y-268625000D03*
D12*
X245440000Y-268625000D03*
D11*
X247870000Y-272925000D03*
X247870000Y-274425000D03*
X253170000Y-272925000D03*
X253170000Y-274425000D03*
D10*
X246710000Y-266085000D03*
X253060000Y-263545000D03*
D13*
X274332500Y-287675000D03*
D12*
X279412500Y-287675000D03*
X269252500Y-287675000D03*
D11*
X271682500Y-291975000D03*
X271682500Y-293475000D03*
X276982500Y-291975000D03*
X276982500Y-293475000D03*
D10*
X270522500Y-285135000D03*
X276872500Y-282595000D03*
D12*
X340690000Y-268625000D03*
D13*
X345770000Y-268625000D03*
D12*
X350850000Y-268625000D03*
D11*
X343120000Y-272925000D03*
X343120000Y-274425000D03*
X348420000Y-272925000D03*
X348420000Y-274425000D03*
D10*
X341960000Y-266085000D03*
X348310000Y-263545000D03*
D12*
X350215000Y-221000000D03*
D13*
X355295000Y-221000000D03*
D12*
X360375000Y-221000000D03*
D11*
X352645000Y-225300000D03*
X352645000Y-226800000D03*
X357945000Y-225300000D03*
X357945000Y-226800000D03*
D10*
X351485000Y-218460000D03*
X357835000Y-215920000D03*
D12*
X227025000Y-221000000D03*
X216865000Y-221000000D03*
D13*
X221945000Y-221000000D03*
D11*
X219295000Y-225300000D03*
X219295000Y-226800000D03*
X224595000Y-225300000D03*
X224595000Y-226800000D03*
D10*
X218135000Y-218460000D03*
X224485000Y-215920000D03*
D12*
X274650000Y-221000000D03*
D13*
X269570000Y-221000000D03*
D12*
X264490000Y-221000000D03*
D11*
X266920000Y-225300000D03*
X266920000Y-226800000D03*
X272220000Y-225300000D03*
X272220000Y-226800000D03*
D10*
X265760000Y-218460000D03*
X272110000Y-215920000D03*
D13*
X319576250Y-325775000D03*
D12*
X324656250Y-325775000D03*
X314496250Y-325775000D03*
D11*
X316926250Y-330075000D03*
X316926250Y-331575000D03*
X322226250Y-330075000D03*
X322226250Y-331575000D03*
D10*
X315766250Y-323235000D03*
X322116250Y-320695000D03*
D12*
X307987500Y-306725000D03*
X297827500Y-306725000D03*
D13*
X302907500Y-306725000D03*
D11*
X300257500Y-311025000D03*
X300257500Y-312525000D03*
X305557500Y-311025000D03*
X305557500Y-312525000D03*
D10*
X299097500Y-304185000D03*
X305447500Y-301645000D03*
D13*
X131457500Y-268625000D03*
D12*
X136537500Y-268625000D03*
X126377500Y-268625000D03*
D11*
X128807500Y-272925000D03*
X128807500Y-274425000D03*
X134107500Y-272925000D03*
X134107500Y-274425000D03*
D10*
X127647500Y-266085000D03*
X133997500Y-263545000D03*
D13*
X138601250Y-306725000D03*
D12*
X133521250Y-306725000D03*
X143681250Y-306725000D03*
D11*
X135951250Y-311025000D03*
X135951250Y-312525000D03*
X141251250Y-311025000D03*
X141251250Y-312525000D03*
D10*
X134791250Y-304185000D03*
X141141250Y-301645000D03*
D12*
X123996250Y-325775000D03*
D13*
X129076250Y-325775000D03*
D12*
X134156250Y-325775000D03*
D11*
X126426250Y-330075000D03*
X126426250Y-331575000D03*
X131726250Y-330075000D03*
X131726250Y-331575000D03*
D10*
X125266250Y-323235000D03*
X131616250Y-320695000D03*
D12*
X131775000Y-221000000D03*
X121615000Y-221000000D03*
D13*
X126695000Y-221000000D03*
D11*
X124045000Y-225300000D03*
X124045000Y-226800000D03*
X129345000Y-225300000D03*
X129345000Y-226800000D03*
D10*
X122885000Y-218460000D03*
X129235000Y-215920000D03*
D12*
X128758750Y-287675000D03*
X138918750Y-287675000D03*
D13*
X133838750Y-287675000D03*
D11*
X131188750Y-291975000D03*
X131188750Y-293475000D03*
X136488750Y-291975000D03*
X136488750Y-293475000D03*
D10*
X130028750Y-285135000D03*
X136378750Y-282595000D03*
D13*
X126695000Y-249575000D03*
D12*
X121615000Y-249575000D03*
X131775000Y-249575000D03*
D11*
X124045000Y-253875000D03*
X124045000Y-255375000D03*
X129345000Y-253875000D03*
X129345000Y-255375000D03*
D10*
X122885000Y-247035000D03*
X129235000Y-244495000D03*
D13*
X226707500Y-306725000D03*
D12*
X231787500Y-306725000D03*
X221627500Y-306725000D03*
D11*
X224057500Y-311025000D03*
X224057500Y-312525000D03*
X229357500Y-311025000D03*
X229357500Y-312525000D03*
D10*
X222897500Y-304185000D03*
X229247500Y-301645000D03*
D12*
X326402500Y-287675000D03*
X336562500Y-287675000D03*
D13*
X331482500Y-287675000D03*
D11*
X328832500Y-291975000D03*
X328832500Y-293475000D03*
X334132500Y-291975000D03*
X334132500Y-293475000D03*
D10*
X327672500Y-285135000D03*
X334022500Y-282595000D03*
D13*
X343388750Y-325775000D03*
D12*
X348468750Y-325775000D03*
X338308750Y-325775000D03*
D11*
X340738750Y-330075000D03*
X340738750Y-331575000D03*
X346038750Y-330075000D03*
X346038750Y-331575000D03*
D10*
X339578750Y-323235000D03*
X345928750Y-320695000D03*
D13*
X326720000Y-268625000D03*
D12*
X321640000Y-268625000D03*
X331800000Y-268625000D03*
D11*
X324070000Y-272925000D03*
X324070000Y-274425000D03*
X329370000Y-272925000D03*
X329370000Y-274425000D03*
D10*
X322910000Y-266085000D03*
X329260000Y-263545000D03*
D12*
X341325000Y-221000000D03*
D13*
X336245000Y-221000000D03*
D12*
X331165000Y-221000000D03*
D11*
X333595000Y-225300000D03*
X333595000Y-226800000D03*
X338895000Y-225300000D03*
X338895000Y-226800000D03*
D10*
X332435000Y-218460000D03*
X338785000Y-215920000D03*
D12*
X385933750Y-325775000D03*
X396093750Y-325775000D03*
D13*
X391013750Y-325775000D03*
D11*
X388363750Y-330075000D03*
X388363750Y-331575000D03*
X393663750Y-330075000D03*
X393663750Y-331575000D03*
D10*
X387203750Y-323235000D03*
X393553750Y-320695000D03*
D12*
X327037500Y-306725000D03*
D13*
X321957500Y-306725000D03*
D12*
X316877500Y-306725000D03*
D11*
X319307500Y-311025000D03*
X319307500Y-312525000D03*
X324607500Y-311025000D03*
X324607500Y-312525000D03*
D10*
X318147500Y-304185000D03*
X324497500Y-301645000D03*
D14*
X124000000Y-181000000D03*
D15*
X116380000Y-181000000D03*
D14*
X370000000Y-197000000D03*
D15*
X362380000Y-197000000D03*
D14*
X340000000Y-193000000D03*
D15*
X332380000Y-193000000D03*
D14*
X140000000Y-185000000D03*
D15*
X132380000Y-185000000D03*
D16*
X386000000Y-190540000D03*
D17*
X386000000Y-188000000D03*
D18*
X293000000Y-172025000D03*
X292150000Y-172025000D03*
X291300000Y-172025000D03*
X290450000Y-172025000D03*
X289600000Y-172025000D03*
X288750000Y-172025000D03*
X287900000Y-172025000D03*
X287050000Y-172025000D03*
X287050000Y-170675000D03*
X287900000Y-170675000D03*
X288750000Y-170675000D03*
X289600000Y-170675000D03*
X290450000Y-170675000D03*
X291300000Y-170675000D03*
X292150000Y-170675000D03*
X293000000Y-170675000D03*
D19*
X294350000Y-171045000D03*
D20*
X294350000Y-167665000D03*
D19*
X285700000Y-171045000D03*
D20*
X285700000Y-167665000D03*
D21*
X437500000Y-194700000D03*
X390500000Y-194700000D03*
X437500000Y-183300000D03*
X390500000Y-183300000D03*
D17*
X389870000Y-197890000D03*
X392410000Y-197890000D03*
D16*
X394950000Y-197890000D03*
D17*
X397490000Y-197890000D03*
X400030000Y-197890000D03*
X402570000Y-197890000D03*
X405110000Y-197890000D03*
D16*
X407650000Y-197890000D03*
D17*
X410190000Y-197890000D03*
X412730000Y-197890000D03*
X415270000Y-197890000D03*
X417810000Y-197890000D03*
D16*
X420350000Y-197890000D03*
D17*
X422890000Y-197890000D03*
X425430000Y-197890000D03*
X427970000Y-197890000D03*
X430510000Y-197890000D03*
D16*
X433050000Y-197890000D03*
D17*
X435590000Y-197890000D03*
X438130000Y-197890000D03*
X438130000Y-180110000D03*
X435590000Y-180110000D03*
D16*
X433050000Y-180110000D03*
D17*
X430510000Y-180110000D03*
X427970000Y-180110000D03*
X425430000Y-180110000D03*
X422890000Y-180110000D03*
D16*
X420350000Y-180110000D03*
D17*
X417810000Y-180110000D03*
X415270000Y-180110000D03*
X412730000Y-180110000D03*
X410190000Y-180110000D03*
D16*
X407650000Y-180110000D03*
D17*
X405110000Y-180110000D03*
X402570000Y-180110000D03*
X400030000Y-180110000D03*
X397490000Y-180110000D03*
D16*
X394950000Y-180110000D03*
D17*
X392410000Y-180110000D03*
X389870000Y-180110000D03*
X437900000Y-191540000D03*
D16*
X437900000Y-189000000D03*
D17*
X437900000Y-186460000D03*
D22*
X392630000Y-189000000D03*
X389350000Y-188000000D03*
X389330000Y-190000000D03*
D14*
X338000000Y-189000000D03*
D15*
X330380000Y-189000000D03*
D14*
X226000000Y-189000000D03*
D15*
X218380000Y-189000000D03*
D14*
X310000000Y-189000000D03*
D15*
X302380000Y-189000000D03*
D14*
X300000000Y-197000000D03*
D15*
X292380000Y-197000000D03*
D14*
X296000000Y-189000000D03*
D15*
X288380000Y-189000000D03*
D14*
X282000000Y-189000000D03*
D15*
X274380000Y-189000000D03*
D14*
X142000000Y-189000000D03*
D15*
X134380000Y-189000000D03*
D14*
X194000000Y-181000000D03*
D15*
X186380000Y-181000000D03*
D14*
X328000000Y-197000000D03*
D15*
X320380000Y-197000000D03*
D14*
X160000000Y-197000000D03*
D15*
X152380000Y-197000000D03*
D14*
X180000000Y-181000000D03*
D15*
X172380000Y-181000000D03*
D23*
X450000000Y-189000000D03*
X461400000Y-189000000D03*
D24*
X453200000Y-196500000D03*
X458200000Y-196500000D03*
X455700000Y-196500000D03*
X453200000Y-182000000D03*
X458200000Y-182000000D03*
D14*
X286000000Y-197000000D03*
D15*
X278380000Y-197000000D03*
D14*
X240000000Y-189000000D03*
D15*
X232380000Y-189000000D03*
D14*
X322000000Y-185000000D03*
D15*
X314380000Y-185000000D03*
D14*
X362000000Y-181000000D03*
D15*
X354380000Y-181000000D03*
D14*
X324000000Y-189000000D03*
D15*
X316380000Y-189000000D03*
D14*
X384000000Y-197000000D03*
D15*
X376380000Y-197000000D03*
D14*
X308000000Y-185000000D03*
D15*
X300380000Y-185000000D03*
D14*
X334000000Y-181000000D03*
D15*
X326380000Y-181000000D03*
D14*
X258000000Y-197000000D03*
D15*
X250380000Y-197000000D03*
D14*
X242000000Y-193000000D03*
D15*
X234380000Y-193000000D03*
D14*
X154000000Y-185000000D03*
D15*
X146380000Y-185000000D03*
D14*
X342000000Y-197000000D03*
D15*
X334380000Y-197000000D03*
D14*
X172000000Y-193000000D03*
D15*
X164380000Y-193000000D03*
D14*
X144000000Y-193000000D03*
D15*
X136380000Y-193000000D03*
D14*
X212000000Y-189000000D03*
D15*
X204380000Y-189000000D03*
D14*
X244000000Y-197000000D03*
D15*
X236380000Y-197000000D03*
D14*
X314000000Y-197000000D03*
D15*
X306380000Y-197000000D03*
D14*
X280000000Y-185000000D03*
D15*
X272380000Y-185000000D03*
D14*
X202000000Y-197000000D03*
D15*
X194380000Y-197000000D03*
D14*
X320000000Y-181000000D03*
D15*
X312380000Y-181000000D03*
D14*
X182000000Y-185000000D03*
D15*
X174380000Y-185000000D03*
D14*
X364000000Y-185000000D03*
D15*
X356380000Y-185000000D03*
D14*
X378000000Y-185000000D03*
D15*
X370380000Y-185000000D03*
D14*
X284000000Y-193000000D03*
D15*
X276380000Y-193000000D03*
D14*
X264000000Y-181000000D03*
D15*
X256380000Y-181000000D03*
D14*
X130000000Y-193000000D03*
D15*
X122380000Y-193000000D03*
D14*
X254000000Y-189000000D03*
D15*
X246380000Y-189000000D03*
D14*
X200000000Y-193000000D03*
D15*
X192380000Y-193000000D03*
D14*
X350000000Y-185000000D03*
D15*
X342380000Y-185000000D03*
D14*
X252000000Y-185000000D03*
D15*
X244380000Y-185000000D03*
D14*
X228000000Y-193000000D03*
D15*
X220380000Y-193000000D03*
D14*
X270000000Y-193000000D03*
D15*
X262380000Y-193000000D03*
D14*
X126000000Y-185000000D03*
D15*
X118380000Y-185000000D03*
D14*
X132000000Y-197000000D03*
D15*
X124380000Y-197000000D03*
D14*
X348000000Y-181000000D03*
D15*
X340380000Y-181000000D03*
D14*
X356000000Y-197000000D03*
D15*
X348380000Y-197000000D03*
D14*
X268000000Y-189000000D03*
D15*
X260380000Y-189000000D03*
D14*
X256000000Y-193000000D03*
D15*
X248380000Y-193000000D03*
D14*
X230000000Y-197000000D03*
D15*
X222380000Y-197000000D03*
D14*
X170000000Y-189000000D03*
D15*
X162380000Y-189000000D03*
D14*
X174000000Y-197000000D03*
D15*
X166380000Y-197000000D03*
D14*
X166000000Y-181000000D03*
D15*
X158380000Y-181000000D03*
D14*
X210000000Y-185000000D03*
D15*
X202380000Y-185000000D03*
D14*
X186000000Y-193000000D03*
D15*
X178380000Y-193000000D03*
D14*
X278000000Y-181000000D03*
D15*
X270380000Y-181000000D03*
D14*
X266000000Y-185000000D03*
D15*
X258380000Y-185000000D03*
D14*
X152000000Y-181000000D03*
D15*
X144380000Y-181000000D03*
D14*
X184000000Y-189000000D03*
D15*
X176380000Y-189000000D03*
D14*
X366000000Y-189000000D03*
D15*
X358380000Y-189000000D03*
D14*
X188000000Y-197000000D03*
D15*
X180380000Y-197000000D03*
D14*
X158000000Y-193000000D03*
D15*
X150380000Y-193000000D03*
D14*
X298000000Y-193000000D03*
D15*
X290380000Y-193000000D03*
D14*
X128000000Y-189000000D03*
D15*
X120380000Y-189000000D03*
D14*
X272000000Y-197000000D03*
D15*
X264380000Y-197000000D03*
D14*
X352000000Y-189000000D03*
D15*
X344380000Y-189000000D03*
D14*
X382000000Y-193000000D03*
D15*
X374380000Y-193000000D03*
D14*
X368000000Y-193000000D03*
D15*
X360380000Y-193000000D03*
D14*
X208000000Y-181000000D03*
D15*
X200380000Y-181000000D03*
D14*
X196000000Y-185000000D03*
D15*
X188380000Y-185000000D03*
D14*
X216000000Y-197000000D03*
D15*
X208380000Y-197000000D03*
D14*
X326000000Y-193000000D03*
D15*
X318380000Y-193000000D03*
D14*
X198000000Y-189000000D03*
D15*
X190380000Y-189000000D03*
D14*
X138000000Y-181000000D03*
D15*
X130380000Y-181000000D03*
D14*
X336000000Y-185000000D03*
D15*
X328380000Y-185000000D03*
D14*
X376000000Y-181000000D03*
D15*
X368380000Y-181000000D03*
D14*
X214000000Y-193000000D03*
D15*
X206380000Y-193000000D03*
D14*
X306000000Y-181000000D03*
D15*
X298380000Y-181000000D03*
D14*
X236000000Y-181000000D03*
D15*
X228380000Y-181000000D03*
D14*
X292000000Y-181000000D03*
D15*
X284380000Y-181000000D03*
D14*
X294000000Y-185000000D03*
D15*
X286380000Y-185000000D03*
D14*
X156000000Y-189000000D03*
D15*
X148380000Y-189000000D03*
D14*
X354000000Y-193000000D03*
D15*
X346380000Y-193000000D03*
D14*
X168000000Y-185000000D03*
D15*
X160380000Y-185000000D03*
D14*
X146000000Y-197000000D03*
D15*
X138380000Y-197000000D03*
D14*
X224000000Y-185000000D03*
D15*
X216380000Y-185000000D03*
D14*
X222000000Y-181000000D03*
D15*
X214380000Y-181000000D03*
D14*
X380000000Y-189000000D03*
D15*
X372380000Y-189000000D03*
D14*
X238000000Y-185000000D03*
D15*
X230380000Y-185000000D03*
D14*
X312000000Y-193000000D03*
D15*
X304380000Y-193000000D03*
D14*
X250000000Y-181000000D03*
D15*
X242380000Y-181000000D03*
D12*
X322275000Y-249575000D03*
D13*
X317195000Y-249575000D03*
D12*
X312115000Y-249575000D03*
D11*
X314545000Y-253875000D03*
X314545000Y-255375000D03*
X319845000Y-253875000D03*
X319845000Y-255375000D03*
D10*
X313385000Y-247035000D03*
X319735000Y-244495000D03*
D12*
X398475000Y-221000000D03*
D13*
X393395000Y-221000000D03*
D12*
X388315000Y-221000000D03*
D11*
X390745000Y-225300000D03*
X390745000Y-226800000D03*
X396045000Y-225300000D03*
X396045000Y-226800000D03*
D10*
X389585000Y-218460000D03*
X395935000Y-215920000D03*
D12*
X174637500Y-306725000D03*
X164477500Y-306725000D03*
D13*
X169557500Y-306725000D03*
D11*
X166907500Y-311025000D03*
X166907500Y-312525000D03*
X172207500Y-311025000D03*
X172207500Y-312525000D03*
D10*
X165747500Y-304185000D03*
X172097500Y-301645000D03*
D25*
X126663250Y-314980000D03*
X150539250Y-314980000D03*
D26*
X126663250Y-299740000D03*
X150539250Y-299740000D03*
X364788250Y-299740000D03*
D25*
X388664250Y-314980000D03*
D26*
X388664250Y-299740000D03*
D25*
X364788250Y-314980000D03*
X393426750Y-295930000D03*
X369550750Y-295930000D03*
D26*
X369550750Y-280690000D03*
X393426750Y-280690000D03*
D25*
X395808000Y-257830000D03*
D26*
X371932000Y-242590000D03*
X395808000Y-242590000D03*
D25*
X371932000Y-257830000D03*
X198100750Y-334030000D03*
D26*
X198100750Y-318790000D03*
D25*
X221976750Y-334030000D03*
D26*
X221976750Y-318790000D03*
D25*
X298176750Y-334030000D03*
X274300750Y-334030000D03*
D26*
X298176750Y-318790000D03*
X274300750Y-318790000D03*
X236200750Y-318790000D03*
X260076750Y-318790000D03*
D25*
X260076750Y-334030000D03*
X236200750Y-334030000D03*
D27*
X114000000Y-205000000D03*
X363000000Y-287675000D03*
X467999558Y-205000000D03*
X468000000Y-170000000D03*
X147000000Y-287675000D03*
X379500000Y-235000000D03*
X305000000Y-170000000D03*
X322000000Y-221000000D03*
X202500000Y-170000000D03*
X114000000Y-254499558D03*
X467999558Y-254499558D03*
X202500000Y-339000000D03*
X236250000Y-221000000D03*
X379500000Y-339000000D03*
X291000000Y-339000000D03*
X114000000Y-215000000D03*
X202500000Y-235000000D03*
X467999558Y-215000000D03*
X114000000Y-339000000D03*
X275000000Y-170000000D03*
X468000000Y-339000000D03*
X291000000Y-235000000D03*
X114000000Y-170000000D03*
X379500000Y-170000000D03*
D28*
X143351250Y-312425000D03*
X143351250Y-310525000D03*
X441007500Y-331475000D03*
X441007500Y-329575000D03*
X255270000Y-226700000D03*
X255270000Y-224800000D03*
X169545000Y-226700000D03*
X169545000Y-224800000D03*
X183832500Y-293375000D03*
X183832500Y-291475000D03*
X212407500Y-312425000D03*
X212407500Y-310525000D03*
X336232500Y-293375000D03*
X336232500Y-291475000D03*
X179070000Y-274325000D03*
X179070000Y-272425000D03*
X302895000Y-255275000D03*
X302895000Y-253375000D03*
X421957500Y-226700000D03*
X421957500Y-224800000D03*
X369570000Y-274325000D03*
X369570000Y-272425000D03*
X202882500Y-293375000D03*
X202882500Y-291475000D03*
X260032500Y-293375000D03*
X260032500Y-291475000D03*
X340995000Y-255275000D03*
X340995000Y-253375000D03*
X217170000Y-274325000D03*
X217170000Y-272425000D03*
X231457500Y-312425000D03*
X231457500Y-310525000D03*
X214788750Y-331475000D03*
X214788750Y-329575000D03*
X441007500Y-226700000D03*
X441007500Y-224800000D03*
X293370000Y-274325000D03*
X293370000Y-272425000D03*
X283845000Y-255275000D03*
X283845000Y-253375000D03*
X274320000Y-226700000D03*
X274320000Y-224800000D03*
X150495000Y-226700000D03*
X150495000Y-224800000D03*
X198120000Y-274325000D03*
X198120000Y-272425000D03*
X441007500Y-312425000D03*
X441007500Y-310525000D03*
X331470000Y-274325000D03*
X331470000Y-272425000D03*
X279082500Y-293375000D03*
X279082500Y-291475000D03*
X421957500Y-255275000D03*
X421957500Y-253375000D03*
X298132500Y-293375000D03*
X298132500Y-291475000D03*
X133826250Y-331475000D03*
X133826250Y-329575000D03*
X421957500Y-274325000D03*
X421957500Y-272425000D03*
X371951250Y-331475000D03*
X371951250Y-329575000D03*
X160020000Y-274325000D03*
X160020000Y-272425000D03*
X317182500Y-293375000D03*
X317182500Y-291475000D03*
X236220000Y-274325000D03*
X236220000Y-272425000D03*
X460057500Y-255275000D03*
X460057500Y-253375000D03*
X226695000Y-226700000D03*
X226695000Y-224800000D03*
X240982500Y-293375000D03*
X240982500Y-291475000D03*
X274320000Y-274325000D03*
X274320000Y-272425000D03*
X188595000Y-255275000D03*
X188595000Y-253375000D03*
X350520000Y-274325000D03*
X350520000Y-272425000D03*
X441007500Y-255275000D03*
X441007500Y-253375000D03*
X138588750Y-293375000D03*
X138588750Y-291475000D03*
X131445000Y-255275000D03*
X131445000Y-253375000D03*
X355282500Y-293375000D03*
X355282500Y-291475000D03*
X174307500Y-312425000D03*
X174307500Y-310525000D03*
X348138750Y-331475000D03*
X348138750Y-329575000D03*
X164782500Y-293375000D03*
X164782500Y-291475000D03*
X395763750Y-331475000D03*
X395763750Y-329575000D03*
X290988750Y-331475000D03*
X290988750Y-329575000D03*
X255270000Y-274325000D03*
X255270000Y-272425000D03*
X312420000Y-274325000D03*
X312420000Y-272425000D03*
X460057500Y-293375000D03*
X460057500Y-291475000D03*
X250507500Y-312425000D03*
X250507500Y-310525000D03*
X321945000Y-255275000D03*
X321945000Y-253375000D03*
X379095000Y-226700000D03*
X379095000Y-224800000D03*
X288607500Y-312425000D03*
X288607500Y-310525000D03*
X360045000Y-255275000D03*
X360045000Y-253375000D03*
X421957500Y-293375000D03*
X421957500Y-291475000D03*
X131445000Y-226700000D03*
X131445000Y-224800000D03*
X226695000Y-255275000D03*
X226695000Y-253375000D03*
X157638750Y-331475000D03*
X157638750Y-329575000D03*
X312420000Y-226700000D03*
X312420000Y-224800000D03*
X460057500Y-312425000D03*
X460057500Y-310525000D03*
X324326250Y-331475000D03*
X324326250Y-329575000D03*
X388620000Y-255275000D03*
X388620000Y-253375000D03*
X207645000Y-255275000D03*
X207645000Y-253375000D03*
X393382500Y-274325000D03*
X393382500Y-272425000D03*
X207645000Y-226700000D03*
X207645000Y-224800000D03*
X252888750Y-331475000D03*
X252888750Y-329575000D03*
X221932500Y-293375000D03*
X221932500Y-291475000D03*
X340995000Y-226700000D03*
X340995000Y-224800000D03*
X421957500Y-331475000D03*
X421957500Y-329575000D03*
X421957500Y-312425000D03*
X421957500Y-310525000D03*
X441007500Y-293375000D03*
X441007500Y-291475000D03*
X264795000Y-255275000D03*
X264795000Y-253375000D03*
X169545000Y-255275000D03*
X169545000Y-253375000D03*
X441007500Y-274325000D03*
X441007500Y-272425000D03*
X193357500Y-312425000D03*
X193357500Y-310525000D03*
X460057500Y-331475000D03*
X460057500Y-329575000D03*
X136207500Y-274325000D03*
X136207500Y-272425000D03*
X181451250Y-331475000D03*
X181451250Y-329575000D03*
X386238750Y-293375000D03*
X386238750Y-291475000D03*
X460057500Y-274325000D03*
X460057500Y-272425000D03*
X360045000Y-226700000D03*
X360045000Y-224800000D03*
X293370000Y-226700000D03*
X293370000Y-224800000D03*
X188595000Y-226700000D03*
X188595000Y-224800000D03*
X245745000Y-255275000D03*
X245745000Y-253375000D03*
X326707500Y-312425000D03*
X326707500Y-310525000D03*
X345757500Y-312425000D03*
X345757500Y-310525000D03*
X307657500Y-312425000D03*
X307657500Y-310525000D03*
X381476250Y-312425000D03*
X381476250Y-310525000D03*
X269557500Y-312425000D03*
X269557500Y-310525000D03*
X460057500Y-226700000D03*
X460057500Y-224800000D03*
X150495000Y-255275000D03*
X150495000Y-253375000D03*
X398145000Y-226700000D03*
X398145000Y-224800000D03*
D29*
X442600000Y-188050000D03*
X443250000Y-188050000D03*
X443900000Y-188050000D03*
X443900000Y-189950000D03*
X442600000Y-189950000D03*
D30*
X446000000Y-188350000D03*
D31*
X446000000Y-189650000D03*
M02*
