M48
; DRILL file {KiCad (6.0.0)} date Tue Mar  1 15:51:01 2022
; FORMAT={-:-/ absolute / metric / decimal}
; #@! TF.CreationDate,2022-03-01T15:51:01-08:00
; #@! TF.GenerationSoftware,Kicad,Pcbnew,(6.0.0)
; #@! TF.FileFunction,Plated,1,2,PTH
FMAT,2
METRIC
; #@! TA.AperFunction,Plated,PTH,ViaDrill
T1C0.400
; #@! TA.AperFunction,Plated,PTH,ComponentDrill
T2C0.400
; #@! TA.AperFunction,Plated,PTH,ComponentDrill
T3C0.600
; #@! TA.AperFunction,Plated,PTH,ComponentDrill
T4C0.800
; #@! TA.AperFunction,Plated,PTH,ComponentDrill
T5C1.000
; #@! TA.AperFunction,Plated,PTH,ComponentDrill
T6C1.020
; #@! TA.AperFunction,Plated,PTH,ComponentDrill
T7C1.300
; #@! TA.AperFunction,Plated,PTH,ComponentDrill
T8C1.500
; #@! TA.AperFunction,Plated,PTH,ComponentDrill
T9C1.800
%
G90
G05
T1
X124.75Y-331.675
X141.5Y-319.0
X141.5Y-320.5
X141.513Y-317.987
X141.519Y-316.968
X142.0Y-180.0
X145.0Y-311.0
X351.0Y-314.75
X351.0Y-316.0
X351.0Y-317.25
X409.0Y-317.5
X409.0Y-318.75
X409.0Y-320.75
T2
X287.05Y-173.375
X287.05Y-174.725
X287.9Y-173.375
X287.9Y-174.725
X288.75Y-173.375
X288.75Y-174.725
X289.6Y-173.375
X289.6Y-174.725
X290.45Y-173.375
X290.45Y-174.725
X291.3Y-173.375
X291.3Y-174.725
X292.15Y-173.375
X292.15Y-174.725
X293.0Y-173.375
X293.0Y-174.725
T4
X116.38Y-181.0
X118.38Y-185.0
X120.38Y-189.0
X122.38Y-193.0
X124.0Y-181.0
X124.38Y-197.0
X126.0Y-185.0
X128.0Y-189.0
X130.0Y-193.0
X130.38Y-181.0
X132.0Y-197.0
X132.38Y-185.0
X134.38Y-189.0
X136.38Y-193.0
X138.0Y-181.0
X138.38Y-197.0
X140.0Y-185.0
X142.0Y-189.0
X144.0Y-193.0
X144.38Y-181.0
X146.0Y-197.0
X146.38Y-185.0
X148.38Y-189.0
X150.38Y-193.0
X152.0Y-181.0
X152.38Y-197.0
X154.0Y-185.0
X156.0Y-189.0
X158.0Y-193.0
X158.38Y-181.0
X160.0Y-197.0
X160.38Y-185.0
X162.38Y-189.0
X164.38Y-193.0
X166.0Y-181.0
X166.38Y-197.0
X168.0Y-185.0
X170.0Y-189.0
X172.0Y-193.0
X172.38Y-181.0
X174.0Y-197.0
X174.38Y-185.0
X176.38Y-189.0
X178.38Y-193.0
X180.0Y-181.0
X180.38Y-197.0
X182.0Y-185.0
X184.0Y-189.0
X186.0Y-193.0
X186.38Y-181.0
X188.0Y-197.0
X188.38Y-185.0
X190.38Y-189.0
X192.38Y-193.0
X194.0Y-181.0
X194.38Y-197.0
X196.0Y-185.0
X198.0Y-189.0
X200.0Y-193.0
X200.38Y-181.0
X202.0Y-197.0
X202.38Y-185.0
X204.38Y-189.0
X206.38Y-193.0
X208.0Y-181.0
X208.38Y-197.0
X210.0Y-185.0
X212.0Y-189.0
X214.0Y-193.0
X214.38Y-181.0
X216.0Y-197.0
X216.38Y-185.0
X218.38Y-189.0
X220.38Y-193.0
X222.0Y-181.0
X222.38Y-197.0
X224.0Y-185.0
X226.0Y-189.0
X228.0Y-193.0
X228.38Y-181.0
X230.0Y-197.0
X230.38Y-185.0
X232.38Y-189.0
X234.38Y-193.0
X236.0Y-181.0
X236.38Y-197.0
X238.0Y-185.0
X240.0Y-189.0
X242.0Y-193.0
X242.38Y-181.0
X244.0Y-197.0
X244.38Y-185.0
X246.38Y-189.0
X248.38Y-193.0
X250.0Y-181.0
X250.38Y-197.0
X252.0Y-185.0
X254.0Y-189.0
X256.0Y-193.0
X256.38Y-181.0
X258.0Y-197.0
X258.38Y-185.0
X260.38Y-189.0
X262.38Y-193.0
X264.0Y-181.0
X264.38Y-197.0
X266.0Y-185.0
X268.0Y-189.0
X270.0Y-193.0
X270.38Y-181.0
X272.0Y-197.0
X272.38Y-185.0
X274.38Y-189.0
X276.38Y-193.0
X278.0Y-181.0
X278.38Y-197.0
X280.0Y-185.0
X282.0Y-189.0
X284.0Y-193.0
X284.38Y-181.0
X286.0Y-197.0
X286.38Y-185.0
X288.38Y-189.0
X290.38Y-193.0
X292.0Y-181.0
X292.38Y-197.0
X294.0Y-185.0
X296.0Y-189.0
X298.0Y-193.0
X298.38Y-181.0
X300.0Y-197.0
X300.38Y-185.0
X302.38Y-189.0
X304.38Y-193.0
X306.0Y-181.0
X306.38Y-197.0
X308.0Y-185.0
X310.0Y-189.0
X312.0Y-193.0
X312.38Y-181.0
X314.0Y-197.0
X314.38Y-185.0
X316.38Y-189.0
X318.38Y-193.0
X320.0Y-181.0
X320.38Y-197.0
X322.0Y-185.0
X324.0Y-189.0
X326.0Y-193.0
X326.38Y-181.0
X328.0Y-197.0
X328.38Y-185.0
X330.38Y-189.0
X332.38Y-193.0
X334.0Y-181.0
X334.38Y-197.0
X336.0Y-185.0
X338.0Y-189.0
X340.0Y-193.0
X340.38Y-181.0
X342.0Y-197.0
X342.38Y-185.0
X344.38Y-189.0
X346.38Y-193.0
X348.0Y-181.0
X348.38Y-197.0
X350.0Y-185.0
X352.0Y-189.0
X354.0Y-193.0
X354.38Y-181.0
X356.0Y-197.0
X356.38Y-185.0
X358.38Y-189.0
X360.38Y-193.0
X362.0Y-181.0
X362.38Y-197.0
X364.0Y-185.0
X366.0Y-189.0
X368.0Y-193.0
X368.38Y-181.0
X370.0Y-197.0
X370.38Y-185.0
X372.38Y-189.0
X374.38Y-193.0
X376.0Y-181.0
X376.38Y-197.0
X378.0Y-185.0
X380.0Y-189.0
X382.0Y-193.0
X384.0Y-197.0
X451.5Y-203.0
X459.12Y-203.0
T5
X386.0Y-188.0
X386.0Y-190.54
X453.2Y-182.0
X453.2Y-196.5
X455.7Y-196.5
X458.2Y-182.0
X458.2Y-196.5
T6
X389.87Y-180.11
X389.87Y-197.89
X392.41Y-180.11
X392.41Y-197.89
X394.95Y-180.11
X394.95Y-197.89
X397.49Y-180.11
X397.49Y-197.89
X400.03Y-180.11
X400.03Y-197.89
X402.57Y-180.11
X402.57Y-197.89
X405.11Y-180.11
X405.11Y-197.89
X407.65Y-180.11
X407.65Y-197.89
X410.19Y-180.11
X410.19Y-197.89
X412.73Y-180.11
X412.73Y-197.89
X415.27Y-180.11
X415.27Y-197.89
X417.81Y-180.11
X417.81Y-197.89
X420.35Y-180.11
X420.35Y-197.89
X422.89Y-180.11
X422.89Y-197.89
X425.43Y-180.11
X425.43Y-197.89
X427.97Y-180.11
X427.97Y-197.89
X430.51Y-180.11
X430.51Y-197.89
X433.05Y-180.11
X433.05Y-197.89
X435.59Y-180.11
X435.59Y-197.89
X437.9Y-186.46
X437.9Y-189.0
X437.9Y-191.54
X438.13Y-180.11
X438.13Y-197.89
T7
X389.88Y-188.0
X389.88Y-190.0
T8
X122.885Y-218.46
X122.885Y-247.035
X125.266Y-323.235
X127.647Y-266.085
X129.235Y-215.92
X129.235Y-244.495
X130.029Y-285.135
X131.616Y-320.695
X133.998Y-263.545
X134.791Y-304.185
X136.379Y-282.595
X141.141Y-301.645
X141.935Y-218.46
X141.935Y-247.035
X148.285Y-215.92
X148.285Y-244.495
X149.079Y-323.235
X151.46Y-266.085
X155.429Y-320.695
X156.222Y-285.135
X157.81Y-263.545
X160.985Y-218.46
X160.985Y-247.035
X162.572Y-282.595
X165.748Y-304.185
X167.335Y-215.92
X167.335Y-244.495
X170.51Y-266.085
X172.097Y-301.645
X172.891Y-323.235
X175.272Y-285.135
X176.86Y-263.545
X179.241Y-320.695
X180.035Y-218.46
X180.035Y-247.035
X181.623Y-282.595
X184.797Y-304.185
X186.385Y-215.92
X186.385Y-244.495
X189.56Y-266.085
X191.147Y-301.645
X194.322Y-285.135
X195.91Y-263.545
X199.085Y-218.46
X199.085Y-247.035
X200.672Y-282.595
X203.847Y-304.185
X205.435Y-215.92
X205.435Y-244.495
X206.229Y-323.235
X208.61Y-266.085
X210.197Y-301.645
X212.579Y-320.695
X213.373Y-285.135
X214.96Y-263.545
X218.135Y-218.46
X218.135Y-247.035
X219.722Y-282.595
X222.897Y-304.185
X224.485Y-215.92
X224.485Y-244.495
X227.66Y-266.085
X229.248Y-301.645
X232.422Y-285.135
X234.01Y-263.545
X237.185Y-247.035
X238.772Y-282.595
X241.947Y-304.185
X243.535Y-244.495
X244.329Y-323.235
X246.71Y-218.46
X246.71Y-266.085
X248.297Y-301.645
X250.679Y-320.695
X251.472Y-285.135
X253.06Y-215.92
X253.06Y-263.545
X256.235Y-247.035
X257.822Y-282.595
X260.998Y-304.185
X262.585Y-244.495
X265.76Y-218.46
X265.76Y-266.085
X267.347Y-301.645
X270.522Y-285.135
X272.11Y-215.92
X272.11Y-263.545
X275.285Y-247.035
X276.873Y-282.595
X280.048Y-304.185
X281.635Y-244.495
X282.429Y-323.235
X284.81Y-218.46
X284.81Y-266.085
X286.397Y-301.645
X288.779Y-320.695
X289.572Y-285.135
X291.16Y-215.92
X291.16Y-263.545
X294.335Y-247.035
X295.923Y-282.595
X299.097Y-304.185
X300.685Y-244.495
X303.86Y-218.46
X303.86Y-266.085
X305.447Y-301.645
X308.623Y-285.135
X310.21Y-215.92
X310.21Y-263.545
X313.385Y-247.035
X314.972Y-282.595
X315.766Y-323.235
X318.147Y-304.185
X319.735Y-244.495
X322.116Y-320.695
X322.91Y-266.085
X324.498Y-301.645
X327.672Y-285.135
X329.26Y-263.545
X332.435Y-218.46
X332.435Y-247.035
X334.022Y-282.595
X337.197Y-304.185
X338.785Y-215.92
X338.785Y-244.495
X339.579Y-323.235
X341.96Y-266.085
X343.547Y-301.645
X345.929Y-320.695
X346.722Y-285.135
X348.31Y-263.545
X351.485Y-218.46
X351.485Y-247.035
X353.072Y-282.595
X357.835Y-215.92
X357.835Y-244.495
X361.01Y-266.085
X363.391Y-323.235
X367.36Y-263.545
X369.741Y-320.695
X370.535Y-218.46
X372.916Y-304.185
X376.885Y-215.92
X377.679Y-285.135
X379.266Y-301.645
X380.06Y-247.035
X384.029Y-282.595
X384.822Y-266.085
X386.41Y-244.495
X387.204Y-323.235
X389.585Y-218.46
X391.172Y-263.545
X393.554Y-320.695
X395.935Y-215.92
X413.397Y-218.46
X413.397Y-247.035
X413.397Y-266.085
X413.397Y-285.135
X413.397Y-304.185
X413.397Y-323.235
X419.748Y-215.92
X419.748Y-244.495
X419.748Y-263.545
X419.748Y-282.595
X419.748Y-301.645
X419.748Y-320.695
X432.447Y-218.46
X432.447Y-247.035
X432.447Y-266.085
X432.447Y-285.135
X432.447Y-304.185
X432.447Y-323.235
X438.797Y-215.92
X438.797Y-244.495
X438.797Y-263.545
X438.797Y-282.595
X438.797Y-301.645
X438.797Y-320.695
X451.498Y-218.46
X451.498Y-247.035
X451.498Y-266.085
X451.498Y-285.135
X451.498Y-304.185
X451.498Y-323.235
X457.847Y-215.92
X457.847Y-244.495
X457.847Y-263.545
X457.847Y-282.595
X457.847Y-301.645
X457.847Y-320.695
T3
X285.7Y-170.765G85X285.7Y-169.965
G05
X285.7Y-174.495G85X285.7Y-172.995
G05
X294.35Y-170.765G85X294.35Y-169.965
G05
X294.35Y-174.495G85X294.35Y-172.995
G05
T9
X450.0Y-188.6G85X450.0Y-189.4
G05
X461.4Y-188.6G85X461.4Y-189.4
G05
T0
M30
