M48
; DRILL file {KiCad (6.0.0)} date Tue Mar  1 15:51:01 2022
; FORMAT={-:-/ absolute / metric / decimal}
; #@! TF.CreationDate,2022-03-01T15:51:01-08:00
; #@! TF.GenerationSoftware,Kicad,Pcbnew,(6.0.0)
; #@! TF.FileFunction,NonPlated,1,2,NPTH
FMAT,2
METRIC
; #@! TA.AperFunction,NonPlated,NPTH,ComponentDrill
T1C1.700
; #@! TA.AperFunction,NonPlated,NPTH,ComponentDrill
T2C3.048
; #@! TA.AperFunction,NonPlated,NPTH,ComponentDrill
T3C3.988
; #@! TA.AperFunction,NonPlated,NPTH,ComponentDrill
T4C4.000
; #@! TA.AperFunction,NonPlated,NPTH,ComponentDrill
T5C4.300
%
G90
G05
T1
X121.615Y-221.0
X121.615Y-249.575
X123.996Y-325.775
X126.377Y-268.625
X128.759Y-287.675
X131.775Y-221.0
X131.775Y-249.575
X133.521Y-306.725
X134.156Y-325.775
X136.537Y-268.625
X138.919Y-287.675
X140.665Y-221.0
X140.665Y-249.575
X143.681Y-306.725
X147.809Y-325.775
X150.19Y-268.625
X150.825Y-221.0
X150.825Y-249.575
X154.952Y-287.675
X157.969Y-325.775
X159.715Y-221.0
X159.715Y-249.575
X160.35Y-268.625
X164.477Y-306.725
X165.112Y-287.675
X169.24Y-268.625
X169.875Y-221.0
X169.875Y-249.575
X171.621Y-325.775
X174.002Y-287.675
X174.637Y-306.725
X178.765Y-221.0
X178.765Y-249.575
X179.4Y-268.625
X181.781Y-325.775
X183.528Y-306.725
X184.162Y-287.675
X188.29Y-268.625
X188.925Y-221.0
X188.925Y-249.575
X193.052Y-287.675
X193.688Y-306.725
X197.815Y-221.0
X197.815Y-249.575
X198.45Y-268.625
X202.577Y-306.725
X203.212Y-287.675
X204.959Y-325.775
X207.34Y-268.625
X207.975Y-221.0
X207.975Y-249.575
X212.102Y-287.675
X212.737Y-306.725
X215.119Y-325.775
X216.865Y-221.0
X216.865Y-249.575
X217.5Y-268.625
X221.627Y-306.725
X222.262Y-287.675
X226.39Y-268.625
X227.025Y-221.0
X227.025Y-249.575
X231.153Y-287.675
X231.787Y-306.725
X235.915Y-249.575
X236.55Y-268.625
X240.677Y-306.725
X241.312Y-287.675
X243.059Y-325.775
X245.44Y-221.0
X245.44Y-268.625
X246.075Y-249.575
X250.202Y-287.675
X250.837Y-306.725
X253.219Y-325.775
X254.965Y-249.575
X255.6Y-221.0
X255.6Y-268.625
X259.727Y-306.725
X260.363Y-287.675
X264.49Y-221.0
X264.49Y-268.625
X265.125Y-249.575
X269.252Y-287.675
X269.887Y-306.725
X274.015Y-249.575
X274.65Y-221.0
X274.65Y-268.625
X278.777Y-306.725
X279.412Y-287.675
X281.159Y-325.775
X283.54Y-221.0
X283.54Y-268.625
X284.175Y-249.575
X288.303Y-287.675
X288.938Y-306.725
X291.319Y-325.775
X293.065Y-249.575
X293.7Y-221.0
X293.7Y-268.625
X297.827Y-306.725
X298.462Y-287.675
X302.59Y-221.0
X302.59Y-268.625
X303.225Y-249.575
X307.352Y-287.675
X307.988Y-306.725
X312.115Y-249.575
X312.75Y-221.0
X312.75Y-268.625
X314.496Y-325.775
X316.877Y-306.725
X317.512Y-287.675
X321.64Y-268.625
X322.275Y-249.575
X324.656Y-325.775
X326.402Y-287.675
X327.037Y-306.725
X331.165Y-221.0
X331.165Y-249.575
X331.8Y-268.625
X335.928Y-306.725
X336.562Y-287.675
X338.309Y-325.775
X340.69Y-268.625
X341.325Y-221.0
X341.325Y-249.575
X345.452Y-287.675
X346.087Y-306.725
X348.469Y-325.775
X350.215Y-221.0
X350.215Y-249.575
X350.85Y-268.625
X355.613Y-287.675
X359.74Y-268.625
X360.375Y-221.0
X360.375Y-249.575
X362.121Y-325.775
X369.265Y-221.0
X369.9Y-268.625
X371.646Y-306.725
X372.281Y-325.775
X376.409Y-287.675
X378.79Y-249.575
X379.425Y-221.0
X381.806Y-306.725
X383.553Y-268.625
X385.934Y-325.775
X386.569Y-287.675
X388.315Y-221.0
X388.95Y-249.575
X393.712Y-268.625
X396.094Y-325.775
X398.475Y-221.0
X412.127Y-221.0
X412.127Y-249.575
X412.127Y-268.625
X412.127Y-287.675
X412.127Y-306.725
X412.127Y-325.775
X422.287Y-221.0
X422.287Y-249.575
X422.287Y-268.625
X422.287Y-287.675
X422.287Y-306.725
X422.287Y-325.775
X431.177Y-221.0
X431.177Y-249.575
X431.177Y-268.625
X431.177Y-287.675
X431.177Y-306.725
X431.177Y-325.775
X441.337Y-221.0
X441.337Y-249.575
X441.337Y-268.625
X441.337Y-287.675
X441.337Y-306.725
X441.337Y-325.775
X450.227Y-221.0
X450.227Y-249.575
X450.227Y-268.625
X450.227Y-287.675
X450.227Y-306.725
X450.227Y-325.775
X460.387Y-221.0
X460.387Y-249.575
X460.387Y-268.625
X460.387Y-287.675
X460.387Y-306.725
X460.387Y-325.775
T2
X126.663Y-299.74
X150.539Y-299.74
X198.101Y-318.79
X221.977Y-318.79
X236.201Y-318.79
X260.077Y-318.79
X274.301Y-318.79
X298.177Y-318.79
X364.788Y-299.74
X369.551Y-280.69
X371.932Y-242.59
X388.664Y-299.74
X393.427Y-280.69
X395.808Y-242.59
T3
X126.663Y-314.98
X150.539Y-314.98
X198.101Y-334.03
X221.977Y-334.03
X236.201Y-334.03
X260.077Y-334.03
X274.301Y-334.03
X298.177Y-334.03
X364.788Y-314.98
X369.551Y-295.93
X371.932Y-257.83
X388.664Y-314.98
X393.427Y-295.93
X395.808Y-257.83
T4
X126.695Y-221.0
X126.695Y-249.575
X129.076Y-325.775
X131.457Y-268.625
X133.839Y-287.675
X138.601Y-306.725
X145.745Y-221.0
X145.745Y-249.575
X152.889Y-325.775
X155.27Y-268.625
X160.032Y-287.675
X164.795Y-221.0
X164.795Y-249.575
X169.558Y-306.725
X174.32Y-268.625
X176.701Y-325.775
X179.082Y-287.675
X183.845Y-221.0
X183.845Y-249.575
X188.607Y-306.725
X193.37Y-268.625
X198.132Y-287.675
X202.895Y-221.0
X202.895Y-249.575
X207.657Y-306.725
X210.039Y-325.775
X212.42Y-268.625
X217.182Y-287.675
X221.945Y-221.0
X221.945Y-249.575
X226.707Y-306.725
X231.47Y-268.625
X236.232Y-287.675
X240.995Y-249.575
X245.757Y-306.725
X248.139Y-325.775
X250.52Y-221.0
X250.52Y-268.625
X255.282Y-287.675
X260.045Y-249.575
X264.808Y-306.725
X269.57Y-221.0
X269.57Y-268.625
X274.332Y-287.675
X279.095Y-249.575
X283.857Y-306.725
X286.239Y-325.775
X288.62Y-221.0
X288.62Y-268.625
X293.382Y-287.675
X298.145Y-249.575
X302.907Y-306.725
X307.67Y-221.0
X307.67Y-268.625
X312.433Y-287.675
X317.195Y-249.575
X319.576Y-325.775
X321.957Y-306.725
X326.72Y-268.625
X331.482Y-287.675
X336.245Y-221.0
X336.245Y-249.575
X341.007Y-306.725
X343.389Y-325.775
X345.77Y-268.625
X350.532Y-287.675
X355.295Y-221.0
X355.295Y-249.575
X364.82Y-268.625
X367.201Y-325.775
X374.345Y-221.0
X376.726Y-306.725
X381.489Y-287.675
X383.87Y-249.575
X388.632Y-268.625
X391.014Y-325.775
X393.395Y-221.0
X417.207Y-221.0
X417.207Y-249.575
X417.207Y-268.625
X417.207Y-287.675
X417.207Y-306.725
X417.207Y-325.775
X436.257Y-221.0
X436.257Y-249.575
X436.257Y-268.625
X436.257Y-287.675
X436.257Y-306.725
X436.257Y-325.775
X455.308Y-221.0
X455.308Y-249.575
X455.308Y-268.625
X455.308Y-287.675
X455.308Y-306.725
X455.308Y-325.775
T5
X114.0Y-170.0
X114.0Y-254.5
X114.0Y-339.0
X147.0Y-287.675
X202.5Y-170.0
X202.5Y-235.0
X202.5Y-339.0
X274.905Y-170.0
X291.0Y-235.0
X291.0Y-339.0
X305.0Y-170.0
X363.0Y-287.675
X379.5Y-170.0
X379.5Y-235.0
X379.5Y-339.0
X468.0Y-254.5
X468.0Y-170.0
X468.0Y-339.0
T0
M30
