G04 #@! TF.GenerationSoftware,KiCad,Pcbnew,(6.0.0)*
G04 #@! TF.CreationDate,2022-03-01T15:50:58-08:00*
G04 #@! TF.ProjectId,keyboard_exposed_diodes_standard_tkl,6b657962-6f61-4726-945f-6578706f7365,rev?*
G04 #@! TF.SameCoordinates,Original*
G04 #@! TF.FileFunction,Copper,L1,Top*
G04 #@! TF.FilePolarity,Positive*
%FSLAX46Y46*%
G04 Gerber Fmt 4.6, Leading zero omitted, Abs format (unit mm)*
G04 Created by KiCad (PCBNEW (6.0.0)) date 2022-03-01 15:50:58*
%MOMM*%
%LPD*%
G01*
G04 APERTURE LIST*
G04 Aperture macros list*
%AMRoundRect*
0 Rectangle with rounded corners*
0 $1 Rounding radius*
0 $2 $3 $4 $5 $6 $7 $8 $9 X,Y pos of 4 corners*
0 Add a 4 corners polygon primitive as box body*
4,1,4,$2,$3,$4,$5,$6,$7,$8,$9,$2,$3,0*
0 Add four circle primitives for the rounded corners*
1,1,$1+$1,$2,$3*
1,1,$1+$1,$4,$5*
1,1,$1+$1,$6,$7*
1,1,$1+$1,$8,$9*
0 Add four rect primitives between the rounded corners*
20,1,$1+$1,$2,$3,$4,$5,0*
20,1,$1+$1,$4,$5,$6,$7,0*
20,1,$1+$1,$6,$7,$8,$9,0*
20,1,$1+$1,$8,$9,$2,$3,0*%
G04 Aperture macros list end*
G04 #@! TA.AperFunction,ComponentPad*
%ADD10C,2.200000*%
G04 #@! TD*
G04 #@! TA.AperFunction,ComponentPad*
%ADD11R,1.600000X1.600000*%
G04 #@! TD*
G04 #@! TA.AperFunction,ComponentPad*
%ADD12O,1.600000X1.600000*%
G04 #@! TD*
G04 #@! TA.AperFunction,ComponentPad*
%ADD13R,1.700000X1.700000*%
G04 #@! TD*
G04 #@! TA.AperFunction,ComponentPad*
%ADD14O,1.700000X1.700000*%
G04 #@! TD*
G04 #@! TA.AperFunction,ComponentPad*
%ADD15C,0.700000*%
G04 #@! TD*
G04 #@! TA.AperFunction,ComponentPad*
%ADD16O,0.900000X2.400000*%
G04 #@! TD*
G04 #@! TA.AperFunction,ComponentPad*
%ADD17O,0.900000X1.700000*%
G04 #@! TD*
G04 #@! TA.AperFunction,SMDPad,CuDef*
%ADD18R,1.700000X3.500000*%
G04 #@! TD*
G04 #@! TA.AperFunction,SMDPad,CuDef*
%ADD19R,3.500000X1.700000*%
G04 #@! TD*
G04 #@! TA.AperFunction,ComponentPad*
%ADD20RoundRect,0.425000X0.425000X-0.425000X0.425000X0.425000X-0.425000X0.425000X-0.425000X-0.425000X0*%
G04 #@! TD*
G04 #@! TA.AperFunction,ComponentPad*
%ADD21R,2.800000X3.600000*%
G04 #@! TD*
G04 #@! TA.AperFunction,ComponentPad*
%ADD22C,2.000000*%
G04 #@! TD*
G04 #@! TA.AperFunction,ViaPad*
%ADD23C,0.800000*%
G04 #@! TD*
G04 #@! TA.AperFunction,Conductor*
%ADD24C,0.250000*%
G04 #@! TD*
G04 #@! TA.AperFunction,Conductor*
%ADD25C,0.400000*%
G04 #@! TD*
G04 APERTURE END LIST*
D10*
X141935000Y-247035000D03*
X148285000Y-244495000D03*
X160985000Y-247035000D03*
X167335000Y-244495000D03*
X180035000Y-247035000D03*
X186385000Y-244495000D03*
X199085000Y-247035000D03*
X205435000Y-244495000D03*
X218135000Y-247035000D03*
X224485000Y-244495000D03*
X237185000Y-247035000D03*
X243535000Y-244495000D03*
X256235000Y-247035000D03*
X262585000Y-244495000D03*
X275285000Y-247035000D03*
X281635000Y-244495000D03*
X294335000Y-247035000D03*
X300685000Y-244495000D03*
X156222500Y-285135000D03*
X162572500Y-282595000D03*
X241947500Y-304185000D03*
X248297500Y-301645000D03*
X380060000Y-247035000D03*
X386410000Y-244495000D03*
X384822500Y-266085000D03*
X391172500Y-263545000D03*
X203847500Y-304185000D03*
X210197500Y-301645000D03*
X194322500Y-285135000D03*
X200672500Y-282595000D03*
X332435000Y-247035000D03*
X338785000Y-244495000D03*
X413397500Y-266085000D03*
X419747500Y-263545000D03*
X432447500Y-323235000D03*
X438797500Y-320695000D03*
X189560000Y-266085000D03*
X195910000Y-263545000D03*
X432447500Y-266085000D03*
X438797500Y-263545000D03*
X377678750Y-285135000D03*
X384028750Y-282595000D03*
X351485000Y-247035000D03*
X357835000Y-244495000D03*
X141935000Y-218460000D03*
X148285000Y-215920000D03*
X206228750Y-323235000D03*
X212578750Y-320695000D03*
X282428750Y-323235000D03*
X288778750Y-320695000D03*
X413397500Y-285135000D03*
X419747500Y-282595000D03*
X413397500Y-304185000D03*
X419747500Y-301645000D03*
X432447500Y-285135000D03*
X438797500Y-282595000D03*
X451497500Y-285135000D03*
X457847500Y-282595000D03*
X451497500Y-304185000D03*
X457847500Y-301645000D03*
X160985000Y-218460000D03*
X167335000Y-215920000D03*
X180035000Y-218460000D03*
X186385000Y-215920000D03*
X199085000Y-218460000D03*
X205435000Y-215920000D03*
X246710000Y-218460000D03*
X253060000Y-215920000D03*
X284810000Y-218460000D03*
X291160000Y-215920000D03*
X303860000Y-218460000D03*
X310210000Y-215920000D03*
X370535000Y-218460000D03*
X376885000Y-215920000D03*
X213372500Y-285135000D03*
X219722500Y-282595000D03*
X337197500Y-304185000D03*
X343547500Y-301645000D03*
X232422500Y-285135000D03*
X238772500Y-282595000D03*
X251472500Y-285135000D03*
X257822500Y-282595000D03*
X432447500Y-247035000D03*
X438797500Y-244495000D03*
X284810000Y-266085000D03*
X291160000Y-263545000D03*
X413397500Y-247035000D03*
X419747500Y-244495000D03*
X289572500Y-285135000D03*
X295922500Y-282595000D03*
X308622500Y-285135000D03*
X314972500Y-282595000D03*
X172891250Y-323235000D03*
X179241250Y-320695000D03*
X413397500Y-323235000D03*
X419747500Y-320695000D03*
X149078750Y-323235000D03*
X155428750Y-320695000D03*
X280047500Y-304185000D03*
X286397500Y-301645000D03*
X363391250Y-323235000D03*
X369741250Y-320695000D03*
X260997500Y-304185000D03*
X267347500Y-301645000D03*
X303860000Y-266085000D03*
X310210000Y-263545000D03*
X451497500Y-218460000D03*
X457847500Y-215920000D03*
X451497500Y-266085000D03*
X457847500Y-263545000D03*
X451497500Y-247035000D03*
X457847500Y-244495000D03*
X413397500Y-218460000D03*
X419747500Y-215920000D03*
X151460000Y-266085000D03*
X157810000Y-263545000D03*
X346722500Y-285135000D03*
X353072500Y-282595000D03*
X208610000Y-266085000D03*
X214960000Y-263545000D03*
X361010000Y-266085000D03*
X367360000Y-263545000D03*
X451497500Y-323235000D03*
X457847500Y-320695000D03*
X372916250Y-304185000D03*
X379266250Y-301645000D03*
X175272500Y-285135000D03*
X181622500Y-282595000D03*
X432447500Y-218460000D03*
X438797500Y-215920000D03*
X244328750Y-323235000D03*
X250678750Y-320695000D03*
X227660000Y-266085000D03*
X234010000Y-263545000D03*
X265760000Y-266085000D03*
X272110000Y-263545000D03*
X432447500Y-304185000D03*
X438797500Y-301645000D03*
X170510000Y-266085000D03*
X176860000Y-263545000D03*
X184797500Y-304185000D03*
X191147500Y-301645000D03*
X246710000Y-266085000D03*
X253060000Y-263545000D03*
X270522500Y-285135000D03*
X276872500Y-282595000D03*
X341960000Y-266085000D03*
X348310000Y-263545000D03*
X351485000Y-218460000D03*
X357835000Y-215920000D03*
X218135000Y-218460000D03*
X224485000Y-215920000D03*
X265760000Y-218460000D03*
X272110000Y-215920000D03*
X315766250Y-323235000D03*
X322116250Y-320695000D03*
X299097500Y-304185000D03*
X305447500Y-301645000D03*
X127647500Y-266085000D03*
X133997500Y-263545000D03*
X134791250Y-304185000D03*
X141141250Y-301645000D03*
X125266250Y-323235000D03*
X131616250Y-320695000D03*
X122885000Y-218460000D03*
X129235000Y-215920000D03*
X130028750Y-285135000D03*
X136378750Y-282595000D03*
X122885000Y-247035000D03*
X129235000Y-244495000D03*
X222897500Y-304185000D03*
X229247500Y-301645000D03*
X327672500Y-285135000D03*
X334022500Y-282595000D03*
X339578750Y-323235000D03*
X345928750Y-320695000D03*
X322910000Y-266085000D03*
X329260000Y-263545000D03*
X332435000Y-218460000D03*
X338785000Y-215920000D03*
X387203750Y-323235000D03*
X393553750Y-320695000D03*
X318147500Y-304185000D03*
X324497500Y-301645000D03*
D11*
X124000000Y-181000000D03*
D12*
X116380000Y-181000000D03*
D11*
X370000000Y-197000000D03*
D12*
X362380000Y-197000000D03*
D11*
X340000000Y-193000000D03*
D12*
X332380000Y-193000000D03*
D11*
X140000000Y-185000000D03*
D12*
X132380000Y-185000000D03*
D13*
X386000000Y-190540000D03*
D14*
X386000000Y-188000000D03*
D15*
X293000000Y-174725000D03*
X292150000Y-174725000D03*
X291300000Y-174725000D03*
X290450000Y-174725000D03*
X289600000Y-174725000D03*
X288750000Y-174725000D03*
X287900000Y-174725000D03*
X287050000Y-174725000D03*
X287050000Y-173375000D03*
X287900000Y-173375000D03*
X288750000Y-173375000D03*
X289600000Y-173375000D03*
X290450000Y-173375000D03*
X291300000Y-173375000D03*
X292150000Y-173375000D03*
X293000000Y-173375000D03*
D16*
X294350000Y-173745000D03*
D17*
X294350000Y-170365000D03*
D16*
X285700000Y-173745000D03*
D17*
X285700000Y-170365000D03*
D18*
X389870000Y-198790000D03*
D14*
X389870000Y-197890000D03*
X392410000Y-197890000D03*
D18*
X392410000Y-198790000D03*
D13*
X394950000Y-197890000D03*
D18*
X394950000Y-198790000D03*
X397490000Y-198790000D03*
D14*
X397490000Y-197890000D03*
X400030000Y-197890000D03*
D18*
X400030000Y-198790000D03*
D14*
X402570000Y-197890000D03*
D18*
X402570000Y-198790000D03*
X405110000Y-198790000D03*
D14*
X405110000Y-197890000D03*
D18*
X407650000Y-198790000D03*
D13*
X407650000Y-197890000D03*
D18*
X410190000Y-198790000D03*
D14*
X410190000Y-197890000D03*
X412730000Y-197890000D03*
D18*
X412730000Y-198790000D03*
X415270000Y-198790000D03*
D14*
X415270000Y-197890000D03*
D18*
X417810000Y-198790000D03*
D14*
X417810000Y-197890000D03*
D13*
X420350000Y-197890000D03*
D18*
X420350000Y-198790000D03*
X422890000Y-198790000D03*
D14*
X422890000Y-197890000D03*
D18*
X425430000Y-198790000D03*
D14*
X425430000Y-197890000D03*
X427970000Y-197890000D03*
D18*
X427970000Y-198790000D03*
D14*
X430510000Y-197890000D03*
D18*
X430510000Y-198790000D03*
D13*
X433050000Y-197890000D03*
D18*
X433050000Y-198790000D03*
X435590000Y-198790000D03*
D14*
X435590000Y-197890000D03*
X438130000Y-197890000D03*
D18*
X438130000Y-198790000D03*
X438130000Y-179210000D03*
D14*
X438130000Y-180110000D03*
X435590000Y-180110000D03*
D18*
X435590000Y-179210000D03*
X433050000Y-179210000D03*
D13*
X433050000Y-180110000D03*
D18*
X430510000Y-179210000D03*
D14*
X430510000Y-180110000D03*
X427970000Y-180110000D03*
D18*
X427970000Y-179210000D03*
X425430000Y-179210000D03*
D14*
X425430000Y-180110000D03*
X422890000Y-180110000D03*
D18*
X422890000Y-179210000D03*
X420350000Y-179210000D03*
D13*
X420350000Y-180110000D03*
D18*
X417810000Y-179210000D03*
D14*
X417810000Y-180110000D03*
D18*
X415270000Y-179210000D03*
D14*
X415270000Y-180110000D03*
D18*
X412730000Y-179210000D03*
D14*
X412730000Y-180110000D03*
D18*
X410190000Y-179210000D03*
D14*
X410190000Y-180110000D03*
D13*
X407650000Y-180110000D03*
D18*
X407650000Y-179210000D03*
X405110000Y-179210000D03*
D14*
X405110000Y-180110000D03*
X402570000Y-180110000D03*
D18*
X402570000Y-179210000D03*
D14*
X400030000Y-180110000D03*
D18*
X400030000Y-179210000D03*
D14*
X397490000Y-180110000D03*
D18*
X397490000Y-179210000D03*
D13*
X394950000Y-180110000D03*
D18*
X394950000Y-179210000D03*
D14*
X392410000Y-180110000D03*
D18*
X392410000Y-179210000D03*
D14*
X389870000Y-180110000D03*
D18*
X389870000Y-179210000D03*
D19*
X438800000Y-191540000D03*
D14*
X437900000Y-191540000D03*
D13*
X437900000Y-189000000D03*
D19*
X438800000Y-189000000D03*
X438800000Y-186460000D03*
D14*
X437900000Y-186460000D03*
D20*
X389880000Y-190000000D03*
X389880000Y-188000000D03*
D11*
X338000000Y-189000000D03*
D12*
X330380000Y-189000000D03*
D11*
X226000000Y-189000000D03*
D12*
X218380000Y-189000000D03*
D11*
X310000000Y-189000000D03*
D12*
X302380000Y-189000000D03*
D11*
X300000000Y-197000000D03*
D12*
X292380000Y-197000000D03*
D11*
X296000000Y-189000000D03*
D12*
X288380000Y-189000000D03*
D11*
X282000000Y-189000000D03*
D12*
X274380000Y-189000000D03*
D11*
X142000000Y-189000000D03*
D12*
X134380000Y-189000000D03*
D11*
X194000000Y-181000000D03*
D12*
X186380000Y-181000000D03*
D11*
X328000000Y-197000000D03*
D12*
X320380000Y-197000000D03*
D11*
X160000000Y-197000000D03*
D12*
X152380000Y-197000000D03*
D11*
X180000000Y-181000000D03*
D12*
X172380000Y-181000000D03*
D21*
X450000000Y-189000000D03*
X461400000Y-189000000D03*
D22*
X453200000Y-196500000D03*
X458200000Y-196500000D03*
X455700000Y-196500000D03*
X453200000Y-182000000D03*
X458200000Y-182000000D03*
D11*
X286000000Y-197000000D03*
D12*
X278380000Y-197000000D03*
D11*
X240000000Y-189000000D03*
D12*
X232380000Y-189000000D03*
D11*
X322000000Y-185000000D03*
D12*
X314380000Y-185000000D03*
D11*
X362000000Y-181000000D03*
D12*
X354380000Y-181000000D03*
D11*
X324000000Y-189000000D03*
D12*
X316380000Y-189000000D03*
D11*
X384000000Y-197000000D03*
D12*
X376380000Y-197000000D03*
D11*
X308000000Y-185000000D03*
D12*
X300380000Y-185000000D03*
D11*
X334000000Y-181000000D03*
D12*
X326380000Y-181000000D03*
D11*
X258000000Y-197000000D03*
D12*
X250380000Y-197000000D03*
D11*
X242000000Y-193000000D03*
D12*
X234380000Y-193000000D03*
D11*
X154000000Y-185000000D03*
D12*
X146380000Y-185000000D03*
D11*
X342000000Y-197000000D03*
D12*
X334380000Y-197000000D03*
D11*
X172000000Y-193000000D03*
D12*
X164380000Y-193000000D03*
D11*
X144000000Y-193000000D03*
D12*
X136380000Y-193000000D03*
D11*
X212000000Y-189000000D03*
D12*
X204380000Y-189000000D03*
D11*
X244000000Y-197000000D03*
D12*
X236380000Y-197000000D03*
D11*
X314000000Y-197000000D03*
D12*
X306380000Y-197000000D03*
D11*
X280000000Y-185000000D03*
D12*
X272380000Y-185000000D03*
D11*
X202000000Y-197000000D03*
D12*
X194380000Y-197000000D03*
D11*
X320000000Y-181000000D03*
D12*
X312380000Y-181000000D03*
D11*
X182000000Y-185000000D03*
D12*
X174380000Y-185000000D03*
D11*
X364000000Y-185000000D03*
D12*
X356380000Y-185000000D03*
D11*
X378000000Y-185000000D03*
D12*
X370380000Y-185000000D03*
D11*
X284000000Y-193000000D03*
D12*
X276380000Y-193000000D03*
D11*
X264000000Y-181000000D03*
D12*
X256380000Y-181000000D03*
D11*
X130000000Y-193000000D03*
D12*
X122380000Y-193000000D03*
D11*
X254000000Y-189000000D03*
D12*
X246380000Y-189000000D03*
D11*
X200000000Y-193000000D03*
D12*
X192380000Y-193000000D03*
D11*
X350000000Y-185000000D03*
D12*
X342380000Y-185000000D03*
D11*
X252000000Y-185000000D03*
D12*
X244380000Y-185000000D03*
D11*
X228000000Y-193000000D03*
D12*
X220380000Y-193000000D03*
D11*
X270000000Y-193000000D03*
D12*
X262380000Y-193000000D03*
D11*
X126000000Y-185000000D03*
D12*
X118380000Y-185000000D03*
D11*
X132000000Y-197000000D03*
D12*
X124380000Y-197000000D03*
D11*
X348000000Y-181000000D03*
D12*
X340380000Y-181000000D03*
D11*
X356000000Y-197000000D03*
D12*
X348380000Y-197000000D03*
D11*
X268000000Y-189000000D03*
D12*
X260380000Y-189000000D03*
D11*
X256000000Y-193000000D03*
D12*
X248380000Y-193000000D03*
D11*
X230000000Y-197000000D03*
D12*
X222380000Y-197000000D03*
D11*
X170000000Y-189000000D03*
D12*
X162380000Y-189000000D03*
D11*
X174000000Y-197000000D03*
D12*
X166380000Y-197000000D03*
D11*
X166000000Y-181000000D03*
D12*
X158380000Y-181000000D03*
D11*
X210000000Y-185000000D03*
D12*
X202380000Y-185000000D03*
D11*
X186000000Y-193000000D03*
D12*
X178380000Y-193000000D03*
D11*
X278000000Y-181000000D03*
D12*
X270380000Y-181000000D03*
D11*
X266000000Y-185000000D03*
D12*
X258380000Y-185000000D03*
D11*
X152000000Y-181000000D03*
D12*
X144380000Y-181000000D03*
D11*
X184000000Y-189000000D03*
D12*
X176380000Y-189000000D03*
D11*
X366000000Y-189000000D03*
D12*
X358380000Y-189000000D03*
D11*
X188000000Y-197000000D03*
D12*
X180380000Y-197000000D03*
D11*
X158000000Y-193000000D03*
D12*
X150380000Y-193000000D03*
D11*
X298000000Y-193000000D03*
D12*
X290380000Y-193000000D03*
D11*
X128000000Y-189000000D03*
D12*
X120380000Y-189000000D03*
D11*
X272000000Y-197000000D03*
D12*
X264380000Y-197000000D03*
D11*
X352000000Y-189000000D03*
D12*
X344380000Y-189000000D03*
D11*
X382000000Y-193000000D03*
D12*
X374380000Y-193000000D03*
D11*
X368000000Y-193000000D03*
D12*
X360380000Y-193000000D03*
D11*
X208000000Y-181000000D03*
D12*
X200380000Y-181000000D03*
D11*
X196000000Y-185000000D03*
D12*
X188380000Y-185000000D03*
D11*
X216000000Y-197000000D03*
D12*
X208380000Y-197000000D03*
D11*
X326000000Y-193000000D03*
D12*
X318380000Y-193000000D03*
D11*
X198000000Y-189000000D03*
D12*
X190380000Y-189000000D03*
D11*
X138000000Y-181000000D03*
D12*
X130380000Y-181000000D03*
D11*
X336000000Y-185000000D03*
D12*
X328380000Y-185000000D03*
D11*
X376000000Y-181000000D03*
D12*
X368380000Y-181000000D03*
D11*
X214000000Y-193000000D03*
D12*
X206380000Y-193000000D03*
D11*
X306000000Y-181000000D03*
D12*
X298380000Y-181000000D03*
D11*
X236000000Y-181000000D03*
D12*
X228380000Y-181000000D03*
D11*
X292000000Y-181000000D03*
D12*
X284380000Y-181000000D03*
D11*
X294000000Y-185000000D03*
D12*
X286380000Y-185000000D03*
D11*
X156000000Y-189000000D03*
D12*
X148380000Y-189000000D03*
D11*
X354000000Y-193000000D03*
D12*
X346380000Y-193000000D03*
D11*
X168000000Y-185000000D03*
D12*
X160380000Y-185000000D03*
D11*
X146000000Y-197000000D03*
D12*
X138380000Y-197000000D03*
D11*
X224000000Y-185000000D03*
D12*
X216380000Y-185000000D03*
D11*
X222000000Y-181000000D03*
D12*
X214380000Y-181000000D03*
D11*
X380000000Y-189000000D03*
D12*
X372380000Y-189000000D03*
D11*
X238000000Y-185000000D03*
D12*
X230380000Y-185000000D03*
D11*
X312000000Y-193000000D03*
D12*
X304380000Y-193000000D03*
D11*
X250000000Y-181000000D03*
D12*
X242380000Y-181000000D03*
D10*
X313385000Y-247035000D03*
X319735000Y-244495000D03*
X389585000Y-218460000D03*
X395935000Y-215920000D03*
X165747500Y-304185000D03*
X172097500Y-301645000D03*
D11*
X451500000Y-203000000D03*
D12*
X459120000Y-203000000D03*
D23*
X409000000Y-318750000D03*
X141512653Y-317987347D03*
X351000000Y-314750000D03*
X141500000Y-319000000D03*
X409000000Y-320750000D03*
X141500000Y-320500000D03*
X351000000Y-316000000D03*
X409000000Y-317500000D03*
X351000000Y-317250000D03*
X141518939Y-316968328D03*
X142000000Y-180000000D03*
X124750000Y-331675020D03*
X145000000Y-311000000D03*
D24*
X190250000Y-240630000D02*
X186385000Y-244495000D01*
X175575011Y-203001009D02*
X190250000Y-217675998D01*
X175575011Y-194938601D02*
X175575011Y-203001009D01*
X174380000Y-193743590D02*
X175575011Y-194938601D01*
X174380000Y-185000000D02*
X174380000Y-193743590D01*
X190250000Y-217675998D02*
X190250000Y-240630000D01*
X190672023Y-258307023D02*
X195910000Y-263545000D01*
X190672023Y-217461611D02*
X190672023Y-258307023D01*
X176025021Y-202814609D02*
X190672023Y-217461611D01*
X176025021Y-195172875D02*
X176025021Y-202814609D01*
X176380000Y-194817896D02*
X176025021Y-195172875D01*
X176380000Y-189000000D02*
X176380000Y-194817896D01*
X200672500Y-263765072D02*
X200672500Y-282595000D01*
X191048543Y-254141115D02*
X200672500Y-263765072D01*
X191048543Y-221879604D02*
X191048543Y-254141115D01*
X191048543Y-220120401D02*
X191048541Y-221879602D01*
X191048543Y-217201721D02*
X191048543Y-220120401D01*
X191048541Y-221879602D02*
X191048543Y-221879604D01*
X176475031Y-196036339D02*
X176475031Y-202628209D01*
X178380000Y-193000000D02*
X178380000Y-194131370D01*
X178380000Y-194131370D02*
X176475031Y-196036339D01*
X176475031Y-202628209D02*
X191048543Y-217201721D01*
X297237979Y-293435479D02*
X305447500Y-301645000D01*
X297237979Y-287167786D02*
X297237979Y-293435479D01*
X297347501Y-287058264D02*
X297237979Y-287167786D01*
X291500000Y-261139588D02*
X297347501Y-266987089D01*
X291500000Y-247000000D02*
X291500000Y-261139588D01*
X297000000Y-241500000D02*
X291500000Y-247000000D01*
X297347501Y-266987089D02*
X297347501Y-287058264D01*
X297000000Y-226134973D02*
X297000000Y-241500000D01*
X292402479Y-221537452D02*
X297000000Y-226134973D01*
X292402479Y-220152479D02*
X292402479Y-221537452D01*
X287770883Y-215520883D02*
X292402479Y-220152479D01*
X276051540Y-215520883D02*
X287770883Y-215520883D01*
X275795235Y-215264578D02*
X276051540Y-215520883D01*
X275472811Y-215264577D02*
X275795235Y-215264578D01*
X264758766Y-213144470D02*
X265008765Y-213144469D01*
X265008765Y-213144469D02*
X265009262Y-213144966D01*
X250380000Y-198765703D02*
X264758766Y-213144470D01*
X250380000Y-197000000D02*
X250380000Y-198765703D01*
X265009262Y-213144966D02*
X273353201Y-213144966D01*
X273353201Y-213144966D02*
X275472811Y-215264577D01*
X295922500Y-266197806D02*
X295922500Y-282595000D01*
X291000000Y-246500000D02*
X291000000Y-261275306D01*
X296500000Y-241000000D02*
X291000000Y-246500000D01*
X292289282Y-221956734D02*
X296500000Y-226167452D01*
X296500000Y-226167452D02*
X296500000Y-241000000D01*
X292025959Y-221693412D02*
X292289282Y-221956734D01*
X292025959Y-220412174D02*
X292025959Y-221693412D01*
X273166310Y-213594486D02*
X275571824Y-216000000D01*
X264651974Y-213594486D02*
X273166310Y-213594486D01*
X264651470Y-213593982D02*
X264651974Y-213594486D01*
X275571824Y-216000000D02*
X287613785Y-216000000D01*
X291000000Y-261275306D02*
X295922500Y-266197806D01*
X287613785Y-216000000D02*
X292025959Y-220412174D01*
X264572575Y-213593982D02*
X264651470Y-213593982D01*
X248380000Y-197401407D02*
X264572575Y-213593982D01*
X248380000Y-193000000D02*
X248380000Y-197401407D01*
X381715000Y-247035000D02*
X380060000Y-247035000D01*
X391020479Y-237729521D02*
X381715000Y-247035000D01*
X391020479Y-220016440D02*
X391020479Y-237729521D01*
X391080960Y-219955960D02*
X391020479Y-220016440D01*
X389585000Y-218460000D02*
X391080960Y-219955960D01*
X320965000Y-247035000D02*
X313385000Y-247035000D01*
X328500000Y-239500000D02*
X320965000Y-247035000D01*
X328500000Y-236500000D02*
X328500000Y-239500000D01*
X332435000Y-232565000D02*
X328500000Y-236500000D01*
X332435000Y-218460000D02*
X332435000Y-232565000D01*
X329000000Y-236750000D02*
X329000000Y-263285000D01*
X332884511Y-232865489D02*
X329000000Y-236750000D01*
X332884511Y-221002408D02*
X332884511Y-232865489D01*
X334000000Y-219886919D02*
X332884511Y-221002408D01*
X334000000Y-218010436D02*
X334000000Y-219886919D01*
X333025053Y-217035489D02*
X334000000Y-218010436D01*
X314021376Y-217035489D02*
X333025053Y-217035489D01*
X313084399Y-216098541D02*
X313084428Y-216098541D01*
X312821084Y-215835230D02*
X313084399Y-216098541D01*
X312821076Y-215835230D02*
X312821084Y-215835230D01*
X312557767Y-215571921D02*
X312821076Y-215835230D01*
X312557762Y-215571921D02*
X312557767Y-215571921D01*
X312294453Y-215308612D02*
X312557762Y-215571921D01*
X312076264Y-215090428D02*
X312294448Y-215308612D01*
X312076264Y-215090413D02*
X312076264Y-215090428D01*
X329000000Y-263285000D02*
X329260000Y-263545000D01*
X312294448Y-215308612D02*
X312294453Y-215308612D01*
X313084428Y-216098541D02*
X314021376Y-217035489D01*
X308775100Y-211789249D02*
X312076264Y-215090413D01*
X274380000Y-189000000D02*
X274380000Y-199457299D01*
X274380000Y-199457299D02*
X286711950Y-211789249D01*
X286711950Y-211789249D02*
X308775100Y-211789249D01*
X353149511Y-313850489D02*
X351000000Y-316000000D01*
X353149511Y-307850489D02*
X353149511Y-313850489D01*
X374300421Y-286699579D02*
X353149511Y-307850489D01*
X374300421Y-242273520D02*
X374300421Y-286699579D01*
X373550480Y-241523579D02*
X374300421Y-242273520D01*
X376719516Y-227309048D02*
X373550480Y-230478084D01*
X376719516Y-220016442D02*
X376719516Y-227309048D01*
X376666458Y-219963384D02*
X376719516Y-220016442D01*
X376666457Y-219184521D02*
X376666458Y-219963384D01*
X373231936Y-215750000D02*
X376666457Y-219184521D01*
X342730961Y-213401467D02*
X358858651Y-213401467D01*
X334341919Y-211348918D02*
X340678411Y-211348918D01*
X334146915Y-211153914D02*
X334341919Y-211348918D01*
X315132507Y-211153915D02*
X334146915Y-211153914D01*
X304380000Y-200401408D02*
X315132507Y-211153915D01*
X373550480Y-230478084D02*
X373550480Y-241523579D01*
X340678411Y-211348918D02*
X342730961Y-213401467D01*
X304380000Y-193000000D02*
X304380000Y-200401408D01*
X361207184Y-215750000D02*
X373231936Y-215750000D01*
X358858651Y-213401467D02*
X361207184Y-215750000D01*
X353750000Y-314500000D02*
X351000000Y-317250000D01*
X353750000Y-307885704D02*
X353750000Y-314500000D01*
X374750000Y-286885704D02*
X353750000Y-307885704D01*
X374750000Y-262750000D02*
X374750000Y-286885704D01*
X374749931Y-242087312D02*
X374749931Y-262749931D01*
X374000000Y-241337381D02*
X374749931Y-242087312D01*
X374000000Y-230664282D02*
X374000000Y-241337381D01*
X377169027Y-227495255D02*
X374000000Y-230664282D01*
X377169027Y-219830249D02*
X377169027Y-227495255D01*
X377115968Y-219777190D02*
X377169027Y-219830249D01*
X377115968Y-218408366D02*
X377115968Y-219777190D01*
X361342888Y-215250000D02*
X373957602Y-215250000D01*
X340864605Y-210899408D02*
X342917154Y-212951956D01*
X334528112Y-210899407D02*
X340864605Y-210899408D01*
X342917154Y-212951956D02*
X359044845Y-212951957D01*
X373957602Y-215250000D02*
X377115968Y-218408366D01*
X334333109Y-210704404D02*
X334528112Y-210899407D01*
X306380000Y-201765704D02*
X315318700Y-210704404D01*
X374749931Y-262749931D02*
X374750000Y-262750000D01*
X315318700Y-210704404D02*
X334333109Y-210704404D01*
X359044845Y-212951957D02*
X361342888Y-215250000D01*
X306380000Y-197000000D02*
X306380000Y-201765704D01*
D25*
X389870000Y-181670000D02*
X389870000Y-180110000D01*
X391550000Y-192250000D02*
X392400000Y-191400000D01*
X392400000Y-184200000D02*
X389870000Y-181670000D01*
X287900000Y-175219974D02*
X291230516Y-178550490D01*
X384100978Y-185512699D02*
X384100978Y-191100978D01*
X377138770Y-178550490D02*
X384100978Y-185512699D01*
X392400000Y-191400000D02*
X392400000Y-184200000D01*
X384100978Y-191100978D02*
X385250000Y-192250000D01*
X291230516Y-178550490D02*
X377138770Y-178550490D01*
X385250000Y-192250000D02*
X391550000Y-192250000D01*
X287900000Y-174725000D02*
X287900000Y-175219974D01*
X376849022Y-179250000D02*
X383300489Y-185701467D01*
X290805026Y-179250000D02*
X376849022Y-179250000D01*
X287050000Y-174725000D02*
X287050000Y-175494974D01*
X419159511Y-176960489D02*
X396140489Y-176960489D01*
X434399511Y-196540489D02*
X433050000Y-197890000D01*
X383300489Y-185701467D02*
X383300489Y-191539746D01*
X433050000Y-180110000D02*
X431700489Y-181459511D01*
X419000489Y-196540489D02*
X408999511Y-196540489D01*
X439479511Y-196540489D02*
X434399511Y-196540489D01*
X421699511Y-181459511D02*
X420350000Y-180110000D01*
X394950000Y-194099042D02*
X393925479Y-193074521D01*
X287050000Y-175494974D02*
X290805026Y-179250000D01*
X393925479Y-193074521D02*
X394950000Y-192050000D01*
X394950000Y-197890000D02*
X394950000Y-194099042D01*
X420350000Y-180110000D02*
X420350000Y-178150978D01*
X454200489Y-197999511D02*
X440938533Y-197999511D01*
X394950000Y-192050000D02*
X394950000Y-180110000D01*
X455700000Y-196500000D02*
X454200489Y-197999511D01*
X420350000Y-178150978D02*
X419159511Y-176960489D01*
X437900000Y-189000000D02*
X433050000Y-184150000D01*
X421699511Y-196540489D02*
X420350000Y-197890000D01*
X431700489Y-196540489D02*
X421699511Y-196540489D01*
X408999511Y-196540489D02*
X407650000Y-197890000D01*
X407650000Y-197890000D02*
X406300489Y-196540489D01*
X396299511Y-196540489D02*
X394950000Y-197890000D01*
X440938533Y-197999511D02*
X439479511Y-196540489D01*
X383300489Y-191539746D02*
X384835264Y-193074521D01*
X431700489Y-181459511D02*
X421699511Y-181459511D01*
X433050000Y-184150000D02*
X433050000Y-180110000D01*
X406300489Y-196540489D02*
X396299511Y-196540489D01*
X384835264Y-193074521D02*
X393925479Y-193074521D01*
X433050000Y-197890000D02*
X431700489Y-196540489D01*
X420350000Y-197890000D02*
X419000489Y-196540489D01*
X396140489Y-176960489D02*
X394950000Y-178150978D01*
X394950000Y-178150978D02*
X394950000Y-180110000D01*
D24*
X286514515Y-212239260D02*
X308589407Y-212239260D01*
X272380000Y-185000000D02*
X273179999Y-185799999D01*
X308589407Y-212239260D02*
X319735000Y-223384853D01*
X319735000Y-223384853D02*
X319735000Y-244495000D01*
X273179999Y-185799999D02*
X273179999Y-198904744D01*
X273179999Y-198904744D02*
X286514515Y-212239260D01*
X149384999Y-243395001D02*
X148285000Y-244495000D01*
X146380000Y-194558588D02*
X153583809Y-201762397D01*
X146380000Y-185000000D02*
X146380000Y-194558588D01*
X153583809Y-239196191D02*
X149384999Y-243395001D01*
X153583809Y-201762397D02*
X153583809Y-239196191D01*
X160380000Y-185000000D02*
X160380000Y-194568593D01*
X165022171Y-210679283D02*
X172045093Y-217702205D01*
X172045093Y-217702205D02*
X172045093Y-239784907D01*
X172045093Y-239784907D02*
X167335000Y-244495000D01*
X165022171Y-199210764D02*
X165022171Y-210679283D01*
X160380000Y-194568593D02*
X165022171Y-199210764D01*
X189055448Y-187108696D02*
X189055448Y-195234036D01*
X207500000Y-242430000D02*
X205435000Y-244495000D01*
X206860001Y-213038589D02*
X206860001Y-220383264D01*
X207500000Y-222256735D02*
X207500000Y-242430000D01*
X206860001Y-220383264D02*
X206750479Y-220492786D01*
X189055448Y-195234036D02*
X206860001Y-213038589D01*
X188380000Y-186433248D02*
X189055448Y-187108696D01*
X188380000Y-185000000D02*
X188380000Y-186433248D01*
X206750479Y-221507214D02*
X207500000Y-222256735D01*
X206750479Y-220492786D02*
X206750479Y-221507214D01*
X201630009Y-186881361D02*
X201630008Y-193808597D01*
X204325680Y-197709363D02*
X221111316Y-214494999D01*
X224485000Y-242939366D02*
X224485000Y-244495000D01*
X202380000Y-185000000D02*
X202380000Y-186131370D01*
X225910001Y-220375997D02*
X224485000Y-221800998D01*
X225169001Y-214494999D02*
X225910001Y-215235999D01*
X225910001Y-215235999D02*
X225910001Y-220375997D01*
X224485000Y-221800998D02*
X224485000Y-242939366D01*
X204325680Y-196504269D02*
X204325680Y-197709363D01*
X221111316Y-214494999D02*
X225169001Y-214494999D01*
X201630008Y-193808597D02*
X204325680Y-196504269D01*
X202380000Y-186131370D02*
X201630009Y-186881361D01*
X248145479Y-217395479D02*
X248145479Y-239884521D01*
X248145479Y-239884521D02*
X243535000Y-244495000D01*
X238535489Y-217035489D02*
X247785489Y-217035489D01*
X247785489Y-217035489D02*
X248145479Y-217395479D01*
X216380000Y-185000000D02*
X216380000Y-194880000D01*
X216380000Y-194880000D02*
X238535489Y-217035489D01*
X256494999Y-214494999D02*
X259035489Y-217035489D01*
X259035489Y-217035489D02*
X266350053Y-217035489D01*
X266350053Y-217035489D02*
X267195479Y-217880915D01*
X231179999Y-197972843D02*
X247702155Y-214494999D01*
X267195479Y-239884521D02*
X262585000Y-244495000D01*
X230380000Y-185000000D02*
X231179999Y-185799999D01*
X231179999Y-185799999D02*
X231179999Y-197972843D01*
X267195479Y-217880915D02*
X267195479Y-239884521D01*
X247702155Y-214494999D02*
X256494999Y-214494999D01*
X244380000Y-194672810D02*
X264202189Y-214494999D01*
X285340063Y-216975499D02*
X286234511Y-217869947D01*
X275274501Y-216975499D02*
X285340063Y-216975499D01*
X264202189Y-214494999D02*
X272794001Y-214494999D01*
X244380000Y-185000000D02*
X244380000Y-194672810D01*
X286234511Y-239895489D02*
X281635000Y-244495000D01*
X286234511Y-217869947D02*
X286234511Y-239895489D01*
X272794001Y-214494999D02*
X275274501Y-216975499D01*
X276166917Y-214365548D02*
X276167627Y-214365548D01*
X291849002Y-214500000D02*
X304500000Y-214500000D01*
X290466710Y-214504288D02*
X290475999Y-214494999D01*
X290475999Y-214494999D02*
X291844001Y-214494999D01*
X276306366Y-214504288D02*
X290466710Y-214504288D01*
X276167627Y-214365548D02*
X276306366Y-214504288D01*
X259179999Y-185799999D02*
X259179999Y-197378630D01*
X291844001Y-214494999D02*
X291849002Y-214500000D01*
X304500000Y-214500000D02*
X305295479Y-215295479D01*
X259179999Y-197378630D02*
X276166917Y-214365548D01*
X305295479Y-215295479D02*
X305295479Y-239884521D01*
X305295479Y-239884521D02*
X300685000Y-244495000D01*
X258380000Y-185000000D02*
X259179999Y-185799999D01*
X150380000Y-197285767D02*
X154521377Y-201427144D01*
X150380000Y-193000000D02*
X150380000Y-197285767D01*
X154521377Y-258147375D02*
X162572500Y-266198498D01*
X162572500Y-281039366D02*
X162572500Y-282595000D01*
X154521377Y-201427144D02*
X154521377Y-258147375D01*
X162572500Y-266198498D02*
X162572500Y-281039366D01*
X134549990Y-192186400D02*
X134549990Y-202664286D01*
X134549990Y-202664286D02*
X137250000Y-205364296D01*
X137250000Y-236480000D02*
X129235000Y-244495000D01*
X132380000Y-190016410D02*
X134549990Y-192186400D01*
X132380000Y-185000000D02*
X132380000Y-190016410D01*
X137250000Y-205364296D02*
X137250000Y-236480000D01*
X240250000Y-267039588D02*
X240250000Y-283191032D01*
X229399022Y-217471175D02*
X229399021Y-218215948D01*
X248297500Y-291238532D02*
X248297500Y-301645000D01*
X229144301Y-217216453D02*
X229149022Y-217221175D01*
X229399021Y-218215948D02*
X229399022Y-256188610D01*
X229399022Y-256188610D02*
X240250000Y-267039588D01*
X229144301Y-216561068D02*
X229144301Y-217216453D01*
X240250000Y-283191032D02*
X248297500Y-291238532D01*
X209583233Y-197000000D02*
X229144301Y-216561068D01*
X229149022Y-217221175D02*
X229399022Y-217471175D01*
X208380000Y-197000000D02*
X209583233Y-197000000D01*
X341423181Y-209550869D02*
X343372312Y-211500000D01*
X378759021Y-215166133D02*
X379842888Y-216250000D01*
X361824039Y-213824026D02*
X377439294Y-213824026D01*
X315699510Y-195563806D02*
X315699510Y-196606621D01*
X395769521Y-219519521D02*
X395769521Y-235135479D01*
X392500000Y-216250000D02*
X395769521Y-219519521D01*
X343734085Y-211500000D02*
X343835064Y-211550489D01*
X315699510Y-196606621D02*
X328448763Y-209355875D01*
X377439294Y-213824026D02*
X378759022Y-215143754D01*
X343372312Y-211500000D02*
X343734085Y-211500000D01*
X344079983Y-211500000D02*
X359500000Y-211500000D01*
X314380000Y-194244296D02*
X315699510Y-195563806D01*
X395769521Y-235135479D02*
X386410000Y-244495000D01*
X379842888Y-216250000D02*
X392500000Y-216250000D01*
X378759022Y-215143754D02*
X378759021Y-215166133D01*
X334891691Y-209355874D02*
X335086685Y-209550868D01*
X335086685Y-209550868D02*
X341423181Y-209550869D01*
X359600969Y-211600969D02*
X359600983Y-211600970D01*
X359600983Y-211600970D02*
X361824039Y-213824026D01*
X359500000Y-211500000D02*
X359600969Y-211600969D01*
X343835064Y-211550489D02*
X343928515Y-211550489D01*
X314380000Y-185000000D02*
X314380000Y-194244296D01*
X328448763Y-209355875D02*
X334891691Y-209355874D01*
X343928515Y-211550489D02*
X344079983Y-211500000D01*
X344127630Y-211048048D02*
X344127633Y-211048045D01*
X343906935Y-211083856D02*
X344014360Y-211048048D01*
X377625474Y-213374514D02*
X380000960Y-215750000D01*
X335219565Y-209048044D02*
X341556064Y-209048044D01*
X380000960Y-215750000D02*
X393000000Y-215750000D01*
X343755242Y-211048048D02*
X343755248Y-211048048D01*
X343556064Y-211048044D02*
X343668475Y-211048044D01*
X341556064Y-209048044D02*
X343556064Y-211048044D01*
X343755225Y-211048041D02*
X343755229Y-211048041D01*
X343755229Y-211048041D02*
X343755232Y-211048044D01*
X343755253Y-211048053D02*
X343835327Y-211048051D01*
X343668475Y-211048044D02*
X343733540Y-211026356D01*
X344181208Y-211048044D02*
X344500007Y-211048043D01*
X316380000Y-196651407D02*
X328634956Y-208906364D01*
X328634956Y-208906364D02*
X335077885Y-208906364D01*
X398176421Y-258823579D02*
X393455000Y-263545000D01*
X396750000Y-240847085D02*
X398176421Y-242273506D01*
X344127633Y-211048045D02*
X344181208Y-211048044D01*
X396750000Y-219500000D02*
X396750000Y-240847085D01*
X343755248Y-211048048D02*
X343755253Y-211048053D01*
X343733540Y-211026356D02*
X343755225Y-211048041D01*
X359798041Y-211048041D02*
X362124514Y-213374514D01*
X343835327Y-211048051D02*
X343906935Y-211083856D01*
X343755238Y-211048044D02*
X343755242Y-211048048D01*
X398176421Y-242273506D02*
X398176421Y-258823579D01*
X344500009Y-211048041D02*
X359798041Y-211048041D01*
X344500007Y-211048043D02*
X344500009Y-211048041D01*
X343755232Y-211048044D02*
X343755238Y-211048044D01*
X362124514Y-213374514D02*
X377625474Y-213374514D01*
X393000000Y-215750000D02*
X396750000Y-219500000D01*
X335077885Y-208906364D02*
X335219565Y-209048044D01*
X316380000Y-189000000D02*
X316380000Y-196651407D01*
X344014360Y-211048048D02*
X344127630Y-211048048D01*
X393455000Y-263545000D02*
X391172500Y-263545000D01*
X201987979Y-287167786D02*
X201987979Y-293435479D01*
X191498051Y-253954213D02*
X202037499Y-264493661D01*
X202037499Y-281850997D02*
X202097501Y-281910999D01*
X201987979Y-293435479D02*
X210197500Y-301645000D01*
X202037499Y-264493661D02*
X202037499Y-281850997D01*
X202097501Y-283279001D02*
X202037499Y-283339003D01*
X191498051Y-208118051D02*
X191498051Y-253954213D01*
X202037499Y-283339003D02*
X202037499Y-287118266D01*
X202037499Y-287118266D02*
X201987979Y-287167786D01*
X202097501Y-281910999D02*
X202097501Y-283279001D01*
X180380000Y-197000000D02*
X191498051Y-208118051D01*
X138250000Y-205092889D02*
X138250000Y-280723750D01*
X138250000Y-280723750D02*
X136378750Y-282595000D01*
X136380000Y-203222889D02*
X138250000Y-205092889D01*
X136380000Y-193000000D02*
X136380000Y-203222889D01*
X309517873Y-209989206D02*
X313829161Y-214300493D01*
X313829171Y-214300497D02*
X313898237Y-214300496D01*
X293196391Y-209989206D02*
X309517873Y-209989206D01*
X313829161Y-214300493D02*
X313829168Y-214300494D01*
X289300480Y-206093295D02*
X293196391Y-209989206D01*
X339375059Y-214495495D02*
X341629564Y-216750000D01*
X313829168Y-214300494D02*
X313829171Y-214300497D01*
X341629564Y-216750000D02*
X351789564Y-216750000D01*
X313898253Y-214300512D02*
X332843588Y-214300515D01*
X338785000Y-234465000D02*
X338785000Y-244495000D01*
X353000000Y-217960436D02*
X353000000Y-220250000D01*
X351789564Y-216750000D02*
X353000000Y-217960436D01*
X289300480Y-194286176D02*
X289300480Y-206093295D01*
X286380000Y-185000000D02*
X286380000Y-191365696D01*
X353000000Y-220250000D02*
X338785000Y-234465000D01*
X332843588Y-214300515D02*
X333038569Y-214495496D01*
X333038569Y-214495496D02*
X339375059Y-214495495D01*
X313898237Y-214300496D02*
X313898253Y-214300512D01*
X286380000Y-191365696D02*
X289300480Y-194286176D01*
X346000000Y-206250000D02*
X344500000Y-204750000D01*
X398750000Y-210750000D02*
X381500001Y-210749999D01*
X420227768Y-213750000D02*
X401750000Y-213750000D01*
X344500000Y-190251370D02*
X344380000Y-190131370D01*
X344500000Y-204750000D02*
X344500000Y-190251370D01*
X420163958Y-242896894D02*
X420163958Y-218314634D01*
X344380000Y-190131370D02*
X344380000Y-189000000D01*
X362250000Y-206250000D02*
X346000000Y-206250000D01*
X421172010Y-247577990D02*
X421172011Y-243904947D01*
X419747500Y-263545000D02*
X419747500Y-249002500D01*
X381500001Y-210749999D02*
X379250000Y-208500000D01*
X401750000Y-213750000D02*
X398750000Y-210750000D01*
X364500000Y-208500000D02*
X362250000Y-206250000D01*
X379250000Y-208500000D02*
X364500000Y-208500000D01*
X421621520Y-215143752D02*
X420227768Y-213750000D01*
X421172011Y-243904947D02*
X420163958Y-242896894D01*
X421621520Y-216857072D02*
X421621520Y-215143752D01*
X419747500Y-249002500D02*
X421172010Y-247577990D01*
X420163958Y-218314634D02*
X421621520Y-216857072D01*
X332380000Y-201880000D02*
X336750000Y-206250000D01*
X363454401Y-210454401D02*
X378654345Y-210454402D01*
X343000000Y-206250000D02*
X344949511Y-208199511D01*
X344949511Y-208199511D02*
X361199511Y-208199511D01*
X398000000Y-212750000D02*
X402500000Y-217250000D01*
X408250000Y-318750000D02*
X409000000Y-318750000D01*
X402500000Y-217250000D02*
X402500000Y-313000000D01*
X380949943Y-212750000D02*
X398000000Y-212750000D01*
X361199511Y-208199511D02*
X363454401Y-210454401D01*
X402500000Y-313000000D02*
X408250000Y-318750000D01*
X336750000Y-206250000D02*
X343000000Y-206250000D01*
X332380000Y-193000000D02*
X332380000Y-201880000D01*
X378654345Y-210454402D02*
X380949943Y-212750000D01*
X128000000Y-189000000D02*
X128000000Y-192050000D01*
X124950000Y-185000000D02*
X126000000Y-185000000D01*
X338000000Y-191000000D02*
X340000000Y-193000000D01*
X130950000Y-197000000D02*
X132000000Y-197000000D01*
X312950000Y-197000000D02*
X314000000Y-197000000D01*
X340000000Y-195000000D02*
X342000000Y-197000000D01*
X128000000Y-192050000D02*
X128950000Y-193000000D01*
X336000000Y-185000000D02*
X336000000Y-187000000D01*
X338000000Y-189000000D02*
X338000000Y-191000000D01*
X340000000Y-193000000D02*
X340000000Y-195000000D01*
X126950000Y-189000000D02*
X128000000Y-189000000D01*
X312000000Y-193000000D02*
X312000000Y-196050000D01*
X126000000Y-188050000D02*
X126950000Y-189000000D01*
X130000000Y-193000000D02*
X130000000Y-196050000D01*
X130000000Y-196050000D02*
X130950000Y-197000000D01*
X334000000Y-181000000D02*
X334000000Y-183000000D01*
X124000000Y-184050000D02*
X124950000Y-185000000D01*
X128950000Y-193000000D02*
X130000000Y-193000000D01*
X336000000Y-187000000D02*
X338000000Y-189000000D01*
X334000000Y-183000000D02*
X336000000Y-185000000D01*
X124000000Y-181000000D02*
X124000000Y-184050000D01*
X126000000Y-185000000D02*
X126000000Y-188050000D01*
X312000000Y-196050000D02*
X312950000Y-197000000D01*
X441000000Y-215472232D02*
X441000000Y-216500000D01*
X436777768Y-211250000D02*
X441000000Y-215472232D01*
X400250000Y-208250000D02*
X403250000Y-211250000D01*
X403250000Y-211250000D02*
X436777768Y-211250000D01*
X358500000Y-190251370D02*
X358500000Y-202500000D01*
X439213959Y-242896895D02*
X440222011Y-243904947D01*
X440222011Y-243904947D02*
X440222011Y-245085053D01*
X365750000Y-206000000D02*
X380500000Y-206000000D01*
X439213959Y-218286041D02*
X439213959Y-242896895D01*
X438797500Y-246509564D02*
X438797500Y-263545000D01*
X358500000Y-202500000D02*
X359750000Y-203750000D01*
X441000000Y-216500000D02*
X439213959Y-218286041D01*
X382750000Y-208250000D02*
X400250000Y-208250000D01*
X380500000Y-206000000D02*
X382750000Y-208250000D01*
X358380000Y-190131370D02*
X358500000Y-190251370D01*
X363500000Y-203750000D02*
X365750000Y-206000000D01*
X359750000Y-203750000D02*
X363500000Y-203750000D01*
X440222011Y-245085053D02*
X438797500Y-246509564D01*
X358380000Y-189000000D02*
X358380000Y-190131370D01*
X318380000Y-193000000D02*
X318380000Y-198015704D01*
X343941431Y-210598533D02*
X343941436Y-210598538D01*
X343252426Y-210023839D02*
X343252430Y-210023843D01*
X359984235Y-210598531D02*
X362192367Y-212806663D01*
X344173736Y-210598533D02*
X344313813Y-210598533D01*
X343252430Y-210023848D02*
X343384091Y-210155504D01*
X335405758Y-208598533D02*
X341827125Y-208598533D01*
X397250000Y-219250000D02*
X397250000Y-240711381D01*
X398625932Y-267997818D02*
X384028750Y-282595000D01*
X397250000Y-240711381D02*
X398625932Y-242087313D01*
X343384091Y-210155504D02*
X343515744Y-210287157D01*
X318380000Y-198015704D02*
X328821149Y-208456853D01*
X341827125Y-208598533D02*
X343252426Y-210023834D01*
X343941418Y-210598530D02*
X343941424Y-210598530D01*
X335264079Y-208456854D02*
X335405758Y-208598533D01*
X344313813Y-210598533D02*
X344313816Y-210598530D01*
X343515749Y-210287157D02*
X343779066Y-210550472D01*
X343941424Y-210598530D02*
X343941425Y-210598533D01*
X344313816Y-210598530D02*
X359984235Y-210598531D01*
X343252426Y-210023834D02*
X343252426Y-210023839D01*
X343845299Y-210550471D02*
X343941418Y-210598530D01*
X343252430Y-210023843D02*
X343252430Y-210023848D01*
X343515744Y-210287157D02*
X343515749Y-210287157D01*
X328821149Y-208456853D02*
X335264079Y-208456854D01*
X377693337Y-212806663D02*
X380136674Y-215250000D01*
X343779066Y-210550472D02*
X343845299Y-210550471D01*
X393250000Y-215250000D02*
X397250000Y-219250000D01*
X343941436Y-210598538D02*
X344173736Y-210598533D01*
X398625932Y-242087313D02*
X398625932Y-267997818D01*
X343941425Y-210598533D02*
X343941431Y-210598533D01*
X362192367Y-212806663D02*
X377693337Y-212806663D01*
X380136674Y-215250000D02*
X393250000Y-215250000D01*
X300380000Y-185000000D02*
X301250000Y-185870000D01*
X356851194Y-214300490D02*
X357046193Y-214495489D01*
X333969535Y-212247942D02*
X340306026Y-212247942D01*
X371959511Y-219050053D02*
X371500000Y-219509564D01*
X371500000Y-230830000D02*
X357835000Y-244495000D01*
X371250000Y-216750000D02*
X371959511Y-217459511D01*
X314760123Y-212052938D02*
X333774527Y-212052934D01*
X371959511Y-217459511D02*
X371959511Y-219050053D01*
X371500000Y-219509564D02*
X371500000Y-230830000D01*
X357046193Y-214495489D02*
X358425053Y-214495489D01*
X358425053Y-214495489D02*
X360679564Y-216750000D01*
X333774527Y-212052934D02*
X333969535Y-212247942D01*
X360679564Y-216750000D02*
X371250000Y-216750000D01*
X342358573Y-214300489D02*
X356851194Y-214300490D01*
X301250000Y-185870000D02*
X301250000Y-198542815D01*
X301250000Y-198542815D02*
X314760123Y-212052938D01*
X340306026Y-212247942D02*
X342358573Y-214300489D01*
X136750000Y-205500000D02*
X136750000Y-208405000D01*
X134099980Y-202849980D02*
X136750000Y-205500000D01*
X130380000Y-185450010D02*
X131929990Y-187000000D01*
X131929990Y-187000000D02*
X131929991Y-190202811D01*
X130380000Y-181000000D02*
X130380000Y-185450010D01*
X134099980Y-192372800D02*
X134099980Y-202849980D01*
X131929991Y-190202811D02*
X134099980Y-192372800D01*
X136750000Y-208405000D02*
X129235000Y-215920000D01*
X148285000Y-214364366D02*
X148285000Y-215920000D01*
X144380000Y-181000000D02*
X145179999Y-181799999D01*
X153131573Y-209517793D02*
X148285000Y-214364366D01*
X145179999Y-193994997D02*
X153131573Y-201946571D01*
X145179999Y-181799999D02*
X145179999Y-193994997D01*
X153131573Y-201946571D02*
X153131573Y-209517793D01*
X122380000Y-199495666D02*
X122380000Y-193000000D01*
X119800490Y-202075176D02*
X122380000Y-199495666D01*
X119940969Y-297939467D02*
X119940969Y-297938760D01*
X119800489Y-297798280D02*
X119800490Y-202075176D01*
X119940969Y-297938760D02*
X119800489Y-297798280D01*
X141512653Y-317987347D02*
X139988849Y-317987347D01*
X139988849Y-317987347D02*
X119940969Y-297939467D01*
X314473361Y-212951959D02*
X316540898Y-212951959D01*
X314473347Y-212951951D02*
X314473352Y-212951956D01*
X293614296Y-208500000D02*
X309935779Y-208500000D01*
X314473358Y-212951956D02*
X314473361Y-212951959D01*
X348990479Y-261480067D02*
X354497501Y-266987089D01*
X359000000Y-228000000D02*
X348990479Y-238009521D01*
X342036676Y-215250000D02*
X355000000Y-215250000D01*
X352700000Y-288948502D02*
X352700000Y-313050000D01*
X359000000Y-219250000D02*
X359000000Y-228000000D01*
X354497501Y-287151001D02*
X352700000Y-288948502D01*
X316540898Y-212951959D02*
X333402141Y-212951956D01*
X309935779Y-208500000D02*
X314387733Y-212951953D01*
X314387733Y-212951953D02*
X314473347Y-212951951D01*
X290750000Y-198630000D02*
X290750000Y-205635704D01*
X348990479Y-238009521D02*
X348990479Y-261480067D01*
X292380000Y-197000000D02*
X290750000Y-198630000D01*
X333402141Y-212951956D02*
X333597148Y-213146963D01*
X354497501Y-266987089D02*
X354497501Y-287151001D01*
X290750000Y-205635704D02*
X293614296Y-208500000D01*
X339933641Y-213146965D02*
X342036676Y-215250000D01*
X352700000Y-313050000D02*
X351000000Y-314750000D01*
X355000000Y-215250000D02*
X359000000Y-219250000D01*
X314473352Y-212951956D02*
X314473358Y-212951956D01*
X333597148Y-213146963D02*
X339933641Y-213146965D01*
X420613469Y-242710674D02*
X421621521Y-243718726D01*
X420197021Y-261979957D02*
X421172011Y-262954947D01*
X419747500Y-265559564D02*
X419747500Y-282595000D01*
X421172011Y-264135053D02*
X419747500Y-265559564D01*
X346380000Y-193000000D02*
X345050490Y-194329510D01*
X399000000Y-210250000D02*
X402000000Y-213250000D01*
X379500000Y-208000000D02*
X381750000Y-210250000D01*
X421621521Y-247764183D02*
X420197021Y-249188683D01*
X345050490Y-194329510D02*
X345050490Y-204550490D01*
X422071031Y-217043265D02*
X420613468Y-218500828D01*
X420363472Y-213250000D02*
X422071031Y-214957561D01*
X402000000Y-213250000D02*
X420363472Y-213250000D01*
X420197021Y-249188683D02*
X420197021Y-261979957D01*
X346250000Y-205750000D02*
X362614296Y-205750000D01*
X345050490Y-204550490D02*
X346250000Y-205750000D01*
X362614296Y-205750000D02*
X364864296Y-208000000D01*
X421172011Y-262954947D02*
X421172011Y-264135053D01*
X422071031Y-214957561D02*
X422071031Y-217043265D01*
X420613468Y-218500828D02*
X420613469Y-242710674D01*
X421621521Y-243718726D02*
X421621521Y-247764183D01*
X364864296Y-208000000D02*
X379500000Y-208000000D01*
X381750000Y-210250000D02*
X399000000Y-210250000D01*
X421062979Y-287177602D02*
X419747500Y-288493081D01*
X365000000Y-207500000D02*
X379750000Y-207500000D01*
X419747500Y-288493081D02*
X419747500Y-301645000D01*
X345500000Y-199880000D02*
X345500000Y-204250000D01*
X421062979Y-218687021D02*
X421062979Y-242524480D01*
X421062979Y-287167786D02*
X421062979Y-287177602D01*
X422071042Y-243532544D02*
X422071042Y-248059737D01*
X399500000Y-209750000D02*
X402500000Y-212750000D01*
X420949511Y-264993257D02*
X420949510Y-274015502D01*
X421621521Y-264321247D02*
X420949511Y-264993257D01*
X422520541Y-214771349D02*
X422520541Y-214771367D01*
X348380000Y-197000000D02*
X345500000Y-199880000D01*
X422520543Y-217229457D02*
X421062979Y-218687021D01*
X422071042Y-248059737D02*
X420646532Y-249484247D01*
X382000000Y-209750000D02*
X399500000Y-209750000D01*
X422520543Y-215143759D02*
X422520543Y-217229457D01*
X421500000Y-274565992D02*
X421500000Y-286730765D01*
X420646532Y-249484247D02*
X420646531Y-261793763D01*
X346500000Y-205250000D02*
X362750000Y-205250000D01*
X362750000Y-205250000D02*
X365000000Y-207500000D01*
X420499192Y-212750000D02*
X422520541Y-214771349D01*
X420646531Y-261793763D02*
X421621522Y-262768754D01*
X421500000Y-286730765D02*
X421062979Y-287167786D01*
X420949510Y-274015502D02*
X421500000Y-274565992D01*
X422520544Y-214771370D02*
X422520543Y-215143759D01*
X421621522Y-262768754D02*
X421621521Y-264321247D01*
X379750000Y-207500000D02*
X382000000Y-209750000D01*
X345500000Y-204250000D02*
X346500000Y-205250000D01*
X422520541Y-214771367D02*
X422520544Y-214771370D01*
X402500000Y-212750000D02*
X420499192Y-212750000D01*
X421062979Y-242524480D02*
X422071042Y-243532544D01*
X383000000Y-207750000D02*
X400500000Y-207750000D01*
X439663468Y-246279300D02*
X439663469Y-252049173D01*
X439663469Y-242710687D02*
X440671521Y-243718739D01*
X439663470Y-218586530D02*
X439663469Y-242710687D01*
X441500000Y-215336528D02*
X441500000Y-216750000D01*
X360380000Y-193000000D02*
X359000000Y-194380000D01*
X403500000Y-210750000D02*
X436913472Y-210750000D01*
X366000000Y-205500000D02*
X380750000Y-205500000D01*
X441500000Y-216750000D02*
X439663470Y-218586530D01*
X360000000Y-203250000D02*
X363750000Y-203250000D01*
X440222011Y-252607715D02*
X440222011Y-267373050D01*
X440671521Y-243718739D02*
X440671521Y-245271247D01*
X380750000Y-205500000D02*
X383000000Y-207750000D01*
X439663469Y-252049173D02*
X440222011Y-252607715D01*
X440222011Y-267373050D02*
X438797500Y-268797561D01*
X438797500Y-268797561D02*
X438797500Y-282595000D01*
X363750000Y-203250000D02*
X366000000Y-205500000D01*
X436913472Y-210750000D02*
X441500000Y-215336528D01*
X400500000Y-207750000D02*
X403500000Y-210750000D01*
X359000000Y-194380000D02*
X359000000Y-202250000D01*
X440671521Y-245271247D02*
X439663468Y-246279300D01*
X359000000Y-202250000D02*
X360000000Y-203250000D01*
X458581044Y-242445340D02*
X459721522Y-243585818D01*
X459050489Y-245942294D02*
X459050489Y-248544574D01*
X459272011Y-267227989D02*
X457847500Y-268652500D01*
X459272011Y-250826950D02*
X459272011Y-267227989D01*
X382000000Y-203000000D02*
X384250000Y-205250000D01*
X401750000Y-205250000D02*
X404750000Y-208250000D01*
X459050489Y-248544574D02*
X458713469Y-248881594D01*
X374000000Y-203000000D02*
X382000000Y-203000000D01*
X404750000Y-208250000D02*
X437591992Y-208250000D01*
X373000000Y-194380000D02*
X373000000Y-202000000D01*
X374380000Y-193000000D02*
X373000000Y-194380000D01*
X442591992Y-213250000D02*
X458463485Y-213250000D01*
X437591992Y-208250000D02*
X442591992Y-213250000D01*
X458463485Y-213250000D02*
X460171033Y-214957548D01*
X459721522Y-245271261D02*
X459050489Y-245942294D01*
X460171033Y-217328967D02*
X458581044Y-218918956D01*
X373000000Y-202000000D02*
X374000000Y-203000000D01*
X459721522Y-243585818D02*
X459721522Y-245271261D01*
X458581044Y-218918956D02*
X458581044Y-242445340D01*
X458713469Y-250268408D02*
X459272011Y-250826950D01*
X460171033Y-214957548D02*
X460171033Y-217328967D01*
X457847500Y-268652500D02*
X457847500Y-282595000D01*
X458713469Y-248881594D02*
X458713469Y-250268408D01*
X384250000Y-205250000D02*
X401750000Y-205250000D01*
X459030554Y-242259146D02*
X460171033Y-243399625D01*
X457847500Y-288483265D02*
X457847500Y-301645000D01*
X373500000Y-199880000D02*
X373500000Y-201750000D01*
X460620544Y-217629456D02*
X459030555Y-219219445D01*
X376380000Y-197000000D02*
X373500000Y-199880000D01*
X459721522Y-267528478D02*
X459000000Y-268250000D01*
X459500000Y-282232936D02*
X459500000Y-286830765D01*
X437727696Y-207750000D02*
X442727695Y-212749999D01*
X405000000Y-207750000D02*
X437727696Y-207750000D01*
X459500000Y-246128487D02*
X459499999Y-248730768D01*
X374250000Y-202500000D02*
X382250000Y-202500000D01*
X459162979Y-250082214D02*
X459721522Y-250640757D01*
X459499999Y-248730768D02*
X459162979Y-249067788D01*
X460171032Y-245457455D02*
X459500000Y-246128487D01*
X382250000Y-202500000D02*
X384500000Y-204750000D01*
X373500000Y-201750000D02*
X374250000Y-202500000D01*
X402000000Y-204750000D02*
X405000000Y-207750000D01*
X384500000Y-204750000D02*
X402000000Y-204750000D01*
X460620544Y-214620544D02*
X460620544Y-217629456D01*
X459162979Y-249067788D02*
X459162979Y-250082214D01*
X459030555Y-219219445D02*
X459030554Y-242259146D01*
X460171033Y-243399625D02*
X460171032Y-245457455D01*
X459000000Y-268250000D02*
X459000000Y-281732936D01*
X459000000Y-281732936D02*
X459500000Y-282232936D01*
X442727695Y-212749999D02*
X458750000Y-212750000D01*
X459500000Y-286830765D02*
X457847500Y-288483265D01*
X459721522Y-250640757D02*
X459721522Y-267528478D01*
X458750000Y-212750000D02*
X460620544Y-214620544D01*
X164572160Y-199397164D02*
X164572160Y-213157160D01*
X159179999Y-194005003D02*
X164572160Y-199397164D01*
X158380000Y-181000000D02*
X159179999Y-181799999D01*
X164572160Y-213157160D02*
X166235001Y-214820001D01*
X166235001Y-214820001D02*
X167335000Y-215920000D01*
X159179999Y-181799999D02*
X159179999Y-194005003D01*
X172380000Y-181000000D02*
X173179999Y-181799999D01*
X173179999Y-181799999D02*
X173179999Y-193179999D01*
X175125001Y-195125001D02*
X175125001Y-203203549D01*
X175125001Y-203203549D02*
X186385000Y-214463548D01*
X173179999Y-193179999D02*
X175125001Y-195125001D01*
X186385000Y-214463548D02*
X186385000Y-215920000D01*
X187179999Y-181799999D02*
X187179999Y-193994997D01*
X205435000Y-212249998D02*
X205435000Y-214364366D01*
X186380000Y-181000000D02*
X187179999Y-181799999D01*
X205435000Y-214364366D02*
X205435000Y-215920000D01*
X187179999Y-193994997D02*
X205435000Y-212249998D01*
X203875671Y-196690669D02*
X203875671Y-197901244D01*
X201179999Y-181799999D02*
X201179999Y-193994997D01*
X201179999Y-193994997D02*
X203875671Y-196690669D01*
X203875671Y-197901244D02*
X221894427Y-215920000D01*
X200380000Y-181000000D02*
X201179999Y-181799999D01*
X221894427Y-215920000D02*
X224485000Y-215920000D01*
X223482201Y-196511901D02*
X223504511Y-196534211D01*
X239192859Y-215000000D02*
X250584366Y-215000000D01*
X251504366Y-215920000D02*
X253060000Y-215920000D01*
X223482201Y-190102201D02*
X223482201Y-196511901D01*
X214380000Y-181000000D02*
X223482201Y-190102201D01*
X223504511Y-199311652D02*
X239192859Y-215000000D01*
X250584366Y-215000000D02*
X251504366Y-215920000D01*
X223504511Y-196534211D02*
X223504511Y-199311652D01*
X248228592Y-212478592D02*
X257271408Y-212478592D01*
X239500000Y-203750000D02*
X248228592Y-212478592D01*
X270554366Y-215920000D02*
X272110000Y-215920000D01*
X257271408Y-212478592D02*
X259850812Y-215057997D01*
X239500000Y-192120000D02*
X239500000Y-203750000D01*
X228380000Y-181000000D02*
X239500000Y-192120000D01*
X259850812Y-215057997D02*
X269692363Y-215057997D01*
X269692363Y-215057997D02*
X270554366Y-215920000D01*
X290240000Y-215000000D02*
X291160000Y-215920000D01*
X275659711Y-214815067D02*
X275981429Y-214815068D01*
X264944959Y-212694959D02*
X273539603Y-212694959D01*
X242380000Y-181000000D02*
X251724879Y-190344879D01*
X276166361Y-215000000D02*
X290240000Y-215000000D01*
X273539603Y-212694959D02*
X275659711Y-214815067D01*
X275981429Y-214815068D02*
X276166361Y-215000000D01*
X251724879Y-199474879D02*
X264944959Y-212694959D01*
X251724879Y-190344879D02*
X251724879Y-199474879D01*
X306985456Y-212695456D02*
X310210000Y-215920000D01*
X265505001Y-190125001D02*
X265505001Y-201157988D01*
X256380000Y-181000000D02*
X265505001Y-190125001D01*
X277042468Y-212695455D02*
X306985456Y-212695456D01*
X265505001Y-201157988D02*
X277042468Y-212695455D01*
X279505001Y-190125001D02*
X279505001Y-202642408D01*
X313642992Y-214750014D02*
X313712049Y-214750012D01*
X313642986Y-214750008D02*
X313642992Y-214750014D01*
X333827369Y-215920000D02*
X338785000Y-215920000D01*
X287301809Y-210439216D02*
X309332179Y-210439216D01*
X279505001Y-202642408D02*
X287301809Y-210439216D01*
X313712049Y-214750012D02*
X313712060Y-214750023D01*
X313642978Y-214750008D02*
X313642986Y-214750008D01*
X313642974Y-214750004D02*
X313642978Y-214750008D01*
X270380000Y-181000000D02*
X279505001Y-190125001D01*
X332657394Y-214750025D02*
X333827369Y-215920000D01*
X313712060Y-214750023D02*
X332657394Y-214750025D01*
X309332179Y-210439216D02*
X313642969Y-214750004D01*
X313642969Y-214750004D02*
X313642974Y-214750004D01*
X316354705Y-212502448D02*
X333588334Y-212502445D01*
X340119832Y-212697452D02*
X342172380Y-214750000D01*
X314573930Y-212502449D02*
X314946317Y-212502448D01*
X342172380Y-214750000D02*
X356665000Y-214750000D01*
X284380000Y-181000000D02*
X293504511Y-190124511D01*
X293504511Y-190124511D02*
X293504511Y-197465789D01*
X333783342Y-212697453D02*
X340119832Y-212697452D01*
X310071483Y-208000000D02*
X314573930Y-212502449D01*
X333588334Y-212502445D02*
X333783342Y-212697453D01*
X314946317Y-212502448D02*
X316354705Y-212502448D01*
X291250000Y-205499986D02*
X293750014Y-208000000D01*
X356665000Y-214750000D02*
X357835000Y-215920000D01*
X293750014Y-208000000D02*
X310071483Y-208000000D01*
X291250000Y-199720300D02*
X291250000Y-205499986D01*
X293504511Y-197465789D02*
X291250000Y-199720300D01*
X341050800Y-210449898D02*
X343100902Y-212500000D01*
X334519303Y-210254894D02*
X334714305Y-210449896D01*
X298380000Y-181000000D02*
X307858318Y-190478318D01*
X307858318Y-202608318D02*
X315504893Y-210254893D01*
X334714305Y-210449896D02*
X341050800Y-210449898D01*
X307858318Y-190478318D02*
X307858318Y-202608318D01*
X375715000Y-214750000D02*
X376885000Y-215920000D01*
X359228592Y-212500000D02*
X361478592Y-214750000D01*
X315504893Y-210254893D02*
X334519303Y-210254894D01*
X343100902Y-212500000D02*
X359228592Y-212500000D01*
X361478592Y-214750000D02*
X375715000Y-214750000D01*
X335591951Y-208149022D02*
X342013319Y-208149023D01*
X380272393Y-214750000D02*
X394765000Y-214750000D01*
X344127615Y-210149019D02*
X344127619Y-210149023D01*
X344312754Y-210149019D02*
X360399021Y-210149021D01*
X344079550Y-210100958D02*
X344127611Y-210149019D01*
X343833599Y-209969303D02*
X343965255Y-210100959D01*
X335450271Y-208007342D02*
X335591951Y-208149022D01*
X394765000Y-214750000D02*
X395935000Y-215920000D01*
X343701937Y-209837641D02*
X343701937Y-209837646D01*
X362548044Y-212298044D02*
X377820437Y-212298044D01*
X360399021Y-210149021D02*
X362548044Y-212298044D01*
X343701937Y-209837646D02*
X343833599Y-209969303D01*
X344127611Y-210149019D02*
X344127615Y-210149019D01*
X342013319Y-208149023D02*
X343701937Y-209837641D01*
X329007342Y-208007342D02*
X335450271Y-208007342D01*
X344127619Y-210149023D02*
X344312754Y-210149019D01*
X377820437Y-212298044D02*
X380272393Y-214750000D01*
X321504511Y-200504511D02*
X329007342Y-208007342D01*
X312380000Y-181000000D02*
X313511370Y-181000000D01*
X343965255Y-210100959D02*
X344079550Y-210100958D01*
X321504511Y-188993141D02*
X321504511Y-200504511D01*
X313511370Y-181000000D02*
X321504511Y-188993141D01*
X209699510Y-214978372D02*
X209699511Y-256175509D01*
X219722500Y-266198498D02*
X219722500Y-282595000D01*
X209699511Y-256175509D02*
X219722500Y-266198498D01*
X192380000Y-193000000D02*
X192380000Y-197286474D01*
X209699511Y-214605985D02*
X209699510Y-214978372D01*
X192380000Y-197286474D02*
X209699511Y-214605985D01*
X335387499Y-287110999D02*
X335387499Y-287118266D01*
X329940479Y-261480067D02*
X335447501Y-266987089D01*
X309146486Y-210889227D02*
X313456787Y-215199528D01*
X339069032Y-219830247D02*
X339069031Y-227966673D01*
X335337979Y-293435479D02*
X343547500Y-301645000D01*
X335447634Y-218175969D02*
X337414754Y-218175969D01*
X278380000Y-202153818D02*
X287115409Y-210889227D01*
X332471200Y-215199535D02*
X335447634Y-218175969D01*
X335447501Y-266987089D02*
X335447501Y-287050997D01*
X337414754Y-218175969D02*
X339069032Y-219830247D01*
X313525839Y-215199534D02*
X332471200Y-215199535D01*
X329940479Y-237095225D02*
X329940479Y-261480067D01*
X287115409Y-210889227D02*
X309146486Y-210889227D01*
X335447501Y-287050997D02*
X335387499Y-287110999D01*
X313525833Y-215199528D02*
X313525839Y-215199534D01*
X278380000Y-197000000D02*
X278380000Y-202153818D01*
X335387499Y-287118266D02*
X335337979Y-287167786D01*
X335337979Y-287167786D02*
X335337979Y-293435479D01*
X339069031Y-227966673D02*
X329940479Y-237095225D01*
X313456787Y-215199528D02*
X313525833Y-215199528D01*
X228949510Y-218029754D02*
X228949511Y-256375509D01*
X235250000Y-268185998D02*
X235250000Y-279072500D01*
X235250000Y-279072500D02*
X238772500Y-282595000D01*
X221484116Y-213594978D02*
X225541802Y-213594979D01*
X228694292Y-217401442D02*
X228694292Y-217402148D01*
X235985999Y-267449999D02*
X235250000Y-268185998D01*
X228949511Y-256375509D02*
X235985999Y-263411997D01*
X206380000Y-193000000D02*
X206380000Y-198490861D01*
X228949511Y-217657367D02*
X228949510Y-218029754D01*
X226810022Y-214863199D02*
X226810022Y-215517172D01*
X225541802Y-213594979D02*
X226810022Y-214863199D01*
X226810022Y-215517172D02*
X228694292Y-217401442D01*
X206380000Y-198490861D02*
X221484116Y-213594978D01*
X228694292Y-217402148D02*
X228949511Y-217657367D01*
X235985999Y-263411997D02*
X235985999Y-267449999D01*
X253449510Y-219813806D02*
X253449510Y-226086194D01*
X253049511Y-261459334D02*
X257822500Y-266232323D01*
X238946763Y-216100979D02*
X249736684Y-216100980D01*
X249736684Y-216100980D02*
X253449510Y-219813806D01*
X253449510Y-226086194D02*
X253049511Y-226486193D01*
X220380000Y-193000000D02*
X220380000Y-197534216D01*
X253049511Y-226486193D02*
X253049511Y-261459334D01*
X257822500Y-266232323D02*
X257822500Y-282595000D01*
X220380000Y-197534216D02*
X238946763Y-216100979D01*
X403000000Y-211750000D02*
X436642064Y-211750000D01*
X356380000Y-185000000D02*
X356380000Y-192380000D01*
X440500000Y-216364296D02*
X438764448Y-218099848D01*
X440500000Y-215607936D02*
X440500000Y-216364296D01*
X365500000Y-206500000D02*
X380250000Y-206500000D01*
X358000000Y-194000000D02*
X358000000Y-202750000D01*
X363250000Y-204250000D02*
X365500000Y-206500000D01*
X400000000Y-208750000D02*
X403000000Y-211750000D01*
X380250000Y-206500000D02*
X382500000Y-208750000D01*
X359500000Y-204250000D02*
X363250000Y-204250000D01*
X438764448Y-218099848D02*
X438764449Y-244461949D01*
X356380000Y-192380000D02*
X358000000Y-194000000D01*
X382500000Y-208750000D02*
X400000000Y-208750000D01*
X438764449Y-244461949D02*
X438797500Y-244495000D01*
X436642064Y-211750000D02*
X440500000Y-215607936D01*
X358000000Y-202750000D02*
X359500000Y-204250000D01*
X291576448Y-221879607D02*
X296000000Y-226303159D01*
X246380000Y-196037111D02*
X264386886Y-214043997D01*
X296000000Y-240864296D02*
X290500000Y-246364296D01*
X264386886Y-214043997D02*
X272979409Y-214043997D01*
X287478081Y-216500000D02*
X291576448Y-220598367D01*
X290500000Y-262885000D02*
X291160000Y-263545000D01*
X275435412Y-216500000D02*
X287478081Y-216500000D01*
X246380000Y-189000000D02*
X246380000Y-196037111D01*
X272979409Y-214043997D02*
X275435412Y-216500000D01*
X291576448Y-220598367D02*
X291576448Y-221879607D01*
X296000000Y-226303159D02*
X296000000Y-240864296D01*
X290500000Y-246364296D02*
X290500000Y-262885000D01*
X379114296Y-209000000D02*
X364250000Y-209000000D01*
X342380000Y-191630000D02*
X342380000Y-185000000D01*
X419747500Y-244495000D02*
X419747500Y-243116140D01*
X344000000Y-193250000D02*
X342380000Y-191630000D01*
X421172011Y-216577989D02*
X421172011Y-215329947D01*
X398500000Y-211250000D02*
X381364297Y-211250000D01*
X362000000Y-206750000D02*
X345750000Y-206750000D01*
X419747500Y-243116140D02*
X419714448Y-243083088D01*
X344000000Y-205000000D02*
X344000000Y-193250000D01*
X421172011Y-215329947D02*
X420092064Y-214250000D01*
X419714448Y-218035552D02*
X421172011Y-216577989D01*
X364250000Y-209000000D02*
X362000000Y-206750000D01*
X419714448Y-243083088D02*
X419714448Y-218035552D01*
X345750000Y-206750000D02*
X344000000Y-205000000D01*
X381364297Y-211250000D02*
X379114296Y-209000000D01*
X401500000Y-214250000D02*
X398500000Y-211250000D01*
X420092064Y-214250000D02*
X401500000Y-214250000D01*
X256959276Y-213594980D02*
X259500763Y-216136467D01*
X259500763Y-216136467D02*
X268700254Y-216136469D01*
X234380000Y-199901412D02*
X247856201Y-213377613D01*
X272750000Y-220186215D02*
X272750000Y-248472561D01*
X272340969Y-261666967D02*
X276872500Y-266198498D01*
X276872500Y-266198498D02*
X276872500Y-282595000D01*
X272340969Y-248881592D02*
X272340969Y-261666967D01*
X247856201Y-213377613D02*
X247865583Y-213377613D01*
X248082950Y-213594980D02*
X256959276Y-213594980D01*
X272750000Y-248472561D02*
X272340969Y-248881592D01*
X247865583Y-213377613D02*
X248082950Y-213594980D01*
X268700254Y-216136469D02*
X272750000Y-220186215D01*
X234380000Y-193000000D02*
X234380000Y-199901412D01*
X290103199Y-213594977D02*
X304844977Y-213594977D01*
X305004048Y-213732640D02*
X310949511Y-219678103D01*
X304872390Y-213600980D02*
X305004048Y-213732640D01*
X304850980Y-213600980D02*
X304872390Y-213600980D01*
X310949511Y-219678103D02*
X310949510Y-226186194D01*
X262380000Y-199305102D02*
X276679164Y-213604266D01*
X310949510Y-226186194D02*
X310049511Y-227086193D01*
X310049511Y-227086193D02*
X310049511Y-257500001D01*
X304844977Y-213594977D02*
X304850980Y-213600980D01*
X310049511Y-257500001D02*
X314972500Y-262422990D01*
X262380000Y-193000000D02*
X262380000Y-199305102D01*
X290093910Y-213604266D02*
X290103199Y-213594977D01*
X314972500Y-262422990D02*
X314972500Y-282595000D01*
X276679164Y-213604266D02*
X290093910Y-213604266D01*
X119350979Y-201888983D02*
X119350979Y-297984474D01*
X119350979Y-297984474D02*
X119491458Y-298124953D01*
X120380000Y-200859962D02*
X119350979Y-201888983D01*
X120380000Y-189000000D02*
X120380000Y-200859962D01*
X119491458Y-298171620D02*
X140319838Y-319000000D01*
X140319838Y-319000000D02*
X141500000Y-319000000D01*
X119491458Y-298124953D02*
X119491458Y-298171620D01*
X289750000Y-205907111D02*
X293382084Y-209539196D01*
X347210001Y-262445001D02*
X348310000Y-263545000D01*
X287580001Y-191919999D02*
X289750000Y-194089998D01*
X358000000Y-220000000D02*
X358000000Y-227600000D01*
X287580001Y-189799999D02*
X287580001Y-191919999D01*
X354250000Y-216250000D02*
X358000000Y-220000000D01*
X339561253Y-214045985D02*
X341765268Y-216250000D01*
X333029782Y-213851005D02*
X333224762Y-214045985D01*
X309703567Y-209539196D02*
X313752037Y-213587665D01*
X289750000Y-194089998D02*
X289750000Y-205907111D01*
X341765268Y-216250000D02*
X354250000Y-216250000D01*
X314101001Y-213851001D02*
X333029782Y-213851005D01*
X288380000Y-189000000D02*
X287580001Y-189799999D01*
X293382084Y-209539196D02*
X309703567Y-209539196D01*
X333224762Y-214045985D02*
X339561253Y-214045985D01*
X313752037Y-213587665D02*
X313752037Y-213587671D01*
X313752037Y-213587671D02*
X313883026Y-213718654D01*
X358000000Y-227600000D02*
X347210001Y-238389999D01*
X314015355Y-213850983D02*
X314015361Y-213850983D01*
X347210001Y-238389999D02*
X347210001Y-262445001D01*
X313883026Y-213718654D02*
X314015355Y-213850983D01*
X314015361Y-213850983D02*
X314100981Y-213850981D01*
X314100981Y-213850981D02*
X314101001Y-213851001D01*
X116380000Y-185380000D02*
X118451949Y-187451949D01*
X131616250Y-311616250D02*
X131616250Y-320695000D01*
X118451949Y-187451949D02*
X118451949Y-298451949D01*
X116380000Y-181000000D02*
X116380000Y-185380000D01*
X118451949Y-298451949D02*
X131616250Y-311616250D01*
X363268208Y-210903912D02*
X378468151Y-210903912D01*
X361125000Y-208760704D02*
X363268208Y-210903912D01*
X342750000Y-206750000D02*
X344760703Y-208760703D01*
X336521408Y-206750000D02*
X342750000Y-206750000D01*
X331000000Y-195500000D02*
X331000000Y-201228592D01*
X331000000Y-201228592D02*
X336521408Y-206750000D01*
X330380000Y-194880000D02*
X331000000Y-195500000D01*
X380814224Y-213250000D02*
X397750000Y-213250000D01*
X380010940Y-212446701D02*
X380010940Y-212446716D01*
X380010940Y-212446716D02*
X380814224Y-213250000D01*
X330380000Y-189000000D02*
X330380000Y-194880000D01*
X402000000Y-217500000D02*
X402000000Y-314000000D01*
X402000000Y-314000000D02*
X408750000Y-320750000D01*
X408750000Y-320750000D02*
X409000000Y-320750000D01*
X397750000Y-213250000D02*
X402000000Y-217500000D01*
X344760703Y-208760703D02*
X361125000Y-208760704D01*
X378468151Y-210903912D02*
X380010940Y-212446701D01*
X141141250Y-276230946D02*
X141141250Y-301645000D01*
X138750000Y-197370000D02*
X138750000Y-273839696D01*
X138380000Y-197000000D02*
X138750000Y-197370000D01*
X138750000Y-273839696D02*
X141141250Y-276230946D01*
X118901468Y-185521468D02*
X118901469Y-298170668D01*
X118901469Y-298170668D02*
X119041947Y-298311146D01*
X119041947Y-298311146D02*
X119041947Y-298374776D01*
X118380000Y-185000000D02*
X118901468Y-185521468D01*
X141100001Y-320100001D02*
X141500000Y-320500000D01*
X119041947Y-298374776D02*
X140767172Y-320100001D01*
X140767172Y-320100001D02*
X141100001Y-320100001D01*
X272790480Y-261480068D02*
X278297011Y-266986599D01*
X278297011Y-283185053D02*
X286397500Y-291285542D01*
X259655376Y-215655376D02*
X268854865Y-215655376D01*
X272790480Y-249067787D02*
X272790480Y-261480068D01*
X236380000Y-201265704D02*
X248042398Y-212928102D01*
X273250000Y-220050511D02*
X273250000Y-248608267D01*
X278297011Y-266986599D02*
X278297011Y-283185053D01*
X286397500Y-291285542D02*
X286397500Y-301645000D01*
X268854865Y-215655376D02*
X273250000Y-220050511D01*
X273250000Y-248608267D02*
X272790480Y-249067787D01*
X248042398Y-212928102D02*
X256928103Y-212928103D01*
X256928103Y-212928103D02*
X259655376Y-215655376D01*
X236380000Y-197000000D02*
X236380000Y-201265704D01*
X327179999Y-181799999D02*
X327179999Y-193054999D01*
X380408097Y-214250000D02*
X397250000Y-214250000D01*
X344217951Y-209558708D02*
X344499549Y-209699508D01*
X344217940Y-209558707D02*
X344217951Y-209558708D01*
X327179999Y-193054999D02*
X329950000Y-195825000D01*
X401000000Y-218000000D02*
X401000000Y-292525000D01*
X362848533Y-211848533D02*
X378006631Y-211848534D01*
X397250000Y-214250000D02*
X401000000Y-218000000D01*
X345065512Y-209699508D02*
X360699511Y-209699511D01*
X344111650Y-209594138D02*
X344217940Y-209558707D01*
X343923556Y-209423556D02*
X343972676Y-209433380D01*
X344499549Y-209699508D02*
X345065512Y-209699508D01*
X372830000Y-320695000D02*
X369741250Y-320695000D01*
X378006631Y-211848534D02*
X380408097Y-214250000D01*
X326380000Y-181000000D02*
X327179999Y-181799999D01*
X343972676Y-209433380D02*
X344026087Y-209513497D01*
X344106204Y-209566908D02*
X344111650Y-209594138D01*
X329950000Y-195825000D02*
X329950000Y-201700000D01*
X335949513Y-207699513D02*
X342199513Y-207699513D01*
X360699511Y-209699511D02*
X362848533Y-211848533D01*
X344026087Y-209513497D02*
X344106204Y-209566908D01*
X329950000Y-201700000D02*
X335949513Y-207699513D01*
X342199513Y-207699513D02*
X343923556Y-209423556D01*
X401000000Y-292525000D02*
X372830000Y-320695000D01*
X239258903Y-215508903D02*
X249780311Y-215508903D01*
X249780311Y-215508903D02*
X253899021Y-219627613D01*
X222380000Y-197000000D02*
X222380000Y-198822845D01*
X253899021Y-219627613D02*
X253899020Y-226272388D01*
X253899020Y-226272388D02*
X253499022Y-226672386D01*
X259949511Y-286356254D02*
X259137979Y-287167786D01*
X239006666Y-215449511D02*
X239199510Y-215449510D01*
X253499022Y-261261831D02*
X259949511Y-267712320D01*
X259137979Y-287167786D02*
X259137979Y-293435479D01*
X253499022Y-226672386D02*
X253499022Y-261261831D01*
X239199510Y-215449510D02*
X239258903Y-215508903D01*
X259137979Y-293435479D02*
X267347500Y-301645000D01*
X222380000Y-198822845D02*
X239006666Y-215449511D01*
X259949511Y-267712320D02*
X259949511Y-286356254D01*
X310500000Y-219864296D02*
X310500000Y-226000000D01*
X260380000Y-197942217D02*
X276492060Y-214054277D01*
X309600000Y-262935000D02*
X310210000Y-263545000D01*
X304686194Y-214050490D02*
X310500000Y-219864296D01*
X290289599Y-214044988D02*
X304544988Y-214044988D01*
X309600000Y-226900000D02*
X309600000Y-262935000D01*
X310500000Y-226000000D02*
X309600000Y-226900000D01*
X260380000Y-189000000D02*
X260380000Y-197942217D01*
X304544988Y-214044988D02*
X304550489Y-214050489D01*
X290280310Y-214054277D02*
X290289599Y-214044988D01*
X276492060Y-214054277D02*
X290280310Y-214054277D01*
X304550489Y-214050489D02*
X304686194Y-214050490D01*
X368380000Y-181000000D02*
X368380000Y-190630000D01*
X371500000Y-202750000D02*
X373250000Y-204500000D01*
X437184880Y-209750000D02*
X443354880Y-215920000D01*
X401000000Y-206750000D02*
X404000000Y-209750000D01*
X404000000Y-209750000D02*
X437184880Y-209750000D01*
X371500000Y-193750000D02*
X371500000Y-202750000D01*
X373250000Y-204500000D02*
X381250000Y-204500000D01*
X383500000Y-206750000D02*
X401000000Y-206750000D01*
X368380000Y-190630000D02*
X371500000Y-193750000D01*
X381250000Y-204500000D02*
X383500000Y-206750000D01*
X443354880Y-215920000D02*
X457847500Y-215920000D01*
X276855568Y-213144966D02*
X305052066Y-213144966D01*
X311399022Y-219491910D02*
X311399020Y-226372388D01*
X264380000Y-197000000D02*
X264380000Y-200669398D01*
X305453549Y-213546449D02*
X305453560Y-213546449D01*
X316397501Y-287058264D02*
X316287979Y-287167786D01*
X316397501Y-263211580D02*
X316397501Y-287058264D01*
X305453560Y-213546449D02*
X311399022Y-219491910D01*
X264380000Y-200669398D02*
X276855568Y-213144966D01*
X310890479Y-257704557D02*
X316397501Y-263211580D01*
X310890479Y-226880929D02*
X310890479Y-257704557D01*
X305052066Y-213144966D02*
X305453549Y-213546449D01*
X316287979Y-287167786D02*
X316287979Y-293435479D01*
X316287979Y-293435479D02*
X324497500Y-301645000D01*
X311399020Y-226372388D02*
X310890479Y-226880929D01*
X372500000Y-202250000D02*
X373750000Y-203500000D01*
X401500000Y-205750000D02*
X404500000Y-208750000D01*
X384000000Y-205750000D02*
X401500000Y-205750000D01*
X459721522Y-217028478D02*
X458131533Y-218618467D01*
X458327769Y-213750001D02*
X459721522Y-215143754D01*
X458550489Y-245806575D02*
X458550489Y-248408868D01*
X442456289Y-213750001D02*
X458327769Y-213750001D01*
X458550489Y-248408868D02*
X457847500Y-249111857D01*
X459272011Y-245085053D02*
X458550489Y-245806575D01*
X404500000Y-208750000D02*
X437456288Y-208750000D01*
X459721522Y-215143754D02*
X459721522Y-217028478D01*
X458131533Y-218618467D02*
X458131534Y-242631534D01*
X372380000Y-189000000D02*
X372500000Y-189120000D01*
X459272011Y-243772011D02*
X459272011Y-245085053D01*
X372500000Y-189120000D02*
X372500000Y-202250000D01*
X381750000Y-203500000D02*
X384000000Y-205750000D01*
X457847500Y-249111857D02*
X457847500Y-263545000D01*
X437456288Y-208750000D02*
X442456289Y-213750001D01*
X373750000Y-203500000D02*
X381750000Y-203500000D01*
X458131534Y-242631534D02*
X459272011Y-243772011D01*
X373500000Y-204000000D02*
X381500000Y-204000000D01*
X437320584Y-209250000D02*
X442270096Y-214199512D01*
X372000000Y-202500000D02*
X373500000Y-204000000D01*
X404250000Y-209250000D02*
X437320584Y-209250000D01*
X370380000Y-185000000D02*
X370380000Y-191880000D01*
X458141575Y-214199511D02*
X459272011Y-215329947D01*
X383750000Y-206250000D02*
X401250000Y-206250000D01*
X381500000Y-204000000D02*
X383750000Y-206250000D01*
X459272011Y-216706581D02*
X457864297Y-218114295D01*
X372000000Y-193500000D02*
X372000000Y-202500000D01*
X457682022Y-218246080D02*
X457682022Y-244329522D01*
X457813807Y-218114295D02*
X457682022Y-218246080D01*
X442270096Y-214199512D02*
X458141575Y-214199511D01*
X370380000Y-191880000D02*
X372000000Y-193500000D01*
X457682022Y-244329522D02*
X457847500Y-244495000D01*
X401250000Y-206250000D02*
X404250000Y-209250000D01*
X459272011Y-215329947D02*
X459272011Y-216706581D01*
X457864297Y-218114295D02*
X457813807Y-218114295D01*
X398271408Y-211750000D02*
X401271408Y-214750000D01*
X361750000Y-207250000D02*
X364000000Y-209500000D01*
X340380000Y-190380000D02*
X343500000Y-193500000D01*
X343500000Y-205250000D02*
X345500000Y-207250000D01*
X381228592Y-211750000D02*
X398271408Y-211750000D01*
X345500000Y-207250000D02*
X361750000Y-207250000D01*
X343500000Y-193500000D02*
X343500000Y-205250000D01*
X378978592Y-209500000D02*
X381228592Y-211750000D01*
X340380000Y-181000000D02*
X340380000Y-190380000D01*
X418577500Y-214750000D02*
X419747500Y-215920000D01*
X364000000Y-209500000D02*
X378978592Y-209500000D01*
X401271408Y-214750000D02*
X418577500Y-214750000D01*
X148380000Y-195922178D02*
X154033820Y-201575998D01*
X154033820Y-259768820D02*
X157810000Y-263545000D01*
X148380000Y-189000000D02*
X148380000Y-195922178D01*
X154033820Y-201575998D02*
X154033820Y-259768820D01*
X309889262Y-209089187D02*
X314201544Y-213401468D01*
X348449511Y-261575509D02*
X353072500Y-266198498D01*
X348449511Y-237850489D02*
X348449511Y-261575509D01*
X314287164Y-213401466D02*
X314287168Y-213401470D01*
X358500000Y-219750000D02*
X358500000Y-227800000D01*
X293567779Y-209089187D02*
X309889262Y-209089187D01*
X339747447Y-213596475D02*
X341900972Y-215750000D01*
X314337247Y-213401470D02*
X314337267Y-213401490D01*
X314201544Y-213401468D02*
X314287164Y-213401466D01*
X290250000Y-205771408D02*
X293567779Y-209089187D01*
X314287168Y-213401470D02*
X314337247Y-213401470D01*
X341900972Y-215750000D02*
X354500000Y-215750000D01*
X333410955Y-213596474D02*
X339747447Y-213596475D01*
X333215976Y-213401495D02*
X333410955Y-213596474D01*
X314337267Y-213401490D02*
X315857058Y-213401490D01*
X353072500Y-266198498D02*
X353072500Y-282595000D01*
X290380000Y-193000000D02*
X290250000Y-193130000D01*
X315857058Y-213401490D02*
X333215976Y-213401495D01*
X290250000Y-193130000D02*
X290250000Y-205771408D01*
X354500000Y-215750000D02*
X358500000Y-219750000D01*
X358500000Y-227800000D02*
X348449511Y-237850489D01*
X209199521Y-214741699D02*
X209199521Y-257784521D01*
X190000000Y-190840783D02*
X190000000Y-195542178D01*
X190380000Y-190460783D02*
X190000000Y-190840783D01*
X190000000Y-195542178D02*
X209199521Y-214741699D01*
X209199521Y-257784521D02*
X214960000Y-263545000D01*
X190380000Y-189000000D02*
X190380000Y-190460783D01*
X302380000Y-199037111D02*
X314946313Y-211603424D01*
X334155728Y-211798431D02*
X340492220Y-211798432D01*
X357186408Y-214000000D02*
X358736682Y-214000000D01*
X357037388Y-213850980D02*
X357186408Y-214000000D01*
X371970479Y-219779521D02*
X371970479Y-231029521D01*
X314946313Y-211603424D02*
X333960721Y-211603424D01*
X333960721Y-211603424D02*
X334155728Y-211798431D01*
X302380000Y-189000000D02*
X302380000Y-199037111D01*
X371970479Y-231029521D02*
X367360000Y-235640000D01*
X360986682Y-216250000D02*
X372750000Y-216250000D01*
X340492220Y-211798432D02*
X342544766Y-213850978D01*
X342544766Y-213850978D02*
X357037388Y-213850980D01*
X373250000Y-216750000D02*
X373250000Y-218500000D01*
X358736682Y-214000000D02*
X360986682Y-216250000D01*
X367360000Y-235640000D02*
X367360000Y-263545000D01*
X373250000Y-218500000D02*
X371970479Y-219779521D01*
X372750000Y-216250000D02*
X373250000Y-216750000D01*
X330500000Y-201500000D02*
X336250000Y-207250000D01*
X342500000Y-207250000D02*
X344371282Y-209121282D01*
X328380000Y-193530000D02*
X330475000Y-195625000D01*
X363082016Y-211353423D02*
X378196311Y-211353423D01*
X336250000Y-207250000D02*
X342500000Y-207250000D01*
X378196311Y-211353423D02*
X380592888Y-213750000D01*
X360938806Y-209210214D02*
X363082016Y-211353423D01*
X380592888Y-213750000D02*
X397500000Y-213750000D01*
X328380000Y-185000000D02*
X328380000Y-193530000D01*
X330475000Y-195625000D02*
X330475000Y-199925000D01*
X344371282Y-209121282D02*
X344444076Y-209127900D01*
X397500000Y-213750000D02*
X401500000Y-217750000D01*
X344526099Y-209210214D02*
X360938806Y-209210214D01*
X344503080Y-209198704D02*
X344526099Y-209210214D01*
X330475000Y-199925000D02*
X330500000Y-199950000D01*
X401500000Y-217750000D02*
X401500000Y-312748750D01*
X401500000Y-312748750D02*
X393553750Y-320695000D01*
X330500000Y-199950000D02*
X330500000Y-201500000D01*
X344444076Y-209127900D02*
X344503080Y-209198704D01*
X409000000Y-317500000D02*
X408000000Y-317500000D01*
X345250000Y-207750000D02*
X343250000Y-205750000D01*
X402949511Y-217063807D02*
X398186194Y-212300490D01*
X378840539Y-210004892D02*
X378754891Y-210004891D01*
X380383348Y-211547688D02*
X380383341Y-211547688D01*
X337000000Y-205750000D02*
X334380000Y-203130000D01*
X380646654Y-211810994D02*
X380383348Y-211547688D01*
X398050489Y-212300489D02*
X398000000Y-212250000D01*
X398000000Y-212250000D02*
X381085646Y-212249999D01*
X378750000Y-210000000D02*
X363750000Y-210000000D01*
X378754891Y-210004891D02*
X378750000Y-210000000D01*
X361500000Y-207750000D02*
X345250000Y-207750000D01*
X334380000Y-203130000D02*
X334380000Y-197000000D01*
X408000000Y-317500000D02*
X402949511Y-312449511D01*
X380383330Y-211547683D02*
X378840539Y-210004892D01*
X402949511Y-312449511D02*
X402949511Y-217063807D01*
X398186194Y-212300490D02*
X398050489Y-212300489D01*
X380383336Y-211547683D02*
X380383330Y-211547683D01*
X343250000Y-205750000D02*
X337000000Y-205750000D01*
X381085646Y-212249999D02*
X380646654Y-211811006D01*
X380383341Y-211547688D02*
X380383336Y-211547683D01*
X363750000Y-210000000D02*
X361500000Y-207750000D01*
X380646654Y-211811006D02*
X380646654Y-211810994D01*
X328262570Y-209805386D02*
X334705497Y-209805384D01*
X320380000Y-189409700D02*
X314845789Y-183875489D01*
X334705497Y-209805384D02*
X334900492Y-210000379D01*
X359414789Y-212050480D02*
X359678112Y-212313803D01*
X320380000Y-197000000D02*
X320380000Y-189409700D01*
X343850020Y-212050480D02*
X344001460Y-212000000D01*
X359678112Y-212313816D02*
X361637832Y-214273536D01*
X361637832Y-214273536D02*
X377253100Y-214273536D01*
X315250000Y-196792815D02*
X328262570Y-209805386D01*
X343236608Y-212000000D02*
X343728950Y-212000000D01*
X334900492Y-210000379D02*
X341236987Y-210000379D01*
X359414776Y-212050480D02*
X359414789Y-212050480D01*
X375184229Y-286951475D02*
X375184229Y-297562979D01*
X344001460Y-212000000D02*
X359364296Y-212000000D01*
X313914211Y-183875489D02*
X313255489Y-184534211D01*
X359364296Y-212000000D02*
X359414776Y-212050480D01*
X377253100Y-214273536D02*
X378309511Y-215329947D01*
X315250000Y-196000978D02*
X315250000Y-196792815D01*
X375199451Y-241901128D02*
X375199451Y-286936253D01*
X313255489Y-184534211D02*
X313255489Y-194006467D01*
X375184229Y-297562979D02*
X379266250Y-301645000D01*
X343829910Y-212050480D02*
X343850020Y-212050480D01*
X343728950Y-212000000D02*
X343829910Y-212050480D01*
X374500000Y-230800000D02*
X374500000Y-241201677D01*
X375199451Y-286936253D02*
X375184229Y-286951475D01*
X377565479Y-219184521D02*
X377565479Y-219590990D01*
X378309511Y-215329947D02*
X378309511Y-218440489D01*
X374500000Y-241201677D02*
X375199451Y-241901128D01*
X377618538Y-227681462D02*
X374500000Y-230800000D01*
X313255489Y-194006467D02*
X315250000Y-196000978D01*
X377618538Y-219644049D02*
X377618538Y-227681462D01*
X341236987Y-210000379D02*
X343236608Y-212000000D01*
X359678112Y-212313803D02*
X359678112Y-212313816D01*
X314845789Y-183875489D02*
X313914211Y-183875489D01*
X378309511Y-218440489D02*
X377565479Y-219184521D01*
X377565479Y-219590990D02*
X377618538Y-219644049D01*
X182169628Y-266745626D02*
X182169628Y-266747170D01*
X182610669Y-280051197D02*
X181622500Y-281039366D01*
X165930490Y-210316194D02*
X172950011Y-217335715D01*
X172950011Y-217335715D02*
X172950011Y-257526009D01*
X172950011Y-257526009D02*
X182169628Y-266745626D01*
X164380000Y-193000000D02*
X164380000Y-197295772D01*
X181622500Y-281039366D02*
X181622500Y-282595000D01*
X182610669Y-267188210D02*
X182610669Y-280051197D01*
X164380000Y-197295772D02*
X165930490Y-198846262D01*
X165930490Y-198846262D02*
X165930490Y-210316194D01*
X182169628Y-266747170D02*
X182610669Y-267188210D01*
X313270600Y-215649045D02*
X332285006Y-215649045D01*
X338619521Y-227780479D02*
X329490959Y-236909041D01*
X276380000Y-200790229D02*
X286929009Y-211339238D01*
X332285006Y-215649045D02*
X335261441Y-218625480D01*
X276380000Y-193000000D02*
X276380000Y-200790229D01*
X337228560Y-218625479D02*
X338619521Y-220016440D01*
X308960793Y-211339238D02*
X313270600Y-215649045D01*
X338619521Y-220016440D02*
X338619521Y-227780479D01*
X286929009Y-211339238D02*
X308960793Y-211339238D01*
X334022500Y-266198498D02*
X334022500Y-282595000D01*
X329490959Y-261666957D02*
X334022500Y-266198498D01*
X335261441Y-218625480D02*
X337228560Y-218625479D01*
X329490959Y-236909041D02*
X329490959Y-261666957D01*
X357500000Y-194250000D02*
X357500000Y-203000000D01*
X365250000Y-207000000D02*
X380000000Y-207000000D01*
X357500000Y-203000000D02*
X359250000Y-204750000D01*
X363000000Y-204750000D02*
X365250000Y-207000000D01*
X402750000Y-212250000D02*
X420750000Y-212250000D01*
X380000000Y-207000000D02*
X382250000Y-209250000D01*
X420750000Y-212250000D02*
X424420000Y-215920000D01*
X359250000Y-204750000D02*
X363000000Y-204750000D01*
X354380000Y-181000000D02*
X354380000Y-191130000D01*
X424420000Y-215920000D02*
X438797500Y-215920000D01*
X354380000Y-191130000D02*
X357500000Y-194250000D01*
X399750000Y-209250000D02*
X402750000Y-212250000D01*
X382250000Y-209250000D02*
X399750000Y-209250000D01*
X124380000Y-197000000D02*
X124380000Y-198131370D01*
X124380000Y-198131370D02*
X120250000Y-202261370D01*
X139606241Y-316968328D02*
X141518939Y-316968328D01*
X120250000Y-202261370D02*
X120250000Y-297612087D01*
X120250000Y-297612087D02*
X139606241Y-316968328D01*
X226360012Y-215703572D02*
X228500000Y-217843560D01*
X221297716Y-214044988D02*
X225355401Y-214044988D01*
X204775691Y-197522962D02*
X221297716Y-214044988D01*
X228500000Y-217843560D02*
X228500000Y-258035000D01*
X204380000Y-190131370D02*
X204775691Y-190527061D01*
X204775691Y-190527061D02*
X204775691Y-197522962D01*
X226360012Y-215049599D02*
X226360012Y-215703572D01*
X228500000Y-258035000D02*
X234010000Y-263545000D01*
X204380000Y-189000000D02*
X204380000Y-190131370D01*
X225355401Y-214044988D02*
X226360012Y-215049599D01*
X134380000Y-191380000D02*
X135000000Y-192000000D01*
X135000000Y-202478592D02*
X137750000Y-205228592D01*
X134380000Y-189000000D02*
X134380000Y-191380000D01*
X137750000Y-259792500D02*
X133997500Y-263545000D01*
X135000000Y-192000000D02*
X135000000Y-202478592D01*
X137750000Y-205228592D02*
X137750000Y-259792500D01*
X232380000Y-198537116D02*
X247670028Y-213827144D01*
X247678704Y-213827144D02*
X247896549Y-214044989D01*
X232380000Y-189000000D02*
X232380000Y-198537116D01*
X259314570Y-216585978D02*
X268514060Y-216585979D01*
X272250000Y-248336858D02*
X271891457Y-248695401D01*
X247670028Y-213827144D02*
X247678704Y-213827144D01*
X271891457Y-263326457D02*
X272110000Y-263545000D01*
X256773581Y-214044989D02*
X259314570Y-216585978D01*
X268514060Y-216585979D02*
X272250000Y-220321919D01*
X247896549Y-214044989D02*
X256773581Y-214044989D01*
X272250000Y-220321919D02*
X272250000Y-248336858D01*
X271891457Y-248695401D02*
X271891457Y-263326457D01*
X359500000Y-199880000D02*
X359500000Y-202000000D01*
X440750000Y-267480765D02*
X440112979Y-268117786D01*
X360250000Y-202750000D02*
X364000000Y-202750000D01*
X440112979Y-242524493D02*
X441121042Y-243532557D01*
X437049176Y-210250000D02*
X442000000Y-215200824D01*
X364000000Y-202750000D02*
X366250000Y-205000000D01*
X440250000Y-282032936D02*
X440250000Y-286750000D01*
X441121042Y-245457430D02*
X440112979Y-246465493D01*
X366250000Y-205000000D02*
X381000000Y-205000000D01*
X359500000Y-202000000D02*
X360250000Y-202750000D01*
X442000000Y-217000000D02*
X440112979Y-218887021D01*
X440112979Y-218887021D02*
X440112979Y-242524493D01*
X440112979Y-268117786D02*
X440112979Y-281895915D01*
X442000000Y-215200824D02*
X442000000Y-217000000D01*
X383250000Y-207250000D02*
X400750000Y-207250000D01*
X362380000Y-197000000D02*
X359500000Y-199880000D01*
X440750000Y-252500000D02*
X440750000Y-267480765D01*
X440112979Y-246465493D02*
X440112979Y-251862979D01*
X440250000Y-286750000D02*
X438797500Y-288202500D01*
X441121042Y-243532557D02*
X441121042Y-245457430D01*
X438797500Y-288202500D02*
X438797500Y-301645000D01*
X403750000Y-210250000D02*
X437049176Y-210250000D01*
X440112979Y-251862979D02*
X440750000Y-252500000D01*
X440112979Y-281895915D02*
X440250000Y-282032936D01*
X381000000Y-205000000D02*
X383250000Y-207250000D01*
X400750000Y-207250000D02*
X403750000Y-210250000D01*
X221087499Y-287118266D02*
X221037979Y-287167786D01*
X221147501Y-283279001D02*
X221087499Y-283339003D01*
X221037979Y-287167786D02*
X221037979Y-293435479D01*
X221037979Y-293435479D02*
X229247500Y-301645000D01*
X194380000Y-197000000D02*
X210149022Y-212769022D01*
X221087499Y-283339003D02*
X221087499Y-287118266D01*
X221147501Y-266987089D02*
X221147501Y-283279001D01*
X210149022Y-212769022D02*
X210149022Y-255988610D01*
X210149022Y-255988610D02*
X221147501Y-266987089D01*
X165472182Y-210472182D02*
X165480980Y-210480980D01*
X172500000Y-217521408D02*
X172500000Y-259185000D01*
X165472182Y-199024364D02*
X165472182Y-210472182D01*
X162380000Y-195932182D02*
X165472182Y-199024364D01*
X165480980Y-210480980D02*
X165480980Y-210502388D01*
X162380000Y-189000000D02*
X162380000Y-195932182D01*
X165480980Y-210502388D02*
X172500000Y-217521408D01*
X172500000Y-259185000D02*
X176860000Y-263545000D01*
X183060179Y-266999767D02*
X183060179Y-280237391D01*
X183047501Y-280250069D02*
X183047501Y-287050997D01*
X173440916Y-217190916D02*
X173440916Y-257380504D01*
X182937979Y-293435479D02*
X191147500Y-301645000D01*
X166380000Y-210130000D02*
X173440916Y-217190916D01*
X183060179Y-280237391D02*
X183047501Y-280250069D01*
X173440916Y-257380504D02*
X183060179Y-266999767D01*
X182987499Y-287110999D02*
X182987499Y-287118266D01*
X182987499Y-287118266D02*
X182937979Y-287167786D01*
X166380000Y-197000000D02*
X166380000Y-210130000D01*
X182937979Y-287167786D02*
X182937979Y-293435479D01*
X183047501Y-287050997D02*
X182987499Y-287110999D01*
X249464059Y-216585978D02*
X253000000Y-220121919D01*
X253000000Y-220121919D02*
X253000000Y-225900000D01*
X252600000Y-263085000D02*
X253060000Y-263545000D01*
X252600000Y-226300000D02*
X252600000Y-263085000D01*
X253000000Y-225900000D02*
X252600000Y-226300000D01*
X238795352Y-216585978D02*
X249464059Y-216585978D01*
X218380000Y-196170626D02*
X238795352Y-216585978D01*
X218380000Y-189000000D02*
X218380000Y-196170626D01*
X163997501Y-283279001D02*
X163750000Y-283526502D01*
X163750000Y-293297500D02*
X172097500Y-301645000D01*
X155000000Y-257957366D02*
X163937499Y-266894865D01*
X163937499Y-266894865D02*
X163937499Y-281850997D01*
X152380000Y-197000000D02*
X155000000Y-199620000D01*
X163937499Y-281850997D02*
X163997501Y-281910999D01*
X163750000Y-283526502D02*
X163750000Y-293297500D01*
X155000000Y-199620000D02*
X155000000Y-257957366D01*
X163997501Y-281910999D02*
X163997501Y-283279001D01*
X453200000Y-196500000D02*
X449864022Y-193164022D01*
X418164022Y-193164022D02*
X405110000Y-180110000D01*
X449864022Y-193164022D02*
X418164022Y-193164022D01*
X454414511Y-192714511D02*
X422794511Y-192714511D01*
X458200000Y-196500000D02*
X454414511Y-192714511D01*
X422794511Y-192714511D02*
X410190000Y-180110000D01*
X142000000Y-180000000D02*
X143124511Y-181124511D01*
X143124511Y-191626467D02*
X141935000Y-192815978D01*
X151460000Y-280372500D02*
X156222500Y-285135000D01*
X141935000Y-192815978D02*
X141935000Y-218460000D01*
X165747500Y-307186735D02*
X149699235Y-323235000D01*
X151460000Y-266085000D02*
X151460000Y-280372500D01*
X156222500Y-285135000D02*
X156222500Y-294660000D01*
X165747500Y-304185000D02*
X165747500Y-307186735D01*
X149699235Y-323235000D02*
X149078750Y-323235000D01*
X141935000Y-247035000D02*
X141935000Y-256560000D01*
X143124511Y-181124511D02*
X143124511Y-191626467D01*
X141935000Y-218460000D02*
X141935000Y-247035000D01*
X156222500Y-294660000D02*
X165747500Y-304185000D01*
X141935000Y-256560000D02*
X151460000Y-266085000D01*
X127647500Y-282753750D02*
X127647500Y-266085000D01*
X122885000Y-261322500D02*
X122885000Y-247035000D01*
X134791250Y-304185000D02*
X128525499Y-297919249D01*
X130028750Y-291335546D02*
X130028750Y-285135000D01*
X130028750Y-285135000D02*
X127647500Y-282753750D01*
X127647500Y-266085000D02*
X122885000Y-261322500D01*
X128525499Y-292838797D02*
X130028750Y-291335546D01*
X128525499Y-297919249D02*
X128525499Y-292838797D01*
X122885000Y-247035000D02*
X122885000Y-218460000D01*
X184797500Y-311328750D02*
X184797500Y-304185000D01*
X170510000Y-280372500D02*
X170510000Y-266085000D01*
X175272500Y-285135000D02*
X170510000Y-280372500D01*
X172891250Y-323235000D02*
X184797500Y-311328750D01*
X170510000Y-266085000D02*
X160985000Y-256560000D01*
X184797500Y-304185000D02*
X175272500Y-294660000D01*
X175272500Y-294660000D02*
X175272500Y-285135000D01*
X160985000Y-256560000D02*
X160985000Y-247035000D01*
X160985000Y-247035000D02*
X160985000Y-218460000D01*
X194322500Y-292822500D02*
X203847500Y-302347500D01*
X180035000Y-247035000D02*
X180035000Y-256560000D01*
X203847500Y-302347500D02*
X203847500Y-304185000D01*
X180035000Y-218460000D02*
X180035000Y-247035000D01*
X189560000Y-266085000D02*
X189560000Y-280372500D01*
X180035000Y-256560000D02*
X189560000Y-266085000D01*
X189560000Y-280372500D02*
X194322500Y-285135000D01*
X194322500Y-285135000D02*
X194322500Y-292822500D01*
X198623265Y-218460000D02*
X199085000Y-218460000D01*
X197500000Y-245450000D02*
X197500000Y-222416735D01*
X196590479Y-220492786D02*
X198623265Y-218460000D01*
X197500000Y-222416735D02*
X196590479Y-221507214D01*
X199085000Y-247035000D02*
X197500000Y-245450000D01*
X208610000Y-280372500D02*
X208610000Y-266085000D01*
X199085000Y-256560000D02*
X199085000Y-247035000D01*
X222897500Y-308121884D02*
X222897500Y-304185000D01*
X207784384Y-323235000D02*
X222897500Y-308121884D01*
X222897500Y-304185000D02*
X213372500Y-294660000D01*
X213372500Y-285135000D02*
X208610000Y-280372500D01*
X208610000Y-266085000D02*
X199085000Y-256560000D01*
X196590479Y-221507214D02*
X196590479Y-220492786D01*
X213372500Y-294660000D02*
X213372500Y-285135000D01*
X206228750Y-323235000D02*
X207784384Y-323235000D01*
X218135000Y-254435000D02*
X227660000Y-263960000D01*
X227660000Y-263960000D02*
X227660000Y-266085000D01*
X232422500Y-285135000D02*
X232422500Y-294660000D01*
X218135000Y-247035000D02*
X218135000Y-254435000D01*
X227660000Y-266085000D02*
X227660000Y-280372500D01*
X241947500Y-320853750D02*
X244328750Y-323235000D01*
X241947500Y-304185000D02*
X241947500Y-320853750D01*
X218135000Y-218460000D02*
X218135000Y-247035000D01*
X227660000Y-280372500D02*
X232422500Y-285135000D01*
X232422500Y-294660000D02*
X241947500Y-304185000D01*
X251472500Y-285135000D02*
X251472500Y-292772500D01*
X260997500Y-302297500D02*
X260997500Y-304185000D01*
X237185000Y-256560000D02*
X246710000Y-266085000D01*
X260997500Y-304185000D02*
X260997500Y-312097500D01*
X246710000Y-266085000D02*
X246710000Y-280372500D01*
X246710000Y-237510000D02*
X237185000Y-247035000D01*
X260997500Y-312097500D02*
X272135000Y-323235000D01*
X246710000Y-218460000D02*
X246710000Y-237510000D01*
X237185000Y-247035000D02*
X237185000Y-256560000D01*
X246710000Y-280372500D02*
X251472500Y-285135000D01*
X272135000Y-323235000D02*
X282428750Y-323235000D01*
X251472500Y-292772500D02*
X260997500Y-302297500D01*
X256235000Y-247035000D02*
X256235000Y-256560000D01*
X280047500Y-302347500D02*
X280047500Y-304185000D01*
X265760000Y-266085000D02*
X267000000Y-267325000D01*
X264204366Y-218460000D02*
X256235000Y-226429366D01*
X265760000Y-218460000D02*
X264204366Y-218460000D01*
X267000000Y-267325000D02*
X267000000Y-269413081D01*
X256235000Y-256560000D02*
X265760000Y-266085000D01*
X270522500Y-292822500D02*
X280047500Y-302347500D01*
X267000000Y-269413081D02*
X267500000Y-269913081D01*
X270522500Y-285135000D02*
X270522500Y-292822500D01*
X256235000Y-226429366D02*
X256235000Y-247035000D01*
X267500000Y-269913081D02*
X267500000Y-282112500D01*
X267500000Y-282112500D02*
X270522500Y-285135000D01*
X275285000Y-254785000D02*
X284810000Y-264310000D01*
X284810000Y-264310000D02*
X284810000Y-266085000D01*
X289572500Y-294660000D02*
X299097500Y-304185000D01*
X284810000Y-280372500D02*
X289572500Y-285135000D01*
X289572500Y-285135000D02*
X289572500Y-294660000D01*
X284810000Y-266085000D02*
X284810000Y-280372500D01*
X284810000Y-218460000D02*
X284810000Y-237510000D01*
X275285000Y-247035000D02*
X275285000Y-254785000D01*
X284810000Y-237510000D02*
X275285000Y-247035000D01*
X303860000Y-218460000D02*
X303860000Y-237510000D01*
X303860000Y-266085000D02*
X303860000Y-280372500D01*
X308622500Y-294660000D02*
X318147500Y-304185000D01*
X308622500Y-285135000D02*
X308622500Y-294660000D01*
X294335000Y-256560000D02*
X303860000Y-266085000D01*
X294335000Y-247035000D02*
X294335000Y-256560000D01*
X318147500Y-320853750D02*
X315766250Y-323235000D01*
X303860000Y-280372500D02*
X308622500Y-285135000D01*
X303860000Y-237510000D02*
X294335000Y-247035000D01*
X318147500Y-304185000D02*
X318147500Y-320853750D01*
X322910000Y-264010000D02*
X322910000Y-266085000D01*
X322910000Y-280372500D02*
X327672500Y-285135000D01*
X327672500Y-294660000D02*
X337197500Y-304185000D01*
X337197500Y-320853750D02*
X339578750Y-323235000D01*
X337197500Y-304185000D02*
X337197500Y-320853750D01*
X313385000Y-254485000D02*
X322910000Y-264010000D01*
X313385000Y-247035000D02*
X313385000Y-254485000D01*
X327672500Y-285135000D02*
X327672500Y-294660000D01*
X322910000Y-266085000D02*
X322910000Y-280372500D01*
X348000000Y-286412500D02*
X346722500Y-285135000D01*
X332435000Y-256560000D02*
X341960000Y-266085000D01*
X363391250Y-323235000D02*
X352735000Y-323235000D01*
X346722500Y-285135000D02*
X341960000Y-280372500D01*
X348000000Y-318500000D02*
X348000000Y-286412500D01*
X332435000Y-247035000D02*
X332435000Y-256560000D01*
X349929366Y-218460000D02*
X332435000Y-235954366D01*
X351485000Y-218460000D02*
X349929366Y-218460000D01*
X341960000Y-280372500D02*
X341960000Y-266085000D01*
X352735000Y-323235000D02*
X348000000Y-318500000D01*
X332435000Y-235954366D02*
X332435000Y-247035000D01*
X351485000Y-254485000D02*
X361010000Y-264010000D01*
X351485000Y-247035000D02*
X351485000Y-254485000D01*
X370535000Y-227985000D02*
X351485000Y-247035000D01*
X370535000Y-218460000D02*
X370535000Y-227985000D01*
X361010000Y-264010000D02*
X361010000Y-266085000D01*
X380060000Y-261322500D02*
X384822500Y-266085000D01*
X372916250Y-304185000D02*
X372916250Y-315505436D01*
X377678750Y-285135000D02*
X377678750Y-298042936D01*
X372916250Y-315505436D02*
X368316739Y-320104947D01*
X368316739Y-320104947D02*
X368316739Y-321316739D01*
X384822500Y-277991250D02*
X377678750Y-285135000D01*
X370235000Y-323235000D02*
X387203750Y-323235000D01*
X380690761Y-302309239D02*
X378815000Y-304185000D01*
X377678750Y-298042936D02*
X380690761Y-301054947D01*
X384822500Y-266085000D02*
X384822500Y-277991250D01*
X380690761Y-301054947D02*
X380690761Y-302309239D01*
X368316739Y-321316739D02*
X370235000Y-323235000D01*
X380060000Y-247035000D02*
X380060000Y-261322500D01*
X378815000Y-304185000D02*
X372916250Y-304185000D01*
X413397500Y-304185000D02*
X413397500Y-323235000D01*
X413397500Y-304185000D02*
X413397500Y-285135000D01*
X413397500Y-266085000D02*
X413397500Y-247035000D01*
X413397500Y-266085000D02*
X413397500Y-285135000D01*
X413397500Y-247035000D02*
X413397500Y-218460000D01*
X432447500Y-218460000D02*
X432447500Y-247035000D01*
X432447500Y-266085000D02*
X432447500Y-285135000D01*
X432447500Y-247035000D02*
X432447500Y-266085000D01*
X432447500Y-304185000D02*
X432447500Y-323235000D01*
X432447500Y-304185000D02*
X432447500Y-285135000D01*
X451497500Y-218460000D02*
X451497500Y-247035000D01*
X451497500Y-266085000D02*
X451497500Y-285135000D01*
X451497500Y-304185000D02*
X451497500Y-285135000D01*
X451497500Y-266085000D02*
X451497500Y-247035000D01*
X451497500Y-304185000D02*
X451497500Y-323235000D01*
X125674980Y-332600000D02*
X131150000Y-332600000D01*
X124750000Y-331675020D02*
X125674980Y-332600000D01*
X145000000Y-318750000D02*
X145000000Y-311000000D01*
X131150000Y-332600000D02*
X145000000Y-318750000D01*
X377532897Y-177598978D02*
X292252532Y-177598978D01*
X391623844Y-188256156D02*
X391623844Y-186520290D01*
X389880000Y-190000000D02*
X389340000Y-190540000D01*
X389880000Y-190000000D02*
X391623844Y-188256156D01*
X292252532Y-177598978D02*
X290275000Y-175621446D01*
X389853554Y-184750000D02*
X384683919Y-184750000D01*
X290275000Y-175621446D02*
X290275000Y-174900000D01*
X290275000Y-174900000D02*
X290450000Y-174725000D01*
X391623844Y-186520290D02*
X389853554Y-184750000D01*
X384683919Y-184750000D02*
X377532897Y-177598978D01*
X389340000Y-190540000D02*
X386000000Y-190540000D01*
X388000000Y-185250000D02*
X389821074Y-185250000D01*
X385550000Y-185550000D02*
X385550000Y-185950000D01*
X387050000Y-185550000D02*
X387050000Y-185605809D01*
X289600000Y-174725000D02*
X289775000Y-174900000D01*
X386450000Y-185250000D02*
X386500000Y-185250000D01*
X389880000Y-188000000D02*
X386000000Y-188000000D01*
X289775000Y-175828554D02*
X292045415Y-178098969D01*
X386150000Y-185950000D02*
X386150000Y-185550000D01*
X386500000Y-185250000D02*
X386750000Y-185250000D01*
X390910537Y-186969463D02*
X389880000Y-188000000D01*
X390910537Y-186339463D02*
X390910537Y-186969463D01*
X387950000Y-185250000D02*
X388000000Y-185250000D01*
X289600000Y-174328904D02*
X289600000Y-174725000D01*
X387650000Y-185605809D02*
X387650000Y-185550000D01*
X292045415Y-178098969D02*
X377325794Y-178098969D01*
X377325794Y-178098969D02*
X384476825Y-185250000D01*
X290450000Y-173375000D02*
X290450000Y-173478904D01*
X384476825Y-185250000D02*
X385250000Y-185250000D01*
X389821074Y-185250000D02*
X390910537Y-186339463D01*
X290450000Y-173478904D02*
X289600000Y-174328904D01*
X289775000Y-174900000D02*
X289775000Y-175828554D01*
X386450000Y-185250000D02*
G75*
G03*
X386150000Y-185550000I0J-300000D01*
G01*
X387050000Y-185550000D02*
G75*
G03*
X386750000Y-185250000I-300000J0D01*
G01*
X387950000Y-185250000D02*
G75*
G03*
X387650000Y-185550000I0J-300000D01*
G01*
X385550000Y-185550000D02*
G75*
G03*
X385250000Y-185250000I-300000J0D01*
G01*
X387350000Y-185905809D02*
G75*
G02*
X387050000Y-185605809I0J300000D01*
G01*
X387650000Y-185605809D02*
G75*
G02*
X387350000Y-185905809I-300000J0D01*
G01*
X385850000Y-186250000D02*
G75*
G02*
X385550000Y-185950000I0J300000D01*
G01*
X386150000Y-185950000D02*
G75*
G02*
X385850000Y-186250000I-300000J0D01*
G01*
M02*
