G04 #@! TF.GenerationSoftware,KiCad,Pcbnew,(6.0.0)*
G04 #@! TF.CreationDate,2022-03-01T15:50:58-08:00*
G04 #@! TF.ProjectId,keyboard_exposed_diodes_standard_tkl,6b657962-6f61-4726-945f-6578706f7365,rev?*
G04 #@! TF.SameCoordinates,Original*
G04 #@! TF.FileFunction,Legend,Bot*
G04 #@! TF.FilePolarity,Positive*
%FSLAX46Y46*%
G04 Gerber Fmt 4.6, Leading zero omitted, Abs format (unit mm)*
G04 Created by KiCad (PCBNEW (6.0.0)) date 2022-03-01 15:50:58*
%MOMM*%
%LPD*%
G01*
G04 APERTURE LIST*
G04 Aperture macros list*
%AMRoundRect*
0 Rectangle with rounded corners*
0 $1 Rounding radius*
0 $2 $3 $4 $5 $6 $7 $8 $9 X,Y pos of 4 corners*
0 Add a 4 corners polygon primitive as box body*
4,1,4,$2,$3,$4,$5,$6,$7,$8,$9,$2,$3,0*
0 Add four circle primitives for the rounded corners*
1,1,$1+$1,$2,$3*
1,1,$1+$1,$4,$5*
1,1,$1+$1,$6,$7*
1,1,$1+$1,$8,$9*
0 Add four rect primitives between the rounded corners*
20,1,$1+$1,$2,$3,$4,$5,0*
20,1,$1+$1,$4,$5,$6,$7,0*
20,1,$1+$1,$6,$7,$8,$9,0*
20,1,$1+$1,$8,$9,$2,$3,0*%
G04 Aperture macros list end*
%ADD10C,0.150000*%
%ADD11C,0.120000*%
%ADD12C,1.700000*%
%ADD13C,4.000000*%
%ADD14R,1.800000X0.900000*%
%ADD15C,2.200000*%
%ADD16R,1.600000X1.600000*%
%ADD17O,1.600000X1.600000*%
%ADD18R,1.700000X1.700000*%
%ADD19O,1.700000X1.700000*%
%ADD20C,0.700000*%
%ADD21O,0.900000X2.400000*%
%ADD22O,0.900000X1.700000*%
%ADD23RoundRect,0.425000X0.425000X-0.425000X0.425000X0.425000X-0.425000X0.425000X-0.425000X-0.425000X0*%
%ADD24R,2.800000X3.600000*%
%ADD25C,2.000000*%
%ADD26C,3.987800*%
%ADD27C,3.048000*%
%ADD28R,0.900000X1.800000*%
%ADD29C,4.300000*%
%ADD30RoundRect,0.250000X0.475000X-0.250000X0.475000X0.250000X-0.475000X0.250000X-0.475000X-0.250000X0*%
%ADD31RoundRect,0.250000X0.250000X0.475000X-0.250000X0.475000X-0.250000X-0.475000X0.250000X-0.475000X0*%
G04 APERTURE END LIST*
D10*
X449844380Y-188027714D02*
X448844380Y-188027714D01*
X448844380Y-188265809D01*
X448892000Y-188408666D01*
X448987238Y-188503904D01*
X449082476Y-188551523D01*
X449272952Y-188599142D01*
X449415809Y-188599142D01*
X449606285Y-188551523D01*
X449701523Y-188503904D01*
X449796761Y-188408666D01*
X449844380Y-188265809D01*
X449844380Y-188027714D01*
X449844380Y-189075333D02*
X449844380Y-189265809D01*
X449796761Y-189361047D01*
X449749142Y-189408666D01*
X449606285Y-189503904D01*
X449415809Y-189551523D01*
X449034857Y-189551523D01*
X448939619Y-189503904D01*
X448892000Y-189456285D01*
X448844380Y-189361047D01*
X448844380Y-189170571D01*
X448892000Y-189075333D01*
X448939619Y-189027714D01*
X449034857Y-188980095D01*
X449272952Y-188980095D01*
X449368190Y-189027714D01*
X449415809Y-189075333D01*
X449463428Y-189170571D01*
X449463428Y-189361047D01*
X449415809Y-189456285D01*
X449368190Y-189503904D01*
X449272952Y-189551523D01*
X448844380Y-189884857D02*
X448844380Y-190551523D01*
X449844380Y-190122952D01*
X145388392Y-311308333D02*
X145436011Y-311260714D01*
X145483630Y-311117857D01*
X145483630Y-311022619D01*
X145436011Y-310879761D01*
X145340773Y-310784523D01*
X145245535Y-310736904D01*
X145055059Y-310689285D01*
X144912202Y-310689285D01*
X144721726Y-310736904D01*
X144626488Y-310784523D01*
X144531250Y-310879761D01*
X144483630Y-311022619D01*
X144483630Y-311117857D01*
X144531250Y-311260714D01*
X144578869Y-311308333D01*
X144578869Y-311689285D02*
X144531250Y-311736904D01*
X144483630Y-311832142D01*
X144483630Y-312070238D01*
X144531250Y-312165476D01*
X144578869Y-312213095D01*
X144674107Y-312260714D01*
X144769345Y-312260714D01*
X144912202Y-312213095D01*
X145483630Y-311641666D01*
X145483630Y-312260714D01*
X443044642Y-330358333D02*
X443092261Y-330310714D01*
X443139880Y-330167857D01*
X443139880Y-330072619D01*
X443092261Y-329929761D01*
X442997023Y-329834523D01*
X442901785Y-329786904D01*
X442711309Y-329739285D01*
X442568452Y-329739285D01*
X442377976Y-329786904D01*
X442282738Y-329834523D01*
X442187500Y-329929761D01*
X442139880Y-330072619D01*
X442139880Y-330167857D01*
X442187500Y-330310714D01*
X442235119Y-330358333D01*
X442139880Y-330691666D02*
X442139880Y-331310714D01*
X442520833Y-330977380D01*
X442520833Y-331120238D01*
X442568452Y-331215476D01*
X442616071Y-331263095D01*
X442711309Y-331310714D01*
X442949404Y-331310714D01*
X443044642Y-331263095D01*
X443092261Y-331215476D01*
X443139880Y-331120238D01*
X443139880Y-330834523D01*
X443092261Y-330739285D01*
X443044642Y-330691666D01*
X257307142Y-225583333D02*
X257354761Y-225535714D01*
X257402380Y-225392857D01*
X257402380Y-225297619D01*
X257354761Y-225154761D01*
X257259523Y-225059523D01*
X257164285Y-225011904D01*
X256973809Y-224964285D01*
X256830952Y-224964285D01*
X256640476Y-225011904D01*
X256545238Y-225059523D01*
X256450000Y-225154761D01*
X256402380Y-225297619D01*
X256402380Y-225392857D01*
X256450000Y-225535714D01*
X256497619Y-225583333D01*
X256402380Y-226488095D02*
X256402380Y-226011904D01*
X256878571Y-225964285D01*
X256830952Y-226011904D01*
X256783333Y-226107142D01*
X256783333Y-226345238D01*
X256830952Y-226440476D01*
X256878571Y-226488095D01*
X256973809Y-226535714D01*
X257211904Y-226535714D01*
X257307142Y-226488095D01*
X257354761Y-226440476D01*
X257402380Y-226345238D01*
X257402380Y-226107142D01*
X257354761Y-226011904D01*
X257307142Y-225964285D01*
X171582142Y-225583333D02*
X171629761Y-225535714D01*
X171677380Y-225392857D01*
X171677380Y-225297619D01*
X171629761Y-225154761D01*
X171534523Y-225059523D01*
X171439285Y-225011904D01*
X171248809Y-224964285D01*
X171105952Y-224964285D01*
X170915476Y-225011904D01*
X170820238Y-225059523D01*
X170725000Y-225154761D01*
X170677380Y-225297619D01*
X170677380Y-225392857D01*
X170725000Y-225535714D01*
X170772619Y-225583333D01*
X170677380Y-226440476D02*
X170677380Y-226250000D01*
X170725000Y-226154761D01*
X170772619Y-226107142D01*
X170915476Y-226011904D01*
X171105952Y-225964285D01*
X171486904Y-225964285D01*
X171582142Y-226011904D01*
X171629761Y-226059523D01*
X171677380Y-226154761D01*
X171677380Y-226345238D01*
X171629761Y-226440476D01*
X171582142Y-226488095D01*
X171486904Y-226535714D01*
X171248809Y-226535714D01*
X171153571Y-226488095D01*
X171105952Y-226440476D01*
X171058333Y-226345238D01*
X171058333Y-226154761D01*
X171105952Y-226059523D01*
X171153571Y-226011904D01*
X171248809Y-225964285D01*
X185869642Y-292258333D02*
X185917261Y-292210714D01*
X185964880Y-292067857D01*
X185964880Y-291972619D01*
X185917261Y-291829761D01*
X185822023Y-291734523D01*
X185726785Y-291686904D01*
X185536309Y-291639285D01*
X185393452Y-291639285D01*
X185202976Y-291686904D01*
X185107738Y-291734523D01*
X185012500Y-291829761D01*
X184964880Y-291972619D01*
X184964880Y-292067857D01*
X185012500Y-292210714D01*
X185060119Y-292258333D01*
X184964880Y-292591666D02*
X184964880Y-293258333D01*
X185964880Y-292829761D01*
X214444642Y-311308333D02*
X214492261Y-311260714D01*
X214539880Y-311117857D01*
X214539880Y-311022619D01*
X214492261Y-310879761D01*
X214397023Y-310784523D01*
X214301785Y-310736904D01*
X214111309Y-310689285D01*
X213968452Y-310689285D01*
X213777976Y-310736904D01*
X213682738Y-310784523D01*
X213587500Y-310879761D01*
X213539880Y-311022619D01*
X213539880Y-311117857D01*
X213587500Y-311260714D01*
X213635119Y-311308333D01*
X213968452Y-311879761D02*
X213920833Y-311784523D01*
X213873214Y-311736904D01*
X213777976Y-311689285D01*
X213730357Y-311689285D01*
X213635119Y-311736904D01*
X213587500Y-311784523D01*
X213539880Y-311879761D01*
X213539880Y-312070238D01*
X213587500Y-312165476D01*
X213635119Y-312213095D01*
X213730357Y-312260714D01*
X213777976Y-312260714D01*
X213873214Y-312213095D01*
X213920833Y-312165476D01*
X213968452Y-312070238D01*
X213968452Y-311879761D01*
X214016071Y-311784523D01*
X214063690Y-311736904D01*
X214158928Y-311689285D01*
X214349404Y-311689285D01*
X214444642Y-311736904D01*
X214492261Y-311784523D01*
X214539880Y-311879761D01*
X214539880Y-312070238D01*
X214492261Y-312165476D01*
X214444642Y-312213095D01*
X214349404Y-312260714D01*
X214158928Y-312260714D01*
X214063690Y-312213095D01*
X214016071Y-312165476D01*
X213968452Y-312070238D01*
X338269642Y-292258333D02*
X338317261Y-292210714D01*
X338364880Y-292067857D01*
X338364880Y-291972619D01*
X338317261Y-291829761D01*
X338222023Y-291734523D01*
X338126785Y-291686904D01*
X337936309Y-291639285D01*
X337793452Y-291639285D01*
X337602976Y-291686904D01*
X337507738Y-291734523D01*
X337412500Y-291829761D01*
X337364880Y-291972619D01*
X337364880Y-292067857D01*
X337412500Y-292210714D01*
X337460119Y-292258333D01*
X338364880Y-292734523D02*
X338364880Y-292925000D01*
X338317261Y-293020238D01*
X338269642Y-293067857D01*
X338126785Y-293163095D01*
X337936309Y-293210714D01*
X337555357Y-293210714D01*
X337460119Y-293163095D01*
X337412500Y-293115476D01*
X337364880Y-293020238D01*
X337364880Y-292829761D01*
X337412500Y-292734523D01*
X337460119Y-292686904D01*
X337555357Y-292639285D01*
X337793452Y-292639285D01*
X337888690Y-292686904D01*
X337936309Y-292734523D01*
X337983928Y-292829761D01*
X337983928Y-293020238D01*
X337936309Y-293115476D01*
X337888690Y-293163095D01*
X337793452Y-293210714D01*
X181107142Y-272732142D02*
X181154761Y-272684523D01*
X181202380Y-272541666D01*
X181202380Y-272446428D01*
X181154761Y-272303571D01*
X181059523Y-272208333D01*
X180964285Y-272160714D01*
X180773809Y-272113095D01*
X180630952Y-272113095D01*
X180440476Y-272160714D01*
X180345238Y-272208333D01*
X180250000Y-272303571D01*
X180202380Y-272446428D01*
X180202380Y-272541666D01*
X180250000Y-272684523D01*
X180297619Y-272732142D01*
X181202380Y-273684523D02*
X181202380Y-273113095D01*
X181202380Y-273398809D02*
X180202380Y-273398809D01*
X180345238Y-273303571D01*
X180440476Y-273208333D01*
X180488095Y-273113095D01*
X180202380Y-274303571D02*
X180202380Y-274398809D01*
X180250000Y-274494047D01*
X180297619Y-274541666D01*
X180392857Y-274589285D01*
X180583333Y-274636904D01*
X180821428Y-274636904D01*
X181011904Y-274589285D01*
X181107142Y-274541666D01*
X181154761Y-274494047D01*
X181202380Y-274398809D01*
X181202380Y-274303571D01*
X181154761Y-274208333D01*
X181107142Y-274160714D01*
X181011904Y-274113095D01*
X180821428Y-274065476D01*
X180583333Y-274065476D01*
X180392857Y-274113095D01*
X180297619Y-274160714D01*
X180250000Y-274208333D01*
X180202380Y-274303571D01*
X304932142Y-253682142D02*
X304979761Y-253634523D01*
X305027380Y-253491666D01*
X305027380Y-253396428D01*
X304979761Y-253253571D01*
X304884523Y-253158333D01*
X304789285Y-253110714D01*
X304598809Y-253063095D01*
X304455952Y-253063095D01*
X304265476Y-253110714D01*
X304170238Y-253158333D01*
X304075000Y-253253571D01*
X304027380Y-253396428D01*
X304027380Y-253491666D01*
X304075000Y-253634523D01*
X304122619Y-253682142D01*
X305027380Y-254634523D02*
X305027380Y-254063095D01*
X305027380Y-254348809D02*
X304027380Y-254348809D01*
X304170238Y-254253571D01*
X304265476Y-254158333D01*
X304313095Y-254063095D01*
X305027380Y-255586904D02*
X305027380Y-255015476D01*
X305027380Y-255301190D02*
X304027380Y-255301190D01*
X304170238Y-255205952D01*
X304265476Y-255110714D01*
X304313095Y-255015476D01*
X423994642Y-225107142D02*
X424042261Y-225059523D01*
X424089880Y-224916666D01*
X424089880Y-224821428D01*
X424042261Y-224678571D01*
X423947023Y-224583333D01*
X423851785Y-224535714D01*
X423661309Y-224488095D01*
X423518452Y-224488095D01*
X423327976Y-224535714D01*
X423232738Y-224583333D01*
X423137500Y-224678571D01*
X423089880Y-224821428D01*
X423089880Y-224916666D01*
X423137500Y-225059523D01*
X423185119Y-225107142D01*
X424089880Y-226059523D02*
X424089880Y-225488095D01*
X424089880Y-225773809D02*
X423089880Y-225773809D01*
X423232738Y-225678571D01*
X423327976Y-225583333D01*
X423375595Y-225488095D01*
X423185119Y-226440476D02*
X423137500Y-226488095D01*
X423089880Y-226583333D01*
X423089880Y-226821428D01*
X423137500Y-226916666D01*
X423185119Y-226964285D01*
X423280357Y-227011904D01*
X423375595Y-227011904D01*
X423518452Y-226964285D01*
X424089880Y-226392857D01*
X424089880Y-227011904D01*
X371607142Y-272732142D02*
X371654761Y-272684523D01*
X371702380Y-272541666D01*
X371702380Y-272446428D01*
X371654761Y-272303571D01*
X371559523Y-272208333D01*
X371464285Y-272160714D01*
X371273809Y-272113095D01*
X371130952Y-272113095D01*
X370940476Y-272160714D01*
X370845238Y-272208333D01*
X370750000Y-272303571D01*
X370702380Y-272446428D01*
X370702380Y-272541666D01*
X370750000Y-272684523D01*
X370797619Y-272732142D01*
X371702380Y-273684523D02*
X371702380Y-273113095D01*
X371702380Y-273398809D02*
X370702380Y-273398809D01*
X370845238Y-273303571D01*
X370940476Y-273208333D01*
X370988095Y-273113095D01*
X370702380Y-274017857D02*
X370702380Y-274636904D01*
X371083333Y-274303571D01*
X371083333Y-274446428D01*
X371130952Y-274541666D01*
X371178571Y-274589285D01*
X371273809Y-274636904D01*
X371511904Y-274636904D01*
X371607142Y-274589285D01*
X371654761Y-274541666D01*
X371702380Y-274446428D01*
X371702380Y-274160714D01*
X371654761Y-274065476D01*
X371607142Y-274017857D01*
X204919642Y-291782142D02*
X204967261Y-291734523D01*
X205014880Y-291591666D01*
X205014880Y-291496428D01*
X204967261Y-291353571D01*
X204872023Y-291258333D01*
X204776785Y-291210714D01*
X204586309Y-291163095D01*
X204443452Y-291163095D01*
X204252976Y-291210714D01*
X204157738Y-291258333D01*
X204062500Y-291353571D01*
X204014880Y-291496428D01*
X204014880Y-291591666D01*
X204062500Y-291734523D01*
X204110119Y-291782142D01*
X205014880Y-292734523D02*
X205014880Y-292163095D01*
X205014880Y-292448809D02*
X204014880Y-292448809D01*
X204157738Y-292353571D01*
X204252976Y-292258333D01*
X204300595Y-292163095D01*
X204348214Y-293591666D02*
X205014880Y-293591666D01*
X203967261Y-293353571D02*
X204681547Y-293115476D01*
X204681547Y-293734523D01*
X262069642Y-291782142D02*
X262117261Y-291734523D01*
X262164880Y-291591666D01*
X262164880Y-291496428D01*
X262117261Y-291353571D01*
X262022023Y-291258333D01*
X261926785Y-291210714D01*
X261736309Y-291163095D01*
X261593452Y-291163095D01*
X261402976Y-291210714D01*
X261307738Y-291258333D01*
X261212500Y-291353571D01*
X261164880Y-291496428D01*
X261164880Y-291591666D01*
X261212500Y-291734523D01*
X261260119Y-291782142D01*
X262164880Y-292734523D02*
X262164880Y-292163095D01*
X262164880Y-292448809D02*
X261164880Y-292448809D01*
X261307738Y-292353571D01*
X261402976Y-292258333D01*
X261450595Y-292163095D01*
X261164880Y-293639285D02*
X261164880Y-293163095D01*
X261641071Y-293115476D01*
X261593452Y-293163095D01*
X261545833Y-293258333D01*
X261545833Y-293496428D01*
X261593452Y-293591666D01*
X261641071Y-293639285D01*
X261736309Y-293686904D01*
X261974404Y-293686904D01*
X262069642Y-293639285D01*
X262117261Y-293591666D01*
X262164880Y-293496428D01*
X262164880Y-293258333D01*
X262117261Y-293163095D01*
X262069642Y-293115476D01*
X343032142Y-253682142D02*
X343079761Y-253634523D01*
X343127380Y-253491666D01*
X343127380Y-253396428D01*
X343079761Y-253253571D01*
X342984523Y-253158333D01*
X342889285Y-253110714D01*
X342698809Y-253063095D01*
X342555952Y-253063095D01*
X342365476Y-253110714D01*
X342270238Y-253158333D01*
X342175000Y-253253571D01*
X342127380Y-253396428D01*
X342127380Y-253491666D01*
X342175000Y-253634523D01*
X342222619Y-253682142D01*
X343127380Y-254634523D02*
X343127380Y-254063095D01*
X343127380Y-254348809D02*
X342127380Y-254348809D01*
X342270238Y-254253571D01*
X342365476Y-254158333D01*
X342413095Y-254063095D01*
X342127380Y-254967857D02*
X342127380Y-255634523D01*
X343127380Y-255205952D01*
X219207142Y-272732142D02*
X219254761Y-272684523D01*
X219302380Y-272541666D01*
X219302380Y-272446428D01*
X219254761Y-272303571D01*
X219159523Y-272208333D01*
X219064285Y-272160714D01*
X218873809Y-272113095D01*
X218730952Y-272113095D01*
X218540476Y-272160714D01*
X218445238Y-272208333D01*
X218350000Y-272303571D01*
X218302380Y-272446428D01*
X218302380Y-272541666D01*
X218350000Y-272684523D01*
X218397619Y-272732142D01*
X219302380Y-273684523D02*
X219302380Y-273113095D01*
X219302380Y-273398809D02*
X218302380Y-273398809D01*
X218445238Y-273303571D01*
X218540476Y-273208333D01*
X218588095Y-273113095D01*
X219302380Y-274160714D02*
X219302380Y-274351190D01*
X219254761Y-274446428D01*
X219207142Y-274494047D01*
X219064285Y-274589285D01*
X218873809Y-274636904D01*
X218492857Y-274636904D01*
X218397619Y-274589285D01*
X218350000Y-274541666D01*
X218302380Y-274446428D01*
X218302380Y-274255952D01*
X218350000Y-274160714D01*
X218397619Y-274113095D01*
X218492857Y-274065476D01*
X218730952Y-274065476D01*
X218826190Y-274113095D01*
X218873809Y-274160714D01*
X218921428Y-274255952D01*
X218921428Y-274446428D01*
X218873809Y-274541666D01*
X218826190Y-274589285D01*
X218730952Y-274636904D01*
X233494642Y-310832142D02*
X233542261Y-310784523D01*
X233589880Y-310641666D01*
X233589880Y-310546428D01*
X233542261Y-310403571D01*
X233447023Y-310308333D01*
X233351785Y-310260714D01*
X233161309Y-310213095D01*
X233018452Y-310213095D01*
X232827976Y-310260714D01*
X232732738Y-310308333D01*
X232637500Y-310403571D01*
X232589880Y-310546428D01*
X232589880Y-310641666D01*
X232637500Y-310784523D01*
X232685119Y-310832142D01*
X232685119Y-311213095D02*
X232637500Y-311260714D01*
X232589880Y-311355952D01*
X232589880Y-311594047D01*
X232637500Y-311689285D01*
X232685119Y-311736904D01*
X232780357Y-311784523D01*
X232875595Y-311784523D01*
X233018452Y-311736904D01*
X233589880Y-311165476D01*
X233589880Y-311784523D01*
X232589880Y-312403571D02*
X232589880Y-312498809D01*
X232637500Y-312594047D01*
X232685119Y-312641666D01*
X232780357Y-312689285D01*
X232970833Y-312736904D01*
X233208928Y-312736904D01*
X233399404Y-312689285D01*
X233494642Y-312641666D01*
X233542261Y-312594047D01*
X233589880Y-312498809D01*
X233589880Y-312403571D01*
X233542261Y-312308333D01*
X233494642Y-312260714D01*
X233399404Y-312213095D01*
X233208928Y-312165476D01*
X232970833Y-312165476D01*
X232780357Y-312213095D01*
X232685119Y-312260714D01*
X232637500Y-312308333D01*
X232589880Y-312403571D01*
X216825892Y-329882142D02*
X216873511Y-329834523D01*
X216921130Y-329691666D01*
X216921130Y-329596428D01*
X216873511Y-329453571D01*
X216778273Y-329358333D01*
X216683035Y-329310714D01*
X216492559Y-329263095D01*
X216349702Y-329263095D01*
X216159226Y-329310714D01*
X216063988Y-329358333D01*
X215968750Y-329453571D01*
X215921130Y-329596428D01*
X215921130Y-329691666D01*
X215968750Y-329834523D01*
X216016369Y-329882142D01*
X216016369Y-330263095D02*
X215968750Y-330310714D01*
X215921130Y-330405952D01*
X215921130Y-330644047D01*
X215968750Y-330739285D01*
X216016369Y-330786904D01*
X216111607Y-330834523D01*
X216206845Y-330834523D01*
X216349702Y-330786904D01*
X216921130Y-330215476D01*
X216921130Y-330834523D01*
X216921130Y-331786904D02*
X216921130Y-331215476D01*
X216921130Y-331501190D02*
X215921130Y-331501190D01*
X216063988Y-331405952D01*
X216159226Y-331310714D01*
X216206845Y-331215476D01*
X443044642Y-225107142D02*
X443092261Y-225059523D01*
X443139880Y-224916666D01*
X443139880Y-224821428D01*
X443092261Y-224678571D01*
X442997023Y-224583333D01*
X442901785Y-224535714D01*
X442711309Y-224488095D01*
X442568452Y-224488095D01*
X442377976Y-224535714D01*
X442282738Y-224583333D01*
X442187500Y-224678571D01*
X442139880Y-224821428D01*
X442139880Y-224916666D01*
X442187500Y-225059523D01*
X442235119Y-225107142D01*
X442235119Y-225488095D02*
X442187500Y-225535714D01*
X442139880Y-225630952D01*
X442139880Y-225869047D01*
X442187500Y-225964285D01*
X442235119Y-226011904D01*
X442330357Y-226059523D01*
X442425595Y-226059523D01*
X442568452Y-226011904D01*
X443139880Y-225440476D01*
X443139880Y-226059523D01*
X442235119Y-226440476D02*
X442187500Y-226488095D01*
X442139880Y-226583333D01*
X442139880Y-226821428D01*
X442187500Y-226916666D01*
X442235119Y-226964285D01*
X442330357Y-227011904D01*
X442425595Y-227011904D01*
X442568452Y-226964285D01*
X443139880Y-226392857D01*
X443139880Y-227011904D01*
X295407142Y-272732142D02*
X295454761Y-272684523D01*
X295502380Y-272541666D01*
X295502380Y-272446428D01*
X295454761Y-272303571D01*
X295359523Y-272208333D01*
X295264285Y-272160714D01*
X295073809Y-272113095D01*
X294930952Y-272113095D01*
X294740476Y-272160714D01*
X294645238Y-272208333D01*
X294550000Y-272303571D01*
X294502380Y-272446428D01*
X294502380Y-272541666D01*
X294550000Y-272684523D01*
X294597619Y-272732142D01*
X294597619Y-273113095D02*
X294550000Y-273160714D01*
X294502380Y-273255952D01*
X294502380Y-273494047D01*
X294550000Y-273589285D01*
X294597619Y-273636904D01*
X294692857Y-273684523D01*
X294788095Y-273684523D01*
X294930952Y-273636904D01*
X295502380Y-273065476D01*
X295502380Y-273684523D01*
X294502380Y-274017857D02*
X294502380Y-274636904D01*
X294883333Y-274303571D01*
X294883333Y-274446428D01*
X294930952Y-274541666D01*
X294978571Y-274589285D01*
X295073809Y-274636904D01*
X295311904Y-274636904D01*
X295407142Y-274589285D01*
X295454761Y-274541666D01*
X295502380Y-274446428D01*
X295502380Y-274160714D01*
X295454761Y-274065476D01*
X295407142Y-274017857D01*
X285882142Y-253682142D02*
X285929761Y-253634523D01*
X285977380Y-253491666D01*
X285977380Y-253396428D01*
X285929761Y-253253571D01*
X285834523Y-253158333D01*
X285739285Y-253110714D01*
X285548809Y-253063095D01*
X285405952Y-253063095D01*
X285215476Y-253110714D01*
X285120238Y-253158333D01*
X285025000Y-253253571D01*
X284977380Y-253396428D01*
X284977380Y-253491666D01*
X285025000Y-253634523D01*
X285072619Y-253682142D01*
X285072619Y-254063095D02*
X285025000Y-254110714D01*
X284977380Y-254205952D01*
X284977380Y-254444047D01*
X285025000Y-254539285D01*
X285072619Y-254586904D01*
X285167857Y-254634523D01*
X285263095Y-254634523D01*
X285405952Y-254586904D01*
X285977380Y-254015476D01*
X285977380Y-254634523D01*
X285310714Y-255491666D02*
X285977380Y-255491666D01*
X284929761Y-255253571D02*
X285644047Y-255015476D01*
X285644047Y-255634523D01*
X276357142Y-225107142D02*
X276404761Y-225059523D01*
X276452380Y-224916666D01*
X276452380Y-224821428D01*
X276404761Y-224678571D01*
X276309523Y-224583333D01*
X276214285Y-224535714D01*
X276023809Y-224488095D01*
X275880952Y-224488095D01*
X275690476Y-224535714D01*
X275595238Y-224583333D01*
X275500000Y-224678571D01*
X275452380Y-224821428D01*
X275452380Y-224916666D01*
X275500000Y-225059523D01*
X275547619Y-225107142D01*
X275547619Y-225488095D02*
X275500000Y-225535714D01*
X275452380Y-225630952D01*
X275452380Y-225869047D01*
X275500000Y-225964285D01*
X275547619Y-226011904D01*
X275642857Y-226059523D01*
X275738095Y-226059523D01*
X275880952Y-226011904D01*
X276452380Y-225440476D01*
X276452380Y-226059523D01*
X275452380Y-226916666D02*
X275452380Y-226726190D01*
X275500000Y-226630952D01*
X275547619Y-226583333D01*
X275690476Y-226488095D01*
X275880952Y-226440476D01*
X276261904Y-226440476D01*
X276357142Y-226488095D01*
X276404761Y-226535714D01*
X276452380Y-226630952D01*
X276452380Y-226821428D01*
X276404761Y-226916666D01*
X276357142Y-226964285D01*
X276261904Y-227011904D01*
X276023809Y-227011904D01*
X275928571Y-226964285D01*
X275880952Y-226916666D01*
X275833333Y-226821428D01*
X275833333Y-226630952D01*
X275880952Y-226535714D01*
X275928571Y-226488095D01*
X276023809Y-226440476D01*
X152532142Y-225107142D02*
X152579761Y-225059523D01*
X152627380Y-224916666D01*
X152627380Y-224821428D01*
X152579761Y-224678571D01*
X152484523Y-224583333D01*
X152389285Y-224535714D01*
X152198809Y-224488095D01*
X152055952Y-224488095D01*
X151865476Y-224535714D01*
X151770238Y-224583333D01*
X151675000Y-224678571D01*
X151627380Y-224821428D01*
X151627380Y-224916666D01*
X151675000Y-225059523D01*
X151722619Y-225107142D01*
X151722619Y-225488095D02*
X151675000Y-225535714D01*
X151627380Y-225630952D01*
X151627380Y-225869047D01*
X151675000Y-225964285D01*
X151722619Y-226011904D01*
X151817857Y-226059523D01*
X151913095Y-226059523D01*
X152055952Y-226011904D01*
X152627380Y-225440476D01*
X152627380Y-226059523D01*
X151627380Y-226392857D02*
X151627380Y-227059523D01*
X152627380Y-226630952D01*
X200157142Y-272732142D02*
X200204761Y-272684523D01*
X200252380Y-272541666D01*
X200252380Y-272446428D01*
X200204761Y-272303571D01*
X200109523Y-272208333D01*
X200014285Y-272160714D01*
X199823809Y-272113095D01*
X199680952Y-272113095D01*
X199490476Y-272160714D01*
X199395238Y-272208333D01*
X199300000Y-272303571D01*
X199252380Y-272446428D01*
X199252380Y-272541666D01*
X199300000Y-272684523D01*
X199347619Y-272732142D01*
X199347619Y-273113095D02*
X199300000Y-273160714D01*
X199252380Y-273255952D01*
X199252380Y-273494047D01*
X199300000Y-273589285D01*
X199347619Y-273636904D01*
X199442857Y-273684523D01*
X199538095Y-273684523D01*
X199680952Y-273636904D01*
X200252380Y-273065476D01*
X200252380Y-273684523D01*
X199680952Y-274255952D02*
X199633333Y-274160714D01*
X199585714Y-274113095D01*
X199490476Y-274065476D01*
X199442857Y-274065476D01*
X199347619Y-274113095D01*
X199300000Y-274160714D01*
X199252380Y-274255952D01*
X199252380Y-274446428D01*
X199300000Y-274541666D01*
X199347619Y-274589285D01*
X199442857Y-274636904D01*
X199490476Y-274636904D01*
X199585714Y-274589285D01*
X199633333Y-274541666D01*
X199680952Y-274446428D01*
X199680952Y-274255952D01*
X199728571Y-274160714D01*
X199776190Y-274113095D01*
X199871428Y-274065476D01*
X200061904Y-274065476D01*
X200157142Y-274113095D01*
X200204761Y-274160714D01*
X200252380Y-274255952D01*
X200252380Y-274446428D01*
X200204761Y-274541666D01*
X200157142Y-274589285D01*
X200061904Y-274636904D01*
X199871428Y-274636904D01*
X199776190Y-274589285D01*
X199728571Y-274541666D01*
X199680952Y-274446428D01*
X443044642Y-310832142D02*
X443092261Y-310784523D01*
X443139880Y-310641666D01*
X443139880Y-310546428D01*
X443092261Y-310403571D01*
X442997023Y-310308333D01*
X442901785Y-310260714D01*
X442711309Y-310213095D01*
X442568452Y-310213095D01*
X442377976Y-310260714D01*
X442282738Y-310308333D01*
X442187500Y-310403571D01*
X442139880Y-310546428D01*
X442139880Y-310641666D01*
X442187500Y-310784523D01*
X442235119Y-310832142D01*
X442235119Y-311213095D02*
X442187500Y-311260714D01*
X442139880Y-311355952D01*
X442139880Y-311594047D01*
X442187500Y-311689285D01*
X442235119Y-311736904D01*
X442330357Y-311784523D01*
X442425595Y-311784523D01*
X442568452Y-311736904D01*
X443139880Y-311165476D01*
X443139880Y-311784523D01*
X443139880Y-312260714D02*
X443139880Y-312451190D01*
X443092261Y-312546428D01*
X443044642Y-312594047D01*
X442901785Y-312689285D01*
X442711309Y-312736904D01*
X442330357Y-312736904D01*
X442235119Y-312689285D01*
X442187500Y-312641666D01*
X442139880Y-312546428D01*
X442139880Y-312355952D01*
X442187500Y-312260714D01*
X442235119Y-312213095D01*
X442330357Y-312165476D01*
X442568452Y-312165476D01*
X442663690Y-312213095D01*
X442711309Y-312260714D01*
X442758928Y-312355952D01*
X442758928Y-312546428D01*
X442711309Y-312641666D01*
X442663690Y-312689285D01*
X442568452Y-312736904D01*
X333507142Y-272732142D02*
X333554761Y-272684523D01*
X333602380Y-272541666D01*
X333602380Y-272446428D01*
X333554761Y-272303571D01*
X333459523Y-272208333D01*
X333364285Y-272160714D01*
X333173809Y-272113095D01*
X333030952Y-272113095D01*
X332840476Y-272160714D01*
X332745238Y-272208333D01*
X332650000Y-272303571D01*
X332602380Y-272446428D01*
X332602380Y-272541666D01*
X332650000Y-272684523D01*
X332697619Y-272732142D01*
X332602380Y-273065476D02*
X332602380Y-273684523D01*
X332983333Y-273351190D01*
X332983333Y-273494047D01*
X333030952Y-273589285D01*
X333078571Y-273636904D01*
X333173809Y-273684523D01*
X333411904Y-273684523D01*
X333507142Y-273636904D01*
X333554761Y-273589285D01*
X333602380Y-273494047D01*
X333602380Y-273208333D01*
X333554761Y-273113095D01*
X333507142Y-273065476D01*
X332602380Y-274303571D02*
X332602380Y-274398809D01*
X332650000Y-274494047D01*
X332697619Y-274541666D01*
X332792857Y-274589285D01*
X332983333Y-274636904D01*
X333221428Y-274636904D01*
X333411904Y-274589285D01*
X333507142Y-274541666D01*
X333554761Y-274494047D01*
X333602380Y-274398809D01*
X333602380Y-274303571D01*
X333554761Y-274208333D01*
X333507142Y-274160714D01*
X333411904Y-274113095D01*
X333221428Y-274065476D01*
X332983333Y-274065476D01*
X332792857Y-274113095D01*
X332697619Y-274160714D01*
X332650000Y-274208333D01*
X332602380Y-274303571D01*
X281119642Y-291782142D02*
X281167261Y-291734523D01*
X281214880Y-291591666D01*
X281214880Y-291496428D01*
X281167261Y-291353571D01*
X281072023Y-291258333D01*
X280976785Y-291210714D01*
X280786309Y-291163095D01*
X280643452Y-291163095D01*
X280452976Y-291210714D01*
X280357738Y-291258333D01*
X280262500Y-291353571D01*
X280214880Y-291496428D01*
X280214880Y-291591666D01*
X280262500Y-291734523D01*
X280310119Y-291782142D01*
X280214880Y-292115476D02*
X280214880Y-292734523D01*
X280595833Y-292401190D01*
X280595833Y-292544047D01*
X280643452Y-292639285D01*
X280691071Y-292686904D01*
X280786309Y-292734523D01*
X281024404Y-292734523D01*
X281119642Y-292686904D01*
X281167261Y-292639285D01*
X281214880Y-292544047D01*
X281214880Y-292258333D01*
X281167261Y-292163095D01*
X281119642Y-292115476D01*
X281214880Y-293686904D02*
X281214880Y-293115476D01*
X281214880Y-293401190D02*
X280214880Y-293401190D01*
X280357738Y-293305952D01*
X280452976Y-293210714D01*
X280500595Y-293115476D01*
X423994642Y-253682142D02*
X424042261Y-253634523D01*
X424089880Y-253491666D01*
X424089880Y-253396428D01*
X424042261Y-253253571D01*
X423947023Y-253158333D01*
X423851785Y-253110714D01*
X423661309Y-253063095D01*
X423518452Y-253063095D01*
X423327976Y-253110714D01*
X423232738Y-253158333D01*
X423137500Y-253253571D01*
X423089880Y-253396428D01*
X423089880Y-253491666D01*
X423137500Y-253634523D01*
X423185119Y-253682142D01*
X423089880Y-254015476D02*
X423089880Y-254634523D01*
X423470833Y-254301190D01*
X423470833Y-254444047D01*
X423518452Y-254539285D01*
X423566071Y-254586904D01*
X423661309Y-254634523D01*
X423899404Y-254634523D01*
X423994642Y-254586904D01*
X424042261Y-254539285D01*
X424089880Y-254444047D01*
X424089880Y-254158333D01*
X424042261Y-254063095D01*
X423994642Y-254015476D01*
X423185119Y-255015476D02*
X423137500Y-255063095D01*
X423089880Y-255158333D01*
X423089880Y-255396428D01*
X423137500Y-255491666D01*
X423185119Y-255539285D01*
X423280357Y-255586904D01*
X423375595Y-255586904D01*
X423518452Y-255539285D01*
X424089880Y-254967857D01*
X424089880Y-255586904D01*
X300169642Y-291782142D02*
X300217261Y-291734523D01*
X300264880Y-291591666D01*
X300264880Y-291496428D01*
X300217261Y-291353571D01*
X300122023Y-291258333D01*
X300026785Y-291210714D01*
X299836309Y-291163095D01*
X299693452Y-291163095D01*
X299502976Y-291210714D01*
X299407738Y-291258333D01*
X299312500Y-291353571D01*
X299264880Y-291496428D01*
X299264880Y-291591666D01*
X299312500Y-291734523D01*
X299360119Y-291782142D01*
X299264880Y-292115476D02*
X299264880Y-292734523D01*
X299645833Y-292401190D01*
X299645833Y-292544047D01*
X299693452Y-292639285D01*
X299741071Y-292686904D01*
X299836309Y-292734523D01*
X300074404Y-292734523D01*
X300169642Y-292686904D01*
X300217261Y-292639285D01*
X300264880Y-292544047D01*
X300264880Y-292258333D01*
X300217261Y-292163095D01*
X300169642Y-292115476D01*
X299264880Y-293067857D02*
X299264880Y-293686904D01*
X299645833Y-293353571D01*
X299645833Y-293496428D01*
X299693452Y-293591666D01*
X299741071Y-293639285D01*
X299836309Y-293686904D01*
X300074404Y-293686904D01*
X300169642Y-293639285D01*
X300217261Y-293591666D01*
X300264880Y-293496428D01*
X300264880Y-293210714D01*
X300217261Y-293115476D01*
X300169642Y-293067857D01*
X135863392Y-329882142D02*
X135911011Y-329834523D01*
X135958630Y-329691666D01*
X135958630Y-329596428D01*
X135911011Y-329453571D01*
X135815773Y-329358333D01*
X135720535Y-329310714D01*
X135530059Y-329263095D01*
X135387202Y-329263095D01*
X135196726Y-329310714D01*
X135101488Y-329358333D01*
X135006250Y-329453571D01*
X134958630Y-329596428D01*
X134958630Y-329691666D01*
X135006250Y-329834523D01*
X135053869Y-329882142D01*
X134958630Y-330215476D02*
X134958630Y-330834523D01*
X135339583Y-330501190D01*
X135339583Y-330644047D01*
X135387202Y-330739285D01*
X135434821Y-330786904D01*
X135530059Y-330834523D01*
X135768154Y-330834523D01*
X135863392Y-330786904D01*
X135911011Y-330739285D01*
X135958630Y-330644047D01*
X135958630Y-330358333D01*
X135911011Y-330263095D01*
X135863392Y-330215476D01*
X135291964Y-331691666D02*
X135958630Y-331691666D01*
X134911011Y-331453571D02*
X135625297Y-331215476D01*
X135625297Y-331834523D01*
X423994642Y-272732142D02*
X424042261Y-272684523D01*
X424089880Y-272541666D01*
X424089880Y-272446428D01*
X424042261Y-272303571D01*
X423947023Y-272208333D01*
X423851785Y-272160714D01*
X423661309Y-272113095D01*
X423518452Y-272113095D01*
X423327976Y-272160714D01*
X423232738Y-272208333D01*
X423137500Y-272303571D01*
X423089880Y-272446428D01*
X423089880Y-272541666D01*
X423137500Y-272684523D01*
X423185119Y-272732142D01*
X423089880Y-273065476D02*
X423089880Y-273684523D01*
X423470833Y-273351190D01*
X423470833Y-273494047D01*
X423518452Y-273589285D01*
X423566071Y-273636904D01*
X423661309Y-273684523D01*
X423899404Y-273684523D01*
X423994642Y-273636904D01*
X424042261Y-273589285D01*
X424089880Y-273494047D01*
X424089880Y-273208333D01*
X424042261Y-273113095D01*
X423994642Y-273065476D01*
X423089880Y-274589285D02*
X423089880Y-274113095D01*
X423566071Y-274065476D01*
X423518452Y-274113095D01*
X423470833Y-274208333D01*
X423470833Y-274446428D01*
X423518452Y-274541666D01*
X423566071Y-274589285D01*
X423661309Y-274636904D01*
X423899404Y-274636904D01*
X423994642Y-274589285D01*
X424042261Y-274541666D01*
X424089880Y-274446428D01*
X424089880Y-274208333D01*
X424042261Y-274113095D01*
X423994642Y-274065476D01*
X373988392Y-329882142D02*
X374036011Y-329834523D01*
X374083630Y-329691666D01*
X374083630Y-329596428D01*
X374036011Y-329453571D01*
X373940773Y-329358333D01*
X373845535Y-329310714D01*
X373655059Y-329263095D01*
X373512202Y-329263095D01*
X373321726Y-329310714D01*
X373226488Y-329358333D01*
X373131250Y-329453571D01*
X373083630Y-329596428D01*
X373083630Y-329691666D01*
X373131250Y-329834523D01*
X373178869Y-329882142D01*
X373083630Y-330215476D02*
X373083630Y-330834523D01*
X373464583Y-330501190D01*
X373464583Y-330644047D01*
X373512202Y-330739285D01*
X373559821Y-330786904D01*
X373655059Y-330834523D01*
X373893154Y-330834523D01*
X373988392Y-330786904D01*
X374036011Y-330739285D01*
X374083630Y-330644047D01*
X374083630Y-330358333D01*
X374036011Y-330263095D01*
X373988392Y-330215476D01*
X373083630Y-331691666D02*
X373083630Y-331501190D01*
X373131250Y-331405952D01*
X373178869Y-331358333D01*
X373321726Y-331263095D01*
X373512202Y-331215476D01*
X373893154Y-331215476D01*
X373988392Y-331263095D01*
X374036011Y-331310714D01*
X374083630Y-331405952D01*
X374083630Y-331596428D01*
X374036011Y-331691666D01*
X373988392Y-331739285D01*
X373893154Y-331786904D01*
X373655059Y-331786904D01*
X373559821Y-331739285D01*
X373512202Y-331691666D01*
X373464583Y-331596428D01*
X373464583Y-331405952D01*
X373512202Y-331310714D01*
X373559821Y-331263095D01*
X373655059Y-331215476D01*
X162057142Y-272732142D02*
X162104761Y-272684523D01*
X162152380Y-272541666D01*
X162152380Y-272446428D01*
X162104761Y-272303571D01*
X162009523Y-272208333D01*
X161914285Y-272160714D01*
X161723809Y-272113095D01*
X161580952Y-272113095D01*
X161390476Y-272160714D01*
X161295238Y-272208333D01*
X161200000Y-272303571D01*
X161152380Y-272446428D01*
X161152380Y-272541666D01*
X161200000Y-272684523D01*
X161247619Y-272732142D01*
X161152380Y-273065476D02*
X161152380Y-273684523D01*
X161533333Y-273351190D01*
X161533333Y-273494047D01*
X161580952Y-273589285D01*
X161628571Y-273636904D01*
X161723809Y-273684523D01*
X161961904Y-273684523D01*
X162057142Y-273636904D01*
X162104761Y-273589285D01*
X162152380Y-273494047D01*
X162152380Y-273208333D01*
X162104761Y-273113095D01*
X162057142Y-273065476D01*
X161152380Y-274017857D02*
X161152380Y-274684523D01*
X162152380Y-274255952D01*
X319219642Y-291782142D02*
X319267261Y-291734523D01*
X319314880Y-291591666D01*
X319314880Y-291496428D01*
X319267261Y-291353571D01*
X319172023Y-291258333D01*
X319076785Y-291210714D01*
X318886309Y-291163095D01*
X318743452Y-291163095D01*
X318552976Y-291210714D01*
X318457738Y-291258333D01*
X318362500Y-291353571D01*
X318314880Y-291496428D01*
X318314880Y-291591666D01*
X318362500Y-291734523D01*
X318410119Y-291782142D01*
X318314880Y-292115476D02*
X318314880Y-292734523D01*
X318695833Y-292401190D01*
X318695833Y-292544047D01*
X318743452Y-292639285D01*
X318791071Y-292686904D01*
X318886309Y-292734523D01*
X319124404Y-292734523D01*
X319219642Y-292686904D01*
X319267261Y-292639285D01*
X319314880Y-292544047D01*
X319314880Y-292258333D01*
X319267261Y-292163095D01*
X319219642Y-292115476D01*
X318743452Y-293305952D02*
X318695833Y-293210714D01*
X318648214Y-293163095D01*
X318552976Y-293115476D01*
X318505357Y-293115476D01*
X318410119Y-293163095D01*
X318362500Y-293210714D01*
X318314880Y-293305952D01*
X318314880Y-293496428D01*
X318362500Y-293591666D01*
X318410119Y-293639285D01*
X318505357Y-293686904D01*
X318552976Y-293686904D01*
X318648214Y-293639285D01*
X318695833Y-293591666D01*
X318743452Y-293496428D01*
X318743452Y-293305952D01*
X318791071Y-293210714D01*
X318838690Y-293163095D01*
X318933928Y-293115476D01*
X319124404Y-293115476D01*
X319219642Y-293163095D01*
X319267261Y-293210714D01*
X319314880Y-293305952D01*
X319314880Y-293496428D01*
X319267261Y-293591666D01*
X319219642Y-293639285D01*
X319124404Y-293686904D01*
X318933928Y-293686904D01*
X318838690Y-293639285D01*
X318791071Y-293591666D01*
X318743452Y-293496428D01*
X238257142Y-272732142D02*
X238304761Y-272684523D01*
X238352380Y-272541666D01*
X238352380Y-272446428D01*
X238304761Y-272303571D01*
X238209523Y-272208333D01*
X238114285Y-272160714D01*
X237923809Y-272113095D01*
X237780952Y-272113095D01*
X237590476Y-272160714D01*
X237495238Y-272208333D01*
X237400000Y-272303571D01*
X237352380Y-272446428D01*
X237352380Y-272541666D01*
X237400000Y-272684523D01*
X237447619Y-272732142D01*
X237352380Y-273065476D02*
X237352380Y-273684523D01*
X237733333Y-273351190D01*
X237733333Y-273494047D01*
X237780952Y-273589285D01*
X237828571Y-273636904D01*
X237923809Y-273684523D01*
X238161904Y-273684523D01*
X238257142Y-273636904D01*
X238304761Y-273589285D01*
X238352380Y-273494047D01*
X238352380Y-273208333D01*
X238304761Y-273113095D01*
X238257142Y-273065476D01*
X238352380Y-274160714D02*
X238352380Y-274351190D01*
X238304761Y-274446428D01*
X238257142Y-274494047D01*
X238114285Y-274589285D01*
X237923809Y-274636904D01*
X237542857Y-274636904D01*
X237447619Y-274589285D01*
X237400000Y-274541666D01*
X237352380Y-274446428D01*
X237352380Y-274255952D01*
X237400000Y-274160714D01*
X237447619Y-274113095D01*
X237542857Y-274065476D01*
X237780952Y-274065476D01*
X237876190Y-274113095D01*
X237923809Y-274160714D01*
X237971428Y-274255952D01*
X237971428Y-274446428D01*
X237923809Y-274541666D01*
X237876190Y-274589285D01*
X237780952Y-274636904D01*
X462094642Y-253682142D02*
X462142261Y-253634523D01*
X462189880Y-253491666D01*
X462189880Y-253396428D01*
X462142261Y-253253571D01*
X462047023Y-253158333D01*
X461951785Y-253110714D01*
X461761309Y-253063095D01*
X461618452Y-253063095D01*
X461427976Y-253110714D01*
X461332738Y-253158333D01*
X461237500Y-253253571D01*
X461189880Y-253396428D01*
X461189880Y-253491666D01*
X461237500Y-253634523D01*
X461285119Y-253682142D01*
X461523214Y-254539285D02*
X462189880Y-254539285D01*
X461142261Y-254301190D02*
X461856547Y-254063095D01*
X461856547Y-254682142D01*
X461189880Y-255253571D02*
X461189880Y-255348809D01*
X461237500Y-255444047D01*
X461285119Y-255491666D01*
X461380357Y-255539285D01*
X461570833Y-255586904D01*
X461808928Y-255586904D01*
X461999404Y-255539285D01*
X462094642Y-255491666D01*
X462142261Y-255444047D01*
X462189880Y-255348809D01*
X462189880Y-255253571D01*
X462142261Y-255158333D01*
X462094642Y-255110714D01*
X461999404Y-255063095D01*
X461808928Y-255015476D01*
X461570833Y-255015476D01*
X461380357Y-255063095D01*
X461285119Y-255110714D01*
X461237500Y-255158333D01*
X461189880Y-255253571D01*
X228732142Y-225107142D02*
X228779761Y-225059523D01*
X228827380Y-224916666D01*
X228827380Y-224821428D01*
X228779761Y-224678571D01*
X228684523Y-224583333D01*
X228589285Y-224535714D01*
X228398809Y-224488095D01*
X228255952Y-224488095D01*
X228065476Y-224535714D01*
X227970238Y-224583333D01*
X227875000Y-224678571D01*
X227827380Y-224821428D01*
X227827380Y-224916666D01*
X227875000Y-225059523D01*
X227922619Y-225107142D01*
X228160714Y-225964285D02*
X228827380Y-225964285D01*
X227779761Y-225726190D02*
X228494047Y-225488095D01*
X228494047Y-226107142D01*
X228827380Y-227011904D02*
X228827380Y-226440476D01*
X228827380Y-226726190D02*
X227827380Y-226726190D01*
X227970238Y-226630952D01*
X228065476Y-226535714D01*
X228113095Y-226440476D01*
X243019642Y-291782142D02*
X243067261Y-291734523D01*
X243114880Y-291591666D01*
X243114880Y-291496428D01*
X243067261Y-291353571D01*
X242972023Y-291258333D01*
X242876785Y-291210714D01*
X242686309Y-291163095D01*
X242543452Y-291163095D01*
X242352976Y-291210714D01*
X242257738Y-291258333D01*
X242162500Y-291353571D01*
X242114880Y-291496428D01*
X242114880Y-291591666D01*
X242162500Y-291734523D01*
X242210119Y-291782142D01*
X242448214Y-292639285D02*
X243114880Y-292639285D01*
X242067261Y-292401190D02*
X242781547Y-292163095D01*
X242781547Y-292782142D01*
X242210119Y-293115476D02*
X242162500Y-293163095D01*
X242114880Y-293258333D01*
X242114880Y-293496428D01*
X242162500Y-293591666D01*
X242210119Y-293639285D01*
X242305357Y-293686904D01*
X242400595Y-293686904D01*
X242543452Y-293639285D01*
X243114880Y-293067857D01*
X243114880Y-293686904D01*
X276357142Y-272732142D02*
X276404761Y-272684523D01*
X276452380Y-272541666D01*
X276452380Y-272446428D01*
X276404761Y-272303571D01*
X276309523Y-272208333D01*
X276214285Y-272160714D01*
X276023809Y-272113095D01*
X275880952Y-272113095D01*
X275690476Y-272160714D01*
X275595238Y-272208333D01*
X275500000Y-272303571D01*
X275452380Y-272446428D01*
X275452380Y-272541666D01*
X275500000Y-272684523D01*
X275547619Y-272732142D01*
X275785714Y-273589285D02*
X276452380Y-273589285D01*
X275404761Y-273351190D02*
X276119047Y-273113095D01*
X276119047Y-273732142D01*
X275452380Y-274017857D02*
X275452380Y-274636904D01*
X275833333Y-274303571D01*
X275833333Y-274446428D01*
X275880952Y-274541666D01*
X275928571Y-274589285D01*
X276023809Y-274636904D01*
X276261904Y-274636904D01*
X276357142Y-274589285D01*
X276404761Y-274541666D01*
X276452380Y-274446428D01*
X276452380Y-274160714D01*
X276404761Y-274065476D01*
X276357142Y-274017857D01*
X190632142Y-253682142D02*
X190679761Y-253634523D01*
X190727380Y-253491666D01*
X190727380Y-253396428D01*
X190679761Y-253253571D01*
X190584523Y-253158333D01*
X190489285Y-253110714D01*
X190298809Y-253063095D01*
X190155952Y-253063095D01*
X189965476Y-253110714D01*
X189870238Y-253158333D01*
X189775000Y-253253571D01*
X189727380Y-253396428D01*
X189727380Y-253491666D01*
X189775000Y-253634523D01*
X189822619Y-253682142D01*
X190060714Y-254539285D02*
X190727380Y-254539285D01*
X189679761Y-254301190D02*
X190394047Y-254063095D01*
X190394047Y-254682142D01*
X190060714Y-255491666D02*
X190727380Y-255491666D01*
X189679761Y-255253571D02*
X190394047Y-255015476D01*
X190394047Y-255634523D01*
X352557142Y-272732142D02*
X352604761Y-272684523D01*
X352652380Y-272541666D01*
X352652380Y-272446428D01*
X352604761Y-272303571D01*
X352509523Y-272208333D01*
X352414285Y-272160714D01*
X352223809Y-272113095D01*
X352080952Y-272113095D01*
X351890476Y-272160714D01*
X351795238Y-272208333D01*
X351700000Y-272303571D01*
X351652380Y-272446428D01*
X351652380Y-272541666D01*
X351700000Y-272684523D01*
X351747619Y-272732142D01*
X351985714Y-273589285D02*
X352652380Y-273589285D01*
X351604761Y-273351190D02*
X352319047Y-273113095D01*
X352319047Y-273732142D01*
X351652380Y-274589285D02*
X351652380Y-274113095D01*
X352128571Y-274065476D01*
X352080952Y-274113095D01*
X352033333Y-274208333D01*
X352033333Y-274446428D01*
X352080952Y-274541666D01*
X352128571Y-274589285D01*
X352223809Y-274636904D01*
X352461904Y-274636904D01*
X352557142Y-274589285D01*
X352604761Y-274541666D01*
X352652380Y-274446428D01*
X352652380Y-274208333D01*
X352604761Y-274113095D01*
X352557142Y-274065476D01*
X443044642Y-253682142D02*
X443092261Y-253634523D01*
X443139880Y-253491666D01*
X443139880Y-253396428D01*
X443092261Y-253253571D01*
X442997023Y-253158333D01*
X442901785Y-253110714D01*
X442711309Y-253063095D01*
X442568452Y-253063095D01*
X442377976Y-253110714D01*
X442282738Y-253158333D01*
X442187500Y-253253571D01*
X442139880Y-253396428D01*
X442139880Y-253491666D01*
X442187500Y-253634523D01*
X442235119Y-253682142D01*
X442473214Y-254539285D02*
X443139880Y-254539285D01*
X442092261Y-254301190D02*
X442806547Y-254063095D01*
X442806547Y-254682142D01*
X442139880Y-255491666D02*
X442139880Y-255301190D01*
X442187500Y-255205952D01*
X442235119Y-255158333D01*
X442377976Y-255063095D01*
X442568452Y-255015476D01*
X442949404Y-255015476D01*
X443044642Y-255063095D01*
X443092261Y-255110714D01*
X443139880Y-255205952D01*
X443139880Y-255396428D01*
X443092261Y-255491666D01*
X443044642Y-255539285D01*
X442949404Y-255586904D01*
X442711309Y-255586904D01*
X442616071Y-255539285D01*
X442568452Y-255491666D01*
X442520833Y-255396428D01*
X442520833Y-255205952D01*
X442568452Y-255110714D01*
X442616071Y-255063095D01*
X442711309Y-255015476D01*
X140625892Y-291782142D02*
X140673511Y-291734523D01*
X140721130Y-291591666D01*
X140721130Y-291496428D01*
X140673511Y-291353571D01*
X140578273Y-291258333D01*
X140483035Y-291210714D01*
X140292559Y-291163095D01*
X140149702Y-291163095D01*
X139959226Y-291210714D01*
X139863988Y-291258333D01*
X139768750Y-291353571D01*
X139721130Y-291496428D01*
X139721130Y-291591666D01*
X139768750Y-291734523D01*
X139816369Y-291782142D01*
X140054464Y-292639285D02*
X140721130Y-292639285D01*
X139673511Y-292401190D02*
X140387797Y-292163095D01*
X140387797Y-292782142D01*
X139721130Y-293067857D02*
X139721130Y-293734523D01*
X140721130Y-293305952D01*
X133482142Y-253682142D02*
X133529761Y-253634523D01*
X133577380Y-253491666D01*
X133577380Y-253396428D01*
X133529761Y-253253571D01*
X133434523Y-253158333D01*
X133339285Y-253110714D01*
X133148809Y-253063095D01*
X133005952Y-253063095D01*
X132815476Y-253110714D01*
X132720238Y-253158333D01*
X132625000Y-253253571D01*
X132577380Y-253396428D01*
X132577380Y-253491666D01*
X132625000Y-253634523D01*
X132672619Y-253682142D01*
X132910714Y-254539285D02*
X133577380Y-254539285D01*
X132529761Y-254301190D02*
X133244047Y-254063095D01*
X133244047Y-254682142D01*
X133005952Y-255205952D02*
X132958333Y-255110714D01*
X132910714Y-255063095D01*
X132815476Y-255015476D01*
X132767857Y-255015476D01*
X132672619Y-255063095D01*
X132625000Y-255110714D01*
X132577380Y-255205952D01*
X132577380Y-255396428D01*
X132625000Y-255491666D01*
X132672619Y-255539285D01*
X132767857Y-255586904D01*
X132815476Y-255586904D01*
X132910714Y-255539285D01*
X132958333Y-255491666D01*
X133005952Y-255396428D01*
X133005952Y-255205952D01*
X133053571Y-255110714D01*
X133101190Y-255063095D01*
X133196428Y-255015476D01*
X133386904Y-255015476D01*
X133482142Y-255063095D01*
X133529761Y-255110714D01*
X133577380Y-255205952D01*
X133577380Y-255396428D01*
X133529761Y-255491666D01*
X133482142Y-255539285D01*
X133386904Y-255586904D01*
X133196428Y-255586904D01*
X133101190Y-255539285D01*
X133053571Y-255491666D01*
X133005952Y-255396428D01*
X357319642Y-291782142D02*
X357367261Y-291734523D01*
X357414880Y-291591666D01*
X357414880Y-291496428D01*
X357367261Y-291353571D01*
X357272023Y-291258333D01*
X357176785Y-291210714D01*
X356986309Y-291163095D01*
X356843452Y-291163095D01*
X356652976Y-291210714D01*
X356557738Y-291258333D01*
X356462500Y-291353571D01*
X356414880Y-291496428D01*
X356414880Y-291591666D01*
X356462500Y-291734523D01*
X356510119Y-291782142D01*
X356748214Y-292639285D02*
X357414880Y-292639285D01*
X356367261Y-292401190D02*
X357081547Y-292163095D01*
X357081547Y-292782142D01*
X357414880Y-293210714D02*
X357414880Y-293401190D01*
X357367261Y-293496428D01*
X357319642Y-293544047D01*
X357176785Y-293639285D01*
X356986309Y-293686904D01*
X356605357Y-293686904D01*
X356510119Y-293639285D01*
X356462500Y-293591666D01*
X356414880Y-293496428D01*
X356414880Y-293305952D01*
X356462500Y-293210714D01*
X356510119Y-293163095D01*
X356605357Y-293115476D01*
X356843452Y-293115476D01*
X356938690Y-293163095D01*
X356986309Y-293210714D01*
X357033928Y-293305952D01*
X357033928Y-293496428D01*
X356986309Y-293591666D01*
X356938690Y-293639285D01*
X356843452Y-293686904D01*
X176344642Y-310832142D02*
X176392261Y-310784523D01*
X176439880Y-310641666D01*
X176439880Y-310546428D01*
X176392261Y-310403571D01*
X176297023Y-310308333D01*
X176201785Y-310260714D01*
X176011309Y-310213095D01*
X175868452Y-310213095D01*
X175677976Y-310260714D01*
X175582738Y-310308333D01*
X175487500Y-310403571D01*
X175439880Y-310546428D01*
X175439880Y-310641666D01*
X175487500Y-310784523D01*
X175535119Y-310832142D01*
X175439880Y-311736904D02*
X175439880Y-311260714D01*
X175916071Y-311213095D01*
X175868452Y-311260714D01*
X175820833Y-311355952D01*
X175820833Y-311594047D01*
X175868452Y-311689285D01*
X175916071Y-311736904D01*
X176011309Y-311784523D01*
X176249404Y-311784523D01*
X176344642Y-311736904D01*
X176392261Y-311689285D01*
X176439880Y-311594047D01*
X176439880Y-311355952D01*
X176392261Y-311260714D01*
X176344642Y-311213095D01*
X175439880Y-312403571D02*
X175439880Y-312498809D01*
X175487500Y-312594047D01*
X175535119Y-312641666D01*
X175630357Y-312689285D01*
X175820833Y-312736904D01*
X176058928Y-312736904D01*
X176249404Y-312689285D01*
X176344642Y-312641666D01*
X176392261Y-312594047D01*
X176439880Y-312498809D01*
X176439880Y-312403571D01*
X176392261Y-312308333D01*
X176344642Y-312260714D01*
X176249404Y-312213095D01*
X176058928Y-312165476D01*
X175820833Y-312165476D01*
X175630357Y-312213095D01*
X175535119Y-312260714D01*
X175487500Y-312308333D01*
X175439880Y-312403571D01*
X350175892Y-329882142D02*
X350223511Y-329834523D01*
X350271130Y-329691666D01*
X350271130Y-329596428D01*
X350223511Y-329453571D01*
X350128273Y-329358333D01*
X350033035Y-329310714D01*
X349842559Y-329263095D01*
X349699702Y-329263095D01*
X349509226Y-329310714D01*
X349413988Y-329358333D01*
X349318750Y-329453571D01*
X349271130Y-329596428D01*
X349271130Y-329691666D01*
X349318750Y-329834523D01*
X349366369Y-329882142D01*
X349271130Y-330786904D02*
X349271130Y-330310714D01*
X349747321Y-330263095D01*
X349699702Y-330310714D01*
X349652083Y-330405952D01*
X349652083Y-330644047D01*
X349699702Y-330739285D01*
X349747321Y-330786904D01*
X349842559Y-330834523D01*
X350080654Y-330834523D01*
X350175892Y-330786904D01*
X350223511Y-330739285D01*
X350271130Y-330644047D01*
X350271130Y-330405952D01*
X350223511Y-330310714D01*
X350175892Y-330263095D01*
X350271130Y-331786904D02*
X350271130Y-331215476D01*
X350271130Y-331501190D02*
X349271130Y-331501190D01*
X349413988Y-331405952D01*
X349509226Y-331310714D01*
X349556845Y-331215476D01*
X166819642Y-291782142D02*
X166867261Y-291734523D01*
X166914880Y-291591666D01*
X166914880Y-291496428D01*
X166867261Y-291353571D01*
X166772023Y-291258333D01*
X166676785Y-291210714D01*
X166486309Y-291163095D01*
X166343452Y-291163095D01*
X166152976Y-291210714D01*
X166057738Y-291258333D01*
X165962500Y-291353571D01*
X165914880Y-291496428D01*
X165914880Y-291591666D01*
X165962500Y-291734523D01*
X166010119Y-291782142D01*
X165914880Y-292686904D02*
X165914880Y-292210714D01*
X166391071Y-292163095D01*
X166343452Y-292210714D01*
X166295833Y-292305952D01*
X166295833Y-292544047D01*
X166343452Y-292639285D01*
X166391071Y-292686904D01*
X166486309Y-292734523D01*
X166724404Y-292734523D01*
X166819642Y-292686904D01*
X166867261Y-292639285D01*
X166914880Y-292544047D01*
X166914880Y-292305952D01*
X166867261Y-292210714D01*
X166819642Y-292163095D01*
X166248214Y-293591666D02*
X166914880Y-293591666D01*
X165867261Y-293353571D02*
X166581547Y-293115476D01*
X166581547Y-293734523D01*
X397800892Y-329882142D02*
X397848511Y-329834523D01*
X397896130Y-329691666D01*
X397896130Y-329596428D01*
X397848511Y-329453571D01*
X397753273Y-329358333D01*
X397658035Y-329310714D01*
X397467559Y-329263095D01*
X397324702Y-329263095D01*
X397134226Y-329310714D01*
X397038988Y-329358333D01*
X396943750Y-329453571D01*
X396896130Y-329596428D01*
X396896130Y-329691666D01*
X396943750Y-329834523D01*
X396991369Y-329882142D01*
X396896130Y-330786904D02*
X396896130Y-330310714D01*
X397372321Y-330263095D01*
X397324702Y-330310714D01*
X397277083Y-330405952D01*
X397277083Y-330644047D01*
X397324702Y-330739285D01*
X397372321Y-330786904D01*
X397467559Y-330834523D01*
X397705654Y-330834523D01*
X397800892Y-330786904D01*
X397848511Y-330739285D01*
X397896130Y-330644047D01*
X397896130Y-330405952D01*
X397848511Y-330310714D01*
X397800892Y-330263095D01*
X396896130Y-331739285D02*
X396896130Y-331263095D01*
X397372321Y-331215476D01*
X397324702Y-331263095D01*
X397277083Y-331358333D01*
X397277083Y-331596428D01*
X397324702Y-331691666D01*
X397372321Y-331739285D01*
X397467559Y-331786904D01*
X397705654Y-331786904D01*
X397800892Y-331739285D01*
X397848511Y-331691666D01*
X397896130Y-331596428D01*
X397896130Y-331358333D01*
X397848511Y-331263095D01*
X397800892Y-331215476D01*
X293025892Y-329882142D02*
X293073511Y-329834523D01*
X293121130Y-329691666D01*
X293121130Y-329596428D01*
X293073511Y-329453571D01*
X292978273Y-329358333D01*
X292883035Y-329310714D01*
X292692559Y-329263095D01*
X292549702Y-329263095D01*
X292359226Y-329310714D01*
X292263988Y-329358333D01*
X292168750Y-329453571D01*
X292121130Y-329596428D01*
X292121130Y-329691666D01*
X292168750Y-329834523D01*
X292216369Y-329882142D01*
X292121130Y-330786904D02*
X292121130Y-330310714D01*
X292597321Y-330263095D01*
X292549702Y-330310714D01*
X292502083Y-330405952D01*
X292502083Y-330644047D01*
X292549702Y-330739285D01*
X292597321Y-330786904D01*
X292692559Y-330834523D01*
X292930654Y-330834523D01*
X293025892Y-330786904D01*
X293073511Y-330739285D01*
X293121130Y-330644047D01*
X293121130Y-330405952D01*
X293073511Y-330310714D01*
X293025892Y-330263095D01*
X292121130Y-331691666D02*
X292121130Y-331501190D01*
X292168750Y-331405952D01*
X292216369Y-331358333D01*
X292359226Y-331263095D01*
X292549702Y-331215476D01*
X292930654Y-331215476D01*
X293025892Y-331263095D01*
X293073511Y-331310714D01*
X293121130Y-331405952D01*
X293121130Y-331596428D01*
X293073511Y-331691666D01*
X293025892Y-331739285D01*
X292930654Y-331786904D01*
X292692559Y-331786904D01*
X292597321Y-331739285D01*
X292549702Y-331691666D01*
X292502083Y-331596428D01*
X292502083Y-331405952D01*
X292549702Y-331310714D01*
X292597321Y-331263095D01*
X292692559Y-331215476D01*
X257307142Y-272732142D02*
X257354761Y-272684523D01*
X257402380Y-272541666D01*
X257402380Y-272446428D01*
X257354761Y-272303571D01*
X257259523Y-272208333D01*
X257164285Y-272160714D01*
X256973809Y-272113095D01*
X256830952Y-272113095D01*
X256640476Y-272160714D01*
X256545238Y-272208333D01*
X256450000Y-272303571D01*
X256402380Y-272446428D01*
X256402380Y-272541666D01*
X256450000Y-272684523D01*
X256497619Y-272732142D01*
X256402380Y-273636904D02*
X256402380Y-273160714D01*
X256878571Y-273113095D01*
X256830952Y-273160714D01*
X256783333Y-273255952D01*
X256783333Y-273494047D01*
X256830952Y-273589285D01*
X256878571Y-273636904D01*
X256973809Y-273684523D01*
X257211904Y-273684523D01*
X257307142Y-273636904D01*
X257354761Y-273589285D01*
X257402380Y-273494047D01*
X257402380Y-273255952D01*
X257354761Y-273160714D01*
X257307142Y-273113095D01*
X256402380Y-274017857D02*
X256402380Y-274684523D01*
X257402380Y-274255952D01*
X314457142Y-272732142D02*
X314504761Y-272684523D01*
X314552380Y-272541666D01*
X314552380Y-272446428D01*
X314504761Y-272303571D01*
X314409523Y-272208333D01*
X314314285Y-272160714D01*
X314123809Y-272113095D01*
X313980952Y-272113095D01*
X313790476Y-272160714D01*
X313695238Y-272208333D01*
X313600000Y-272303571D01*
X313552380Y-272446428D01*
X313552380Y-272541666D01*
X313600000Y-272684523D01*
X313647619Y-272732142D01*
X313552380Y-273636904D02*
X313552380Y-273160714D01*
X314028571Y-273113095D01*
X313980952Y-273160714D01*
X313933333Y-273255952D01*
X313933333Y-273494047D01*
X313980952Y-273589285D01*
X314028571Y-273636904D01*
X314123809Y-273684523D01*
X314361904Y-273684523D01*
X314457142Y-273636904D01*
X314504761Y-273589285D01*
X314552380Y-273494047D01*
X314552380Y-273255952D01*
X314504761Y-273160714D01*
X314457142Y-273113095D01*
X313980952Y-274255952D02*
X313933333Y-274160714D01*
X313885714Y-274113095D01*
X313790476Y-274065476D01*
X313742857Y-274065476D01*
X313647619Y-274113095D01*
X313600000Y-274160714D01*
X313552380Y-274255952D01*
X313552380Y-274446428D01*
X313600000Y-274541666D01*
X313647619Y-274589285D01*
X313742857Y-274636904D01*
X313790476Y-274636904D01*
X313885714Y-274589285D01*
X313933333Y-274541666D01*
X313980952Y-274446428D01*
X313980952Y-274255952D01*
X314028571Y-274160714D01*
X314076190Y-274113095D01*
X314171428Y-274065476D01*
X314361904Y-274065476D01*
X314457142Y-274113095D01*
X314504761Y-274160714D01*
X314552380Y-274255952D01*
X314552380Y-274446428D01*
X314504761Y-274541666D01*
X314457142Y-274589285D01*
X314361904Y-274636904D01*
X314171428Y-274636904D01*
X314076190Y-274589285D01*
X314028571Y-274541666D01*
X313980952Y-274446428D01*
X462094642Y-291782142D02*
X462142261Y-291734523D01*
X462189880Y-291591666D01*
X462189880Y-291496428D01*
X462142261Y-291353571D01*
X462047023Y-291258333D01*
X461951785Y-291210714D01*
X461761309Y-291163095D01*
X461618452Y-291163095D01*
X461427976Y-291210714D01*
X461332738Y-291258333D01*
X461237500Y-291353571D01*
X461189880Y-291496428D01*
X461189880Y-291591666D01*
X461237500Y-291734523D01*
X461285119Y-291782142D01*
X461189880Y-292686904D02*
X461189880Y-292210714D01*
X461666071Y-292163095D01*
X461618452Y-292210714D01*
X461570833Y-292305952D01*
X461570833Y-292544047D01*
X461618452Y-292639285D01*
X461666071Y-292686904D01*
X461761309Y-292734523D01*
X461999404Y-292734523D01*
X462094642Y-292686904D01*
X462142261Y-292639285D01*
X462189880Y-292544047D01*
X462189880Y-292305952D01*
X462142261Y-292210714D01*
X462094642Y-292163095D01*
X462189880Y-293210714D02*
X462189880Y-293401190D01*
X462142261Y-293496428D01*
X462094642Y-293544047D01*
X461951785Y-293639285D01*
X461761309Y-293686904D01*
X461380357Y-293686904D01*
X461285119Y-293639285D01*
X461237500Y-293591666D01*
X461189880Y-293496428D01*
X461189880Y-293305952D01*
X461237500Y-293210714D01*
X461285119Y-293163095D01*
X461380357Y-293115476D01*
X461618452Y-293115476D01*
X461713690Y-293163095D01*
X461761309Y-293210714D01*
X461808928Y-293305952D01*
X461808928Y-293496428D01*
X461761309Y-293591666D01*
X461713690Y-293639285D01*
X461618452Y-293686904D01*
X252544642Y-310832142D02*
X252592261Y-310784523D01*
X252639880Y-310641666D01*
X252639880Y-310546428D01*
X252592261Y-310403571D01*
X252497023Y-310308333D01*
X252401785Y-310260714D01*
X252211309Y-310213095D01*
X252068452Y-310213095D01*
X251877976Y-310260714D01*
X251782738Y-310308333D01*
X251687500Y-310403571D01*
X251639880Y-310546428D01*
X251639880Y-310641666D01*
X251687500Y-310784523D01*
X251735119Y-310832142D01*
X251639880Y-311689285D02*
X251639880Y-311498809D01*
X251687500Y-311403571D01*
X251735119Y-311355952D01*
X251877976Y-311260714D01*
X252068452Y-311213095D01*
X252449404Y-311213095D01*
X252544642Y-311260714D01*
X252592261Y-311308333D01*
X252639880Y-311403571D01*
X252639880Y-311594047D01*
X252592261Y-311689285D01*
X252544642Y-311736904D01*
X252449404Y-311784523D01*
X252211309Y-311784523D01*
X252116071Y-311736904D01*
X252068452Y-311689285D01*
X252020833Y-311594047D01*
X252020833Y-311403571D01*
X252068452Y-311308333D01*
X252116071Y-311260714D01*
X252211309Y-311213095D01*
X251639880Y-312403571D02*
X251639880Y-312498809D01*
X251687500Y-312594047D01*
X251735119Y-312641666D01*
X251830357Y-312689285D01*
X252020833Y-312736904D01*
X252258928Y-312736904D01*
X252449404Y-312689285D01*
X252544642Y-312641666D01*
X252592261Y-312594047D01*
X252639880Y-312498809D01*
X252639880Y-312403571D01*
X252592261Y-312308333D01*
X252544642Y-312260714D01*
X252449404Y-312213095D01*
X252258928Y-312165476D01*
X252020833Y-312165476D01*
X251830357Y-312213095D01*
X251735119Y-312260714D01*
X251687500Y-312308333D01*
X251639880Y-312403571D01*
X323982142Y-253682142D02*
X324029761Y-253634523D01*
X324077380Y-253491666D01*
X324077380Y-253396428D01*
X324029761Y-253253571D01*
X323934523Y-253158333D01*
X323839285Y-253110714D01*
X323648809Y-253063095D01*
X323505952Y-253063095D01*
X323315476Y-253110714D01*
X323220238Y-253158333D01*
X323125000Y-253253571D01*
X323077380Y-253396428D01*
X323077380Y-253491666D01*
X323125000Y-253634523D01*
X323172619Y-253682142D01*
X323077380Y-254539285D02*
X323077380Y-254348809D01*
X323125000Y-254253571D01*
X323172619Y-254205952D01*
X323315476Y-254110714D01*
X323505952Y-254063095D01*
X323886904Y-254063095D01*
X323982142Y-254110714D01*
X324029761Y-254158333D01*
X324077380Y-254253571D01*
X324077380Y-254444047D01*
X324029761Y-254539285D01*
X323982142Y-254586904D01*
X323886904Y-254634523D01*
X323648809Y-254634523D01*
X323553571Y-254586904D01*
X323505952Y-254539285D01*
X323458333Y-254444047D01*
X323458333Y-254253571D01*
X323505952Y-254158333D01*
X323553571Y-254110714D01*
X323648809Y-254063095D01*
X324077380Y-255586904D02*
X324077380Y-255015476D01*
X324077380Y-255301190D02*
X323077380Y-255301190D01*
X323220238Y-255205952D01*
X323315476Y-255110714D01*
X323363095Y-255015476D01*
X381132142Y-225107142D02*
X381179761Y-225059523D01*
X381227380Y-224916666D01*
X381227380Y-224821428D01*
X381179761Y-224678571D01*
X381084523Y-224583333D01*
X380989285Y-224535714D01*
X380798809Y-224488095D01*
X380655952Y-224488095D01*
X380465476Y-224535714D01*
X380370238Y-224583333D01*
X380275000Y-224678571D01*
X380227380Y-224821428D01*
X380227380Y-224916666D01*
X380275000Y-225059523D01*
X380322619Y-225107142D01*
X380227380Y-225964285D02*
X380227380Y-225773809D01*
X380275000Y-225678571D01*
X380322619Y-225630952D01*
X380465476Y-225535714D01*
X380655952Y-225488095D01*
X381036904Y-225488095D01*
X381132142Y-225535714D01*
X381179761Y-225583333D01*
X381227380Y-225678571D01*
X381227380Y-225869047D01*
X381179761Y-225964285D01*
X381132142Y-226011904D01*
X381036904Y-226059523D01*
X380798809Y-226059523D01*
X380703571Y-226011904D01*
X380655952Y-225964285D01*
X380608333Y-225869047D01*
X380608333Y-225678571D01*
X380655952Y-225583333D01*
X380703571Y-225535714D01*
X380798809Y-225488095D01*
X380322619Y-226440476D02*
X380275000Y-226488095D01*
X380227380Y-226583333D01*
X380227380Y-226821428D01*
X380275000Y-226916666D01*
X380322619Y-226964285D01*
X380417857Y-227011904D01*
X380513095Y-227011904D01*
X380655952Y-226964285D01*
X381227380Y-226392857D01*
X381227380Y-227011904D01*
X290644642Y-310832142D02*
X290692261Y-310784523D01*
X290739880Y-310641666D01*
X290739880Y-310546428D01*
X290692261Y-310403571D01*
X290597023Y-310308333D01*
X290501785Y-310260714D01*
X290311309Y-310213095D01*
X290168452Y-310213095D01*
X289977976Y-310260714D01*
X289882738Y-310308333D01*
X289787500Y-310403571D01*
X289739880Y-310546428D01*
X289739880Y-310641666D01*
X289787500Y-310784523D01*
X289835119Y-310832142D01*
X289739880Y-311689285D02*
X289739880Y-311498809D01*
X289787500Y-311403571D01*
X289835119Y-311355952D01*
X289977976Y-311260714D01*
X290168452Y-311213095D01*
X290549404Y-311213095D01*
X290644642Y-311260714D01*
X290692261Y-311308333D01*
X290739880Y-311403571D01*
X290739880Y-311594047D01*
X290692261Y-311689285D01*
X290644642Y-311736904D01*
X290549404Y-311784523D01*
X290311309Y-311784523D01*
X290216071Y-311736904D01*
X290168452Y-311689285D01*
X290120833Y-311594047D01*
X290120833Y-311403571D01*
X290168452Y-311308333D01*
X290216071Y-311260714D01*
X290311309Y-311213095D01*
X289739880Y-312117857D02*
X289739880Y-312736904D01*
X290120833Y-312403571D01*
X290120833Y-312546428D01*
X290168452Y-312641666D01*
X290216071Y-312689285D01*
X290311309Y-312736904D01*
X290549404Y-312736904D01*
X290644642Y-312689285D01*
X290692261Y-312641666D01*
X290739880Y-312546428D01*
X290739880Y-312260714D01*
X290692261Y-312165476D01*
X290644642Y-312117857D01*
X362082142Y-253682142D02*
X362129761Y-253634523D01*
X362177380Y-253491666D01*
X362177380Y-253396428D01*
X362129761Y-253253571D01*
X362034523Y-253158333D01*
X361939285Y-253110714D01*
X361748809Y-253063095D01*
X361605952Y-253063095D01*
X361415476Y-253110714D01*
X361320238Y-253158333D01*
X361225000Y-253253571D01*
X361177380Y-253396428D01*
X361177380Y-253491666D01*
X361225000Y-253634523D01*
X361272619Y-253682142D01*
X361177380Y-254539285D02*
X361177380Y-254348809D01*
X361225000Y-254253571D01*
X361272619Y-254205952D01*
X361415476Y-254110714D01*
X361605952Y-254063095D01*
X361986904Y-254063095D01*
X362082142Y-254110714D01*
X362129761Y-254158333D01*
X362177380Y-254253571D01*
X362177380Y-254444047D01*
X362129761Y-254539285D01*
X362082142Y-254586904D01*
X361986904Y-254634523D01*
X361748809Y-254634523D01*
X361653571Y-254586904D01*
X361605952Y-254539285D01*
X361558333Y-254444047D01*
X361558333Y-254253571D01*
X361605952Y-254158333D01*
X361653571Y-254110714D01*
X361748809Y-254063095D01*
X361510714Y-255491666D02*
X362177380Y-255491666D01*
X361129761Y-255253571D02*
X361844047Y-255015476D01*
X361844047Y-255634523D01*
X423994642Y-291782142D02*
X424042261Y-291734523D01*
X424089880Y-291591666D01*
X424089880Y-291496428D01*
X424042261Y-291353571D01*
X423947023Y-291258333D01*
X423851785Y-291210714D01*
X423661309Y-291163095D01*
X423518452Y-291163095D01*
X423327976Y-291210714D01*
X423232738Y-291258333D01*
X423137500Y-291353571D01*
X423089880Y-291496428D01*
X423089880Y-291591666D01*
X423137500Y-291734523D01*
X423185119Y-291782142D01*
X423089880Y-292639285D02*
X423089880Y-292448809D01*
X423137500Y-292353571D01*
X423185119Y-292305952D01*
X423327976Y-292210714D01*
X423518452Y-292163095D01*
X423899404Y-292163095D01*
X423994642Y-292210714D01*
X424042261Y-292258333D01*
X424089880Y-292353571D01*
X424089880Y-292544047D01*
X424042261Y-292639285D01*
X423994642Y-292686904D01*
X423899404Y-292734523D01*
X423661309Y-292734523D01*
X423566071Y-292686904D01*
X423518452Y-292639285D01*
X423470833Y-292544047D01*
X423470833Y-292353571D01*
X423518452Y-292258333D01*
X423566071Y-292210714D01*
X423661309Y-292163095D01*
X423089880Y-293639285D02*
X423089880Y-293163095D01*
X423566071Y-293115476D01*
X423518452Y-293163095D01*
X423470833Y-293258333D01*
X423470833Y-293496428D01*
X423518452Y-293591666D01*
X423566071Y-293639285D01*
X423661309Y-293686904D01*
X423899404Y-293686904D01*
X423994642Y-293639285D01*
X424042261Y-293591666D01*
X424089880Y-293496428D01*
X424089880Y-293258333D01*
X424042261Y-293163095D01*
X423994642Y-293115476D01*
X133482142Y-225107142D02*
X133529761Y-225059523D01*
X133577380Y-224916666D01*
X133577380Y-224821428D01*
X133529761Y-224678571D01*
X133434523Y-224583333D01*
X133339285Y-224535714D01*
X133148809Y-224488095D01*
X133005952Y-224488095D01*
X132815476Y-224535714D01*
X132720238Y-224583333D01*
X132625000Y-224678571D01*
X132577380Y-224821428D01*
X132577380Y-224916666D01*
X132625000Y-225059523D01*
X132672619Y-225107142D01*
X132577380Y-225964285D02*
X132577380Y-225773809D01*
X132625000Y-225678571D01*
X132672619Y-225630952D01*
X132815476Y-225535714D01*
X133005952Y-225488095D01*
X133386904Y-225488095D01*
X133482142Y-225535714D01*
X133529761Y-225583333D01*
X133577380Y-225678571D01*
X133577380Y-225869047D01*
X133529761Y-225964285D01*
X133482142Y-226011904D01*
X133386904Y-226059523D01*
X133148809Y-226059523D01*
X133053571Y-226011904D01*
X133005952Y-225964285D01*
X132958333Y-225869047D01*
X132958333Y-225678571D01*
X133005952Y-225583333D01*
X133053571Y-225535714D01*
X133148809Y-225488095D01*
X132577380Y-226916666D02*
X132577380Y-226726190D01*
X132625000Y-226630952D01*
X132672619Y-226583333D01*
X132815476Y-226488095D01*
X133005952Y-226440476D01*
X133386904Y-226440476D01*
X133482142Y-226488095D01*
X133529761Y-226535714D01*
X133577380Y-226630952D01*
X133577380Y-226821428D01*
X133529761Y-226916666D01*
X133482142Y-226964285D01*
X133386904Y-227011904D01*
X133148809Y-227011904D01*
X133053571Y-226964285D01*
X133005952Y-226916666D01*
X132958333Y-226821428D01*
X132958333Y-226630952D01*
X133005952Y-226535714D01*
X133053571Y-226488095D01*
X133148809Y-226440476D01*
X228732142Y-253682142D02*
X228779761Y-253634523D01*
X228827380Y-253491666D01*
X228827380Y-253396428D01*
X228779761Y-253253571D01*
X228684523Y-253158333D01*
X228589285Y-253110714D01*
X228398809Y-253063095D01*
X228255952Y-253063095D01*
X228065476Y-253110714D01*
X227970238Y-253158333D01*
X227875000Y-253253571D01*
X227827380Y-253396428D01*
X227827380Y-253491666D01*
X227875000Y-253634523D01*
X227922619Y-253682142D01*
X227827380Y-254539285D02*
X227827380Y-254348809D01*
X227875000Y-254253571D01*
X227922619Y-254205952D01*
X228065476Y-254110714D01*
X228255952Y-254063095D01*
X228636904Y-254063095D01*
X228732142Y-254110714D01*
X228779761Y-254158333D01*
X228827380Y-254253571D01*
X228827380Y-254444047D01*
X228779761Y-254539285D01*
X228732142Y-254586904D01*
X228636904Y-254634523D01*
X228398809Y-254634523D01*
X228303571Y-254586904D01*
X228255952Y-254539285D01*
X228208333Y-254444047D01*
X228208333Y-254253571D01*
X228255952Y-254158333D01*
X228303571Y-254110714D01*
X228398809Y-254063095D01*
X227827380Y-254967857D02*
X227827380Y-255634523D01*
X228827380Y-255205952D01*
X159675892Y-329882142D02*
X159723511Y-329834523D01*
X159771130Y-329691666D01*
X159771130Y-329596428D01*
X159723511Y-329453571D01*
X159628273Y-329358333D01*
X159533035Y-329310714D01*
X159342559Y-329263095D01*
X159199702Y-329263095D01*
X159009226Y-329310714D01*
X158913988Y-329358333D01*
X158818750Y-329453571D01*
X158771130Y-329596428D01*
X158771130Y-329691666D01*
X158818750Y-329834523D01*
X158866369Y-329882142D01*
X158771130Y-330739285D02*
X158771130Y-330548809D01*
X158818750Y-330453571D01*
X158866369Y-330405952D01*
X159009226Y-330310714D01*
X159199702Y-330263095D01*
X159580654Y-330263095D01*
X159675892Y-330310714D01*
X159723511Y-330358333D01*
X159771130Y-330453571D01*
X159771130Y-330644047D01*
X159723511Y-330739285D01*
X159675892Y-330786904D01*
X159580654Y-330834523D01*
X159342559Y-330834523D01*
X159247321Y-330786904D01*
X159199702Y-330739285D01*
X159152083Y-330644047D01*
X159152083Y-330453571D01*
X159199702Y-330358333D01*
X159247321Y-330310714D01*
X159342559Y-330263095D01*
X159199702Y-331405952D02*
X159152083Y-331310714D01*
X159104464Y-331263095D01*
X159009226Y-331215476D01*
X158961607Y-331215476D01*
X158866369Y-331263095D01*
X158818750Y-331310714D01*
X158771130Y-331405952D01*
X158771130Y-331596428D01*
X158818750Y-331691666D01*
X158866369Y-331739285D01*
X158961607Y-331786904D01*
X159009226Y-331786904D01*
X159104464Y-331739285D01*
X159152083Y-331691666D01*
X159199702Y-331596428D01*
X159199702Y-331405952D01*
X159247321Y-331310714D01*
X159294940Y-331263095D01*
X159390178Y-331215476D01*
X159580654Y-331215476D01*
X159675892Y-331263095D01*
X159723511Y-331310714D01*
X159771130Y-331405952D01*
X159771130Y-331596428D01*
X159723511Y-331691666D01*
X159675892Y-331739285D01*
X159580654Y-331786904D01*
X159390178Y-331786904D01*
X159294940Y-331739285D01*
X159247321Y-331691666D01*
X159199702Y-331596428D01*
X314457142Y-225107142D02*
X314504761Y-225059523D01*
X314552380Y-224916666D01*
X314552380Y-224821428D01*
X314504761Y-224678571D01*
X314409523Y-224583333D01*
X314314285Y-224535714D01*
X314123809Y-224488095D01*
X313980952Y-224488095D01*
X313790476Y-224535714D01*
X313695238Y-224583333D01*
X313600000Y-224678571D01*
X313552380Y-224821428D01*
X313552380Y-224916666D01*
X313600000Y-225059523D01*
X313647619Y-225107142D01*
X313552380Y-225964285D02*
X313552380Y-225773809D01*
X313600000Y-225678571D01*
X313647619Y-225630952D01*
X313790476Y-225535714D01*
X313980952Y-225488095D01*
X314361904Y-225488095D01*
X314457142Y-225535714D01*
X314504761Y-225583333D01*
X314552380Y-225678571D01*
X314552380Y-225869047D01*
X314504761Y-225964285D01*
X314457142Y-226011904D01*
X314361904Y-226059523D01*
X314123809Y-226059523D01*
X314028571Y-226011904D01*
X313980952Y-225964285D01*
X313933333Y-225869047D01*
X313933333Y-225678571D01*
X313980952Y-225583333D01*
X314028571Y-225535714D01*
X314123809Y-225488095D01*
X314552380Y-226535714D02*
X314552380Y-226726190D01*
X314504761Y-226821428D01*
X314457142Y-226869047D01*
X314314285Y-226964285D01*
X314123809Y-227011904D01*
X313742857Y-227011904D01*
X313647619Y-226964285D01*
X313600000Y-226916666D01*
X313552380Y-226821428D01*
X313552380Y-226630952D01*
X313600000Y-226535714D01*
X313647619Y-226488095D01*
X313742857Y-226440476D01*
X313980952Y-226440476D01*
X314076190Y-226488095D01*
X314123809Y-226535714D01*
X314171428Y-226630952D01*
X314171428Y-226821428D01*
X314123809Y-226916666D01*
X314076190Y-226964285D01*
X313980952Y-227011904D01*
X462094642Y-310832142D02*
X462142261Y-310784523D01*
X462189880Y-310641666D01*
X462189880Y-310546428D01*
X462142261Y-310403571D01*
X462047023Y-310308333D01*
X461951785Y-310260714D01*
X461761309Y-310213095D01*
X461618452Y-310213095D01*
X461427976Y-310260714D01*
X461332738Y-310308333D01*
X461237500Y-310403571D01*
X461189880Y-310546428D01*
X461189880Y-310641666D01*
X461237500Y-310784523D01*
X461285119Y-310832142D01*
X461189880Y-311165476D02*
X461189880Y-311832142D01*
X462189880Y-311403571D01*
X462189880Y-312736904D02*
X462189880Y-312165476D01*
X462189880Y-312451190D02*
X461189880Y-312451190D01*
X461332738Y-312355952D01*
X461427976Y-312260714D01*
X461475595Y-312165476D01*
X326363392Y-329882142D02*
X326411011Y-329834523D01*
X326458630Y-329691666D01*
X326458630Y-329596428D01*
X326411011Y-329453571D01*
X326315773Y-329358333D01*
X326220535Y-329310714D01*
X326030059Y-329263095D01*
X325887202Y-329263095D01*
X325696726Y-329310714D01*
X325601488Y-329358333D01*
X325506250Y-329453571D01*
X325458630Y-329596428D01*
X325458630Y-329691666D01*
X325506250Y-329834523D01*
X325553869Y-329882142D01*
X325458630Y-330215476D02*
X325458630Y-330882142D01*
X326458630Y-330453571D01*
X325553869Y-331215476D02*
X325506250Y-331263095D01*
X325458630Y-331358333D01*
X325458630Y-331596428D01*
X325506250Y-331691666D01*
X325553869Y-331739285D01*
X325649107Y-331786904D01*
X325744345Y-331786904D01*
X325887202Y-331739285D01*
X326458630Y-331167857D01*
X326458630Y-331786904D01*
X390657142Y-253682142D02*
X390704761Y-253634523D01*
X390752380Y-253491666D01*
X390752380Y-253396428D01*
X390704761Y-253253571D01*
X390609523Y-253158333D01*
X390514285Y-253110714D01*
X390323809Y-253063095D01*
X390180952Y-253063095D01*
X389990476Y-253110714D01*
X389895238Y-253158333D01*
X389800000Y-253253571D01*
X389752380Y-253396428D01*
X389752380Y-253491666D01*
X389800000Y-253634523D01*
X389847619Y-253682142D01*
X389752380Y-254015476D02*
X389752380Y-254682142D01*
X390752380Y-254253571D01*
X389752380Y-255491666D02*
X389752380Y-255301190D01*
X389800000Y-255205952D01*
X389847619Y-255158333D01*
X389990476Y-255063095D01*
X390180952Y-255015476D01*
X390561904Y-255015476D01*
X390657142Y-255063095D01*
X390704761Y-255110714D01*
X390752380Y-255205952D01*
X390752380Y-255396428D01*
X390704761Y-255491666D01*
X390657142Y-255539285D01*
X390561904Y-255586904D01*
X390323809Y-255586904D01*
X390228571Y-255539285D01*
X390180952Y-255491666D01*
X390133333Y-255396428D01*
X390133333Y-255205952D01*
X390180952Y-255110714D01*
X390228571Y-255063095D01*
X390323809Y-255015476D01*
X209682142Y-253682142D02*
X209729761Y-253634523D01*
X209777380Y-253491666D01*
X209777380Y-253396428D01*
X209729761Y-253253571D01*
X209634523Y-253158333D01*
X209539285Y-253110714D01*
X209348809Y-253063095D01*
X209205952Y-253063095D01*
X209015476Y-253110714D01*
X208920238Y-253158333D01*
X208825000Y-253253571D01*
X208777380Y-253396428D01*
X208777380Y-253491666D01*
X208825000Y-253634523D01*
X208872619Y-253682142D01*
X208777380Y-254015476D02*
X208777380Y-254682142D01*
X209777380Y-254253571D01*
X208777380Y-254967857D02*
X208777380Y-255634523D01*
X209777380Y-255205952D01*
X395419642Y-272732142D02*
X395467261Y-272684523D01*
X395514880Y-272541666D01*
X395514880Y-272446428D01*
X395467261Y-272303571D01*
X395372023Y-272208333D01*
X395276785Y-272160714D01*
X395086309Y-272113095D01*
X394943452Y-272113095D01*
X394752976Y-272160714D01*
X394657738Y-272208333D01*
X394562500Y-272303571D01*
X394514880Y-272446428D01*
X394514880Y-272541666D01*
X394562500Y-272684523D01*
X394610119Y-272732142D01*
X394514880Y-273065476D02*
X394514880Y-273732142D01*
X395514880Y-273303571D01*
X395514880Y-274160714D02*
X395514880Y-274351190D01*
X395467261Y-274446428D01*
X395419642Y-274494047D01*
X395276785Y-274589285D01*
X395086309Y-274636904D01*
X394705357Y-274636904D01*
X394610119Y-274589285D01*
X394562500Y-274541666D01*
X394514880Y-274446428D01*
X394514880Y-274255952D01*
X394562500Y-274160714D01*
X394610119Y-274113095D01*
X394705357Y-274065476D01*
X394943452Y-274065476D01*
X395038690Y-274113095D01*
X395086309Y-274160714D01*
X395133928Y-274255952D01*
X395133928Y-274446428D01*
X395086309Y-274541666D01*
X395038690Y-274589285D01*
X394943452Y-274636904D01*
X209682142Y-225107142D02*
X209729761Y-225059523D01*
X209777380Y-224916666D01*
X209777380Y-224821428D01*
X209729761Y-224678571D01*
X209634523Y-224583333D01*
X209539285Y-224535714D01*
X209348809Y-224488095D01*
X209205952Y-224488095D01*
X209015476Y-224535714D01*
X208920238Y-224583333D01*
X208825000Y-224678571D01*
X208777380Y-224821428D01*
X208777380Y-224916666D01*
X208825000Y-225059523D01*
X208872619Y-225107142D01*
X209205952Y-225678571D02*
X209158333Y-225583333D01*
X209110714Y-225535714D01*
X209015476Y-225488095D01*
X208967857Y-225488095D01*
X208872619Y-225535714D01*
X208825000Y-225583333D01*
X208777380Y-225678571D01*
X208777380Y-225869047D01*
X208825000Y-225964285D01*
X208872619Y-226011904D01*
X208967857Y-226059523D01*
X209015476Y-226059523D01*
X209110714Y-226011904D01*
X209158333Y-225964285D01*
X209205952Y-225869047D01*
X209205952Y-225678571D01*
X209253571Y-225583333D01*
X209301190Y-225535714D01*
X209396428Y-225488095D01*
X209586904Y-225488095D01*
X209682142Y-225535714D01*
X209729761Y-225583333D01*
X209777380Y-225678571D01*
X209777380Y-225869047D01*
X209729761Y-225964285D01*
X209682142Y-226011904D01*
X209586904Y-226059523D01*
X209396428Y-226059523D01*
X209301190Y-226011904D01*
X209253571Y-225964285D01*
X209205952Y-225869047D01*
X208777380Y-226678571D02*
X208777380Y-226773809D01*
X208825000Y-226869047D01*
X208872619Y-226916666D01*
X208967857Y-226964285D01*
X209158333Y-227011904D01*
X209396428Y-227011904D01*
X209586904Y-226964285D01*
X209682142Y-226916666D01*
X209729761Y-226869047D01*
X209777380Y-226773809D01*
X209777380Y-226678571D01*
X209729761Y-226583333D01*
X209682142Y-226535714D01*
X209586904Y-226488095D01*
X209396428Y-226440476D01*
X209158333Y-226440476D01*
X208967857Y-226488095D01*
X208872619Y-226535714D01*
X208825000Y-226583333D01*
X208777380Y-226678571D01*
X254925892Y-329882142D02*
X254973511Y-329834523D01*
X255021130Y-329691666D01*
X255021130Y-329596428D01*
X254973511Y-329453571D01*
X254878273Y-329358333D01*
X254783035Y-329310714D01*
X254592559Y-329263095D01*
X254449702Y-329263095D01*
X254259226Y-329310714D01*
X254163988Y-329358333D01*
X254068750Y-329453571D01*
X254021130Y-329596428D01*
X254021130Y-329691666D01*
X254068750Y-329834523D01*
X254116369Y-329882142D01*
X254449702Y-330453571D02*
X254402083Y-330358333D01*
X254354464Y-330310714D01*
X254259226Y-330263095D01*
X254211607Y-330263095D01*
X254116369Y-330310714D01*
X254068750Y-330358333D01*
X254021130Y-330453571D01*
X254021130Y-330644047D01*
X254068750Y-330739285D01*
X254116369Y-330786904D01*
X254211607Y-330834523D01*
X254259226Y-330834523D01*
X254354464Y-330786904D01*
X254402083Y-330739285D01*
X254449702Y-330644047D01*
X254449702Y-330453571D01*
X254497321Y-330358333D01*
X254544940Y-330310714D01*
X254640178Y-330263095D01*
X254830654Y-330263095D01*
X254925892Y-330310714D01*
X254973511Y-330358333D01*
X255021130Y-330453571D01*
X255021130Y-330644047D01*
X254973511Y-330739285D01*
X254925892Y-330786904D01*
X254830654Y-330834523D01*
X254640178Y-330834523D01*
X254544940Y-330786904D01*
X254497321Y-330739285D01*
X254449702Y-330644047D01*
X255021130Y-331786904D02*
X255021130Y-331215476D01*
X255021130Y-331501190D02*
X254021130Y-331501190D01*
X254163988Y-331405952D01*
X254259226Y-331310714D01*
X254306845Y-331215476D01*
X223969642Y-291782142D02*
X224017261Y-291734523D01*
X224064880Y-291591666D01*
X224064880Y-291496428D01*
X224017261Y-291353571D01*
X223922023Y-291258333D01*
X223826785Y-291210714D01*
X223636309Y-291163095D01*
X223493452Y-291163095D01*
X223302976Y-291210714D01*
X223207738Y-291258333D01*
X223112500Y-291353571D01*
X223064880Y-291496428D01*
X223064880Y-291591666D01*
X223112500Y-291734523D01*
X223160119Y-291782142D01*
X223493452Y-292353571D02*
X223445833Y-292258333D01*
X223398214Y-292210714D01*
X223302976Y-292163095D01*
X223255357Y-292163095D01*
X223160119Y-292210714D01*
X223112500Y-292258333D01*
X223064880Y-292353571D01*
X223064880Y-292544047D01*
X223112500Y-292639285D01*
X223160119Y-292686904D01*
X223255357Y-292734523D01*
X223302976Y-292734523D01*
X223398214Y-292686904D01*
X223445833Y-292639285D01*
X223493452Y-292544047D01*
X223493452Y-292353571D01*
X223541071Y-292258333D01*
X223588690Y-292210714D01*
X223683928Y-292163095D01*
X223874404Y-292163095D01*
X223969642Y-292210714D01*
X224017261Y-292258333D01*
X224064880Y-292353571D01*
X224064880Y-292544047D01*
X224017261Y-292639285D01*
X223969642Y-292686904D01*
X223874404Y-292734523D01*
X223683928Y-292734523D01*
X223588690Y-292686904D01*
X223541071Y-292639285D01*
X223493452Y-292544047D01*
X223160119Y-293115476D02*
X223112500Y-293163095D01*
X223064880Y-293258333D01*
X223064880Y-293496428D01*
X223112500Y-293591666D01*
X223160119Y-293639285D01*
X223255357Y-293686904D01*
X223350595Y-293686904D01*
X223493452Y-293639285D01*
X224064880Y-293067857D01*
X224064880Y-293686904D01*
X343032142Y-225107142D02*
X343079761Y-225059523D01*
X343127380Y-224916666D01*
X343127380Y-224821428D01*
X343079761Y-224678571D01*
X342984523Y-224583333D01*
X342889285Y-224535714D01*
X342698809Y-224488095D01*
X342555952Y-224488095D01*
X342365476Y-224535714D01*
X342270238Y-224583333D01*
X342175000Y-224678571D01*
X342127380Y-224821428D01*
X342127380Y-224916666D01*
X342175000Y-225059523D01*
X342222619Y-225107142D01*
X342555952Y-225678571D02*
X342508333Y-225583333D01*
X342460714Y-225535714D01*
X342365476Y-225488095D01*
X342317857Y-225488095D01*
X342222619Y-225535714D01*
X342175000Y-225583333D01*
X342127380Y-225678571D01*
X342127380Y-225869047D01*
X342175000Y-225964285D01*
X342222619Y-226011904D01*
X342317857Y-226059523D01*
X342365476Y-226059523D01*
X342460714Y-226011904D01*
X342508333Y-225964285D01*
X342555952Y-225869047D01*
X342555952Y-225678571D01*
X342603571Y-225583333D01*
X342651190Y-225535714D01*
X342746428Y-225488095D01*
X342936904Y-225488095D01*
X343032142Y-225535714D01*
X343079761Y-225583333D01*
X343127380Y-225678571D01*
X343127380Y-225869047D01*
X343079761Y-225964285D01*
X343032142Y-226011904D01*
X342936904Y-226059523D01*
X342746428Y-226059523D01*
X342651190Y-226011904D01*
X342603571Y-225964285D01*
X342555952Y-225869047D01*
X342127380Y-226392857D02*
X342127380Y-227011904D01*
X342508333Y-226678571D01*
X342508333Y-226821428D01*
X342555952Y-226916666D01*
X342603571Y-226964285D01*
X342698809Y-227011904D01*
X342936904Y-227011904D01*
X343032142Y-226964285D01*
X343079761Y-226916666D01*
X343127380Y-226821428D01*
X343127380Y-226535714D01*
X343079761Y-226440476D01*
X343032142Y-226392857D01*
X423994642Y-329882142D02*
X424042261Y-329834523D01*
X424089880Y-329691666D01*
X424089880Y-329596428D01*
X424042261Y-329453571D01*
X423947023Y-329358333D01*
X423851785Y-329310714D01*
X423661309Y-329263095D01*
X423518452Y-329263095D01*
X423327976Y-329310714D01*
X423232738Y-329358333D01*
X423137500Y-329453571D01*
X423089880Y-329596428D01*
X423089880Y-329691666D01*
X423137500Y-329834523D01*
X423185119Y-329882142D01*
X423518452Y-330453571D02*
X423470833Y-330358333D01*
X423423214Y-330310714D01*
X423327976Y-330263095D01*
X423280357Y-330263095D01*
X423185119Y-330310714D01*
X423137500Y-330358333D01*
X423089880Y-330453571D01*
X423089880Y-330644047D01*
X423137500Y-330739285D01*
X423185119Y-330786904D01*
X423280357Y-330834523D01*
X423327976Y-330834523D01*
X423423214Y-330786904D01*
X423470833Y-330739285D01*
X423518452Y-330644047D01*
X423518452Y-330453571D01*
X423566071Y-330358333D01*
X423613690Y-330310714D01*
X423708928Y-330263095D01*
X423899404Y-330263095D01*
X423994642Y-330310714D01*
X424042261Y-330358333D01*
X424089880Y-330453571D01*
X424089880Y-330644047D01*
X424042261Y-330739285D01*
X423994642Y-330786904D01*
X423899404Y-330834523D01*
X423708928Y-330834523D01*
X423613690Y-330786904D01*
X423566071Y-330739285D01*
X423518452Y-330644047D01*
X423089880Y-331739285D02*
X423089880Y-331263095D01*
X423566071Y-331215476D01*
X423518452Y-331263095D01*
X423470833Y-331358333D01*
X423470833Y-331596428D01*
X423518452Y-331691666D01*
X423566071Y-331739285D01*
X423661309Y-331786904D01*
X423899404Y-331786904D01*
X423994642Y-331739285D01*
X424042261Y-331691666D01*
X424089880Y-331596428D01*
X424089880Y-331358333D01*
X424042261Y-331263095D01*
X423994642Y-331215476D01*
X423994642Y-310832142D02*
X424042261Y-310784523D01*
X424089880Y-310641666D01*
X424089880Y-310546428D01*
X424042261Y-310403571D01*
X423947023Y-310308333D01*
X423851785Y-310260714D01*
X423661309Y-310213095D01*
X423518452Y-310213095D01*
X423327976Y-310260714D01*
X423232738Y-310308333D01*
X423137500Y-310403571D01*
X423089880Y-310546428D01*
X423089880Y-310641666D01*
X423137500Y-310784523D01*
X423185119Y-310832142D01*
X423518452Y-311403571D02*
X423470833Y-311308333D01*
X423423214Y-311260714D01*
X423327976Y-311213095D01*
X423280357Y-311213095D01*
X423185119Y-311260714D01*
X423137500Y-311308333D01*
X423089880Y-311403571D01*
X423089880Y-311594047D01*
X423137500Y-311689285D01*
X423185119Y-311736904D01*
X423280357Y-311784523D01*
X423327976Y-311784523D01*
X423423214Y-311736904D01*
X423470833Y-311689285D01*
X423518452Y-311594047D01*
X423518452Y-311403571D01*
X423566071Y-311308333D01*
X423613690Y-311260714D01*
X423708928Y-311213095D01*
X423899404Y-311213095D01*
X423994642Y-311260714D01*
X424042261Y-311308333D01*
X424089880Y-311403571D01*
X424089880Y-311594047D01*
X424042261Y-311689285D01*
X423994642Y-311736904D01*
X423899404Y-311784523D01*
X423708928Y-311784523D01*
X423613690Y-311736904D01*
X423566071Y-311689285D01*
X423518452Y-311594047D01*
X423089880Y-312641666D02*
X423089880Y-312451190D01*
X423137500Y-312355952D01*
X423185119Y-312308333D01*
X423327976Y-312213095D01*
X423518452Y-312165476D01*
X423899404Y-312165476D01*
X423994642Y-312213095D01*
X424042261Y-312260714D01*
X424089880Y-312355952D01*
X424089880Y-312546428D01*
X424042261Y-312641666D01*
X423994642Y-312689285D01*
X423899404Y-312736904D01*
X423661309Y-312736904D01*
X423566071Y-312689285D01*
X423518452Y-312641666D01*
X423470833Y-312546428D01*
X423470833Y-312355952D01*
X423518452Y-312260714D01*
X423566071Y-312213095D01*
X423661309Y-312165476D01*
X443044642Y-291782142D02*
X443092261Y-291734523D01*
X443139880Y-291591666D01*
X443139880Y-291496428D01*
X443092261Y-291353571D01*
X442997023Y-291258333D01*
X442901785Y-291210714D01*
X442711309Y-291163095D01*
X442568452Y-291163095D01*
X442377976Y-291210714D01*
X442282738Y-291258333D01*
X442187500Y-291353571D01*
X442139880Y-291496428D01*
X442139880Y-291591666D01*
X442187500Y-291734523D01*
X442235119Y-291782142D01*
X442568452Y-292353571D02*
X442520833Y-292258333D01*
X442473214Y-292210714D01*
X442377976Y-292163095D01*
X442330357Y-292163095D01*
X442235119Y-292210714D01*
X442187500Y-292258333D01*
X442139880Y-292353571D01*
X442139880Y-292544047D01*
X442187500Y-292639285D01*
X442235119Y-292686904D01*
X442330357Y-292734523D01*
X442377976Y-292734523D01*
X442473214Y-292686904D01*
X442520833Y-292639285D01*
X442568452Y-292544047D01*
X442568452Y-292353571D01*
X442616071Y-292258333D01*
X442663690Y-292210714D01*
X442758928Y-292163095D01*
X442949404Y-292163095D01*
X443044642Y-292210714D01*
X443092261Y-292258333D01*
X443139880Y-292353571D01*
X443139880Y-292544047D01*
X443092261Y-292639285D01*
X443044642Y-292686904D01*
X442949404Y-292734523D01*
X442758928Y-292734523D01*
X442663690Y-292686904D01*
X442616071Y-292639285D01*
X442568452Y-292544047D01*
X442139880Y-293067857D02*
X442139880Y-293734523D01*
X443139880Y-293305952D01*
X266832142Y-253682142D02*
X266879761Y-253634523D01*
X266927380Y-253491666D01*
X266927380Y-253396428D01*
X266879761Y-253253571D01*
X266784523Y-253158333D01*
X266689285Y-253110714D01*
X266498809Y-253063095D01*
X266355952Y-253063095D01*
X266165476Y-253110714D01*
X266070238Y-253158333D01*
X265975000Y-253253571D01*
X265927380Y-253396428D01*
X265927380Y-253491666D01*
X265975000Y-253634523D01*
X266022619Y-253682142D01*
X266355952Y-254253571D02*
X266308333Y-254158333D01*
X266260714Y-254110714D01*
X266165476Y-254063095D01*
X266117857Y-254063095D01*
X266022619Y-254110714D01*
X265975000Y-254158333D01*
X265927380Y-254253571D01*
X265927380Y-254444047D01*
X265975000Y-254539285D01*
X266022619Y-254586904D01*
X266117857Y-254634523D01*
X266165476Y-254634523D01*
X266260714Y-254586904D01*
X266308333Y-254539285D01*
X266355952Y-254444047D01*
X266355952Y-254253571D01*
X266403571Y-254158333D01*
X266451190Y-254110714D01*
X266546428Y-254063095D01*
X266736904Y-254063095D01*
X266832142Y-254110714D01*
X266879761Y-254158333D01*
X266927380Y-254253571D01*
X266927380Y-254444047D01*
X266879761Y-254539285D01*
X266832142Y-254586904D01*
X266736904Y-254634523D01*
X266546428Y-254634523D01*
X266451190Y-254586904D01*
X266403571Y-254539285D01*
X266355952Y-254444047D01*
X266355952Y-255205952D02*
X266308333Y-255110714D01*
X266260714Y-255063095D01*
X266165476Y-255015476D01*
X266117857Y-255015476D01*
X266022619Y-255063095D01*
X265975000Y-255110714D01*
X265927380Y-255205952D01*
X265927380Y-255396428D01*
X265975000Y-255491666D01*
X266022619Y-255539285D01*
X266117857Y-255586904D01*
X266165476Y-255586904D01*
X266260714Y-255539285D01*
X266308333Y-255491666D01*
X266355952Y-255396428D01*
X266355952Y-255205952D01*
X266403571Y-255110714D01*
X266451190Y-255063095D01*
X266546428Y-255015476D01*
X266736904Y-255015476D01*
X266832142Y-255063095D01*
X266879761Y-255110714D01*
X266927380Y-255205952D01*
X266927380Y-255396428D01*
X266879761Y-255491666D01*
X266832142Y-255539285D01*
X266736904Y-255586904D01*
X266546428Y-255586904D01*
X266451190Y-255539285D01*
X266403571Y-255491666D01*
X266355952Y-255396428D01*
X171582142Y-253682142D02*
X171629761Y-253634523D01*
X171677380Y-253491666D01*
X171677380Y-253396428D01*
X171629761Y-253253571D01*
X171534523Y-253158333D01*
X171439285Y-253110714D01*
X171248809Y-253063095D01*
X171105952Y-253063095D01*
X170915476Y-253110714D01*
X170820238Y-253158333D01*
X170725000Y-253253571D01*
X170677380Y-253396428D01*
X170677380Y-253491666D01*
X170725000Y-253634523D01*
X170772619Y-253682142D01*
X171105952Y-254253571D02*
X171058333Y-254158333D01*
X171010714Y-254110714D01*
X170915476Y-254063095D01*
X170867857Y-254063095D01*
X170772619Y-254110714D01*
X170725000Y-254158333D01*
X170677380Y-254253571D01*
X170677380Y-254444047D01*
X170725000Y-254539285D01*
X170772619Y-254586904D01*
X170867857Y-254634523D01*
X170915476Y-254634523D01*
X171010714Y-254586904D01*
X171058333Y-254539285D01*
X171105952Y-254444047D01*
X171105952Y-254253571D01*
X171153571Y-254158333D01*
X171201190Y-254110714D01*
X171296428Y-254063095D01*
X171486904Y-254063095D01*
X171582142Y-254110714D01*
X171629761Y-254158333D01*
X171677380Y-254253571D01*
X171677380Y-254444047D01*
X171629761Y-254539285D01*
X171582142Y-254586904D01*
X171486904Y-254634523D01*
X171296428Y-254634523D01*
X171201190Y-254586904D01*
X171153571Y-254539285D01*
X171105952Y-254444047D01*
X171677380Y-255110714D02*
X171677380Y-255301190D01*
X171629761Y-255396428D01*
X171582142Y-255444047D01*
X171439285Y-255539285D01*
X171248809Y-255586904D01*
X170867857Y-255586904D01*
X170772619Y-255539285D01*
X170725000Y-255491666D01*
X170677380Y-255396428D01*
X170677380Y-255205952D01*
X170725000Y-255110714D01*
X170772619Y-255063095D01*
X170867857Y-255015476D01*
X171105952Y-255015476D01*
X171201190Y-255063095D01*
X171248809Y-255110714D01*
X171296428Y-255205952D01*
X171296428Y-255396428D01*
X171248809Y-255491666D01*
X171201190Y-255539285D01*
X171105952Y-255586904D01*
X443044642Y-272732142D02*
X443092261Y-272684523D01*
X443139880Y-272541666D01*
X443139880Y-272446428D01*
X443092261Y-272303571D01*
X442997023Y-272208333D01*
X442901785Y-272160714D01*
X442711309Y-272113095D01*
X442568452Y-272113095D01*
X442377976Y-272160714D01*
X442282738Y-272208333D01*
X442187500Y-272303571D01*
X442139880Y-272446428D01*
X442139880Y-272541666D01*
X442187500Y-272684523D01*
X442235119Y-272732142D01*
X443139880Y-273208333D02*
X443139880Y-273398809D01*
X443092261Y-273494047D01*
X443044642Y-273541666D01*
X442901785Y-273636904D01*
X442711309Y-273684523D01*
X442330357Y-273684523D01*
X442235119Y-273636904D01*
X442187500Y-273589285D01*
X442139880Y-273494047D01*
X442139880Y-273303571D01*
X442187500Y-273208333D01*
X442235119Y-273160714D01*
X442330357Y-273113095D01*
X442568452Y-273113095D01*
X442663690Y-273160714D01*
X442711309Y-273208333D01*
X442758928Y-273303571D01*
X442758928Y-273494047D01*
X442711309Y-273589285D01*
X442663690Y-273636904D01*
X442568452Y-273684523D01*
X442139880Y-274303571D02*
X442139880Y-274398809D01*
X442187500Y-274494047D01*
X442235119Y-274541666D01*
X442330357Y-274589285D01*
X442520833Y-274636904D01*
X442758928Y-274636904D01*
X442949404Y-274589285D01*
X443044642Y-274541666D01*
X443092261Y-274494047D01*
X443139880Y-274398809D01*
X443139880Y-274303571D01*
X443092261Y-274208333D01*
X443044642Y-274160714D01*
X442949404Y-274113095D01*
X442758928Y-274065476D01*
X442520833Y-274065476D01*
X442330357Y-274113095D01*
X442235119Y-274160714D01*
X442187500Y-274208333D01*
X442139880Y-274303571D01*
X195394642Y-310832142D02*
X195442261Y-310784523D01*
X195489880Y-310641666D01*
X195489880Y-310546428D01*
X195442261Y-310403571D01*
X195347023Y-310308333D01*
X195251785Y-310260714D01*
X195061309Y-310213095D01*
X194918452Y-310213095D01*
X194727976Y-310260714D01*
X194632738Y-310308333D01*
X194537500Y-310403571D01*
X194489880Y-310546428D01*
X194489880Y-310641666D01*
X194537500Y-310784523D01*
X194585119Y-310832142D01*
X195489880Y-311308333D02*
X195489880Y-311498809D01*
X195442261Y-311594047D01*
X195394642Y-311641666D01*
X195251785Y-311736904D01*
X195061309Y-311784523D01*
X194680357Y-311784523D01*
X194585119Y-311736904D01*
X194537500Y-311689285D01*
X194489880Y-311594047D01*
X194489880Y-311403571D01*
X194537500Y-311308333D01*
X194585119Y-311260714D01*
X194680357Y-311213095D01*
X194918452Y-311213095D01*
X195013690Y-311260714D01*
X195061309Y-311308333D01*
X195108928Y-311403571D01*
X195108928Y-311594047D01*
X195061309Y-311689285D01*
X195013690Y-311736904D01*
X194918452Y-311784523D01*
X195489880Y-312736904D02*
X195489880Y-312165476D01*
X195489880Y-312451190D02*
X194489880Y-312451190D01*
X194632738Y-312355952D01*
X194727976Y-312260714D01*
X194775595Y-312165476D01*
X462094642Y-329882142D02*
X462142261Y-329834523D01*
X462189880Y-329691666D01*
X462189880Y-329596428D01*
X462142261Y-329453571D01*
X462047023Y-329358333D01*
X461951785Y-329310714D01*
X461761309Y-329263095D01*
X461618452Y-329263095D01*
X461427976Y-329310714D01*
X461332738Y-329358333D01*
X461237500Y-329453571D01*
X461189880Y-329596428D01*
X461189880Y-329691666D01*
X461237500Y-329834523D01*
X461285119Y-329882142D01*
X462189880Y-330358333D02*
X462189880Y-330548809D01*
X462142261Y-330644047D01*
X462094642Y-330691666D01*
X461951785Y-330786904D01*
X461761309Y-330834523D01*
X461380357Y-330834523D01*
X461285119Y-330786904D01*
X461237500Y-330739285D01*
X461189880Y-330644047D01*
X461189880Y-330453571D01*
X461237500Y-330358333D01*
X461285119Y-330310714D01*
X461380357Y-330263095D01*
X461618452Y-330263095D01*
X461713690Y-330310714D01*
X461761309Y-330358333D01*
X461808928Y-330453571D01*
X461808928Y-330644047D01*
X461761309Y-330739285D01*
X461713690Y-330786904D01*
X461618452Y-330834523D01*
X461189880Y-331167857D02*
X461189880Y-331786904D01*
X461570833Y-331453571D01*
X461570833Y-331596428D01*
X461618452Y-331691666D01*
X461666071Y-331739285D01*
X461761309Y-331786904D01*
X461999404Y-331786904D01*
X462094642Y-331739285D01*
X462142261Y-331691666D01*
X462189880Y-331596428D01*
X462189880Y-331310714D01*
X462142261Y-331215476D01*
X462094642Y-331167857D01*
X138244642Y-272732142D02*
X138292261Y-272684523D01*
X138339880Y-272541666D01*
X138339880Y-272446428D01*
X138292261Y-272303571D01*
X138197023Y-272208333D01*
X138101785Y-272160714D01*
X137911309Y-272113095D01*
X137768452Y-272113095D01*
X137577976Y-272160714D01*
X137482738Y-272208333D01*
X137387500Y-272303571D01*
X137339880Y-272446428D01*
X137339880Y-272541666D01*
X137387500Y-272684523D01*
X137435119Y-272732142D01*
X138339880Y-273208333D02*
X138339880Y-273398809D01*
X138292261Y-273494047D01*
X138244642Y-273541666D01*
X138101785Y-273636904D01*
X137911309Y-273684523D01*
X137530357Y-273684523D01*
X137435119Y-273636904D01*
X137387500Y-273589285D01*
X137339880Y-273494047D01*
X137339880Y-273303571D01*
X137387500Y-273208333D01*
X137435119Y-273160714D01*
X137530357Y-273113095D01*
X137768452Y-273113095D01*
X137863690Y-273160714D01*
X137911309Y-273208333D01*
X137958928Y-273303571D01*
X137958928Y-273494047D01*
X137911309Y-273589285D01*
X137863690Y-273636904D01*
X137768452Y-273684523D01*
X137673214Y-274541666D02*
X138339880Y-274541666D01*
X137292261Y-274303571D02*
X138006547Y-274065476D01*
X138006547Y-274684523D01*
X183488392Y-329882142D02*
X183536011Y-329834523D01*
X183583630Y-329691666D01*
X183583630Y-329596428D01*
X183536011Y-329453571D01*
X183440773Y-329358333D01*
X183345535Y-329310714D01*
X183155059Y-329263095D01*
X183012202Y-329263095D01*
X182821726Y-329310714D01*
X182726488Y-329358333D01*
X182631250Y-329453571D01*
X182583630Y-329596428D01*
X182583630Y-329691666D01*
X182631250Y-329834523D01*
X182678869Y-329882142D01*
X183583630Y-330358333D02*
X183583630Y-330548809D01*
X183536011Y-330644047D01*
X183488392Y-330691666D01*
X183345535Y-330786904D01*
X183155059Y-330834523D01*
X182774107Y-330834523D01*
X182678869Y-330786904D01*
X182631250Y-330739285D01*
X182583630Y-330644047D01*
X182583630Y-330453571D01*
X182631250Y-330358333D01*
X182678869Y-330310714D01*
X182774107Y-330263095D01*
X183012202Y-330263095D01*
X183107440Y-330310714D01*
X183155059Y-330358333D01*
X183202678Y-330453571D01*
X183202678Y-330644047D01*
X183155059Y-330739285D01*
X183107440Y-330786904D01*
X183012202Y-330834523D01*
X182583630Y-331739285D02*
X182583630Y-331263095D01*
X183059821Y-331215476D01*
X183012202Y-331263095D01*
X182964583Y-331358333D01*
X182964583Y-331596428D01*
X183012202Y-331691666D01*
X183059821Y-331739285D01*
X183155059Y-331786904D01*
X183393154Y-331786904D01*
X183488392Y-331739285D01*
X183536011Y-331691666D01*
X183583630Y-331596428D01*
X183583630Y-331358333D01*
X183536011Y-331263095D01*
X183488392Y-331215476D01*
X388275892Y-291782142D02*
X388323511Y-291734523D01*
X388371130Y-291591666D01*
X388371130Y-291496428D01*
X388323511Y-291353571D01*
X388228273Y-291258333D01*
X388133035Y-291210714D01*
X387942559Y-291163095D01*
X387799702Y-291163095D01*
X387609226Y-291210714D01*
X387513988Y-291258333D01*
X387418750Y-291353571D01*
X387371130Y-291496428D01*
X387371130Y-291591666D01*
X387418750Y-291734523D01*
X387466369Y-291782142D01*
X388371130Y-292258333D02*
X388371130Y-292448809D01*
X388323511Y-292544047D01*
X388275892Y-292591666D01*
X388133035Y-292686904D01*
X387942559Y-292734523D01*
X387561607Y-292734523D01*
X387466369Y-292686904D01*
X387418750Y-292639285D01*
X387371130Y-292544047D01*
X387371130Y-292353571D01*
X387418750Y-292258333D01*
X387466369Y-292210714D01*
X387561607Y-292163095D01*
X387799702Y-292163095D01*
X387894940Y-292210714D01*
X387942559Y-292258333D01*
X387990178Y-292353571D01*
X387990178Y-292544047D01*
X387942559Y-292639285D01*
X387894940Y-292686904D01*
X387799702Y-292734523D01*
X387466369Y-293115476D02*
X387418750Y-293163095D01*
X387371130Y-293258333D01*
X387371130Y-293496428D01*
X387418750Y-293591666D01*
X387466369Y-293639285D01*
X387561607Y-293686904D01*
X387656845Y-293686904D01*
X387799702Y-293639285D01*
X388371130Y-293067857D01*
X388371130Y-293686904D01*
X462094642Y-272732142D02*
X462142261Y-272684523D01*
X462189880Y-272541666D01*
X462189880Y-272446428D01*
X462142261Y-272303571D01*
X462047023Y-272208333D01*
X461951785Y-272160714D01*
X461761309Y-272113095D01*
X461618452Y-272113095D01*
X461427976Y-272160714D01*
X461332738Y-272208333D01*
X461237500Y-272303571D01*
X461189880Y-272446428D01*
X461189880Y-272541666D01*
X461237500Y-272684523D01*
X461285119Y-272732142D01*
X461189880Y-273065476D02*
X461189880Y-273732142D01*
X462189880Y-273303571D01*
X461523214Y-274541666D02*
X462189880Y-274541666D01*
X461142261Y-274303571D02*
X461856547Y-274065476D01*
X461856547Y-274684523D01*
X362082142Y-225107142D02*
X362129761Y-225059523D01*
X362177380Y-224916666D01*
X362177380Y-224821428D01*
X362129761Y-224678571D01*
X362034523Y-224583333D01*
X361939285Y-224535714D01*
X361748809Y-224488095D01*
X361605952Y-224488095D01*
X361415476Y-224535714D01*
X361320238Y-224583333D01*
X361225000Y-224678571D01*
X361177380Y-224821428D01*
X361177380Y-224916666D01*
X361225000Y-225059523D01*
X361272619Y-225107142D01*
X361177380Y-225440476D02*
X361177380Y-226107142D01*
X362177380Y-225678571D01*
X361605952Y-226630952D02*
X361558333Y-226535714D01*
X361510714Y-226488095D01*
X361415476Y-226440476D01*
X361367857Y-226440476D01*
X361272619Y-226488095D01*
X361225000Y-226535714D01*
X361177380Y-226630952D01*
X361177380Y-226821428D01*
X361225000Y-226916666D01*
X361272619Y-226964285D01*
X361367857Y-227011904D01*
X361415476Y-227011904D01*
X361510714Y-226964285D01*
X361558333Y-226916666D01*
X361605952Y-226821428D01*
X361605952Y-226630952D01*
X361653571Y-226535714D01*
X361701190Y-226488095D01*
X361796428Y-226440476D01*
X361986904Y-226440476D01*
X362082142Y-226488095D01*
X362129761Y-226535714D01*
X362177380Y-226630952D01*
X362177380Y-226821428D01*
X362129761Y-226916666D01*
X362082142Y-226964285D01*
X361986904Y-227011904D01*
X361796428Y-227011904D01*
X361701190Y-226964285D01*
X361653571Y-226916666D01*
X361605952Y-226821428D01*
X295407142Y-225107142D02*
X295454761Y-225059523D01*
X295502380Y-224916666D01*
X295502380Y-224821428D01*
X295454761Y-224678571D01*
X295359523Y-224583333D01*
X295264285Y-224535714D01*
X295073809Y-224488095D01*
X294930952Y-224488095D01*
X294740476Y-224535714D01*
X294645238Y-224583333D01*
X294550000Y-224678571D01*
X294502380Y-224821428D01*
X294502380Y-224916666D01*
X294550000Y-225059523D01*
X294597619Y-225107142D01*
X294502380Y-225440476D02*
X294502380Y-226107142D01*
X295502380Y-225678571D01*
X294502380Y-226392857D02*
X294502380Y-227011904D01*
X294883333Y-226678571D01*
X294883333Y-226821428D01*
X294930952Y-226916666D01*
X294978571Y-226964285D01*
X295073809Y-227011904D01*
X295311904Y-227011904D01*
X295407142Y-226964285D01*
X295454761Y-226916666D01*
X295502380Y-226821428D01*
X295502380Y-226535714D01*
X295454761Y-226440476D01*
X295407142Y-226392857D01*
X190632142Y-225107142D02*
X190679761Y-225059523D01*
X190727380Y-224916666D01*
X190727380Y-224821428D01*
X190679761Y-224678571D01*
X190584523Y-224583333D01*
X190489285Y-224535714D01*
X190298809Y-224488095D01*
X190155952Y-224488095D01*
X189965476Y-224535714D01*
X189870238Y-224583333D01*
X189775000Y-224678571D01*
X189727380Y-224821428D01*
X189727380Y-224916666D01*
X189775000Y-225059523D01*
X189822619Y-225107142D01*
X189822619Y-225488095D02*
X189775000Y-225535714D01*
X189727380Y-225630952D01*
X189727380Y-225869047D01*
X189775000Y-225964285D01*
X189822619Y-226011904D01*
X189917857Y-226059523D01*
X190013095Y-226059523D01*
X190155952Y-226011904D01*
X190727380Y-225440476D01*
X190727380Y-226059523D01*
X189727380Y-226964285D02*
X189727380Y-226488095D01*
X190203571Y-226440476D01*
X190155952Y-226488095D01*
X190108333Y-226583333D01*
X190108333Y-226821428D01*
X190155952Y-226916666D01*
X190203571Y-226964285D01*
X190298809Y-227011904D01*
X190536904Y-227011904D01*
X190632142Y-226964285D01*
X190679761Y-226916666D01*
X190727380Y-226821428D01*
X190727380Y-226583333D01*
X190679761Y-226488095D01*
X190632142Y-226440476D01*
X247782142Y-253682142D02*
X247829761Y-253634523D01*
X247877380Y-253491666D01*
X247877380Y-253396428D01*
X247829761Y-253253571D01*
X247734523Y-253158333D01*
X247639285Y-253110714D01*
X247448809Y-253063095D01*
X247305952Y-253063095D01*
X247115476Y-253110714D01*
X247020238Y-253158333D01*
X246925000Y-253253571D01*
X246877380Y-253396428D01*
X246877380Y-253491666D01*
X246925000Y-253634523D01*
X246972619Y-253682142D01*
X246877380Y-254586904D02*
X246877380Y-254110714D01*
X247353571Y-254063095D01*
X247305952Y-254110714D01*
X247258333Y-254205952D01*
X247258333Y-254444047D01*
X247305952Y-254539285D01*
X247353571Y-254586904D01*
X247448809Y-254634523D01*
X247686904Y-254634523D01*
X247782142Y-254586904D01*
X247829761Y-254539285D01*
X247877380Y-254444047D01*
X247877380Y-254205952D01*
X247829761Y-254110714D01*
X247782142Y-254063095D01*
X246972619Y-255015476D02*
X246925000Y-255063095D01*
X246877380Y-255158333D01*
X246877380Y-255396428D01*
X246925000Y-255491666D01*
X246972619Y-255539285D01*
X247067857Y-255586904D01*
X247163095Y-255586904D01*
X247305952Y-255539285D01*
X247877380Y-254967857D01*
X247877380Y-255586904D01*
X328744642Y-310832142D02*
X328792261Y-310784523D01*
X328839880Y-310641666D01*
X328839880Y-310546428D01*
X328792261Y-310403571D01*
X328697023Y-310308333D01*
X328601785Y-310260714D01*
X328411309Y-310213095D01*
X328268452Y-310213095D01*
X328077976Y-310260714D01*
X327982738Y-310308333D01*
X327887500Y-310403571D01*
X327839880Y-310546428D01*
X327839880Y-310641666D01*
X327887500Y-310784523D01*
X327935119Y-310832142D01*
X327839880Y-311736904D02*
X327839880Y-311260714D01*
X328316071Y-311213095D01*
X328268452Y-311260714D01*
X328220833Y-311355952D01*
X328220833Y-311594047D01*
X328268452Y-311689285D01*
X328316071Y-311736904D01*
X328411309Y-311784523D01*
X328649404Y-311784523D01*
X328744642Y-311736904D01*
X328792261Y-311689285D01*
X328839880Y-311594047D01*
X328839880Y-311355952D01*
X328792261Y-311260714D01*
X328744642Y-311213095D01*
X327839880Y-312117857D02*
X327839880Y-312736904D01*
X328220833Y-312403571D01*
X328220833Y-312546428D01*
X328268452Y-312641666D01*
X328316071Y-312689285D01*
X328411309Y-312736904D01*
X328649404Y-312736904D01*
X328744642Y-312689285D01*
X328792261Y-312641666D01*
X328839880Y-312546428D01*
X328839880Y-312260714D01*
X328792261Y-312165476D01*
X328744642Y-312117857D01*
X347794642Y-310832142D02*
X347842261Y-310784523D01*
X347889880Y-310641666D01*
X347889880Y-310546428D01*
X347842261Y-310403571D01*
X347747023Y-310308333D01*
X347651785Y-310260714D01*
X347461309Y-310213095D01*
X347318452Y-310213095D01*
X347127976Y-310260714D01*
X347032738Y-310308333D01*
X346937500Y-310403571D01*
X346889880Y-310546428D01*
X346889880Y-310641666D01*
X346937500Y-310784523D01*
X346985119Y-310832142D01*
X347318452Y-311403571D02*
X347270833Y-311308333D01*
X347223214Y-311260714D01*
X347127976Y-311213095D01*
X347080357Y-311213095D01*
X346985119Y-311260714D01*
X346937500Y-311308333D01*
X346889880Y-311403571D01*
X346889880Y-311594047D01*
X346937500Y-311689285D01*
X346985119Y-311736904D01*
X347080357Y-311784523D01*
X347127976Y-311784523D01*
X347223214Y-311736904D01*
X347270833Y-311689285D01*
X347318452Y-311594047D01*
X347318452Y-311403571D01*
X347366071Y-311308333D01*
X347413690Y-311260714D01*
X347508928Y-311213095D01*
X347699404Y-311213095D01*
X347794642Y-311260714D01*
X347842261Y-311308333D01*
X347889880Y-311403571D01*
X347889880Y-311594047D01*
X347842261Y-311689285D01*
X347794642Y-311736904D01*
X347699404Y-311784523D01*
X347508928Y-311784523D01*
X347413690Y-311736904D01*
X347366071Y-311689285D01*
X347318452Y-311594047D01*
X347223214Y-312641666D02*
X347889880Y-312641666D01*
X346842261Y-312403571D02*
X347556547Y-312165476D01*
X347556547Y-312784523D01*
X309694642Y-310832142D02*
X309742261Y-310784523D01*
X309789880Y-310641666D01*
X309789880Y-310546428D01*
X309742261Y-310403571D01*
X309647023Y-310308333D01*
X309551785Y-310260714D01*
X309361309Y-310213095D01*
X309218452Y-310213095D01*
X309027976Y-310260714D01*
X308932738Y-310308333D01*
X308837500Y-310403571D01*
X308789880Y-310546428D01*
X308789880Y-310641666D01*
X308837500Y-310784523D01*
X308885119Y-310832142D01*
X308789880Y-311165476D02*
X308789880Y-311832142D01*
X309789880Y-311403571D01*
X308789880Y-312403571D02*
X308789880Y-312498809D01*
X308837500Y-312594047D01*
X308885119Y-312641666D01*
X308980357Y-312689285D01*
X309170833Y-312736904D01*
X309408928Y-312736904D01*
X309599404Y-312689285D01*
X309694642Y-312641666D01*
X309742261Y-312594047D01*
X309789880Y-312498809D01*
X309789880Y-312403571D01*
X309742261Y-312308333D01*
X309694642Y-312260714D01*
X309599404Y-312213095D01*
X309408928Y-312165476D01*
X309170833Y-312165476D01*
X308980357Y-312213095D01*
X308885119Y-312260714D01*
X308837500Y-312308333D01*
X308789880Y-312403571D01*
X383513392Y-310832142D02*
X383561011Y-310784523D01*
X383608630Y-310641666D01*
X383608630Y-310546428D01*
X383561011Y-310403571D01*
X383465773Y-310308333D01*
X383370535Y-310260714D01*
X383180059Y-310213095D01*
X383037202Y-310213095D01*
X382846726Y-310260714D01*
X382751488Y-310308333D01*
X382656250Y-310403571D01*
X382608630Y-310546428D01*
X382608630Y-310641666D01*
X382656250Y-310784523D01*
X382703869Y-310832142D01*
X383608630Y-311784523D02*
X383608630Y-311213095D01*
X383608630Y-311498809D02*
X382608630Y-311498809D01*
X382751488Y-311403571D01*
X382846726Y-311308333D01*
X382894345Y-311213095D01*
X382608630Y-312641666D02*
X382608630Y-312451190D01*
X382656250Y-312355952D01*
X382703869Y-312308333D01*
X382846726Y-312213095D01*
X383037202Y-312165476D01*
X383418154Y-312165476D01*
X383513392Y-312213095D01*
X383561011Y-312260714D01*
X383608630Y-312355952D01*
X383608630Y-312546428D01*
X383561011Y-312641666D01*
X383513392Y-312689285D01*
X383418154Y-312736904D01*
X383180059Y-312736904D01*
X383084821Y-312689285D01*
X383037202Y-312641666D01*
X382989583Y-312546428D01*
X382989583Y-312355952D01*
X383037202Y-312260714D01*
X383084821Y-312213095D01*
X383180059Y-312165476D01*
X271594642Y-311308333D02*
X271642261Y-311260714D01*
X271689880Y-311117857D01*
X271689880Y-311022619D01*
X271642261Y-310879761D01*
X271547023Y-310784523D01*
X271451785Y-310736904D01*
X271261309Y-310689285D01*
X271118452Y-310689285D01*
X270927976Y-310736904D01*
X270832738Y-310784523D01*
X270737500Y-310879761D01*
X270689880Y-311022619D01*
X270689880Y-311117857D01*
X270737500Y-311260714D01*
X270785119Y-311308333D01*
X271023214Y-312165476D02*
X271689880Y-312165476D01*
X270642261Y-311927380D02*
X271356547Y-311689285D01*
X271356547Y-312308333D01*
X462094642Y-225107142D02*
X462142261Y-225059523D01*
X462189880Y-224916666D01*
X462189880Y-224821428D01*
X462142261Y-224678571D01*
X462047023Y-224583333D01*
X461951785Y-224535714D01*
X461761309Y-224488095D01*
X461618452Y-224488095D01*
X461427976Y-224535714D01*
X461332738Y-224583333D01*
X461237500Y-224678571D01*
X461189880Y-224821428D01*
X461189880Y-224916666D01*
X461237500Y-225059523D01*
X461285119Y-225107142D01*
X461189880Y-225440476D02*
X461189880Y-226107142D01*
X462189880Y-225678571D01*
X461189880Y-226964285D02*
X461189880Y-226488095D01*
X461666071Y-226440476D01*
X461618452Y-226488095D01*
X461570833Y-226583333D01*
X461570833Y-226821428D01*
X461618452Y-226916666D01*
X461666071Y-226964285D01*
X461761309Y-227011904D01*
X461999404Y-227011904D01*
X462094642Y-226964285D01*
X462142261Y-226916666D01*
X462189880Y-226821428D01*
X462189880Y-226583333D01*
X462142261Y-226488095D01*
X462094642Y-226440476D01*
X152532142Y-254158333D02*
X152579761Y-254110714D01*
X152627380Y-253967857D01*
X152627380Y-253872619D01*
X152579761Y-253729761D01*
X152484523Y-253634523D01*
X152389285Y-253586904D01*
X152198809Y-253539285D01*
X152055952Y-253539285D01*
X151865476Y-253586904D01*
X151770238Y-253634523D01*
X151675000Y-253729761D01*
X151627380Y-253872619D01*
X151627380Y-253967857D01*
X151675000Y-254110714D01*
X151722619Y-254158333D01*
X152627380Y-255110714D02*
X152627380Y-254539285D01*
X152627380Y-254825000D02*
X151627380Y-254825000D01*
X151770238Y-254729761D01*
X151865476Y-254634523D01*
X151913095Y-254539285D01*
X400182142Y-225107142D02*
X400229761Y-225059523D01*
X400277380Y-224916666D01*
X400277380Y-224821428D01*
X400229761Y-224678571D01*
X400134523Y-224583333D01*
X400039285Y-224535714D01*
X399848809Y-224488095D01*
X399705952Y-224488095D01*
X399515476Y-224535714D01*
X399420238Y-224583333D01*
X399325000Y-224678571D01*
X399277380Y-224821428D01*
X399277380Y-224916666D01*
X399325000Y-225059523D01*
X399372619Y-225107142D01*
X400277380Y-226059523D02*
X400277380Y-225488095D01*
X400277380Y-225773809D02*
X399277380Y-225773809D01*
X399420238Y-225678571D01*
X399515476Y-225583333D01*
X399563095Y-225488095D01*
X399705952Y-226630952D02*
X399658333Y-226535714D01*
X399610714Y-226488095D01*
X399515476Y-226440476D01*
X399467857Y-226440476D01*
X399372619Y-226488095D01*
X399325000Y-226535714D01*
X399277380Y-226630952D01*
X399277380Y-226821428D01*
X399325000Y-226916666D01*
X399372619Y-226964285D01*
X399467857Y-227011904D01*
X399515476Y-227011904D01*
X399610714Y-226964285D01*
X399658333Y-226916666D01*
X399705952Y-226821428D01*
X399705952Y-226630952D01*
X399753571Y-226535714D01*
X399801190Y-226488095D01*
X399896428Y-226440476D01*
X400086904Y-226440476D01*
X400182142Y-226488095D01*
X400229761Y-226535714D01*
X400277380Y-226630952D01*
X400277380Y-226821428D01*
X400229761Y-226916666D01*
X400182142Y-226964285D01*
X400086904Y-227011904D01*
X399896428Y-227011904D01*
X399801190Y-226964285D01*
X399753571Y-226916666D01*
X399705952Y-226821428D01*
X447642857Y-192677142D02*
X447690476Y-192724761D01*
X447833333Y-192772380D01*
X447928571Y-192772380D01*
X448071428Y-192724761D01*
X448166666Y-192629523D01*
X448214285Y-192534285D01*
X448261904Y-192343809D01*
X448261904Y-192200952D01*
X448214285Y-192010476D01*
X448166666Y-191915238D01*
X448071428Y-191820000D01*
X447928571Y-191772380D01*
X447833333Y-191772380D01*
X447690476Y-191820000D01*
X447642857Y-191867619D01*
X447166666Y-192772380D02*
X446976190Y-192772380D01*
X446880952Y-192724761D01*
X446833333Y-192677142D01*
X446738095Y-192534285D01*
X446690476Y-192343809D01*
X446690476Y-191962857D01*
X446738095Y-191867619D01*
X446785714Y-191820000D01*
X446880952Y-191772380D01*
X447071428Y-191772380D01*
X447166666Y-191820000D01*
X447214285Y-191867619D01*
X447261904Y-191962857D01*
X447261904Y-192200952D01*
X447214285Y-192296190D01*
X447166666Y-192343809D01*
X447071428Y-192391428D01*
X446880952Y-192391428D01*
X446785714Y-192343809D01*
X446738095Y-192296190D01*
X446690476Y-192200952D01*
X445833333Y-191772380D02*
X446023809Y-191772380D01*
X446119047Y-191820000D01*
X446166666Y-191867619D01*
X446261904Y-192010476D01*
X446309523Y-192200952D01*
X446309523Y-192581904D01*
X446261904Y-192677142D01*
X446214285Y-192724761D01*
X446119047Y-192772380D01*
X445928571Y-192772380D01*
X445833333Y-192724761D01*
X445785714Y-192677142D01*
X445738095Y-192581904D01*
X445738095Y-192343809D01*
X445785714Y-192248571D01*
X445833333Y-192200952D01*
X445928571Y-192153333D01*
X446119047Y-192153333D01*
X446214285Y-192200952D01*
X446261904Y-192248571D01*
X446309523Y-192343809D01*
D11*
X143745000Y-252825000D02*
X143745000Y-253125000D01*
X144045000Y-252825000D02*
X143745000Y-252825000D01*
X163095000Y-252825000D02*
X162795000Y-252825000D01*
X162795000Y-252825000D02*
X162795000Y-253125000D01*
X181845000Y-252825000D02*
X181845000Y-253125000D01*
X182145000Y-252825000D02*
X181845000Y-252825000D01*
X200895000Y-252825000D02*
X200895000Y-253125000D01*
X201195000Y-252825000D02*
X200895000Y-252825000D01*
X219945000Y-252825000D02*
X219945000Y-253125000D01*
X220245000Y-252825000D02*
X219945000Y-252825000D01*
X239295000Y-252825000D02*
X238995000Y-252825000D01*
X238995000Y-252825000D02*
X238995000Y-253125000D01*
X258045000Y-252825000D02*
X258045000Y-253125000D01*
X258345000Y-252825000D02*
X258045000Y-252825000D01*
X277395000Y-252825000D02*
X277095000Y-252825000D01*
X277095000Y-252825000D02*
X277095000Y-253125000D01*
X296445000Y-252825000D02*
X296145000Y-252825000D01*
X296145000Y-252825000D02*
X296145000Y-253125000D01*
X158332500Y-290925000D02*
X158032500Y-290925000D01*
X158032500Y-290925000D02*
X158032500Y-291225000D01*
X243757500Y-309975000D02*
X243757500Y-310275000D01*
X244057500Y-309975000D02*
X243757500Y-309975000D01*
X382170000Y-252825000D02*
X381870000Y-252825000D01*
X381870000Y-252825000D02*
X381870000Y-253125000D01*
X386632500Y-271875000D02*
X386632500Y-272175000D01*
X386932500Y-271875000D02*
X386632500Y-271875000D01*
X205657500Y-309975000D02*
X205657500Y-310275000D01*
X205957500Y-309975000D02*
X205657500Y-309975000D01*
X196132500Y-290925000D02*
X196132500Y-291225000D01*
X196432500Y-290925000D02*
X196132500Y-290925000D01*
X334545000Y-252825000D02*
X334245000Y-252825000D01*
X334245000Y-252825000D02*
X334245000Y-253125000D01*
X415207500Y-271875000D02*
X415207500Y-272175000D01*
X415507500Y-271875000D02*
X415207500Y-271875000D01*
X434257500Y-329025000D02*
X434257500Y-329325000D01*
X434557500Y-329025000D02*
X434257500Y-329025000D01*
X191370000Y-271875000D02*
X191370000Y-272175000D01*
X191670000Y-271875000D02*
X191370000Y-271875000D01*
X434257500Y-271875000D02*
X434257500Y-272175000D01*
X434557500Y-271875000D02*
X434257500Y-271875000D01*
X379788750Y-290925000D02*
X379488750Y-290925000D01*
X379488750Y-290925000D02*
X379488750Y-291225000D01*
X353295000Y-252825000D02*
X353295000Y-253125000D01*
X353595000Y-252825000D02*
X353295000Y-252825000D01*
X144045000Y-224250000D02*
X143745000Y-224250000D01*
X143745000Y-224250000D02*
X143745000Y-224550000D01*
X208338750Y-329025000D02*
X208038750Y-329025000D01*
X208038750Y-329025000D02*
X208038750Y-329325000D01*
X284238750Y-329025000D02*
X284238750Y-329325000D01*
X284538750Y-329025000D02*
X284238750Y-329025000D01*
X415507500Y-290925000D02*
X415207500Y-290925000D01*
X415207500Y-290925000D02*
X415207500Y-291225000D01*
X415207500Y-309975000D02*
X415207500Y-310275000D01*
X415507500Y-309975000D02*
X415207500Y-309975000D01*
X434257500Y-290925000D02*
X434257500Y-291225000D01*
X434557500Y-290925000D02*
X434257500Y-290925000D01*
X453307500Y-290925000D02*
X453307500Y-291225000D01*
X453607500Y-290925000D02*
X453307500Y-290925000D01*
X453607500Y-309975000D02*
X453307500Y-309975000D01*
X453307500Y-309975000D02*
X453307500Y-310275000D01*
X163095000Y-224250000D02*
X162795000Y-224250000D01*
X162795000Y-224250000D02*
X162795000Y-224550000D01*
X181845000Y-224250000D02*
X181845000Y-224550000D01*
X182145000Y-224250000D02*
X181845000Y-224250000D01*
X200895000Y-224250000D02*
X200895000Y-224550000D01*
X201195000Y-224250000D02*
X200895000Y-224250000D01*
X248820000Y-224250000D02*
X248520000Y-224250000D01*
X248520000Y-224250000D02*
X248520000Y-224550000D01*
X286620000Y-224250000D02*
X286620000Y-224550000D01*
X286920000Y-224250000D02*
X286620000Y-224250000D01*
X305970000Y-224250000D02*
X305670000Y-224250000D01*
X305670000Y-224250000D02*
X305670000Y-224550000D01*
X372345000Y-224250000D02*
X372345000Y-224550000D01*
X372645000Y-224250000D02*
X372345000Y-224250000D01*
X215482500Y-290925000D02*
X215182500Y-290925000D01*
X215182500Y-290925000D02*
X215182500Y-291225000D01*
X339307500Y-309975000D02*
X339007500Y-309975000D01*
X339007500Y-309975000D02*
X339007500Y-310275000D01*
X234532500Y-290925000D02*
X234232500Y-290925000D01*
X234232500Y-290925000D02*
X234232500Y-291225000D01*
X253282500Y-290925000D02*
X253282500Y-291225000D01*
X253582500Y-290925000D02*
X253282500Y-290925000D01*
X434557500Y-252825000D02*
X434257500Y-252825000D01*
X434257500Y-252825000D02*
X434257500Y-253125000D01*
X286620000Y-271875000D02*
X286620000Y-272175000D01*
X286920000Y-271875000D02*
X286620000Y-271875000D01*
X415507500Y-252825000D02*
X415207500Y-252825000D01*
X415207500Y-252825000D02*
X415207500Y-253125000D01*
X291682500Y-290925000D02*
X291382500Y-290925000D01*
X291382500Y-290925000D02*
X291382500Y-291225000D01*
X310432500Y-290925000D02*
X310432500Y-291225000D01*
X310732500Y-290925000D02*
X310432500Y-290925000D01*
X175001250Y-329025000D02*
X174701250Y-329025000D01*
X174701250Y-329025000D02*
X174701250Y-329325000D01*
X415507500Y-329025000D02*
X415207500Y-329025000D01*
X415207500Y-329025000D02*
X415207500Y-329325000D01*
X150888750Y-329025000D02*
X150888750Y-329325000D01*
X151188750Y-329025000D02*
X150888750Y-329025000D01*
X282157500Y-309975000D02*
X281857500Y-309975000D01*
X281857500Y-309975000D02*
X281857500Y-310275000D01*
X365201250Y-329025000D02*
X365201250Y-329325000D01*
X365501250Y-329025000D02*
X365201250Y-329025000D01*
X263107500Y-309975000D02*
X262807500Y-309975000D01*
X262807500Y-309975000D02*
X262807500Y-310275000D01*
X305970000Y-271875000D02*
X305670000Y-271875000D01*
X305670000Y-271875000D02*
X305670000Y-272175000D01*
X453307500Y-224250000D02*
X453307500Y-224550000D01*
X453607500Y-224250000D02*
X453307500Y-224250000D01*
X453307500Y-271875000D02*
X453307500Y-272175000D01*
X453607500Y-271875000D02*
X453307500Y-271875000D01*
X453307500Y-252825000D02*
X453307500Y-253125000D01*
X453607500Y-252825000D02*
X453307500Y-252825000D01*
X415507500Y-224250000D02*
X415207500Y-224250000D01*
X415207500Y-224250000D02*
X415207500Y-224550000D01*
X153270000Y-271875000D02*
X153270000Y-272175000D01*
X153570000Y-271875000D02*
X153270000Y-271875000D01*
X348532500Y-290925000D02*
X348532500Y-291225000D01*
X348832500Y-290925000D02*
X348532500Y-290925000D01*
X210720000Y-271875000D02*
X210420000Y-271875000D01*
X210420000Y-271875000D02*
X210420000Y-272175000D01*
X363120000Y-271875000D02*
X362820000Y-271875000D01*
X362820000Y-271875000D02*
X362820000Y-272175000D01*
X453307500Y-329025000D02*
X453307500Y-329325000D01*
X453607500Y-329025000D02*
X453307500Y-329025000D01*
X375026250Y-309975000D02*
X374726250Y-309975000D01*
X374726250Y-309975000D02*
X374726250Y-310275000D01*
X177082500Y-290925000D02*
X177082500Y-291225000D01*
X177382500Y-290925000D02*
X177082500Y-290925000D01*
X434557500Y-224250000D02*
X434257500Y-224250000D01*
X434257500Y-224250000D02*
X434257500Y-224550000D01*
X246138750Y-329025000D02*
X246138750Y-329325000D01*
X246438750Y-329025000D02*
X246138750Y-329025000D01*
X229470000Y-271875000D02*
X229470000Y-272175000D01*
X229770000Y-271875000D02*
X229470000Y-271875000D01*
X267870000Y-271875000D02*
X267570000Y-271875000D01*
X267570000Y-271875000D02*
X267570000Y-272175000D01*
X434257500Y-309975000D02*
X434257500Y-310275000D01*
X434557500Y-309975000D02*
X434257500Y-309975000D01*
X172620000Y-271875000D02*
X172320000Y-271875000D01*
X172320000Y-271875000D02*
X172320000Y-272175000D01*
X186607500Y-309975000D02*
X186607500Y-310275000D01*
X186907500Y-309975000D02*
X186607500Y-309975000D01*
X248520000Y-271875000D02*
X248520000Y-272175000D01*
X248820000Y-271875000D02*
X248520000Y-271875000D01*
X272632500Y-290925000D02*
X272332500Y-290925000D01*
X272332500Y-290925000D02*
X272332500Y-291225000D01*
X343770000Y-271875000D02*
X343770000Y-272175000D01*
X344070000Y-271875000D02*
X343770000Y-271875000D01*
X353595000Y-224250000D02*
X353295000Y-224250000D01*
X353295000Y-224250000D02*
X353295000Y-224550000D01*
X219945000Y-224250000D02*
X219945000Y-224550000D01*
X220245000Y-224250000D02*
X219945000Y-224250000D01*
X267870000Y-224250000D02*
X267570000Y-224250000D01*
X267570000Y-224250000D02*
X267570000Y-224550000D01*
X317876250Y-329025000D02*
X317576250Y-329025000D01*
X317576250Y-329025000D02*
X317576250Y-329325000D01*
X301207500Y-309975000D02*
X300907500Y-309975000D01*
X300907500Y-309975000D02*
X300907500Y-310275000D01*
X129757500Y-271875000D02*
X129457500Y-271875000D01*
X129457500Y-271875000D02*
X129457500Y-272175000D01*
X136901250Y-309975000D02*
X136601250Y-309975000D01*
X136601250Y-309975000D02*
X136601250Y-310275000D01*
X127076250Y-329025000D02*
X127076250Y-329325000D01*
X127376250Y-329025000D02*
X127076250Y-329025000D01*
X124695000Y-224250000D02*
X124695000Y-224550000D01*
X124995000Y-224250000D02*
X124695000Y-224250000D01*
X131838750Y-290925000D02*
X131838750Y-291225000D01*
X132138750Y-290925000D02*
X131838750Y-290925000D01*
X124695000Y-252825000D02*
X124695000Y-253125000D01*
X124995000Y-252825000D02*
X124695000Y-252825000D01*
X224707500Y-309975000D02*
X224707500Y-310275000D01*
X225007500Y-309975000D02*
X224707500Y-309975000D01*
X329482500Y-290925000D02*
X329482500Y-291225000D01*
X329782500Y-290925000D02*
X329482500Y-290925000D01*
X341388750Y-329025000D02*
X341388750Y-329325000D01*
X341688750Y-329025000D02*
X341388750Y-329025000D01*
X324720000Y-271875000D02*
X324720000Y-272175000D01*
X325020000Y-271875000D02*
X324720000Y-271875000D01*
X334545000Y-224250000D02*
X334245000Y-224250000D01*
X334245000Y-224250000D02*
X334245000Y-224550000D01*
X389013750Y-329025000D02*
X389013750Y-329325000D01*
X389313750Y-329025000D02*
X389013750Y-329025000D01*
X319957500Y-309975000D02*
X319957500Y-310275000D01*
X320257500Y-309975000D02*
X319957500Y-309975000D01*
X315495000Y-252825000D02*
X315195000Y-252825000D01*
X315195000Y-252825000D02*
X315195000Y-253125000D01*
X391395000Y-224250000D02*
X391395000Y-224550000D01*
X391695000Y-224250000D02*
X391395000Y-224250000D01*
X167857500Y-309975000D02*
X167557500Y-309975000D01*
X167557500Y-309975000D02*
X167557500Y-310275000D01*
X448592000Y-187542000D02*
X448592000Y-187242000D01*
X448592000Y-187242000D02*
X448292000Y-187242000D01*
X144086250Y-311736252D02*
X144086250Y-311213748D01*
X142616250Y-311736252D02*
X142616250Y-311213748D01*
X440272500Y-330786252D02*
X440272500Y-330263748D01*
X441742500Y-330786252D02*
X441742500Y-330263748D01*
X256005000Y-226011252D02*
X256005000Y-225488748D01*
X254535000Y-226011252D02*
X254535000Y-225488748D01*
X170280000Y-226011252D02*
X170280000Y-225488748D01*
X168810000Y-226011252D02*
X168810000Y-225488748D01*
X183097500Y-292686252D02*
X183097500Y-292163748D01*
X184567500Y-292686252D02*
X184567500Y-292163748D01*
X211672500Y-311736252D02*
X211672500Y-311213748D01*
X213142500Y-311736252D02*
X213142500Y-311213748D01*
X335497500Y-292686252D02*
X335497500Y-292163748D01*
X336967500Y-292686252D02*
X336967500Y-292163748D01*
X179805000Y-273636252D02*
X179805000Y-273113748D01*
X178335000Y-273636252D02*
X178335000Y-273113748D01*
X303630000Y-254586252D02*
X303630000Y-254063748D01*
X302160000Y-254586252D02*
X302160000Y-254063748D01*
X421222500Y-226011252D02*
X421222500Y-225488748D01*
X422692500Y-226011252D02*
X422692500Y-225488748D01*
X368835000Y-273636252D02*
X368835000Y-273113748D01*
X370305000Y-273636252D02*
X370305000Y-273113748D01*
X202147500Y-292686252D02*
X202147500Y-292163748D01*
X203617500Y-292686252D02*
X203617500Y-292163748D01*
X260767500Y-292686252D02*
X260767500Y-292163748D01*
X259297500Y-292686252D02*
X259297500Y-292163748D01*
X341730000Y-254586252D02*
X341730000Y-254063748D01*
X340260000Y-254586252D02*
X340260000Y-254063748D01*
X216435000Y-273636252D02*
X216435000Y-273113748D01*
X217905000Y-273636252D02*
X217905000Y-273113748D01*
X232192500Y-311736252D02*
X232192500Y-311213748D01*
X230722500Y-311736252D02*
X230722500Y-311213748D01*
X215523750Y-330786252D02*
X215523750Y-330263748D01*
X214053750Y-330786252D02*
X214053750Y-330263748D01*
X440272500Y-226011252D02*
X440272500Y-225488748D01*
X441742500Y-226011252D02*
X441742500Y-225488748D01*
X292635000Y-273636252D02*
X292635000Y-273113748D01*
X294105000Y-273636252D02*
X294105000Y-273113748D01*
X284580000Y-254586252D02*
X284580000Y-254063748D01*
X283110000Y-254586252D02*
X283110000Y-254063748D01*
X273585000Y-226011252D02*
X273585000Y-225488748D01*
X275055000Y-226011252D02*
X275055000Y-225488748D01*
X151230000Y-226011252D02*
X151230000Y-225488748D01*
X149760000Y-226011252D02*
X149760000Y-225488748D01*
X197385000Y-273636252D02*
X197385000Y-273113748D01*
X198855000Y-273636252D02*
X198855000Y-273113748D01*
X441742500Y-311736252D02*
X441742500Y-311213748D01*
X440272500Y-311736252D02*
X440272500Y-311213748D01*
X330735000Y-273636252D02*
X330735000Y-273113748D01*
X332205000Y-273636252D02*
X332205000Y-273113748D01*
X278347500Y-292686252D02*
X278347500Y-292163748D01*
X279817500Y-292686252D02*
X279817500Y-292163748D01*
X421222500Y-254586252D02*
X421222500Y-254063748D01*
X422692500Y-254586252D02*
X422692500Y-254063748D01*
X298867500Y-292686252D02*
X298867500Y-292163748D01*
X297397500Y-292686252D02*
X297397500Y-292163748D01*
X134561250Y-330786252D02*
X134561250Y-330263748D01*
X133091250Y-330786252D02*
X133091250Y-330263748D01*
X422692500Y-273636252D02*
X422692500Y-273113748D01*
X421222500Y-273636252D02*
X421222500Y-273113748D01*
X371216250Y-330786252D02*
X371216250Y-330263748D01*
X372686250Y-330786252D02*
X372686250Y-330263748D01*
X159285000Y-273636252D02*
X159285000Y-273113748D01*
X160755000Y-273636252D02*
X160755000Y-273113748D01*
X316447500Y-292686252D02*
X316447500Y-292163748D01*
X317917500Y-292686252D02*
X317917500Y-292163748D01*
X235485000Y-273636252D02*
X235485000Y-273113748D01*
X236955000Y-273636252D02*
X236955000Y-273113748D01*
X460792500Y-254586252D02*
X460792500Y-254063748D01*
X459322500Y-254586252D02*
X459322500Y-254063748D01*
X227430000Y-226011252D02*
X227430000Y-225488748D01*
X225960000Y-226011252D02*
X225960000Y-225488748D01*
X241717500Y-292686252D02*
X241717500Y-292163748D01*
X240247500Y-292686252D02*
X240247500Y-292163748D01*
X273585000Y-273636252D02*
X273585000Y-273113748D01*
X275055000Y-273636252D02*
X275055000Y-273113748D01*
X189330000Y-254586252D02*
X189330000Y-254063748D01*
X187860000Y-254586252D02*
X187860000Y-254063748D01*
X349785000Y-273636252D02*
X349785000Y-273113748D01*
X351255000Y-273636252D02*
X351255000Y-273113748D01*
X441742500Y-254586252D02*
X441742500Y-254063748D01*
X440272500Y-254586252D02*
X440272500Y-254063748D01*
X139323750Y-292686252D02*
X139323750Y-292163748D01*
X137853750Y-292686252D02*
X137853750Y-292163748D01*
X130710000Y-254586252D02*
X130710000Y-254063748D01*
X132180000Y-254586252D02*
X132180000Y-254063748D01*
X354547500Y-292686252D02*
X354547500Y-292163748D01*
X356017500Y-292686252D02*
X356017500Y-292163748D01*
X173572500Y-311736252D02*
X173572500Y-311213748D01*
X175042500Y-311736252D02*
X175042500Y-311213748D01*
X347403750Y-330786252D02*
X347403750Y-330263748D01*
X348873750Y-330786252D02*
X348873750Y-330263748D01*
X165517500Y-292686252D02*
X165517500Y-292163748D01*
X164047500Y-292686252D02*
X164047500Y-292163748D01*
X396498750Y-330786252D02*
X396498750Y-330263748D01*
X395028750Y-330786252D02*
X395028750Y-330263748D01*
X290253750Y-330786252D02*
X290253750Y-330263748D01*
X291723750Y-330786252D02*
X291723750Y-330263748D01*
X254535000Y-273636252D02*
X254535000Y-273113748D01*
X256005000Y-273636252D02*
X256005000Y-273113748D01*
X313155000Y-273636252D02*
X313155000Y-273113748D01*
X311685000Y-273636252D02*
X311685000Y-273113748D01*
X459322500Y-292686252D02*
X459322500Y-292163748D01*
X460792500Y-292686252D02*
X460792500Y-292163748D01*
X249772500Y-311736252D02*
X249772500Y-311213748D01*
X251242500Y-311736252D02*
X251242500Y-311213748D01*
X322680000Y-254586252D02*
X322680000Y-254063748D01*
X321210000Y-254586252D02*
X321210000Y-254063748D01*
X379830000Y-226011252D02*
X379830000Y-225488748D01*
X378360000Y-226011252D02*
X378360000Y-225488748D01*
X289342500Y-311736252D02*
X289342500Y-311213748D01*
X287872500Y-311736252D02*
X287872500Y-311213748D01*
X360780000Y-254586252D02*
X360780000Y-254063748D01*
X359310000Y-254586252D02*
X359310000Y-254063748D01*
X421222500Y-292686252D02*
X421222500Y-292163748D01*
X422692500Y-292686252D02*
X422692500Y-292163748D01*
X130710000Y-226011252D02*
X130710000Y-225488748D01*
X132180000Y-226011252D02*
X132180000Y-225488748D01*
X225960000Y-254586252D02*
X225960000Y-254063748D01*
X227430000Y-254586252D02*
X227430000Y-254063748D01*
X158373750Y-330786252D02*
X158373750Y-330263748D01*
X156903750Y-330786252D02*
X156903750Y-330263748D01*
X311685000Y-226011252D02*
X311685000Y-225488748D01*
X313155000Y-226011252D02*
X313155000Y-225488748D01*
X460792500Y-311736252D02*
X460792500Y-311213748D01*
X459322500Y-311736252D02*
X459322500Y-311213748D01*
X323591250Y-330786252D02*
X323591250Y-330263748D01*
X325061250Y-330786252D02*
X325061250Y-330263748D01*
X389355000Y-254586252D02*
X389355000Y-254063748D01*
X387885000Y-254586252D02*
X387885000Y-254063748D01*
X206910000Y-254586252D02*
X206910000Y-254063748D01*
X208380000Y-254586252D02*
X208380000Y-254063748D01*
X392647500Y-273636252D02*
X392647500Y-273113748D01*
X394117500Y-273636252D02*
X394117500Y-273113748D01*
X206910000Y-226011252D02*
X206910000Y-225488748D01*
X208380000Y-226011252D02*
X208380000Y-225488748D01*
X252153750Y-330786252D02*
X252153750Y-330263748D01*
X253623750Y-330786252D02*
X253623750Y-330263748D01*
X221197500Y-292686252D02*
X221197500Y-292163748D01*
X222667500Y-292686252D02*
X222667500Y-292163748D01*
X341730000Y-226011252D02*
X341730000Y-225488748D01*
X340260000Y-226011252D02*
X340260000Y-225488748D01*
X422692500Y-330786252D02*
X422692500Y-330263748D01*
X421222500Y-330786252D02*
X421222500Y-330263748D01*
X422692500Y-311736252D02*
X422692500Y-311213748D01*
X421222500Y-311736252D02*
X421222500Y-311213748D01*
X441742500Y-292686252D02*
X441742500Y-292163748D01*
X440272500Y-292686252D02*
X440272500Y-292163748D01*
X265530000Y-254586252D02*
X265530000Y-254063748D01*
X264060000Y-254586252D02*
X264060000Y-254063748D01*
X168810000Y-254586252D02*
X168810000Y-254063748D01*
X170280000Y-254586252D02*
X170280000Y-254063748D01*
X441742500Y-273636252D02*
X441742500Y-273113748D01*
X440272500Y-273636252D02*
X440272500Y-273113748D01*
X194092500Y-311736252D02*
X194092500Y-311213748D01*
X192622500Y-311736252D02*
X192622500Y-311213748D01*
X459322500Y-330786252D02*
X459322500Y-330263748D01*
X460792500Y-330786252D02*
X460792500Y-330263748D01*
X136942500Y-273636252D02*
X136942500Y-273113748D01*
X135472500Y-273636252D02*
X135472500Y-273113748D01*
X182186250Y-330786252D02*
X182186250Y-330263748D01*
X180716250Y-330786252D02*
X180716250Y-330263748D01*
X385503750Y-292686252D02*
X385503750Y-292163748D01*
X386973750Y-292686252D02*
X386973750Y-292163748D01*
X460792500Y-273636252D02*
X460792500Y-273113748D01*
X459322500Y-273636252D02*
X459322500Y-273113748D01*
X359310000Y-226011252D02*
X359310000Y-225488748D01*
X360780000Y-226011252D02*
X360780000Y-225488748D01*
X294105000Y-226011252D02*
X294105000Y-225488748D01*
X292635000Y-226011252D02*
X292635000Y-225488748D01*
X189330000Y-226011252D02*
X189330000Y-225488748D01*
X187860000Y-226011252D02*
X187860000Y-225488748D01*
X246480000Y-254586252D02*
X246480000Y-254063748D01*
X245010000Y-254586252D02*
X245010000Y-254063748D01*
X325972500Y-311736252D02*
X325972500Y-311213748D01*
X327442500Y-311736252D02*
X327442500Y-311213748D01*
X346492500Y-311736252D02*
X346492500Y-311213748D01*
X345022500Y-311736252D02*
X345022500Y-311213748D01*
X306922500Y-311736252D02*
X306922500Y-311213748D01*
X308392500Y-311736252D02*
X308392500Y-311213748D01*
X380741250Y-311736252D02*
X380741250Y-311213748D01*
X382211250Y-311736252D02*
X382211250Y-311213748D01*
X268822500Y-311736252D02*
X268822500Y-311213748D01*
X270292500Y-311736252D02*
X270292500Y-311213748D01*
X459322500Y-226011252D02*
X459322500Y-225488748D01*
X460792500Y-226011252D02*
X460792500Y-225488748D01*
X149760000Y-254586252D02*
X149760000Y-254063748D01*
X151230000Y-254586252D02*
X151230000Y-254063748D01*
X397410000Y-226011252D02*
X397410000Y-225488748D01*
X398880000Y-226011252D02*
X398880000Y-225488748D01*
X447261252Y-194735000D02*
X446738748Y-194735000D01*
X447261252Y-193265000D02*
X446738748Y-193265000D01*
%LPC*%
D12*
X140665000Y-249575000D03*
X150825000Y-249575000D03*
D13*
X145745000Y-249575000D03*
D14*
X143095000Y-253875000D03*
X143095000Y-255375000D03*
X148395000Y-253875000D03*
X148395000Y-255375000D03*
D15*
X141935000Y-247035000D03*
X148285000Y-244495000D03*
D12*
X169875000Y-249575000D03*
X159715000Y-249575000D03*
D13*
X164795000Y-249575000D03*
D14*
X162145000Y-253875000D03*
X162145000Y-255375000D03*
X167445000Y-253875000D03*
X167445000Y-255375000D03*
D15*
X160985000Y-247035000D03*
X167335000Y-244495000D03*
D12*
X178765000Y-249575000D03*
X188925000Y-249575000D03*
D13*
X183845000Y-249575000D03*
D14*
X181195000Y-253875000D03*
X181195000Y-255375000D03*
X186495000Y-253875000D03*
X186495000Y-255375000D03*
D15*
X180035000Y-247035000D03*
X186385000Y-244495000D03*
D13*
X202895000Y-249575000D03*
D12*
X197815000Y-249575000D03*
X207975000Y-249575000D03*
D14*
X200245000Y-253875000D03*
X200245000Y-255375000D03*
X205545000Y-253875000D03*
X205545000Y-255375000D03*
D15*
X199085000Y-247035000D03*
X205435000Y-244495000D03*
D12*
X216865000Y-249575000D03*
X227025000Y-249575000D03*
D13*
X221945000Y-249575000D03*
D14*
X219295000Y-253875000D03*
X219295000Y-255375000D03*
X224595000Y-253875000D03*
X224595000Y-255375000D03*
D15*
X218135000Y-247035000D03*
X224485000Y-244495000D03*
D13*
X240995000Y-249575000D03*
D12*
X246075000Y-249575000D03*
X235915000Y-249575000D03*
D14*
X238345000Y-253875000D03*
X238345000Y-255375000D03*
X243645000Y-253875000D03*
X243645000Y-255375000D03*
D15*
X237185000Y-247035000D03*
X243535000Y-244495000D03*
D12*
X254965000Y-249575000D03*
D13*
X260045000Y-249575000D03*
D12*
X265125000Y-249575000D03*
D14*
X257395000Y-253875000D03*
X257395000Y-255375000D03*
X262695000Y-253875000D03*
X262695000Y-255375000D03*
D15*
X256235000Y-247035000D03*
X262585000Y-244495000D03*
D13*
X279095000Y-249575000D03*
D12*
X274015000Y-249575000D03*
X284175000Y-249575000D03*
D14*
X276445000Y-253875000D03*
X276445000Y-255375000D03*
X281745000Y-253875000D03*
X281745000Y-255375000D03*
D15*
X275285000Y-247035000D03*
X281635000Y-244495000D03*
D12*
X293065000Y-249575000D03*
D13*
X298145000Y-249575000D03*
D12*
X303225000Y-249575000D03*
D14*
X295495000Y-253875000D03*
X295495000Y-255375000D03*
X300795000Y-253875000D03*
X300795000Y-255375000D03*
D15*
X294335000Y-247035000D03*
X300685000Y-244495000D03*
D12*
X165112500Y-287675000D03*
X154952500Y-287675000D03*
D13*
X160032500Y-287675000D03*
D14*
X157382500Y-291975000D03*
X157382500Y-293475000D03*
X162682500Y-291975000D03*
X162682500Y-293475000D03*
D15*
X156222500Y-285135000D03*
X162572500Y-282595000D03*
D12*
X250837500Y-306725000D03*
X240677500Y-306725000D03*
D13*
X245757500Y-306725000D03*
D14*
X243107500Y-311025000D03*
X243107500Y-312525000D03*
X248407500Y-311025000D03*
X248407500Y-312525000D03*
D15*
X241947500Y-304185000D03*
X248297500Y-301645000D03*
D12*
X378790000Y-249575000D03*
D13*
X383870000Y-249575000D03*
D12*
X388950000Y-249575000D03*
D14*
X381220000Y-253875000D03*
X381220000Y-255375000D03*
X386520000Y-253875000D03*
X386520000Y-255375000D03*
D15*
X380060000Y-247035000D03*
X386410000Y-244495000D03*
D13*
X388632500Y-268625000D03*
D12*
X393712500Y-268625000D03*
X383552500Y-268625000D03*
D14*
X385982500Y-272925000D03*
X385982500Y-274425000D03*
X391282500Y-272925000D03*
X391282500Y-274425000D03*
D15*
X384822500Y-266085000D03*
X391172500Y-263545000D03*
D13*
X207657500Y-306725000D03*
D12*
X212737500Y-306725000D03*
X202577500Y-306725000D03*
D14*
X205007500Y-311025000D03*
X205007500Y-312525000D03*
X210307500Y-311025000D03*
X210307500Y-312525000D03*
D15*
X203847500Y-304185000D03*
X210197500Y-301645000D03*
D12*
X193052500Y-287675000D03*
D13*
X198132500Y-287675000D03*
D12*
X203212500Y-287675000D03*
D14*
X195482500Y-291975000D03*
X195482500Y-293475000D03*
X200782500Y-291975000D03*
X200782500Y-293475000D03*
D15*
X194322500Y-285135000D03*
X200672500Y-282595000D03*
D13*
X336245000Y-249575000D03*
D12*
X341325000Y-249575000D03*
X331165000Y-249575000D03*
D14*
X333595000Y-253875000D03*
X333595000Y-255375000D03*
X338895000Y-253875000D03*
X338895000Y-255375000D03*
D15*
X332435000Y-247035000D03*
X338785000Y-244495000D03*
D13*
X417207500Y-268625000D03*
D12*
X422287500Y-268625000D03*
X412127500Y-268625000D03*
D14*
X414557500Y-272925000D03*
X414557500Y-274425000D03*
X419857500Y-272925000D03*
X419857500Y-274425000D03*
D15*
X413397500Y-266085000D03*
X419747500Y-263545000D03*
D12*
X431177500Y-325775000D03*
D13*
X436257500Y-325775000D03*
D12*
X441337500Y-325775000D03*
D14*
X433607500Y-330075000D03*
X433607500Y-331575000D03*
X438907500Y-330075000D03*
X438907500Y-331575000D03*
D15*
X432447500Y-323235000D03*
X438797500Y-320695000D03*
D12*
X188290000Y-268625000D03*
X198450000Y-268625000D03*
D13*
X193370000Y-268625000D03*
D14*
X190720000Y-272925000D03*
X190720000Y-274425000D03*
X196020000Y-272925000D03*
X196020000Y-274425000D03*
D15*
X189560000Y-266085000D03*
X195910000Y-263545000D03*
D12*
X441337500Y-268625000D03*
X431177500Y-268625000D03*
D13*
X436257500Y-268625000D03*
D14*
X433607500Y-272925000D03*
X433607500Y-274425000D03*
X438907500Y-272925000D03*
X438907500Y-274425000D03*
D15*
X432447500Y-266085000D03*
X438797500Y-263545000D03*
D13*
X381488750Y-287675000D03*
D12*
X386568750Y-287675000D03*
X376408750Y-287675000D03*
D14*
X378838750Y-291975000D03*
X378838750Y-293475000D03*
X384138750Y-291975000D03*
X384138750Y-293475000D03*
D15*
X377678750Y-285135000D03*
X384028750Y-282595000D03*
D12*
X360375000Y-249575000D03*
X350215000Y-249575000D03*
D13*
X355295000Y-249575000D03*
D14*
X352645000Y-253875000D03*
X352645000Y-255375000D03*
X357945000Y-253875000D03*
X357945000Y-255375000D03*
D15*
X351485000Y-247035000D03*
X357835000Y-244495000D03*
D12*
X150825000Y-221000000D03*
X140665000Y-221000000D03*
D13*
X145745000Y-221000000D03*
D14*
X143095000Y-225300000D03*
X143095000Y-226800000D03*
X148395000Y-225300000D03*
X148395000Y-226800000D03*
D15*
X141935000Y-218460000D03*
X148285000Y-215920000D03*
D12*
X215118750Y-325775000D03*
D13*
X210038750Y-325775000D03*
D12*
X204958750Y-325775000D03*
D14*
X207388750Y-330075000D03*
X207388750Y-331575000D03*
X212688750Y-330075000D03*
X212688750Y-331575000D03*
D15*
X206228750Y-323235000D03*
X212578750Y-320695000D03*
D12*
X281158750Y-325775000D03*
D13*
X286238750Y-325775000D03*
D12*
X291318750Y-325775000D03*
D14*
X283588750Y-330075000D03*
X283588750Y-331575000D03*
X288888750Y-330075000D03*
X288888750Y-331575000D03*
D15*
X282428750Y-323235000D03*
X288778750Y-320695000D03*
D12*
X422287500Y-287675000D03*
D13*
X417207500Y-287675000D03*
D12*
X412127500Y-287675000D03*
D14*
X414557500Y-291975000D03*
X414557500Y-293475000D03*
X419857500Y-291975000D03*
X419857500Y-293475000D03*
D15*
X413397500Y-285135000D03*
X419747500Y-282595000D03*
D13*
X417207500Y-306725000D03*
D12*
X422287500Y-306725000D03*
X412127500Y-306725000D03*
D14*
X414557500Y-311025000D03*
X414557500Y-312525000D03*
X419857500Y-311025000D03*
X419857500Y-312525000D03*
D15*
X413397500Y-304185000D03*
X419747500Y-301645000D03*
D12*
X441337500Y-287675000D03*
D13*
X436257500Y-287675000D03*
D12*
X431177500Y-287675000D03*
D14*
X433607500Y-291975000D03*
X433607500Y-293475000D03*
X438907500Y-291975000D03*
X438907500Y-293475000D03*
D15*
X432447500Y-285135000D03*
X438797500Y-282595000D03*
D13*
X455307500Y-287675000D03*
D12*
X450227500Y-287675000D03*
X460387500Y-287675000D03*
D14*
X452657500Y-291975000D03*
X452657500Y-293475000D03*
X457957500Y-291975000D03*
X457957500Y-293475000D03*
D15*
X451497500Y-285135000D03*
X457847500Y-282595000D03*
D12*
X450227500Y-306725000D03*
X460387500Y-306725000D03*
D13*
X455307500Y-306725000D03*
D14*
X452657500Y-311025000D03*
X452657500Y-312525000D03*
X457957500Y-311025000D03*
X457957500Y-312525000D03*
D15*
X451497500Y-304185000D03*
X457847500Y-301645000D03*
D12*
X169875000Y-221000000D03*
X159715000Y-221000000D03*
D13*
X164795000Y-221000000D03*
D14*
X162145000Y-225300000D03*
X162145000Y-226800000D03*
X167445000Y-225300000D03*
X167445000Y-226800000D03*
D15*
X160985000Y-218460000D03*
X167335000Y-215920000D03*
D12*
X178765000Y-221000000D03*
D13*
X183845000Y-221000000D03*
D12*
X188925000Y-221000000D03*
D14*
X181195000Y-225300000D03*
X181195000Y-226800000D03*
X186495000Y-225300000D03*
X186495000Y-226800000D03*
D15*
X180035000Y-218460000D03*
X186385000Y-215920000D03*
D12*
X207975000Y-221000000D03*
D13*
X202895000Y-221000000D03*
D12*
X197815000Y-221000000D03*
D14*
X200245000Y-225300000D03*
X200245000Y-226800000D03*
X205545000Y-225300000D03*
X205545000Y-226800000D03*
D15*
X199085000Y-218460000D03*
X205435000Y-215920000D03*
D12*
X245440000Y-221000000D03*
X255600000Y-221000000D03*
D13*
X250520000Y-221000000D03*
D14*
X247870000Y-225300000D03*
X247870000Y-226800000D03*
X253170000Y-225300000D03*
X253170000Y-226800000D03*
D15*
X246710000Y-218460000D03*
X253060000Y-215920000D03*
D12*
X283540000Y-221000000D03*
X293700000Y-221000000D03*
D13*
X288620000Y-221000000D03*
D14*
X285970000Y-225300000D03*
X285970000Y-226800000D03*
X291270000Y-225300000D03*
X291270000Y-226800000D03*
D15*
X284810000Y-218460000D03*
X291160000Y-215920000D03*
D12*
X302590000Y-221000000D03*
D13*
X307670000Y-221000000D03*
D12*
X312750000Y-221000000D03*
D14*
X305020000Y-225300000D03*
X305020000Y-226800000D03*
X310320000Y-225300000D03*
X310320000Y-226800000D03*
D15*
X303860000Y-218460000D03*
X310210000Y-215920000D03*
D13*
X374345000Y-221000000D03*
D12*
X379425000Y-221000000D03*
X369265000Y-221000000D03*
D14*
X371695000Y-225300000D03*
X371695000Y-226800000D03*
X376995000Y-225300000D03*
X376995000Y-226800000D03*
D15*
X370535000Y-218460000D03*
X376885000Y-215920000D03*
D12*
X222262500Y-287675000D03*
D13*
X217182500Y-287675000D03*
D12*
X212102500Y-287675000D03*
D14*
X214532500Y-291975000D03*
X214532500Y-293475000D03*
X219832500Y-291975000D03*
X219832500Y-293475000D03*
D15*
X213372500Y-285135000D03*
X219722500Y-282595000D03*
D12*
X335927500Y-306725000D03*
D13*
X341007500Y-306725000D03*
D12*
X346087500Y-306725000D03*
D14*
X338357500Y-311025000D03*
X338357500Y-312525000D03*
X343657500Y-311025000D03*
X343657500Y-312525000D03*
D15*
X337197500Y-304185000D03*
X343547500Y-301645000D03*
D12*
X231152500Y-287675000D03*
D13*
X236232500Y-287675000D03*
D12*
X241312500Y-287675000D03*
D14*
X233582500Y-291975000D03*
X233582500Y-293475000D03*
X238882500Y-291975000D03*
X238882500Y-293475000D03*
D15*
X232422500Y-285135000D03*
X238772500Y-282595000D03*
D13*
X255282500Y-287675000D03*
D12*
X260362500Y-287675000D03*
X250202500Y-287675000D03*
D14*
X252632500Y-291975000D03*
X252632500Y-293475000D03*
X257932500Y-291975000D03*
X257932500Y-293475000D03*
D15*
X251472500Y-285135000D03*
X257822500Y-282595000D03*
D12*
X431177500Y-249575000D03*
X441337500Y-249575000D03*
D13*
X436257500Y-249575000D03*
D14*
X433607500Y-253875000D03*
X433607500Y-255375000D03*
X438907500Y-253875000D03*
X438907500Y-255375000D03*
D15*
X432447500Y-247035000D03*
X438797500Y-244495000D03*
D13*
X288620000Y-268625000D03*
D12*
X283540000Y-268625000D03*
X293700000Y-268625000D03*
D14*
X285970000Y-272925000D03*
X285970000Y-274425000D03*
X291270000Y-272925000D03*
X291270000Y-274425000D03*
D15*
X284810000Y-266085000D03*
X291160000Y-263545000D03*
D13*
X417207500Y-249575000D03*
D12*
X422287500Y-249575000D03*
X412127500Y-249575000D03*
D14*
X414557500Y-253875000D03*
X414557500Y-255375000D03*
X419857500Y-253875000D03*
X419857500Y-255375000D03*
D15*
X413397500Y-247035000D03*
X419747500Y-244495000D03*
D13*
X293382500Y-287675000D03*
D12*
X288302500Y-287675000D03*
X298462500Y-287675000D03*
D14*
X290732500Y-291975000D03*
X290732500Y-293475000D03*
X296032500Y-291975000D03*
X296032500Y-293475000D03*
D15*
X289572500Y-285135000D03*
X295922500Y-282595000D03*
D12*
X307352500Y-287675000D03*
X317512500Y-287675000D03*
D13*
X312432500Y-287675000D03*
D14*
X309782500Y-291975000D03*
X309782500Y-293475000D03*
X315082500Y-291975000D03*
X315082500Y-293475000D03*
D15*
X308622500Y-285135000D03*
X314972500Y-282595000D03*
D12*
X181781250Y-325775000D03*
X171621250Y-325775000D03*
D13*
X176701250Y-325775000D03*
D14*
X174051250Y-330075000D03*
X174051250Y-331575000D03*
X179351250Y-330075000D03*
X179351250Y-331575000D03*
D15*
X172891250Y-323235000D03*
X179241250Y-320695000D03*
D13*
X417207500Y-325775000D03*
D12*
X422287500Y-325775000D03*
X412127500Y-325775000D03*
D14*
X414557500Y-330075000D03*
X414557500Y-331575000D03*
X419857500Y-330075000D03*
X419857500Y-331575000D03*
D15*
X413397500Y-323235000D03*
X419747500Y-320695000D03*
D12*
X147808750Y-325775000D03*
X157968750Y-325775000D03*
D13*
X152888750Y-325775000D03*
D14*
X150238750Y-330075000D03*
X150238750Y-331575000D03*
X155538750Y-330075000D03*
X155538750Y-331575000D03*
D15*
X149078750Y-323235000D03*
X155428750Y-320695000D03*
D12*
X278777500Y-306725000D03*
X288937500Y-306725000D03*
D13*
X283857500Y-306725000D03*
D14*
X281207500Y-311025000D03*
X281207500Y-312525000D03*
X286507500Y-311025000D03*
X286507500Y-312525000D03*
D15*
X280047500Y-304185000D03*
X286397500Y-301645000D03*
D13*
X367201250Y-325775000D03*
D12*
X372281250Y-325775000D03*
X362121250Y-325775000D03*
D14*
X364551250Y-330075000D03*
X364551250Y-331575000D03*
X369851250Y-330075000D03*
X369851250Y-331575000D03*
D15*
X363391250Y-323235000D03*
X369741250Y-320695000D03*
D12*
X269887500Y-306725000D03*
X259727500Y-306725000D03*
D13*
X264807500Y-306725000D03*
D14*
X262157500Y-311025000D03*
X262157500Y-312525000D03*
X267457500Y-311025000D03*
X267457500Y-312525000D03*
D15*
X260997500Y-304185000D03*
X267347500Y-301645000D03*
D13*
X307670000Y-268625000D03*
D12*
X312750000Y-268625000D03*
X302590000Y-268625000D03*
D14*
X305020000Y-272925000D03*
X305020000Y-274425000D03*
X310320000Y-272925000D03*
X310320000Y-274425000D03*
D15*
X303860000Y-266085000D03*
X310210000Y-263545000D03*
D12*
X450227500Y-221000000D03*
D13*
X455307500Y-221000000D03*
D12*
X460387500Y-221000000D03*
D14*
X452657500Y-225300000D03*
X452657500Y-226800000D03*
X457957500Y-225300000D03*
X457957500Y-226800000D03*
D15*
X451497500Y-218460000D03*
X457847500Y-215920000D03*
D12*
X460387500Y-268625000D03*
X450227500Y-268625000D03*
D13*
X455307500Y-268625000D03*
D14*
X452657500Y-272925000D03*
X452657500Y-274425000D03*
X457957500Y-272925000D03*
X457957500Y-274425000D03*
D15*
X451497500Y-266085000D03*
X457847500Y-263545000D03*
D13*
X455307500Y-249575000D03*
D12*
X460387500Y-249575000D03*
X450227500Y-249575000D03*
D14*
X452657500Y-253875000D03*
X452657500Y-255375000D03*
X457957500Y-253875000D03*
X457957500Y-255375000D03*
D15*
X451497500Y-247035000D03*
X457847500Y-244495000D03*
D13*
X417207500Y-221000000D03*
D12*
X422287500Y-221000000D03*
X412127500Y-221000000D03*
D14*
X414557500Y-225300000D03*
X414557500Y-226800000D03*
X419857500Y-225300000D03*
X419857500Y-226800000D03*
D15*
X413397500Y-218460000D03*
X419747500Y-215920000D03*
D12*
X150190000Y-268625000D03*
D13*
X155270000Y-268625000D03*
D12*
X160350000Y-268625000D03*
D14*
X152620000Y-272925000D03*
X152620000Y-274425000D03*
X157920000Y-272925000D03*
X157920000Y-274425000D03*
D15*
X151460000Y-266085000D03*
X157810000Y-263545000D03*
D12*
X345452500Y-287675000D03*
X355612500Y-287675000D03*
D13*
X350532500Y-287675000D03*
D14*
X347882500Y-291975000D03*
X347882500Y-293475000D03*
X353182500Y-291975000D03*
X353182500Y-293475000D03*
D15*
X346722500Y-285135000D03*
X353072500Y-282595000D03*
D12*
X217500000Y-268625000D03*
D13*
X212420000Y-268625000D03*
D12*
X207340000Y-268625000D03*
D14*
X209770000Y-272925000D03*
X209770000Y-274425000D03*
X215070000Y-272925000D03*
X215070000Y-274425000D03*
D15*
X208610000Y-266085000D03*
X214960000Y-263545000D03*
D12*
X369900000Y-268625000D03*
D13*
X364820000Y-268625000D03*
D12*
X359740000Y-268625000D03*
D14*
X362170000Y-272925000D03*
X362170000Y-274425000D03*
X367470000Y-272925000D03*
X367470000Y-274425000D03*
D15*
X361010000Y-266085000D03*
X367360000Y-263545000D03*
D12*
X450227500Y-325775000D03*
X460387500Y-325775000D03*
D13*
X455307500Y-325775000D03*
D14*
X452657500Y-330075000D03*
X452657500Y-331575000D03*
X457957500Y-330075000D03*
X457957500Y-331575000D03*
D15*
X451497500Y-323235000D03*
X457847500Y-320695000D03*
D12*
X381806250Y-306725000D03*
D13*
X376726250Y-306725000D03*
D12*
X371646250Y-306725000D03*
D14*
X374076250Y-311025000D03*
X374076250Y-312525000D03*
X379376250Y-311025000D03*
X379376250Y-312525000D03*
D15*
X372916250Y-304185000D03*
X379266250Y-301645000D03*
D13*
X179082500Y-287675000D03*
D12*
X184162500Y-287675000D03*
X174002500Y-287675000D03*
D14*
X176432500Y-291975000D03*
X176432500Y-293475000D03*
X181732500Y-291975000D03*
X181732500Y-293475000D03*
D15*
X175272500Y-285135000D03*
X181622500Y-282595000D03*
D13*
X436257500Y-221000000D03*
D12*
X431177500Y-221000000D03*
X441337500Y-221000000D03*
D14*
X433607500Y-225300000D03*
X433607500Y-226800000D03*
X438907500Y-225300000D03*
X438907500Y-226800000D03*
D15*
X432447500Y-218460000D03*
X438797500Y-215920000D03*
D13*
X248138750Y-325775000D03*
D12*
X243058750Y-325775000D03*
X253218750Y-325775000D03*
D14*
X245488750Y-330075000D03*
X245488750Y-331575000D03*
X250788750Y-330075000D03*
X250788750Y-331575000D03*
D15*
X244328750Y-323235000D03*
X250678750Y-320695000D03*
D13*
X231470000Y-268625000D03*
D12*
X226390000Y-268625000D03*
X236550000Y-268625000D03*
D14*
X228820000Y-272925000D03*
X228820000Y-274425000D03*
X234120000Y-272925000D03*
X234120000Y-274425000D03*
D15*
X227660000Y-266085000D03*
X234010000Y-263545000D03*
D12*
X264490000Y-268625000D03*
D13*
X269570000Y-268625000D03*
D12*
X274650000Y-268625000D03*
D14*
X266920000Y-272925000D03*
X266920000Y-274425000D03*
X272220000Y-272925000D03*
X272220000Y-274425000D03*
D15*
X265760000Y-266085000D03*
X272110000Y-263545000D03*
D12*
X431177500Y-306725000D03*
X441337500Y-306725000D03*
D13*
X436257500Y-306725000D03*
D14*
X433607500Y-311025000D03*
X433607500Y-312525000D03*
X438907500Y-311025000D03*
X438907500Y-312525000D03*
D15*
X432447500Y-304185000D03*
X438797500Y-301645000D03*
D12*
X169240000Y-268625000D03*
D13*
X174320000Y-268625000D03*
D12*
X179400000Y-268625000D03*
D14*
X171670000Y-272925000D03*
X171670000Y-274425000D03*
X176970000Y-272925000D03*
X176970000Y-274425000D03*
D15*
X170510000Y-266085000D03*
X176860000Y-263545000D03*
D12*
X193687500Y-306725000D03*
D13*
X188607500Y-306725000D03*
D12*
X183527500Y-306725000D03*
D14*
X185957500Y-311025000D03*
X185957500Y-312525000D03*
X191257500Y-311025000D03*
X191257500Y-312525000D03*
D15*
X184797500Y-304185000D03*
X191147500Y-301645000D03*
D12*
X255600000Y-268625000D03*
D13*
X250520000Y-268625000D03*
D12*
X245440000Y-268625000D03*
D14*
X247870000Y-272925000D03*
X247870000Y-274425000D03*
X253170000Y-272925000D03*
X253170000Y-274425000D03*
D15*
X246710000Y-266085000D03*
X253060000Y-263545000D03*
D13*
X274332500Y-287675000D03*
D12*
X279412500Y-287675000D03*
X269252500Y-287675000D03*
D14*
X271682500Y-291975000D03*
X271682500Y-293475000D03*
X276982500Y-291975000D03*
X276982500Y-293475000D03*
D15*
X270522500Y-285135000D03*
X276872500Y-282595000D03*
D12*
X340690000Y-268625000D03*
D13*
X345770000Y-268625000D03*
D12*
X350850000Y-268625000D03*
D14*
X343120000Y-272925000D03*
X343120000Y-274425000D03*
X348420000Y-272925000D03*
X348420000Y-274425000D03*
D15*
X341960000Y-266085000D03*
X348310000Y-263545000D03*
D12*
X350215000Y-221000000D03*
D13*
X355295000Y-221000000D03*
D12*
X360375000Y-221000000D03*
D14*
X352645000Y-225300000D03*
X352645000Y-226800000D03*
X357945000Y-225300000D03*
X357945000Y-226800000D03*
D15*
X351485000Y-218460000D03*
X357835000Y-215920000D03*
D12*
X227025000Y-221000000D03*
X216865000Y-221000000D03*
D13*
X221945000Y-221000000D03*
D14*
X219295000Y-225300000D03*
X219295000Y-226800000D03*
X224595000Y-225300000D03*
X224595000Y-226800000D03*
D15*
X218135000Y-218460000D03*
X224485000Y-215920000D03*
D12*
X274650000Y-221000000D03*
D13*
X269570000Y-221000000D03*
D12*
X264490000Y-221000000D03*
D14*
X266920000Y-225300000D03*
X266920000Y-226800000D03*
X272220000Y-225300000D03*
X272220000Y-226800000D03*
D15*
X265760000Y-218460000D03*
X272110000Y-215920000D03*
D13*
X319576250Y-325775000D03*
D12*
X324656250Y-325775000D03*
X314496250Y-325775000D03*
D14*
X316926250Y-330075000D03*
X316926250Y-331575000D03*
X322226250Y-330075000D03*
X322226250Y-331575000D03*
D15*
X315766250Y-323235000D03*
X322116250Y-320695000D03*
D12*
X307987500Y-306725000D03*
X297827500Y-306725000D03*
D13*
X302907500Y-306725000D03*
D14*
X300257500Y-311025000D03*
X300257500Y-312525000D03*
X305557500Y-311025000D03*
X305557500Y-312525000D03*
D15*
X299097500Y-304185000D03*
X305447500Y-301645000D03*
D13*
X131457500Y-268625000D03*
D12*
X136537500Y-268625000D03*
X126377500Y-268625000D03*
D14*
X128807500Y-272925000D03*
X128807500Y-274425000D03*
X134107500Y-272925000D03*
X134107500Y-274425000D03*
D15*
X127647500Y-266085000D03*
X133997500Y-263545000D03*
D13*
X138601250Y-306725000D03*
D12*
X133521250Y-306725000D03*
X143681250Y-306725000D03*
D14*
X135951250Y-311025000D03*
X135951250Y-312525000D03*
X141251250Y-311025000D03*
X141251250Y-312525000D03*
D15*
X134791250Y-304185000D03*
X141141250Y-301645000D03*
D12*
X123996250Y-325775000D03*
D13*
X129076250Y-325775000D03*
D12*
X134156250Y-325775000D03*
D14*
X126426250Y-330075000D03*
X126426250Y-331575000D03*
X131726250Y-330075000D03*
X131726250Y-331575000D03*
D15*
X125266250Y-323235000D03*
X131616250Y-320695000D03*
D12*
X131775000Y-221000000D03*
X121615000Y-221000000D03*
D13*
X126695000Y-221000000D03*
D14*
X124045000Y-225300000D03*
X124045000Y-226800000D03*
X129345000Y-225300000D03*
X129345000Y-226800000D03*
D15*
X122885000Y-218460000D03*
X129235000Y-215920000D03*
D12*
X128758750Y-287675000D03*
X138918750Y-287675000D03*
D13*
X133838750Y-287675000D03*
D14*
X131188750Y-291975000D03*
X131188750Y-293475000D03*
X136488750Y-291975000D03*
X136488750Y-293475000D03*
D15*
X130028750Y-285135000D03*
X136378750Y-282595000D03*
D13*
X126695000Y-249575000D03*
D12*
X121615000Y-249575000D03*
X131775000Y-249575000D03*
D14*
X124045000Y-253875000D03*
X124045000Y-255375000D03*
X129345000Y-253875000D03*
X129345000Y-255375000D03*
D15*
X122885000Y-247035000D03*
X129235000Y-244495000D03*
D13*
X226707500Y-306725000D03*
D12*
X231787500Y-306725000D03*
X221627500Y-306725000D03*
D14*
X224057500Y-311025000D03*
X224057500Y-312525000D03*
X229357500Y-311025000D03*
X229357500Y-312525000D03*
D15*
X222897500Y-304185000D03*
X229247500Y-301645000D03*
D12*
X326402500Y-287675000D03*
X336562500Y-287675000D03*
D13*
X331482500Y-287675000D03*
D14*
X328832500Y-291975000D03*
X328832500Y-293475000D03*
X334132500Y-291975000D03*
X334132500Y-293475000D03*
D15*
X327672500Y-285135000D03*
X334022500Y-282595000D03*
D13*
X343388750Y-325775000D03*
D12*
X348468750Y-325775000D03*
X338308750Y-325775000D03*
D14*
X340738750Y-330075000D03*
X340738750Y-331575000D03*
X346038750Y-330075000D03*
X346038750Y-331575000D03*
D15*
X339578750Y-323235000D03*
X345928750Y-320695000D03*
D13*
X326720000Y-268625000D03*
D12*
X321640000Y-268625000D03*
X331800000Y-268625000D03*
D14*
X324070000Y-272925000D03*
X324070000Y-274425000D03*
X329370000Y-272925000D03*
X329370000Y-274425000D03*
D15*
X322910000Y-266085000D03*
X329260000Y-263545000D03*
D12*
X341325000Y-221000000D03*
D13*
X336245000Y-221000000D03*
D12*
X331165000Y-221000000D03*
D14*
X333595000Y-225300000D03*
X333595000Y-226800000D03*
X338895000Y-225300000D03*
X338895000Y-226800000D03*
D15*
X332435000Y-218460000D03*
X338785000Y-215920000D03*
D12*
X385933750Y-325775000D03*
X396093750Y-325775000D03*
D13*
X391013750Y-325775000D03*
D14*
X388363750Y-330075000D03*
X388363750Y-331575000D03*
X393663750Y-330075000D03*
X393663750Y-331575000D03*
D15*
X387203750Y-323235000D03*
X393553750Y-320695000D03*
D12*
X327037500Y-306725000D03*
D13*
X321957500Y-306725000D03*
D12*
X316877500Y-306725000D03*
D14*
X319307500Y-311025000D03*
X319307500Y-312525000D03*
X324607500Y-311025000D03*
X324607500Y-312525000D03*
D15*
X318147500Y-304185000D03*
X324497500Y-301645000D03*
D16*
X124000000Y-181000000D03*
D17*
X116380000Y-181000000D03*
D16*
X370000000Y-197000000D03*
D17*
X362380000Y-197000000D03*
D16*
X340000000Y-193000000D03*
D17*
X332380000Y-193000000D03*
D16*
X140000000Y-185000000D03*
D17*
X132380000Y-185000000D03*
D18*
X386000000Y-190540000D03*
D19*
X386000000Y-188000000D03*
D20*
X293000000Y-174725000D03*
X292150000Y-174725000D03*
X291300000Y-174725000D03*
X290450000Y-174725000D03*
X289600000Y-174725000D03*
X288750000Y-174725000D03*
X287900000Y-174725000D03*
X287050000Y-174725000D03*
X287050000Y-173375000D03*
X287900000Y-173375000D03*
X288750000Y-173375000D03*
X289600000Y-173375000D03*
X290450000Y-173375000D03*
X291300000Y-173375000D03*
X292150000Y-173375000D03*
X293000000Y-173375000D03*
D21*
X294350000Y-173745000D03*
D22*
X294350000Y-170365000D03*
D21*
X285700000Y-173745000D03*
D22*
X285700000Y-170365000D03*
D19*
X389870000Y-197890000D03*
X392410000Y-197890000D03*
D18*
X394950000Y-197890000D03*
D19*
X397490000Y-197890000D03*
X400030000Y-197890000D03*
X402570000Y-197890000D03*
X405110000Y-197890000D03*
D18*
X407650000Y-197890000D03*
D19*
X410190000Y-197890000D03*
X412730000Y-197890000D03*
X415270000Y-197890000D03*
X417810000Y-197890000D03*
D18*
X420350000Y-197890000D03*
D19*
X422890000Y-197890000D03*
X425430000Y-197890000D03*
X427970000Y-197890000D03*
X430510000Y-197890000D03*
D18*
X433050000Y-197890000D03*
D19*
X435590000Y-197890000D03*
X438130000Y-197890000D03*
X438130000Y-180110000D03*
X435590000Y-180110000D03*
D18*
X433050000Y-180110000D03*
D19*
X430510000Y-180110000D03*
X427970000Y-180110000D03*
X425430000Y-180110000D03*
X422890000Y-180110000D03*
D18*
X420350000Y-180110000D03*
D19*
X417810000Y-180110000D03*
X415270000Y-180110000D03*
X412730000Y-180110000D03*
X410190000Y-180110000D03*
D18*
X407650000Y-180110000D03*
D19*
X405110000Y-180110000D03*
X402570000Y-180110000D03*
X400030000Y-180110000D03*
X397490000Y-180110000D03*
D18*
X394950000Y-180110000D03*
D19*
X392410000Y-180110000D03*
X389870000Y-180110000D03*
X437900000Y-191540000D03*
D18*
X437900000Y-189000000D03*
D19*
X437900000Y-186460000D03*
D23*
X389880000Y-190000000D03*
X389880000Y-188000000D03*
D16*
X338000000Y-189000000D03*
D17*
X330380000Y-189000000D03*
D16*
X226000000Y-189000000D03*
D17*
X218380000Y-189000000D03*
D16*
X310000000Y-189000000D03*
D17*
X302380000Y-189000000D03*
D16*
X300000000Y-197000000D03*
D17*
X292380000Y-197000000D03*
D16*
X296000000Y-189000000D03*
D17*
X288380000Y-189000000D03*
D16*
X282000000Y-189000000D03*
D17*
X274380000Y-189000000D03*
D16*
X142000000Y-189000000D03*
D17*
X134380000Y-189000000D03*
D16*
X194000000Y-181000000D03*
D17*
X186380000Y-181000000D03*
D16*
X328000000Y-197000000D03*
D17*
X320380000Y-197000000D03*
D16*
X160000000Y-197000000D03*
D17*
X152380000Y-197000000D03*
D16*
X180000000Y-181000000D03*
D17*
X172380000Y-181000000D03*
D24*
X450000000Y-189000000D03*
X461400000Y-189000000D03*
D25*
X453200000Y-196500000D03*
X458200000Y-196500000D03*
X455700000Y-196500000D03*
X453200000Y-182000000D03*
X458200000Y-182000000D03*
D16*
X286000000Y-197000000D03*
D17*
X278380000Y-197000000D03*
D16*
X240000000Y-189000000D03*
D17*
X232380000Y-189000000D03*
D16*
X322000000Y-185000000D03*
D17*
X314380000Y-185000000D03*
D16*
X362000000Y-181000000D03*
D17*
X354380000Y-181000000D03*
D16*
X324000000Y-189000000D03*
D17*
X316380000Y-189000000D03*
D16*
X384000000Y-197000000D03*
D17*
X376380000Y-197000000D03*
D16*
X308000000Y-185000000D03*
D17*
X300380000Y-185000000D03*
D16*
X334000000Y-181000000D03*
D17*
X326380000Y-181000000D03*
D16*
X258000000Y-197000000D03*
D17*
X250380000Y-197000000D03*
D16*
X242000000Y-193000000D03*
D17*
X234380000Y-193000000D03*
D16*
X154000000Y-185000000D03*
D17*
X146380000Y-185000000D03*
D16*
X342000000Y-197000000D03*
D17*
X334380000Y-197000000D03*
D16*
X172000000Y-193000000D03*
D17*
X164380000Y-193000000D03*
D16*
X144000000Y-193000000D03*
D17*
X136380000Y-193000000D03*
D16*
X212000000Y-189000000D03*
D17*
X204380000Y-189000000D03*
D16*
X244000000Y-197000000D03*
D17*
X236380000Y-197000000D03*
D16*
X314000000Y-197000000D03*
D17*
X306380000Y-197000000D03*
D16*
X280000000Y-185000000D03*
D17*
X272380000Y-185000000D03*
D16*
X202000000Y-197000000D03*
D17*
X194380000Y-197000000D03*
D16*
X320000000Y-181000000D03*
D17*
X312380000Y-181000000D03*
D16*
X182000000Y-185000000D03*
D17*
X174380000Y-185000000D03*
D16*
X364000000Y-185000000D03*
D17*
X356380000Y-185000000D03*
D16*
X378000000Y-185000000D03*
D17*
X370380000Y-185000000D03*
D16*
X284000000Y-193000000D03*
D17*
X276380000Y-193000000D03*
D16*
X264000000Y-181000000D03*
D17*
X256380000Y-181000000D03*
D16*
X130000000Y-193000000D03*
D17*
X122380000Y-193000000D03*
D16*
X254000000Y-189000000D03*
D17*
X246380000Y-189000000D03*
D16*
X200000000Y-193000000D03*
D17*
X192380000Y-193000000D03*
D16*
X350000000Y-185000000D03*
D17*
X342380000Y-185000000D03*
D16*
X252000000Y-185000000D03*
D17*
X244380000Y-185000000D03*
D16*
X228000000Y-193000000D03*
D17*
X220380000Y-193000000D03*
D16*
X270000000Y-193000000D03*
D17*
X262380000Y-193000000D03*
D16*
X126000000Y-185000000D03*
D17*
X118380000Y-185000000D03*
D16*
X132000000Y-197000000D03*
D17*
X124380000Y-197000000D03*
D16*
X348000000Y-181000000D03*
D17*
X340380000Y-181000000D03*
D16*
X356000000Y-197000000D03*
D17*
X348380000Y-197000000D03*
D16*
X268000000Y-189000000D03*
D17*
X260380000Y-189000000D03*
D16*
X256000000Y-193000000D03*
D17*
X248380000Y-193000000D03*
D16*
X230000000Y-197000000D03*
D17*
X222380000Y-197000000D03*
D16*
X170000000Y-189000000D03*
D17*
X162380000Y-189000000D03*
D16*
X174000000Y-197000000D03*
D17*
X166380000Y-197000000D03*
D16*
X166000000Y-181000000D03*
D17*
X158380000Y-181000000D03*
D16*
X210000000Y-185000000D03*
D17*
X202380000Y-185000000D03*
D16*
X186000000Y-193000000D03*
D17*
X178380000Y-193000000D03*
D16*
X278000000Y-181000000D03*
D17*
X270380000Y-181000000D03*
D16*
X266000000Y-185000000D03*
D17*
X258380000Y-185000000D03*
D16*
X152000000Y-181000000D03*
D17*
X144380000Y-181000000D03*
D16*
X184000000Y-189000000D03*
D17*
X176380000Y-189000000D03*
D16*
X366000000Y-189000000D03*
D17*
X358380000Y-189000000D03*
D16*
X188000000Y-197000000D03*
D17*
X180380000Y-197000000D03*
D16*
X158000000Y-193000000D03*
D17*
X150380000Y-193000000D03*
D16*
X298000000Y-193000000D03*
D17*
X290380000Y-193000000D03*
D16*
X128000000Y-189000000D03*
D17*
X120380000Y-189000000D03*
D16*
X272000000Y-197000000D03*
D17*
X264380000Y-197000000D03*
D16*
X352000000Y-189000000D03*
D17*
X344380000Y-189000000D03*
D16*
X382000000Y-193000000D03*
D17*
X374380000Y-193000000D03*
D16*
X368000000Y-193000000D03*
D17*
X360380000Y-193000000D03*
D16*
X208000000Y-181000000D03*
D17*
X200380000Y-181000000D03*
D16*
X196000000Y-185000000D03*
D17*
X188380000Y-185000000D03*
D16*
X216000000Y-197000000D03*
D17*
X208380000Y-197000000D03*
D16*
X326000000Y-193000000D03*
D17*
X318380000Y-193000000D03*
D16*
X198000000Y-189000000D03*
D17*
X190380000Y-189000000D03*
D16*
X138000000Y-181000000D03*
D17*
X130380000Y-181000000D03*
D16*
X336000000Y-185000000D03*
D17*
X328380000Y-185000000D03*
D16*
X376000000Y-181000000D03*
D17*
X368380000Y-181000000D03*
D16*
X214000000Y-193000000D03*
D17*
X206380000Y-193000000D03*
D16*
X306000000Y-181000000D03*
D17*
X298380000Y-181000000D03*
D16*
X236000000Y-181000000D03*
D17*
X228380000Y-181000000D03*
D16*
X292000000Y-181000000D03*
D17*
X284380000Y-181000000D03*
D16*
X294000000Y-185000000D03*
D17*
X286380000Y-185000000D03*
D16*
X156000000Y-189000000D03*
D17*
X148380000Y-189000000D03*
D16*
X354000000Y-193000000D03*
D17*
X346380000Y-193000000D03*
D16*
X168000000Y-185000000D03*
D17*
X160380000Y-185000000D03*
D16*
X146000000Y-197000000D03*
D17*
X138380000Y-197000000D03*
D16*
X224000000Y-185000000D03*
D17*
X216380000Y-185000000D03*
D16*
X222000000Y-181000000D03*
D17*
X214380000Y-181000000D03*
D16*
X380000000Y-189000000D03*
D17*
X372380000Y-189000000D03*
D16*
X238000000Y-185000000D03*
D17*
X230380000Y-185000000D03*
D16*
X312000000Y-193000000D03*
D17*
X304380000Y-193000000D03*
D16*
X250000000Y-181000000D03*
D17*
X242380000Y-181000000D03*
D12*
X322275000Y-249575000D03*
D13*
X317195000Y-249575000D03*
D12*
X312115000Y-249575000D03*
D14*
X314545000Y-253875000D03*
X314545000Y-255375000D03*
X319845000Y-253875000D03*
X319845000Y-255375000D03*
D15*
X313385000Y-247035000D03*
X319735000Y-244495000D03*
D12*
X398475000Y-221000000D03*
D13*
X393395000Y-221000000D03*
D12*
X388315000Y-221000000D03*
D14*
X390745000Y-225300000D03*
X390745000Y-226800000D03*
X396045000Y-225300000D03*
X396045000Y-226800000D03*
D15*
X389585000Y-218460000D03*
X395935000Y-215920000D03*
D12*
X174637500Y-306725000D03*
X164477500Y-306725000D03*
D13*
X169557500Y-306725000D03*
D14*
X166907500Y-311025000D03*
X166907500Y-312525000D03*
X172207500Y-311025000D03*
X172207500Y-312525000D03*
D15*
X165747500Y-304185000D03*
X172097500Y-301645000D03*
D26*
X126663250Y-314980000D03*
X150539250Y-314980000D03*
D27*
X126663250Y-299740000D03*
X150539250Y-299740000D03*
D26*
X364788250Y-314980000D03*
D27*
X388664250Y-299740000D03*
D26*
X388664250Y-314980000D03*
D27*
X364788250Y-299740000D03*
X393426750Y-280690000D03*
X369550750Y-280690000D03*
D26*
X369550750Y-295930000D03*
X393426750Y-295930000D03*
X395808000Y-257830000D03*
D27*
X371932000Y-242590000D03*
X395808000Y-242590000D03*
D26*
X371932000Y-257830000D03*
X198100750Y-334030000D03*
D27*
X198100750Y-318790000D03*
D26*
X221976750Y-334030000D03*
D27*
X221976750Y-318790000D03*
D26*
X298176750Y-334030000D03*
X274300750Y-334030000D03*
D27*
X298176750Y-318790000D03*
X274300750Y-318790000D03*
X236200750Y-318790000D03*
X260076750Y-318790000D03*
D26*
X260076750Y-334030000D03*
X236200750Y-334030000D03*
D16*
X451500000Y-203000000D03*
D17*
X459120000Y-203000000D03*
D28*
X447542000Y-186592000D03*
X446042000Y-186592000D03*
X447542000Y-191892000D03*
X446042000Y-191892000D03*
D29*
X363000000Y-287675000D03*
X468000000Y-170000000D03*
X147000000Y-287675000D03*
X379500000Y-235000000D03*
X305000000Y-170000000D03*
X202500000Y-170000000D03*
X114000000Y-254499558D03*
X467999558Y-254499558D03*
X202500000Y-339000000D03*
X379500000Y-339000000D03*
X291000000Y-339000000D03*
X202500000Y-235000000D03*
X114000000Y-339000000D03*
X274905346Y-170000000D03*
X468000000Y-339000000D03*
X291000000Y-235000000D03*
X114000000Y-170000000D03*
X379500000Y-170000000D03*
D30*
X143351250Y-312425000D03*
X143351250Y-310525000D03*
X441007500Y-331475000D03*
X441007500Y-329575000D03*
X255270000Y-226700000D03*
X255270000Y-224800000D03*
X169545000Y-226700000D03*
X169545000Y-224800000D03*
X183832500Y-293375000D03*
X183832500Y-291475000D03*
X212407500Y-312425000D03*
X212407500Y-310525000D03*
X336232500Y-293375000D03*
X336232500Y-291475000D03*
X179070000Y-274325000D03*
X179070000Y-272425000D03*
X302895000Y-255275000D03*
X302895000Y-253375000D03*
X421957500Y-226700000D03*
X421957500Y-224800000D03*
X369570000Y-274325000D03*
X369570000Y-272425000D03*
X202882500Y-293375000D03*
X202882500Y-291475000D03*
X260032500Y-293375000D03*
X260032500Y-291475000D03*
X340995000Y-255275000D03*
X340995000Y-253375000D03*
X217170000Y-274325000D03*
X217170000Y-272425000D03*
X231457500Y-312425000D03*
X231457500Y-310525000D03*
X214788750Y-331475000D03*
X214788750Y-329575000D03*
X441007500Y-226700000D03*
X441007500Y-224800000D03*
X293370000Y-274325000D03*
X293370000Y-272425000D03*
X283845000Y-255275000D03*
X283845000Y-253375000D03*
X274320000Y-226700000D03*
X274320000Y-224800000D03*
X150495000Y-226700000D03*
X150495000Y-224800000D03*
X198120000Y-274325000D03*
X198120000Y-272425000D03*
X441007500Y-312425000D03*
X441007500Y-310525000D03*
X331470000Y-274325000D03*
X331470000Y-272425000D03*
X279082500Y-293375000D03*
X279082500Y-291475000D03*
X421957500Y-255275000D03*
X421957500Y-253375000D03*
X298132500Y-293375000D03*
X298132500Y-291475000D03*
X133826250Y-331475000D03*
X133826250Y-329575000D03*
X421957500Y-274325000D03*
X421957500Y-272425000D03*
X371951250Y-331475000D03*
X371951250Y-329575000D03*
X160020000Y-274325000D03*
X160020000Y-272425000D03*
X317182500Y-293375000D03*
X317182500Y-291475000D03*
X236220000Y-274325000D03*
X236220000Y-272425000D03*
X460057500Y-255275000D03*
X460057500Y-253375000D03*
X226695000Y-226700000D03*
X226695000Y-224800000D03*
X240982500Y-293375000D03*
X240982500Y-291475000D03*
X274320000Y-274325000D03*
X274320000Y-272425000D03*
X188595000Y-255275000D03*
X188595000Y-253375000D03*
X350520000Y-274325000D03*
X350520000Y-272425000D03*
X441007500Y-255275000D03*
X441007500Y-253375000D03*
X138588750Y-293375000D03*
X138588750Y-291475000D03*
X131445000Y-255275000D03*
X131445000Y-253375000D03*
X355282500Y-293375000D03*
X355282500Y-291475000D03*
X174307500Y-312425000D03*
X174307500Y-310525000D03*
X348138750Y-331475000D03*
X348138750Y-329575000D03*
X164782500Y-293375000D03*
X164782500Y-291475000D03*
X395763750Y-331475000D03*
X395763750Y-329575000D03*
X290988750Y-331475000D03*
X290988750Y-329575000D03*
X255270000Y-274325000D03*
X255270000Y-272425000D03*
X312420000Y-274325000D03*
X312420000Y-272425000D03*
X460057500Y-293375000D03*
X460057500Y-291475000D03*
X250507500Y-312425000D03*
X250507500Y-310525000D03*
X321945000Y-255275000D03*
X321945000Y-253375000D03*
X379095000Y-226700000D03*
X379095000Y-224800000D03*
X288607500Y-312425000D03*
X288607500Y-310525000D03*
X360045000Y-255275000D03*
X360045000Y-253375000D03*
X421957500Y-293375000D03*
X421957500Y-291475000D03*
X131445000Y-226700000D03*
X131445000Y-224800000D03*
X226695000Y-255275000D03*
X226695000Y-253375000D03*
X157638750Y-331475000D03*
X157638750Y-329575000D03*
X312420000Y-226700000D03*
X312420000Y-224800000D03*
X460057500Y-312425000D03*
X460057500Y-310525000D03*
X324326250Y-331475000D03*
X324326250Y-329575000D03*
X388620000Y-255275000D03*
X388620000Y-253375000D03*
X207645000Y-255275000D03*
X207645000Y-253375000D03*
X393382500Y-274325000D03*
X393382500Y-272425000D03*
X207645000Y-226700000D03*
X207645000Y-224800000D03*
X252888750Y-331475000D03*
X252888750Y-329575000D03*
X221932500Y-293375000D03*
X221932500Y-291475000D03*
X340995000Y-226700000D03*
X340995000Y-224800000D03*
X421957500Y-331475000D03*
X421957500Y-329575000D03*
X421957500Y-312425000D03*
X421957500Y-310525000D03*
X441007500Y-293375000D03*
X441007500Y-291475000D03*
X264795000Y-255275000D03*
X264795000Y-253375000D03*
X169545000Y-255275000D03*
X169545000Y-253375000D03*
X441007500Y-274325000D03*
X441007500Y-272425000D03*
X193357500Y-312425000D03*
X193357500Y-310525000D03*
X460057500Y-331475000D03*
X460057500Y-329575000D03*
X136207500Y-274325000D03*
X136207500Y-272425000D03*
X181451250Y-331475000D03*
X181451250Y-329575000D03*
X386238750Y-293375000D03*
X386238750Y-291475000D03*
X460057500Y-274325000D03*
X460057500Y-272425000D03*
X360045000Y-226700000D03*
X360045000Y-224800000D03*
X293370000Y-226700000D03*
X293370000Y-224800000D03*
X188595000Y-226700000D03*
X188595000Y-224800000D03*
X245745000Y-255275000D03*
X245745000Y-253375000D03*
X326707500Y-312425000D03*
X326707500Y-310525000D03*
X345757500Y-312425000D03*
X345757500Y-310525000D03*
X307657500Y-312425000D03*
X307657500Y-310525000D03*
X381476250Y-312425000D03*
X381476250Y-310525000D03*
X269557500Y-312425000D03*
X269557500Y-310525000D03*
X460057500Y-226700000D03*
X460057500Y-224800000D03*
X150495000Y-255275000D03*
X150495000Y-253375000D03*
X398145000Y-226700000D03*
X398145000Y-224800000D03*
D31*
X447950000Y-194000000D03*
X446050000Y-194000000D03*
M02*
